<svg id="Layer_1" data-name="Layer 1" xmlns="http://www.w3.org/2000/svg" viewBox="0 0 200 200"><defs><style>.cls-1{fill:#353034;}.cls-2{fill:#614e40;}.cls-3{fill:#42342a;}.cls-4{fill:#d3ca54;}.cls-5{fill:#c7b044;}.cls-6{fill:#e9dc65;}.cls-7{fill:#f29131;}.cls-8{fill:#efded0;}.cls-9{fill:#6d9a97;}.cls-10{fill:#3b2e26;}.cls-11{fill:#e0d0c2;}.cls-12{fill:#e48e88;}.cls-13{fill:#ca9086;}.cls-14{fill:#803a30;}.cls-15{fill:#a44d3c;}.cls-16{fill:#516e6c;}.cls-17{fill:#261e1e;}.cls-18{fill:#dd7555;}.cls-19{fill:#c05d45;}.cls-20{fill:#f4af9f;}.cls-21{fill:#729a99;}.cls-22{fill:#8fc6c3;}.cls-23{fill:#2e2726;}.cls-24{fill:#f0b3ac;}.cls-25{fill:#1e1e1c;opacity:0.3;}</style></defs><title>Findyourfavouritestays</title><rect class="cls-1" x="33.13" y="164.08" width="133.75" height="2.22"/><rect class="cls-2" x="46.31" y="155.07" width="6.46" height="9.01"/><path class="cls-3" d="M46.31,157.14v1.43a5.39,5.39,0,0,0,6.47,0v-2.75Z"/><path class="cls-4" d="M49.36,96.84c-9.8.43-11.36,29-11.14,45.1s11.14,15.8,11.14,15.8,10.92.27,11.14-15.8S59.17,97.27,49.36,96.84Z"/><path class="cls-5" d="M59.69,132.76c-2.72,9.12-7,15.07-12.58,16.45a8.08,8.08,0,0,1-8.54-3.06c1.88,11.81,10.79,11.59,10.79,11.59s10.92.27,11.14-15.8c0-3.43,0-7.44-.16-11.61C60.14,131.15,59.93,132,59.69,132.76Z"/><path class="cls-6" d="M46.86,108c-1.34,2.79-3,4.13-3.67,3s-.16-4.33,1.17-7.13,3-4.13,3.67-3S48.2,105.16,46.86,108Z"/><path class="cls-7" d="M112.4,144.7a1.21,1.21,0,1,1-1.41,1.19A1.31,1.31,0,0,1,112.4,144.7Z"/><path class="cls-8" d="M115.26,124.47v35.19H98.43V124.47Zm-1.45,18V126.11H100v16.37Zm0,3.41a1.43,1.43,0,1,0-1.41,1.19A1.31,1.31,0,0,0,113.81,145.89Z"/><polygon class="cls-9" points="137.51 129.34 137.51 130.7 132.49 133.97 137.51 129.34"/><polygon class="cls-9" points="133.67 124.47 128.29 128.91 132.13 124.47 133.67 124.47"/><polygon class="cls-9" points="135.16 127.43 128.12 135.14 127.32 135.14 127.32 133.72 135.16 127.43"/><polygon class="cls-9" points="138.07 90.63 138.07 91.99 133.06 95.25 138.07 90.63"/><polygon class="cls-10" points="146.74 159.66 148.52 164.08 142.24 164.08 142.29 159.66 146.74 159.66"/><polygon class="cls-11" points="147.47 33.7 146.14 42.38 143.84 42.38 122.26 42.38 122.26 33.7 147.47 33.7"/><polygon class="cls-12" points="145.23 67.93 145.23 70.85 143.47 70.85 143.51 67.93 145.23 67.93"/><polygon class="cls-12" points="145.23 57.58 145.23 60.51 143.6 60.51 143.64 57.58 145.23 57.58"/><polygon class="cls-12" points="145.23 47.39 145.23 50.32 143.74 50.32 143.78 47.39 145.23 47.39"/><polygon class="cls-12" points="144.97 105.96 144.97 108.89 142.97 108.89 143 105.96 144.97 105.96"/><polygon class="cls-12" points="144.97 95.62 144.97 98.55 143.1 98.55 143.14 95.62 144.97 95.62"/><polygon class="cls-12" points="144.97 85.42 144.97 88.35 143.24 88.35 143.27 85.42 144.97 85.42"/><polygon class="cls-13" points="144.73 74.66 144.73 79.43 143.36 79.43 143.42 74.66 144.73 74.66"/><polygon class="cls-12" points="144.7 62.58 144.7 65.51 143.54 65.51 143.58 62.58 144.7 62.58"/><polygon class="cls-12" points="144.7 52.38 144.7 55.31 143.68 55.31 143.71 52.38 144.7 52.38"/><polygon class="cls-13" points="144.45 112.5 144.45 117.28 142.85 117.28 142.92 112.5 144.45 112.5"/><polygon class="cls-12" points="144.43 100.62 144.43 103.54 143.04 103.54 143.08 100.62 144.43 100.62"/><polygon class="cls-12" points="144.43 90.42 144.43 93.35 143.17 93.35 143.21 90.42 144.43 90.42"/><polygon class="cls-12" points="144.07 153.42 144.07 156.35 142.34 156.35 142.38 153.42 144.07 153.42"/><polygon class="cls-12" points="143.84 142.57 143.84 145.49 142.48 145.49 142.52 142.57 143.84 142.57"/><polygon class="cls-12" points="143.84 132.22 143.84 135.16 142.62 135.16 142.66 132.22 143.84 132.22"/><polygon class="cls-12" points="143.84 122.03 143.84 124.96 142.75 124.96 142.79 122.03 143.84 122.03"/><path class="cls-14" d="M143.84,42.38l0,3.64a38.78,38.78,0,0,0-21.54,0V42.38Z"/><path class="cls-15" d="M143.8,46l0,1.37h-2.95v2.93h2.91l0,2.06H140.3v2.93h3.37l0,2.27h-2.81v2.93h2.77l0,2.07H140.3v2.93h3.24l0,2.42h-2.68v2.92h2.64l-.05,3.81H122.26V46A38.78,38.78,0,0,1,143.8,46Zm-4.71,23.44V47.87H127.18V69.46Z"/><polygon class="cls-12" points="143.78 47.39 143.74 50.32 140.83 50.32 140.83 47.39 143.78 47.39"/><polygon class="cls-12" points="143.71 52.38 143.68 55.31 140.3 55.31 140.3 52.38 143.71 52.38"/><polygon class="cls-12" points="143.64 57.58 143.6 60.51 140.83 60.51 140.83 57.58 143.64 57.58"/><polygon class="cls-12" points="143.62 148.07 143.62 151 142.41 151 142.45 148.07 143.62 148.07"/><polygon class="cls-12" points="143.58 62.58 143.54 65.51 140.3 65.51 140.3 62.58 143.58 62.58"/><polygon class="cls-12" points="143.51 67.93 143.47 70.85 140.83 70.85 140.83 67.93 143.51 67.93"/><polygon class="cls-13" points="143.42 74.66 143.36 79.43 122.26 79.43 122.26 74.66 143.42 74.66"/><polygon class="cls-12" points="143.4 137.22 143.4 140.15 142.55 140.15 142.59 137.22 143.4 137.22"/><polygon class="cls-12" points="143.4 127.03 143.4 129.95 142.69 129.95 142.72 127.03 143.4 127.03"/><path class="cls-14" d="M143.36,79.43l-.05,3.22c-10.56-2.71-21,0-21,0V79.43Z"/><path class="cls-15" d="M143.31,82.65l0,2.77h-2.7v2.93h2.67l0,2.07H140v2.93h3.14l0,2.27h-2.57v2.93h2.53l0,2.07H140v2.92h3l0,2.42h-2.43v2.93H143l0,3.61H122.26V82.65S132.75,79.94,143.31,82.65ZM139,106.23V84.65H127.09v21.58Z"/><polygon class="cls-12" points="143.27 85.42 143.24 88.35 140.57 88.35 140.57 85.42 143.27 85.42"/><polygon class="cls-12" points="143.21 90.42 143.17 93.35 140.03 93.35 140.03 90.42 143.21 90.42"/><polygon class="cls-12" points="143.14 95.62 143.1 98.55 140.57 98.55 140.57 95.62 143.14 95.62"/><polygon class="cls-12" points="143.08 100.62 143.04 103.54 140.03 103.54 140.03 100.62 143.08 100.62"/><polygon class="cls-12" points="143 105.96 142.97 108.89 140.57 108.89 140.57 105.96 143 105.96"/><polygon class="cls-13" points="142.92 112.5 142.85 117.28 122.26 117.28 122.26 112.5 142.92 112.5"/><path class="cls-14" d="M142.85,117.28l0,2.75h0a55,55,0,0,0-20.55,0v-2.75Z"/><path class="cls-15" d="M142.82,120l0,2h-2.58V125h2.54l0,2.06h-2.95V130h2.91l0,2.28h-2.45v2.93h2.41l0,2.06h-2.82v2.93h2.78l0,2.42h-2.31v2.92h2.27l0,2.58H140V151h2.42l0,2.42h-1.95v2.93h1.91l-.05,3.31h-20V120a55,55,0,0,1,20.55,0Zm-4.37,24.91V123.36H126.53v21.58Z"/><polygon class="cls-12" points="142.79 122.03 142.75 124.96 140.21 124.96 140.21 122.03 142.79 122.03"/><polygon class="cls-12" points="142.72 127.03 142.69 129.95 139.77 129.95 139.77 127.03 142.72 127.03"/><polygon class="cls-12" points="142.66 132.22 142.62 135.16 140.21 135.16 140.21 132.22 142.66 132.22"/><polygon class="cls-12" points="142.59 137.22 142.55 140.15 139.77 140.15 139.77 137.22 142.59 137.22"/><polygon class="cls-12" points="142.52 142.57 142.48 145.49 140.21 145.49 140.21 142.57 142.52 142.57"/><polygon class="cls-12" points="142.45 148.07 142.41 151 139.99 151 139.99 148.07 142.45 148.07"/><polygon class="cls-12" points="142.38 153.42 142.34 156.35 140.43 156.35 140.43 153.42 142.38 153.42"/><polygon class="cls-10" points="142.29 159.66 142.24 164.08 122.26 164.08 122.26 159.66 142.29 159.66"/><path class="cls-10" d="M139.09,47.87V69.46H127.18V47.87Zm-.93,13.37V49H128V68.41h10.2Z"/><path class="cls-10" d="M139,84.65v21.58H127.09V84.65ZM138.08,98V85.76h-10.2v19.43h10.2Z"/><path class="cls-10" d="M138.45,123.36v21.58H126.53V123.36Zm-.94,13.36V124.47H127.32V143.9h10.19Z"/><rect class="cls-7" x="127.96" y="61.24" width="10.2" height="7.18"/><polygon class="cls-10" points="138.16 59.66 138.16 61.23 127.96 61.23 127.96 59.66 128.76 59.66 138.16 59.66"/><polygon class="cls-16" points="138.16 55.22 138.16 59.66 128.76 59.66 135.81 51.95 127.96 58.24 127.96 48.98 132.77 48.98 128.93 53.42 134.32 48.98 138.16 48.98 138.16 53.86 133.13 58.48 138.16 55.22"/><polygon class="cls-9" points="138.16 53.86 138.16 55.22 133.13 58.48 138.16 53.86"/><rect class="cls-17" x="127.88" y="98.01" width="10.2" height="7.17"/><polygon class="cls-10" points="138.07 96.43 138.07 98.01 127.88 98.01 127.88 96.43 128.68 96.43 138.07 96.43"/><polygon class="cls-16" points="138.07 91.99 138.07 96.43 128.68 96.43 135.73 88.72 127.88 95.01 127.88 85.76 132.69 85.76 128.85 90.2 134.24 85.76 138.07 85.76 138.07 90.63 133.06 95.25 138.07 91.99"/><rect class="cls-7" x="127.32" y="136.72" width="10.2" height="7.18"/><polygon class="cls-10" points="137.51 135.14 137.51 136.72 127.32 136.72 127.32 135.14 128.12 135.14 137.51 135.14"/><polygon class="cls-16" points="137.51 130.7 137.51 135.14 128.12 135.14 135.16 127.43 127.32 133.72 127.32 124.47 132.13 124.47 128.29 128.91 133.67 124.47 137.51 124.47 137.51 129.34 132.49 133.97 137.51 130.7"/><polygon class="cls-9" points="135.81 51.95 128.76 59.66 127.96 59.66 127.96 58.24 135.81 51.95"/><polygon class="cls-9" points="135.73 88.72 128.68 96.43 127.88 96.43 127.88 95.01 135.73 88.72"/><polygon class="cls-9" points="134.32 48.98 128.93 53.42 132.77 48.98 134.32 48.98"/><polygon class="cls-9" points="134.24 85.76 128.85 90.2 132.69 85.76 134.24 85.76"/><polygon class="cls-2" points="122.26 159.66 122.26 164.08 57.84 164.08 57.82 159.66 96.98 159.66 98.43 159.66 115.26 159.66 116.79 159.66 122.26 159.66"/><path class="cls-18" d="M122.26,120v39.63h-5.47v-37H97v37H57.82v-2h2.27v-2.93H57.8l0-2.42h2.8v-2.92H57.77l0-2.2h.89v-2.93h-.9v-2.42H59v-2.92H57.71V136.8h.94v-2.93h-1V131.6H59v-2.93H57.66V126.6h1v-2.93h-1l0-3.64S95.37,118.06,122.26,120ZM92.55,144V122.37H80V144Zm-19.4,0V122.37H60.58V144Z"/><path class="cls-19" d="M122.26,117.28V120c-26.89-2-64.65,0-64.65,0v-2.75Z"/><polygon class="cls-20" points="122.26 112.5 122.26 117.28 57.6 117.28 57.57 112.5 122.26 112.5"/><path class="cls-18" d="M122.26,82.65V112.5H57.57v-2.82h3.52v-2.93H57.54v-2.41h4.21v-2.93h1.12v4.76H75.42V84.59H62.86v6.62h-5.4V89.15h3.63V86.22H57.43l0-3.57S94.65,79.08,122.26,82.65Zm-7.61,23.55V84.62H102.09V106.2Zm-19.83,0V84.59H82.26v21.58Z"/><path class="cls-19" d="M122.26,79.43v3.22c-27.61-3.57-64.85,0-64.85,0V79.43Z"/><polygon class="cls-20" points="122.26 74.66 122.26 79.43 57.4 79.43 57.37 74.66 122.26 74.66"/><path class="cls-18" d="M122.26,46V74.66H57.37V71.33h3.38V68.39h-3.4V66h4.08V63.05h-4.1V61h3.44V58.06H57.28V55.78h4.14V52.85H57.25V50.79h3.49V47.86H57.23V46S93.2,42.07,122.26,46Zm-7.61,23.43V47.86H102.09V69.45Zm-19.83,0V47.83H82.26V69.42Zm-19.4,0V47.83H62.86V69.42Z"/><path class="cls-19" d="M122.26,42.38V46c-29.06-4-65,0-65,0l0-3.64Z"/><polygon class="cls-8" points="122.26 33.7 122.26 42.38 57.2 42.38 53.74 42.38 50.23 33.7 122.26 33.7"/><polygon class="cls-2" points="116.79 122.68 116.79 159.66 115.26 159.66 115.26 124.47 98.43 124.47 98.43 159.66 96.98 159.66 96.98 122.68 116.79 122.68"/><path class="cls-2" d="M114.65,84.62V106.2H102.09V84.62Zm-1,13.36V85.73H102.92v19.42h10.75Z"/><path class="cls-2" d="M114.65,47.86V69.45H102.09V47.86Zm-1,13.36V49H102.92V68.39h10.75Z"/><path class="cls-2" d="M113.81,126.11v16.37H100V126.11Zm-1.21,15.06v-13.9H101.09v13.9H112.6Z"/><rect class="cls-7" x="102.92" y="97.98" width="10.75" height="7.17"/><polygon class="cls-2" points="113.67 96.39 113.67 97.98 102.92 97.98 102.92 96.39 103.76 96.39 113.67 96.39"/><polygon class="cls-21" points="113.67 91.95 113.67 96.39 103.76 96.39 111.19 88.69 102.92 94.98 102.92 85.73 107.99 85.73 103.95 90.17 109.62 85.73 113.67 85.73 113.67 90.6 108.37 95.22 113.67 91.95"/><polygon class="cls-22" points="113.67 90.6 113.67 91.95 108.37 95.22 113.67 90.6"/><rect class="cls-23" x="102.92" y="61.22" width="10.75" height="7.17"/><polygon class="cls-2" points="113.67 59.64 113.67 61.22 102.92 61.22 102.92 59.64 103.76 59.64 113.67 59.64"/><polygon class="cls-21" points="113.67 55.2 113.67 59.64 103.76 59.64 111.19 51.93 102.92 58.22 102.92 48.97 107.99 48.97 103.95 53.41 109.62 48.97 113.67 48.97 113.67 53.84 108.37 58.47 113.67 55.2"/><polygon class="cls-22" points="113.67 53.84 113.67 55.2 108.37 58.47 113.67 53.84"/><polygon class="cls-21" points="112.6 137.47 112.6 141.17 102.53 141.17 109.38 133.76 101.09 139.52 101.09 127.27 107.28 127.27 102.21 133.35 110.99 127.27 112.6 127.27 112.6 135.41 107.85 139.76 112.6 137.47"/><polygon class="cls-22" points="112.6 135.41 112.6 137.47 107.85 139.76 112.6 135.41"/><polygon class="cls-22" points="111.19 51.93 103.76 59.64 102.92 59.64 102.92 58.22 111.19 51.93"/><polygon class="cls-22" points="111.19 88.69 103.76 96.39 102.92 96.39 102.92 94.98 111.19 88.69"/><polygon class="cls-22" points="110.99 127.27 102.21 133.35 107.28 127.27 110.99 127.27"/><polygon class="cls-22" points="109.62 48.97 103.95 53.41 107.99 48.97 109.62 48.97"/><polygon class="cls-22" points="109.62 85.73 103.95 90.17 107.99 85.73 109.62 85.73"/><polygon class="cls-22" points="109.38 133.76 102.53 141.17 101.09 141.17 101.09 139.52 109.38 133.76"/><path class="cls-2" d="M94.82,84.59v21.58H82.26V84.59ZM93.84,98V85.7H83.09v19.42H93.84Z"/><path class="cls-2" d="M94.82,47.83V69.42H82.26V47.83Zm-1,13.36V48.94H83.09V68.36H93.84Z"/><rect class="cls-7" x="83.09" y="97.95" width="10.75" height="7.17"/><polygon class="cls-2" points="93.84 96.36 93.84 97.95 83.09 97.95 83.09 96.36 83.93 96.36 93.84 96.36"/><polygon class="cls-21" points="93.84 91.92 93.84 96.36 83.93 96.36 91.36 88.66 83.09 94.95 83.09 85.7 88.16 85.7 84.12 90.14 89.8 85.7 93.84 85.7 93.84 90.57 88.54 95.2 93.84 91.92"/><polygon class="cls-22" points="93.84 90.57 93.84 91.92 88.54 95.2 93.84 90.57"/><rect class="cls-23" x="83.09" y="61.19" width="10.75" height="7.17"/><polygon class="cls-2" points="93.84 59.61 93.84 61.19 83.09 61.19 83.09 59.61 83.93 59.61 93.84 59.61"/><polygon class="cls-21" points="93.84 55.17 93.84 59.61 83.93 59.61 91.36 51.9 83.09 58.19 83.09 48.94 88.16 48.94 84.12 53.38 89.8 48.94 93.84 48.94 93.84 53.81 88.54 58.44 93.84 55.17"/><polygon class="cls-22" points="93.84 53.81 93.84 55.17 88.54 58.44 93.84 53.81"/><path class="cls-2" d="M92.55,122.37V144H80V122.37Zm-1,13.36V123.48H80.81v19.43H91.56Z"/><rect class="cls-23" x="80.81" y="135.73" width="10.75" height="7.18"/><polygon class="cls-2" points="91.56 134.15 91.56 135.73 80.81 135.73 80.81 134.15 81.66 134.15 91.56 134.15"/><polygon class="cls-21" points="91.56 129.71 91.56 134.15 81.66 134.15 89.09 126.44 80.81 132.73 80.81 123.48 85.89 123.48 81.84 127.92 87.52 123.48 91.56 123.48 91.56 128.36 86.27 132.98 91.56 129.71"/><polygon class="cls-22" points="91.56 128.36 91.56 129.71 86.27 132.98 91.56 128.36"/><polygon class="cls-22" points="91.36 51.9 83.93 59.61 83.09 59.61 83.09 58.19 91.36 51.9"/><polygon class="cls-22" points="91.36 88.66 83.93 96.36 83.09 96.36 83.09 94.95 91.36 88.66"/><polygon class="cls-22" points="89.8 48.94 84.12 53.38 88.16 48.94 89.8 48.94"/><polygon class="cls-22" points="89.8 85.7 84.12 90.14 88.16 85.7 89.8 85.7"/><polygon class="cls-22" points="89.09 126.44 81.66 134.15 80.81 134.15 80.81 132.73 89.09 126.44"/><polygon class="cls-22" points="87.52 123.48 81.84 127.92 85.89 123.48 87.52 123.48"/><path class="cls-2" d="M75.42,84.59v21.58H62.86V84.59ZM74.43,98V85.7H63.68v19.42H74.43Z"/><path class="cls-2" d="M75.42,47.83V69.42H62.86V47.83Zm-1,13.36V48.94H63.68V68.36H74.43Z"/><rect class="cls-23" x="63.68" y="97.95" width="10.75" height="7.17"/><polygon class="cls-2" points="74.43 96.36 74.43 97.95 63.68 97.95 63.68 96.36 64.53 96.36 74.43 96.36"/><polygon class="cls-21" points="74.43 91.92 74.43 96.36 64.53 96.36 71.96 88.66 63.68 94.95 63.68 85.7 68.75 85.7 64.71 90.14 70.39 85.7 74.43 85.7 74.43 90.57 69.14 95.2 74.43 91.92"/><polygon class="cls-22" points="74.43 90.57 74.43 91.92 69.14 95.2 74.43 90.57"/><rect class="cls-7" x="63.68" y="61.19" width="10.75" height="7.17"/><polygon class="cls-2" points="74.43 59.61 74.43 61.19 63.68 61.19 63.68 59.61 64.53 59.61 74.43 59.61"/><polygon class="cls-21" points="74.43 55.17 74.43 59.61 64.53 59.61 71.96 51.9 63.68 58.19 63.68 48.94 68.75 48.94 64.71 53.38 70.39 48.94 74.43 48.94 74.43 53.81 69.14 58.44 74.43 55.17"/><polygon class="cls-22" points="74.43 53.81 74.43 55.17 69.14 58.44 74.43 53.81"/><path class="cls-2" d="M73.15,122.37V144H60.58V122.37Zm-1,13.36V123.48H61.41v19.43H72.16Z"/><rect class="cls-7" x="61.41" y="135.73" width="10.75" height="7.18"/><polygon class="cls-2" points="72.16 134.15 72.16 135.73 61.41 135.73 61.41 134.15 62.25 134.15 72.16 134.15"/><polygon class="cls-21" points="72.16 129.71 72.16 134.15 62.25 134.15 69.68 126.44 61.41 132.73 61.41 123.48 66.48 123.48 62.43 127.92 68.11 123.48 72.16 123.48 72.16 128.36 66.86 132.98 72.16 129.71"/><polygon class="cls-22" points="72.16 128.36 72.16 129.71 66.86 132.98 72.16 128.36"/><polygon class="cls-22" points="71.96 51.9 64.53 59.61 63.68 59.61 63.68 58.19 71.96 51.9"/><polygon class="cls-22" points="71.96 88.66 64.53 96.36 63.68 96.36 63.68 94.95 71.96 88.66"/><polygon class="cls-22" points="70.39 48.94 64.71 53.38 68.75 48.94 70.39 48.94"/><polygon class="cls-22" points="70.39 85.7 64.71 90.14 68.75 85.7 70.39 85.7"/><polygon class="cls-22" points="69.68 126.44 62.25 134.15 61.41 134.15 61.41 132.73 69.68 126.44"/><polygon class="cls-22" points="68.11 123.48 62.43 127.92 66.48 123.48 68.11 123.48"/><polygon class="cls-18" points="62.86 91.21 62.86 101.41 61.74 101.41 57.52 101.41 57.5 99.34 61.08 99.34 61.08 96.41 57.49 96.41 57.48 94.14 61.74 94.14 61.74 91.21 62.86 91.21"/><polygon class="cls-24" points="61.74 101.41 61.74 104.34 57.53 104.34 57.52 101.41 61.74 101.41"/><polygon class="cls-24" points="61.74 91.21 61.74 94.14 57.48 94.14 57.46 91.21 61.74 91.21"/><polygon class="cls-24" points="61.41 63.05 61.41 65.98 57.33 65.98 57.31 63.05 61.41 63.05"/><polygon class="cls-24" points="61.41 52.85 61.41 55.78 57.27 55.78 57.26 52.85 61.41 52.85"/><polygon class="cls-24" points="61.08 106.75 61.08 109.68 57.56 109.68 57.54 106.75 61.08 106.75"/><polygon class="cls-24" points="61.08 96.41 61.08 99.34 57.5 99.34 57.49 96.41 61.08 96.41"/><polygon class="cls-24" points="61.08 86.22 61.08 89.15 57.45 89.15 57.43 86.22 61.08 86.22"/><polygon class="cls-24" points="60.74 68.39 60.74 71.33 57.36 71.33 57.34 68.39 60.74 68.39"/><polygon class="cls-24" points="60.74 58.06 60.74 60.98 57.3 60.98 57.28 58.06 60.74 58.06"/><polygon class="cls-24" points="60.74 47.86 60.74 50.79 57.24 50.79 57.23 47.86 60.74 47.86"/><polygon class="cls-24" points="60.58 149.34 60.58 152.26 57.78 152.26 57.77 149.34 60.58 149.34"/><polygon class="cls-24" points="60.08 154.68 60.08 157.61 57.81 157.61 57.8 154.68 60.08 154.68"/><polygon class="cls-24" points="58.97 138.87 58.97 141.79 57.73 141.79 57.71 138.87 58.97 138.87"/><polygon class="cls-24" points="58.97 128.67 58.97 131.6 57.67 131.6 57.66 128.67 58.97 128.67"/><polygon class="cls-24" points="58.64 144.21 58.64 147.14 57.75 147.14 57.74 144.21 58.64 144.21"/><polygon class="cls-24" points="58.64 133.87 58.64 136.8 57.7 136.8 57.69 133.87 58.64 133.87"/><polygon class="cls-24" points="58.64 123.67 58.64 126.6 57.65 126.6 57.63 123.67 58.64 123.67"/><polygon class="cls-2" points="57.82 159.66 57.84 164.08 52.85 164.08 56.07 159.66 57.82 159.66"/><polygon class="cls-24" points="57.8 154.68 57.81 157.61 55.93 157.61 55.93 154.68 57.8 154.68"/><polygon class="cls-24" points="57.77 149.34 57.78 152.26 56.43 152.26 56.43 149.34 57.77 149.34"/><polygon class="cls-24" points="57.74 144.21 57.75 147.14 55.93 147.14 55.93 144.21 57.74 144.21"/><polygon class="cls-24" points="57.71 138.87 57.73 141.79 56.26 141.79 56.26 138.87 57.71 138.87"/><polygon class="cls-24" points="57.69 133.87 57.7 136.8 55.93 136.8 55.93 133.87 57.69 133.87"/><polygon class="cls-24" points="57.67 131.6 56.26 131.6 56.26 128.67 57.66 128.67 57.67 131.6"/><polygon class="cls-24" points="57.63 123.67 57.65 126.6 55.93 126.6 55.93 123.67 57.63 123.67"/><polygon class="cls-20" points="57.57 112.5 57.6 117.28 56.23 117.28 56.23 112.5 57.57 112.5"/><polygon class="cls-24" points="57.54 106.75 57.56 109.68 55.6 109.68 55.6 106.75 57.54 106.75"/><polygon class="cls-24" points="57.52 101.41 57.53 104.34 56.26 104.34 56.26 101.41 57.52 101.41"/><polygon class="cls-24" points="57.49 96.41 57.5 99.34 55.6 99.34 55.6 96.41 57.49 96.41"/><polygon class="cls-24" points="57.46 91.21 57.48 94.14 56.26 94.14 56.26 91.21 57.46 91.21"/><polygon class="cls-24" points="57.43 86.22 57.45 89.15 55.6 89.15 55.6 86.22 57.43 86.22"/><polygon class="cls-20" points="57.37 74.66 57.4 79.43 55.93 79.43 55.93 74.66 57.37 74.66"/><polygon class="cls-24" points="57.34 68.39 57.36 71.33 55.27 71.33 55.27 68.39 57.34 68.39"/><polygon class="cls-24" points="57.31 63.05 57.33 65.98 55.93 65.98 55.93 63.05 57.31 63.05"/><polygon class="cls-24" points="57.28 58.06 57.3 60.98 55.27 60.98 55.27 58.06 57.28 58.06"/><polygon class="cls-24" points="57.26 52.85 57.27 55.78 55.93 55.78 55.93 52.85 57.26 52.85"/><polygon class="cls-24" points="57.23 47.86 57.24 50.79 55.27 50.79 55.27 47.86 57.23 47.86"/><path class="cls-25" d="M143.84,42.38l-.06,5h1.45v2.93h-1.49l0,2.06h1v2.93h-1l0,2.27h1.59v2.93H143.6l0,2.07h1.12v2.93h-1.16l0,2.42h1.72v2.92h-1.76l-.05,3.81h1.31v4.77h-1.37l-.09,6H145v2.93h-1.72l0,2.07h1.22v2.93h-1.26l0,2.27H145v2.93H143.1l0,2.07h1.35v2.92H143l0,2.42h2v2.93h-2l0,3.61h1.53v4.78h-1.6l-.06,4.75h1.05V125h-1.09l0,2.06h.68V130h-.72l0,2.28h1.18v2.93h-1.22l0,2.06h.81v2.93h-.85l0,2.42h1.32v2.92h-1.36l0,2.58h1.17V151h-1.21l0,2.42h1.69v2.93h-1.73l-.05,3.31h4.45l1.78,4.42H122.26V94.85S137,127.73,143.84,42.38Z"/><rect class="cls-2" x="136.72" y="157.28" width="4.37" height="6.81"/><path class="cls-3" d="M136.72,158.85v1.08a3.35,3.35,0,0,0,4.37,0v-2.08Z"/><path class="cls-4" d="M138.78,113.27c-6.62.33-7.68,21.93-7.53,34.08s7.53,12,7.53,12,7.38.2,7.53-12S145.41,113.6,138.78,113.27Z"/><path class="cls-5" d="M145.76,140.42c-1.83,6.89-4.76,11.39-8.5,12.43-2,.56-4.09,0-5.77-2.31,1.27,8.92,7.29,8.76,7.29,8.76s7.38.2,7.53-12c0-2.59,0-5.61-.11-8.77C146.07,139.2,145.93,139.82,145.76,140.42Z"/><path class="cls-6" d="M137.09,121.67c-.9,2.11-2,3.13-2.48,2.26s-.11-3.27.8-5.38,2-3.12,2.47-2.26S138,119.56,137.09,121.67Z"/><rect class="cls-2" x="153.64" y="159.13" width="3.71" height="4.97"/><path class="cls-3" d="M153.64,160.27v.78a3.18,3.18,0,0,0,3.71,0v-1.51Z"/><path class="cls-4" d="M155.39,127c-5.63.24-6.53,16-6.4,24.86s6.4,8.72,6.4,8.72,6.27.15,6.4-8.72S161,127.26,155.39,127Z"/><path class="cls-5" d="M161.32,146.83c-1.56,5-4,8.3-7.22,9.07a4.77,4.77,0,0,1-4.91-1.69c1.08,6.51,6.2,6.39,6.2,6.39s6.27.15,6.4-8.72c0-1.89,0-4.09-.1-6.4C161.58,145.94,161.46,146.39,161.32,146.83Z"/><path class="cls-6" d="M154,133.15c-.76,1.54-1.71,2.28-2.1,1.65s-.1-2.39.67-3.93,1.71-2.28,2.11-1.65S154.72,131.61,154,133.15Z"/></svg>