<svg id="Layer_1" data-name="Layer 1" xmlns="http://www.w3.org/2000/svg" xmlns:xlink="http://www.w3.org/1999/xlink" viewBox="0 0 270 270"><defs><style>.cls-1{fill:url(#Nueva_muestra_de_degradado_5);}.cls-2{fill:#fff;fill-rule:evenodd;}</style><linearGradient id="Nueva_muestra_de_degradado_5" x1="46.61" y1="46.61" x2="223.39" y2="223.39" gradientTransform="translate(246.87 -19.71) rotate(80.87)" gradientUnits="userSpaceOnUse"><stop offset="0" stop-color="#3d5a9a"/><stop offset="1" stop-color="#2d3189"/></linearGradient></defs><title>socialmediaicons</title><circle class="cls-1" cx="135" cy="135" r="125" transform="translate(-19.71 246.87) rotate(-80.87)"/><path class="cls-2" d="M114.29,136.42V213a2,2,0,0,0,2,2h28.43a2,2,0,0,0,2-2V135.17h20.62a2,2,0,0,0,2-1.83l2-23.44a2,2,0,0,0-2-2.16H146.7V91.1a7.06,7.06,0,0,1,7.06-7h15.89a2,2,0,0,0,2-2V58.61a2,2,0,0,0-2-2H142.81a28.52,28.52,0,0,0-28.52,28.53v22.6H100.07a2,2,0,0,0-2,2v23.44a2,2,0,0,0,2,2h14.22Z"/></svg>