<svg id="Layer_1" data-name="Layer 1" xmlns="http://www.w3.org/2000/svg" xmlns:xlink="http://www.w3.org/1999/xlink" viewBox="0 0 270 270"><defs><style>.cls-1{fill:url(#linear-gradient);}.cls-2{fill:#fff;}</style><linearGradient id="linear-gradient" x1="28.41" y1="241.59" x2="298.55" y2="-28.55" gradientTransform="translate(135 -55.92) rotate(45)" gradientUnits="userSpaceOnUse"><stop offset="0" stop-color="#fbe189"/><stop offset="0.21" stop-color="#fbbb45"/><stop offset="0.38" stop-color="#ea5274"/><stop offset="0.52" stop-color="#d13b8e"/><stop offset="0.74" stop-color="#6e4796"/><stop offset="1" stop-color="#4d53a0"/></linearGradient></defs><title>socialmediaicons</title><circle class="cls-1" cx="135" cy="135" r="125" transform="translate(-55.92 135) rotate(-45)"/><circle class="cls-2" cx="179.25" cy="91.47" r="9.71"/><path class="cls-2" d="M136.08,94.21A40.79,40.79,0,1,0,176.87,135,40.85,40.85,0,0,0,136.08,94.21Zm0,66.92A26.13,26.13,0,1,1,162.21,135,26.16,26.16,0,0,1,136.08,161.13Z"/><path class="cls-2" d="M168.46,217.82H102.33a49.81,49.81,0,0,1-49.75-49.75V101.93a49.81,49.81,0,0,1,49.75-49.75h66.13a49.81,49.81,0,0,1,49.76,49.75v66.14A49.81,49.81,0,0,1,168.46,217.82ZM102.33,67.76a34.21,34.21,0,0,0-34.17,34.17v66.14a34.21,34.21,0,0,0,34.17,34.17h66.13a34.21,34.21,0,0,0,34.17-34.17V101.93a34.21,34.21,0,0,0-34.17-34.17Z"/></svg>