<svg id="Layer_1" data-name="Layer 1" xmlns="http://www.w3.org/2000/svg" xmlns:xlink="http://www.w3.org/1999/xlink" viewBox="0 0 270 270"><defs><style>.cls-1{fill:url(#Nueva_muestra_de_degradado_3);}.cls-2{fill:#fff;}</style><linearGradient id="Nueva_muestra_de_degradado_3" x1="46.61" y1="46.61" x2="223.39" y2="223.39" gradientTransform="translate(135 -55.92) rotate(45)" gradientUnits="userSpaceOnUse"><stop offset="0" stop-color="#e52421"/><stop offset="1" stop-color="#9d1915"/></linearGradient></defs><title>socialmediaicons</title><circle class="cls-1" cx="135" cy="135" r="125" transform="translate(-55.92 135) rotate(-45)"/><path class="cls-2" d="M209.6,114.45a33.93,33.93,0,0,0-33.93-33.92H88.93A33.93,33.93,0,0,0,55,114.45v40.37a33.93,33.93,0,0,0,33.93,33.93h86.74a33.93,33.93,0,0,0,33.93-33.93Zm-51,23.21-38.9,19.25c-1.52.82-6.7-.28-6.7-2v-39.5c0-1.76,5.22-2.86,6.75-2L157,133.66C158.52,134.55,160.16,136.81,158.58,137.66Z"/></svg>