<svg xmlns="http://www.w3.org/2000/svg" xmlns:xlink="http://www.w3.org/1999/xlink" viewBox="0 0 100 100"><defs><linearGradient id="linear-gradient" x1="-145.82" y1="-949.24" x2="-144.64" y2="-948.06" gradientTransform="translate(129.69 -916.74) rotate(-166.24)" gradientUnits="userSpaceOnUse"><stop offset="0"/><stop offset="1" stop-color="#fff"/></linearGradient><linearGradient id="linear-gradient-2" x1="-145.68" y1="-949.11" x2="-144.78" y2="-948.2" xlink:href="#linear-gradient"/><pattern id="Unnamed_Pattern_2" data-name="Unnamed Pattern 2" width="28.8" height="28.8" patternTransform="translate(5.69 6.61) scale(0.1)" patternUnits="userSpaceOnUse" viewBox="0 0 28.8 28.8"><rect width="28.8" height="28.8" fill="none"/><path d="M28.8,31a2.16,2.16,0,1,0-2.16-2.16A2.16,2.16,0,0,0,28.8,31Z" fill="#f2f2f2"/><path d="M14.4,31a2.16,2.16,0,1,0-2.16-2.16A2.16,2.16,0,0,0,14.4,31Z" fill="#f2f2f2"/><path d="M28.8,16.56a2.16,2.16,0,1,0-2.16-2.16A2.16,2.16,0,0,0,28.8,16.56Z" fill="#f2f2f2"/><path d="M14.4,16.56a2.16,2.16,0,1,0-2.16-2.16A2.16,2.16,0,0,0,14.4,16.56Z" fill="#f2f2f2"/><path d="M7.2,23.76A2.16,2.16,0,1,0,5,21.6,2.16,2.16,0,0,0,7.2,23.76Z" fill="#f2f2f2"/><path d="M21.6,23.76a2.16,2.16,0,1,0-2.16-2.16A2.16,2.16,0,0,0,21.6,23.76Z" fill="#f2f2f2"/><path d="M7.2,9.36A2.16,2.16,0,1,0,5,7.2,2.16,2.16,0,0,0,7.2,9.36Z" fill="#f2f2f2"/><path d="M21.6,9.36A2.16,2.16,0,1,0,19.44,7.2,2.16,2.16,0,0,0,21.6,9.36Z" fill="#f2f2f2"/><path d="M0,31A2.16,2.16,0,0,0,2.16,28.8,2.16,2.16,0,0,0,0,26.64,2.16,2.16,0,0,0,0,31Z" fill="#f2f2f2"/><path d="M0,16.56A2.16,2.16,0,0,0,2.16,14.4,2.16,2.16,0,0,0,0,12.24a2.16,2.16,0,1,0,0,4.32Z" fill="#f2f2f2"/><path d="M28.8,2.16A2.16,2.16,0,0,0,31,0a2.16,2.16,0,0,0-4.32,0A2.16,2.16,0,0,0,28.8,2.16Z" fill="#f2f2f2"/><path d="M14.4,2.16A2.16,2.16,0,0,0,16.56,0a2.16,2.16,0,1,0-4.32,0A2.16,2.16,0,0,0,14.4,2.16Z" fill="#f2f2f2"/><path d="M0,2.16A2.16,2.16,0,0,0,2.16,0,2.16,2.16,0,0,0,0-2.16,2.16,2.16,0,0,0-2.16,0,2.16,2.16,0,0,0,0,2.16Z" fill="#f2f2f2"/></pattern></defs><title>hd1</title><g style="isolation:isolate"><g id="Layer_1" data-name="Layer 1"><circle cx="50" cy="52.18" r="23.66" fill="#3f1f10"/><circle cx="50" cy="52.18" r="22.95" transform="translate(-11.03 13.48) rotate(-13.84)" fill="#5a280e"/><path d="M70.24,49.26l-43-.16,0,.28c6.46,0,19.22-.06,40.81-.07-6.34.08-24.73.22-34.92.28l-5.91,0,0,.21c12,0,27.13,0,45.65,0h0c-9.62,0-21.13,0-30.77-.07q20.52,0,30.77.07c0-.19,0-.38-.07-.56-1.4,0-3.61.08-9,.08C68.47,49.23,70.34,49.24,70.24,49.26Z" fill="#4b2310"/><path d="M66.48,47.68c-15.62,0-28.76,0-39,0,0,.14-.06.28-.08.42C53,48,85.67,47.68,66.48,47.68Z" fill="#4b2310"/><path d="M27.41,48.1l-.06.37C47.47,48.39,53.36,48.16,27.41,48.1Z" fill="#4b2310"/><path d="M72.84,50c-9.22,0-24.51.08-45.69.09v0c9.93,0,25.26.25,15.49.34-5.78,0-11.15-.09-15.51-.14,0,.22,0,.45-.05.67h0c0,.13,0,.27,0,.4,43.72-.06-36.66-.37,45.85-.4h0c-48.42,0-37.89-.4-1-.4-6.46,0-13.64,0-20.65-.07l21.61,0C72.88,50.31,72.86,50.13,72.84,50Z" fill="#4b2310"/><path d="M27.34,48.5c0,.11,0,.22-.05.34C63.37,48.74,68.07,48.53,27.34,48.5Z" fill="#4b2310"/><path d="M72.93,51.21v-.1C71.27,51.15,71.36,51.18,72.93,51.21Z" fill="#4b2310"/><path d="M27.05,52.16v.23C44.25,52.29,55.25,52.17,27.05,52.16Z" fill="#4b2310"/><path d="M27.05,52.15c11.72,0,8.4-.07,0-.14Z" fill="#4b2310"/><path d="M72.94,52.87c-52.39-.1-25.37-.36,0-.37H27.05c0,.41,0,.82.05,1.22,72.12-.06,25-.4,20.36-.4-12.72,0,1.44-.15,25.47-.27A1.09,1.09,0,0,0,72.94,52.87Z" fill="#4b2310"/><path d="M63.29,51.67H73c0-.14,0-.27,0-.41C39.91,51.33,63.75,51.67,63.29,51.67Z" fill="#4b2310"/><path d="M28.8,43.38a.77.77,0,0,0-.07.16C31.78,43.49,29.9,43.44,28.8,43.38Z" fill="#4b2310"/><path d="M56.43,45.16H71.86v0Z" fill="#4b2310"/><path d="M50.59,44.4C.59,44.33,78.65,44,28.54,44l-.28.78c20.17,0,34.33-.1,43.42-.17l-.14-.39c-3,.06-9.34.11-29.17.11C39.09,44.34,42.89,44.37,50.59,44.4Z" fill="#4b2310"/><path d="M28.91,43.11l-.08.18c2,0,8.83-.09,27.93-.09C40.84,43.2,33.26,43.16,28.91,43.11Z" fill="#4b2310"/><path d="M28.23,44.87l-.09.31C46.87,45.1,53,45,28.23,44.87Z" fill="#4b2310"/><path d="M59.26,46.45c-33.41-.06-2.59-.33,12.87-.39v0c-15.22,0-.18-.25-44.14-.35q-.14.44-.24.87c3.09-.05,12.06-.09,32.53-.1l12,.12a1.17,1.17,0,0,0-.05-.2H69C58.05,46.38,56.61,46.4,59.26,46.45Z" fill="#4b2310"/><path d="M46.07,47.19c-5.15-.12-10.46-.33-16.11-.33,11.21,0,1.5-.09-2.25-.18-.05.2-.09.4-.14.61l24.71,0c-1.8,0-3.61,0-5.45-.07,15.73,0,12.88.2,25.64.3,0-.12,0-.23-.07-.35Z" fill="#4b2310"/><path d="M56.83,46.78H72.31v0Z" fill="#4b2310"/><path d="M72.68,48.66l0-.22C58,48.48,62.45,48.58,72.68,48.66Z" fill="#4b2310"/><path d="M72.67,55.77v0c-26.91-.07-7.79-.34-45.41-.38.05.35.11.71.17,1.06,6.64.08,7.32.15,0,.15.05.25.1.5.16.75l17.57,0c10.28,0,19.3,0,27.17,0l.09-.38c-13.62,0-6.1-.13,0-.21l0-.14-16.44,0c6.06,0,11.62,0,16.44,0a3.4,3.4,0,0,0,.07-.34c-9.14,0-22,0-39.2,0C90.71,56.17,38.45,55.84,72.67,55.77Z" fill="#4b2310"/><path d="M50,68.79h0Z" fill="#4b2310"/><path d="M48.38,62.68c-8.18,0-14.51,0-18.81,0,.13.25.26.5.4.75,6.06.06,13.23.1,30.39.1-11.53,0-21.6,0-30.32,0,.15.27.31.53.48.79,29.29,0,31.38.12,22,.22l-22-.13c.25.39.51.78.78,1.15,20.35.07,47,.36.28.39h0c23.44,0,22.59.18.22.29l.41.51h9.24l-9.23,0a.69.69,0,0,1,.11.13c2.34,0,4.73.11.14.16l.13.16c27.2.08,23.05.23.28.31l.09.1c26.72.11,39.27.35,26.1.35-11.58,0-19.81,0-25.75,0,.2.2.4.41.61.61l31.9.12c.39-.38.77-.77,1.13-1.17h0c.24-.26.47-.52.69-.79-4.75,0-10.84,0-18.74,0-4.83,0,3.66-.1,18.93-.2.35-.45.7-.91,1-1.38-10.42,0-21.28,0-31.46,0l31.5,0c.27-.39.53-.79.77-1.2H41.54c15.89,0,24.25,0,28.22,0l.07-.13c-3.5-.06-7.88-.13.11-.18.12-.2.23-.41.34-.62C56.36,62.81,46,62.68,48.38,62.68Z" fill="#4b2310"/><path d="M70.89,61.7,29,61.54c.14.3.28.6.43.9,7.27-.06,20.74-.11,41.13-.14l.06-.12c-17.92-.08-27.15-.22.13-.28Z" fill="#4b2310"/><path d="M27.85,58.22c0,.13.07.25.11.37l26.85,0c-1.67,0-2.38.2-26.75.32q.27.87.6,1.71h2.93c-3.9,0,8,.24-2.79.35.07.16.13.31.2.46,17.81,0,32-.05,42-.09l.12-.28c-6.57,0-15.14,0-25.87,0,11.35,0,20.53,0,25.93-.1l.09-.24c-4.81,0-13.15-.07-25.82-.07,7.21,0,16.67,0,25.88-.08,0-.11.09-.23.13-.34-45.64-.08-53.19-.35.14-.39l.09-.24c-3.24-.09-6.56-.17-10-.17,19.52,0-24.39-.27,10.18-.37.08-.25.16-.51.23-.76-8.67,0-20.9-.06-38.46-.07Z" fill="#4b2310"/><path d="M72.89,53.9c-11.93-.06-28.74-.12-45.79-.15,0,.49.08,1,.15,1.46,10.42-.09,27-.19,45.53-.24,0-.13,0-.27,0-.41l-9.86,0c4.67,0,7.82,0,9.87,0a2.46,2.46,0,0,1,0-.26l-4.44-.11h4.45A2,2,0,0,1,72.89,53.9Z" fill="#4b2310"/><path d="M27.64,57.39H51.75l-6.55,0-17.56,0Z" fill="#4b2310"/><path d="M27.74,57.8h4.1c17.89,0,33.39-.07,40.45-.14,0,0,0-.11,0-.16-5.67,0-17.67-.09-38.12-.11H27.65Z" fill="#4b2310"/><path d="M27.8,58a1.46,1.46,0,0,0,.05.2h5.82l24.56,0C50.72,58.2,41.36,58.11,27.8,58Z" fill="#4b2310"/><path d="M60.88,72.39c-3.39,0-9.2.06-18.81.06H39.24l.75.38,9.35,0H60C60.28,72.71,60.58,72.55,60.88,72.39Z" fill="#4b2310"/><path d="M35.07,69.6l29.85,0,.19-.17c-6.6,0-14.3-.11-23.46-.15-3,0-5.21.08-6.8.12Z" fill="#4b2310"/><path d="M50,75.13a22.79,22.79,0,0,0,3-.2l-5.89,0A23,23,0,0,0,50,75.13Z" fill="#4b2310"/><path d="M64.92,69.62c-13.54,0-23.41,0-29.74.08l.26.22c6.35,0,16.07.06,29,.08Z" fill="#4b2310"/><path d="M37.81,71.63H56.43c-1.33,0-10.56,0-18.41.12l.45.26c5.4,0,12.9,0,23,0a23,23,0,0,0,2.59-1.75c-6.84,0-15.92.08-28,.1l.61.46c23.73,0,19.36.17.38.26Z" fill="#4b2310"/><path d="M43,72.86h0Z" fill="#4b2310"/><path d="M65.4,69.2l.43-.41c-16.94,0-26.38,0-31.58.08l.43.4,7,0c4.86-.06,11.85-.1,21.9-.1Z" fill="#4b2310"/><path d="M45.25,74.64l9.11.07a22.12,22.12,0,0,0,2.72-.7c-3.35,0-3.33-.08.4-.13a24.47,24.47,0,0,0,2.32-.94L43,72.86h-3A23.36,23.36,0,0,0,45.25,74.64Z" fill="#4b2310"/><path d="M35.82,34.13h0c21.31,0,19.39.16,28.7.27l-.38-.3C55.49,34.12,45.91,34.13,35.82,34.13Z" fill="#4b2310"/><path d="M35.58,34.32h5.7c-1.85,0-3.72,0-5.61-.07Z" fill="#4b2310"/><path d="M55.48,34.72H35.11l-.35.3C54.44,34.89,70.18,34.72,55.48,34.72Z" fill="#4b2310"/><path d="M62.37,36.76c-9.08,0-19.92,0-29.31-.07l-.08.09Z" fill="#4b2310"/><path d="M53.21,36.36l-20,.15-.06.06c14.81,0,26,0,33.72.07-.13-.15-.27-.29-.41-.44-.46,0-3.4.07-7.56.11l-25.41-.1-.16.17Z" fill="#4b2310"/><path d="M34.15,35.58l-.25.24C48.25,35.73,49.44,35.63,34.15,35.58Z" fill="#4b2310"/><path d="M37,33.29c6.1-.08,18.43-.17,25.82-.19h0c-14.3,0-6-.16-25.09-.27Z" fill="#4b2310"/><path d="M63.3,33.47l-.22-.15C48.53,33.32,54.9,33.39,63.3,33.47Z" fill="#4b2310"/><path d="M36.73,33.45l-.1.07,26.31,0C49,33.5,40.84,33.48,36.73,33.45Z" fill="#4b2310"/><path d="M43.85,30.06H56.18l0,0Z" fill="#4b2310"/><path d="M40.49,31.28l-.06,0,19.34.09-.33-.15C55.28,31.27,49.29,31.28,40.49,31.28Z" fill="#4b2310"/><path d="M56.44,30.47h0Z" fill="#4b2310"/><path d="M59.91,31.47l-19.79,0-.65.33c8.71,0,15.61-.07,20.86-.11Z" fill="#4b2310"/><path d="M50,29.22a24.61,24.61,0,0,0-3.11.21h6.19A24,24,0,0,0,50,29.22Z" fill="#4b2310"/><path d="M66.47,36.19l0,0c-1.43,0-3.41,0-6.33,0C64.13,36.16,66.07,36.17,66.47,36.19Z" fill="#4b2310"/><path d="M65.84,35.57l-.19-.18C56.31,35.43,58.73,35.5,65.84,35.57Z" fill="#4b2310"/><path d="M53.13,33.72h0Z" fill="#4b2310"/><path d="M52.73,32.09h0Z" fill="#4b2310"/><path d="M28.7,43.63c-.06.12-.11.25-.16.38C61.92,44,76.87,43.7,28.7,43.63Z" fill="#4b2310"/><path d="M70,40.9l-.12-.22h-5.1C55.08,40.68,62.11,40.79,70,40.9Z" fill="#4b2310"/><path d="M70.17,41.21l-.07-.11C62.35,41.12,64.64,41.16,70.17,41.21Z" fill="#4b2310"/><path d="M30.37,40.28c-.06.09-.11.18-.16.27,10.55-.07,24.5-.13,39.48-.17l0,0C52.27,40.33,39.47,40.31,30.37,40.28Z" fill="#4b2310"/><path d="M30,40.87l-.12.2C38.19,41,35.32,40.93,30,40.87Z" fill="#4b2310"/><path d="M39.61,43.12l31.49,0v0Z" fill="#4b2310"/><path d="M68,42.27C63.93,42.15,47.62,42,31.21,42c25.74,0,5.58-.41,5.45-.41,36.07,0,21.61-.16-6.87-.28-.2.38-.4.77-.58,1.16,7.27,0,15-.05,23-.06,6.69.07,10.81.16,18.66.23l-.16-.36Z" fill="#4b2310"/><path d="M60.14,43.53H71.27v0Z" fill="#4b2310"/><path d="M59.59,38.61h8.93c-.1-.13-.2-.27-.31-.4C36.7,38.28,60.05,38.61,59.59,38.61Z" fill="#4b2310"/><path d="M32.81,37l-.09.1c9.08.1,15.57.25-.26.3v0c14.32,0,25.8,0,35.13,0l-.45-.52C59.31,36.94,47.84,37,32.81,37Z" fill="#4b2310"/><path d="M43.2,30.25h0Z" fill="#4b2310"/><path d="M66.45,39.86H30.63c34.18,0,33.88.22,39,.33l-.21-.34H66.45Z" fill="#4b2310"/><path d="M68.14,38.12l0,0C68,38.1,68,38.11,68.14,38.12Z" fill="#4b2310"/><path d="M41.74,30.76l-.56.22C49.89,30.92,51.62,30.83,41.74,30.76Z" fill="#4b2310"/><path d="M41.63,39.94H30.58v0l11.81,0Z" fill="#4b2310"/><path d="M31,39.24l-.06.08C33.83,39.29,34.34,39.26,31,39.24Z" fill="#4b2310"/><path d="M68,38c-19.7,0-31.14-.06-36-.13l-.14.17C38.73,38,50,38,68,38Z" fill="#4b2310"/><path d="M32.2,37.69c4.67-.07,14.83-.12,28.72-.12-8.9,0-19.21,0-28.52-.12Z" fill="#4b2310"/><path d="M37.1,71.16l4.1-4.09L69,39.28a24.06,24.06,0,0,0-3-3.62l-2.45,2.45-30,30A23.35,23.35,0,0,0,37.1,71.16Z" fill="#ccb1a0" opacity="0.1" style="mix-blend-mode:overlay"/><path d="M64.9,34.72A22.95,22.95,0,0,0,32.54,67.07Z" fill="#ccb1a0" opacity="0.2" style="mix-blend-mode:overlay"/><path d="M50,28.52a23.48,23.48,0,0,0-5.73.7l.61-10.12a1.83,1.83,0,0,1,1.78-1.71h6.68a1.83,1.83,0,0,1,1.78,1.71l.61,10.12A23.48,23.48,0,0,0,50,28.52Z" fill="#364a5e"/><path d="M50.44,18.53a3.38,3.38,0,0,1-.49.11,9.27,9.27,0,0,0-1.25.44c-.43.15-.89.16-1.31.32a2.59,2.59,0,0,1-.38.17c-.37,0-.52-.36-.73-.6s-.66-.15-.84-.45a.68.68,0,0,1,.16-.75,1.7,1.7,0,0,1,1.06-.38h3.76c.27,0,.49.63.4.83A.65.65,0,0,1,50.44,18.53Z" fill="#4d6c8a"/><path d="M50,28.52a23.48,23.48,0,0,0-5.73.7l.54-8.9a1.85,1.85,0,0,1,1.81-1.76h6.76a1.85,1.85,0,0,1,1.81,1.76l.54,8.9A23.48,23.48,0,0,0,50,28.52Z" fill="#243241"/><path d="M55.64,34.29a4.48,4.48,0,0,1-.06,1c0,.21-.6.52-.79.56a3.83,3.83,0,0,1-1.07,0c-.11,0-.13-.37.2-.45a1,1,0,0,0,.54-.29c.06-.09.11-.49,0-.53s-.35,0-.35.22c0,.44-.41.36-.43.31a1.63,1.63,0,0,1,.14-.79c.15-.17.58-.39.61-.47l.27-.74s1,.2,1,.31A2.66,2.66,0,0,0,55.64,34.29Z" fill="#d6946c"/><path d="M46.08,35.4c.33.08.31.43.2.45a3.83,3.83,0,0,1-1.07,0c-.19,0-.74-.35-.79-.56a4.48,4.48,0,0,1-.06-1,2.66,2.66,0,0,0-.09-.87c0-.11,1-.31,1-.31l.27.74c0,.08.46.3.61.47a1.63,1.63,0,0,1,.14.79s-.42.13-.43-.31c0-.19-.24-.26-.35-.22s-.05.44,0,.53A1,1,0,0,0,46.08,35.4Z" fill="#d6946c"/><path d="M53.92,35c.1-.21.09-.45.32-.59a.11.11,0,0,1,.08,0,.19.19,0,0,1,.17.08.35.35,0,0,1,0,.2c0-.2-.42-.07-.42.13,0,.35-.27.37-.39.34A.2.2,0,0,0,53.92,35Z" fill="#d6946c" opacity="0.5" style="mix-blend-mode:multiply"/><path d="M55.64,34.29a4.48,4.48,0,0,1-.06,1c0,.21-.6.52-.79.56a3.83,3.83,0,0,1-1.07,0s0,0,0,0a1.11,1.11,0,0,0,.71-.15,1.54,1.54,0,0,0,.31-.17A.85.85,0,0,0,55,34.9l.12-.75a2.09,2.09,0,0,1,.14-.56c0-.11.14-.2.18-.3s.29.06.28.13A2.66,2.66,0,0,0,55.64,34.29Z" fill="#d6946c" opacity="0.5" style="mix-blend-mode:multiply"/><path d="M46.08,35c-.1-.21-.09-.45-.32-.59a.11.11,0,0,0-.08,0,.19.19,0,0,0-.17.08.35.35,0,0,0,0,.2c0-.2.42-.07.42.13,0,.35.27.37.39.34A.2.2,0,0,1,46.08,35Z" fill="#d6946c" opacity="0.5" style="mix-blend-mode:multiply"/><path d="M44.36,34.29a4.48,4.48,0,0,0,.06,1c0,.21.6.52.79.56a3.83,3.83,0,0,0,1.07,0s0,0,0,0a1.11,1.11,0,0,1-.71-.15,1.54,1.54,0,0,1-.31-.17A.85.85,0,0,1,45,34.9l-.12-.75a2.09,2.09,0,0,0-.14-.56c0-.11-.14-.2-.18-.3s-.29.06-.28.13A2.66,2.66,0,0,1,44.36,34.29Z" fill="#d6946c" opacity="0.5" style="mix-blend-mode:multiply"/><path d="M50,28.52a23.31,23.31,0,0,0-4.45.42L45,23H55l-.56,5.92A23.31,23.31,0,0,0,50,28.52Z" fill="#1a4b6c"/><path d="M45.87,25.64l.19-.05a3.22,3.22,0,0,0,1.78,2,5,5,0,0,0,1.7.34,11.31,11.31,0,0,0,1.93,0,4.39,4.39,0,0,0,1.85-.49.57.57,0,0,0,.21-.25,1.69,1.69,0,0,1-.79.34l-.41,0a2.42,2.42,0,0,1-.76-.05l.58-.1a5.07,5.07,0,0,0,.56-.13,2.24,2.24,0,0,0,1-.63,1.39,1.39,0,0,0,.31-.45c0-.05.08-.51,0-.51h.78l-.31,3.26a23.78,23.78,0,0,0-8.9,0l-.31-3.26C45.24,25.73,45.63,25.68,45.87,25.64Z" fill="#133b56"/><path d="M46.44,20.3h7.12a2.08,2.08,0,0,1,2.08,2.08v0a4.11,4.11,0,0,1-4.11,4.11h-3a4.11,4.11,0,0,1-4.11-4.11v0A2.08,2.08,0,0,1,46.44,20.3Z" fill="#1f5980"/><path d="M55.59,23.55c0-.1-.36-.32-.43-.35-.35-.14-.39-.12-.61.21a.75.75,0,0,1-.86.28c-.44-.15-.58-.17-.78.3a0,0,0,0,0,0,0c-.63.85-1.6,1.34-1.66,2.47H50V20.3h3.88a1.76,1.76,0,0,1,1.76,1.75v1A3.07,3.07,0,0,1,55.59,23.55Z" fill="#1a4b6c"/><path d="M44.41,23.55c0-.19,1.14-.81,1.3-.88s.73-.27,1-.11a2.71,2.71,0,0,1,.56,1,8.6,8.6,0,0,0,.29.9c.43.73,1.18,1,1.23,2H50V20.3H46.12a1.76,1.76,0,0,0-1.76,1.75v1A3.07,3.07,0,0,0,44.41,23.55Z" fill="#1a4b6c"/><path d="M58,28.1l-2,5.69-1.69-.48,1-5.31-1.22-2.15,1.2-4.72L58,27.64A.72.72,0,0,1,58,28.1Z" fill="#1f5980"/><path d="M54.26,25.53a5.49,5.49,0,0,0,.3.59c.28.48.47,1,.72,1.47a.24.24,0,0,0,.21.12,1,1,0,0,0,.25,0c0,.13.12.23.25.25.82.1.33.58-.21.36-.26-.11-.42.31-.19.44h0a.77.77,0,0,0-.31.33.26.26,0,0,0,.23.37c0,.19-1,3.9-1,3.9l-.15,0,1-5.31-1.22-2.15Z" fill="#1a4b6c"/><path d="M58,28.1l-2,5.69-.51-.14c.45-1.14.84-2.26,1.21-3.42a6.7,6.7,0,0,0,.58-2.4c-.09-.92-2-4.16-2.42-4.8l.48-1.9L58,27.64A.72.72,0,0,1,58,28.1Z" fill="#1a4b6c"/><path d="M42,28.1l2,5.69,1.69-.48-1-5.31,1.22-2.15-1.2-4.72L42,27.64A.72.72,0,0,0,42,28.1Z" fill="#1f5980"/><path d="M45.74,25.53a5.49,5.49,0,0,1-.3.59c-.28.48-.47,1-.72,1.47a.24.24,0,0,1-.21.12,1,1,0,0,1-.25,0c0,.13-.12.23-.25.25-.82.1-.33.58.21.36.26-.11.42.31.19.44h0a.77.77,0,0,1,.31.33.26.26,0,0,1-.23.37c0,.19,1,3.9,1,3.9l.15,0-1-5.31,1.22-2.15Z" fill="#1a4b6c"/><path d="M42,28.1l2,5.69.51-.14c-.45-1.14-.84-2.26-1.21-3.42a6.7,6.7,0,0,1-.58-2.4c.09-.92,2-4.16,2.42-4.8l-.48-1.9L42,27.64A.72.72,0,0,0,42,28.1Z" fill="#1a4b6c"/><polygon points="51.34 28.55 50 28.52 48.66 28.55 47.46 24.89 50 24.89 52.54 24.89 51.34 28.55" fill="#ecf0f1"/><path d="M48.1,27a8.94,8.94,0,0,1-.55-1.12,1.41,1.41,0,0,1-.08-.78.52.52,0,0,1,.6-.39c.1,0,.22.46.25.56a3.6,3.6,0,0,1,.15.63c.07.45.05.9.1,1.35a2.78,2.78,0,0,1,.52.2,4,4,0,0,0,1.79.09.8.8,0,0,0,.59-.29s0-.07,0-.09a.07.07,0,0,0-.06,0,2.72,2.72,0,0,0-.57,0s0-.08,0-.11.08,0,.13-.05c.73-.11.85-1,.71-1.57a1.24,1.24,0,0,0-.25-.53h1.1l-1.2,3.66-1.34,0-1.34,0c-.12-.36-.21-.76-.36-1.11C48.24,27.3,48.17,27.16,48.1,27Z" fill="#bec4c8"/><path d="M53.52,22.82a6.31,6.31,0,0,1,.83,2.49l-.55,0,.65.35-2.28,3-.83-.06s.86-2.38,1.06-3.31A10.84,10.84,0,0,1,53.52,22.82Z" fill="#96a5a6" style="mix-blend-mode:multiply"/><path d="M46.48,22.82a6.31,6.31,0,0,0-.83,2.49l.55,0-.65.35,2.28,3,.83-.06s-.86-2.38-1.06-3.31A10.84,10.84,0,0,0,46.48,22.82Z" fill="#96a5a6" style="mix-blend-mode:multiply"/><path d="M46.48,22.82c-.5.53-.52,2.49-.52,2.49l.49,0-.58.35,2.05,3,.74-.06s-.77-2.38-.95-3.31A9,9,0,0,0,46.48,22.82Z" fill="#2b81ba"/><path d="M53.52,22.82c.5.53.52,2.49.52,2.49l-.49,0,.58.35-2.05,3-.74-.06s.77-2.38.95-3.31A9,9,0,0,1,53.52,22.82Z" fill="#2b81ba"/><path d="M47.74,27a1.59,1.59,0,0,0,.4-.16c.26.86.52,1.67.52,1.67l-.74.06L46.8,27A1.88,1.88,0,0,0,47.74,27Z" fill="#2570a2"/><path d="M52.07,27.07a1.5,1.5,0,0,0,.92.22l-.91,1.32-.74-.06s.25-.79.51-1.64A1.12,1.12,0,0,0,52.07,27.07Z" fill="#2570a2"/><ellipse cx="50" cy="23.35" rx="3.33" ry="3.55" fill="#f1b47d"/><path d="M47.74,24.84a3.31,3.31,0,0,1,1.2.57,2.56,2.56,0,0,0,2,.16c.58-.21,1.21-.71,1.74-.15a.27.27,0,0,0,0-.31.65.65,0,0,0-.22-.25,8.06,8.06,0,0,0-1.86-1,4.5,4.5,0,0,0-2.08-.37,2,2,0,0,0-.76.18,1.33,1.33,0,0,0-.59.65,1.41,1.41,0,0,0-.1.73.36.36,0,0,0,.15.23c-.23-.16.33-.46.46-.46Z" fill="#db8e58"/><path d="M50.6,26.9a.61.61,0,1,0-1.2,0,.76.76,0,0,0,.6.74A.75.75,0,0,0,50.6,26.9Z" fill="#f1b47d"/><path d="M49.92,26.63a4.62,4.62,0,0,1,0,.83s0,0,0,.05l-.06,0C49.34,27.54,49.61,26.79,49.92,26.63Z" fill="#f9bc85"/><path d="M50,25.31c.75,0,1.43-.45,2.17-.37a.73.73,0,0,1,.4.15.39.39,0,0,1,.16.38c0-.06.26-.32.32-.41a2.44,2.44,0,0,0,.34-.61,3.66,3.66,0,0,0,.2-1.31,3.87,3.87,0,0,0-.91-2.46,3.6,3.6,0,0,0-5-.13,4.72,4.72,0,0,0-.37.41,3.73,3.73,0,0,0,0,4.54c0-.31-.08-.7.32-.77a3.46,3.46,0,0,1,1.52.41A4.34,4.34,0,0,0,50,25.31Z" fill="#9a3f15"/><path d="M53.36,24.45a2.44,2.44,0,0,1-.34.61c-.06.09-.3.35-.32.41a.39.39,0,0,0-.16-.38.59.59,0,0,0-.29-.13A3.77,3.77,0,0,0,52,22.53a2.62,2.62,0,0,0-2.39-1.4A2.4,2.4,0,0,0,47.3,23,7.11,7.11,0,0,0,47.19,25v.12a2,2,0,0,0,0,.42,3.73,3.73,0,0,1,0-4.54,4.72,4.72,0,0,1,.37-.41,3.6,3.6,0,0,1,5,.13,3.87,3.87,0,0,1,.91,2.46A3.66,3.66,0,0,1,53.36,24.45Z" fill="#8b3913"/><g opacity="0.2"><rect x="47.29" y="50.02" width="7.97" height="7.97" rx="1.47" transform="translate(-14.13 89.61) rotate(-75.05)" fill="#010101"/><rect x="47.59" y="50.31" width="7.38" height="7.38" rx="1.18" transform="translate(-14.13 89.61) rotate(-75.05)" fill="#010101"/><rect x="47.88" y="50.61" width="6.79" height="6.79" rx="0.88" transform="matrix(0.26, -0.97, 0.97, 0.26, -14.13, 89.61)" fill="#010101"/><path d="M54,56.68a.07.07,0,0,0,0-.09l-.31-.08a.07.07,0,0,0-.06,0s0,0,0,0a.08.08,0,0,0,0,.1l.31.08A.07.07,0,0,0,54,56.68Z" fill="#010101"/><path d="M53,56.5l.3.08a.08.08,0,0,0,.1-.06.08.08,0,0,0-.06-.09l-.3-.08H53a.1.1,0,0,0,0,0A.09.09,0,0,0,53,56.5Z" fill="#010101"/><path d="M52.8,55.87l.08-.31a.07.07,0,0,0-.05-.09.06.06,0,0,0-.06,0l0,0-.08.31a.08.08,0,0,0,.15,0Z" fill="#010101"/><path d="M51.54,53a.08.08,0,0,0,.09-.06l.08-.3a.07.07,0,0,0-.05-.1H51.6a.1.1,0,0,0,0,0l-.08.3A.08.08,0,0,0,51.54,53Z" fill="#010101"/><path d="M50.11,50.88s0,0,0,0l-.08.31a.07.07,0,0,0,0,.09.08.08,0,0,0,.1,0l.08-.31a.07.07,0,0,0,0-.09A.06.06,0,0,0,50.11,50.88Z" fill="#010101"/><path d="M53.56,54.53a.07.07,0,0,0-.06,0,.06.06,0,0,0,0,.05.07.07,0,0,0,.05.09l.31.08a.07.07,0,0,0,.09,0,.08.08,0,0,0-.05-.1Z" fill="#010101"/><path d="M51.28,52.14a.08.08,0,0,0,.1-.06.07.07,0,0,0-.05-.09L51,51.91H51a.09.09,0,0,0,0,.05.07.07,0,0,0,0,.1Z" fill="#010101"/><path d="M51.47,53.57l.08-.31a.07.07,0,0,0,0-.09.06.06,0,0,0-.06,0l0,0-.08.31a.07.07,0,0,0,0,.09A.08.08,0,0,0,51.47,53.57Z" fill="#010101"/><path d="M51.7,52.41a.07.07,0,0,0,.09,0l0-.08.08,0a.08.08,0,1,0,0-.15l-.07,0,0-.08a.08.08,0,0,0-.06-.09.07.07,0,0,0-.06,0l0,0,0,.08-.07,0a.07.07,0,0,0-.06,0l0,0a.08.08,0,0,0,.06.1l.07,0,0,.08A.08.08,0,0,0,51.7,52.41Z" fill="#010101"/><path d="M53.31,53.65h-.06a.05.05,0,0,0,0,.05l-.09.3a.08.08,0,1,0,.16,0l.08-.3A.09.09,0,0,0,53.31,53.65Z" fill="#010101"/><path d="M53.15,54.26a.07.07,0,0,0-.06,0,.08.08,0,0,0,0,0l0,.08-.07,0a.07.07,0,0,0-.06,0,.08.08,0,0,0,0,0,.08.08,0,0,0,.06.1l.07,0,0,.08a.08.08,0,0,0,.06.09.09.09,0,0,0,.1-.05l0-.08.07,0a.08.08,0,1,0,0-.15l-.07,0,0-.08A.08.08,0,0,0,53.15,54.26Z" fill="#010101"/><path d="M52.93,54.87a.1.1,0,0,0,0,.05l-.08.3a.09.09,0,0,0,.06.1.08.08,0,0,0,.09-.06L53,55a.07.07,0,0,0,0-.1Z" fill="#010101"/><path d="M52.31,54.36l.31.08a.08.08,0,0,0,0-.15l-.31-.08h-.06s0,0,0,0A.08.08,0,0,0,52.31,54.36Z" fill="#010101"/><path d="M50.72,51.83l-.3-.09h-.06a.1.1,0,0,0,0,0,.08.08,0,0,0,.06.1l.3.08a.09.09,0,0,0,.1-.06A.08.08,0,0,0,50.72,51.83Z" fill="#010101"/><path d="M51.22,56l.31.08a.07.07,0,0,0,.09-.05.08.08,0,0,0,0-.1l-.31-.08H51.2a.09.09,0,0,0,0,.05A.07.07,0,0,0,51.22,56Z" fill="#010101"/><path d="M52.32,57.68l.08-.3a.09.09,0,0,0-.06-.1h-.06a.09.09,0,0,0,0,.05l-.08.3a.07.07,0,0,0,0,.1A.09.09,0,0,0,52.32,57.68Z" fill="#010101"/><path d="M51.71,54.2l.3.08a.08.08,0,0,0,.1-.06.08.08,0,0,0-.06-.09l-.3-.08h-.06a.1.1,0,0,0,0,.05A.09.09,0,0,0,51.71,54.2Z" fill="#010101"/><path d="M50.8,54a.08.08,0,1,0,0-.16l-.3-.08h-.06a.1.1,0,0,0,0,.05.1.1,0,0,0,.06.1Z" fill="#010101"/><path d="M50.24,53.64l-.31-.08h-.06a.09.09,0,0,0,0,0,.07.07,0,0,0,0,.09l.3.08a.07.07,0,0,0,.1,0A.08.08,0,0,0,50.24,53.64Z" fill="#010101"/><path d="M51,55a.1.1,0,0,0,0,0l-.08.3a.08.08,0,1,0,.16,0l.08-.3A.09.09,0,0,0,51,55Z" fill="#010101"/><path d="M49.62,52.69a.1.1,0,0,0,0,.05l-.08.3a.09.09,0,0,0,.06.1.1.1,0,0,0,.1-.06l.08-.3a.09.09,0,0,0-.06-.1Z" fill="#010101"/><path d="M51.05,54.83a.08.08,0,0,0,.1,0l.08-.31a.07.07,0,0,0-.06-.09.07.07,0,0,0-.06,0s0,0,0,0l-.08.31A.07.07,0,0,0,51.05,54.83Z" fill="#010101"/><path d="M52.74,56.42a.08.08,0,0,0,.09-.06.09.09,0,0,0,0-.1H52.7l0-.08a.08.08,0,0,0,0-.1h-.06a.07.07,0,0,0,0,.05l0,.07-.08,0h-.06a.09.09,0,0,0,0,.05.08.08,0,0,0,0,.1l.08,0,0,.07a.08.08,0,1,0,.15,0l0-.07Z" fill="#010101"/><path d="M51.83,56.18l.3.08a.08.08,0,1,0,0-.16l-.3-.08h-.06a.1.1,0,0,0,0,0A.1.1,0,0,0,51.83,56.18Z" fill="#010101"/><path d="M51.21,54.23a.08.08,0,0,0,.1-.06l0-.07.07,0a.08.08,0,0,0,.1-.06.09.09,0,0,0,0-.1l-.08,0,0-.07a.08.08,0,0,0-.06-.1h-.06a.09.09,0,0,0,0,0l0,.07-.08,0h-.06a.09.09,0,0,0,0,0,.08.08,0,0,0,.05.1l.08,0,0,.07A.08.08,0,0,0,51.21,54.23Z" fill="#010101"/><path d="M49.51,51.5l-.3-.08h-.06a.1.1,0,0,0,0,0,.07.07,0,0,0,.06.09l.3.09a.1.1,0,0,0,.1-.06A.09.09,0,0,0,49.51,51.5Z" fill="#010101"/><path d="M52.44,56.69s0,0,0,0l-.08.31a.07.07,0,0,0,.05.09.08.08,0,0,0,.1-.05l.08-.31a.07.07,0,0,0-.06-.09A.07.07,0,0,0,52.44,56.69Z" fill="#010101"/><path d="M49.72,52.53a.08.08,0,0,0,.1-.05l.08-.31a.08.08,0,0,0-.06-.09.07.07,0,0,0-.06,0s0,0,0,0l-.09.31A.08.08,0,0,0,49.72,52.53Z" fill="#010101"/><path d="M53.51,52.9a.08.08,0,0,0,.1-.06l0-.07.07,0a.08.08,0,0,0,0-.16l-.08,0,0-.07a.08.08,0,0,0,0-.1h-.06a.07.07,0,0,0,0,0l0,.07-.08,0h-.06a.09.09,0,0,0,0,0,.09.09,0,0,0,0,.1l.08,0,0,.07A.08.08,0,0,0,53.51,52.9Z" fill="#010101"/><path d="M52.54,52.31l-.31-.08a.07.07,0,0,0-.06,0,.06.06,0,0,0,0,0,.07.07,0,0,0,0,.09l.3.08a.08.08,0,0,0,.1-.05A.08.08,0,0,0,52.54,52.31Z" fill="#010101"/><path d="M49.17,54.9l.08-.3a.08.08,0,0,0,0-.1.06.06,0,0,0-.06,0s0,0,0,0l-.08.31a.07.07,0,0,0,0,.09A.08.08,0,0,0,49.17,54.9Z" fill="#010101"/><path d="M49,53.32l-.31-.08a.07.07,0,0,0-.06,0s0,0,0,0a.07.07,0,0,0,0,.1l.3.08a.08.08,0,1,0,.05-.15Z" fill="#010101"/><path d="M50.5,57.2l.08-.3a.08.08,0,0,0,0-.1.06.06,0,0,0-.06,0,.08.08,0,0,0,0,0l-.08.31a.07.07,0,0,0,.06.09A.07.07,0,0,0,50.5,57.2Z" fill="#010101"/><path d="M50,55.69l.3.08a.08.08,0,1,0,0-.15l-.31-.08a.07.07,0,0,0-.06,0s0,0,0,0A.08.08,0,0,0,50,55.69Z" fill="#010101"/><path d="M50.66,56.59l.08-.3a.07.07,0,0,0-.05-.1h-.06a.1.1,0,0,0,0,0l-.08.3a.08.08,0,0,0,.06.1A.08.08,0,0,0,50.66,56.59Z" fill="#010101"/><path d="M49.33,54.29l.08-.3a.08.08,0,0,0,0-.1H49.3a.1.1,0,0,0,0,.05l-.08.3a.08.08,0,0,0,.06.1A.08.08,0,0,0,49.33,54.29Z" fill="#010101"/><path d="M47.57,54.9a.09.09,0,0,0,0,.05.07.07,0,0,0,.05.09l.3.09a.08.08,0,0,0,0-.16l-.31-.08Z" fill="#010101"/><path d="M49.63,53.48l-.07,0,0-.08a.08.08,0,0,0-.06-.09.07.07,0,0,0-.06,0,.08.08,0,0,0,0,0l0,.08-.07,0a.07.07,0,0,0-.06,0,.07.07,0,0,0,0,.14l.07,0,0,.08a.08.08,0,0,0,.06.09.07.07,0,0,0,.09-.05l0-.08.08,0a.08.08,0,1,0,0-.15Z" fill="#010101"/><path d="M48.42,53.16l-.3-.08h-.06a.1.1,0,0,0,0,.05.08.08,0,0,0,.06.1l.3.08a.08.08,0,0,0,.1-.06A.08.08,0,0,0,48.42,53.16Z" fill="#010101"/><path d="M48.81,55.72s0,0,0,0l-.08.31a.07.07,0,0,0,0,.09.07.07,0,0,0,.1,0l.08-.3a.08.08,0,0,0-.06-.1A.07.07,0,0,0,48.81,55.72Z" fill="#010101"/><path d="M48.69,56.71l.08-.3a.09.09,0,0,0-.06-.1h-.06a.1.1,0,0,0,0,0l-.08.3a.09.09,0,0,0,.06.1A.08.08,0,0,0,48.69,56.71Z" fill="#010101"/><path d="M48.54,55.13l-.3-.08h-.06a.1.1,0,0,0,0,0,.1.1,0,0,0,.06.1l.3.08a.09.09,0,0,0,.1-.06A.1.1,0,0,0,48.54,55.13Z" fill="#010101"/><path d="M49,55.1H49a.09.09,0,0,0,0,0l0,.07-.08,0h-.06a.09.09,0,0,0,0,.05.08.08,0,0,0,0,.1l.08,0,0,.07a.08.08,0,1,0,.15,0l0-.07.07,0a.08.08,0,0,0,.1-.06.07.07,0,0,0-.05-.09l-.08,0,0-.08A.08.08,0,0,0,49,55.1Z" fill="#010101"/><path d="M49.41,55.53l.3.08a.08.08,0,0,0,.1-.06.08.08,0,0,0-.06-.09l-.3-.08a.06.06,0,0,0-.06,0,.1.1,0,0,0,0,0A.09.09,0,0,0,49.41,55.53Z" fill="#010101"/><path d="M54,52.87l.3.08a.09.09,0,0,0,.1-.06.08.08,0,0,0-.06-.09l-.3-.09H54a.1.1,0,0,0,0,.05A.09.09,0,0,0,54,52.87Z" fill="#010101"/><path d="M53.14,52.47l-.3-.08h-.06a.1.1,0,0,0,0,.05.08.08,0,0,0,.06.09l.3.08a.07.07,0,0,0,.1,0A.09.09,0,0,0,53.14,52.47Z" fill="#010101"/><path d="M52.08,50.76s0,0,0,0l-.09.31a.08.08,0,0,0,.06.09.08.08,0,0,0,.1-.05l.08-.31a.08.08,0,0,0-.06-.09A.07.07,0,0,0,52.08,50.76Z" fill="#010101"/><path d="M54.17,54.69h-.06a.1.1,0,0,0,0,0,.08.08,0,0,0,.06.09l.3.09a.08.08,0,1,0,0-.16Z" fill="#010101"/><path d="M53.47,53.05a.07.07,0,0,0-.06,0s0,0,0,0l-.08.31a.07.07,0,0,0,.05.09.08.08,0,0,0,.1,0l.08-.31A.07.07,0,0,0,53.47,53.05Z" fill="#010101"/><path d="M51.92,51.36a.1.1,0,0,0,0,0l-.08.3a.08.08,0,1,0,.16,0l.08-.3a.09.09,0,0,0-.06-.1Z" fill="#010101"/><path d="M50.21,50.72a.08.08,0,0,0,.09-.06l.08-.3a.08.08,0,0,0-.05-.1h-.06a.1.1,0,0,0,0,0l-.08.3A.08.08,0,0,0,50.21,50.72Z" fill="#010101"/><path d="M49.75,51.59a.09.09,0,0,0,0,0,.07.07,0,0,0,.05.1l.08,0,0,.07a.07.07,0,0,0,.05.1.09.09,0,0,0,.1-.06l0-.07.07,0a.08.08,0,0,0,.1-.06.09.09,0,0,0-.05-.1l-.08,0,0-.07a.08.08,0,0,0-.06-.1h-.06a.09.09,0,0,0,0,.05l0,.07-.08,0Z" fill="#010101"/><path d="M48.54,51.27a.09.09,0,0,0,0,0,.07.07,0,0,0,.05.09l.3.08a.07.07,0,0,0,.1-.05.08.08,0,0,0-.05-.1l-.31-.08A.07.07,0,0,0,48.54,51.27Z" fill="#010101"/><path d="M50.85,55.59a.07.07,0,0,0-.06,0,.08.08,0,0,0,0,0l0,.08-.07,0a.07.07,0,0,0-.06,0,.07.07,0,0,0,0,0,.08.08,0,0,0,.06.09l.07,0,0,.08a.08.08,0,0,0,.06.09.09.09,0,0,0,.1,0l0-.08.07,0a.08.08,0,1,0,0-.15l-.07,0,0-.07A.08.08,0,0,0,50.85,55.59Z" fill="#010101"/><path d="M53.9,51.24a.1.1,0,0,0,0,0l-.08.3a.08.08,0,0,0,.06.1.08.08,0,0,0,.09-.06l.08-.3a.07.07,0,0,0,0-.1Z" fill="#010101"/><path d="M55,53.05A.07.07,0,0,0,55,53l-.31-.08a.06.06,0,0,0-.06,0,.09.09,0,0,0,0,0,.08.08,0,0,0,0,.1l.31.08A.07.07,0,0,0,55,53.05Z" fill="#010101"/><path d="M53.77,52.24l.08-.31a.07.07,0,0,0-.05-.09.06.06,0,0,0-.06,0,.08.08,0,0,0,0,0l-.08.31a.08.08,0,0,0,.15,0Z" fill="#010101"/><path d="M53.84,58.25l0,0a.64.64,0,0,0-.06.14,1.21,1.21,0,0,0-.08.51,1.87,1.87,0,0,0,.14.71A1.42,1.42,0,0,0,54,60a.26.26,0,0,0,.25.11A.3.3,0,0,0,54.4,60l0,0,0,0a.09.09,0,0,0,0-.06.49.49,0,0,0,0-.31,5.24,5.24,0,0,0-.34-.67,3.08,3.08,0,0,1-.24-.5.55.55,0,0,1,0-.16Zm0,0a.1.1,0,0,0,0,0,.88.88,0,0,0,.07.13c.07.11.2.25.34.42l.23.3a1.9,1.9,0,0,1,.22.37,1.35,1.35,0,0,1,.08.24.72.72,0,0,1,0,.29.71.71,0,0,1-.08.15.6.6,0,0,1-.12.11.74.74,0,0,1-.27.12.58.58,0,0,1-.32-.06.79.79,0,0,1-.22-.18,1.24,1.24,0,0,1-.23-.44,1.76,1.76,0,0,1,0-.81,1.32,1.32,0,0,1,.21-.54l.1-.11Z" fill="#010101"/></g><rect x="46.98" y="49.7" width="7.97" height="7.97" rx="1.47" transform="translate(-14.06 89.07) rotate(-75.05)" fill="#de4b34"/><rect x="47.27" y="50" width="7.38" height="7.38" rx="1.18" transform="translate(-14.06 89.07) rotate(-75.05)" fill="#f5f5f5"/><rect x="47.57" y="50.29" width="6.79" height="6.79" rx="0.88" transform="translate(-14.06 89.07) rotate(-75.05)" fill="#f1c413"/><g style="mix-blend-mode:multiply"><path d="M53.73,56.37a.1.1,0,0,0-.06-.1l-.3-.08h-.06a.1.1,0,0,0,0,0,.09.09,0,0,0,.06.1l.3.08A.09.09,0,0,0,53.73,56.37Z" fill="#bec4c8"/><path d="M52.72,56.18l.31.09a.08.08,0,0,0,.09-.06.08.08,0,0,0,0-.1L52.76,56H52.7a.09.09,0,0,0,0,.05A.07.07,0,0,0,52.72,56.18Z" fill="#bec4c8"/><path d="M52.49,55.55l.08-.3a.08.08,0,0,0-.06-.1h-.06a.09.09,0,0,0,0,.05l-.08.3a.07.07,0,0,0,0,.1A.08.08,0,0,0,52.49,55.55Z" fill="#bec4c8"/><path d="M51.22,52.7a.07.07,0,0,0,.1-.05l.08-.3a.08.08,0,0,0-.06-.1.07.07,0,0,0-.06,0,.06.06,0,0,0,0,.05l-.08.3A.07.07,0,0,0,51.22,52.7Z" fill="#bec4c8"/><path d="M49.79,50.56a.1.1,0,0,0,0,0l-.08.3a.09.09,0,0,0,.06.1.08.08,0,0,0,.1-.06l.08-.3a.1.1,0,0,0-.06-.1Z" fill="#bec4c8"/><path d="M53.25,54.22h-.06a.1.1,0,0,0,0,.05.09.09,0,0,0,.06.1l.3.08a.08.08,0,0,0,.1-.06.08.08,0,0,0-.06-.09Z" fill="#bec4c8"/><path d="M51,51.83a.08.08,0,1,0,0-.16l-.3-.08h-.06a.1.1,0,0,0,0,0,.1.1,0,0,0,.06.1Z" fill="#bec4c8"/><path d="M51.16,53.25l.08-.3a.1.1,0,0,0-.06-.1h-.06a.09.09,0,0,0,0,0l-.09.3a.09.09,0,0,0,.06.1A.08.08,0,0,0,51.16,53.25Z" fill="#bec4c8"/><path d="M51.38,52.1a.08.08,0,0,0,.1-.06l0-.07.08,0a.08.08,0,0,0,.09-.06.07.07,0,0,0-.05-.09l-.08,0,0-.08a.09.09,0,0,0-.05-.1h-.06a.07.07,0,0,0,0,.05l0,.07-.08,0h-.06a.09.09,0,0,0,0,.05.08.08,0,0,0,.05.1l.08,0,0,.07A.08.08,0,0,0,51.38,52.1Z" fill="#bec4c8"/><path d="M53,53.34a.07.07,0,0,0-.06,0,.08.08,0,0,0,0,0l-.08.31a.07.07,0,0,0,.06.09.07.07,0,0,0,.09,0l.08-.3A.07.07,0,0,0,53,53.34Z" fill="#bec4c8"/><path d="M52.84,53.94h-.06a.1.1,0,0,0,0,0l0,.07-.08,0h-.06a.09.09,0,0,0,0,0,.08.08,0,0,0,.05.1l.08,0,0,.07a.08.08,0,0,0,.06.1.07.07,0,0,0,.09-.06l0-.07.08,0a.08.08,0,0,0,.09-.06.07.07,0,0,0,0-.09l-.08,0,0-.08A.09.09,0,0,0,52.84,53.94Z" fill="#bec4c8"/><path d="M52.62,54.56s0,0,0,0l-.08.3a.08.08,0,0,0,.15,0l.08-.3a.08.08,0,0,0,0-.1A.06.06,0,0,0,52.62,54.56Z" fill="#bec4c8"/><path d="M52,54.05l.3.08a.09.09,0,0,0,.1-.06.1.1,0,0,0-.06-.1l-.3-.08H52a.1.1,0,0,0,0,.05A.1.1,0,0,0,52,54.05Z" fill="#bec4c8"/><path d="M50.41,51.51l-.31-.08H50a.09.09,0,0,0,0,.05.07.07,0,0,0,.05.09l.31.08a.07.07,0,0,0,.09,0A.08.08,0,0,0,50.41,51.51Z" fill="#bec4c8"/><path d="M50.91,55.7l.3.08a.08.08,0,0,0,.1-.06.08.08,0,0,0-.06-.09l-.3-.08a0,0,0,0,0-.06,0,.08.08,0,0,0,0,0A.08.08,0,0,0,50.91,55.7Z" fill="#bec4c8"/><path d="M52,57.37l.08-.3a.07.07,0,0,0,0-.1A.07.07,0,0,0,52,57a.07.07,0,0,0,0,.05l-.08.3a.08.08,0,0,0,.06.09A.07.07,0,0,0,52,57.37Z" fill="#bec4c8"/><path d="M51.39,53.88l.31.09a.08.08,0,0,0,.09-.06.08.08,0,0,0,0-.1l-.31-.08h-.06a.09.09,0,0,0,0,0A.07.07,0,0,0,51.39,53.88Z" fill="#bec4c8"/><path d="M50.49,53.64a.07.07,0,0,0,.09,0,.08.08,0,0,0,0-.1l-.31-.08a.07.07,0,0,0-.06,0s0,0,0,0a.08.08,0,0,0,0,.1Z" fill="#bec4c8"/><path d="M49.92,53.33l-.3-.08h-.06a.1.1,0,0,0,0,0,.08.08,0,0,0,.06.1l.3.08a.08.08,0,0,0,.1-.06A.08.08,0,0,0,49.92,53.33Z" fill="#bec4c8"/><path d="M50.64,54.68a.07.07,0,0,0,0,0l-.08.3a.07.07,0,0,0,.06.09.07.07,0,0,0,.09,0l.08-.3a.07.07,0,0,0,0-.1A.07.07,0,0,0,50.64,54.68Z" fill="#bec4c8"/><path d="M49.31,52.38a.07.07,0,0,0,0,0l-.08.3a.07.07,0,0,0,.06.09.07.07,0,0,0,.09,0l.08-.3a.08.08,0,0,0-.05-.1A.06.06,0,0,0,49.31,52.38Z" fill="#bec4c8"/><path d="M50.74,54.52a.07.07,0,0,0,.09-.06l.09-.3a.1.1,0,0,0-.06-.1H50.8a.1.1,0,0,0,0,0l-.08.3A.09.09,0,0,0,50.74,54.52Z" fill="#bec4c8"/><path d="M52.42,56.1a.07.07,0,0,0,.1-.05.09.09,0,0,0-.06-.1l-.07,0,0-.07a.08.08,0,0,0-.06-.1.07.07,0,0,0-.06,0,0,0,0,0,0,0,0l0,.07-.08,0a.07.07,0,0,0-.06,0,.1.1,0,0,0,0,0,.08.08,0,0,0,.06.09l.07,0,0,.08a.08.08,0,0,0,.06.09.07.07,0,0,0,.1-.05l0-.08Z" fill="#bec4c8"/><path d="M51.51,55.86l.31.08a.07.07,0,0,0,.09,0,.08.08,0,0,0,0-.1l-.31-.08a.07.07,0,0,0-.06,0s0,0,0,0A.08.08,0,0,0,51.51,55.86Z" fill="#bec4c8"/><path d="M50.9,53.91a.07.07,0,0,0,.1,0l0-.08.07,0a.08.08,0,0,0,.1,0,.09.09,0,0,0-.06-.1l-.07,0,0-.07a.08.08,0,0,0-.06-.1.07.07,0,0,0-.06,0,.07.07,0,0,0,0,.05l0,.07-.07,0a.07.07,0,0,0-.06,0,.07.07,0,0,0,0,.05.08.08,0,0,0,.06.09l.07,0,0,.08A.08.08,0,0,0,50.9,53.91Z" fill="#bec4c8"/><path d="M49.2,51.19l-.31-.08a.07.07,0,0,0-.06,0s0,0,0,0a.08.08,0,0,0,.05.1l.31.08a.07.07,0,0,0,.09-.05A.08.08,0,0,0,49.2,51.19Z" fill="#bec4c8"/><path d="M52.13,56.37a.1.1,0,0,0,0,.05l-.08.3a.09.09,0,0,0,.06.1.08.08,0,0,0,.1-.06l.08-.3a.1.1,0,0,0-.06-.1Z" fill="#bec4c8"/><path d="M49.41,52.22a.07.07,0,0,0,.09-.06l.08-.3s0-.08,0-.1h-.06a.1.1,0,0,0,0,0l-.08.3A.08.08,0,0,0,49.41,52.22Z" fill="#bec4c8"/><path d="M53.2,52.58a.07.07,0,0,0,.1,0l0-.08.07,0a.08.08,0,1,0,0-.15l-.07,0,0-.07a.08.08,0,0,0-.06-.1.07.07,0,0,0-.06,0,.08.08,0,0,0,0,0l0,.08-.07,0a.07.07,0,0,0-.06,0,.08.08,0,0,0,0,0,.08.08,0,0,0,.06.1l.07,0,0,.08A.08.08,0,0,0,53.2,52.58Z" fill="#bec4c8"/><path d="M52.22,52l-.3-.08a.06.06,0,0,0-.06,0,.1.1,0,0,0,0,0,.09.09,0,0,0,.06.1l.3.08a.08.08,0,0,0,.1-.06A.08.08,0,0,0,52.22,52Z" fill="#bec4c8"/><path d="M48.86,54.58l.08-.3a.1.1,0,0,0-.06-.1h-.06a.05.05,0,0,0,0,.05l-.09.3a.08.08,0,0,0,.06.1A.08.08,0,0,0,48.86,54.58Z" fill="#bec4c8"/><path d="M48.71,53l-.3-.08h-.06a.1.1,0,0,0,0,0,.09.09,0,0,0,.06.1l.3.08a.09.09,0,0,0,.1-.06A.1.1,0,0,0,48.71,53Z" fill="#bec4c8"/><path d="M50.19,56.88l.08-.3a.08.08,0,0,0-.06-.1h-.06a.09.09,0,0,0,0,0l-.08.3a.07.07,0,0,0,.05.1A.08.08,0,0,0,50.19,56.88Z" fill="#bec4c8"/><path d="M49.7,55.38l.3.08a.09.09,0,0,0,.1-.06.1.1,0,0,0-.06-.1l-.3-.08h-.06a.1.1,0,0,0,0,.05A.09.09,0,0,0,49.7,55.38Z" fill="#bec4c8"/><path d="M50.35,56.28l.08-.3a.08.08,0,0,0-.06-.1.07.07,0,0,0-.06,0,.06.06,0,0,0,0,0l-.08.3a.08.08,0,0,0,.15,0Z" fill="#bec4c8"/><path d="M49,54l.08-.3a.08.08,0,0,0-.06-.1.07.07,0,0,0-.06,0,.06.06,0,0,0,0,0l-.08.3a.07.07,0,0,0,.05.09A.07.07,0,0,0,49,54Z" fill="#bec4c8"/><path d="M47.26,54.59a.08.08,0,0,0,0,0,.08.08,0,0,0,.06.1l.3.08a.08.08,0,1,0,0-.15l-.3-.08A.07.07,0,0,0,47.26,54.59Z" fill="#bec4c8"/><path d="M49.32,53.17l-.08,0,0-.08a.09.09,0,0,0,0-.1h-.06a.07.07,0,0,0,0,.05l0,.08-.08,0a.06.06,0,0,0-.06,0,.09.09,0,0,0,0,0,.08.08,0,0,0,0,.1l.08,0,0,.07a.08.08,0,0,0,0,.1.08.08,0,0,0,.1-.06l0-.07.08,0a.08.08,0,0,0,0-.15Z" fill="#bec4c8"/><path d="M48.11,52.84l-.31-.08h-.06a.09.09,0,0,0,0,0,.09.09,0,0,0,0,.1l.31.08a.08.08,0,0,0,.09-.06A.08.08,0,0,0,48.11,52.84Z" fill="#bec4c8"/><path d="M48.5,55.4a.1.1,0,0,0,0,.05l-.08.3a.08.08,0,0,0,.06.1.07.07,0,0,0,.09-.06l.09-.3a.1.1,0,0,0-.06-.1Z" fill="#bec4c8"/><path d="M48.37,56.4l.08-.3a.08.08,0,0,0-.05-.1.06.06,0,0,0-.06,0,.07.07,0,0,0,0,.05l-.08.3a.08.08,0,0,0,.06.1A.08.08,0,0,0,48.37,56.4Z" fill="#bec4c8"/><path d="M48.23,54.82l-.31-.08a.07.07,0,0,0-.06,0,.06.06,0,0,0,0,0,.07.07,0,0,0,.05.09l.31.08a.07.07,0,0,0,.09,0A.08.08,0,0,0,48.23,54.82Z" fill="#bec4c8"/><path d="M48.72,54.79a.07.07,0,0,0-.06,0,.07.07,0,0,0,0,.05l0,.07-.07,0h-.06a.1.1,0,0,0,0,.05.08.08,0,0,0,.06.09l.07,0,0,.08a.08.08,0,0,0,.06.09s.08,0,.1-.05l0-.08.07,0a.07.07,0,0,0,.1-.05.09.09,0,0,0-.06-.1l-.07,0,0-.07A.08.08,0,0,0,48.72,54.79Z" fill="#bec4c8"/><path d="M49.09,55.22l.31.08a.08.08,0,0,0,.09-.06.08.08,0,0,0-.05-.1l-.31-.08h-.06a.09.09,0,0,0,0,0A.09.09,0,0,0,49.09,55.22Z" fill="#bec4c8"/><path d="M53.69,52.55l.31.08a.07.07,0,0,0,.09-.05.08.08,0,0,0-.05-.1l-.31-.08a.07.07,0,0,0-.06,0,.09.09,0,0,0,0,.05A.07.07,0,0,0,53.69,52.55Z" fill="#bec4c8"/><path d="M52.83,52.16l-.31-.08a.07.07,0,0,0-.06,0s0,0,0,0a.08.08,0,0,0,0,.1l.31.08a.08.08,0,0,0,0-.15Z" fill="#bec4c8"/><path d="M51.77,50.44a.1.1,0,0,0,0,.05l-.08.3a.08.08,0,0,0,.06.1.07.07,0,0,0,.09-.06l.08-.3s0-.08-.05-.1Z" fill="#bec4c8"/><path d="M53.85,54.38a.07.07,0,0,0-.06,0s0,0,0,0a.08.08,0,0,0,.05.1l.31.08a.07.07,0,0,0,.09,0,.08.08,0,0,0-.05-.1Z" fill="#bec4c8"/><path d="M53.16,52.73H53.1a.1.1,0,0,0,0,0l-.08.3a.09.09,0,0,0,.06.1.08.08,0,0,0,.1-.06l.08-.3A.1.1,0,0,0,53.16,52.73Z" fill="#bec4c8"/><path d="M51.61,51.05a.08.08,0,0,0,0,0l-.08.31a.07.07,0,0,0,.06.09.07.07,0,0,0,.09-.05l.08-.3a.08.08,0,0,0,0-.1A.06.06,0,0,0,51.61,51.05Z" fill="#bec4c8"/><path d="M49.89,50.4a.07.07,0,0,0,.1,0l.08-.3A.08.08,0,0,0,50,50,.07.07,0,0,0,50,50s0,0,0,0l-.08.31A.07.07,0,0,0,49.89,50.4Z" fill="#bec4c8"/><path d="M49.44,51.28a.07.07,0,0,0,0,0,.08.08,0,0,0,.06.09l.07,0,0,.08a.08.08,0,0,0,.06.09s.08,0,.1,0l0-.08.07,0a.08.08,0,0,0,.1,0,.09.09,0,0,0-.06-.1l-.07,0,0-.07a.08.08,0,0,0-.06-.1.07.07,0,0,0-.06,0,.07.07,0,0,0,0,0l0,.07-.07,0A.07.07,0,0,0,49.44,51.28Z" fill="#bec4c8"/><path d="M48.23,51a.1.1,0,0,0,0,0,.09.09,0,0,0,.06.1l.3.08a.08.08,0,0,0,.1-.06.08.08,0,0,0-.06-.09l-.3-.08A.06.06,0,0,0,48.23,51Z" fill="#bec4c8"/><path d="M50.54,55.27h-.06a.07.07,0,0,0,0,0l0,.08-.08,0h-.06a.09.09,0,0,0,0,0,.08.08,0,0,0,0,.1l.08,0,0,.07a.08.08,0,0,0,0,.1.08.08,0,0,0,.1-.06l0-.07.08,0a.08.08,0,0,0,0-.15l-.08,0,0-.08A.09.09,0,0,0,50.54,55.27Z" fill="#bec4c8"/><path d="M53.58,50.93s0,0,0,0l-.08.31a.08.08,0,0,0,.15,0l.08-.3a.08.08,0,0,0-.06-.1A.07.07,0,0,0,53.58,50.93Z" fill="#bec4c8"/><path d="M54.7,52.74a.09.09,0,0,0-.06-.1l-.3-.08h-.06a.1.1,0,0,0,0,0,.1.1,0,0,0,.06.1l.3.08A.09.09,0,0,0,54.7,52.74Z" fill="#bec4c8"/><path d="M53.46,51.92l.08-.3a.08.08,0,0,0-.06-.1h-.06a.09.09,0,0,0,0,0l-.08.3a.07.07,0,0,0,0,.1A.08.08,0,0,0,53.46,51.92Z" fill="#bec4c8"/></g><path d="M53.53,57.93l0,0s0,.08-.06.14a1.67,1.67,0,0,0-.08.52,2.1,2.1,0,0,0,.15.7.85.85,0,0,0,.19.32.25.25,0,0,0,.25.12.3.3,0,0,0,.13-.06l0,0,0,0,0,0a.44.44,0,0,0,0-.31,4.65,4.65,0,0,0-.33-.67,3.08,3.08,0,0,1-.24-.5.61.61,0,0,1,0-.16A.09.09,0,0,1,53.53,57.93Zm0,0a.28.28,0,0,0,0,.06.76.76,0,0,0,.08.13c.07.1.19.24.34.42l.23.29a3.2,3.2,0,0,1,.22.38.88.88,0,0,1,.07.23.52.52,0,0,1,0,.3.37.37,0,0,1-.07.14l-.12.12a.59.59,0,0,1-.28.11.55.55,0,0,1-.31,0,.67.67,0,0,1-.22-.18,1.24,1.24,0,0,1-.23-.44,1.81,1.81,0,0,1-.06-.82,1.27,1.27,0,0,1,.21-.53.68.68,0,0,1,.11-.12Z" fill="#de4b34"/><g opacity="0.2"><path d="M43.88,40.48l1.39-.62-.18-.41-1.39.61a.23.23,0,0,0-.12.3h0A.23.23,0,0,0,43.88,40.48Z" fill="#010101"/><circle cx="45.48" cy="39.53" r="1.41" fill="#010101"/><path d="M45.82,38.16l.07,0a.32.32,0,0,1,.09,0l.11,0,.13.08.15.1a1.45,1.45,0,0,1,.29.31,1.37,1.37,0,0,1,.2.46,1.31,1.31,0,0,1,0,.56,1.47,1.47,0,0,1-.21.56,1.54,1.54,0,0,1-.45.43,1.37,1.37,0,0,1-.59.19,1.3,1.3,0,0,1-.59-.06,1.41,1.41,0,0,1-.8-.67,1.48,1.48,0,0,1-.14-.4,1.13,1.13,0,0,1,0-.18v-.27s0-.07,0-.09l0-.07h0v.07a.29.29,0,0,0,0,.09v.12a.76.76,0,0,0,0,.15,1.22,1.22,0,0,0,0,.17,1.47,1.47,0,0,0,.15.39,1.33,1.33,0,0,0,.31.37,1.43,1.43,0,0,0,.47.26,1.35,1.35,0,0,0,.57,0,1.25,1.25,0,0,0,.55-.19,1.37,1.37,0,0,0,.43-.4.54.54,0,0,0,.07-.13.52.52,0,0,0,.06-.13s0-.09,0-.13l0-.14a1.63,1.63,0,0,0,0-.54,1.36,1.36,0,0,0-.19-.44,1.24,1.24,0,0,0-.27-.32l-.14-.1-.13-.08L46,38.22l-.08,0-.07,0Z" fill="#010101"/><path d="M44.33,39.25a1.19,1.19,0,1,1,.87,1.44A1.18,1.18,0,0,1,44.33,39.25Z" fill="#010101"/><path d="M46.17,39.12l0,.05,0,.06,0,.08a.87.87,0,0,1,0,.25.75.75,0,0,1-.06.32.68.68,0,0,1-.25.31l-.09.06-.09,0-.22.05a.89.89,0,0,1-.23,0,.81.81,0,0,1-.22-.07.89.89,0,0,1-.36-.31.88.88,0,0,1-.1-.22,1,1,0,0,1,0-.24.89.89,0,0,1,.15-.45.88.88,0,0,1,.33-.28.79.79,0,0,1,.39-.07A.86.86,0,0,1,46,39l.06.06,0,.06Zm0,0,0,0,0,0L46,39a.54.54,0,0,0-.21-.13.7.7,0,0,0-.3-.06.73.73,0,0,0-.35.07.77.77,0,0,0-.31.26,1.14,1.14,0,0,0-.1.19.78.78,0,0,0,0,.21.82.82,0,0,0,.1.44.79.79,0,0,0,.14.18l.19.13a.81.81,0,0,0,.43.06l.2-.07.09,0,.08-.06a.75.75,0,0,0,.23-.28.93.93,0,0,0,.09-.3.6.6,0,0,0,0-.24.94.94,0,0,0,0-.09l0-.06Z" fill="#010101"/><path d="M46,39.22l0,0s0,0,0,0a.64.64,0,0,1,0,.07.49.49,0,0,1,0,.19.55.55,0,0,1,0,.24.69.69,0,0,1-.18.24l-.07,0-.08,0a.47.47,0,0,1-.17,0,.68.68,0,0,1-.34-.06.67.67,0,0,1-.27-.23.89.89,0,0,1-.08-.17.64.64,0,0,1,.09-.52.58.58,0,0,1,.25-.22.56.56,0,0,1,.3-.05.68.68,0,0,1,.24.07.49.49,0,0,1,.15.12l.05,0,0,0Zm0,0,0,0a.22.22,0,0,0-.08-.09.56.56,0,0,0-.38-.14.62.62,0,0,0-.26.06.59.59,0,0,0-.34.49.67.67,0,0,0,.08.33.41.41,0,0,0,.1.13.45.45,0,0,0,.14.1.54.54,0,0,0,.33,0,.44.44,0,0,0,.15,0l.07,0,0,0a.84.84,0,0,0,.18-.21.56.56,0,0,0,.05-.41.43.43,0,0,0,0-.11Z" fill="#010101"/><path d="M46.48,39.55a1.19,1.19,0,0,1-1.44.87,1.14,1.14,0,0,1-.65-.41,1.21,1.21,0,0,0,.81.68,1.19,1.19,0,0,0,1.21-1.9A1.1,1.1,0,0,1,46.48,39.55Z" fill="#010101" opacity="0.5"/><path d="M45.2,40.69h-.06L45,40.62l-.12,0-.13-.08a1.12,1.12,0,0,1-.26-.27,1.18,1.18,0,0,1-.19-.39,1.38,1.38,0,0,1,0-.5.79.79,0,0,1,0-.13.56.56,0,0,1,0-.12,1.15,1.15,0,0,1,.12-.25,1.32,1.32,0,0,1,.4-.38,1.1,1.1,0,0,1,.52-.17,1.18,1.18,0,0,1,.53.06,1.39,1.39,0,0,1,.43.25,1.27,1.27,0,0,1,.26.36,1,1,0,0,1,.11.35.76.76,0,0,1,0,.15v.13a1.64,1.64,0,0,1,0,.18l0,.06v-.07a.81.81,0,0,0,0-.17.62.62,0,0,0,0-.13s0-.09,0-.14a1.25,1.25,0,0,0-.14-.32,1.08,1.08,0,0,0-.26-.31,1,1,0,0,0-.39-.21,1.24,1.24,0,0,0-.47,0,1.1,1.1,0,0,0-.46.16,1.06,1.06,0,0,0-.36.34l-.06.1a1.17,1.17,0,0,0-.05.11.36.36,0,0,0,0,.11l0,.11a1.35,1.35,0,0,0,0,.45,1.44,1.44,0,0,0,.15.38,1.47,1.47,0,0,0,.23.26l.11.09.11.07.09,0,.07,0Z" fill="#010101"/><path d="M43.71,40.41s.07-.11.2-.17.24-.08.26-.05-.08.11-.21.17S43.72,40.44,43.71,40.41Z" fill="#010101" opacity="0.5" style="mix-blend-mode:overlay"/></g><path d="M43.57,40.16,45,39.55l-.18-.42-1.4.62a.23.23,0,0,0-.11.3h0A.22.22,0,0,0,43.57,40.16Z" fill="#faf0df"/><circle cx="45.17" cy="39.22" r="1.41" fill="#f07f66"/><g opacity="0.7" style="mix-blend-mode:overlay"><path d="M45.51,37.84l.07,0,.08,0,.12,0,.13.07.15.1a1.26,1.26,0,0,1,.28.32,1.3,1.3,0,0,1,.21.46,1.48,1.48,0,0,1,0,.56,1.46,1.46,0,0,1-.66,1,1.43,1.43,0,0,1-.59.2,1.4,1.4,0,0,1-1.08-.34,1.27,1.27,0,0,1-.31-.4,1.09,1.09,0,0,1-.15-.4c0-.06,0-.12,0-.17s0-.11,0-.15l0-.12s0-.07,0-.09l0-.08h0V39s0,0,0,.09v.12a.66.66,0,0,1,0,.15,1.22,1.22,0,0,0,0,.17,1.35,1.35,0,0,0,.16.38,1.18,1.18,0,0,0,.31.37,1.31,1.31,0,0,0,.46.26,1.36,1.36,0,0,0,1.13-.13,1.27,1.27,0,0,0,.42-.41,1.25,1.25,0,0,0,.08-.12l.06-.13a.57.57,0,0,0,0-.14.61.61,0,0,0,0-.13,1.22,1.22,0,0,0,0-.54,1.29,1.29,0,0,0-.18-.45,2.14,2.14,0,0,0-.27-.31L45.9,38,45.77,38l-.11-.05-.08,0-.07,0Z" fill="#fff"/></g><path d="M44,38.94a1.19,1.19,0,1,1,.88,1.44A1.2,1.2,0,0,1,44,38.94Z" fill="#5c2d19"/><g opacity="0.2" style="mix-blend-mode:overlay"><path d="M45.86,38.8l0,.05s0,0,0,.06A.36.36,0,0,1,46,39a.87.87,0,0,1,0,.25.82.82,0,0,1-.31.63l-.09.06-.1,0a.54.54,0,0,1-.21.05.59.59,0,0,1-.23,0,.68.68,0,0,1-.23-.07.8.8,0,0,1-.35-.31.81.81,0,0,1-.1-.21,1,1,0,0,1,0-.24.77.77,0,0,1,.14-.45.76.76,0,0,1,.34-.28.77.77,0,0,1,.39-.07.8.8,0,0,1,.51.24l.07.07,0,.06Zm0,0,0-.05,0,0-.07-.07a.86.86,0,0,0-.2-.13,1,1,0,0,0-.31-.06.93.93,0,0,0-.35.08.89.89,0,0,0-.3.25.58.58,0,0,0-.1.19.79.79,0,0,0-.05.22,1.64,1.64,0,0,0,0,.22,2,2,0,0,0,.08.22,1.19,1.19,0,0,0,.15.18.62.62,0,0,0,.19.12.64.64,0,0,0,.43.06.66.66,0,0,0,.2-.06l.09,0,.08-.05a.86.86,0,0,0,.23-.28.75.75,0,0,0,.08-.3.65.65,0,0,0,0-.25.19.19,0,0,0,0-.08.16.16,0,0,0,0-.06Z" fill="url(#linear-gradient)"/></g><g opacity="0.3" style="mix-blend-mode:overlay"><path d="M45.69,38.9l0,0a.08.08,0,0,1,0,.05l0,.06a1,1,0,0,1,0,.19.77.77,0,0,1,0,.25.59.59,0,0,1-.19.23l-.07.05-.07,0-.17,0a.68.68,0,0,1-.34-.06.65.65,0,0,1-.28-.24.46.46,0,0,1-.07-.16.58.58,0,0,1,0-.19.8.8,0,0,1,.11-.34.58.58,0,0,1,.26-.21.54.54,0,0,1,.3-.06.62.62,0,0,1,.24.08.65.65,0,0,1,.15.11l0,.06,0,0Zm0,0,0,0-.08-.09a.61.61,0,0,0-.38-.13.58.58,0,0,0-.26.06.53.53,0,0,0-.23.19.58.58,0,0,0,0,.62.49.49,0,0,0,.11.14.71.71,0,0,0,.14.1.53.53,0,0,0,.33,0l.14,0,.07,0,.06,0a.56.56,0,0,0,.17-.21.61.61,0,0,0,.06-.4.38.38,0,0,0,0-.11Z" fill="url(#linear-gradient-2)"/></g><path d="M46.17,39.24a1.19,1.19,0,0,1-1.44.87,1.14,1.14,0,0,1-.65-.41,1.17,1.17,0,0,0,.81.68,1.2,1.2,0,0,0,1.44-.88,1.21,1.21,0,0,0-.23-1A1.26,1.26,0,0,1,46.17,39.24Z" fill="#2f150d" opacity="0.5"/><g opacity="0.7" style="mix-blend-mode:overlay"><path d="M44.89,40.38l-.06,0a.55.55,0,0,1-.18,0l-.11-.06a.46.46,0,0,1-.13-.08,1.07,1.07,0,0,1-.26-.26,1.23,1.23,0,0,1-.22-.89.61.61,0,0,1,0-.13.53.53,0,0,1,0-.12,2,2,0,0,1,.13-.25,1.18,1.18,0,0,1,.39-.38A1.24,1.24,0,0,1,45,38a1.28,1.28,0,0,1,.52.06,1.15,1.15,0,0,1,.43.26,1.22,1.22,0,0,1,.27.35,1.28,1.28,0,0,1,.11.35.92.92,0,0,1,0,.16v.13a.61.61,0,0,1,0,.17v0a1.36,1.36,0,0,1,0-.18.45.45,0,0,1,0-.12.8.8,0,0,0,0-.15,1.2,1.2,0,0,0-.13-.32,1.22,1.22,0,0,0-.26-.3,1.16,1.16,0,0,0-.39-.22,1.3,1.3,0,0,0-.48,0,1.16,1.16,0,0,0-.81.49l-.06.11a.47.47,0,0,0,0,.1.42.42,0,0,0,0,.12.35.35,0,0,0,0,.11,1.13,1.13,0,0,0,0,.45,1.11,1.11,0,0,0,.15.37,1.23,1.23,0,0,0,.22.27l.12.09.11.06.09,0,.07,0Z" fill="#fff"/></g><path d="M43.39,40.09s.08-.11.2-.16.25-.08.26,0-.07.1-.2.16S43.41,40.12,43.39,40.09Z" fill="#fff" opacity="0.5" style="mix-blend-mode:overlay"/><g opacity="0.4" style="mix-blend-mode:multiply"><polygon points="43.84 45.29 43.87 45.33 43.85 45.28 43.84 45.29" fill="#9f5c32"/><polygon points="43.16 44.7 43.14 44.71 43.16 44.72 43.16 44.7" fill="#9f5c32"/><path d="M42.71,47.24s0,0-.05,0,0,0,0,0,0,0,0,0h0s0,0,0,.05.07,0,.1,0,.06.06.07,0,0,0,0,0h0v0a.1.1,0,0,0,0,.07h0l0,0a.15.15,0,0,0,0-.14.1.1,0,0,0-.12-.07S42.74,47.24,42.71,47.24Z" fill="#9f5c32"/><path d="M43.25,45.39l.07.09A.31.31,0,0,0,43.25,45.39Z" fill="#9f5c32"/><path d="M43.06,44.87l-.09.06a.16.16,0,0,0,0,.07.25.25,0,0,0,0,.17l.05.06.08.09a.18.18,0,0,0,.07,0h.14a1.19,1.19,0,0,0-.2-.19L43,45.12a.19.19,0,0,1,0-.07.08.08,0,0,0,0,.06l.11,0a.58.58,0,0,1,.1.12.08.08,0,0,0,0-.09s0,0-.05-.07h-.06s0,0,0,0v0s0,0-.06,0a.26.26,0,0,1,.07-.11s0,0,0,0,0,0-.06-.06A.16.16,0,0,1,43.06,44.87Z" fill="#9f5c32"/><path d="M42.25,44.32a.26.26,0,0,0-.16.11,1.67,1.67,0,0,1-.12.16l0,0s0,.05,0,.05h.07c.12,0,0,.11,0,.15l-.13.12-.18.19,0,.07,0,.06-.09.11,0,.07h0l0,0h0l0,0h0v.18l0,.21,0,.2.08.2.06.2.14.16.15.15.15.06.13.08.07,0,.07,0,.07,0h.06s0,0,.06.07h0l.05-.05s0,0,.06,0v0h0l0,0h0v0a.83.83,0,0,0,.07.13.11.11,0,0,0,.11,0l.05,0s.09.06.15.06.06,0,.07-.07,0-.15.1-.19l.1,0a.29.29,0,0,0,.08-.13.21.21,0,0,1,0-.06l0,0v0h0s.08,0,.1,0,0-.06,0-.09v0h0l0-.06,0-.06,0,0,0-.06v0l.06-.21,0-.21,0-.18,0-.15-.1-.19h0v0l0,.2,0,.3v.21l-.07.19,0,0v.05l0,0-.06,0-.06.1-.08.09-.2.17-.1.06a.05.05,0,0,1,0,0,.07.07,0,0,1-.05.08.18.18,0,0,1-.1,0l0,0s0-.09,0-.14-.06,0-.07.07a.14.14,0,0,0,0,.11v0s0,0-.06,0a.06.06,0,0,0-.06,0l0,0h0l-.28,0h-.22l-.05-.07-.15,0-.1-.1-.18-.23-.12-.26L41.71,46l0-.27,0-.07,0-.07v-.06l.06-.05.05-.12v-.06l0,0L42,45l.2-.13.16-.12.19,0,.3-.07.12,0,.08,0,0,0,0,0-.09,0H42.9l-.07,0H42.7l0,0-.09,0-.21.08-.11,0s0-.05,0-.06h0v-.05a.08.08,0,0,1-.07,0h0v0a.32.32,0,0,1,.08-.14l.11,0h0s0,0,0,0l0,0,0,0Zm.67,2.7Z" fill="#9f5c32"/></g><g opacity="0.4" style="mix-blend-mode:multiply"><polygon points="51.96 61.34 51.91 61.33 51.96 61.35 51.96 61.34" fill="#9f5c32"/><polygon points="52.86 61.27 52.87 61.26 52.85 61.26 52.86 61.27" fill="#9f5c32"/><path d="M51.38,59.16s0,0,0,0v0s0,0,0-.06l0,0a0,0,0,0,0,0-.05s0,0-.08.06-.08,0,0,.06,0,0,0,0h0s0,0,0,0l-.07,0h0s0,0,0,0a.14.14,0,0,0,.07.13.1.1,0,0,0,.14,0S51.36,59.18,51.38,59.16Z" fill="#9f5c32"/><path d="M52.31,60.85l-.11,0A.2.2,0,0,0,52.31,60.85Z" fill="#9f5c32"/><path d="M52.81,61.08s0-.07,0-.1a.19.19,0,0,0,0-.08.22.22,0,0,0-.1-.14h-.29l-.08.08h.35a.09.09,0,0,1,.07,0,.11.11,0,0,0-.08,0l-.11,0a.76.76,0,0,1-.15,0,.08.08,0,0,0,0,.08.08.08,0,0,0,.09,0s0,0,.05,0,0,0,0,0l0,0s0,0,0,0a.16.16,0,0,1,0,.12s0,0,0,.07.06,0,.08,0A.24.24,0,0,1,52.81,61.08Z" fill="#9f5c32"/><path d="M53.78,60.9a.32.32,0,0,0,0-.19,1.38,1.38,0,0,1,0-.2.06.06,0,0,0,0,0s-.05,0-.07,0l-.05.06c-.09.06,0-.12-.12-.1V60l0-.06,0-.07v-.15l0-.06h0l0,0,0,0-.09-.12-.14-.15L53,59.19l-.19-.08-.19-.1-.21,0H52.2l-.15.06-.15,0-.07,0-.07,0-.08,0h0l0,0s-.06,0-.1,0h0s0,0,0,.07,0,.05-.05,0h0s0,0,0,0,0,0,0,0h0a.37.37,0,0,0-.15,0,.11.11,0,0,0-.1.05s0,0,0,0-.11,0-.14.07,0,.07,0,.11.08.12.07.19,0,.07,0,.1a.23.23,0,0,0,0,.16s0,0,0,.06l0,.07h0s-.06.06-.06.09,0,.05.08.06h0v.08l0,.06,0,.06v.07l0,0,.1.19.13.18.15.1.12.09.21,0h0l-.17-.12L51.5,61l-.14-.14-.09-.18,0-.06,0,0v0l0-.07,0-.11v-.12l0-.26,0-.12h0a.05.05,0,0,1,0-.08.16.16,0,0,1,.07-.07h0s.06.07.1.09a.08.08,0,0,0,0-.1.2.2,0,0,0-.08-.08h0s0,0,0-.06,0,0,0,0h0l0,0,.22-.17,0,0,0,0,.06-.05.06,0h.08l.14-.07h.15l.28,0,.27.09.24.14.17.21.07,0,0,.06,0,.05v.08l.05.12,0,.05V60l0,.23-.05.23,0,.19-.1.17-.17.27-.1.06-.08,0,0,.06h.05l.08,0,.08-.09.07,0,.05,0,0,0h.05l0-.08.08-.21.06-.09s0,0,0,0l0,0,0,0,.06-.05h0l0,0a.42.42,0,0,1,0,.15.61.61,0,0,1-.05.12h.09Zm-2.39-1.43Z" fill="#9f5c32"/></g><g opacity="0.2"><circle cx="43.17" cy="57.28" r="2.68" fill="#010101"/><path d="M43.45,54.62a6,6,0,0,1,.9,2.62A6.48,6.48,0,0,1,44,59.82a2.57,2.57,0,0,0,1.05-.65,2.68,2.68,0,0,0-1.61-4.55Z" fill="#010101"/><path d="M45.83,59.32a.85.85,0,0,1-.62.63.44.44,0,0,1-.32-.1L43.2,58.16l.85-.85L45.73,59A.38.38,0,0,1,45.83,59.32Z" fill="#010101"/><path d="M45.5,59a.83.83,0,0,1-.62.62.36.36,0,0,1-.32-.1c-.57-.56-1.13-1.12-1.69-1.69l.84-.84,1.69,1.69A.36.36,0,0,1,45.5,59Z" fill="#010101"/><path d="M44.53,55.92a1.92,1.92,0,0,1-2.72,2.72c-.75-.75-1.29-3.28-.92-3.64S43.78,55.17,44.53,55.92Z" fill="#010101"/><path d="M44.28,58.39a1.56,1.56,0,0,1-2.22,0,5.2,5.2,0,0,1-.92-3.15,4.91,4.91,0,0,1,3.14.93A1.56,1.56,0,0,1,44.28,58.39Z" fill="#010101"/><circle cx="43.17" cy="57.28" r="1.92" fill="#010101"/><path d="M44.46,55.85a.63.63,0,0,0-.12-.1l-.11-.09-.14-.08-.08,0a5.13,5.13,0,0,0-1-.41,5.35,5.35,0,0,0-.79-.2,3.8,3.8,0,0,0-.91-.09,1,1,0,0,0-.24,0,.55.55,0,0,0-.22.1.46.46,0,0,0-.1.24,1.9,1.9,0,0,0,0,.25,4.88,4.88,0,0,0,.12,1,7.71,7.71,0,0,0,.27,1,4.24,4.24,0,0,0,.28.65,1.17,1.17,0,0,0,0,.11l.08.14.08.11,0,0,.12.13,0,0h0a2.33,2.33,0,0,0,.41.31,2.15,2.15,0,0,0,.78.25,1.91,1.91,0,0,0,.69-.07,1.72,1.72,0,0,0,.49-.21,1.11,1.11,0,0,0,.16-.11.35.35,0,0,0,.11-.09l.09-.08v0l-.09.08a1.91,1.91,0,0,1-.29.18,1.42,1.42,0,0,1-.48.18,1.79,1.79,0,0,1-.66,0,1.92,1.92,0,0,1-.73-.25,1.88,1.88,0,0,1-.59-.6,3.7,3.7,0,0,1-.29-.6,2.28,2.28,0,0,1,0-.27,2.59,2.59,0,0,1,.05-.47,2.11,2.11,0,0,1,.19-.47,2,2,0,0,1,.31-.41c.06-.05.14-.13.2-.17l.21-.14a1.69,1.69,0,0,1,.47-.18,2,2,0,0,1,.47-.06,1.88,1.88,0,0,1,.43.05,2.38,2.38,0,0,1,.35.12l.15.06.11.07.16.11.05,0h0Zm-1.69-.46a2,2,0,0,0-.52.18,2,2,0,0,0-.79.79,2,2,0,0,0-.18.52,1.86,1.86,0,0,0,0,.33,7.27,7.27,0,0,1-.2-.77,4.76,4.76,0,0,1-.12-1,1.55,1.55,0,0,1,0-.22l0-.1s0,0,0,0h0a.67.67,0,0,1,.37-.1,5.14,5.14,0,0,1,.88.06,7.5,7.5,0,0,1,.78.18l.39.12h-.12A1.79,1.79,0,0,0,42.77,55.39Z" fill="#010101" opacity="0.7" style="mix-blend-mode:overlay"/><circle cx="43.17" cy="57.28" r="1.46" fill="#010101"/><path d="M42.25,58.18h0a1.29,1.29,0,1,0,1.82-1.82h0Z" fill="#010101"/><rect x="44.38" y="58.64" width="0.85" height="0.54" rx="0.27" transform="translate(-28.54 48.93) rotate(-45)" fill="#010101"/><circle cx="44.69" cy="59.02" r="0.11" fill="#010101"/></g><circle cx="42.86" cy="56.97" r="2.68" fill="#de4b34"/><path d="M43.14,54.31a6,6,0,0,1,.9,2.62,6.64,6.64,0,0,1-.34,2.57,2.66,2.66,0,0,0,1-4.42A2.62,2.62,0,0,0,43.14,54.31Z" fill="#c3432e"/><path d="M45.52,59a.83.83,0,0,1-.62.62.36.36,0,0,1-.32-.1l-1.69-1.69.84-.84,1.69,1.69A.36.36,0,0,1,45.52,59Z" fill="#de4b34"/><path d="M45.19,58.67a.87.87,0,0,1-.63.63.46.46,0,0,1-.32-.1l-1.69-1.69.85-.85,1.69,1.69A.46.46,0,0,1,45.19,58.67Z" fill="#ef7765"/><path d="M44.22,55.61a1.92,1.92,0,0,1-2.72,2.72c-.75-.75-1.29-3.28-.93-3.65S43.46,54.86,44.22,55.61Z" fill="#ef7765"/><path d="M44,58.08a1.59,1.59,0,0,1-2.23,0,5.19,5.19,0,0,1-.91-3.16,5,5,0,0,1,3.14.93A1.59,1.59,0,0,1,44,58.08Z" fill="#8b2818"/><circle cx="42.86" cy="56.97" r="1.92" fill="#ef7765"/><path d="M44.15,55.53l-.13-.1-.11-.08-.14-.08-.07,0a5.49,5.49,0,0,0-1-.4,7.52,7.52,0,0,0-.79-.21,4.46,4.46,0,0,0-.91-.09l-.24,0a.4.4,0,0,0-.23.1.52.52,0,0,0-.1.23,2.29,2.29,0,0,0,0,.25,5.78,5.78,0,0,0,.11,1,6.7,6.7,0,0,0,.28,1c.08.22.17.44.27.65l.06.11.08.13.08.12,0,0,.12.14,0,0h0a1.53,1.53,0,0,0,.41.31,1.79,1.79,0,0,0,.78.25,1.65,1.65,0,0,0,.68-.06,1.89,1.89,0,0,0,.49-.21l.17-.11.11-.1.09-.08h0l-.1.08a1.72,1.72,0,0,1-.28.18,2.11,2.11,0,0,1-.49.18,2,2,0,0,1-.66,0,1.75,1.75,0,0,1-.72-.26,1.7,1.7,0,0,1-.59-.6,3.59,3.59,0,0,1-.29-.59.82.82,0,0,1,0-.27,1.93,1.93,0,0,1,0-.47,2.07,2.07,0,0,1,.18-.47,2.15,2.15,0,0,1,.32-.41,1.16,1.16,0,0,1,.2-.18L42,55.4a2.07,2.07,0,0,1,.47-.18,1.93,1.93,0,0,1,.47,0,1.49,1.49,0,0,1,.43,0,2.42,2.42,0,0,1,.35.11l.14.07.12.07.15.1.06,0h0Zm-1.69-.46a2.5,2.5,0,0,0-.52.19,2.19,2.19,0,0,0-.46.34,2.09,2.09,0,0,0-.33.45,2,2,0,0,0-.19.52c0,.11,0,.22,0,.32-.07-.25-.14-.51-.2-.77a5.36,5.36,0,0,1-.12-1,1.64,1.64,0,0,1,0-.23s0-.06,0-.09,0,0,0,0h0a.64.64,0,0,1,.36-.1,3.66,3.66,0,0,1,.88.06,5.74,5.74,0,0,1,.79.18l.39.12H43A1.75,1.75,0,0,0,42.46,55.07Z" fill="#fff" opacity="0.7" style="mix-blend-mode:overlay"/><circle cx="42.86" cy="56.97" r="1.46" fill="#fff"/><path d="M41.94,57.87h0a1.26,1.26,0,0,0,1.81,0,1.28,1.28,0,0,0,0-1.81h0Z" fill="#e9e8e8"/><rect x="44.06" y="58.33" width="0.85" height="0.54" rx="0.27" transform="translate(-28.41 48.62) rotate(-45)" fill="#fff"/><circle cx="44.38" cy="58.71" r="0.11" fill="#5db138"/><path d="M40.59,53.77a.8.8,0,0,1,0-.21.92.92,0,0,1,.18-.32s.27-.16.28-.11a5.68,5.68,0,0,1,0-1.54,2,2,0,0,1,.74-1.31,1.11,1.11,0,0,1,1.38,0c-.29-.3.17-1.22.37-1.46A1.09,1.09,0,0,1,45,48.55c1.35-2.43,4.33-.15,3.94,2.06a2.23,2.23,0,0,1-.56,1.2,1.21,1.21,0,0,1-1.23.32.73.73,0,0,1,.64.8c-.07.72-.86,1-1.5,1A1.91,1.91,0,0,1,45,53.35a.92.92,0,0,1-.76.27.91.91,0,0,1-.67-.44.89.89,0,0,1,0,.73.91.91,0,0,1-.55.5c-.2.06-.41,0-.61.08a1.49,1.49,0,0,0-1.23,1.33,3.12,3.12,0,0,1-.58-1.53A1.81,1.81,0,0,1,40.59,53.77Z" fill="#fff" opacity="0.2"/><g opacity="0.2"><circle cx="49.06" cy="44.09" r="3.06" transform="translate(-4.51 82.57) rotate(-77.63)" fill="#010101"/><path d="M49.11,47.15H49a2.09,2.09,0,0,1-.45,0L48.19,47a3.17,3.17,0,0,1-.36-.13,2.8,2.8,0,0,1-.77-.5,2.77,2.77,0,0,1-.68-.85A3,3,0,0,1,46,44.39c0-.11,0-.22,0-.33a1.82,1.82,0,0,1,0-.32,1.28,1.28,0,0,1,.06-.33,1.92,1.92,0,0,1,.09-.32,3.06,3.06,0,0,1,1.86-1.86,3.2,3.2,0,0,1,1.29-.17,3.14,3.14,0,0,1,1.17.35,2.77,2.77,0,0,1,.85.68,2.8,2.8,0,0,1,.5.77,3.17,3.17,0,0,1,.13.36c0,.11,0,.22.07.31a2.09,2.09,0,0,1,0,.45v.16l0-.16a3.65,3.65,0,0,0-.06-.44c0-.09-.06-.2-.09-.31s-.08-.22-.15-.34a2.88,2.88,0,0,0-.5-.73,3.19,3.19,0,0,0-.84-.63,3,3,0,0,0-1.12-.3,2.94,2.94,0,0,0-2.29.85,2.9,2.9,0,0,0-.69,1.07c0,.1-.06.2-.09.3s0,.21-.06.31,0,.21,0,.31,0,.2,0,.3a2.91,2.91,0,0,0,.31,1.12,3.19,3.19,0,0,0,.63.84,2.88,2.88,0,0,0,.73.5,2.52,2.52,0,0,0,.34.15l.31.09a3.65,3.65,0,0,0,.44.06Z" fill="#010101"/><circle cx="49.06" cy="44.09" r="1.98" fill="#010101"/><circle cx="49.06" cy="44.09" r="1.74" fill="#010101"/></g><circle cx="48.75" cy="43.78" r="3.06" transform="translate(-4.46 82.01) rotate(-77.63)" fill="#5883c3"/><g opacity="0.5" style="mix-blend-mode:overlay"><path d="M48.79,46.83h-.15a2.93,2.93,0,0,1-.45,0l-.32-.08c-.11,0-.23-.07-.36-.13a2.9,2.9,0,0,1-.77-.49,3,3,0,0,1-.67-.85,2.81,2.81,0,0,1-.35-1.17c0-.11,0-.21,0-.32s0-.21,0-.32a3.23,3.23,0,0,1,.06-.33,1.7,1.7,0,0,1,.1-.32,3.21,3.21,0,0,1,.71-1.15,3.12,3.12,0,0,1,1.15-.71A3,3,0,0,1,49,40.75a2.81,2.81,0,0,1,1.17.35,3,3,0,0,1,.85.67,2.8,2.8,0,0,1,.49.78,3,3,0,0,1,.13.35c0,.12.06.22.08.32a2.93,2.93,0,0,1,0,.45v0a2.49,2.49,0,0,0-.07-.45,2.43,2.43,0,0,0-.09-.3,3.19,3.19,0,0,0-.14-.35,3.23,3.23,0,0,0-.51-.73,3,3,0,0,0-.83-.62,2.95,2.95,0,0,0-4.1,1.62,1.49,1.49,0,0,0-.09.3c0,.1,0,.2-.06.3a3.16,3.16,0,0,0,0,.32c0,.09,0,.2,0,.3a3,3,0,0,0,.31,1.12,2.78,2.78,0,0,0,.62.83,2.94,2.94,0,0,0,.73.51,3.35,3.35,0,0,0,.35.15l.3.08a2.49,2.49,0,0,0,.45.07Z" fill="#fff"/></g><circle cx="48.75" cy="43.78" r="1.98" fill="#fff"/><circle cx="48.75" cy="43.78" r="1.74" fill="#f5f5f5"/><g opacity="0.2"><path d="M48.29,42.43a3.43,3.43,0,0,1,.21.8,3.49,3.49,0,0,1-.82.06l.41-.36Z" fill="#010101"/><path d="M49.38,43l.1.16,1.35.79a1.89,1.89,0,0,0,.16-.51A1.45,1.45,0,0,0,49.38,43Z" fill="#010101"/><path d="M48.36,43.13a2.37,2.37,0,0,0,3.08,2.19,3,3,0,0,0-1-1.86A2.91,2.91,0,0,0,48.36,43.13Z" fill="#010101"/><path d="M48.51,43.26a.86.86,0,0,1,.13.23.32.32,0,0,0,.21.17c.06,0,.13,0,.19,0s.07.09.11.13a.25.25,0,0,0,.21.1,2.11,2.11,0,0,1,.25,0,.27.27,0,0,1,.2.12.36.36,0,0,0,0,.11.29.29,0,0,0,.13.08.83.83,0,0,1,.3.14.44.44,0,0,1,.09.29,1.6,1.6,0,0,0,.23,0,.34.34,0,0,0,.19-.14.28.28,0,0,0,0-.22.49.49,0,0,0-.11-.2,1.79,1.79,0,0,0-.94-.54l-1.1-.37a.48.48,0,0,0-.17,0l-.17,0C48.39,43.19,48.46,43.2,48.51,43.26Z" fill="#010101"/><path d="M50.44,43.46a2.91,2.91,0,0,0-2.08-.33v0h0a.47.47,0,0,1,.31.09l.1.1s.06.11.11.13.18-.06.26,0,.07.1.11.15a.32.32,0,0,0,.3.1.49.49,0,0,1,.32.07c.1.07.12.21.22.27s.21,0,.31,0,.32.21.21.36a.74.74,0,0,1-.12.13.69.69,0,0,0-.2.41.5.5,0,0,0,0,.38,3.55,3.55,0,0,0,1.1,0A3,3,0,0,0,50.44,43.46Z" fill="#010101"/><path d="M51.07,44.36h-.19l-.08,0,0,0,0,0,0,0,0,0-.08.07-.06.08a.41.41,0,0,0,0,.09l-.05.08a.36.36,0,0,1,0,.09s0,.05,0,.07a.14.14,0,0,0,0,.06l0,0a.12.12,0,0,1,0,0,.15.15,0,0,1,0-.07v-.08a.36.36,0,0,1,0-.1v-.05a.14.14,0,0,1,0-.06l.05-.11a.61.61,0,0,1,.07-.1l.1-.09.05,0,.06,0,.06,0h.16l.08,0,0,0h0Z" fill="#010101"/><path d="M51,44.93a.16.16,0,1,1-.26-.19.16.16,0,0,1,.22,0A.16.16,0,0,1,51,44.93Z" fill="#010101"/><path d="M51,44.93l0,0a.23.23,0,0,1-.11,0s-.05,0-.09,0h0a.08.08,0,0,1,0,0,.16.16,0,0,1-.05-.11.2.2,0,0,1,0-.13l0-.05.07,0a.25.25,0,0,1,.12,0,.13.13,0,0,1,.08.06.2.2,0,0,1,0,.08.2.2,0,0,1,0,.12A.11.11,0,0,1,51,44.93Zm0,0a.06.06,0,0,0,0,0,.13.13,0,0,0-.06-.15h-.06l-.06,0,0,0v0l0,0a.06.06,0,0,0,0,.06,0,0,0,0,0,0,0v0h0l.05,0A.13.13,0,0,0,51,45Z" fill="#010101"/><path d="M49.68,45.1a3,3,0,0,0,.48,0c.09,0,.09.09,0,.17a.65.65,0,0,1-.74.05C49.56,45.3,49.69,45.18,49.68,45.1Z" fill="#010101"/><path d="M48.86,43.25s0,0,0,0a0,0,0,0,1,0-.06,0,0,0,0,1,.05,0A0,0,0,0,1,48.86,43.25Z" fill="#010101"/><path d="M49,43.36s0,0-.06,0a0,0,0,1,1,0-.07S49,43.34,49,43.36Z" fill="#010101"/><path d="M49.12,43.31h0a0,0,0,0,1,0,0h0S49.13,43.31,49.12,43.31Z" fill="#010101"/><path d="M49.31,43.38s0,0-.05,0a0,0,0,0,1,0-.06,0,0,0,0,1,0,0S49.32,43.36,49.31,43.38Z" fill="#010101"/><path d="M49.33,43.51s0,0,0,0,0,0,0,0h0A0,0,0,0,1,49.33,43.51Z" fill="#010101"/><path d="M49.52,43.54a0,0,0,1,1,0-.06A0,0,0,0,1,49.52,43.54Z" fill="#010101"/><path d="M49.63,43.63a0,0,0,0,1,0,0,0,0,0,0,1,0,0s0,0,0,0S49.64,43.62,49.63,43.63Z" fill="#010101"/><path d="M49.82,43.6a.08.08,0,0,1-.11,0,.07.07,0,0,1,0-.11.08.08,0,0,1,.11,0A.09.09,0,0,1,49.82,43.6Z" fill="#010101"/><path d="M49.93,43.71h0s0,0,0,0h0S49.94,43.7,49.93,43.71Z" fill="#010101"/><path d="M50.12,43.71a.06.06,0,0,1-.08,0,.06.06,0,0,1,0-.08.05.05,0,0,1,.08,0A0,0,0,0,1,50.12,43.71Z" fill="#010101"/><path d="M50.19,43.93a.05.05,0,0,1-.08,0,.06.06,0,0,1,0-.08.06.06,0,0,1,.08,0A.06.06,0,0,1,50.19,43.93Z" fill="#010101"/><path d="M50.43,43.94a.05.05,0,0,1-.08,0,.05.05,0,0,1,0-.08.06.06,0,0,1,.09,0A.06.06,0,0,1,50.43,43.94Z" fill="#010101"/><path d="M50.63,44h0a.06.06,0,0,1,0,0h0S50.64,44,50.63,44Z" fill="#010101"/><path d="M50.81,44.1a.06.06,0,1,1-.1-.06.05.05,0,0,1,.08,0S50.82,44.08,50.81,44.1Z" fill="#010101"/><path d="M50.78,44.26a0,0,0,0,1-.05,0,0,0,0,0,1,0-.06,0,0,0,0,1,.05,0A0,0,0,0,1,50.78,44.26Z" fill="#010101"/></g><path d="M48,42.12a3.2,3.2,0,0,1,.22.8,3.49,3.49,0,0,1-.82.06l.4-.36Z" fill="#364a5e"/><path d="M49.07,42.68l.1.16,1.35.78a2,2,0,0,0,.15-.51A1.45,1.45,0,0,0,49.07,42.68Z" fill="#364a5e"/><path d="M48.05,42.82A2.35,2.35,0,0,0,51.12,45a2.35,2.35,0,0,0-3.07-2.18Z" fill="#bec4c8"/><path d="M48.2,42.94a1.12,1.12,0,0,1,.13.24.27.27,0,0,0,.2.16c.07,0,.14,0,.2,0s.07.09.1.14a.35.35,0,0,0,.22.1h.24a.29.29,0,0,1,.2.13s0,.08,0,.11a.29.29,0,0,0,.13.08.53.53,0,0,1,.29.14.37.37,0,0,1,.1.28.58.58,0,0,0,.23,0,.29.29,0,0,0,.19-.13.3.3,0,0,0,0-.23.54.54,0,0,0-.1-.2,2,2,0,0,0-.95-.54l-1.1-.37a.94.94,0,0,0-.16,0,.86.86,0,0,0-.17,0A1.08,1.08,0,0,1,48.2,42.94Z" fill="#364a5e"/><path d="M50.13,43.14a2.94,2.94,0,0,0-2.08-.32v0h0a.44.44,0,0,1,.31.09.28.28,0,0,1,.09.1c0,.05.06.1.12.12s.18,0,.26,0,.07.11.11.16a.35.35,0,0,0,.3.1.5.5,0,0,1,.32.06c.09.08.12.22.22.28s.21,0,.31,0,.31.21.21.36a.8.8,0,0,1-.13.13.76.76,0,0,0-.2.4A.57.57,0,0,0,50,45a3.29,3.29,0,0,0,1.09,0A2.94,2.94,0,0,0,50.13,43.14Z" fill="#4d6c8a"/><path d="M50.75,44.05h-.19l-.08,0a.05.05,0,0,1,0,0l0,0,0,0,0,0-.07.07-.06.09-.06.08,0,.09,0,.08,0,.08s0,0,0,.05a.32.32,0,0,1,0,.06.28.28,0,0,0,0-.06v-.06a.27.27,0,0,1,0-.09.28.28,0,0,1,0-.09v-.06a.08.08,0,0,0,0,0l.05-.11.08-.1.09-.09.06,0,.05,0,.06,0h.16l.09,0h0l0,0A.07.07,0,0,1,50.75,44.05Z" fill="#2d3e50"/><path d="M50.66,44.62a.16.16,0,0,1-.22,0,.16.16,0,1,1,.22,0Z" fill="#364a5e"/><path d="M50.66,44.62l0,0a.19.19,0,0,1-.1.05h-.14l0,0a.21.21,0,0,1,0-.11.13.13,0,0,1,0-.13.09.09,0,0,1,0,0l.06,0a.16.16,0,0,1,.12,0,.2.2,0,0,1,.09.06.3.3,0,0,1,0,.08.37.37,0,0,1,0,.12Zm0,0,0,0a.14.14,0,0,0,0-.11l-.05,0h-.07l0,0h0l0,0,0,0v.06s0,0,0,0h0l.06,0a.15.15,0,0,0,.1,0Z" fill="#f1c413"/><path d="M49.37,44.79a3,3,0,0,0,.47,0c.09,0,.09.09,0,.18a.65.65,0,0,1-.74,0C49.24,45,49.38,44.86,49.37,44.79Z" fill="#364a5e"/><path d="M48.55,42.93a0,0,0,0,1-.06,0,0,0,0,0,1,0,0,0,0,0,0,1,.06,0A0,0,0,0,1,48.55,42.93Z" fill="#364a5e"/><path d="M48.7,43s0,0-.05,0,0,0,0,0a0,0,0,0,1,0,0S48.72,43,48.7,43Z" fill="#364a5e"/><path d="M48.81,43h0a0,0,0,0,1,0,0h0S48.82,43,48.81,43Z" fill="#364a5e"/><path d="M49,43.06s0,0-.05,0a0,0,0,0,1,0,0A0,0,0,0,1,49,43S49,43.05,49,43.06Z" fill="#364a5e"/><path d="M49,43.2h0s0,0,0,0,0,0,0,0S49,43.19,49,43.2Z" fill="#364a5e"/><path d="M49.21,43.23a.05.05,0,1,1,0-.07A.06.06,0,0,1,49.21,43.23Z" fill="#364a5e"/><path d="M49.31,43.32h0a.06.06,0,0,1,0,0h0S49.32,43.31,49.31,43.32Z" fill="#364a5e"/><path d="M49.5,43.28a.07.07,0,0,1-.11,0,.08.08,0,0,1,0-.11.09.09,0,0,1,.11,0A.08.08,0,0,1,49.5,43.28Z" fill="#364a5e"/><path d="M49.62,43.39s0,0,0,0a0,0,0,0,1,0,0s0,0,0,0A0,0,0,0,1,49.62,43.39Z" fill="#364a5e"/><path d="M49.81,43.4a.06.06,0,0,1-.08,0,0,0,0,0,1,0-.07s.05,0,.07,0A.05.05,0,0,1,49.81,43.4Z" fill="#364a5e"/><path d="M49.88,43.62a.06.06,0,0,1-.08,0,.06.06,0,0,1,0-.08.06.06,0,0,1,.08,0A.06.06,0,0,1,49.88,43.62Z" fill="#364a5e"/><path d="M50.12,43.63a.07.07,0,0,1-.09,0,.06.06,0,0,1,0-.08.06.06,0,0,1,.08,0A.07.07,0,0,1,50.12,43.63Z" fill="#364a5e"/><path d="M50.32,43.73a0,0,0,0,1,0,0s0,0,0,0,0,0,0,0A0,0,0,0,1,50.32,43.73Z" fill="#364a5e"/><path d="M50.49,43.79a.05.05,0,0,1-.08,0,.06.06,0,0,1,0-.08.06.06,0,0,1,.08,0A.06.06,0,0,1,50.49,43.79Z" fill="#364a5e"/><path d="M50.47,44a.06.06,0,0,1-.06,0,0,0,0,0,1,0-.06,0,0,0,0,1,.06,0S50.48,43.93,50.47,44Z" fill="#364a5e"/><g opacity="0.2"><path d="M47.56,42.94a3.57,3.57,0,0,1,0,.82,3.68,3.68,0,0,1-.81-.09l.46-.28Z" fill="#010101"/><path d="M48.52,43.7l.07.17,1.18,1a2,2,0,0,0,.25-.47A1.47,1.47,0,0,0,48.52,43.7Z" fill="#010101"/><path d="M47.5,43.64a2.35,2.35,0,0,0,2.59,2.73,2.35,2.35,0,0,0-2.59-2.73Z" fill="#010101"/><path d="M47.62,43.79a1.12,1.12,0,0,1,.08.26.31.31,0,0,0,.17.2c.06,0,.14,0,.19,0s0,.1.08.15a.28.28,0,0,0,.19.14,2.1,2.1,0,0,1,.24.06.27.27,0,0,1,.17.16s0,.08,0,.12a.36.36,0,0,0,.11.1.6.6,0,0,1,.27.2.42.42,0,0,1,0,.29.58.58,0,0,0,.23,0,.32.32,0,0,0,.21-.1.33.33,0,0,0,.07-.21.57.57,0,0,0-.07-.22,1.84,1.84,0,0,0-.82-.71l-1-.58a1,1,0,0,0-.15-.07h-.18C47.51,43.7,47.58,43.73,47.62,43.79Z" fill="#010101"/><path d="M49.48,44.36a2.92,2.92,0,0,0-2-.72v0h0a.44.44,0,0,1,.29.14.75.75,0,0,1,.07.12.26.26,0,0,0,.09.14c.08.05.19,0,.26,0s.05.12.07.18a.36.36,0,0,0,.28.15.51.51,0,0,1,.31.13c.07.09.07.23.16.31s.2,0,.3.08.27.27.13.39a.45.45,0,0,1-.14.1.82.82,0,0,0-.28.36.59.59,0,0,0,0,.39,3.38,3.38,0,0,0,1.08.17A3,3,0,0,0,49.48,44.36Z" fill="#010101"/><path d="M49.92,45.36h-.36l-.05,0,0,0-.09.06-.08.07-.07.08-.06.07-.05.08,0,.06,0,.06,0,0v-.05a.2.2,0,0,1,0-.07.25.25,0,0,1,0-.08.36.36,0,0,1,0-.09l0-.05,0,0a.61.61,0,0,1,.07-.1l.09-.09.11-.06.06,0h.28l.08,0s0,0,0,0l0,0Z" fill="#010101"/><path d="M49.72,45.91a.17.17,0,0,1-.23,0,.16.16,0,0,1,0-.23.16.16,0,0,1,.22,0A.17.17,0,0,1,49.72,45.91Z" fill="#010101"/><path d="M49.72,45.91l0,0a.16.16,0,0,1-.11,0l-.09,0,0,0h0l0,0a.16.16,0,0,1,0-.12.16.16,0,0,1,.06-.12l0,0h.07a.16.16,0,0,1,.12,0,.25.25,0,0,1,.07.08.16.16,0,0,1,0,.09.16.16,0,0,1,0,.11Zm0,0,0,0a.09.09,0,0,0,0-.1.1.1,0,0,0,0-.05.09.09,0,0,0-.06,0h-.08l0,0,0,0a.13.13,0,0,0,0,.06v0h0v0a.1.1,0,0,0,0,0,.11.11,0,0,0,.1,0Z" fill="#010101"/><path d="M48.41,45.83a3.33,3.33,0,0,0,.47.11c.09,0,.07.11,0,.17a.62.62,0,0,1-.73-.09C48.25,46,48.41,45.9,48.41,45.83Z" fill="#010101"/><path d="M48,43.85a0,0,0,0,1-.06,0,0,0,0,0,1,0-.06H48A.06.06,0,0,1,48,43.85Z" fill="#010101"/><path d="M48.1,44H48s0,0,0-.06,0,0,.06,0A.06.06,0,0,1,48.1,44Z" fill="#010101"/><path d="M48.21,44h0s0,0,0,0h0A0,0,0,0,1,48.21,44Z" fill="#010101"/><path d="M48.38,44.06s0,0-.05,0a0,0,0,0,1,0-.05h.05A0,0,0,0,1,48.38,44.06Z" fill="#010101"/><path d="M48.38,44.2h0a0,0,0,0,1,0,0,0,0,0,0,1,0,0S48.38,44.19,48.38,44.2Z" fill="#010101"/><path d="M48.56,44.26a0,0,0,0,1-.07,0,0,0,0,0,1,0-.06,0,0,0,0,1,.07,0A.06.06,0,0,1,48.56,44.26Z" fill="#010101"/><path d="M48.64,44.38h0a0,0,0,0,1,0,0,0,0,0,0,1,0,0A0,0,0,0,1,48.64,44.38Z" fill="#010101"/><path d="M48.84,44.38a.09.09,0,0,1-.12,0,.08.08,0,0,1,.12-.11A.09.09,0,0,1,48.84,44.38Z" fill="#010101"/><path d="M48.93,44.51s0,0,0,0a0,0,0,0,1,0,0h0A0,0,0,0,1,48.93,44.51Z" fill="#010101"/><path d="M49.11,44.55a.06.06,0,0,1-.08,0,.05.05,0,0,1,0-.08,0,0,0,0,1,.07,0A.06.06,0,0,1,49.11,44.55Z" fill="#010101"/><path d="M49.14,44.78a.06.06,0,0,1-.08-.09.06.06,0,0,1,.08,0A.08.08,0,0,1,49.14,44.78Z" fill="#010101"/><path d="M49.37,44.83a.06.06,0,0,1-.08,0,.06.06,0,0,1,0-.09.06.06,0,0,1,.08,0A.06.06,0,0,1,49.37,44.83Z" fill="#010101"/><path d="M49.55,45h0a0,0,0,0,1,0,0h0A0,0,0,0,1,49.55,45Z" fill="#010101"/><path d="M49.71,45.06a.05.05,0,0,1-.08,0,.06.06,0,1,1,.08,0Z" fill="#010101"/><path d="M49.66,45.21s0,0-.06,0a0,0,0,1,1,.06-.06A.06.06,0,0,1,49.66,45.21Z" fill="#010101"/></g><path d="M47.24,42.63a3.29,3.29,0,0,1,.06.82,3.45,3.45,0,0,1-.82-.1l.47-.27Z" fill="#364a5e"/><path d="M48.21,43.39l.07.17,1.17,1a1.81,1.81,0,0,0,.25-.47A1.43,1.43,0,0,0,48.21,43.39Z" fill="#364a5e"/><path d="M47.18,43.33a2.36,2.36,0,0,0,2.6,2.73,2.35,2.35,0,0,0-2.6-2.73Z" fill="#bec4c8"/><path d="M47.3,43.48a1.25,1.25,0,0,1,.09.25.27.27,0,0,0,.17.2c.06,0,.14,0,.19,0a.46.46,0,0,1,.07.16.37.37,0,0,0,.2.14,2,2,0,0,1,.23.06.29.29,0,0,1,.18.16s0,.08,0,.11a.21.21,0,0,0,.11.1c.1.06.21.1.26.2a.39.39,0,0,1,0,.3,1,1,0,0,0,.24,0,.27.27,0,0,0,.2-.09.26.26,0,0,0,.07-.22.6.6,0,0,0-.06-.22,1.92,1.92,0,0,0-.83-.71l-1-.57a.33.33,0,0,0-.16-.07,1,1,0,0,0-.17,0C47.2,43.39,47.27,43.41,47.3,43.48Z" fill="#364a5e"/><path d="M49.16,44a2.93,2.93,0,0,0-2-.71v0h0a.48.48,0,0,1,.29.15.41.41,0,0,1,.07.11.26.26,0,0,0,.09.15c.07,0,.18,0,.25,0s.05.11.08.17a.37.37,0,0,0,.28.16.51.51,0,0,1,.3.12c.08.09.07.24.17.31s.2,0,.29.08.27.27.14.4a.78.78,0,0,1-.15.1.75.75,0,0,0-.27.36.53.53,0,0,0,0,.39,3.72,3.72,0,0,0,1.08.17A3,3,0,0,0,49.16,44Z" fill="#4d6c8a"/><path d="M49.6,45.05h-.36l0,0-.05,0-.08.06-.08.07a.46.46,0,0,0-.07.07l-.06.08,0,.07,0,.07s0,0,0,.05l0,0v-.12s0-.05,0-.08l0-.09,0,0a.09.09,0,0,1,0-.05.23.23,0,0,1,.07-.1L49,45a.41.41,0,0,1,.11-.07l.06,0,.06,0h.06s0,0,.06,0h.05l0,0,.08,0,0,0,0,0Z" fill="#2d3e50"/><path d="M49.4,45.59a.16.16,0,0,1-.22,0,.17.17,0,0,1,0-.23.16.16,0,0,1,.23,0A.15.15,0,0,1,49.4,45.59Z" fill="#364a5e"/><path d="M49.4,45.59l0,0a.24.24,0,0,1-.11,0,.16.16,0,0,1-.09,0h0l0,0s0,0,0,0a.27.27,0,0,1,0-.12.24.24,0,0,1,.07-.13l0,0,.06,0a.21.21,0,0,1,.12,0,.2.2,0,0,1,.08.08.29.29,0,0,1,0,.09.23.23,0,0,1,0,.11Zm0,0,0,0a.14.14,0,0,0,0-.11.09.09,0,0,0,0-.05l-.07,0h-.07l0,0a.07.07,0,0,0,0,0,.08.08,0,0,0,0,0s0,0,0,0v0h0a.12.12,0,0,0,0,0,.2.2,0,0,0,.11,0Z" fill="#f1c413"/><path d="M48.1,45.51a3.26,3.26,0,0,0,.46.12c.09,0,.07.1,0,.17a.64.64,0,0,1-.74-.09C47.94,45.69,48.09,45.59,48.1,45.51Z" fill="#364a5e"/><path d="M47.65,43.54h0s0,0,0-.06a0,0,0,0,1,0,0A0,0,0,0,1,47.65,43.54Z" fill="#364a5e"/><path d="M47.78,43.67a0,0,0,1,1,0-.05A0,0,0,0,1,47.78,43.67Z" fill="#364a5e"/><path d="M47.89,43.65h0a0,0,0,0,1,0,0h0A0,0,0,0,1,47.89,43.65Z" fill="#364a5e"/><path d="M48.06,43.75H48a0,0,0,0,1,0,0s0,0,.05,0S48.08,43.73,48.06,43.75Z" fill="#364a5e"/><path d="M48.06,43.88h0s0,0,0,0h0S48.07,43.88,48.06,43.88Z" fill="#364a5e"/><path d="M48.24,44s-.05,0-.06,0a0,0,0,0,1,0-.07s0,0,.06,0S48.26,43.93,48.24,44Z" fill="#364a5e"/><path d="M48.33,44.06h0a0,0,0,0,1,0,0h0A0,0,0,0,1,48.33,44.06Z" fill="#364a5e"/><path d="M48.52,44.06a.08.08,0,1,1,0-.11A.08.08,0,0,1,48.52,44.06Z" fill="#364a5e"/><path d="M48.61,44.19s0,0,0,0a0,0,0,0,1,0,0h0A0,0,0,0,1,48.61,44.19Z" fill="#364a5e"/><path d="M48.8,44.23a.05.05,0,0,1-.08,0,.06.06,0,0,1,0-.08.05.05,0,0,1,.08,0A0,0,0,0,1,48.8,44.23Z" fill="#364a5e"/><path d="M48.82,44.46a.06.06,0,0,1-.08-.08.08.08,0,0,1,.09,0A.05.05,0,0,1,48.82,44.46Z" fill="#364a5e"/><path d="M49.06,44.52a.06.06,0,0,1-.09,0,.06.06,0,0,1,0-.08.06.06,0,0,1,.09,0A.07.07,0,0,1,49.06,44.52Z" fill="#364a5e"/><path d="M49.24,44.65h0a0,0,0,0,1,0,0h0A0,0,0,0,1,49.24,44.65Z" fill="#364a5e"/><path d="M49.39,44.75a.06.06,0,0,1-.08,0,.05.05,0,0,1,0-.08.06.06,0,0,1,.08,0A.05.05,0,0,1,49.39,44.75Z" fill="#364a5e"/><path d="M49.34,44.9h-.06a.06.06,0,0,1,0-.06s0,0,.06,0S49.36,44.88,49.34,44.9Z" fill="#364a5e"/><g opacity="0.2"><circle cx="50.48" cy="35.46" r="3.06" fill="#010101"/><path d="M50.53,38.52h-.16l-.45,0-.31-.08a3.17,3.17,0,0,1-.36-.13,3,3,0,0,1-.77-.49,3,3,0,0,1-.68-.85,3.25,3.25,0,0,1-.35-1.17c0-.11,0-.21,0-.33a1.82,1.82,0,0,1,0-.32,1.28,1.28,0,0,1,.06-.33,2.23,2.23,0,0,1,.09-.32,3.2,3.2,0,0,1,.72-1.14,3.11,3.11,0,0,1,1.14-.72,3,3,0,0,1,1.29-.16,3,3,0,0,1,1.17.34,3.1,3.1,0,0,1,.85.68,2.8,2.8,0,0,1,.5.77,3.17,3.17,0,0,1,.13.36c0,.11,0,.22.07.31a2.14,2.14,0,0,1,0,.45v.16l0-.16a3.65,3.65,0,0,0-.06-.44c0-.09-.06-.2-.09-.31s-.08-.22-.15-.34a2.88,2.88,0,0,0-.5-.73,3.19,3.19,0,0,0-.84-.63,3.14,3.14,0,0,0-1.12-.3,2.94,2.94,0,0,0-2.29.85,3.07,3.07,0,0,0-.69,1.07c0,.1-.06.2-.09.3s0,.21-.06.31,0,.21,0,.31,0,.21,0,.31a3,3,0,0,0,.94,2,3.23,3.23,0,0,0,.73.51,3.07,3.07,0,0,0,.34.14l.31.09.44.07Z" fill="#010101"/><circle cx="50.48" cy="35.46" r="1.98" fill="#010101"/><circle cx="50.48" cy="35.46" r="1.74" fill="#010101"/></g><circle cx="50.17" cy="35.15" r="3.06" fill="#eba83b"/><g opacity="0.5" style="mix-blend-mode:overlay"><path d="M50.21,38.21h-.15a2,2,0,0,1-.45,0l-.32-.07a2.4,2.4,0,0,1-.36-.14,2.67,2.67,0,0,1-.77-.49,3,3,0,0,1-.67-.85,2.81,2.81,0,0,1-.35-1.17c0-.1,0-.21,0-.32s0-.21,0-.32,0-.22.06-.33a1.7,1.7,0,0,1,.1-.32A3.09,3.09,0,0,1,48,33a3.15,3.15,0,0,1,1.15-.72,3.2,3.2,0,0,1,1.29-.17,2.81,2.81,0,0,1,1.17.35,2.9,2.9,0,0,1,.85.68,2.62,2.62,0,0,1,.49.77,3.17,3.17,0,0,1,.13.36c0,.11.06.21.08.31a2.93,2.93,0,0,1,0,.45v0a2.55,2.55,0,0,0-.07-.44,2.12,2.12,0,0,0-.09-.31,2.44,2.44,0,0,0-.14-.34,2.94,2.94,0,0,0-.51-.73,3,3,0,0,0-.83-.63,2.95,2.95,0,0,0-4.1,1.62,1.71,1.71,0,0,0-.09.3c0,.1,0,.2-.06.3a3.16,3.16,0,0,0,0,.32c0,.1,0,.2,0,.3a3,3,0,0,0,.93,2,2.88,2.88,0,0,0,.73.5,3.35,3.35,0,0,0,.35.15l.3.09a3.52,3.52,0,0,0,.45.06Z" fill="#fff"/></g><circle cx="50.17" cy="35.15" r="1.98" fill="#fff"/><circle cx="50.17" cy="35.15" r="1.74" fill="#f5f5f5"/><g opacity="0.2"><circle cx="49.76" cy="34.89" r="1.48" fill="#010101"/><path d="M48.93,34.89a.62.62,0,0,1,.55-.68.61.61,0,1,1-.55.68Z" fill="#010101"/><circle cx="49.62" cy="34.93" r="0.44" fill="#010101"/><path d="M49.19,36.26a1.94,1.94,0,0,0,1.65.28.56.56,0,0,1,.62.18h0c.12.19-.05.5-.4.6a2.78,2.78,0,0,1-2.34-.4c-.3-.21-.36-.56-.18-.7h0A.56.56,0,0,1,49.19,36.26Z" fill="#010101"/><path d="M48.61,36.84c0-.25.26-.38.55-.2a2.28,2.28,0,0,0,1.73.23c.29-.08.51.06.5.26a.33.33,0,0,0,.07-.4h0a.56.56,0,0,0-.62-.18,1.94,1.94,0,0,1-1.65-.28.56.56,0,0,0-.65,0h0C48.39,36.35,48.4,36.63,48.61,36.84Z" fill="#010101"/><path d="M51.74,36.75a.34.34,0,0,0-.29-.31H51.4v0c0,.06,0,.21,0,.25S51.73,36.73,51.74,36.75Z" fill="#010101"/><path d="M48.29,36.21l.09,0a.09.09,0,0,0,0-.09.14.14,0,0,1,0-.06,0,0,0,0,1,0,0,.18.18,0,0,1,.07.05l.07,0c0-.05,0-.07.1-.09l.07,0a.56.56,0,0,1-.13.28C48.54,36.31,48.39,36.21,48.29,36.21Z" fill="#010101"/><rect x="49.95" y="35.36" width="0.17" height="0.17" transform="translate(-11.27 34.44) rotate(-34.37)" fill="#010101"/><rect x="50.23" y="34.96" width="0.08" height="0.08" transform="translate(-7.74 15.34) rotate(-16.13)" fill="#010101"/><rect x="49.85" y="34.59" width="0.03" height="0.03" transform="translate(-3.99 6.6) rotate(-7.29)" fill="#010101"/><rect x="50.73" y="34.94" width="0.09" height="0.09" transform="translate(-8.63 18.46) rotate(-19.02)" fill="#010101"/><rect x="50.69" y="35.34" width="0.04" height="0.04" transform="translate(-2.36 3.66) rotate(-4.04)" fill="#010101"/><rect x="49.31" y="35.55" width="0.06" height="0.06" transform="translate(9.06 -10) rotate(12.74)" fill="#010101"/><rect x="50.19" y="35.94" width="0.08" height="0.08" transform="matrix(0.86, -0.51, 0.51, 0.86, -11.33, 30.75)" fill="#010101"/><polygon points="51.01 34.89 50.8 34.7 51 34.8 51.01 34.89" fill="#010101"/><polygon points="50.61 34.48 50.33 34.35 50.42 34.34 50.6 34.42 50.61 34.48" fill="#010101"/><polygon points="50.07 34.37 49.81 34.19 49.92 34.21 50.07 34.37" fill="#010101"/><polygon points="49.35 34.09 49.12 34.02 49.05 33.91 49.21 33.98 49.35 34.09" fill="#010101"/><polygon points="49.43 33.9 49.28 33.78 49.37 33.74 49.43 33.85 49.43 33.9" fill="#010101"/><polygon points="49.8 33.99 50.03 34.05 49.87 33.9 49.8 33.99" fill="#010101"/><polygon points="49.69 33.9 49.55 33.75 49.67 33.81 49.69 33.9" fill="#010101"/><polygon points="50.15 34.17 50.42 34.19 50.26 34.13 50.15 34.17" fill="#010101"/><path d="M51.88,36.29l-.15,0a.34.34,0,0,1-.15-.06.63.63,0,0,1-.12-.11.41.41,0,0,1-.12-.11.61.61,0,0,1-.07-.14.88.88,0,0,1-.05-.15,3292545709284.36,3292545709284.36,0,0,0,0-.32,1,1,0,0,1,.07-.15.63.63,0,0,1,.11-.12.46.46,0,0,1,.14-.07l.14-.08H52a.41.41,0,0,1,.16,0l.15.06.12.1a.63.63,0,0,1,.12.11.91.91,0,0,1,.07.14.75.75,0,0,1,.05.16,1,1,0,0,1,0,.16.86.86,0,0,1,0,.16.6.6,0,0,1-.09.13.32.32,0,0,1-.12.11.63.63,0,0,1-.12.11l-.14.07-.16,0Z" fill="#010101"/><path d="M51.89,36.2a.61.61,0,1,1,.73-.52A.63.63,0,0,1,51.89,36.2Z" fill="#010101"/><path d="M52.18,35.54a.51.51,0,0,1-.28-.24.32.32,0,0,0-.08-.12.09.09,0,0,0-.13,0,.62.62,0,0,1,.11.17.25.25,0,0,1,0,.19.32.32,0,0,1-.09.08l-.28.2a.22.22,0,0,0,.21,0,1.33,1.33,0,0,1,.21-.09.32.32,0,0,1,.35.15l0-.2.37-.13A.53.53,0,0,1,52.18,35.54Z" fill="#010101"/><path d="M52.3,35.84c-.06,0-.1-.1-.08-.13s.09,0,.15,0,.1.1.08.13S52.37,35.87,52.3,35.84Z" fill="#010101"/><path d="M52.33,35.48c-.06,0-.13.05-.15,0s0-.09.08-.13.13,0,.15,0S52.39,35.44,52.33,35.48Z" fill="#010101"/><path d="M52.27,35.32c-.05.06-.12.09-.16.06s0-.1,0-.17.12-.09.16-.06S52.32,35.25,52.27,35.32Z" fill="#010101"/><path d="M52.07,35.29c0,.05,0,.08-.06.07s0,0,0-.09,0-.08.06-.07S52.08,35.24,52.07,35.29Z" fill="#010101"/><path d="M51.72,35.29s.05.07,0,.09-.06,0-.1,0,0-.07,0-.09S51.68,35.26,51.72,35.29Z" fill="#010101"/><path d="M51.63,35.36c.06,0,.11.08.09.12s-.08,0-.15,0-.11-.08-.1-.11S51.56,35.33,51.63,35.36Z" fill="#010101"/><path d="M51.56,35.5c.06,0,.11,0,.11.06s-.05,0-.11,0-.11,0-.11-.06S51.5,35.5,51.56,35.5Z" fill="#010101"/><path d="M52,35.89s0-.1,0-.11.06,0,.07.08,0,.1,0,.11S52,35.94,52,35.89Z" fill="#010101"/><path d="M51.8,36c0-.08,0-.13.08-.13a.13.13,0,0,1,0,.14c0,.08,0,.13-.08.13S51.79,36,51.8,36Z" fill="#010101"/><path d="M51.69,35.83s.08-.06.1,0,0,.07,0,.11-.09.06-.11,0S51.65,35.88,51.69,35.83Z" fill="#010101"/><path d="M52.66,34.14a1,1,0,0,1,.08.14.94.94,0,0,1,0,.16.86.86,0,0,1,0,.16.43.43,0,0,1,0,.16.51.51,0,0,1-.07.15l-.08.13a.67.67,0,0,1-.14.09.35.35,0,0,1-.13.08.53.53,0,0,1-.16,0H52c-.06,0-.1,0-.15-.07a.66.66,0,0,1-.15,0,5270188245504.09,5270188245504.09,0,0,0-.22-.24.91.91,0,0,1-.07-.14.88.88,0,0,1,0-.15.85.85,0,0,1,0-.16.42.42,0,0,1,0-.16.41.41,0,0,1,.07-.15.35.35,0,0,1,.08-.13l.13-.1a.5.5,0,0,1,.14-.08.41.41,0,0,1,.16,0,.45.45,0,0,1,.16,0,.8.8,0,0,1,.15,0l.15.07.12.11A.58.58,0,0,1,52.66,34.14Z" fill="#010101"/><path d="M52.59,34.19a.61.61,0,1,1-.87-.22A.63.63,0,0,1,52.59,34.19Z" fill="#010101"/><path d="M51.9,34.39a.48.48,0,0,1,0,.37.33.33,0,0,0,0,.14c0,.05,0,.11.08.1a.7.7,0,0,1,.06-.19.21.21,0,0,1,.16-.11.2.2,0,0,1,.11,0l.33.09c0-.07-.07-.13-.13-.16a2,2,0,0,1-.21-.1.32.32,0,0,1-.11-.36l-.13.14-.33-.19A.47.47,0,0,1,51.9,34.39Z" fill="#010101"/><path d="M52.05,34.11c0,.07,0,.13,0,.14s-.07,0-.08-.12,0-.14,0-.14S52,34,52.05,34.11Z" fill="#010101"/><path d="M51.76,34.31c.07,0,.12.07.1.11s-.07,0-.14,0-.12-.07-.11-.11S51.69,34.29,51.76,34.31Z" fill="#010101"/><path d="M51.67,34.46c.08,0,.15,0,.15.08s-.06.09-.14.1-.15,0-.16-.08S51.59,34.47,51.67,34.46Z" fill="#010101"/><path d="M51.77,34.64s.09,0,.1,0,0,.06-.06.08-.08,0-.09,0S51.73,34.66,51.77,34.64Z" fill="#010101"/><path d="M52,34.91s0-.09,0-.09,0,0,0,.08,0,.09,0,.09S52,35,52,34.91Z" fill="#010101"/><path d="M52.12,34.93c0-.07,0-.14,0-.15s.08,0,.1.12,0,.14,0,.15S52.14,35,52.12,34.93Z" fill="#010101"/><path d="M52.26,34.89s0-.1,0-.11.07,0,.11,0,0,.1,0,.11S52.3,34.94,52.26,34.89Z" fill="#010101"/><path d="M52.31,34.34s-.07.07-.09.06a.09.09,0,0,1,0-.11s.08-.07.1,0S52.34,34.3,52.31,34.34Z" fill="#010101"/><path d="M52.46,34.42c-.06,0-.12,0-.14,0s0-.09.07-.13.13-.05.15,0S52.53,34.38,52.46,34.42Z" fill="#010101"/><path d="M52.44,34.58c-.06,0-.1,0-.1,0s0-.05.1-.05.1,0,.1.05S52.49,34.58,52.44,34.58Z" fill="#010101"/><path d="M51.05,33.2l.14-.08.15,0a.42.42,0,0,1,.16,0h.16a.69.69,0,0,1,.15.07l.14.08a.67.67,0,0,1,.09.14.35.35,0,0,1,.08.13.42.42,0,0,1,0,.16.86.86,0,0,1,0,.16,1,1,0,0,1-.07.15.94.94,0,0,1-.06.15l-.11.11-.12.11-.14.07-.15.05H51.2a.51.51,0,0,1-.15-.07.39.39,0,0,1-.14-.08.43.43,0,0,1-.09-.13.6.6,0,0,1-.09-.13.44.44,0,0,1,0-.16.81.81,0,0,1,0-.16.9.9,0,0,1,0-.16.94.94,0,0,1,.06-.15l.11-.12Z" fill="#010101"/><path d="M51.09,33.27a.64.64,0,0,1,.89.14.64.64,0,0,1-.21.87.61.61,0,1,1-.68-1Z" fill="#010101"/><path d="M51.31,34a.45.45,0,0,1,.36,0l.14,0s.11,0,.11-.09a.39.39,0,0,1-.19-.06.22.22,0,0,1-.12-.15.25.25,0,0,1,0-.12l.09-.33a.22.22,0,0,0-.16.14c0,.06-.06.14-.1.2a.33.33,0,0,1-.36.12l.15.13-.2.34A.47.47,0,0,1,51.31,34Z" fill="#010101"/><path d="M51,33.81c.07,0,.14,0,.14,0s0,.07-.12.08-.13,0-.14,0S51,33.83,51,33.81Z" fill="#010101"/><path d="M51.23,34.1c0-.07.07-.12.1-.11s.05.08,0,.15-.07.12-.1.11S51.21,34.17,51.23,34.1Z" fill="#010101"/><path d="M51.38,34.19c0-.08,0-.15.08-.16s.09.07.09.15,0,.15-.07.15S51.39,34.27,51.38,34.19Z" fill="#010101"/><path d="M51.55,34.08a.09.09,0,0,1,0-.1s.05,0,.08.06a.09.09,0,0,1,0,.1S51.57,34.12,51.55,34.08Z" fill="#010101"/><path d="M51.82,33.84s-.09,0-.09,0,0-.05.09-.05.08,0,.08,0S51.87,33.84,51.82,33.84Z" fill="#010101"/><ellipse cx="51.83" cy="33.67" rx="0.14" ry="0.07" transform="translate(-7.49 16.3) rotate(-16.69)" fill="#010101"/><path d="M51.8,33.59s-.1,0-.11,0,0-.07.05-.1.09,0,.11,0S51.85,33.55,51.8,33.59Z" fill="#010101"/><path d="M51.25,33.55s.07.07.06.09-.07,0-.11,0-.07-.07-.05-.09S51.21,33.52,51.25,33.55Z" fill="#010101"/><path d="M51.33,33.39c0,.07.05.13,0,.15s-.09,0-.13-.07,0-.13,0-.15S51.28,33.33,51.33,33.39Z" fill="#010101"/><path d="M51.49,33.42s0,.1-.05.1,0-.05,0-.1,0-.1,0-.1S51.49,33.36,51.49,33.42Z" fill="#010101"/></g><circle cx="49.61" cy="34.73" r="1.48" fill="#fff"/><path d="M48.78,34.73A.62.62,0,0,1,50,34.6a.62.62,0,1,1-1.23.13Z" fill="#ffcc07"/><circle cx="49.46" cy="34.77" r="0.44" fill="#ffef8c"/><path d="M49,36.1a2,2,0,0,0,1.66.29.53.53,0,0,1,.62.18h0c.12.19-.05.5-.4.6a2.77,2.77,0,0,1-2.35-.4c-.3-.2-.35-.56-.18-.7h0A.57.57,0,0,1,49,36.1Z" fill="#77270f"/><path d="M48.45,36.68c0-.25.26-.37.55-.2a2.34,2.34,0,0,0,1.74.24c.29-.08.5.05.5.25a.36.36,0,0,0,.07-.4h0a.53.53,0,0,0-.62-.18A2,2,0,0,1,49,36.1a.57.57,0,0,0-.65,0h0C48.23,36.19,48.25,36.47,48.45,36.68Z" fill="#62220b"/><path d="M51.58,36.6a.34.34,0,0,0-.29-.32h0a0,0,0,0,0,0,0c0,.06,0,.21,0,.25S51.58,36.57,51.58,36.6Z" fill="#62220b"/><path d="M48.14,36.05a.11.11,0,0,0,.08,0,.08.08,0,0,0,0-.08s0-.05,0-.07,0,0,.05,0a.18.18,0,0,1,.07,0,.13.13,0,0,0,.08,0s0-.07.09-.08l.07,0c0,.08,0,.23-.12.28S48.23,36.05,48.14,36.05Z" fill="#62220b"/><rect x="49.79" y="35.2" width="0.17" height="0.17" transform="translate(-11.21 34.32) rotate(-34.37)" fill="#4e4d4d"/><rect x="50.07" y="34.81" width="0.08" height="0.08" transform="translate(-7.71 15.29) rotate(-16.13)" fill="#4e4d4d"/><rect x="49.69" y="34.43" width="0.03" height="0.03" transform="translate(-3.97 6.58) rotate(-7.29)" fill="#4e4d4d"/><rect x="50.57" y="34.78" width="0.09" height="0.09" transform="translate(-8.59 18.4) rotate(-19.02)" fill="#4e4d4d"/><rect x="50.53" y="35.19" width="0.04" height="0.04" transform="translate(-2.35 3.65) rotate(-4.04)" fill="#4e4d4d"/><rect x="49.15" y="35.4" width="0.06" height="0.06" transform="translate(9.02 -9.97) rotate(12.74)" fill="#4e4d4d"/><rect x="50.03" y="35.78" width="0.08" height="0.08" transform="matrix(0.86, -0.51, 0.51, 0.86, -11.27, 30.65)" fill="#4e4d4d"/><polygon points="50.85 34.73 50.64 34.54 50.84 34.65 50.85 34.73" fill="#4d9634"/><polygon points="50.45 34.33 50.17 34.2 50.27 34.18 50.44 34.26 50.45 34.33" fill="#4d9634"/><polygon points="49.91 34.21 49.65 34.03 49.76 34.05 49.91 34.21" fill="#4d9634"/><polygon points="49.19 33.93 48.97 33.86 48.89 33.75 49.05 33.82 49.19 33.93" fill="#4d9634"/><polygon points="49.28 33.75 49.12 33.63 49.21 33.59 49.27 33.69 49.28 33.75" fill="#4d9634"/><polygon points="49.65 33.83 49.88 33.89 49.72 33.74 49.65 33.83" fill="#4d9634"/><polygon points="49.53 33.74 49.39 33.59 49.51 33.66 49.53 33.74" fill="#4d9634"/><polygon points="49.99 34.02 50.27 34.03 50.1 33.97 49.99 34.02" fill="#4d9634"/><path d="M51.73,36.13l-.16,0L51.42,36c-.05,0-.08-.07-.12-.1a1.31,1.31,0,0,1-.12-.11,1,1,0,0,1-.07-.15.36.36,0,0,1,0-.31c0-.06,0-.11,0-.16a1,1,0,0,1,.07-.15l.11-.12s.1,0,.15-.07l.14-.08h.16a.85.85,0,0,1,.16,0l.15,0,.15.06.13.1.11.11a1,1,0,0,1,.07.15.88.88,0,0,1,0,.15.92.92,0,0,1,0,.16.88.88,0,0,1,0,.16.6.6,0,0,1-.09.13.63.63,0,0,1-.11.12l-.12.1-.15.07-.16,0Z" fill="#4d9634"/><path d="M51.74,36.05a.61.61,0,1,1,.14-1.21.61.61,0,1,1-.14,1.21Z" fill="#deecd2"/><path d="M52,35.39a.55.55,0,0,1-.28-.24.4.4,0,0,0-.07-.13.1.1,0,0,0-.14,0,.55.55,0,0,1,.11.17.2.2,0,0,1,0,.2.73.73,0,0,1-.09.08l-.28.19a.22.22,0,0,0,.22,0,1.76,1.76,0,0,1,.2-.09.31.31,0,0,1,.35.15l0-.2.37-.13A.53.53,0,0,1,52,35.39Z" fill="#cee4c0"/><path d="M52.15,35.68c-.07,0-.1-.09-.09-.13s.09,0,.15,0,.1.09.08.12S52.21,35.72,52.15,35.68Z" fill="#f5f5f5"/><path d="M52.17,35.33c-.06,0-.12,0-.14,0s0-.09.08-.13.12,0,.14,0S52.24,35.29,52.17,35.33Z" fill="#f5f5f5"/><path d="M52.12,35.16c0,.07-.12.1-.16.07s0-.11,0-.17.12-.1.16-.07S52.17,35.09,52.12,35.16Z" fill="#f5f5f5"/><path d="M51.92,35.13s0,.08-.06.08,0-.05,0-.1,0-.08.06-.07S51.93,35.09,51.92,35.13Z" fill="#f5f5f5"/><path d="M51.56,35.14s.06.07,0,.08-.06,0-.09,0-.06-.07,0-.08S51.52,35.11,51.56,35.14Z" fill="#f5f5f5"/><path d="M51.47,35.2c.07,0,.11.09.1.12s-.09,0-.16,0-.11-.09-.09-.12S51.4,35.17,51.47,35.2Z" fill="#f5f5f5"/><path d="M51.41,35.34c.05,0,.1,0,.1.06s0,.05-.11.05-.1,0-.1-.06S51.35,35.34,51.41,35.34Z" fill="#f5f5f5"/><path d="M51.8,35.73s0-.1,0-.1,0,0,.07.08,0,.1,0,.1S51.81,35.78,51.8,35.73Z" fill="#f5f5f5"/><path d="M51.64,35.8c0-.07,0-.13.08-.13s.06.07.05.15,0,.12-.08.12S51.63,35.87,51.64,35.8Z" fill="#f5f5f5"/><path d="M51.53,35.68s.09-.06.11,0,0,.07,0,.11-.08.06-.11,0S51.5,35.72,51.53,35.68Z" fill="#f5f5f5"/><path d="M52.51,34a1,1,0,0,1,.07.15.88.88,0,0,1,.05.15.81.81,0,0,1,0,.16.42.42,0,0,1,0,.16.41.41,0,0,1-.07.15.39.39,0,0,1-.08.14,1,1,0,0,1-.13.09l-.14.08-.16,0h-.16a1,1,0,0,1-.15-.07L51.57,35a1.31,1.31,0,0,1-.11-.12.4.4,0,0,1-.1-.12.64.64,0,0,1-.08-.14.42.42,0,0,1,0-.15,1.28,1.28,0,0,1,0-.32.51.51,0,0,1,.07-.15l.08-.13a1,1,0,0,1,.13-.09,1.1,1.1,0,0,1,.14-.09.44.44,0,0,1,.16,0,.86.86,0,0,1,.16,0,.9.9,0,0,1,.16,0,.91.91,0,0,1,.14.07.43.43,0,0,1,.12.11Z" fill="#4d9634"/><path d="M52.44,34a.64.64,0,0,1-.15.88.66.66,0,0,1-.72-1.1A.63.63,0,0,1,52.44,34Z" fill="#deecd2"/><path d="M51.75,34.24a.5.5,0,0,1,0,.36.39.39,0,0,0-.05.14s0,.11.08.11a.53.53,0,0,1,.06-.19.24.24,0,0,1,.16-.12l.12,0,.33.09a.24.24,0,0,0-.14-.17,1.21,1.21,0,0,1-.2-.09A.33.33,0,0,1,52,34l-.14.15-.33-.2A.56.56,0,0,1,51.75,34.24Z" fill="#cee4c0"/><path d="M51.89,34c0,.07,0,.14,0,.14s-.08-.05-.09-.12,0-.14.05-.14S51.88,33.88,51.89,34Z" fill="#f5f5f5"/><path d="M51.6,34.16c.07,0,.12.07.11.1s-.08,0-.15,0-.12-.07-.11-.1S51.53,34.13,51.6,34.16Z" fill="#f5f5f5"/><path d="M51.51,34.31c.08,0,.15,0,.15.07s-.06.09-.14.1-.15,0-.15-.08S51.43,34.31,51.51,34.31Z" fill="#f5f5f5"/><path d="M51.62,34.48s.08,0,.09,0,0,.05-.05.07-.09,0-.1,0S51.58,34.5,51.62,34.48Z" fill="#f5f5f5"/><path d="M51.85,34.75s0-.09,0-.09,0,0,0,.09,0,.08,0,.08S51.85,34.8,51.85,34.75Z" fill="#f5f5f5"/><path d="M52,34.78c0-.08,0-.14,0-.15s.08,0,.1.11,0,.14,0,.15S52,34.85,52,34.78Z" fill="#f5f5f5"/><path d="M52.11,34.73s0-.09,0-.11.07,0,.11.05.05.1,0,.12S52.14,34.78,52.11,34.73Z" fill="#f5f5f5"/><path d="M52.16,34.19s-.08.06-.1.05,0-.06,0-.11.07-.06.09-.05S52.19,34.14,52.16,34.19Z" fill="#f5f5f5"/><path d="M52.31,34.26c-.07,0-.13.05-.15,0s0-.09.08-.13.12,0,.14,0S52.37,34.22,52.31,34.26Z" fill="#f5f5f5"/><path d="M52.28,34.42c-.05,0-.1,0-.1-.05s0,0,.1,0,.1,0,.1.06S52.34,34.42,52.28,34.42Z" fill="#f5f5f5"/><path d="M50.89,33,51,33l.16,0a.85.85,0,0,1,.16,0,.86.86,0,0,1,.16,0l.14.07a.67.67,0,0,1,.14.09.43.43,0,0,1,.09.13.6.6,0,0,1,.09.13s0,.11,0,.16a.86.86,0,0,1,0,.16.69.69,0,0,1-.07.15.67.67,0,0,1-.06.15s-.07.08-.11.12a1.27,1.27,0,0,1-.12.1l-.14.08-.15.05H51.2a.43.43,0,0,1-.16,0,.59.59,0,0,1-.14-.06.67.67,0,0,1-.14-.09.58.58,0,0,1-.1-.12,1.1,1.1,0,0,1-.09-.14s0-.11,0-.16a1,1,0,0,1,0-.16.39.39,0,0,1,0-.15.69.69,0,0,1,.07-.15.63.63,0,0,1,.1-.12A.69.69,0,0,1,50.89,33Z" fill="#4d9634"/><path d="M50.94,33.11a.63.63,0,0,1,.88.14.66.66,0,1,1-.88-.14Z" fill="#deecd2"/><path d="M51.15,33.8a.52.52,0,0,1,.37,0,.34.34,0,0,0,.14.05.09.09,0,0,0,.1-.08,1.39,1.39,0,0,1-.19-.06.24.24,0,0,1-.12-.16.5.5,0,0,1,0-.12l.08-.33a.22.22,0,0,0-.16.14,1.21,1.21,0,0,1-.09.2.32.32,0,0,1-.37.12l.15.13-.19.34A.45.45,0,0,1,51.15,33.8Z" fill="#cee4c0"/><path d="M50.86,33.66c.08,0,.14,0,.15,0s0,.07-.12.09-.14,0-.15,0S50.79,33.67,50.86,33.66Z" fill="#f5f5f5"/><path d="M51.07,33.94c0-.07.07-.11.1-.1s0,.07,0,.14-.07.12-.11.11S51.05,34,51.07,33.94Z" fill="#f5f5f5"/><path d="M51.22,34c0-.08,0-.15.08-.15s.09.06.1.14,0,.15-.08.15S51.23,34.11,51.22,34Z" fill="#f5f5f5"/><path d="M51.39,33.92s0-.08,0-.09.06,0,.08.05,0,.09,0,.1S51.42,34,51.39,33.92Z" fill="#f5f5f5"/><path d="M51.66,33.69a.1.1,0,0,1-.09,0s0,0,.09,0,.09,0,.09,0S51.71,33.69,51.66,33.69Z" fill="#f5f5f5"/><ellipse cx="51.67" cy="33.51" rx="0.14" ry="0.07" transform="translate(-7.45 16.25) rotate(-16.69)" fill="#f5f5f5"/><path d="M51.64,33.43s-.09,0-.11,0,0-.07,0-.11.1-.05.11,0S51.69,33.39,51.64,33.43Z" fill="#f5f5f5"/><path d="M51.1,33.39s.06.07,0,.09-.06,0-.11,0-.07-.07,0-.1S51.05,33.36,51.1,33.39Z" fill="#f5f5f5"/><path d="M51.17,33.24c0,.06,0,.12,0,.14s-.09,0-.13-.07-.05-.13,0-.15S51.13,33.18,51.17,33.24Z" fill="#f5f5f5"/><path d="M51.33,33.26c0,.06,0,.1,0,.1s-.05,0-.05-.1,0-.1.05-.1S51.33,33.2,51.33,33.26Z" fill="#f5f5f5"/><g opacity="0.2"><path d="M53.42,35.68s0,0,0,0c.37-.21,1-.6,1.49-.93.72-.49.85-.64.81-.7s-.23,0-1,.49a18,18,0,0,0-1.5,1.1Z" fill="#010101"/><path d="M55.71,34.13a3.53,3.53,0,0,1-.78.61c-.55.37-1.19.76-1.53.95.3-.25.9-.69,1.45-1.06A4.06,4.06,0,0,1,55.71,34.13Z" fill="#010101"/><path d="M55.71,34.13a.28.28,0,0,1-.08.1,1.66,1.66,0,0,1-.23.22,7.27,7.27,0,0,1-.78.56c-.29.19-.59.37-.82.49l-.29.14-.11,0,.36-.25.8-.53.8-.52.26-.17.07-.06Z" fill="#010101"/><path d="M52.38,36.19l.69-.54a0,0,0,0,1,.07,0,.07.07,0,0,1,0,.07l-.71.52,0,0,.71-.5a.05.05,0,0,1,.08,0,.06.06,0,0,1,0,.07l-.73.47,0,0,.74-.46s.06,0,.07,0,0,.05,0,.07l-.76.43,0,.05.85-.46a.28.28,0,0,0,.11-.44h0a.29.29,0,0,0-.45-.06l-.74.61Z" fill="#010101"/></g><path d="M53.27,35.52s0,0,0,0c.38-.21,1-.6,1.5-.93.72-.48.84-.63.8-.69s-.23,0-1,.48c-.53.36-1.2.84-1.5,1.1A.4.4,0,0,1,53.27,35.52Z" fill="#f0f0f0"/><path d="M55.55,34a3.44,3.44,0,0,1-.78.6c-.55.37-1.19.76-1.53,1,.3-.25.91-.69,1.46-1.06A3.31,3.31,0,0,1,55.55,34Z" fill="#de4b34"/><g opacity="0.5" style="mix-blend-mode:overlay"><path d="M55.55,34a.59.59,0,0,1-.07.1c-.06.05-.13.13-.24.21a8.14,8.14,0,0,1-.77.57c-.3.19-.6.36-.83.48l-.29.14-.11.05.36-.25.8-.52.8-.52.26-.18.07-.06Z" fill="#fff"/></g><path d="M52.22,36l.69-.54s.06,0,.07,0a.05.05,0,0,1,0,.08l-.7.51,0,.05.72-.5a.06.06,0,0,1,.07,0,.07.07,0,0,1,0,.07l-.73.47,0,0,.74-.45a.06.06,0,0,1,.08,0,.06.06,0,0,1,0,.07l-.76.43,0,0,.85-.46a.27.27,0,0,0,.11-.43h0a.27.27,0,0,0-.44-.07l-.75.61Z" fill="#f0f0f0"/><g opacity="0.2"><path d="M46.58,35.39l0,.36-1.35-.88c-.11-.06-.09-.17,0-.23h0a.3.3,0,0,1,.34,0A5.44,5.44,0,0,0,46.58,35.39Z" fill="#010101"/><path d="M46.54,35.45v.31l-1.34-.89c-.11-.06-.1-.15,0-.19h0a.33.33,0,0,1,.31,0A6.41,6.41,0,0,0,46.54,35.45Z" fill="#010101"/><path d="M45.45,34.73a.07.07,0,0,0-.1,0,.06.06,0,0,0,0,.1.07.07,0,0,0,.1,0A.07.07,0,0,0,45.45,34.73Z" fill="#010101"/><path d="M46.26,35.29a.08.08,0,1,0,0,.11A.09.09,0,0,0,46.26,35.29Z" fill="#010101"/><path d="M48.08,36.7l0,.16-1.8-1.26.3-.43.9.63A1.52,1.52,0,0,1,48.08,36.7Z" fill="#010101"/><path d="M48.07,36.72l0,.14-1.8-1.26.26-.36.89.62A1.59,1.59,0,0,1,48.07,36.72Z" fill="#010101"/><path d="M47.6,36a1.63,1.63,0,0,1,.47.75l0,.14-1-.71Z" fill="#010101"/><path d="M46.91,36l-.13-.09.52-.18.13.09Z" fill="#010101"/></g><path d="M46.43,35.23l0,.36L45,34.72c-.11-.07-.09-.17,0-.23h0a.34.34,0,0,1,.34,0A5.12,5.12,0,0,0,46.43,35.23Z" fill="#c3432e"/><path d="M46.38,35.29v.31L45,34.72c-.1-.07-.1-.16,0-.2h0a.32.32,0,0,1,.32,0A6.32,6.32,0,0,0,46.38,35.29Z" fill="#de4b34"/><path d="M45.3,34.57a.08.08,0,0,0-.09.13.09.09,0,0,0,.11,0A.09.09,0,0,0,45.3,34.57Z" fill="#f5f5f5"/><path d="M46.1,35.14a.06.06,0,0,0-.1,0,.07.07,0,0,0,0,.1s.09,0,.11,0A.07.07,0,0,0,46.1,35.14Z" fill="#f5f5f5"/><path d="M47.92,36.55l0,.16-1.8-1.26.3-.43.9.62A1.47,1.47,0,0,1,47.92,36.55Z" fill="#dfdfdf"/><path d="M47.91,36.56l0,.15-1.8-1.26.26-.37.9.63A1.6,1.6,0,0,1,47.91,36.56Z" fill="#efeeee"/><path d="M47.44,35.82a1.55,1.55,0,0,1,.47.74l0,.15-1-.72Z" fill="#f5f5f5"/><path d="M46.75,35.87l-.13-.1.52-.18.13.09Z" fill="#f5f5f5"/><g opacity="0.2"><path d="M54.17,50.31l-.16.16a.9.9,0,0,1-1.27,0l-.41-.4a.9.9,0,0,1,0-1.27l.17-.17a.9.9,0,0,1,1.27,0l.4.41A.9.9,0,0,1,54.17,50.31Zm-1.42-1.09a.31.31,0,0,0,0,.42l.41.41a.29.29,0,0,0,.42,0l.17-.17a.29.29,0,0,0,0-.42l-.41-.41a.31.31,0,0,0-.42,0Z" fill="#010101"/><path d="M52.54,49l.06-.12s0-.08.08-.13l.07-.08.09-.07a.69.69,0,0,1,.57-.07.68.68,0,0,1,.29.18l.2.18.19.2,0,.06a.56.56,0,0,1,0,.08.51.51,0,0,1,.07.15.68.68,0,0,1-.07.57.58.58,0,0,1-.15.16l-.13.08-.12.06.07-.12a.52.52,0,0,1,.07-.12.88.88,0,0,0,0-.15.54.54,0,0,0,0-.35.35.35,0,0,0,0-.08l0,0,0-.05-.2-.18-.19-.2a.57.57,0,0,0-.15-.12.5.5,0,0,0-.34,0l-.08,0-.07,0-.13.07Z" fill="#010101"/><path d="M46.86,56.35l-.41-.41a.9.9,0,0,1,0-1.27l.17-.16a.9.9,0,0,1,1.27,0l.41.4a.9.9,0,0,1,0,1.27l-.17.17A.9.9,0,0,1,46.86,56.35Zm0-1.25a.29.29,0,0,0,0,.42l.4.41a.32.32,0,0,0,.43,0l.16-.17a.29.29,0,0,0,0-.42l-.4-.41a.3.3,0,0,0-.43,0Z" fill="#010101"/><path d="M46.83,54.72l-.11.06-.13.08s-.05,0-.08.07a.31.31,0,0,0-.07.09.68.68,0,0,0-.07.57.72.72,0,0,0,.17.29l.19.2.2.18,0,.06.08,0,.16.07a.66.66,0,0,0,.56-.07.59.59,0,0,0,.16-.15,1.17,1.17,0,0,0,.08-.13l.07-.12L48,56l-.13.07a.34.34,0,0,1-.15.06.54.54,0,0,1-.35,0l-.07,0,0,0,0,0-.19-.2-.2-.18a.57.57,0,0,1-.12-.15.54.54,0,0,1,0-.35.24.24,0,0,1,0-.08.36.36,0,0,1,0-.07l.07-.12Z" fill="#010101"/><circle cx="50.31" cy="52.49" r="4.16" fill="#010101"/><circle cx="50.31" cy="52.49" r="3.92" fill="#010101"/><circle cx="50.31" cy="52.49" r="3.77" fill="#010101"/><circle cx="50.31" cy="52.49" r="3.77" fill="#010101"/><circle cx="50.31" cy="52.49" r="1.76" fill="#010101"/><path d="M51.46,52.89a.75.75,0,0,1-.75.75.76.76,0,1,1,.75-.75Z" fill="#010101" opacity="0.3" style="mix-blend-mode:multiply"/><ellipse cx="49.34" cy="51.29" rx="2.67" ry="1.91" transform="translate(-21.41 43.56) rotate(-39.88)" fill="#010101" opacity="0.5" style="mix-blend-mode:overlay"/><path d="M51.07,52.49a.76.76,0,1,1-.76-.76A.76.76,0,0,1,51.07,52.49Z" fill="#010101"/><path d="M50.51,52.24a.39.39,0,0,1-.4.39.38.38,0,0,1-.39-.39.39.39,0,0,1,.39-.4A.4.4,0,0,1,50.51,52.24Z" fill="#010101"/><path d="M51.76,49a3.55,3.55,0,0,1,1.3,2.63,3.33,3.33,0,0,1-6.51,1A3.77,3.77,0,1,0,51.76,49Z" fill="#010101" opacity="0.3" style="mix-blend-mode:multiply"/></g><path d="M53.86,50l-.17.17a.9.9,0,0,1-1.27,0l-.4-.41a.9.9,0,0,1,0-1.27l.16-.16a.9.9,0,0,1,1.27,0l.41.4A.9.9,0,0,1,53.86,50Zm-1.42-1.08a.29.29,0,0,0,0,.42l.41.41a.31.31,0,0,0,.42,0l.17-.17a.31.31,0,0,0,0-.42L53,48.74a.29.29,0,0,0-.42,0Z" fill="#c5c5c4"/><path d="M52.23,48.7l.06-.12a.66.66,0,0,1,.08-.13l.07-.08.09-.07a.68.68,0,0,1,.57-.07.85.85,0,0,1,.29.17l.2.19.18.2.06.06.05.07a1.11,1.11,0,0,1,.07.16.69.69,0,0,1-.07.57.78.78,0,0,1-.15.16s-.1,0-.13.08l-.12.06.06-.12a.76.76,0,0,0,.07-.13.34.34,0,0,0,.06-.15.5.5,0,0,0-.05-.34.56.56,0,0,0,0-.08l0,0,0,0-.2-.19-.18-.2a.53.53,0,0,0-.15-.11.54.54,0,0,0-.35-.05l-.08,0-.07,0-.13.07Z" fill="#d9d9d9"/><path d="M46.55,56l-.41-.41a.9.9,0,0,1,0-1.27l.17-.17a.9.9,0,0,1,1.27,0l.4.41a.9.9,0,0,1,0,1.27l-.16.17A.9.9,0,0,1,46.55,56Zm0-1.26a.32.32,0,0,0,0,.43l.41.4a.29.29,0,0,0,.42,0l.17-.16a.3.3,0,0,0,0-.43l-.41-.4a.29.29,0,0,0-.42,0Z" fill="#c5c5c4"/><path d="M46.52,54.4l-.12.07-.13.08-.08.06-.07.1a.66.66,0,0,0-.07.56.62.62,0,0,0,.18.29l.18.2.2.19.06,0,.08.06.15.06a.68.68,0,0,0,.57-.07.46.46,0,0,0,.16-.15.66.66,0,0,0,.08-.13l.06-.11-.12.06-.12.07-.15.05a.54.54,0,0,1-.35-.05l-.08,0,0,0,0,0-.18-.2-.2-.19a.75.75,0,0,1-.12-.14.54.54,0,0,1-.05-.35.24.24,0,0,0,0-.08.25.25,0,0,1,0-.07l.07-.13Z" fill="#d9d9d9"/><circle cx="50" cy="52.18" r="4.16" fill="#e9e8e8"/><circle cx="50" cy="52.18" r="3.92" fill="#c5c5c4"/><circle cx="50" cy="52.18" r="3.77" fill="#de4b34"/><circle cx="50" cy="52.18" r="3.77" fill="url(#Unnamed_Pattern_2)"/><circle cx="50" cy="52.18" r="1.76" fill="#f5f5f5"/><path d="M51.15,52.57a.76.76,0,1,1-.75-.75A.75.75,0,0,1,51.15,52.57Z" fill="#383938" opacity="0.3" style="mix-blend-mode:multiply"/><ellipse cx="49.03" cy="50.97" rx="2.67" ry="1.91" transform="translate(-21.28 43.29) rotate(-39.88)" fill="#f5f5f5" opacity="0.5" style="mix-blend-mode:overlay"/><path d="M50.76,52.18a.76.76,0,1,1-.76-.76A.76.76,0,0,1,50.76,52.18Z" fill="#ffcc07"/><path d="M50.19,51.92a.39.39,0,0,1-.39.4.4.4,0,1,1,0-.79A.39.39,0,0,1,50.19,51.92Z" fill="#ffef8c"/><path d="M51.44,48.7a3.58,3.58,0,0,1,1.31,2.63,3.39,3.39,0,0,1-3.35,3.35,3.33,3.33,0,0,1-3.16-2.35,3.77,3.77,0,1,0,5.2-3.63Z" fill="#383938" opacity="0.3" style="mix-blend-mode:multiply"/><g opacity="0.2"><path d="M55.86,39.25l-1.57.37a.69.69,0,0,1-.82-.52h0a.67.67,0,0,1,.51-.82l1.56-.37a.69.69,0,0,1,.83.51h0A.69.69,0,0,1,55.86,39.25Z" fill="#010101"/><path d="M55.59,37.9a.56.56,0,0,1,.1,1.1l-1.45.34a.57.57,0,0,1-.51-1,.67.67,0,0,0-.26.71.69.69,0,0,0,.82.52l1.57-.37a.69.69,0,0,0-.27-1.35Z" fill="#010101"/><path d="M55.66,38.59l-1.6.38a.22.22,0,0,1-.25-.16h0a.21.21,0,0,1,.16-.26l1.59-.38a.23.23,0,0,1,.26.16h0A.21.21,0,0,1,55.66,38.59Z" fill="#010101"/><path d="M56,38.3a1.14,1.14,0,0,0-.49,0,1,1,0,0,0-.48.21c-.07.05-.09.12-.19.14s-.15,0-.22,0a1.27,1.27,0,0,0-.53,0,1.17,1.17,0,0,0-.42.25s0,.15,0,.15.14.2.22.23a.83.83,0,0,0,.68-.1.72.72,0,0,0,.19-.35s0,0,.07,0,.07,0,.09,0a.59.59,0,0,0,.32.23.91.91,0,0,0,.41,0,.75.75,0,0,0,.25-.16c.05-.07.07-.29.09-.3A.41.41,0,0,0,56,38.3ZM54.68,39a.47.47,0,0,1-.33.19.49.49,0,0,1-.39-.05c-.05,0-.17-.28-.12-.35a.66.66,0,0,1,.42-.19c.2,0,.42,0,.47.05A.42.42,0,0,1,54.68,39ZM56,38.69a.51.51,0,0,1-.32.22.55.55,0,0,1-.39,0,.44.44,0,0,1-.19-.29c0-.1.2-.21.39-.26a.73.73,0,0,1,.46,0C56,38.37,56,38.64,56,38.69Z" fill="#010101" opacity="0.5" style="mix-blend-mode:multiply"/><path d="M55,38l-.57.13a.09.09,0,0,0-.06.1h0l.72-.17h0A.08.08,0,0,0,55,38Z" fill="#010101"/><rect x="54.44" y="38.03" width="0.48" height="0.04" transform="translate(-7.24 13.49) rotate(-13.2)" fill="#010101"/></g><path d="M55.7,39.09l-1.56.37a.69.69,0,0,1-.83-.51h0a.69.69,0,0,1,.51-.83l1.57-.37a.69.69,0,0,1,.82.52h0A.67.67,0,0,1,55.7,39.09Z" fill="#e84c3d"/><path d="M55.44,37.75a.56.56,0,0,1,.1,1.1l-1.46.34a.57.57,0,0,1-.51-.95.69.69,0,0,0,.57,1.22l1.56-.37a.68.68,0,0,0-.26-1.34Z" fill="#c03a2b"/><path d="M55.5,38.43l-1.59.38a.22.22,0,0,1-.26-.16h0a.21.21,0,0,1,.16-.26L55.4,38a.21.21,0,0,1,.26.16h0A.2.2,0,0,1,55.5,38.43Z" fill="#ea5648"/><path d="M55.88,38.14a1.32,1.32,0,0,0-.49,0,1.08,1.08,0,0,0-.48.21c-.06,0-.09.12-.18.14s-.15,0-.23,0a1,1,0,0,0-.52,0,1.26,1.26,0,0,0-.43.25s0,.15.05.16.13.19.21.22a.56.56,0,0,0,.29,0,.74.74,0,0,0,.39-.13.64.64,0,0,0,.19-.35s0,0,.07,0,.07,0,.09,0a.64.64,0,0,0,.32.22.9.9,0,0,0,.41-.05.75.75,0,0,0,.25-.16c.06-.06.07-.28.09-.3S55.89,38.16,55.88,38.14Zm-1.35.72a.5.5,0,0,1-.34.19.45.45,0,0,1-.39,0s-.17-.27-.12-.35a.69.69,0,0,1,.42-.19c.2,0,.42,0,.47.06A.44.44,0,0,1,54.53,38.86Zm1.26-.33a.42.42,0,0,1-.32.22.5.5,0,0,1-.39,0s-.19-.16-.19-.29.2-.2.4-.26a.63.63,0,0,1,.45,0C55.83,38.21,55.82,38.48,55.79,38.53Z" fill="#364a5e" opacity="0.5" style="mix-blend-mode:multiply"/><path d="M54.87,37.79l-.57.14a.08.08,0,0,0-.06.09h0l.72-.17h0A.08.08,0,0,0,54.87,37.79Z" fill="#f1c413"/><rect x="54.28" y="37.88" width="0.48" height="0.04" transform="translate(-7.21 13.45) rotate(-13.2)" fill="#ffde5a"/></g></g></svg>