<svg id="Layer_1" data-name="Layer 1" xmlns="http://www.w3.org/2000/svg" viewBox="0 0 100 100"><title>hd1</title><path d="M13.33,71.78a1.22,1.22,0,0,1-.75-.15,1,1,0,0,1-.29-.26l7.32-20.94,2.61,1Z" fill="#1f1815"/><path d="M87.53,70.92a1.29,1.29,0,0,0,.75-.15,1.2,1.2,0,0,0,.3-.26l-7.32-21-2.62,1Z" fill="#1f1815"/><path d="M17.65,69.1a1.24,1.24,0,0,1-.75-.16,1,1,0,0,1-.3-.25l7.32-20.95,2.62,1Z" fill="#1f1815"/><path d="M83.6,69.67a1.22,1.22,0,0,0,.75-.15.85.85,0,0,0,.29-.26L77.32,48.32l-2.61,1Z" fill="#1f1815"/><path d="M16.13,40.67c-.44-1.42-1.2-4.72.68-7.61,2.36-3.62,7.37-4,15-4.4,15.92-.83,24.57-.42,41.22.43,3.7.19,8.43.49,10.49,3.76,1.64,2.6.86,5.94.24,7.82C82.9,44.79,81.81,48.92,81,53l-63.22-.43Z" fill="#ad2321"/><path d="M16.81,35.94c2.36-3.62,7.37-4,15-4.4,15.92-.83,24.57-.42,41.22.42,3.7.19,8.43.5,10.49,3.76a6.31,6.31,0,0,1,.87,2.36,7.66,7.66,0,0,0-.87-5.23c-2.06-3.27-6.79-3.57-10.49-3.76-16.65-.85-25.3-1.26-41.22-.43-7.58.4-12.59.78-15,4.4a8.21,8.21,0,0,0-1.1,5.77A7.22,7.22,0,0,1,16.81,35.94Z" fill="#c12e2b"/><path d="M83.71,40.67a11.27,11.27,0,0,0,.74-2.6,15.36,15.36,0,0,0-2.51,3.2,26.23,26.23,0,0,0-1.81,4.25C78.87,49,79.21,49,78.76,49.44c-1.31,1.44-43.19.65-49.21.69-5,0-5.45.59-6.62-.19-2.17-1.45-1.56-4-4-8A15.72,15.72,0,0,0,15.62,38a12.09,12.09,0,0,0,.21,1.53c.1.46.21.85.3,1.15l1.65,11.94L81.29,53Z" fill="#8e1d1b"/><path d="M83.65,62H16.43V52a94.56,94.56,0,0,1,15.3-1c4.36.07,48.15.44,51.92,1Z" fill="#d3312f"/><path d="M14.18,56.33c1.76.4,5-3.25,5.28-5-1.54.14-3,.31-4.49.51a5.8,5.8,0,0,0-.79.86Z" fill="#8e1d1b"/><path d="M85,56.45V52.31c-1.45-.21-2.94-.4-4.48-.55C81,53.32,83.3,56,85,56.45Z" fill="#8e1d1b"/><rect x="18.34" y="61.52" width="62.6" height="2.83" fill="#ad2321"/><path d="M84.19,38.78a20,20,0,0,1,5.65,3.45A19.36,19.36,0,0,1,92,44.39Q88,49.49,84,54.58l-3.37-2.95a14.73,14.73,0,0,1,3.54-12.85Z" fill="#c12e2b"/><path d="M15.81,38.78a20,20,0,0,0-5.65,3.45A19.36,19.36,0,0,0,8,44.39q4,5.1,7.94,10.19l3.37-2.95a14.73,14.73,0,0,0-3.54-12.85Z" fill="#c12e2b"/><path d="M15.81,38.78a20,20,0,0,0-5.65,3.45A19.36,19.36,0,0,0,8,44.39L10.59,47a34.73,34.73,0,0,1,7.14-5.49A14.7,14.7,0,0,0,15.81,38.78Z" fill="#d3312f"/><path d="M84.19,38.78a20,20,0,0,1,5.65,3.45A19.36,19.36,0,0,1,92,44.39L89.41,47a34.73,34.73,0,0,0-7.14-5.49A14.7,14.7,0,0,1,84.19,38.78Z" fill="#d3312f"/><path d="M91.44,43.82A2.38,2.38,0,0,0,90,43.64a3.34,3.34,0,0,0-1.75,1,11.29,11.29,0,0,0-2.12,2.62,27.12,27.12,0,0,0-3.29,6.36A31.88,31.88,0,0,0,80.9,64.39l4.2-.25a65.56,65.56,0,0,0,4.45-7.36S93.93,48.34,92.46,45A2.59,2.59,0,0,0,91.44,43.82Z" fill="#ad2321"/><path d="M81.28,64.35a31.88,31.88,0,0,1,1.91-10.77,26.94,26.94,0,0,1,3.28-6.36,11.29,11.29,0,0,1,2.12-2.62,3.31,3.31,0,0,1,1.75-1h0l-.39,0a3.34,3.34,0,0,0-1.75,1,11.29,11.29,0,0,0-2.12,2.62,27.12,27.12,0,0,0-3.29,6.36A31.88,31.88,0,0,0,80.9,64.39l4.2-.25,0,0Z" fill="#8e1d1b"/><path d="M8.56,43.82A2.38,2.38,0,0,1,10,43.64a3.34,3.34,0,0,1,1.75,1,11.29,11.29,0,0,1,2.12,2.62,27.12,27.12,0,0,1,3.29,6.36A31.88,31.88,0,0,1,19.1,64.39l-4.2-.25a65.56,65.56,0,0,1-4.45-7.36S6.07,48.34,7.54,45A2.59,2.59,0,0,1,8.56,43.82Z" fill="#ad2321"/><path d="M9.66,43.64a3.38,3.38,0,0,1,1.75,1,11.29,11.29,0,0,1,2.12,2.62,26.94,26.94,0,0,1,3.28,6.36,31.74,31.74,0,0,1,1.91,10.75l.38,0a31.88,31.88,0,0,0-1.91-10.77,27.12,27.12,0,0,0-3.29-6.36,11.29,11.29,0,0,0-2.12-2.62,3.34,3.34,0,0,0-1.75-1,3.06,3.06,0,0,0-.69,0Z" fill="#8e1d1b"/><path d="M31.73,54.62c-5,0-9.74.17-14,.55a15,15,0,0,0,.34,3.94A14.83,14.83,0,0,0,19,62H41a21,21,0,0,0,1.3-6.88C39,54.85,35.47,54.66,31.73,54.62Z" fill="#c12e2b"/><path d="M81.93,55.82h0a21.28,21.28,0,0,1-.4,3.08,23.4,23.4,0,0,1-.65,2.42H19.38a15.15,15.15,0,0,1-1.05-5.47l.43,0-.33-.21c-.25-.14-.49-.29-.73-.44A10.17,10.17,0,0,0,17.34,57a11.05,11.05,0,0,0,.29,3.66,11.83,11.83,0,0,0,.57,1.72l.2.46H82l.18-.5A10.51,10.51,0,0,0,82.69,60a11.92,11.92,0,0,0,.07-2.34,12.54,12.54,0,0,0-.42-2.54Z" fill="#8e1d1b"/><path d="M31.61,54.62c-5,0-9.65.17-13.91.55A15.91,15.91,0,0,0,18,59.11,15.57,15.57,0,0,0,19,62H81.05a19.71,19.71,0,0,0,.85-3,21.41,21.41,0,0,0,.44-3.89C79.06,54.85,35.32,54.66,31.61,54.62Z" fill="#c12e2b"/><path d="M31.61,54.62H31c3.71,0,47.44.23,50.73.52A21.39,21.39,0,0,1,80.48,62h.57a19.71,19.71,0,0,0,.85-3,21.41,21.41,0,0,0,.44-3.89C79.06,54.85,35.32,54.66,31.61,54.62Z" fill="#e94949"/><path d="M18.62,59.69a15.55,15.55,0,0,1-.34-3.95,137.55,137.55,0,0,1,13.91-.54c3.56,0,44,.21,50.13.48,0-.19,0-.37,0-.54-3.28-.29-47-.48-50.73-.52-5,0-9.65.17-13.91.55A15.91,15.91,0,0,0,18,59.11,15.57,15.57,0,0,0,19,62h.34A15.45,15.45,0,0,1,18.62,59.69Z" fill="#e94949"/><path d="M70.43,52.13A4.47,4.47,0,0,0,72,53.58c1.28.84,2.6,1.11,4.94,1.27a47,47,0,0,0,6.43,0,6.94,6.94,0,0,1-.5-2.94,25.62,25.62,0,0,0,.39-3.13c0-.81-.13-1-.2-1.77a10.92,10.92,0,0,1,.33-3.52,14.85,14.85,0,0,1-3.1-.11c-2.41-.35-3.63-1.15-5.1-.53a4.07,4.07,0,0,0-1.25.92C72.3,45.33,68.93,49.49,70.43,52.13Z" fill="#09222c" opacity="0.22"/><path d="M82.53,45.55a16.21,16.21,0,0,1,.46-1.7,11.33,11.33,0,0,1-2.09,0c-1.93-.21-2.08-.75-4-1.13s-2.65,0-4.57-.7c-.42-.15-.76-.31-1-.41A21.19,21.19,0,0,1,71,44c-.49,2.31-.86,2.39-1,3.92-.12,1.17.06,1.61-.16,3.32-.07.58-.15,1.06-.21,1.37.25,0,.62.06,1.07.14a13.2,13.2,0,0,1,2.3.72,10.31,10.31,0,0,0,2.68.52c1.59.14,2-.22,3.81-.07a15.78,15.78,0,0,1,1.76.23c0-.21,0-.54,0-.93.09-2,.64-2.41,1-4.33C82.41,47.42,82.19,47.19,82.53,45.55Z" fill="#2276a2"/><path d="M81.78,43.88A15.66,15.66,0,0,1,81,50.14a5.75,5.75,0,0,1-1.55,2.69,5.6,5.6,0,0,1-4.19,1.1l.38,0c1.59.14,2-.22,3.81-.07a15.78,15.78,0,0,1,1.76.23c0-.21,0-.54,0-.93.09-2,.64-2.41,1-4.33.24-1.44,0-1.67.36-3.31a16.21,16.21,0,0,1,.46-1.7C82.68,43.87,82.26,43.89,81.78,43.88Z" fill="#1b6181"/><path d="M79.62,43.6a2.68,2.68,0,0,1-.56-.18c-.37-.12-.89-.29-1.55-.44a10.33,10.33,0,0,0-1.09-.18c-.4-.06-.82-.08-1.28-.11a10.86,10.86,0,0,1-2.91-.56L71.76,42l-.22-.09h0V42l0,.35c0,.22,0,.45-.07.66a10.8,10.8,0,0,1-.27,1.24,9.8,9.8,0,0,1-.41,1.06c-.14.32-.26.62-.35.9C70,47.32,70,48.05,69.93,48a1.67,1.67,0,0,1,0-.51,7.92,7.92,0,0,1,.26-1.38,9.4,9.4,0,0,1,.32-.93,9,9,0,0,0,.38-1,10.61,10.61,0,0,0,.24-1.2c0-.22.05-.43.07-.66s0-.22,0-.33l0-.55.4.17.23.09.45.16a14.25,14.25,0,0,0,1.45.39c.48.09.94.14,1.39.18s.89.07,1.29.13a9.63,9.63,0,0,1,1.1.23,10.8,10.8,0,0,1,1.55.53A1.89,1.89,0,0,1,79.62,43.6Z" fill="#2d8fb6"/><path d="M31.16,51.25a4.44,4.44,0,0,1-1.55,1.44C28.34,53.53,27,53.8,24.68,54a47,47,0,0,1-6.43,0,6.94,6.94,0,0,0,.5-2.94,23.79,23.79,0,0,1-.39-3.13c0-.81.13-1,.19-1.77a10.64,10.64,0,0,0-.33-3.52,14.85,14.85,0,0,0,3.1-.11c2.41-.35,3.63-1.15,5.1-.53a4.07,4.07,0,0,1,1.25.92C29.29,44.45,32.67,48.6,31.16,51.25Z" fill="#09222c" opacity="0.22"/><path d="M19.06,44.66A14,14,0,0,0,18.6,43a11.33,11.33,0,0,0,2.09,0c1.94-.21,2.08-.75,4-1.13s2.65,0,4.57-.7c.43-.15.77-.31,1-.41a23.84,23.84,0,0,0,.38,2.38c.49,2.31.86,2.4,1,3.92.11,1.17-.06,1.61.15,3.32.07.58.16,1.06.22,1.37a9.29,9.29,0,0,0-1.08.15,13,13,0,0,0-2.3.71,10.92,10.92,0,0,1-2.67.53c-1.6.13-2-.23-3.82-.08-.75.06-1.35.16-1.76.23,0-.21,0-.53,0-.92-.09-2-.64-2.42-1-4.34C19.18,46.53,19.41,46.31,19.06,44.66Z" fill="#f49742"/><path d="M19.81,43a15.85,15.85,0,0,0,.79,6.26,5.84,5.84,0,0,0,1.55,2.69A5.56,5.56,0,0,0,26.34,53l-.37,0c-1.6.13-2-.23-3.82-.08-.75.06-1.35.16-1.76.23,0-.21,0-.53,0-.92-.09-2-.64-2.42-1-4.34-.24-1.44,0-1.66-.36-3.31A14,14,0,0,0,18.6,43,11,11,0,0,0,19.81,43Z" fill="#d27611"/><path d="M22,42.71a2.69,2.69,0,0,0,.57-.17,11.32,11.32,0,0,1,1.55-.44,7.93,7.93,0,0,1,1.09-.19c.39,0,.82-.08,1.27-.11a10.53,10.53,0,0,0,1.42-.17,10.7,10.7,0,0,0,1.5-.39l.46-.17.23-.09h0v.14c0,.12,0,.23,0,.35s0,.45.07.67a8.87,8.87,0,0,0,.28,1.23,7.57,7.57,0,0,0,.41,1.06,9.44,9.44,0,0,1,.34.9c.35,1.12.4,1.84.44,1.84a1.43,1.43,0,0,0,0-.52,8.09,8.09,0,0,0-.26-1.38,7.37,7.37,0,0,0-.32-.93,8.55,8.55,0,0,1-.62-2.24c0-.22-.05-.43-.06-.65s0-.23,0-.34l0-.55-.41.17-.22.09-.46.16a11.13,11.13,0,0,1-1.45.39,11.51,11.51,0,0,1-1.39.18c-.45,0-.88.07-1.28.13A9.38,9.38,0,0,0,24,41.9a10.18,10.18,0,0,0-1.54.53A2.09,2.09,0,0,0,22,42.71Z" fill="#f5a35e"/></svg>