<svg xmlns="http://www.w3.org/2000/svg" viewBox="0 0 100 100"><title>Untitled-1</title><g style="isolation:isolate"><g id="Layer_1" data-name="Layer 1"><path d="M19.45,58.06s2.82-13.84,15-13.84S48.12,58.06,48.12,58.06Z" fill="#df5252"/><path d="M25.36,43.83s10.84-2,16.55-.11c1.53-3.95,4.7-23-7.11-23.29C22.09,20.14,24.2,40.89,25.36,43.83Z" fill="#6e5b56"/><circle cx="25.6" cy="32.02" r="2.25" transform="translate(-10.22 51.98) rotate(-80.49)" fill="#e58383"/><circle cx="42.31" cy="32.02" r="2.25" transform="matrix(0.16, -0.99, 0.99, 0.16, 3.92, 68.66)" fill="#e58383"/><path d="M36.86,39.49l-.38-5-3.9.53-.64,7.31A7,7,0,0,0,36.86,39.49Z" fill="#e49682"/><path d="M26.49,27.23a6.08,6.08,0,0,0-.21,1.8,20.6,20.6,0,0,0,.06,3.6,6.86,6.86,0,0,0,3.54,5.56,9.07,9.07,0,0,0,7.36.61A6.83,6.83,0,0,0,41.08,35a16.63,16.63,0,0,0,.7-6.71c-.4-8-6.9-7.87-6.9-7.87A11.23,11.23,0,0,0,26.49,27.23Z" fill="#f6b7a5"/><path d="M31.94,42.33l-.28,3.22s.11,1.61,2.72,1.91,2.91-2.41,2.91-2.41l-.43-5.56A7,7,0,0,1,31.94,42.33Z" fill="#f6b7a5"/><path d="M30.08,31.63c0,.44-.18.79-.4.79s-.4-.35-.4-.79.18-.8.4-.8S30.08,31.18,30.08,31.63Z" fill="#323a43"/><path d="M38.67,32c0,.44-.18.8-.4.8s-.4-.36-.4-.8.18-.8.4-.8S38.67,31.51,38.67,32Z" fill="#323a43"/><path d="M34.08,32a3.72,3.72,0,0,1-.36.48c-.11.11-.21.3-.14.17s0,0,.05,0a.55.55,0,0,0,.45.11.54.54,0,0,1-.57.46.84.84,0,0,1-.41-.14.6.6,0,0,1-.27-.54c.13-.51.41-.52.6-.6A1.11,1.11,0,0,1,34.08,32Z" fill="#323a43"/><path d="M33,33.9a10.33,10.33,0,0,0,1.13.16,3.33,3.33,0,0,0,1.07-.16.94.94,0,0,1-.35.65,1.07,1.07,0,0,1-.76.26A1.16,1.16,0,0,1,33,33.9Z" fill="#323a43"/><path d="M25.6,28.4s8.72-.82,8.87-5.75c.7,4.17,4.44,4.65,8.28,5.5,0,0-1.21-8.39-8.78-7.72a8.26,8.26,0,0,0-4.2,2A14.62,14.62,0,0,0,25.6,28.4Z" fill="#6e5b56"/><path d="M35,20.79s.51-2.91-.19-3.06-.35,2.71-.35,2.71-.22-1.77-1.27-1.73S34.23,20.75,35,20.79Z" fill="#6e5b56"/><circle cx="28.88" cy="31.95" r="3.1" fill="none" stroke="#fff" stroke-miterlimit="10" stroke-width="0.5"/><circle cx="38.86" cy="31.95" r="3.1" fill="none" stroke="#fff" stroke-miterlimit="10" stroke-width="0.5"/><path d="M31.94,31.79s2.25-1.8,3.82.16" fill="none" stroke="#fff" stroke-miterlimit="10" stroke-width="0.5"/><path d="M37.25,29.9a1.46,1.46,0,0,1,1.33-1.23,1.43,1.43,0,0,1,1,.24,1.19,1.19,0,0,1,.54.77c-.34,0-.59-.05-.82-.05a3.7,3.7,0,0,0-.59,0C38.31,29.69,37.9,29.79,37.25,29.9Z" fill="#6e5b56"/><path d="M30.56,29.88a5.9,5.9,0,0,0-1.48-.21c-.22,0-.44,0-.69,0a6.74,6.74,0,0,1-.89,0,1.7,1.7,0,0,1,1.6-1,1.75,1.75,0,0,1,1,.34A1.19,1.19,0,0,1,30.56,29.88Z" fill="#6e5b56"/><path d="M57.85,27.58a14.24,14.24,0,0,0-.73,3.76c-.68,3.77-3.66,6.62-6,9.68a5.3,5.3,0,0,0-1.06,2,2,2,0,0,0,.62,2.08,2.23,2.23,0,0,1,.75-1.75,6.44,6.44,0,0,1,1.67-1.05A4,4,0,0,0,52,44.83c0,1.52,1.28,2.7,2.53,3.57,2.79,2,6.12,3.47,9.5,3.11a14.68,14.68,0,0,0,5.94-2.27c2-1.23,2.67-3.65,3.18-5.84.89-3.81.79-7.73.73-11.62,0-1.34-.72-2.25-1.37-3.46a6.64,6.64,0,0,0-4.87-3.12,18.41,18.41,0,0,0-6,.31C60.28,25.74,58.45,26.34,57.85,27.58Z" fill="#d15c5d"/><path d="M66.43,55.13c6.74.24,7.76-5.32,7.72-8.94A12.78,12.78,0,0,0,66,43.55a13.86,13.86,0,0,0-8.34,2.63C57.64,48.37,58.16,54.84,66.43,55.13Z" fill="#f6b7a5"/><path d="M74.15,46.19c0,3.62-1,9.18-7.72,8.94-8.27-.29-8.79-6.76-8.73-9-5.77,4.18-7.34,11.88-7.34,11.88H80.42S79.54,50.37,74.15,46.19Z" fill="#323a43"/><circle cx="56.81" cy="30.76" r="2.36" transform="translate(13.78 78.95) rotate(-76.67)" fill="#e58383"/><circle cx="74.33" cy="30.76" r="2.36" transform="translate(27.26 96) rotate(-76.67)" fill="#e58383"/><path d="M68.62,39.33l-.4-5.24-4.09.56-.67,7.66A7.38,7.38,0,0,0,68.62,39.33Z" fill="#e49682"/><path d="M60.58,28.08c4.71-1,5.65-5.71,7.75-6.27-.53.93,1.12,6.57,5.5,6.58,0-.52,0-1,0-1.52-.42-8.38-7.24-8.26-7.24-8.26s-9-.68-9.07,9.64A8.23,8.23,0,0,0,60.58,28.08Z" fill="#d15c5d"/><path d="M68.33,21.81c-2.1.56-3,5.24-7.75,6.27a8.23,8.23,0,0,1-3.11.17v.26a12.7,12.7,0,0,0,.12,2.89,7.22,7.22,0,0,0,3.7,5.83,9.57,9.57,0,0,0,7.72.64,7.15,7.15,0,0,0,4-4,14.76,14.76,0,0,0,.79-5.51C69.45,28.38,67.8,22.74,68.33,21.81Z" fill="#f6b7a5"/><path d="M63.46,42.31l-.3,3.37s.12,1.69,2.85,2,3-2.53,3-2.53l-.44-5.83A7.38,7.38,0,0,1,63.46,42.31Z" fill="#f6b7a5"/><path d="M62.3,30.2c0,.46-.19.84-.42.84s-.42-.38-.42-.84.19-.84.42-.84S62.3,29.74,62.3,30.2Z" fill="#323a43"/><path d="M70.05,30.34c0,.46-.18.84-.42.84s-.41-.38-.41-.84.18-.84.41-.84S70.05,29.88,70.05,30.34Z" fill="#323a43"/><path d="M65.7,30.76a3,3,0,0,1-.39.49c-.11.11-.22.31-.16.18s0,0,.08.06a.62.62,0,0,0,.47.11.57.57,0,0,1-.59.46.8.8,0,0,1-.43-.15.6.6,0,0,1-.27-.54.79.79,0,0,1,.62-.63A1.18,1.18,0,0,1,65.7,30.76Z" fill="#323a43"/><path d="M64.54,32.72a8,8,0,0,0,1.18.19,3.31,3.31,0,0,0,1.13-.19,1.11,1.11,0,0,1-1.17.94A1.22,1.22,0,0,1,64.54,32.72Z" fill="#323a43"/><path d="M66.85,19.18s-.65-2.29,0-2.4.39,1.89.39,1.89.42-1.27,1-.94S67.66,19.18,66.85,19.18Z" fill="#d15c5d"/><path d="M19.45,83.31s2.82-13.84,15-13.84S48.12,83.31,48.12,83.31Z" fill="#f08169"/><path d="M31.49,69.76s-2.59,2.67-.43,4.6,3.32-.94,3.32-.94,0,1.72,2,1.58,3.08-2.6,2.27-4.87C35.86,68.64,31.49,69.76,31.49,69.76Z" fill="#fff"/><circle cx="25.6" cy="57.27" r="2.25" fill="#e58383"/><circle cx="42.31" cy="57.27" r="2.25" fill="#e58383"/><path d="M36.86,65.44l-.38-5-3.9.54-.64,7.31A7.05,7.05,0,0,0,36.86,65.44Z" fill="#e49682"/><path d="M26.23,55.13a12.65,12.65,0,0,0,.11,2.75,6.86,6.86,0,0,0,3.54,5.56,9.07,9.07,0,0,0,7.36.61,6.83,6.83,0,0,0,3.84-3.78,16.63,16.63,0,0,0,.7-6.71c-.4-8-6.9-7.87-6.9-7.87S26.2,45,26.23,55.13Z" fill="#f6b7a5"/><path d="M31.94,68.29l-.28,3.22s.11,1.6,2.72,1.91S37.29,71,37.29,71l-.43-5.57A7.05,7.05,0,0,1,31.94,68.29Z" fill="#f6b7a5"/><path d="M30.84,56.74c0,.44-.18.8-.4.8s-.4-.36-.4-.8.18-.8.4-.8S30.84,56.3,30.84,56.74Z" fill="#323a43"/><ellipse cx="37.83" cy="56.87" rx="0.4" ry="0.8" fill="#323a43"/><path d="M34.08,57.27a3.72,3.72,0,0,1-.36.48c-.11.1-.21.3-.14.17s0,0,.05,0a.51.51,0,0,0,.45.12.54.54,0,0,1-.57.46.84.84,0,0,1-.41-.14.6.6,0,0,1-.27-.54.74.74,0,0,1,.6-.61A1.11,1.11,0,0,1,34.08,57.27Z" fill="#323a43"/><path d="M33,59.15a10.33,10.33,0,0,0,1.13.16,3.33,3.33,0,0,0,1.07-.16,1,1,0,0,1-.35.65,1.07,1.07,0,0,1-.76.26A1.16,1.16,0,0,1,33,59.15Z" fill="#323a43"/><path d="M25.87,57.76c.1-.15-2.72-12.5,8.47-12.53,10.63,0,7.7,11,7.7,11s-4.58-2.83-5.18-7.32c0,.24-.37.75-.49,1a8,8,0,0,1-.66.87,13.7,13.7,0,0,1-3.46,2.92,11.52,11.52,0,0,1-2.16,1,20.72,20.72,0,0,0-2.41.82A3.65,3.65,0,0,0,25.87,57.76Z" fill="#323a43"/><path d="M36.7,46.54s-1.66-3.95,2-5,5.87,2.67,1.49,6.27A5,5,0,0,0,36.7,46.54Z" fill="#323a43"/><circle cx="34.33" cy="75.82" r="0.45" fill="#fff"/><circle cx="34.33" cy="78.4" r="0.45" fill="#fff"/><path d="M73,51.73l1.16,11.36A3.42,3.42,0,0,1,78,64.37c1.41,2.06-.58,2.76-.58,2.76.22-.08,1,.81,1.07.94.57.71,1.25,2,.47,2.79a1.49,1.49,0,0,1-1.59.24C76.92,71,76.1,70.5,76,70a3,3,0,0,1-2.73,3.72c-.58-.07-7-2.25-7-2.25l-2.26,2L59,72.52s-4.17,1.8-5-1.35A3.37,3.37,0,0,1,55.76,67a3.68,3.68,0,0,1-2.25-.19,2.36,2.36,0,0,1-1.38-1.73C51.88,63.26,54,62.85,55.38,63l2.73-11.42Z" fill="#f08169"/><path d="M50.89,83.31s2.82-13.84,15-13.84S79.56,83.31,79.56,83.31Z" fill="#fdcc69"/><circle cx="57.04" cy="57.27" r="2.25" fill="#e58383"/><circle cx="73.76" cy="57.27" r="2.25" fill="#e58383"/><path d="M68.31,65.44l-.38-5L64,61l-.64,7.31A7.09,7.09,0,0,0,68.31,65.44Z" fill="#e49682"/><path d="M57.67,55.13a12.65,12.65,0,0,0,.12,2.75,6.87,6.87,0,0,0,3.53,5.56,9.1,9.1,0,0,0,7.37.61,6.83,6.83,0,0,0,3.84-3.78,16.63,16.63,0,0,0,.7-6.71c-.4-8-6.91-7.87-6.91-7.87S57.64,45,57.67,55.13Z" fill="#f6b7a5"/><path d="M63.38,68.29l-.28,3.22s.12,1.6,2.72,1.91S68.73,71,68.73,71l-.42-5.57A7.09,7.09,0,0,1,63.38,68.29Z" fill="#f6b7a5"/><ellipse cx="61.88" cy="56.74" rx="0.4" ry="0.8" fill="#323a43"/><ellipse cx="69.28" cy="56.87" rx="0.4" ry="0.8" fill="#323a43"/><path d="M65.52,57.27a2.49,2.49,0,0,1-.36.48c-.11.1-.21.3-.14.17s0,0,0,0a.54.54,0,0,0,.45.12.54.54,0,0,1-.56.46.84.84,0,0,1-.42-.14.65.65,0,0,1-.27-.54.75.75,0,0,1,.6-.61A1.11,1.11,0,0,1,65.52,57.27Z" fill="#323a43"/><path d="M64.69,59.47s.25-.42.55-.28.26.23.26.23a.77.77,0,0,1,.44-.26c.24,0,.54.26.54.26S65.68,61,64.69,59.47Z" fill="#e16768" opacity="0.64" style="mix-blend-mode:multiply"/><path d="M64.41,59.25c.51.08.84.16,1.13.17a3.75,3.75,0,0,0,1.08-.17,1,1,0,0,1-.35.66,1.09,1.09,0,0,1-.76.25A1.15,1.15,0,0,1,64.41,59.25Z" fill="#323a43"/><path d="M65.85,45.88s-.57-1.79,0-1.87.27,1.67.27,1.67.26-1.18.81-.87S66.27,46.06,65.85,45.88Z" fill="#f08169"/><path d="M69.28,56.23s.73,0,1-.47c0,.68-.8,1-.8,1Z" fill="#323a43"/><path d="M61.75,56.07s-.73,0-1-.46c0,.68.8,1,.8,1Z" fill="#323a43"/><path d="M72.84,50.67a13.22,13.22,0,0,0-.66-1.49,6.33,6.33,0,0,0-2.13-2.35,7,7,0,0,0-2.6-1,9.34,9.34,0,0,0-4.57.42,8,8,0,0,0-3.44,2.41c-.5.67-1.49,2-1.73,5.3,0,0,3.65.4,7.37-3.31A3.75,3.75,0,0,1,64,53.27s3.16-.09,3.89-2.85c2.41,1.6,1.38,3.18,1.38,3.18a5.81,5.81,0,0,0,2.65-1.34c-.05.05,0,.46,0,.54a5,5,0,0,0,.08.56,3,3,0,0,0,.38,1c.15.23.49.64.78.68s.35-.91.35-1.15A9.88,9.88,0,0,0,72.84,50.67Z" fill="#f08169"/><path d="M55.49,74.17s1.58,9.14,1.55,9.14H74l2.15-8.62a18.61,18.61,0,0,0-1.89-2.12c-.15,1.17-2.7,8.62-2.7,8.62l-12.29.19-1.65-9.21A12.75,12.75,0,0,0,55.49,74.17Z" fill="#e16768"/></g></g></svg>