<svg id="Layer_1" data-name="Layer 1" xmlns="http://www.w3.org/2000/svg" viewBox="0 0 100 100"><title>Untitled-1</title><path d="M33,74s3.37-16.53,17.86-16.53S67.21,74,67.21,74Z" fill="#df5252"/><path d="M40,57S53,54.6,59.8,56.84c1.83-4.71,5.61-27.48-8.5-27.81C36.13,28.69,38.65,53.46,40,57Z" fill="#6e5b56"/><circle cx="40.32" cy="42.88" r="2.69" transform="translate(-8.63 75.55) rotate(-80.49)" fill="#e58383"/><circle cx="60.28" cy="42.88" r="2.69" transform="translate(8.3 95.51) rotate(-80.78)" fill="#e58383"/><path d="M53.77,51.79l-.46-6-4.66.64-.76,8.73A8.42,8.42,0,0,0,53.77,51.79Z" fill="#e49682"/><path d="M41.38,37.15a7.43,7.43,0,0,0-.25,2.16,24.6,24.6,0,0,0,.08,4.29,8.2,8.2,0,0,0,4.22,6.64,10.82,10.82,0,0,0,8.79.73,8.14,8.14,0,0,0,4.59-4.51c.95-2.39,1-5.44.84-8C59.17,28.9,51.4,29,51.4,29A13.43,13.43,0,0,0,41.38,37.15Z" fill="#f6b7a5"/><path d="M47.89,55.19,47.55,59s.14,1.92,3.25,2.28,3.47-2.88,3.47-2.88l-.5-6.64A8.42,8.42,0,0,1,47.89,55.19Z" fill="#f6b7a5"/><path d="M45.67,42.4c0,.53-.21,1-.47,1s-.48-.42-.48-1,.21-.95.48-.95S45.67,41.87,45.67,42.4Z" fill="#323a43"/><path d="M55.93,42.78c0,.53-.21,1-.48,1s-.47-.43-.47-1,.21-1,.47-1S55.93,42.26,55.93,42.78Z" fill="#323a43"/><path d="M50.44,42.88a3.46,3.46,0,0,1-.46.52c-.13.12-.27.34-.21.24s0,.07.13.11a.73.73,0,0,0,.54.08.63.63,0,0,1-.66.49.91.91,0,0,1-.46-.16.7.7,0,0,1-.3-.59.89.89,0,0,1,.68-.68A1.33,1.33,0,0,1,50.44,42.88Z" fill="#323a43"/><path d="M49.12,45.12a6.72,6.72,0,0,0,1.34.26,3.22,3.22,0,0,0,1.29-.26,1.24,1.24,0,0,1-.44.73,1.26,1.26,0,0,1-.88.28A1.42,1.42,0,0,1,49.12,45.12Z" fill="#323a43"/><path d="M40.32,38.54s10.42-1,10.59-6.86c.84,5,5.3,5.56,9.89,6.57,0,0-1.45-10-10.48-9.22a9.81,9.81,0,0,0-5,2.42A17.54,17.54,0,0,0,40.32,38.54Z" fill="#6e5b56"/><path d="M51.56,29.46s.61-3.47-.23-3.66S50.91,29,50.91,29s-.27-2.11-1.52-2.07S50.62,29.41,51.56,29.46Z" fill="#6e5b56"/><circle cx="44.24" cy="42.78" r="3.7" fill="none" stroke="#fff" stroke-miterlimit="10" stroke-width="0.5"/><circle cx="56.16" cy="42.78" r="3.7" fill="none" stroke="#fff" stroke-miterlimit="10" stroke-width="0.5"/><path d="M47.89,42.59s2.69-2.14,4.57.19" fill="none" stroke="#fff" stroke-miterlimit="10" stroke-width="0.5"/><path d="M54.24,40.34a1.56,1.56,0,0,1,.56-.93,1.94,1.94,0,0,1,1-.45,1.78,1.78,0,0,1,1.13.26,1.63,1.63,0,0,1,.67.86c-.39,0-.68-.11-1-.13a2.6,2.6,0,0,0-.74,0A10.18,10.18,0,0,0,54.24,40.34Z" fill="#6e5b56"/><path d="M46.24,40.31A5.41,5.41,0,0,0,44.47,40c-.26,0-.54,0-.85,0a7.83,7.83,0,0,1-1,.06,2,2,0,0,1,.78-.8A2.25,2.25,0,0,1,44.49,39a2,2,0,0,1,1.13.38A1.45,1.45,0,0,1,46.24,40.31Z" fill="#6e5b56"/></svg>