<svg id="Layer_1" data-name="Layer 1" xmlns="http://www.w3.org/2000/svg" viewBox="0 0 100 100"><title>hd1</title><path d="M34.28,71.86a1.26,1.26,0,0,1-.71-.15,1.23,1.23,0,0,1-.28-.24q3.45-9.87,6.91-19.75l2.46,1Z" fill="#1f1815"/><path d="M65.72,71.86a1.26,1.26,0,0,0,.71-.15,1.23,1.23,0,0,0,.28-.24Q63.26,61.6,59.8,51.72l-2.46,1Z" fill="#1f1815"/><path d="M38.35,69.32a1.21,1.21,0,0,1-.71-.14,1,1,0,0,1-.28-.24l6.9-19.75,2.47,1Z" fill="#1f1815"/><path d="M61.47,69.87a1.26,1.26,0,0,0,.71-.15,1.23,1.23,0,0,0,.28-.24l-6.9-19.75-2.47,1Z" fill="#1f1815"/><path d="M36.92,39.54c-.42-1.34-1.14-4.45.64-7.17,3.06-4.71,11-4.31,14.1-4.15,3.61.18,8.77.44,11.05,3.94,1.91,3,.62,6.43.22,7.38L60.65,51.2l-22.18-.4Z" fill="#ad2321"/><path d="M37.48,35c3.06-4.71,11-4.31,14.1-4.15,3.61.18,8.77.44,11.05,3.94a6.34,6.34,0,0,1,.95,2.6,7.09,7.09,0,0,0-.87-5.19c-2.28-3.5-7.44-3.76-11.05-3.94-3.08-.16-11-.56-14.1,4.15a7.59,7.59,0,0,0-1.08,5.1A6.81,6.81,0,0,1,37.48,35Z" fill="#c12e2b"/><path d="M62.93,39.54a10.69,10.69,0,0,0,.7-2.45,14.1,14.1,0,0,0-2.36,3,24.28,24.28,0,0,0-1.71,4c-1.19,3.25-.87,3.24-1.29,3.7-1.24,1.36-3,.61-8.71.65-4.68,0-5.13.56-6.23-.18-2-1.36-1.47-3.76-3.76-7.58A15.05,15.05,0,0,0,36.44,37a10.65,10.65,0,0,0,.2,1.45c.09.43.19.79.28,1.08L38.47,50.8l22.18.4Z" fill="#8e1d1b"/><path d="M63.15,59.67H37.2V50.2a89.87,89.87,0,0,1,25.95,0Z" fill="#d3312f"/><path d="M35.08,54.31c1.66.37,4.73-3.07,5-4.7-1.46.14-2.87.3-4.24.49a5.64,5.64,0,0,0-.74.81Z" fill="#8e1d1b"/><path d="M64.21,54.1V50.2q-2.05-.3-4.23-.51C60.4,51.16,62.6,53.68,64.21,54.1Z" fill="#8e1d1b"/><rect x="39" y="59.2" width="22.34" height="2.67" fill="#ad2321"/><path d="M63.38,37.76A18.7,18.7,0,0,1,68.71,41a19,19,0,0,1,2,2l-7.48,9.6-3.18-2.78a13.91,13.91,0,0,1,3.33-12.11Z" fill="#c12e2b"/><path d="M36.62,37.76A18.7,18.7,0,0,0,31.29,41a19,19,0,0,0-2,2l7.48,9.6L40,49.87a13.91,13.91,0,0,0-3.33-12.11Z" fill="#c12e2b"/><path d="M36.62,37.76A18.7,18.7,0,0,0,31.29,41a19,19,0,0,0-2,2l2.4,2.41a32.34,32.34,0,0,1,2.84-2.53,33.81,33.81,0,0,1,3.9-2.65A14.9,14.9,0,0,0,36.62,37.76Z" fill="#d3312f"/><path d="M63.38,37.76A18.7,18.7,0,0,1,68.71,41a19,19,0,0,1,2,2l-2.4,2.41a32.34,32.34,0,0,0-2.84-2.53,33.81,33.81,0,0,0-3.9-2.65A14.9,14.9,0,0,1,63.38,37.76Z" fill="#d3312f"/><path d="M70.22,42.51a2.26,2.26,0,0,0-1.39-.17,3.24,3.24,0,0,0-1.65.94,10.87,10.87,0,0,0-2,2.47,25.33,25.33,0,0,0-3.1,6,29.87,29.87,0,0,0-1.8,10.15l4-.23a63,63,0,0,0,4.19-6.94s4.13-8,2.74-11.09A2.46,2.46,0,0,0,70.22,42.51Z" fill="#ad2321"/><path d="M60.64,61.87a30.13,30.13,0,0,1,1.8-10.16,25.14,25.14,0,0,1,3.1-6,10.53,10.53,0,0,1,2-2.47,3.13,3.13,0,0,1,1.64-1h0l-.37,0a3.24,3.24,0,0,0-1.65.94,10.87,10.87,0,0,0-2,2.47,25.33,25.33,0,0,0-3.1,6,29.87,29.87,0,0,0-1.8,10.15l4-.23v0Z" fill="#8e1d1b"/><path d="M29.78,42.51a2.26,2.26,0,0,1,1.39-.17,3.24,3.24,0,0,1,1.65.94,10.87,10.87,0,0,1,2,2.47,25.33,25.33,0,0,1,3.1,6,29.87,29.87,0,0,1,1.8,10.15l-4-.23a63,63,0,0,1-4.19-6.94s-4.13-8-2.74-11.09A2.46,2.46,0,0,1,29.78,42.51Z" fill="#ad2321"/><path d="M30.82,42.34a3.17,3.17,0,0,1,1.64.94,10.76,10.76,0,0,1,2,2.47,25.33,25.33,0,0,1,3.1,6,30,30,0,0,1,1.8,10.13l.35,0a29.87,29.87,0,0,0-1.8-10.15,25.33,25.33,0,0,0-3.1-6,10.87,10.87,0,0,0-2-2.47,3.24,3.24,0,0,0-1.65-.94,2.44,2.44,0,0,0-.66,0Z" fill="#8e1d1b"/><path d="M51.62,52.69c-4.75,0-9.17.16-13.22.52a14.61,14.61,0,0,0,.33,3.72,14.46,14.46,0,0,0,.89,2.74H60.38a20.59,20.59,0,0,0,.81-2.82,21.61,21.61,0,0,0,.42-3.67C58.49,52.91,55.15,52.73,51.62,52.69Z" fill="#c12e2b"/><path d="M60.94,53.82h0a18.71,18.71,0,0,1-.38,2.9A19.66,19.66,0,0,1,60,59H40a13,13,0,0,1-.68-2.2A14,14,0,0,1,39,53.85l.41,0-.32-.19-.69-.42a9.77,9.77,0,0,0-.34,1.72,10.44,10.44,0,0,0,.27,3.45A11.66,11.66,0,0,0,38.87,60l.19.43H61l.17-.47a9.56,9.56,0,0,0,.54-2.17,15.06,15.06,0,0,0,.07-2.22c0-.6-.05-1.41-.13-2.39Z" fill="#8e1d1b"/><path d="M51.62,52.69c-4.75,0-9.17.16-13.22.52a14.61,14.61,0,0,0,.33,3.72,14.46,14.46,0,0,0,.89,2.74H60.38a20.59,20.59,0,0,0,.81-2.82,21.61,21.61,0,0,0,.42-3.67C58.49,52.91,55.15,52.73,51.62,52.69Z" fill="#c12e2b"/><path d="M51.62,52.69h-.35c3.53,0,6.86.22,10,.49a19.74,19.74,0,0,1-.42,3.67,20.66,20.66,0,0,1-.8,2.82h.35a20.59,20.59,0,0,0,.81-2.82,21.61,21.61,0,0,0,.42-3.67C58.49,52.91,55.15,52.73,51.62,52.69Z" fill="#e94949"/><path d="M38.76,53.21c3.52-.32,7.33-.51,11.4-.52-4.2,0-8.13.2-11.76.52a14.61,14.61,0,0,0,.33,3.72,14.46,14.46,0,0,0,.89,2.74H40a15.22,15.22,0,0,1-.89-2.74A14.54,14.54,0,0,1,38.76,53.21Z" fill="#e94949"/><path d="M38.4,53.56a130.5,130.5,0,0,1,13.22-.51c3.53,0,6.86.21,10,.48,0-.12,0-.24,0-.35-3.12-.27-6.46-.45-10-.49-4.75,0-9.17.16-13.22.52,0,.25,0,.51,0,.8C38.39,53.85,38.4,53.7,38.4,53.56Z" fill="#e94949"/></svg>