<svg id="Layer_1" data-name="Layer 1" xmlns="http://www.w3.org/2000/svg" viewBox="0 0 100 100"><title>Untitled-1</title><path d="M26.86,27l-3-.8s-1.82,5.64.71,7.57S26.86,27,26.86,27Z" fill="#6e5b56"/><path d="M16.89,62.88s3.19-15.63,16.9-15.63S49.28,62.88,49.28,62.88Z" fill="#323a43"/><circle cx="23.84" cy="33.47" r="2.54" transform="translate(-10.95 11.6) rotate(-22.39)" fill="#e58383"/><circle cx="42.72" cy="33.47" r="2.54" transform="translate(-11.15 40.01) rotate(-45)" fill="#e58383"/><path d="M36.57,42.7l-.43-5.65-4.41.61L31,45.92A8,8,0,0,0,36.57,42.7Z" fill="#e49682"/><path d="M26.11,27.39c1.1,1.11-.18,3.83-1.56,3.66a14.1,14.1,0,0,0,.13,3.11,7.78,7.78,0,0,0,4,6.28,10.31,10.31,0,0,0,8.32.69,7.75,7.75,0,0,0,4.35-4.28,18.88,18.88,0,0,0,.79-7.57c-.46-9-7.81-8.9-7.81-8.9S28.82,20.62,26.11,27.39Z" fill="#f6b7a5"/><path d="M31,45.92l-.32,3.63s.13,1.82,3.07,2.16S37,49,37,49l-.47-6.29A8,8,0,0,1,31,45.92Z" fill="#f6b7a5"/><ellipse cx="29.31" cy="32.87" rx="0.45" ry="0.9" fill="#323a43"/><path d="M38.11,33c0,.5-.2.9-.45.9s-.45-.4-.45-.9.2-.9.45-.9S38.11,32.52,38.11,33Z" fill="#323a43"/><path d="M33.42,33.47A3.37,3.37,0,0,1,33,34c-.13.11-.25.32-.19.21s0,.05.11.09a.64.64,0,0,0,.51.09.6.6,0,0,1-.63.48.81.81,0,0,1-.44-.16.61.61,0,0,1-.29-.56.81.81,0,0,1,.65-.66A1.23,1.23,0,0,1,33.42,33.47Z" fill="#323a43"/><path d="M32.17,35.59a8.49,8.49,0,0,0,1.27.23,3.43,3.43,0,0,0,1.22-.23,1.17,1.17,0,0,1-.42.71,1.21,1.21,0,0,1-.83.27A1.34,1.34,0,0,1,32.17,35.59Z" fill="#323a43"/><path d="M40.85,29.3c-.25-.73-.34-1.49-.56-2.22a2.77,2.77,0,0,0-3.43-2.24c-2,.29-3.78,1.54-5.71,2.22a10.58,10.58,0,0,1-6.65.11,5.93,5.93,0,0,1-2.1-1.09,4.32,4.32,0,0,1-1.32-4.36,1.66,1.66,0,0,1,.41-.76.73.73,0,0,1,.8-.17c.42.2.44.75.52,1.15a3.53,3.53,0,0,0,.62,1.68c.29-.47.13-1.24.18-1.78a2.31,2.31,0,0,1,.78-1.64.52.52,0,0,1,.39-.14c.36.05.41.55.39.92a4.83,4.83,0,0,0,.3,1.92,5.15,5.15,0,0,1,.63-3.25.7.7,0,0,1,.64-.36c.29.06.42.41.42.7a2.15,2.15,0,0,0,.06.88.91.91,0,0,0,.84.47,2.87,2.87,0,0,0,1-.24,29.88,29.88,0,0,1,7.49-1.8,5.77,5.77,0,0,1,2.92.32,4.17,4.17,0,0,1,1.84,1.83,9.19,9.19,0,0,1,.83,2.5,21,21,0,0,1,.42,5c0,.44.13,1.77-.56,1.74S41,29.74,40.85,29.3Z" fill="#6e5b56"/><polygon points="47.8 57.45 18.86 57.45 19.13 56.92 47.58 56.92 47.8 57.45" fill="#5667ae"/><polygon points="48.87 60.76 17.5 60.76 17.68 60.23 48.73 60.23 48.87 60.76" fill="#5667ae"/><path d="M36.31,31.07a1.5,1.5,0,0,1,.52-.89,1.8,1.8,0,0,1,1-.44,1.66,1.66,0,0,1,1.07.25,1.4,1.4,0,0,1,.63.84c-.37,0-.65-.1-.9-.11a3.23,3.23,0,0,0-.7,0A14,14,0,0,0,36.31,31.07Z" fill="#323a43"/><path d="M30.76,30.84a2.89,2.89,0,0,0-1.62-.37c-.25,0-.52.05-.83.06a5.11,5.11,0,0,1-1,.08,2.11,2.11,0,0,1,.74-.8,2.15,2.15,0,0,1,1.07-.34,1.76,1.76,0,0,1,1.14.36A1.23,1.23,0,0,1,30.76,30.84Z" fill="#323a43"/><path d="M50.92,62.88s3.16-15.5,16.76-15.5,15.37,15.5,15.37,15.5Z" fill="#df5252"/><circle cx="57.81" cy="33.7" r="2.52" fill="#e58383"/><circle cx="76.55" cy="33.7" r="2.52" fill="#e58383"/><path d="M70.44,42.86,70,37.26l-4.37.6-.72,8.19A7.89,7.89,0,0,0,70.44,42.86Z" fill="#e49682"/><path d="M58.52,31.3a13.83,13.83,0,0,0,.13,3.08,7.69,7.69,0,0,0,4,6.23,10.18,10.18,0,0,0,8.25.69,7.65,7.65,0,0,0,4.31-4.24A18.66,18.66,0,0,0,76,29.54c-.45-9-7.74-8.83-7.74-8.83S58.48,20,58.52,31.3Z" fill="#f6b7a5"/><path d="M64.92,46.05l-.31,3.6s.13,1.81,3,2.15,3.26-2.7,3.26-2.7l-.47-6.24A7.89,7.89,0,0,1,64.92,46.05Z" fill="#f6b7a5"/><path d="M63.69,33.1c0,.49-.21.9-.45.9s-.45-.41-.45-.9.2-.9.45-.9S63.69,32.61,63.69,33.1Z" fill="#323a43"/><path d="M72,33.25c0,.5-.2.9-.44.9s-.45-.4-.45-.9.2-.89.45-.89S72,32.76,72,33.25Z" fill="#323a43"/><path d="M67.32,33.7a6.38,6.38,0,0,1-.42.51c-.13.11-.25.32-.19.21s0,0,.1.08a.67.67,0,0,0,.51.1.6.6,0,0,1-.63.47.89.89,0,0,1-.44-.15.69.69,0,0,1-.29-.57.82.82,0,0,1,.65-.65A1.23,1.23,0,0,1,67.32,33.7Z" fill="#323a43"/><path d="M66.08,35.8a8.18,8.18,0,0,0,1.26.23,3.34,3.34,0,0,0,1.2-.23,1.09,1.09,0,0,1-.4.7,1.21,1.21,0,0,1-.84.28A1.32,1.32,0,0,1,66.08,35.8Z" fill="#323a43"/><path d="M70.55,30.8a1.19,1.19,0,0,1,1.26-1.1,1.29,1.29,0,0,1,1.26,1.1,6.51,6.51,0,0,1-.76-.06c-.21,0-.37,0-.53,0A5.8,5.8,0,0,0,70.55,30.8Z" fill="#323a43"/><path d="M61.55,30.8a1.19,1.19,0,0,1,1.27-1.1,1.28,1.28,0,0,1,1.25,1.1,6.7,6.7,0,0,1-.76-.06c-.21,0-.37,0-.52,0A5.88,5.88,0,0,0,61.55,30.8Z" fill="#323a43"/><path d="M58.52,31.3c0,.11,1.21-5.38,2.78-6.14a6,6,0,0,1-1,1.51s2.42-.28,3.35-1.94a2,2,0,0,1-.45,1.71s4.39,2.25,7.2-.71a1.74,1.74,0,0,1,0,1.65s2.71,0,3.25-1.75A16.73,16.73,0,0,1,76,31.18s1.1-10.65-8.25-10.48C58.16,20.89,58.66,29.58,58.52,31.3Z" fill="#323a43"/><path d="M68.54,20.92s-.5-1.82.15-2,.13,2,.13,2,.45-1.85.87-1.37S69.41,21.6,68.54,20.92Z" fill="#323a43"/><path d="M41.08,50s-1.57-4.87,2.4-6.8,14.32-.09,14.32-.09,1.21,6.85-.07,7.75S41.08,50,41.08,50Z" fill="#323a43"/><circle cx="41.08" cy="52.1" r="2.43" transform="translate(-19.09 80.06) rotate(-76.67)" fill="#e58383"/><circle cx="59.14" cy="52.1" r="2.43" transform="translate(-15.39 26.45) rotate(-22.39)" fill="#e58383"/><path d="M53.25,60.93l-.41-5.4-4.22.58L47.93,64A7.63,7.63,0,0,0,53.25,60.93Z" fill="#e49682"/><path d="M56.6,54.69c-.24.51-.36,1.07-.63,1.57a3,3,0,0,1-3.81,1.24A5.49,5.49,0,0,0,51,56.94a1.37,1.37,0,0,0-1.15.31c-.27.23-.44.56-.74.72a1.44,1.44,0,0,1-.71.15,3.61,3.61,0,0,1-3.08-1.6,22,22,0,0,0-1.89-2.85,6.85,6.85,0,0,0-1.52-1.1l0,.19a7.43,7.43,0,0,0,3.82,6,9.85,9.85,0,0,0,8,.66,7.41,7.41,0,0,0,4.15-4.09,11.15,11.15,0,0,0,.6-2.29A3,3,0,0,0,56.6,54.69Z" fill="#323a43"/><path d="M58.57,48.09c-.44-8.63-7.47-8.5-7.47-8.5s-9.38-.73-9.34,10.2a12.73,12.73,0,0,0,.1,2.78,6.85,6.85,0,0,1,1.52,1.1c1.15,1.17,1.56,3,3,3.92a3.73,3.73,0,0,0,1.9.53,1.51,1.51,0,0,0,.94-.21,4.28,4.28,0,0,0,.49-.55A1.47,1.47,0,0,1,51,57a5.48,5.48,0,0,1,1.15.54,3,3,0,0,0,2.16.15A2.94,2.94,0,0,0,56,56.26c.27-.5.39-1.06.63-1.57a3,3,0,0,1,1.81-1.64A25.93,25.93,0,0,0,58.57,48.09Z" fill="#f6b7a5"/><path d="M34.43,80.23s3-14.94,16.16-14.94S65.41,80.23,65.41,80.23Z" fill="#b7d7da"/><path d="M47.93,64l-.3,3.47a17.47,17.47,0,0,1,3,.26,2.46,2.46,0,0,0,3-2.17l-.35-4.64A7.63,7.63,0,0,1,47.93,64Z" fill="#f6b7a5"/><path d="M46.74,51.53c0,.47-.2.86-.43.86s-.44-.39-.44-.86.2-.87.44-.87S46.74,51.05,46.74,51.53Z" fill="#323a43"/><ellipse cx="54.3" cy="51.67" rx="0.43" ry="0.86" fill="#323a43"/><path d="M51.06,52.1a2.73,2.73,0,0,1-.4.5c-.12.11-.23.31-.17.2s0,0,.09.06a.61.61,0,0,0,.48.11.58.58,0,0,1-.6.47.78.78,0,0,1-.43-.16.63.63,0,0,1-.29-.55.8.8,0,0,1,.63-.64A1.25,1.25,0,0,1,51.06,52.1Z" fill="#323a43"/><path d="M49.4,55a9.18,9.18,0,0,0,1.22.21A3.27,3.27,0,0,0,51.78,55a1.08,1.08,0,0,1-.39.69,1.17,1.17,0,0,1-.81.27A1.27,1.27,0,0,1,49.4,55Z" fill="#323a43"/><path d="M53,50a1.42,1.42,0,0,1,.29-1.21,1.62,1.62,0,0,1,1.09-.57,1.55,1.55,0,0,1,1.23.37,1.35,1.35,0,0,1,.45,1.18c-.5.14-.79.2-1,.29a2.41,2.41,0,0,1-.46.14A10.67,10.67,0,0,1,53,50Z" fill="#323a43"/><path d="M47.7,49.72a4.68,4.68,0,0,0-1.53.16,3.07,3.07,0,0,1-.66-.07,4.79,4.79,0,0,1-1.11-.31,1.71,1.71,0,0,1,1.71-1.61,1.75,1.75,0,0,1,1.3.5A1.22,1.22,0,0,1,47.7,49.72Z" fill="#323a43"/><path d="M53,54c-.75.29-1.27-1.5-2.19-.8,0,0,0,0-.15,0v0h-.1v0c-.12,0-.16,0-.16,0-.91-.7-1.43,1.09-2.18.8.67.53,1.12.68,2.39,0C51.86,54.64,52.31,54.49,53,54Z" fill="#323a43"/><path d="M58.3,49.55c-1.17-.31-2.06-6.39-4-6.49s-8.28,6-11.79,3.26-2.8-6.29-2.13-6.56.93,1.44.93,1.44-.2-1.87.55-2,.85,1.64.85,1.64-.44-2.17.8-2.2.57,2.1.57,2.1,8.18-5.08,10.65-1.15C59.9,40.65,59.47,49.86,58.3,49.55Z" fill="#323a43"/><path d="M54.61,39.86s.32-1.72.75-1.77S55,39.64,55,39.64s.72-.94.94-.66S55,40.1,54.61,39.86Z" fill="#323a43"/><path d="M47.82,65.25l2.77,2.49-1.56,3s-2.68-2.12-2.55-5c1.51-2.5,1.44-1.66,1.44-1.66Z" fill="#a5b9b9"/><path d="M53.53,65.25l-2.94,2.49,1.73,3s2.68-2.12,2.55-5c-1.51-2.5-1.43-1.66-1.43-1.66Z" fill="#a5b9b9"/><path d="M50.94,70.78a.33.33,0,1,1-.33-.32A.32.32,0,0,1,50.94,70.78Z" fill="#fff"/><path d="M50.94,76.09a.33.33,0,1,1-.65,0,.33.33,0,0,1,.65,0Z" fill="#fff"/></svg>