<svg id="Layer_1" data-name="Layer 1" xmlns="http://www.w3.org/2000/svg" viewBox="0 0 100 100"><title>Untitled-1</title><path d="M26,35.7l-3.13-.82s-1.89,5.85.74,7.86S26,35.7,26,35.7Z" fill="#6e5b56"/><path d="M15.68,73S19,56.73,33.23,56.73,49.33,73,49.33,73Z" fill="#323a43"/><circle cx="22.9" cy="42.41" r="2.64" transform="translate(-14.43 11.92) rotate(-22.39)" fill="#e58383"/><circle cx="42.52" cy="42.41" r="2.64" transform="translate(-17.53 42.48) rotate(-45)" fill="#e58383"/><path d="M36.12,52l-.45-5.87-4.58.63-.75,8.58A8.32,8.32,0,0,0,36.12,52Z" fill="#e49682"/><path d="M25.26,36.1c1.14,1.15-.19,4-1.62,3.79a15.17,15.17,0,0,0,.13,3.23,8.08,8.08,0,0,0,4.15,6.52,10.63,10.63,0,0,0,8.64.72,8,8,0,0,0,4.51-4.44c.94-2.34,1-5.34.82-7.87-.46-9.38-8.1-9.24-8.1-9.24S28.07,29.06,25.26,36.1Z" fill="#f6b7a5"/><path d="M30.34,55.34,30,59.11s.14,1.89,3.19,2.25,3.42-2.83,3.42-2.83L36.12,52A8.32,8.32,0,0,1,30.34,55.34Z" fill="#f6b7a5"/><ellipse cx="28.58" cy="41.78" rx="0.47" ry="0.94" fill="#323a43"/><path d="M37.73,41.94c0,.52-.21.94-.47.94s-.47-.42-.47-.94S37,41,37.26,41,37.73,41.42,37.73,41.94Z" fill="#323a43"/><path d="M32.85,42.41a2.91,2.91,0,0,1-.45.51c-.13.12-.26.34-.2.24s0,.06.12.1a.69.69,0,0,0,.53.08.62.62,0,0,1-.65.49.91.91,0,0,1-.46-.16.66.66,0,0,1-.29-.58.84.84,0,0,1,.67-.67A1.21,1.21,0,0,1,32.85,42.41Z" fill="#323a43"/><path d="M31.55,44.61a7.06,7.06,0,0,0,1.32.25,3.23,3.23,0,0,0,1.26-.25,1.16,1.16,0,0,1-.43.72,1.24,1.24,0,0,1-.86.28A1.4,1.4,0,0,1,31.55,44.61Z" fill="#323a43"/><path d="M40.56,38.07c-.25-.75-.35-1.54-.57-2.3a3.44,3.44,0,0,0-1.27-2,3.32,3.32,0,0,0-2.3-.38c-2.11.3-3.92,1.6-5.93,2.31a11,11,0,0,1-6.91.11,6.09,6.09,0,0,1-2.17-1.13A4.46,4.46,0,0,1,20,30.2a1.74,1.74,0,0,1,.43-.79.77.77,0,0,1,.83-.18c.44.22.46.78.54,1.2a3.72,3.72,0,0,0,.65,1.75c.29-.5.12-1.29.18-1.85a2.4,2.4,0,0,1,.81-1.71.56.56,0,0,1,.4-.14c.38.05.43.57.41.95a5.06,5.06,0,0,0,.32,2,5.27,5.27,0,0,1,.65-3.38c.16-.22.4-.43.66-.37s.43.42.44.73a2.08,2.08,0,0,0,.06.9,1,1,0,0,0,.88.5,3.05,3.05,0,0,0,1-.25,30.89,30.89,0,0,1,7.78-1.87,6,6,0,0,1,3,.33A4.38,4.38,0,0,1,41,29.92a9.57,9.57,0,0,1,.86,2.6,22.62,22.62,0,0,1,.44,5.19c0,.46.13,1.84-.59,1.8S40.72,38.53,40.56,38.07Z" fill="#6e5b56"/><polygon points="47.79 67.32 17.72 67.32 18.01 66.76 47.56 66.76 47.79 67.32" fill="#5667ae"/><polygon points="48.9 70.75 16.31 70.75 16.5 70.2 48.75 70.2 48.9 70.75" fill="#5667ae"/><path d="M35.86,39.91A1.53,1.53,0,0,1,36.4,39a1.86,1.86,0,0,1,1-.45,1.7,1.7,0,0,1,1.11.26,1.51,1.51,0,0,1,.66.85c-.38,0-.67-.11-.94-.12a2.47,2.47,0,0,0-.72,0A11.14,11.14,0,0,0,35.86,39.91Z" fill="#323a43"/><path d="M30.08,39.68a2.88,2.88,0,0,0-1.68-.41c-.26,0-.55,0-.86.07a5.37,5.37,0,0,1-1,.09,2.22,2.22,0,0,1,.76-.82,2.33,2.33,0,0,1,1.11-.34,1.81,1.81,0,0,1,1.18.37A1.28,1.28,0,0,1,30.08,39.68Z" fill="#323a43"/><path d="M51,73s3.28-16.11,17.41-16.11S84.41,73,84.41,73Z" fill="#df5252"/><circle cx="58.19" cy="42.65" r="2.62" fill="#e58383"/><circle cx="77.65" cy="42.65" r="2.62" fill="#e58383"/><path d="M71.31,52.16l-.45-5.82L66.32,47l-.75,8.51A8.23,8.23,0,0,0,71.31,52.16Z" fill="#e49682"/><path d="M58.93,40.15a13.73,13.73,0,0,0,.13,3.2,8,8,0,0,0,4.11,6.48,10.64,10.64,0,0,0,8.58.71,7.94,7.94,0,0,0,4.47-4.41c.93-2.32.94-5.3.82-7.81-.47-9.3-8-9.16-8-9.16S58.89,28.38,58.93,40.15Z" fill="#f6b7a5"/><path d="M65.57,55.47l-.32,3.75s.13,1.87,3.16,2.23,3.39-2.81,3.39-2.81l-.49-6.48A8.23,8.23,0,0,1,65.57,55.47Z" fill="#f6b7a5"/><path d="M64.29,42c0,.52-.21.93-.47.93s-.46-.41-.46-.93.21-.93.46-.93S64.29,41.51,64.29,42Z" fill="#323a43"/><path d="M72.9,42.18c0,.51-.21.93-.46.93s-.47-.42-.47-.93.21-.93.47-.93S72.9,41.67,72.9,42.18Z" fill="#323a43"/><path d="M68.07,42.65a6.22,6.22,0,0,1-.45.51c-.13.12-.26.33-.2.23s0,.06.11.09a.71.71,0,0,0,.54.1.65.65,0,0,1-.65.48A.88.88,0,0,1,67,43.9a.69.69,0,0,1-.29-.58c.14-.54.45-.57.66-.67A1.33,1.33,0,0,1,68.07,42.65Z" fill="#323a43"/><path d="M66.77,44.83a8.09,8.09,0,0,0,1.31.25,3.46,3.46,0,0,0,1.26-.25,1.21,1.21,0,0,1-.43.72,1.26,1.26,0,0,1-.86.28A1.39,1.39,0,0,1,66.77,44.83Z" fill="#323a43"/><path d="M71.42,39.64a1.23,1.23,0,0,1,1.31-1.13A1.34,1.34,0,0,1,74,39.64a6.51,6.51,0,0,1-.78-.09c-.21,0-.38,0-.55,0A4.92,4.92,0,0,0,71.42,39.64Z" fill="#323a43"/><path d="M62.08,39.64a1.23,1.23,0,0,1,1.31-1.13,1.34,1.34,0,0,1,1.3,1.13,6,6,0,0,1-.78-.09c-.22,0-.39,0-.55,0A4.92,4.92,0,0,0,62.08,39.64Z" fill="#323a43"/><path d="M58.93,40.15c0,.11,1.26-5.59,2.88-6.38a6,6,0,0,1-1,1.57s2.52-.29,3.48-2a2,2,0,0,1-.47,1.77s4.56,2.35,7.49-.74a1.8,1.8,0,0,1,0,1.72s2.81,0,3.37-1.82A17.16,17.16,0,0,1,77.09,40S78.24,29,68.52,29.15C58.55,29.33,59.07,38.37,58.93,40.15Z" fill="#323a43"/><path d="M69.34,29.37s-.53-1.89.14-2.06.14,2.06.14,2.06.47-1.93.91-1.42S70.24,30.08,69.34,29.37Z" fill="#323a43"/></svg>