<svg xmlns="http://www.w3.org/2000/svg" width="810" viewBox="0 0 810 810" height="810" version="1.0"><defs><clipPath id="a"><path d="M 93.71875 93.71875 L 716.21875 93.71875 L 716.21875 716.21875 L 93.71875 716.21875 Z M 93.71875 93.71875"/></clipPath><clipPath id="b"><path d="M 180 512 L 630 512 L 630 716.21875 L 180 716.21875 Z M 180 512"/></clipPath><clipPath id="c"><path d="M 357 547 L 453 547 L 453 716.21875 L 357 716.21875 Z M 357 547"/></clipPath><clipPath id="d"><path d="M 324 514 L 403 514 L 403 716.21875 L 324 716.21875 Z M 324 514"/></clipPath><clipPath id="e"><path d="M 407 514 L 486 514 L 486 716.21875 L 407 716.21875 Z M 407 514"/></clipPath></defs><g clip-path="url(#a)"><path fill="#EA4949" d="M 716.21875 404.96875 C 716.21875 233.097656 576.839844 93.71875 404.96875 93.71875 C 233.097656 93.71875 93.71875 233.097656 93.71875 404.96875 C 93.71875 576.839844 233.097656 716.21875 404.96875 716.21875 C 576.839844 716.21875 716.21875 576.839844 716.21875 404.96875"/></g><g clip-path="url(#b)"><path fill="#46729E" d="M 404.96875 716.21875 C 493.039062 716.21875 572.574219 679.585938 629.15625 620.875 C 625.640625 601.929688 622.128906 584.617188 618.742188 573.957031 C 608.078125 539.707031 516.875 512.105469 404.46875 512.105469 C 292.0625 512.105469 201.859375 539.707031 191.195312 573.957031 C 187.933594 584.617188 184.296875 601.804688 180.785156 620.875 C 237.363281 679.585938 316.902344 716.21875 404.96875 716.21875"/></g><path fill="#BABABA" d="M 485.257812 518.753906 L 469.578125 508.59375 L 404.96875 489.398438 L 340.359375 508.59375 L 324.679688 518.628906 C 329.824219 517.753906 340.359375 540.710938 340.359375 540.710938 L 469.578125 540.710938 C 469.578125 540.835938 480.117188 518.003906 485.257812 518.753906"/><path fill="#E2A379" d="M 453.769531 447.625 L 356.167969 447.625 C 371.347656 493.539062 357.421875 514.492188 357.421875 514.492188 L 391.167969 522.144531 L 418.769531 522.144531 L 452.515625 514.492188 C 452.515625 514.492188 438.589844 493.539062 453.769531 447.625"/><path fill="#F4B382" d="M 515.746094 313.515625 C 515.746094 197.59375 466.191406 171 404.96875 171 C 343.875 171 294.195312 197.59375 294.195312 313.515625 C 294.195312 352.78125 301.972656 383.515625 313.640625 407.226562 C 339.230469 459.417969 383.515625 477.605469 404.96875 477.605469 C 426.421875 477.605469 470.707031 459.417969 496.300781 407.226562 C 507.964844 383.515625 515.746094 352.78125 515.746094 313.515625"/><path fill="#E5A173" d="M 436.582031 427.550781 C 436.582031 430.3125 422.40625 437.839844 404.96875 437.839844 C 387.53125 437.839844 373.355469 430.3125 373.355469 427.550781 C 373.355469 425.792969 383.390625 420.902344 390.164062 420.023438 C 394.304688 419.398438 404.96875 423.160156 404.96875 423.160156 C 404.96875 423.160156 415.382812 419.523438 419.648438 420.023438 C 426.421875 420.902344 436.582031 427.550781 436.582031 427.550781"/><path fill="#D89364" d="M 436.582031 427.550781 C 436.582031 430.3125 422.40625 441.101562 404.96875 441.101562 C 387.53125 441.101562 373.355469 430.4375 373.355469 427.550781 C 373.355469 424.664062 386.277344 428.929688 404.96875 428.929688 C 423.660156 428.929688 436.582031 427.550781 436.582031 427.550781"/><path fill="#4C230C" d="M 515.621094 309.25 C 514.363281 196.84375 465.3125 171 404.96875 171 C 343.875 171 294.195312 197.59375 294.195312 313.515625 L 294.195312 317.402344 C 294.195312 317.402344 305.234375 315.019531 305.234375 320.664062 L 305.234375 355.289062 L 310.125 352.90625 C 309.875 324.050781 319.785156 313.011719 319.785156 313.011719 C 331.078125 295.199219 314.015625 264.585938 332.332031 256.683594 C 356.042969 246.394531 349.144531 268.976562 403.839844 268.976562 C 458.539062 268.976562 449.503906 245.894531 473.214844 255.554688 C 492.785156 263.707031 477.859375 288.800781 490.527344 313.011719 C 490.527344 313.011719 500.441406 324.050781 500.1875 352.90625 L 505.082031 355.289062 L 504.957031 320.664062 C 504.957031 315.019531 515.996094 317.402344 515.996094 317.402344 C 515.871094 314.644531 515.746094 312.007812 515.621094 309.25"/><path fill="#3A3A3A" d="M 431.1875 454.523438 C 431.1875 455.128906 431.148438 455.730469 431.0625 456.332031 C 430.980469 456.933594 430.851562 457.527344 430.683594 458.121094 C 430.519531 458.714844 430.308594 459.300781 430.058594 459.875 C 429.8125 460.453125 429.523438 461.023438 429.191406 461.582031 C 428.863281 462.140625 428.496094 462.683594 428.09375 463.21875 C 427.6875 463.75 427.246094 464.265625 426.769531 464.769531 C 426.292969 465.269531 425.78125 465.757812 425.238281 466.222656 C 424.691406 466.691406 424.117188 467.136719 423.507812 467.5625 C 422.902344 467.992188 422.265625 468.394531 421.601562 468.777344 C 420.9375 469.164062 420.25 469.523438 419.535156 469.855469 C 418.824219 470.191406 418.085938 470.503906 417.328125 470.789062 C 416.570312 471.074219 415.796875 471.332031 415.003906 471.5625 C 414.210938 471.792969 413.402344 471.996094 412.582031 472.171875 C 411.757812 472.347656 410.925781 472.492188 410.085938 472.609375 C 409.242188 472.730469 408.394531 472.816406 407.539062 472.875 C 406.683594 472.9375 405.828125 472.964844 404.96875 472.964844 C 404.109375 472.964844 403.253906 472.9375 402.398438 472.875 C 401.542969 472.816406 400.695312 472.730469 399.855469 472.609375 C 399.011719 472.492188 398.179688 472.347656 397.359375 472.171875 C 396.535156 471.996094 395.730469 471.792969 394.9375 471.5625 C 394.140625 471.332031 393.367188 471.074219 392.609375 470.789062 C 391.851562 470.503906 391.117188 470.191406 390.402344 469.855469 C 389.6875 469.523438 389 469.164062 388.335938 468.777344 C 387.671875 468.394531 387.035156 467.992188 386.429688 467.5625 C 385.820312 467.136719 385.246094 466.691406 384.703125 466.222656 C 384.15625 465.757812 383.644531 465.269531 383.167969 464.769531 C 382.691406 464.265625 382.25 463.75 381.84375 463.21875 C 381.441406 462.683594 381.074219 462.140625 380.746094 461.582031 C 380.417969 461.023438 380.128906 460.453125 379.878906 459.875 C 379.628906 459.300781 379.421875 458.714844 379.253906 458.121094 C 379.085938 457.527344 378.960938 456.933594 378.875 456.332031 C 378.792969 455.730469 378.75 455.128906 378.75 454.523438 C 378.75 453.917969 378.792969 453.316406 378.875 452.714844 C 378.960938 452.113281 379.085938 451.519531 379.253906 450.925781 C 379.421875 450.332031 379.628906 449.75 379.878906 449.171875 C 380.128906 448.59375 380.417969 448.023438 380.746094 447.464844 C 381.074219 446.910156 381.441406 446.363281 381.84375 445.832031 C 382.25 445.296875 382.691406 444.78125 383.167969 444.277344 C 383.644531 443.777344 384.15625 443.292969 384.703125 442.824219 C 385.246094 442.359375 385.820312 441.910156 386.429688 441.484375 C 387.035156 441.054688 387.671875 440.652344 388.335938 440.269531 C 389 439.886719 389.6875 439.527344 390.402344 439.191406 C 391.117188 438.855469 391.851562 438.542969 392.609375 438.257812 C 393.367188 437.976562 394.140625 437.71875 394.9375 437.484375 C 395.730469 437.253906 396.535156 437.050781 397.359375 436.875 C 398.179688 436.699219 399.011719 436.554688 399.855469 436.4375 C 400.695312 436.320312 401.542969 436.230469 402.398438 436.171875 C 403.253906 436.113281 404.109375 436.082031 404.96875 436.082031 C 405.828125 436.082031 406.683594 436.113281 407.539062 436.171875 C 408.394531 436.230469 409.242188 436.320312 410.085938 436.4375 C 410.925781 436.554688 411.757812 436.699219 412.582031 436.875 C 413.402344 437.050781 414.210938 437.253906 415.003906 437.484375 C 415.796875 437.71875 416.570312 437.976562 417.328125 438.257812 C 418.085938 438.542969 418.824219 438.855469 419.535156 439.191406 C 420.25 439.527344 420.9375 439.886719 421.601562 440.269531 C 422.265625 440.652344 422.902344 441.054688 423.507812 441.484375 C 424.117188 441.910156 424.691406 442.359375 425.238281 442.824219 C 425.78125 443.292969 426.292969 443.777344 426.769531 444.277344 C 427.246094 444.78125 427.6875 445.296875 428.09375 445.832031 C 428.496094 446.363281 428.863281 446.910156 429.191406 447.464844 C 429.523438 448.023438 429.8125 448.59375 430.058594 449.171875 C 430.308594 449.75 430.519531 450.332031 430.683594 450.925781 C 430.851562 451.519531 430.980469 452.113281 431.0625 452.714844 C 431.148438 453.316406 431.1875 453.917969 431.1875 454.523438 Z M 431.1875 454.523438"/><path fill="#3A3A3A" d="M 539.582031 351.148438 C 539.582031 370.59375 523.773438 386.402344 504.328125 386.402344 L 504.328125 315.898438 C 523.773438 315.898438 539.582031 331.703125 539.582031 351.148438"/><path fill="#3A3A3A" d="M 270.359375 351.148438 C 270.359375 370.59375 286.164062 386.402344 305.609375 386.402344 L 305.609375 315.898438 C 286.164062 315.898438 270.359375 331.703125 270.359375 351.148438"/><path fill="#3A3A3A" d="M 512.859375 326.9375 L 505.082031 326.9375 C 505.082031 271.738281 460.167969 226.699219 404.84375 226.699219 C 349.519531 226.699219 304.605469 271.613281 304.605469 326.9375 L 297.078125 326.9375 C 297.078125 267.472656 345.503906 219.046875 404.96875 219.046875 C 464.433594 219.046875 512.859375 267.472656 512.859375 326.9375"/><path fill="#3A3A3A" d="M 404.96875 473.339844 L 404.96875 465.5625 C 460.546875 465.5625 505.835938 420.273438 505.835938 364.699219 L 513.613281 364.699219 C 513.613281 424.664062 464.8125 473.339844 404.96875 473.339844"/><path fill="#E2A379" d="M 404.59375 511.980469 C 388.285156 511.980469 372.476562 512.984375 357.421875 514.492188 C 357.421875 514.492188 330.324219 587.503906 404.96875 587.503906 C 479.613281 587.503906 452.515625 514.363281 452.515625 514.363281 C 437.210938 512.859375 421.152344 511.980469 404.59375 511.980469"/><g clip-path="url(#c)"><path fill="#FFF" d="M 414.628906 715.96875 C 432.945312 677.578125 452.515625 547.988281 452.515625 547.988281 C 452.515625 547.988281 435.707031 573.703125 404.71875 573.703125 C 373.730469 573.703125 357.671875 547.988281 357.671875 547.988281 C 357.671875 547.988281 376.992188 677.707031 395.558594 715.96875 C 398.695312 716.09375 401.957031 716.09375 405.21875 716.09375 C 408.230469 716.21875 411.367188 716.09375 414.628906 715.96875"/></g><g clip-path="url(#d)"><path fill="#C7C8C9" d="M 357.421875 514.492188 C 350.898438 515.367188 330.953125 517.625 324.804688 518.753906 L 324.679688 518.753906 L 334.714844 588.132812 L 355.164062 583.488281 L 340.109375 601.929688 L 391.167969 715.84375 C 394.808594 715.96875 398.570312 716.09375 402.210938 716.09375 C 392.800781 675.699219 362.191406 543.722656 362.0625 543.59375 Z M 357.421875 514.492188"/></g><g clip-path="url(#e)"><path fill="#C7C8C9" d="M 469.828125 601.929688 L 454.773438 583.488281 L 475.222656 588.132812 L 485.257812 518.882812 C 479.113281 517.753906 459.039062 515.367188 452.515625 514.492188 L 447.875 543.59375 C 447.75 543.722656 417.136719 675.699219 407.730469 716.09375 C 411.492188 716.09375 415.132812 715.96875 418.769531 715.84375 Z M 469.828125 601.929688"/></g></svg>