<svg xmlns="http://www.w3.org/2000/svg" width="810" viewBox="0 0 810 810" height="810" version="1.0"><defs><clipPath id="a"><path d="M 93.71875 93.71875 L 716.21875 93.71875 L 716.21875 716.21875 L 93.71875 716.21875 Z M 93.71875 93.71875"/></clipPath></defs><g clip-path="url(#a)"><path fill="#FFB300" d="M 716.21875 404.96875 C 716.21875 576.84375 576.839844 716.21875 404.96875 716.21875 C 233.097656 716.21875 93.71875 576.84375 93.71875 404.96875 C 93.71875 233.097656 233.097656 93.71875 404.96875 93.71875 C 576.839844 93.71875 716.21875 233.097656 716.21875 404.96875 Z M 716.21875 404.96875"/></g><path fill="#FFF" d="M 327.15625 233.78125 L 529.46875 233.78125 L 529.46875 280.46875 L 327.15625 280.46875 Z M 280.46875 311.59375 L 529.46875 311.59375 L 529.46875 358.28125 L 280.46875 358.28125 Z M 280.46875 311.59375"/><path fill="#FFF" d="M 349.582031 451.65625 L 350.5 451.65625 C 406.851562 451.65625 467.21875 407.878906 467.21875 342.71875 C 467.21875 277.558594 406.851562 233.78125 350.5 233.78125 L 280.46875 233.78125 L 280.46875 280.46875 L 350.5 280.46875 C 379.867188 280.46875 420.53125 302.117188 420.53125 342.71875 C 420.53125 383.324219 379.867188 404.96875 350.5 404.96875 L 280.46875 404.96875 L 280.46875 454.816406 L 444.792969 591.71875 L 517.6875 591.71875 Z M 349.582031 451.65625"/></svg>