<svg xmlns="http://www.w3.org/2000/svg" width="810" viewBox="0 0 810 810" height="810" version="1.0"><defs><clipPath id="a"><path d="M 93.71875 93.71875 L 716.21875 93.71875 L 716.21875 716.21875 L 93.71875 716.21875 Z M 93.71875 93.71875"/></clipPath></defs><g clip-path="url(#a)"><path fill="#68BCAC" d="M 404.96875 93.71875 C 576.867188 93.71875 716.21875 233.070312 716.21875 404.96875 C 716.21875 576.867188 576.867188 716.21875 404.96875 716.21875 C 233.070312 716.21875 93.71875 576.867188 93.71875 404.96875 C 93.71875 233.070312 233.070312 93.71875 404.96875 93.71875" fill-rule="evenodd"/></g><path fill="#FFF" d="M 372.15625 595.167969 C 377.496094 596.101562 381.074219 601.1875 380.140625 606.527344 C 379.203125 611.867188 374.113281 615.441406 368.773438 614.507812 C 270.511719 597.179688 198.5625 511.351562 198.5625 411.414062 C 198.5625 369.414062 211.125 330.347656 232.691406 297.757812 C 232.441406 310.1875 232.988281 322.851562 234.265625 335.617188 C 223.953125 358.777344 218.21875 384.425781 218.21875 411.414062 C 218.21875 501.878906 283.070312 579.289062 372.15625 595.167969 M 370.34375 208.003906 C 496.363281 186.726562 611.378906 283.628906 611.378906 411.410156 C 611.378906 486.414062 571.15625 556.894531 504.429688 592.15625 C 486.820312 601.457031 468.585938 600.464844 454.28125 588.765625 C 460.109375 584.804688 466.101562 581.011719 471.496094 576.652344 C 478.695312 580.125 486.820312 579.285156 495.289062 574.808594 C 555.53125 542.980469 591.722656 479.210938 591.722656 411.410156 C 591.722656 295.824219 487.71875 208.152344 373.699219 227.363281 Z M 370.34375 208.003906"/><path fill="#FFF" d="M 375.554688 565.695312 C 287.179688 501.785156 232.425781 351.433594 259.023438 245.703125 C 263.269531 228.847656 276.488281 199.796875 304.0625 197.230469 C 321.433594 195.613281 347.257812 189.308594 351.386719 213.496094 L 363.234375 282.914062 C 367.355469 307.101562 341.898438 310.503906 325.144531 315.363281 C 305.265625 321.125 303.65625 312.46875 307.285156 332.109375 C 314.746094 372.546875 336.660156 432.722656 356.949219 468.492188 C 366.808594 485.871094 362.46875 478.207031 381.40625 469.847656 C 397.363281 462.808594 419.0625 449.058594 431.449219 470.238281 L 467.019531 531.023438 C 479.410156 552.207031 455.578125 563.96875 441.234375 573.890625 C 418.457031 589.640625 389.644531 575.875 375.554688 565.695312" fill-rule="evenodd"/></svg>