<svg id="Layer_1" data-name="Layer 1" xmlns="http://www.w3.org/2000/svg" xmlns:xlink="http://www.w3.org/1999/xlink" viewBox="0 0 200 200"><defs><style>.cls-1{fill:none;}.cls-2{fill:#addbf7;}.cls-3{clip-path:url(#clip-path);}.cls-4{fill:#2c193d;}.cls-5{fill:#f6a455;}.cls-6{fill:#f9bd8f;}.cls-7{fill:#f39889;}.cls-8{fill:#eb5d6a;}.cls-9{fill:#d1d1d1;}.cls-10{fill:#fcd29d;}.cls-11{fill:#ef7c71;}.cls-12{fill:#fff;}.cls-13{fill:#161818;}.cls-14{fill:#1e1229;}.cls-15{fill:#4a2b56;}.cls-16{fill:#1d1d1b;}.cls-17{fill:#9c9b9b;}.cls-18{fill:#c4223a;}.cls-19{fill:#7c170f;}.cls-20{fill:#ea4e51;}.cls-21{fill:#d3d3d3;}.cls-22{fill:#e2e1e1;}.cls-23{fill:#fbfbfb;}</style><clipPath id="clip-path"><ellipse class="cls-1" cx="100.35" cy="95.31" rx="71.97" ry="72.31" transform="translate(-0.2 0.22) rotate(-0.12)"/></clipPath></defs><title>WhyUs</title><circle class="cls-2" cx="99.83" cy="102.45" r="66.1" transform="translate(-43.2 100.6) rotate(-45)"/><g class="cls-3"><path class="cls-4" d="M110,38.63c0,5-5.19,9.14-11.61,9.16s-11.65-4.07-11.66-9.11S92,29.54,98.37,29.52,110,33.58,110,38.63Z"/><path class="cls-5" d="M110.65,48.54c0,5.05-5.18,9.15-11.61,9.16s-11.65-4.06-11.66-9.1S92.57,39.45,99,39.44,110.64,43.5,110.65,48.54Z"/><path class="cls-4" d="M82.61,44.16a4.7,4.7,0,0,1,5.1-.85,7.13,7.13,0,0,1-3.66-3.84,18.49,18.49,0,0,0,4.07,2.65,2,2,0,0,1,1,.79,1.92,1.92,0,0,1,.15.71c.14,1.85-1.12.47-2,.18A6.22,6.22,0,0,0,82.61,44.16Z"/><path class="cls-4" d="M114.6,42.32a4.69,4.69,0,0,0-5.1-.83,7.11,7.11,0,0,0,3.64-3.85,18.83,18.83,0,0,1-4.06,2.66,2,2,0,0,0-1,.8,2.14,2.14,0,0,0-.14.71c-.13,1.85,1.13.47,2,.17A6.26,6.26,0,0,1,114.6,42.32Z"/><path class="cls-6" d="M76.33,138.66a26.67,26.67,0,0,0,2.38,4.11c3.79,5.35,10.08,9.62,20.51,9.49,9.38-.1,15.63-3.33,19.8-7.62a26.3,26.3,0,0,0,4.35-6.06,37.38,37.38,0,0,0,4-16.37l-1.21-.39L120.69,120l-14.2-4.63a38.51,38.51,0,0,1-.36-4.11c-.2-4.06-.2-9-.2-9l-13.65.2A70.76,70.76,0,0,1,92.2,111a18.22,18.22,0,0,1-1,5.11L78.33,120.5l-2.7.93-2.65.9A39.39,39.39,0,0,0,76.33,138.66Z"/><path class="cls-7" d="M96,112.94a16.37,16.37,0,0,0,10.13-1.64c-.2-4.06-.2-9-.2-9l-13.65.2A70.76,70.76,0,0,1,92.2,111,7.53,7.53,0,0,0,96,112.94Z"/><path class="cls-8" d="M104.66,128.64l.43-.28.49-.33c.2-.12.41-.27.66-.41.49-.31,1.08-.65,1.74-1s1.4-.73,2.18-1.1,1.54-.68,2.24-1,1.35-.51,1.89-.68c.27-.1.53-.17.75-.24l.56-.16.49-.15h-.51l-.6,0c-.23,0-.49,0-.79.07a13.7,13.7,0,0,0-2,.39,14.77,14.77,0,0,0-2.39.86,14.49,14.49,0,0,0-3.81,2.58c-.22.2-.4.39-.56.56s-.3.32-.41.44Z"/><path class="cls-8" d="M84.75,123.41l.45.16,1.19.45c.5.19,1.09.43,1.73.71s1.34.6,2.06,1,1.41.71,2,1,1.17.65,1.63.93.83.5,1.09.67l.4.25-.31-.36a11.91,11.91,0,0,0-.9-.93,16.31,16.31,0,0,0-1.49-1.23,15.55,15.55,0,0,0-2-1.21,16.16,16.16,0,0,0-2.2-.85,13.56,13.56,0,0,0-1.88-.43c-.54-.08-1-.12-1.29-.14Z"/><path class="cls-9" d="M119.29,92.74c-2.11,3.53-2.64,9.38.43,12.6,1.45,1.53,6.66,2.63,6.32-.91a2.21,2.21,0,0,0-2.09-1.8,3.36,3.36,0,0,0-3.46,1.71c-2.46,3.87-2.33,10.56.05,14.41a.37.37,0,0,0,.67-.28c-.87-2.88-1.66-5.51-1.37-8.57a12.58,12.58,0,0,1,1.31-4.83c.59-1,2.29-2.35,3.55-1.33s-.23,2.16-1.18,2.3a3.66,3.66,0,0,1-1.66-.27,5.26,5.26,0,0,1-3.07-3.64,12.81,12.81,0,0,1,.8-9.22.17.17,0,0,0-.3-.17Z"/><path class="cls-10" d="M79.76,77.87s.56,13.15,4,18c2.92,4.08,7.06,10.58,13.66,12.78a6.23,6.23,0,0,0,4,0c6.59-2.23,10.7-8.75,13.6-12.84,3.46-4.89,4-18,4-18,0-.87,0-1.72,0-2.53v0c-.46-24.89-19.7-23.48-19.7-23.48s-19,.22-19.55,24.84C79.76,77,79.76,77.44,79.76,77.87Z"/><path class="cls-6" d="M79.77,76.58c.12,2.11.88,13.27,4,17.68,2.92,4.08,7.06,10.57,13.66,12.77a6.23,6.23,0,0,0,4,0c6.59-2.23,10.69-8.74,13.59-12.84,3.46-4.88,4-18,4-18l0-.9v0c-.46-24.89-19.7-23.48-19.7-23.48S80.35,52,79.77,76.58Z"/><path class="cls-11" d="M108.79,96.15s-9.18-4.2-17.52.66c0,0,4.2,7.08,8.73,6.79C105.5,103.25,108.79,96.15,108.79,96.15Z"/><path class="cls-12" d="M108.28,96.39s-6.27-1.51-16.48.54c0,0,2.63,5.69,8.59,5.19A9.39,9.39,0,0,0,108.28,96.39Z"/><path class="cls-7" d="M100.19,89.64a2.77,2.77,0,0,0-2.35,1.57.57.57,0,0,0-.06.36c0,.18.25.26.43.31a9.2,9.2,0,0,0,3.87.26C104.4,91.81,101.34,89.6,100.19,89.64Z"/><path class="cls-11" d="M101.43,91.55l0-.39q0-.18,0-.45c0-.18,0-.37,0-.59s0-.45,0-.71,0-.52,0-.8V86.8c0-.64,0-1.25.06-1.81,0-.28,0-.55,0-.8s0-.49.05-.71,0-.41.06-.59,0-.32,0-.45,0-.39,0-.39l-.22.33-.23.4c-.08.16-.18.34-.27.55s-.19.44-.27.69a8,8,0,0,0-.25.82,8.85,8.85,0,0,0-.25,1.94,9.15,9.15,0,0,0,.19,2c.07.3.14.57.22.83s.17.49.26.7a5.87,5.87,0,0,0,.25.55c.08.16.16.3.22.41S101.43,91.55,101.43,91.55Z"/><path class="cls-7" d="M110.35,88.1c.32.86,2.68.77,5.26-.21s4.42-2.47,4.1-3.34-2.68-.76-5.27.22S110,87.24,110.35,88.1Z"/><path class="cls-13" d="M86,75a4.43,4.43,0,0,0,2.28,1.8A1.88,1.88,0,0,1,89.69,76c1.33-.06,2.49,1.65,2.58,3.8s-.93,3.95-2.26,4-2.49-1.64-2.58-3.8a5.84,5.84,0,0,1,.21-1.86C86.58,77.28,86,75,86,75Z"/><path class="cls-12" d="M90,80.3A5,5,0,0,1,84.38,79,4.94,4.94,0,0,1,90,80.3Z"/><path class="cls-13" d="M114.07,74.9a4.48,4.48,0,0,1-2.28,1.82,1.88,1.88,0,0,0-1.37-.78c-1.34,0-2.49,1.66-2.56,3.82s.94,3.94,2.27,4,2.48-1.66,2.56-3.82a5.47,5.47,0,0,0-.22-1.85A7.31,7.31,0,0,0,114.07,74.9Z"/><path class="cls-12" d="M110.13,80.25a5,5,0,0,0,5.61-1.36,5,5,0,0,0-5.61,1.36Z"/><path class="cls-7" d="M79.06,84.48c-.35.85,1.43,2.4,4,3.46s4.9,1.23,5.25.38-1.43-2.4-4-3.46S79.41,83.63,79.06,84.48Z"/><path class="cls-14" d="M123.6,80.15c-8.25-1.85-17.64-19-17.64-19C103.53,66.15,76.69,82,76.69,82a75,75,0,0,1-1.54-9.76c-3.33-38.07,34-30.36,34-30.36,9.1,2.08,13.17,8.88,14.8,16.18C126.31,68.58,123.6,80.15,123.6,80.15Z"/><path class="cls-4" d="M114.31,55q1.77,3.16,3.55,6.31a38.43,38.43,0,0,1-14.07-11.69A31,31,0,0,1,92.74,61.44a36.57,36.57,0,0,0,2.54-8.91A79.68,79.68,0,0,1,75.15,72.25,44.61,44.61,0,0,1,75.32,62C79,35.67,109.16,41.89,109.16,41.89a19.29,19.29,0,0,1,6.68,2.87c4.57,3.17,7,8.11,8.12,13.31A43.64,43.64,0,0,1,114.31,55Z"/><path class="cls-15" d="M108.42,43.46a5.2,5.2,0,0,0,1.6,3.41,38.27,38.27,0,0,1-11.26-4.21l-8.66,9.4a7.7,7.7,0,0,0,1.2-6c-3.86,5.23-9.67,12.24-16,16C79,35.67,109.16,41.89,109.16,41.89a19.29,19.29,0,0,1,6.68,2.87A19.69,19.69,0,0,1,108.42,43.46Z"/><path class="cls-16" d="M105.29,74.07s.15-.18.41-.52.65-.79,1.15-1.32a11.9,11.9,0,0,1,1.88-1.6,7.8,7.8,0,0,1,2.56-1.17,5.7,5.7,0,0,1,2.68-.08,5,5,0,0,1,2,1,4.62,4.62,0,0,1,1,1.28,2.72,2.72,0,0,1,.12.25,1.32,1.32,0,0,1,.08.19,1.37,1.37,0,0,1,.07.16v-.18s0-.12,0-.21,0-.18,0-.29a4,4,0,0,0-.64-1.79,5,5,0,0,0-2.23-1.89,5.72,5.72,0,0,0-3.63-.23,6.93,6.93,0,0,0-3.08,1.74,8.63,8.63,0,0,0-1.65,2.27,10,10,0,0,0-.66,1.71q-.09.31-.12.48Z"/><path class="cls-16" d="M110.11,71.18a8.13,8.13,0,0,0-7.91,6.43,4.78,4.78,0,0,0-4.77.08,8.23,8.23,0,1,0,.33,1.23,4.77,4.77,0,0,1,1.93-.62A3.51,3.51,0,0,1,102,79l.07,0c0,.11,0,.23,0,.35a8.12,8.12,0,1,0,8.1-8.17Zm-20.3,16.3a7.06,7.06,0,1,1,7-7.07A7.05,7.05,0,0,1,89.81,87.48Zm20.33-1.1a7.05,7.05,0,1,1,7-7.07A7,7,0,0,1,110.14,86.38Z"/><path class="cls-16" d="M83.56,70.83l.09-.15.11-.18c0-.06.1-.14.16-.23a5.52,5.52,0,0,1,1.22-1.17,5.45,5.45,0,0,1,2.16-.86,5.68,5.68,0,0,1,2.7.29A6.71,6.71,0,0,1,92.38,70a8.26,8.26,0,0,1,1.51,1.91,11.72,11.72,0,0,1,.73,1.59c.07.2.12.36.15.46l.06.17,0-.17c0-.12,0-.28.05-.5a7.33,7.33,0,0,0-.17-1.87A6.92,6.92,0,0,0,93.53,69a6.34,6.34,0,0,0-2.93-2.15,5.7,5.7,0,0,0-3.67,0,5.22,5.22,0,0,0-2.41,1.68,4.7,4.7,0,0,0-.86,1.72c0,.1,0,.2,0,.28s0,.16,0,.22Z"/><path class="cls-9" d="M75.56,82c-.11-.78-2.53-19.28,6-30.4,4.07-5.29,9.91-8,17.37-8h.45c7.84.1,14,3,18.41,8.53,8.65,11,7,28.48,7,29.22L122,81c0-.17,1.53-16.86-6.31-26.81-3.83-4.86-9.32-7.37-16.34-7.46-6.81-.07-12.09,2.25-15.68,6.91-7.71,10-5.39,27.69-5.37,27.87Z"/><path class="cls-12" d="M82.75,94.45a6.88,6.88,0,0,1-.82,0,13.35,13.35,0,0,1-1.53-.09c-2.76-.3-7.1-1.64-8.17-6.88-1.62-8,2.32-11.09,5.07-12.28a9.17,9.17,0,0,1,2.4-.71v3.9A66,66,0,0,0,82.75,94.45Z"/><path class="cls-9" d="M82.75,94.45a6.88,6.88,0,0,1-.82,0,13.35,13.35,0,0,1-1.53-.09,81.66,81.66,0,0,1-3.1-19.16,9.17,9.17,0,0,1,2.4-.71v3.9A66,66,0,0,0,82.75,94.45Z"/><path class="cls-12" d="M126.27,87.4c-1.19,6-6.65,6.9-9.19,7h-.48c-.52,0-.83,0-.83,0a66.14,66.14,0,0,0,3-16V74.44a9.21,9.21,0,0,1,1.76.45C123.24,75.85,128,78.8,126.27,87.4Z"/><path class="cls-9" d="M117.08,94.4h-.48c-.52,0-.83,0-.83,0a66.14,66.14,0,0,0,3-16V74.44a9.21,9.21,0,0,1,1.76.45C121,77.84,122,86.85,117.08,94.4Z"/><path class="cls-17" d="M121.39,91.2a1.24,1.24,0,1,1-2.44.41,1.24,1.24,0,1,1,2.44-.41Z"/><path class="cls-9" d="M106.46,100.77h0l-.1-.63c.19-.28.3-.44.5-.71,6.87-1.4,11.53-6.77,12.81-8.4a.61.61,0,0,1,.84-.12h0a.63.63,0,0,1,.13.9C119.2,93.64,114.15,99.49,106.46,100.77Z"/><path class="cls-13" d="M107.93,101.87l-2.57.43a1.94,1.94,0,0,1-2.23-1.6h0a1.94,1.94,0,0,1,1.59-2.24l2.57-.43a1.93,1.93,0,0,1,2.23,1.6h0A1.94,1.94,0,0,1,107.93,101.87Z"/><path class="cls-18" d="M139.45,190.42l21,0c-1.1-5-2.37-10.6-3.72-16.21-4.63-19.27-10.18-39.28-12.61-42.13-4.73-5.56-18.37-10.15-18.37-10.15L124.12,147c2,2.41,4.22,7.31,6.41,13.37C133.76,169.27,137,180.71,139.45,190.42Z"/><path class="cls-18" d="M76.82,147.06c-5,6-11,27.22-15.13,43.54l-21,.05c4.76-22.37,12.94-54.73,16.06-58.42A18.65,18.65,0,0,1,60.47,129a56.1,56.1,0,0,1,9.36-5c3-1.29,5.21-2,5.21-2Z"/><path class="cls-18" d="M69,180.44c5.37,6.83,8.63,7.4,10.32,10.12l41.85-.1c1.67-2.73,4.93-3.31,10.26-10.16,7.28-9.35-.79-29.55-1.9-33.43s3.76-23.7,3.76-23.7l-2-.52-.14,0-1.79-.46s-13.78,14-29.19,18.76c-15.44-4.68-29.28-18.62-29.28-18.62s1,20.82-.1,24.71S61.68,171.13,69,180.44Z"/><path class="cls-19" d="M79.32,190.56H82c-2.55-5.22-7.88-9.12-10.33-14.55-2.71-6-1.48-12.59,0-19.22A20.8,20.8,0,0,0,70.92,145l0-.06a7.35,7.35,0,0,1-.15,2.05c-1.09,3.89-9.07,24.13-1.75,33.44C74.37,187.27,77.63,187.84,79.32,190.56Z"/><path class="cls-19" d="M121.17,190.46c1.67-2.73,4.93-3.31,10.26-10.16,7.28-9.35-.79-29.55-1.9-33.43a14.05,14.05,0,0,1,0-4.41l-.2.36a16,16,0,0,0-1.56,10.24,55.64,55.64,0,0,1,.66,14.08c-.72,8.33-4.21,16.56-10.34,22.22-.39.36-.8.72-1.17,1.11Z"/><polygon class="cls-19" points="101.95 159.53 91.21 190.53 93.35 190.53 104.67 158.73 101.95 159.53"/><path class="cls-20" d="M74.45,125.59s-5.66,6-12,8.38c-5.69,2.12-15.81,47.21-17.87,56.67H40.64c4.76-22.37,12.94-54.73,16.06-58.42A18.65,18.65,0,0,1,60.47,129a56.1,56.1,0,0,1,9.36-5Z"/><path class="cls-20" d="M126.38,125.47s5.69,6,12.06,8.33c5.7,2.09,16,47.13,18.13,56.58h3.92C155.63,168,147.3,135.71,144.16,132a19,19,0,0,0-3.78-3.22,57,57,0,0,0-9.38-4.9Z"/><path class="cls-19" d="M87.92,117.31s-5.45-2.58-25.51,9.33l19.45,13.12-.73,10.63L100.84,168Z"/><path class="cls-19" d="M110.36,116.31s8.86-1.66,29,10.15l-19.39,13.21.78,10.63L100.84,168Z"/><path class="cls-19" d="M103.37,186.14a2,2,0,1,1-2-2A2,2,0,0,1,103.37,186.14Z"/><polygon class="cls-21" points="87.92 117.31 98.75 120.51 110.73 116.26 100.84 168.01 87.92 117.31"/><polygon class="cls-22" points="97.36 128.99 98.66 151.37 101.73 151.37 102.23 129.62 99.51 126.73 97.36 128.99"/><path class="cls-23" d="M101,132.78a1.22,1.22,0,0,1-1.2,1.22,1.21,1.21,0,1,1,1.2-1.22Z"/><path class="cls-23" d="M101.32,138.08a1.2,1.2,0,1,1-2.4,0,1.2,1.2,0,1,1,2.4,0Z"/><path class="cls-23" d="M101.34,143.73a1.21,1.21,0,1,1-1.21-1.2A1.21,1.21,0,0,1,101.34,143.73Z"/><polygon class="cls-23" points="92.25 134.32 99.51 126.73 107.17 134.87 110.73 116.26 98.75 120.51 87.92 117.31 92.25 134.32"/></g></svg>