<svg id="Layer_1" data-name="Layer 1" xmlns="http://www.w3.org/2000/svg" xmlns:xlink="http://www.w3.org/1999/xlink" viewBox="0 0 200 200"><defs><style>.cls-1,.cls-16,.cls-17,.cls-18{fill:none;}.cls-2{fill:#20556e;}.cls-3{fill:#fce3e2;}.cls-4{clip-path:url(#clip-path);}.cls-5{fill:#f9d1b0;}.cls-10,.cls-12,.cls-6,.cls-8{isolation:isolate;}.cls-7{opacity:0.11;}.cls-15,.cls-8{fill:#1f4c5b;}.cls-10,.cls-12,.cls-8{opacity:0.96;}.cls-9{clip-path:url(#clip-path-2);}.cls-11{clip-path:url(#clip-path-3);}.cls-12{fill:#5c848e;}.cls-13{clip-path:url(#clip-path-4);}.cls-14{fill:#edf8fe;}.cls-16,.cls-17,.cls-18{stroke:#20556e;stroke-width:0.7px;}.cls-16,.cls-17{stroke-miterlimit:10;}.cls-17,.cls-18{stroke-linecap:round;}.cls-18{stroke-linejoin:round;}.cls-19{fill:#c7e1f0;}.cls-20{fill:#fff;}.cls-21{fill:#abcf7f;}.cls-22{fill:#dba86e;}.cls-23{fill:#d1e9f5;}.cls-24{fill:#e8f5fd;}.cls-25{fill:#b1d3dd;}.cls-26{fill:#99d4df;}.cls-27{fill:#73aab2;}.cls-28{fill:#81bdc5;}.cls-29{fill:#c1deea;}.cls-30{fill:#f0805a;}.cls-31{fill:#d36c5e;}.cls-32{fill:#5dae5d;}.cls-33{fill:#68b869;}.cls-34{fill:#cb614e;}.cls-35{fill:#87cdd5;}.cls-36{fill:#eab28b;opacity:0.47;}.cls-37{fill:#141313;opacity:0.08;}</style><clipPath id="clip-path"><rect class="cls-1" width="200" height="200"/></clipPath><clipPath id="clip-path-2"><path class="cls-2" d="M157.81,110.48V105a1.69,1.69,0,0,1-1,1.37v5.5A1.67,1.67,0,0,0,157.81,110.48Z"/></clipPath><clipPath id="clip-path-3"><path class="cls-2" d="M36.16,126.21v5.5a1.65,1.65,0,0,0,1,1.37v-5.5A1.65,1.65,0,0,1,36.16,126.21Z"/></clipPath><clipPath id="clip-path-4"><path class="cls-2" d="M76.48,150.29v5.5a5.25,5.25,0,0,0,4.76,0v-5.5A5.25,5.25,0,0,1,76.48,150.29Z"/></clipPath></defs><title>WhyUs</title><circle class="cls-3" cx="99.83" cy="102.45" r="66.1" transform="translate(-43.2 100.6) rotate(-45)"/><g class="cls-4"><path class="cls-5" d="M-10.67,137.6S28,125.21,35.66,112.2c6.92-11.83,26.18-15,29.51-17.43C69.85,91.35,81.24,85.11,86,84.58c4.49-.51,8.55,2.44,7.24,7.3-1.56,5.75-24.9,14.81-24.9,14.81s-.8,12.11,16.24,15.25,24.49,2,33.7-.72,11.56-3.33,11.56-3.33,2.15-7,5.41-8.66c3.52-1.76,6.4-.26,7.05.78s-3.11,11.82-4.32,15-10.65,10.42-10.65,10.42a7.36,7.36,0,0,0-2,2.42c-1.92,3.63-7.33,12.06-9.22,13-2.35,1.17-8.88,2.61-8.88,2.61S106,156,100.88,158.8c-6.15,3.33-10.68,8.51-23.22,7.86-8.06-.42-28.87-6.61-45.84-2.17C24.6,166.38-12,193.39-12,193.39Z"/><g class="cls-6"><g class="cls-7"><path class="cls-8" d="M116.69,87.39a5.32,5.32,0,0,0-4.76,0L36.35,131.33c-1.29.76-1.29,2,0,2.75l39.35,22.71a5.32,5.32,0,0,0,4.76,0L156,112.85c1.29-.76,1.29-2,0-2.75Z"/></g><g class="cls-6"><path class="cls-2" d="M157.81,110.48V105a1.69,1.69,0,0,1-1,1.37v5.5A1.67,1.67,0,0,0,157.81,110.48Z"/><g class="cls-9"><g class="cls-10"><path class="cls-2" d="M156.83,106.35v5.5l.14-.08v-5.5a.37.37,0,0,1-.14.08"/><path class="cls-2" d="M157,106.27v5.5a1.58,1.58,0,0,0,.84-1.29V105a1.56,1.56,0,0,1-.84,1.29"/></g></g></g><g class="cls-6"><path class="cls-2" d="M36.16,126.21v5.5a1.65,1.65,0,0,0,1,1.37v-5.5A1.65,1.65,0,0,1,36.16,126.21Z"/><g class="cls-11"><g class="cls-10"><path class="cls-2" d="M36.16,126.21v5.5a1.3,1.3,0,0,0,.44.95v-5.5a1.28,1.28,0,0,1-.44-1"/><path class="cls-2" d="M36.6,127.16v5.5a3.4,3.4,0,0,0,.56.42v-5.5a1.72,1.72,0,0,1-.56-.42"/></g></g></g><g class="cls-10"><polygon class="cls-2" points="81.24 150.29 81.24 155.79 156.83 111.85 156.83 106.36 81.24 150.29"/></g><g class="cls-10"><polygon class="cls-2" points="36.85 127.4 36.94 132.96 76.48 155.79 76.48 150.29 36.85 127.4"/></g><path class="cls-12" d="M117.48,80.9a5.25,5.25,0,0,0-4.76,0L37.14,124.84c-1.29.75-1.29,2,0,2.74l39.35,22.71a5.25,5.25,0,0,0,4.76,0l75.56-43.94c1.29-.75,1.29-2,0-2.74Z"/><g class="cls-6"><path class="cls-2" d="M76.48,150.29v5.5a5.25,5.25,0,0,0,4.76,0v-5.5A5.25,5.25,0,0,1,76.48,150.29Z"/><g class="cls-13"><g class="cls-10"><path class="cls-2" d="M76.48,150.29v5.5l.17.09v-5.5l-.17-.09"/><path class="cls-2" d="M76.65,150.41v5.49a5.43,5.43,0,0,0,3.84.23v-5.5a5.5,5.5,0,0,1-3.84-.22"/><path class="cls-2" d="M80.49,150.63v5.5a3.22,3.22,0,0,0,.75-.34v-5.5a2.86,2.86,0,0,1-.75.34"/></g></g></g></g><polygon class="cls-14" points="107.54 85.41 46.18 121.08 87.07 144.72 148.46 109.04 107.54 85.41"/><path class="cls-15" d="M137.87,97.51a1.4,1.4,0,0,0-1.26,0,.38.38,0,0,0,0,.72,1.4,1.4,0,0,0,1.26,0C138.23,98,138.23,97.7,137.87,97.51Z"/><path class="cls-15" d="M129.69,93a1,1,0,0,0-.89,0c-.26.14-.26.36,0,.5l5.37,3.11a1,1,0,0,0,.9,0c.25-.14.25-.36,0-.53Z"/><path class="cls-16" d="M61.92,135.14a1.08,1.08,0,0,0-1,0l-.64.38c-.28.16-.28.43,0,.58l.73.42a1.06,1.06,0,0,0,1,0l.65-.38c.28-.16.28-.43,0-.58Z"/><line class="cls-17" x1="74.38" y1="142.48" x2="73.3" y2="141.86"/><line class="cls-17" x1="73.91" y1="142.79" x2="72.83" y2="142.17"/><line class="cls-17" x1="73.39" y1="143.08" x2="72.31" y2="142.46"/><polyline class="cls-18" points="50.15 128.98 50.33 129.82 49.34 129.82"/><polygon class="cls-19" points="142.31 112.68 148.46 109.04 107.54 85.41 101.42 89.05 142.31 112.68"/><polygon class="cls-20" points="80.19 104.77 79.13 105.37 113.44 125.18 114.52 124.58 80.19 104.77"/><polygon class="cls-20" points="76.2 107.18 75.14 107.78 109.44 127.59 110.52 126.99 76.2 107.18"/><polygon class="cls-20" points="72.12 109.51 71.05 110.11 105.36 129.92 106.44 129.32 72.12 109.51"/><polygon class="cls-20" points="68.12 111.92 67.06 112.52 101.36 132.33 102.44 131.73 68.12 111.92"/><path class="cls-21" d="M140.27,106.56a.32.32,0,0,1,0,.61l-24.33,14.2a1.14,1.14,0,0,1-1,0L82.31,102.55a.32.32,0,0,1,0-.61l24.34-14.19a1.14,1.14,0,0,1,1,0Z"/><g class="cls-6"><polygon class="cls-22" points="125.22 103.75 108.61 94.28 108.45 50.98 125.07 60.46 125.22 103.75"/><polygon class="cls-22" points="92.44 103.44 108.3 94.28 108.45 50.98 92.29 60.14 92.44 103.44"/><polygon class="cls-23" points="125.07 60.46 125.22 103.76 109.06 112.91 108.91 69.62 125.07 60.46"/><polygon class="cls-24" points="109.06 112.91 92.44 103.44 92.29 60.14 108.91 69.62 109.06 112.91"/><polygon class="cls-25" points="108.91 69.62 92.29 60.14 108.45 50.99 125.07 60.46 108.91 69.62"/><g class="cls-6"><polygon class="cls-26" points="95.46 72.22 94.62 71.74 94.61 75.26 97.68 77.03 97.68 76.07 97.69 73.51 95.46 72.22"/><polygon class="cls-27" points="94.07 71.42 94.62 71.74 94.61 75.26 94.06 75.58 94.07 71.42"/><polygon class="cls-28" points="94.06 75.58 94.61 75.26 97.68 77.03 97.68 77.67 94.06 75.58"/></g><g class="cls-6"><polygon class="cls-26" points="100.17 74.93 99.33 74.44 99.32 77.96 102.39 79.73 102.39 78.77 102.4 76.21 100.17 74.93"/><polygon class="cls-27" points="98.78 74.12 99.33 74.44 99.32 77.96 98.77 78.28 98.78 74.12"/><polygon class="cls-28" points="98.77 78.29 99.32 77.96 102.39 79.73 102.39 80.38 98.77 78.29"/></g><g class="cls-6"><polygon class="cls-26" points="104.89 77.61 104.05 77.13 104.03 80.65 107.1 82.42 107.1 81.46 107.11 78.9 104.89 77.61"/><polygon class="cls-27" points="103.49 76.81 104.05 77.13 104.04 80.65 103.48 80.97 103.49 76.81"/><polygon class="cls-28" points="103.48 80.97 104.04 80.65 107.1 82.42 107.1 83.06 103.48 80.97"/></g><g class="cls-6"><polygon class="cls-26" points="95.46 78.84 94.62 78.35 94.61 81.87 97.68 83.64 97.68 82.68 97.69 80.12 95.46 78.84"/><polygon class="cls-27" points="94.07 78.03 94.62 78.35 94.61 81.87 94.06 82.2 94.07 78.03"/><polygon class="cls-28" points="94.06 82.2 94.61 81.87 97.68 83.64 97.68 84.29 94.06 82.2"/></g><g class="cls-6"><polygon class="cls-26" points="100.17 81.54 99.33 81.05 99.32 84.58 102.39 86.35 102.39 85.39 102.4 82.82 100.17 81.54"/><polygon class="cls-27" points="98.78 80.74 99.33 81.05 99.32 84.58 98.77 84.9 98.78 80.74"/><polygon class="cls-28" points="98.77 84.9 99.32 84.58 102.39 86.35 102.39 86.99 98.77 84.9"/></g><g class="cls-6"><polygon class="cls-26" points="104.89 84.23 104.05 83.74 104.03 87.27 107.1 89.03 107.1 88.08 107.11 85.51 104.89 84.23"/><polygon class="cls-27" points="103.49 83.42 104.05 83.74 104.04 87.26 103.48 87.59 103.49 83.42"/><polygon class="cls-28" points="103.48 87.59 104.04 87.27 107.1 89.03 107.1 89.68 103.48 87.59"/></g><g class="cls-6"><polygon class="cls-26" points="95.46 85.45 94.62 84.97 94.61 88.49 97.68 90.26 97.68 89.3 97.69 86.73 95.46 85.45"/><polygon class="cls-27" points="94.07 84.65 94.62 84.97 94.61 88.49 94.06 88.81 94.07 84.65"/><polygon class="cls-28" points="94.06 88.81 94.61 88.49 97.68 90.26 97.68 90.9 94.06 88.81"/></g><g class="cls-6"><polygon class="cls-26" points="100.17 88.15 99.33 87.67 99.32 91.19 102.39 92.96 102.39 92 102.4 89.44 100.17 88.15"/><polygon class="cls-27" points="98.78 87.35 99.33 87.67 99.32 91.19 98.77 91.51 98.78 87.35"/><polygon class="cls-28" points="98.77 91.51 99.32 91.19 102.39 92.96 102.39 93.6 98.77 91.51"/></g><g class="cls-6"><polygon class="cls-26" points="104.89 90.84 104.05 90.36 104.03 93.88 107.1 95.65 107.1 94.69 107.11 92.13 104.89 90.84"/><polygon class="cls-27" points="103.49 90.04 104.05 90.36 104.04 93.88 103.48 94.2 103.49 90.04"/><polygon class="cls-28" points="103.48 94.2 104.04 93.88 107.1 95.65 107.1 96.29 103.48 94.2"/></g><g class="cls-6"><polygon class="cls-26" points="95.46 92.07 94.62 91.58 94.61 95.1 97.68 96.87 97.68 95.91 97.69 93.35 95.46 92.07"/><polygon class="cls-27" points="94.07 91.26 94.62 91.58 94.61 95.1 94.06 95.42 94.07 91.26"/><polygon class="cls-28" points="94.06 95.42 94.61 95.1 97.68 96.87 97.68 97.51 94.06 95.42"/></g><g class="cls-6"><polygon class="cls-26" points="100.17 94.77 99.33 94.28 99.32 97.81 102.39 99.58 102.39 98.61 102.4 96.05 100.17 94.77"/><polygon class="cls-27" points="98.78 93.96 99.33 94.28 99.32 97.81 98.77 98.13 98.78 93.96"/><polygon class="cls-28" points="98.77 98.13 99.32 97.81 102.39 99.58 102.39 100.22 98.77 98.13"/></g><g class="cls-6"><polygon class="cls-26" points="104.89 97.46 104.05 96.97 104.03 100.49 107.1 102.26 107.1 101.3 107.11 98.74 104.89 97.46"/><polygon class="cls-27" points="103.49 96.65 104.05 96.97 104.04 100.49 103.48 100.81 103.49 96.65"/><polygon class="cls-28" points="103.48 100.81 104.04 100.49 107.1 102.26 107.1 102.9 103.48 100.81"/></g><g class="cls-6"><polygon class="cls-26" points="95.46 98.68 94.62 98.19 94.61 101.72 97.68 103.49 97.68 102.53 97.69 99.96 95.46 98.68"/><polygon class="cls-27" points="94.07 97.88 94.62 98.19 94.61 101.72 94.06 102.04 94.07 97.88"/><polygon class="cls-28" points="94.06 102.04 94.61 101.72 97.68 103.49 97.68 104.13 94.06 102.04"/></g><g class="cls-6"><polygon class="cls-26" points="100.17 101.38 99.33 100.9 99.32 104.42 102.39 106.19 102.39 105.23 102.4 102.67 100.17 101.38"/><polygon class="cls-27" points="98.78 100.58 99.33 100.9 99.32 104.42 98.77 104.74 98.78 100.58"/><polygon class="cls-28" points="98.77 104.74 99.32 104.42 102.39 106.19 102.39 106.83 98.77 104.74"/></g><g class="cls-6"><polygon class="cls-26" points="104.89 104.07 104.05 103.58 104.03 107.11 107.1 108.88 107.1 107.92 107.11 105.35 104.89 104.07"/><polygon class="cls-27" points="103.49 103.27 104.05 103.58 104.04 107.11 103.48 107.43 103.49 103.27"/><polygon class="cls-28" points="103.48 107.43 104.04 107.11 107.1 108.88 107.1 109.52 103.48 107.43"/></g><g class="cls-6"><polygon class="cls-26" points="122.28 72.22 123.13 71.74 123.14 75.26 120.07 77.03 120.07 76.07 120.06 73.51 122.28 72.22"/><polygon class="cls-27" points="123.68 71.42 123.13 71.74 123.14 75.26 123.69 75.58 123.68 71.42"/><polygon class="cls-28" points="123.69 75.58 123.14 75.26 120.07 77.03 120.07 77.67 123.69 75.58"/></g><g class="cls-6"><polygon class="cls-26" points="117.57 74.93 118.41 74.44 118.42 77.96 115.36 79.73 115.36 78.77 115.35 76.21 117.57 74.93"/><polygon class="cls-27" points="118.97 74.12 118.41 74.44 118.42 77.96 118.97 78.28 118.97 74.12"/><polygon class="cls-28" points="118.98 78.29 118.42 77.96 115.36 79.73 115.36 80.38 118.98 78.29"/></g><g class="cls-6"><polygon class="cls-26" points="112.86 77.61 113.7 77.13 113.71 80.65 110.65 82.42 110.64 81.46 110.64 78.9 112.86 77.61"/><polygon class="cls-27" points="114.25 76.81 113.7 77.13 113.71 80.65 114.26 80.97 114.25 76.81"/><polygon class="cls-28" points="114.26 80.97 113.71 80.65 110.65 82.42 110.65 83.06 114.26 80.97"/></g><g class="cls-6"><polygon class="cls-26" points="95.46 65.67 94.62 65.18 94.61 68.7 97.68 70.47 97.68 69.51 97.69 66.95 95.46 65.67"/><polygon class="cls-27" points="94.07 64.86 94.62 65.18 94.61 68.7 94.06 69.02 94.07 64.86"/><polygon class="cls-28" points="94.06 69.03 94.61 68.7 97.68 70.47 97.68 71.11 94.06 69.03"/></g><g class="cls-6"><polygon class="cls-26" points="100.17 68.37 99.33 67.88 99.32 71.41 102.39 73.17 102.39 72.22 102.4 69.65 100.17 68.37"/><polygon class="cls-27" points="98.78 67.56 99.33 67.88 99.32 71.4 98.77 71.73 98.78 67.56"/><polygon class="cls-28" points="98.77 71.73 99.32 71.41 102.39 73.17 102.39 73.82 98.77 71.73"/></g><g class="cls-6"><polygon class="cls-26" points="104.89 71.06 104.05 70.57 104.03 74.09 107.1 75.86 107.1 74.9 107.11 72.34 104.89 71.06"/><polygon class="cls-27" points="103.49 70.25 104.05 70.57 104.04 74.09 103.48 74.42 103.49 70.25"/><polygon class="cls-28" points="103.48 74.42 104.04 74.09 107.1 75.86 107.1 76.5 103.48 74.42"/></g><g class="cls-6"><polygon class="cls-26" points="122.28 65.67 123.13 65.18 123.14 68.7 120.07 70.47 120.07 69.51 120.06 66.95 122.28 65.67"/><polygon class="cls-27" points="123.68 64.86 123.13 65.18 123.14 68.7 123.69 69.02 123.68 64.86"/><polygon class="cls-28" points="123.69 69.03 123.14 68.7 120.07 70.47 120.07 71.11 123.69 69.03"/></g><g class="cls-6"><polygon class="cls-26" points="117.57 68.37 118.41 67.88 118.42 71.41 115.36 73.17 115.36 72.22 115.35 69.65 117.57 68.37"/><polygon class="cls-27" points="118.97 67.56 118.41 67.88 118.42 71.4 118.97 71.73 118.97 67.56"/><polygon class="cls-28" points="118.98 71.73 118.42 71.41 115.36 73.17 115.36 73.82 118.98 71.73"/></g><g class="cls-6"><polygon class="cls-26" points="112.86 71.06 113.7 70.57 113.71 74.09 110.65 75.86 110.64 74.9 110.64 72.34 112.86 71.06"/><polygon class="cls-27" points="114.25 70.25 113.7 70.57 113.71 74.09 114.26 74.42 114.25 70.25"/><polygon class="cls-28" points="114.26 74.42 113.71 74.09 110.65 75.86 110.65 76.5 114.26 74.42"/></g><g class="cls-6"><polygon class="cls-26" points="122.28 78.84 123.13 78.35 123.14 81.87 120.07 83.64 120.07 82.68 120.06 80.12 122.28 78.84"/><polygon class="cls-27" points="123.68 78.03 123.13 78.35 123.14 81.87 123.69 82.2 123.68 78.03"/><polygon class="cls-28" points="123.69 82.2 123.14 81.87 120.07 83.64 120.07 84.29 123.69 82.2"/></g><g class="cls-6"><polygon class="cls-26" points="117.57 81.54 118.41 81.05 118.42 84.58 115.36 86.35 115.36 85.39 115.35 82.82 117.57 81.54"/><polygon class="cls-27" points="118.97 80.74 118.41 81.05 118.42 84.58 118.97 84.9 118.97 80.74"/><polygon class="cls-28" points="118.98 84.9 118.42 84.58 115.36 86.35 115.36 86.99 118.98 84.9"/></g><g class="cls-6"><polygon class="cls-26" points="112.86 84.23 113.7 83.74 113.71 87.27 110.65 89.03 110.64 88.08 110.64 85.51 112.86 84.23"/><polygon class="cls-27" points="114.25 83.42 113.7 83.74 113.71 87.26 114.26 87.59 114.25 83.42"/><polygon class="cls-28" points="114.26 87.59 113.71 87.27 110.65 89.03 110.65 89.68 114.26 87.59"/></g><g class="cls-6"><polygon class="cls-26" points="122.28 85.45 123.13 84.97 123.14 88.49 120.07 90.26 120.07 89.3 120.06 86.73 122.28 85.45"/><polygon class="cls-27" points="123.68 84.65 123.13 84.97 123.14 88.49 123.69 88.81 123.68 84.65"/><polygon class="cls-28" points="123.69 88.81 123.14 88.49 120.07 90.26 120.07 90.9 123.69 88.81"/></g><g class="cls-6"><polygon class="cls-26" points="117.57 88.15 118.41 87.67 118.42 91.19 115.36 92.96 115.36 92 115.35 89.44 117.57 88.15"/><polygon class="cls-27" points="118.97 87.35 118.41 87.67 118.42 91.19 118.97 91.51 118.97 87.35"/><polygon class="cls-28" points="118.98 91.51 118.42 91.19 115.36 92.96 115.36 93.6 118.98 91.51"/></g><g class="cls-6"><polygon class="cls-26" points="112.86 90.84 113.7 90.36 113.71 93.88 110.65 95.65 110.64 94.69 110.64 92.13 112.86 90.84"/><polygon class="cls-27" points="114.25 90.04 113.7 90.36 113.71 93.88 114.26 94.2 114.25 90.04"/><polygon class="cls-28" points="114.26 94.2 113.71 93.88 110.65 95.65 110.65 96.29 114.26 94.2"/></g><g class="cls-6"><polygon class="cls-26" points="122.28 92.07 123.13 91.58 123.14 95.1 120.07 96.87 120.07 95.91 120.06 93.35 122.28 92.07"/><polygon class="cls-27" points="123.68 91.26 123.13 91.58 123.14 95.1 123.69 95.42 123.68 91.26"/><polygon class="cls-28" points="123.69 95.42 123.14 95.1 120.07 96.87 120.07 97.51 123.69 95.42"/></g><g class="cls-6"><polygon class="cls-26" points="117.57 94.77 118.41 94.28 118.42 97.81 115.36 99.58 115.36 98.61 115.35 96.05 117.57 94.77"/><polygon class="cls-27" points="118.97 93.96 118.41 94.28 118.42 97.81 118.97 98.13 118.97 93.96"/><polygon class="cls-28" points="118.98 98.13 118.42 97.81 115.36 99.58 115.36 100.22 118.98 98.13"/></g><g class="cls-6"><polygon class="cls-26" points="112.86 97.46 113.7 96.97 113.71 100.49 110.65 102.26 110.64 101.3 110.64 98.74 112.86 97.46"/><polygon class="cls-27" points="114.25 96.65 113.7 96.97 113.71 100.49 114.26 100.81 114.25 96.65"/><polygon class="cls-28" points="114.26 100.81 113.71 100.49 110.65 102.26 110.65 102.9 114.26 100.81"/></g><g class="cls-6"><polygon class="cls-26" points="122.28 98.68 123.13 98.19 123.14 101.72 120.07 103.49 120.07 102.53 120.06 99.96 122.28 98.68"/><polygon class="cls-27" points="123.68 97.88 123.13 98.19 123.14 101.72 123.69 102.04 123.68 97.88"/><polygon class="cls-28" points="123.69 102.04 123.14 101.72 120.07 103.49 120.07 104.13 123.69 102.04"/></g><g class="cls-6"><polygon class="cls-26" points="117.57 101.38 118.41 100.9 118.42 104.42 115.36 106.19 115.36 105.23 115.35 102.67 117.57 101.38"/><polygon class="cls-27" points="118.97 100.58 118.41 100.9 118.42 104.42 118.97 104.74 118.97 100.58"/><polygon class="cls-28" points="118.98 104.74 118.42 104.42 115.36 106.19 115.36 106.83 118.98 104.74"/></g><g class="cls-6"><polygon class="cls-26" points="112.86 104.07 113.7 103.58 113.71 107.11 110.65 108.88 110.64 107.92 110.64 105.35 112.86 104.07"/><polygon class="cls-27" points="114.25 103.27 113.7 103.58 113.71 107.11 114.26 107.43 114.25 103.27"/><polygon class="cls-28" points="114.26 107.43 113.71 107.11 110.65 108.88 110.65 109.52 114.26 107.43"/></g></g><path class="cls-2" d="M98.25,56.55a.19.19,0,0,0,.11.16.64.64,0,0,0,.57,0,.19.19,0,0,0,.12-.16v2.27a.21.21,0,0,1-.12.17.64.64,0,0,1-.57,0,.21.21,0,0,1-.12-.17Z"/><path class="cls-2" d="M112,64.29a.19.19,0,0,0,.12.16.59.59,0,0,0,.56,0,.19.19,0,0,0,.12-.16v2.27a.21.21,0,0,1-.12.17.64.64,0,0,1-.57,0,.21.21,0,0,1-.12-.17Z"/><polygon class="cls-23" points="113.53 58.17 113.67 64.83 112.4 65.54 112.26 58.89 113.53 58.17"/><polygon class="cls-24" points="112.4 65.54 97.49 57.04 97.35 50.38 112.26 58.89 112.4 65.54"/><polygon class="cls-29" points="112.26 58.89 97.35 50.38 98.62 49.67 113.53 58.17 112.26 58.89"/><g class="cls-6"><path class="cls-30" d="M121.86,104.8a.35.35,0,0,0,.2.28,1.07,1.07,0,0,0,1,0,.35.35,0,0,0,.2-.28v3.88a.34.34,0,0,1-.2.28,1,1,0,0,1-1,0,.32.32,0,0,1-.2-.28Z"/><path class="cls-31" d="M122.06,105.08a1.07,1.07,0,0,0,1,0c.27-.16.27-.41,0-.56a1,1,0,0,0-1,0A.29.29,0,0,0,122.06,105.08Z"/></g><path class="cls-32" d="M117.3,101.25a2,2,0,0,1,1.06-1.78h0a1.59,1.59,0,0,1-.16-.69,1.56,1.56,0,0,1,1.35-1.55v0a2,2,0,0,1,3.77-1,1.57,1.57,0,0,1,2.76,1,1.62,1.62,0,0,1-.1.54,2.31,2.31,0,0,1,.84,4.18,1.34,1.34,0,0,1,.06.4,1.57,1.57,0,0,1-1.21,1.52,2,2,0,0,1-1.94,1.45,2,2,0,0,1-.87-.2,2,2,0,0,1-.87.2,2.05,2.05,0,0,1-1.68-.89l-.08,0a2,2,0,0,1-.35,0,1.57,1.57,0,0,1-1.56-1.39A2,2,0,0,1,117.3,101.25Z"/><g class="cls-6"><path class="cls-30" d="M128.71,107.41a.34.34,0,0,0,.2.28,1,1,0,0,0,1,0,.33.33,0,0,0,.2-.28v3.89a.33.33,0,0,1-.2.28,1.1,1.1,0,0,1-1,0,.35.35,0,0,1-.2-.29Z"/><path class="cls-31" d="M128.91,107.69a1,1,0,0,0,1,0,.29.29,0,0,0,0-.56,1.07,1.07,0,0,0-1,0A.3.3,0,0,0,128.91,107.69Z"/></g><path class="cls-33" d="M124.15,103.87a2,2,0,0,1,1.06-1.79h0a1.59,1.59,0,0,1-.16-.69,1.57,1.57,0,0,1,1.36-1.55v0a2,2,0,0,1,3.76-1,1.57,1.57,0,0,1,2.77,1,1.5,1.5,0,0,1-.11.55,2.31,2.31,0,0,1,.85,4.17,1.75,1.75,0,0,1,0,.4,1.56,1.56,0,0,1-1.2,1.52,2,2,0,0,1-1.94,1.45,1.92,1.92,0,0,1-.87-.2,2,2,0,0,1-.87.2,2,2,0,0,1-1.68-.89l-.08,0a1.47,1.47,0,0,1-.36,0,1.57,1.57,0,0,1-1.56-1.39A2,2,0,0,1,124.15,103.87Z"/><path class="cls-34" d="M105.37,32.55a3.74,3.74,0,0,0-3.76-.37l2.76-1.6a3.74,3.74,0,0,1,3.77.37,11.63,11.63,0,0,1,5.27,9.14,4,4,0,0,1-1.17,3.14h0l0,0-4.1,3.41-2.76,1.61,4.1-3.42.69-.84a4.75,4.75,0,0,0,.53-2.33A11.64,11.64,0,0,0,105.37,32.55Z"/><path class="cls-30" d="M100.06,35.58A10.31,10.31,0,0,0,101.18,40c0,.11.09.2.14.29l4,8,4.1-3.42,0,0a4,4,0,0,0,1.17-3.13,11.64,11.64,0,0,0-5.28-9.15C102.45,30.87,100.07,32.22,100.06,35.58Zm4.7.32s0-.09,0-.14a2.53,2.53,0,0,1,.29.14,4.73,4.73,0,0,1,2.14,3.7s0,.1,0,.15l-.29-.14A4.76,4.76,0,0,1,104.76,35.9Z"/><path class="cls-34" d="M104.77,35.76c0,.05,0,.09,0,.14a4.76,4.76,0,0,0,2.14,3.71l.29.14c-.07,1.25-1,1.74-2.15,1.08a4.73,4.73,0,0,1-2.14-3.7C102.91,35.87,103.72,35.31,104.77,35.76Z"/><path class="cls-35" d="M88.61,131.9c1.71,1,1.72,2.59,0,3.58a6.84,6.84,0,0,1-6.17,0L62.14,123.75c-1.71-1-1.72-2.59,0-3.58a6.78,6.78,0,0,1,6.17,0Z"/><g class="cls-6"><path class="cls-20" d="M70.7,123.15a1.68,1.68,0,0,1,.44.34.8.8,0,0,1,.17.33.41.41,0,0,1,0,.27.7.7,0,0,1-.18.2.16.16,0,0,1-.12,0,.2.2,0,0,1-.11,0l-.31-.17a.19.19,0,0,1-.08-.08.11.11,0,0,1,0-.08.28.28,0,0,0,0-.22c0-.09-.14-.18-.31-.28l-.24-.11a1.05,1.05,0,0,0-.24-.06.88.88,0,0,0-.23,0,.36.36,0,0,0-.19.06c-.07,0-.11.07-.12.11a.15.15,0,0,0,0,.15.89.89,0,0,0,.17.19l.31.28a4.55,4.55,0,0,1,.32.34.61.61,0,0,1,.12.28.34.34,0,0,1-.06.24.84.84,0,0,1-.26.22,1.43,1.43,0,0,1-.44.16,2.33,2.33,0,0,1-.53,0,3.15,3.15,0,0,1-.58-.12,2.79,2.79,0,0,1-.59-.26,1.89,1.89,0,0,1-.41-.3,1.15,1.15,0,0,1-.22-.32.5.5,0,0,1,0-.32.51.51,0,0,1,.23-.26.2.2,0,0,1,.11,0,.21.21,0,0,1,.12,0l.3.17a.24.24,0,0,1,.09.08.11.11,0,0,1,0,.08.49.49,0,0,0,0,.11.21.21,0,0,0,0,.13.42.42,0,0,0,.11.14,1.16,1.16,0,0,0,.25.18,2.1,2.1,0,0,0,.26.13l.28.09.26,0a.57.57,0,0,0,.22-.07.15.15,0,0,0,.09-.12.26.26,0,0,0-.08-.17,1.5,1.5,0,0,0-.22-.22l-.32-.3a2.18,2.18,0,0,1-.26-.29.45.45,0,0,1-.09-.25.38.38,0,0,1,.09-.24,1,1,0,0,1,.28-.22,1.34,1.34,0,0,1,.44-.16,2.16,2.16,0,0,1,.51,0,2.78,2.78,0,0,1,.55.1A2.91,2.91,0,0,1,70.7,123.15Z"/></g><g class="cls-6"><path class="cls-20" d="M72.91,126.1a1.1,1.1,0,0,1-.34.29l-.19.11a.21.21,0,0,1-.12,0,.2.2,0,0,1-.11,0l-1.44-.83a.43.43,0,0,0-.14.12.17.17,0,0,0,0,.14.41.41,0,0,0,.08.14,1.11,1.11,0,0,0,.16.12,1.28,1.28,0,0,0,.25.11,1,1,0,0,0,.21,0l.13,0,.09,0,.35.2s0,0,0,.07a.07.07,0,0,1,0,.06.66.66,0,0,1-.22.06,1.56,1.56,0,0,1-.37,0,2.15,2.15,0,0,1-.47-.09,2.2,2.2,0,0,1-.49-.2,1.21,1.21,0,0,1-.35-.3.49.49,0,0,1-.1-.34.63.63,0,0,1,.16-.33,1.45,1.45,0,0,1,.39-.32,2.43,2.43,0,0,1,1.11-.31,2.24,2.24,0,0,1,.58,0,1.87,1.87,0,0,1,.53.2.9.9,0,0,1,.35.31.5.5,0,0,1,.1.33A.57.57,0,0,1,72.91,126.1Zm-1.72-.72,1,.57a.47.47,0,0,0,.1-.1.21.21,0,0,0,0-.12.2.2,0,0,0,0-.14.57.57,0,0,0-.2-.15.77.77,0,0,0-.25-.1,1,1,0,0,0-.24,0,.78.78,0,0,0-.22,0l-.18,0"/></g><g class="cls-6"><path class="cls-20" d="M75.45,127.37a1.11,1.11,0,0,1-.32.27l-1.26.73a.24.24,0,0,1-.12,0,.21.21,0,0,1-.12,0l-.32-.19s0,0,0-.07a.07.07,0,0,1,0-.06l.15-.09a1.57,1.57,0,0,1-.48,0,1.68,1.68,0,0,1-.52-.2,1.14,1.14,0,0,1-.28-.22.41.41,0,0,1-.11-.23.34.34,0,0,1,.06-.21.63.63,0,0,1,.21-.18,1.12,1.12,0,0,1,.68-.15,2.39,2.39,0,0,1,.79.19l.83.34c.11-.07.16-.14.13-.21a.41.41,0,0,0-.22-.21.64.64,0,0,0-.2-.08l-.2,0-.11,0a.16.16,0,0,1-.09,0l-.4-.23a.13.13,0,0,1-.05-.06s0,0,.05,0a1.31,1.31,0,0,1,.27-.07,2.22,2.22,0,0,1,.37,0,2.31,2.31,0,0,1,.43.08,1.54,1.54,0,0,1,.44.19,1.08,1.08,0,0,1,.34.26.5.5,0,0,1,.14.28A.41.41,0,0,1,75.45,127.37Zm-1.31.19,0,0-.69-.28a1.13,1.13,0,0,0-.34-.1.34.34,0,0,0-.23,0c-.06,0-.08.08,0,.13a.52.52,0,0,0,.17.15,1.3,1.3,0,0,0,.3.13,1.77,1.77,0,0,0,.3,0,.78.78,0,0,0,.27,0,.63.63,0,0,0,.22-.08"/></g><g class="cls-6"><path class="cls-20" d="M77.88,128.24s.05,0,.05.07a.08.08,0,0,1-.05.07l-.28.16a.21.21,0,0,1-.12,0,.2.2,0,0,1-.11,0l-.28-.16a1,1,0,0,0-.49-.15,1,1,0,0,0-.48.15L75,129l-.12,0-.11,0-.33-.19s0,0,0-.07,0-.05,0-.07l2-1.16a.2.2,0,0,1,.11,0,.21.21,0,0,1,.12,0l.33.19s0,0,0,.07a.1.1,0,0,1,0,.07l-.1,0a2.43,2.43,0,0,1,.4,0,1.53,1.53,0,0,1,.39.16Z"/></g><g class="cls-6"><path class="cls-20" d="M79.33,129a1.14,1.14,0,0,1,.4.32.61.61,0,0,1,.12.3.45.45,0,0,1,0,.26.61.61,0,0,1-.16.16.2.2,0,0,1-.11,0,.21.21,0,0,1-.12,0l-.33-.19s0,0,0-.07a.22.22,0,0,1,0-.08.29.29,0,0,0,0-.09.18.18,0,0,0,0-.1.31.31,0,0,0-.08-.1l-.16-.11a.67.67,0,0,0-.21-.09l-.24,0a1.23,1.23,0,0,0-.27,0,1.25,1.25,0,0,0-.29.1l-.16.08-.14.09a.68.68,0,0,0-.17.17.23.23,0,0,0,0,.16.31.31,0,0,0,.07.14l.15.12.2.09a.58.58,0,0,0,.18,0h.46l.12,0,.33.19a.12.12,0,0,1,.05.07s0,.05-.05.07a1.7,1.7,0,0,1-.29.09,1.89,1.89,0,0,1-.43,0,2.09,2.09,0,0,1-.53-.07,1.84,1.84,0,0,1-.55-.23,1,1,0,0,1-.35-.29.67.67,0,0,1-.12-.31.52.52,0,0,1,.1-.31,1,1,0,0,1,.27-.28,1.28,1.28,0,0,1,.17-.1l.18-.1a1.74,1.74,0,0,1,.47-.16,2.48,2.48,0,0,1,.54-.06,2.13,2.13,0,0,1,.55.07A1.81,1.81,0,0,1,79.33,129Z"/></g><g class="cls-6"><path class="cls-20" d="M82.07,129.72a.07.07,0,0,1,.05.06.08.08,0,0,1,0,.07l-.92.53a2.3,2.3,0,0,1,.45.05,1.4,1.4,0,0,1,.43.16,1.14,1.14,0,0,1,.36.3.4.4,0,0,1,.06.29.54.54,0,0,1-.16.28,1.87,1.87,0,0,1-.34.25l-1.15.67a.26.26,0,0,1-.24,0l-.32-.19s0,0,0-.07a.08.08,0,0,1,0-.07l1.09-.63c.18-.1.27-.2.29-.31s0-.21-.21-.3a.91.91,0,0,0-.52-.12,1.17,1.17,0,0,0-.54.16l-1.09.64-.12,0-.11,0-.33-.19s0,0,0-.07,0,0,0-.07l2.81-1.63a.24.24,0,0,1,.12,0,.2.2,0,0,1,.11,0Z"/></g><path class="cls-5" d="M133.63,132.45s10.21-5.54,13-12.2a24.91,24.91,0,0,0,1.2-3.17c-1.87,1.07-12.13,6.75-13.2,7.43"/><path class="cls-36" d="M147.11,117.5,147,118a23.56,23.56,0,0,1-.92,3.4,28,28,0,0,0,1.74-4.33Z"/><path class="cls-5" d="M100.74,142.37l-2.43-7.27s-9.39-6.76-8.43-10.1,2.7-4.29,3.94-3.94c2.32.64,9.31,5.56,12.33,7.36a3.84,3.84,0,0,1,1.58,1.8l4.57,9.83-10.63,14.51a23.93,23.93,0,0,1-.93-12.19"/><path class="cls-36" d="M92.56,123.12s2.77,2.49,4.48,2.72,2.42-1.69,2.42-1.69c-.64-.43-3.94-2.84-6.23-3.27-.77-.14-1.84,1.07-1.84,1.07Z"/><path class="cls-5" d="M123.35,132.82l.71-7.63s-5.88-10-3.67-12.64,4.2-2.84,5.2-2c1.86,1.52,6.29,8.84,8.33,11.71a3.79,3.79,0,0,1,.72,2.28l-1,7.94a7.57,7.57,0,0,1-4,5.75c-3.33,1.71-7.89,4-8.53,3.89-3-.46,1.33-7.56,2.27-9.27"/><path class="cls-36" d="M123.61,111.91s1.53,3.39,3,4.29,2.89-.57,2.89-.57c-.41-.66-2.46-4.19-4.38-5.5-.65-.45-2.12.23-2.12.23Z"/><path class="cls-5" d="M113.1,140.29c-.7-1.82-2.28-6.49-1.7-10.17,0,0-8.34-9.56-6.44-14.07,1.47-3.52,4.09-3.18,5.59-1.74s9.15,8.62,10,9.82a19,19,0,0,1,3.07,7.35l.87,5.81"/><path class="cls-5" d="M113.41,141.07s-.13-.29-.31-.78"/><path class="cls-36" d="M107.32,115.66s2.56,3.36,4.4,4a4.44,4.44,0,0,0,3.56-.52s-5-5.7-6.47-6a3,3,0,0,0-2.7,1.07Z"/><path class="cls-37" d="M110.79,145.47a26.14,26.14,0,0,0,1.38-3.69,26.26,26.26,0,0,0-.67-3.57l1-.57s1.76,2,1.18,4.05-5.34,11.53-5.34,11.53l-1.11.26s3.07-6.89,4.93-11.35"/><path class="cls-37" d="M123.7,129.05s2,3.95,2,6.68c0,.86-.72,4.77-.72,4.77l-1.72.8s1.24-5.52,1.1-6.48-.88-4.09-.88-4.09Z"/><path class="cls-37" d="M135.72,123.88a25.84,25.84,0,0,1-.05,3.09c-.07.85-1,4.9-1,4.9l-1,.58s1.17-5.59,1.17-6.57a13,13,0,0,0-.13-1.38Z"/></g></svg>