<svg id="Layer_1" data-name="Layer 1" xmlns="http://www.w3.org/2000/svg" viewBox="0 0 200 200"><defs><style>.cls-1{fill:#d3c7e3;}.cls-2{fill:#51398e;}.cls-3{fill:#3e277b;}.cls-4{fill:#5f4797;}.cls-5{fill:#484674;}.cls-6{fill:#28275d;}.cls-16,.cls-7{fill:#fff;}.cls-8{fill:#e9445c;}.cls-9{fill:#cc2543;}.cls-10{fill:#f5a694;}.cls-11{fill:#f1866c;}.cls-12{fill:#d75c48;}.cls-13{fill:#fae9f4;}.cls-14{fill:#113859;}.cls-15{fill:#ec6134;}.cls-16{opacity:0.5;}</style></defs><title>WhyUs</title><circle class="cls-1" cx="100" cy="100" r="66.1" transform="translate(-41.42 100) rotate(-45)"/><path class="cls-2" d="M39.66,54.28c1.5,4.37,5.92,4,6,7.64s2.43,6.23,5.51,5.44,5.29-1.54,6.86,2,6.15,5.12,7.82,2.22c.42-.72.87-1.5,1.3-2.27l.36-.62.08-.14a7,7,0,0,0-1.9-9.12,4.34,4.34,0,0,0-4-.77c-4.74,1.61-3.22-3.28-6.16-5.2-3.39-2.22-6.1.56-8.44-1.34C43.76,49.43,38.16,49.91,39.66,54.28Z"/><path class="cls-3" d="M45.46,56,67.12,69.28l.36-.62L45.84,55.34a.36.36,0,0,0-.49.12A.35.35,0,0,0,45.46,56Z"/><path class="cls-4" d="M45.7,31.82C45.07,37.07,49.77,39,48,42.68s-.61,7.63,3,8.35,6.22,1.06,6.08,5.46,3.78,8.34,6.95,6.19L66.49,61l.68-.46.16-.11a8,8,0,0,0,2.59-10.34,5,5,0,0,0-3.79-2.81c-5.69-.71-1.67-5-3.74-8.44-2.39-4-6.57-2.46-8-5.59C52.34,28.88,46.34,26.57,45.7,31.82Z"/><path class="cls-2" d="M50.84,36.44,66.49,61l.68-.46L51.54,36a.41.41,0,0,0-.7.44Z"/><path class="cls-4" d="M135.28,39.55c5.79-3.08,10.7-7.07,7.59-8.88S131.44,35.87,128,43.53l-1.79,2.32c2.6-5.54,2.79-13.2,0-14.38s-2.46,3.93-1.37,8.55a16.84,16.84,0,0,1,.3,7.25l-8.46,11c4.1-8.78,4.38-20.88-.07-22.75s-3.9,6.24-2.18,13.57a27,27,0,0,1,.49,11.47l-1.69,2.19,1,1,10.07-13.07a18.43,18.43,0,0,1,5.75-1c4.75-.13,9.77-1.11,7.92-3.51-1.61-2.09-7.3-.78-11.85,2.14l3.48-4.52A26.67,26.67,0,0,1,135.28,39.55Z"/><rect class="cls-5" x="58.79" y="61.86" width="1.84" height="97.66"/><rect class="cls-5" x="126.07" y="61.86" width="1.84" height="97.66"/><rect class="cls-6" x="55.73" y="158.46" width="75.26" height="10.14" rx="5.07"/><path class="cls-5" d="M131,163.53H55.72a5.09,5.09,0,0,1,5.07-5.07h65.12A5.07,5.07,0,0,1,131,163.53Z"/><path class="cls-7" d="M123.94,158.46H62.75s-1.21-29.06,14.4-41.19h0c.12-.13,3.66-4.06,3.66-6s-4.7-6.69-5-7l0,0c-14.2-12.7-13.06-40.07-13.06-40.07h61.19s1.17,27.77-13.37,40.35c-1,1.07-4.74,5-4.74,6.72s3,5.26,3.57,5.91C125.17,129.23,123.94,158.46,123.94,158.46Z"/><path class="cls-8" d="M92,112.68s.71-5.49-8.44-10.43C78.67,99.63,70,90,69,77.65a38,38,0,0,1,25.08,5.18c14.19,8.9,21.19-2.57,24.12-9.08,0,0,1.51,15.53-8.44,24-5.8,4.92-14.84,8.12-15,15,0,0,1.55,21.14,6.93,29.06,4.68,6.9,10.11,7.6,14.41,11.18a11.55,11.55,0,0,1,3.61,5.54H67a11.58,11.58,0,0,1,3.62-5.54c4.3-3.58,9.73-4.28,14.41-11.18C90.42,133.82,92,112.68,92,112.68Z"/><path class="cls-9" d="M116.86,76.4c-3.5,6.43-10.41,14.21-22.81,6.43A38,38,0,0,0,69,77.65s2.63-2.17,8.6-2.05c10.13.21,15.2,4,19.58,6.51C101.87,84.8,111.69,84.63,116.86,76.4Z"/><path class="cls-6" d="M131,59.11a5.07,5.07,0,0,1-5.07,5.07H60.79a5.07,5.07,0,0,1,0-10.14h65.12A5.07,5.07,0,0,1,131,59.11Z"/><path class="cls-5" d="M131,59.11H55.72A5.09,5.09,0,0,1,60.79,54h65.12A5.07,5.07,0,0,1,131,59.11Z"/><polygon class="cls-10" points="141.68 163.25 141.68 166.19 144.37 166.15 144.55 163.03 141.68 163.25"/><path class="cls-4" d="M142.15,165.92s-.67-.88-1.2-.84-4.56,3.33-5.95,3.61-1.11,1.31-.85,1.83,11-.14,11-.14.33-3.43,0-4.41S143.25,166.14,142.15,165.92Z"/><path class="cls-7" d="M139.93,168.2a.16.16,0,0,0,.15,0,.18.18,0,0,0,.07-.26,3,3,0,0,0-1-1,1.34,1.34,0,0,0-1.38.08.19.19,0,0,0,0,.27.2.2,0,0,0,.28,0,.94.94,0,0,1,1,0,2.65,2.65,0,0,1,.86.89A.18.18,0,0,0,139.93,168.2Z"/><path class="cls-7" d="M140.5,167.65a.23.23,0,0,0,.16,0,.21.21,0,0,0,.07-.27,3.09,3.09,0,0,0-1-1.05,1.35,1.35,0,0,0-1.38.08.2.2,0,0,0,0,.28.19.19,0,0,0,.27,0,1,1,0,0,1,1,0,2.56,2.56,0,0,1,.86.9A.31.31,0,0,0,140.5,167.65Z"/><path class="cls-7" d="M139.14,168.66a.23.23,0,0,0,.16,0,.2.2,0,0,0,.07-.27,3.18,3.18,0,0,0-1-1.05,1.38,1.38,0,0,0-1.38.08.2.2,0,0,0,0,.28.2.2,0,0,0,.27,0,1,1,0,0,1,1,0,2.56,2.56,0,0,1,.86.89A.19.19,0,0,0,139.14,168.66Z"/><path class="cls-8" d="M148.06,114c-.07,1.14-.14,2.42-.23,3.81,0,.25,0,.5,0,.76l0,.46c-.55,8.84-1.32,20.81-1.71,24.65-.81,7.78-.85,19.59-.85,19.59h-4.28c-.41-8.38-1.11-31.88-1.46-44.13,0-.39,0-.76,0-1.13-.05-1.59-.09-3-.12-4Z"/><path class="cls-9" d="M148.06,114c-.07,1.14-.14,2.42-.23,3.81h-.09a52.17,52.17,0,0,1-8.31.2c-.05-1.59-.09-3-.12-4Z"/><path class="cls-9" d="M146.24,114c-.4,8-1,19.77-1.5,24.67-.49,5.06-1,19-1.14,24.6h.56c.17-5.59.65-19.51,1.14-24.55S146.4,122,146.8,114Z"/><polygon class="cls-9" points="140.44 161.75 140.64 163.71 145.78 163.71 145.93 161.75 140.44 161.75"/><polygon class="cls-10" points="150.95 163.07 151.06 166.01 153.74 165.87 153.8 162.75 150.95 163.07"/><path class="cls-4" d="M152.27,165.22a12.16,12.16,0,0,1,1.82-.29c.39,0,2.88,3.07,3.76,3.28,1.59.39,1.48,2.89.5,3-2.84.23-7.6-1.17-7.6-1.17a22.58,22.58,0,0,1-.07-4.23C150.92,164.79,151.47,165.48,152.27,165.22Z"/><path class="cls-7" d="M154.48,168.06a.19.19,0,0,1-.19-.31,3,3,0,0,1,1.13-.93,1.36,1.36,0,0,1,1.37.23.19.19,0,0,1,0,.27.2.2,0,0,1-.28,0,1,1,0,0,0-1-.14,2.87,2.87,0,0,0-1,.79A.16.16,0,0,1,154.48,168.06Z"/><path class="cls-7" d="M154,167.45a.26.26,0,0,1-.15,0,.18.18,0,0,1,0-.27,3,3,0,0,1,1.13-.94,1.38,1.38,0,0,1,1.37.23.2.2,0,0,1,0,.28.19.19,0,0,1-.27,0,1,1,0,0,0-1-.15,2.57,2.57,0,0,0-.95.8A.23.23,0,0,1,154,167.45Z"/><path class="cls-7" d="M155.21,168.6a.21.21,0,0,1-.15,0,.19.19,0,0,1,0-.27,2.9,2.9,0,0,1,1.13-.93,1.34,1.34,0,0,1,1.37.22.2.2,0,1,1-.27.29,1,1,0,0,0-1-.15,2.64,2.64,0,0,0-1,.8A.2.2,0,0,1,155.21,168.6Z"/><path class="cls-8" d="M156.26,114c0,.64,0,1.39-.07,2.23v.2c-.32,11.1-1.1,37.78-1.54,46.84h-4.28s0-11.81-.85-19.59c-.39-3.84-1.16-15.82-1.71-24.65,0-.16,0-.31,0-.46s0-.51,0-.76c-.09-1.38-.16-2.67-.23-3.81Z"/><path class="cls-9" d="M156.26,114c0,.64,0,1.39-.07,2.23a52.34,52.34,0,0,1-8.09,1.55H148l-.2,0h-.09c-.09-1.38-.16-2.67-.23-3.81Z"/><path class="cls-9" d="M149.33,114h-.56c.4,8,1,19.81,1.51,24.72s1,19,1.13,24.55H152c-.17-5.58-.65-19.54-1.14-24.6C150.36,133.8,149.73,122,149.33,114Z"/><polygon class="cls-9" points="155.13 161.75 154.93 163.71 149.79 163.71 149.64 161.75 155.13 161.75"/><path class="cls-2" d="M142.69,91.71C140,95.62,132.85,99,132.85,99a19.78,19.78,0,0,1-6-2.27,18.64,18.64,0,0,0,1-3.93c2.45.68,4.57,1,4.57,1,5.18-2.4,11.27-14.51,11.27-14.51C145.36,82.8,142.69,91.71,142.69,91.71Z"/><path class="cls-6" d="M159.64,89c-2.15,1.91-6,.21-8,.14-3.61-.12-2.46-.06-5.62.48s-2-10-2.19-13.92c-.14-2.45-1.11-5.53-1.11-6.77h0c0-.21,0-.41,0-.62,0-3,1.81-8.39,8.25-7.53,0,0,5.35.61,6,5.83,0,0,.25,2.41.42,4.16.48,4.94,2.3,2.37,1.71,8.39C158.84,81.18,162.16,86.8,159.64,89Z"/><path class="cls-4" d="M139.36,114.91c5.26,3.88,17.42.21,17.42.21,1.37-1.67-.53-5.5-1.09-10a46.16,46.16,0,0,1,.77-12.66c.13-.71.26-1.37.4-2a63.76,63.76,0,0,0,.94-10.11c-.66-.34-1.73-.79-2.81-1.23l-1.93-.77-1.83-.7-4.34.67-.85.26-1.42.43-.93.29s-.67,4.28-1.3,6.88a10.58,10.58,0,0,1-.51,1.64c-.72,1.57-.54,2.33.22,4.41a6.52,6.52,0,0,1,.36,1.58c0,.14,0,.29,0,.44a29.57,29.57,0,0,1-.81,6.89c-.66,3.44-2.29,10.08-2.85,12.34A1.31,1.31,0,0,0,139.36,114.91Z"/><path class="cls-2" d="M142.46,93.86c0,.14,0,.29,0,.44,2.16,1.82,5.88,4.32,10.12,4.32a.15.15,0,0,0,.15-.15.15.15,0,0,0-.15-.16C148.31,98.31,144.54,95.67,142.46,93.86Z"/><path class="cls-2" d="M146.83,86.91c2.15,0,4.14-2.29,4.23-2.39a.16.16,0,0,0,0-.22.16.16,0,0,0-.21,0s-2.11,2.42-4.19,2.28a.15.15,0,0,0,0,.3Z"/><path class="cls-2" d="M151.87,108.72a.15.15,0,0,0,.15-.13.16.16,0,0,0-.14-.17C146.31,107.78,144,98.14,144,98a.15.15,0,1,0-.29.07c.09.4,2.38,10,8.16,10.61Z"/><path class="cls-2" d="M149.65,105.81a.16.16,0,0,0,.13-.08.16.16,0,0,0-.05-.21,7.21,7.21,0,0,1-3.41-4.54.16.16,0,0,0-.17-.13.15.15,0,0,0-.13.17,7.35,7.35,0,0,0,3.55,4.76A.11.11,0,0,0,149.65,105.81Z"/><path class="cls-11" d="M144.91,69.32s-.92-1.17-1.61-.2.29,3.81,2,3.11Z"/><path class="cls-7" d="M144.51,72a.3.3,0,0,1-.3.31.31.31,0,1,1,0-.61A.3.3,0,0,1,144.51,72Z"/><path class="cls-12" d="M144.9,71.35a.14.14,0,0,1-.14-.1A2.17,2.17,0,0,0,143.53,70a.13.13,0,0,1-.08-.17.15.15,0,0,1,.18-.08,2.4,2.4,0,0,1,1.4,1.42.14.14,0,0,1-.1.17Z"/><path class="cls-12" d="M143.93,70.91l-.08,0a.14.14,0,0,1,0-.19,1.42,1.42,0,0,1,.53-.41.15.15,0,0,1,.19.07.14.14,0,0,1-.07.18,1,1,0,0,0-.41.31A.14.14,0,0,1,143.93,70.91Z"/><path class="cls-10" d="M152,75.27v3.14s-1.62,1.61-2.89,1.72-1.7-1.38-1.7-1.38V75.49Z"/><path class="cls-11" d="M152,75.62V77c-.85.94-2.36,1.28-4.59.95V75.84Z"/><path class="cls-10" d="M144.35,70.65c.05.33.09.68.15,1,.4,2.27,1.84,4.72,3.66,5.13,3.91.89,5.54-2.18,6.17-4.45.07-.26-.06-.54,0-.84a21.37,21.37,0,0,0,.48-2.31c0-.55.08-1.09.1-1.58a3.2,3.2,0,0,0-2-3.14,8,8,0,0,0-7.13.23,3.24,3.24,0,0,0-1.58,2.74A25,25,0,0,0,144.35,70.65Z"/><path class="cls-11" d="M149.14,72.4a.15.15,0,0,0,0-.3l-.52-.09.72-1.91a.16.16,0,1,0-.29-.11l-.85,2.26.89.15Z"/><path class="cls-6" d="M155.31,67.21c0,.5-.05,1.05-.1,1.61-.26.15-.88.22-.9.63-.07,1.08-.12,1.82-.35,1.75-.38-.11-.62-1.41-.18-2.26A3.65,3.65,0,0,0,152,67.82a28.15,28.15,0,0,1-3.59-1.75,3.4,3.4,0,0,1-1-.87,3.24,3.24,0,0,1-1.59,1.62A2.43,2.43,0,0,0,144.61,69c0,.09,0,.19,0,.28a2.93,2.93,0,0,1-.27,1c0,.06-.07.07-.1,0,0-.38-.08-.76-.11-1.12a2.64,2.64,0,0,0,0-.29c0-.68,0-1.31,0-1.85a3.31,3.31,0,0,1,1.67-2.79,8.72,8.72,0,0,1,7.51-.24A3.26,3.26,0,0,1,155.31,67.21Z"/><path class="cls-6" d="M147.22,69.87c0,.33-.18.6-.39.6s-.39-.27-.39-.6.18-.61.39-.61S147.22,69.53,147.22,69.87Z"/><path class="cls-6" d="M151.52,69.87c0,.33-.17.6-.38.6s-.39-.27-.39-.6.18-.61.39-.61S151.52,69.53,151.52,69.87Z"/><path class="cls-6" d="M145.93,68.27a7.11,7.11,0,0,1,1.6-.13.28.28,0,0,1,.3.28h0a.25.25,0,0,1-.28.18,8.45,8.45,0,0,0-2.21.13.31.31,0,0,1,.12-.24A1,1,0,0,1,145.93,68.27Z"/><path class="cls-6" d="M152.13,68.35a6.72,6.72,0,0,0-1.6-.16c-.18,0-.32.13-.3.27h0a.26.26,0,0,0,.28.18,8.43,8.43,0,0,1,2.2.16c0-.08,0-.16-.11-.24A.93.93,0,0,0,152.13,68.35Z"/><path class="cls-7" d="M147.45,73.31a1.73,1.73,0,0,0,1.75,1.51,1.65,1.65,0,0,0,1.74-1.51Z"/><path class="cls-11" d="M149.18,75.74a1.7,1.7,0,0,1-.7-.2.15.15,0,0,1,.16-.26h0a1.18,1.18,0,0,0,.54.16,1.27,1.27,0,0,0,.57-.16.16.16,0,0,1,.21,0,.16.16,0,0,1-.05.21A1.58,1.58,0,0,1,149.18,75.74Z"/><path class="cls-10" d="M154.34,69.31s1.07-1.3,1.71-.36-.26,3.7-1.81,3Z"/><path class="cls-7" d="M155.21,72a.31.31,0,1,1-.61,0,.31.31,0,0,1,.61,0Z"/><path class="cls-11" d="M154.58,71.12a.13.13,0,0,0,.12-.1,2,2,0,0,1,1.14-1.2.13.13,0,0,0-.1-.25A2.3,2.3,0,0,0,154.45,71a.13.13,0,0,0,.09.16Z"/><path class="cls-11" d="M155.47,70.69l.07,0a.13.13,0,0,0,0-.18,1.22,1.22,0,0,0-.49-.4.12.12,0,0,0-.17.07.13.13,0,0,0,.06.17.88.88,0,0,1,.38.3A.13.13,0,0,0,155.47,70.69Z"/><circle class="cls-6" cx="137.42" cy="93.1" r="15.66" transform="translate(-6.18 9.84) rotate(-4.01)"/><path class="cls-13" d="M149.93,89.71a13,13,0,0,1-1.33,9.84,13.05,13.05,0,0,1-3.28,3.74,12.87,12.87,0,0,1-4.62,2.27,13.36,13.36,0,0,1-2,.36,12.86,12.86,0,0,1-3.16-.06l-.59-.1a13,13,0,0,1-4.11-1.53c-.21-.12-.41-.25-.61-.38a12.89,12.89,0,0,1-3.13-2.9,13.6,13.6,0,0,1-1.36-2.17,13.83,13.83,0,0,1-.91-2.45,13,13,0,0,1,1.33-9.83,12.92,12.92,0,0,1,3.28-3.74,13,13,0,0,1,7.19-2.68,12.88,12.88,0,0,1,2.56.1,13.16,13.16,0,0,1,4.07,1.29l.63.35a13,13,0,0,1,3.36,2.81l.38.46a13,13,0,0,1,1.61,2.73A12.44,12.44,0,0,1,149.93,89.71Z"/><path class="cls-14" d="M135.32,85.15h0a.21.21,0,0,1-.27-.15l-.51-1.93a.22.22,0,0,1,.16-.27h0A.21.21,0,0,1,135,83l.51,1.93A.22.22,0,0,1,135.32,85.15Z"/><path class="cls-14" d="M140.09,103.24h0a.22.22,0,0,1-.26-.15l-.51-1.93a.22.22,0,0,1,.15-.27h0a.22.22,0,0,1,.27.16l.51,1.93A.21.21,0,0,1,140.09,103.24Z"/><path class="cls-14" d="M129.53,95.1h0a.22.22,0,0,1-.16.27l-1.93.51a.23.23,0,0,1-.27-.16h0a.23.23,0,0,1,.16-.27l1.93-.51A.22.22,0,0,1,129.53,95.1Z"/><path class="cls-14" d="M147.62,90.32h0a.22.22,0,0,1-.16.27l-1.93.51a.23.23,0,0,1-.27-.15h0a.22.22,0,0,1,.16-.27l1.93-.51A.22.22,0,0,1,147.62,90.32Z"/><rect class="cls-14" x="140.89" y="84.72" width="2.43" height="0.44" transform="translate(-2.82 164.98) rotate(-59.78)"/><path class="cls-14" d="M132.08,102.16h0a.22.22,0,0,1-.08-.3l1-1.73a.22.22,0,0,1,.3-.07h0a.21.21,0,0,1,.08.29l-1,1.73A.21.21,0,0,1,132.08,102.16Z"/><path class="cls-14" d="M130.36,88.93h0a.22.22,0,0,1-.3.08l-1.72-1a.22.22,0,0,1-.08-.3h0a.21.21,0,0,1,.3-.07l1.72,1A.21.21,0,0,1,130.36,88.93Z"/><path class="cls-14" d="M146.53,98.34h0a.21.21,0,0,1-.3.08l-1.72-1a.22.22,0,0,1-.08-.3h0a.21.21,0,0,1,.3-.08l1.72,1A.22.22,0,0,1,146.53,98.34Z"/><path class="cls-15" d="M141.42,93.63l-4.22-.49,0-.38,4.22.5a.18.18,0,0,1,.16.21h0A.18.18,0,0,1,141.42,93.63Z"/><path class="cls-14" d="M137.62,93.16l-6.39,1.68a.19.19,0,0,1-.23-.13h0a.19.19,0,0,1,.13-.23l6-1.59L135.87,88a.18.18,0,0,1,.13-.23h0a.19.19,0,0,1,.23.13Z"/><path class="cls-16" d="M143.29,81.47l-13,22.38a12.89,12.89,0,0,1-3.13-2.9,13.6,13.6,0,0,1-1.36-2.17l10.89-18.7a12.88,12.88,0,0,1,2.56.1A13.16,13.16,0,0,1,143.29,81.47Z"/><path class="cls-16" d="M149.27,87.82l-10.54,18.1a12.86,12.86,0,0,1-3.16-.06l-.59-.1,12.3-21.13.38.46A13,13,0,0,1,149.27,87.82Z"/><path class="cls-10" d="M121,91.55a4.53,4.53,0,0,1,2.23.7c.54.57-1.75.76-1.75.76s2.77-.21,3,.44-2.52.93-2.52.93,1.91.15,2.09.64-1.77.77-1.77.77,1.49.27,1.67.62-1.44.79-2.31.71-.52-1.21-.52-1.21-.44-.94-.15-1.34c0,0-.53-.82-.35-1.36C120.56,93.21,119.92,91.83,121,91.55Z"/><path class="cls-10" d="M139.94,105l-.59.29a1.44,1.44,0,0,1-1.56-.19c-.21-.15-.55-.46-.71-.55a3.82,3.82,0,0,0-1.82-.34c-.3.13,0,.63.34.75a5.44,5.44,0,0,1,1.11.51c.33.24-.88,1.68-1.43,2.15s-1.83.69-1.68,1.27,1,.23,1,.23,0,.6.88.64a.71.71,0,0,0,.68.54.78.78,0,0,0,.83.5c.6-.1,2.45-.45,4.64-4Z"/><path class="cls-2" d="M153.27,91.36a20.78,20.78,0,0,1-2.63,7.4s-2.13,1.27-5.38,3.43a43.76,43.76,0,0,1-5.32,2.85c.59.77,1.3,2.34,1.07,2.8,6.55-1.47,13-5.77,13-5.77,5.13-5.94,5-19.2,5-19.2s-.17-2-1.23-2.47a5.23,5.23,0,0,0-2.9,3.32C154.16,86.24,153.27,91.36,153.27,91.36Z"/><path class="cls-7" d="M149.64,69.58v.26a1.93,1.93,0,0,0,.58,1.38,1.89,1.89,0,0,0,1.36.57h.07a1.73,1.73,0,0,0,1.2-.54,1.87,1.87,0,0,0,.56-1.36v-.31a.64.64,0,0,0,0-.24.78.78,0,0,0-.16-.24.64.64,0,0,0-.48-.2h-2.4a.68.68,0,0,0-.62.39.77.77,0,0,0-.07.27Zm.29,0a.4.4,0,0,1,.4-.4h2.4a.4.4,0,0,1,.4.4v.31a1.59,1.59,0,0,1-.48,1.16,1.44,1.44,0,0,1-1,.45h-.06a1.66,1.66,0,0,1-1.65-1.66Z"/><path class="cls-7" d="M144.83,69.58v.26a1.93,1.93,0,0,0,.58,1.38,1.89,1.89,0,0,0,1.36.57h.07a1.73,1.73,0,0,0,1.2-.54,1.87,1.87,0,0,0,.56-1.36v-.31h0a.55.55,0,0,0-.06-.26.66.66,0,0,0-.62-.41h-2.4a.68.68,0,0,0-.53.24.64.64,0,0,0-.13.26A.57.57,0,0,0,144.83,69.58Zm.29,0a.4.4,0,0,1,.4-.4h2.4a.4.4,0,0,1,.4.4v.31a1.63,1.63,0,0,1-.48,1.16,1.44,1.44,0,0,1-1,.45h-.06a1.66,1.66,0,0,1-1.65-1.66Z"/><path class="cls-7" d="M155,68.78a3.23,3.23,0,0,0-1.45.32,2,2,0,0,0-.25.15l.14.24s.19-.12.26-.15a2.72,2.72,0,0,1,.91-.26Z"/><path class="cls-7" d="M149.83,69.59l.1-.27a3.27,3.27,0,0,0-.85-.14,1.81,1.81,0,0,0-.78.15l.12.25a1.71,1.71,0,0,1,.66-.12A2.59,2.59,0,0,1,149.83,69.59Z"/><path class="cls-7" d="M145.1,69.2l-.12.25s-.17-.08-.41-.16a4.2,4.2,0,0,0-.48-.12,2.64,2.64,0,0,0,0-.29,3.57,3.57,0,0,1,.54.13A2.74,2.74,0,0,1,145.1,69.2Z"/></svg>