<svg xmlns="http://www.w3.org/2000/svg" xmlns:xlink="http://www.w3.org/1999/xlink" viewBox="0 0 1039.63 1202.84"><defs><style>.cls-1{fill:none;}.cls-2{isolation:isolate;}.cls-3{clip-path:url(#clip-path);}.cls-4{fill:url(#radial-gradient);}.cls-24,.cls-34,.cls-5,.cls-6{mix-blend-mode:multiply;}.cls-5{fill:url(#radial-gradient-2);}.cls-7{fill:url(#radial-gradient-3);}.cls-8{fill:url(#radial-gradient-4);}.cls-9{fill:url(#radial-gradient-5);}.cls-10{fill:url(#radial-gradient-6);}.cls-11{fill:url(#radial-gradient-7);}.cls-12{fill:#b7d333;}.cls-13,.cls-18,.cls-28{mix-blend-mode:screen;}.cls-14{fill:#c3e8fa;opacity:0.7;mix-blend-mode:color-dodge;}.cls-15{fill:#b31e23;}.cls-16,.cls-18{fill:#fff;}.cls-17{fill:#ee1927;}.cls-19{fill:#f4f5d2;}.cls-20,.cls-24{fill:#e54555;}.cls-21{fill:#821f2a;}.cls-22{fill:#480000;}.cls-23{fill:#f3d7a2;}.cls-25{fill:#9e8172;}.cls-26{fill:url(#linear-gradient);}.cls-27{fill:#a69570;}.cls-28,.cls-33{fill:#77cce0;}.cls-29{fill:#f1f9fd;mix-blend-mode:overlay;}.cls-30{fill:#6f5a4e;}.cls-31{fill:#9e8068;}.cls-32{fill:#ba977a;}.cls-34{fill:#ce3d4c;}.cls-35{fill:#7a9c4d;}.cls-36{fill:#5b7835;}.cls-37{fill:#662d91;}.cls-38{fill:#ab731b;}.cls-39{fill:#fbb03b;}.cls-40{fill:#2b2470;}.cls-41{fill:#473e9e;}.cls-42{fill:#ffd1b3;}.cls-43{fill:#b3b3b3;}.cls-44{fill:#5b9eba;}.cls-45{fill:#949494;}.cls-46{fill:#6b6b6b;}.cls-47{fill:#ccc;}.cls-48{fill:#bf262d;}.cls-49{fill:#7d1015;}.cls-50{fill:#333;}.cls-51,.cls-53{fill:#d4a383;}.cls-51{opacity:0.5;}.cls-52{fill:#3d1c13;}.cls-54{fill:#7cc4e2;}.cls-55{fill:#324518;}.cls-56{fill:#cfcfcf;}.cls-57{fill:gray;}.cls-58{fill:#7c41ab;}.cls-59{fill:#d6696e;}</style><clipPath id="clip-path" transform="translate(-163.19 -45.06)"><rect class="cls-1" x="148.73" y="248.46" width="1068.55" height="474.48"/></clipPath><radialGradient id="radial-gradient" cx="1600.02" cy="-4257.03" r="1021.35" gradientTransform="translate(4621.03 3360.4) rotate(-84.15)" gradientUnits="userSpaceOnUse"><stop offset="0" stop-color="#e3f3fc"/><stop offset="0.47" stop-color="#00bbf1"/><stop offset="0.98" stop-color="#00466c"/></radialGradient><radialGradient id="radial-gradient-2" cx="1696.59" cy="-4060.9" r="1182" xlink:href="#radial-gradient"/><radialGradient id="radial-gradient-3" cx="1920.62" cy="-4469.52" r="152.64" xlink:href="#radial-gradient"/><radialGradient id="radial-gradient-4" cx="1935.06" cy="-3929.65" r="914.67" xlink:href="#radial-gradient"/><radialGradient id="radial-gradient-5" cx="1921.72" cy="-3933.46" r="931.29" xlink:href="#radial-gradient"/><radialGradient id="radial-gradient-6" cx="1942.72" cy="-3930.8" r="913.91" xlink:href="#radial-gradient"/><radialGradient id="radial-gradient-7" cx="1942.02" cy="-3927.01" r="913.82" xlink:href="#radial-gradient"/><linearGradient id="linear-gradient" x1="96.49" y1="-2493.19" x2="157.87" y2="-2404.27" gradientTransform="translate(1839.35 2109.9) rotate(-46.46)" gradientUnits="userSpaceOnUse"><stop offset="0" stop-color="#a1d7c6"/><stop offset="0.52" stop-color="#fff"/><stop offset="1" stop-color="#58c8e9"/></linearGradient></defs><title>About</title><g class="cls-2"><g id="Layer_2" data-name="Layer 2"><g class="cls-3"><path class="cls-4" d="M777.83,304c260,26.63,449.11,259,422.48,518.9S941.36,1272,681.4,1245.39,232.29,986.46,258.92,726.49,517.88,277.39,777.83,304Z" transform="translate(-163.19 -45.06)"/><path class="cls-5" d="M258.92,726.49c-26.63,260,162.53,492.28,422.48,518.9s492.28-162.5,518.91-422.47S1037.79,330.65,777.83,304,285.55,466.54,258.92,726.49ZM1069.37,845c-22,215.13-214.3,371.67-429.42,349.63S268.28,980.37,290.32,765.24s214.3-371.66,429.43-349.63S1091.41,629.92,1069.37,845Z" transform="translate(-163.19 -45.06)"/><g class="cls-6"><path class="cls-7" d="M472.06,1145.14c-10-10.29-8.22-24.67-13.07-37.13-6.43-16.62-26.73-13.78-32.53-27.85-4.06-9.87,4-21-.65-31.22-3.22-7.1-12.05-10-16.56-11.75s-7.8-12.51-8.93-17.36,2.13-15.4-2.3-19.28,9.33-16,7.16-27.86c-3.18-17.45-21.82,1.29-28.64,6.09-20.49,14.38-26.62-12-33.09-26-6.77-14.68-14.05-25.16-30.13-30.49-8.83-3-8.78-18.79-11.48-25.93-3.8-10-13.6-16.9-13.68-28.34-.12-13.56,12.69-57.23-13.55-56-1.71.08-14.9.27-16.76-.15,11.43,147.42,104.54,289.25,225.07,366.74C480.42,1169.54,475.88,1149.05,472.06,1145.14Z" transform="translate(-163.19 -45.06)"/><path class="cls-8" d="M272,654.37c4.27-4.45,20-9.36,25.07-8.72,9.54,1.18,9.61,9,11.65,17,3.91,15.24,11.38,31.81,25.87,40.24a18.68,18.68,0,0,0,2.36-1.07c6.59-3.87,8.06-11.65,8.44-18.74.57-11-.31-21.81,1.49-32.69,2-12.11,5.38-23.84,8.09-35.8,4.83-21.23,4.12-44,11.47-64.64,6.42-18,20.74-27.35,36.89-36.4,19.87-11.12,38-20.46,50.45-40.26,10.63-16.87,20.39-29,40.21-34.63,25.12-7.08,44-22.17,66.64-34.27,9.25-4.95,19-9.6,29.62-10.6,11-1,22.13,5.87,31.29,10.8a2.27,2.27,0,0,1,1.25,2.85,91.72,91.72,0,0,1-7.38,17.71c6.09,1.28,12.47,3.42,15.93,8.86.15.22.22.46.36.67,4.79-2.39,8.83-4.26,10.87-3.95,5.22.79,11.63-1.93,16.17-1.11s21.63,5.18,27.82-2.36,16.58-6.65,18.12-10.53,9-7.67-9.1-17.51-15.52.41-18.07-9.83,5.21-13.69,13.67-10,10.66,6.39,17.08,3.68,24.49-.15,31,5.75,21,13.15,30.09,8.91,14.26,2.44,18.22,6.05,16.16,13.36,22,12.05,14.62-4.48,17.47-9.79,7.21-15.19,2.07-21.84S812.24,373,814.51,362.5s-10.06-23-20.88-32.81c-10.38-9.43-26.53-7.2-32.11-20.22C538.25,296.1,327.94,442.78,272,654.37Z" transform="translate(-163.19 -45.06)"/><path class="cls-9" d="M881.38,356.62c15.47,6.16,25.76,19.48,28.06,24.19s15.09,5.92,26.68,9.76c26.3,8.73,67-1.58,67.21-1.89-41-29.1-86.7-46-136.52-60.78C867.12,334.8,869.15,351.76,881.38,356.62Z" transform="translate(-163.19 -45.06)"/><path class="cls-10" d="M834.37,570.34c-12.42,6.36-13,17.57-23.2,14.2s-20.1-1.34-23.76,2.67-22.14,4.14-8.93,14.68,18.12,16.47,21,21.33,6.34,3.56,15.82,8.5,12.47,19.44,13.82,23.59-3,.91-15.33,1.51-13.24-3.23-24.27,0-4.42-4-19.27,7.46S758.18,684.88,746,678.92s-16.07-13.86-18.67-19.9-21.56-32.09-15.56-43.54,7.68-24.63,4.31-30.63-2.52-20.7-12.43-18.67-14.25,8.38-15.77,16.53-8.79,17.76-14.54,18.42-6.69-3.14-18.21,5.49-19.1,11.31-23.65,13.06-18.26,4.73-42.6,3.19-25.79-8-31.57,0-15.67,2.67-23.17-1.21-12.73-16.71-23.6-10.43-10.92-2.56-19.8,4.79L483,623.68s-6.23,6.83-9.21,8.52-6.52,8.8-6.7,13-4.93,26.44-8.35,35.07,8.37,22.32,8.45,31.94-1.24,14.31,11.67,10.62,16.29,2.31,23.35-3,23.17-6.89,28.73-3.3,15,39.34,27.63,46.43,16,12.33,16.7,18.84,10.24,21.09,17.66,23.43,18.17,1.06,20.58,3.25,7.93,5,11.45,14.1,9,36.15,11.64,42.19,3.85,24.08,16,36.6,1.69,19.18,24.52,29.63,17.24,22.3,30.16,18.6,50.42-8.57,60.49.57,31.76,28.16,42,33.06,33.1,7.27,40.32,13.85,16.56,15.78,24.31,16.95,26.9-1.29,33.56-7,28.5-16,38.09-16.83,30.85-15.33,43.22-30.56,22.37-15.71,22.94-27.67-5-9-16-4.25-12.73-.54-28.1,8.28-4.65,7.55-20.74,9.08-25.85-.7-37.08-10.16-19.33-17.57-26.91-23-16.69-26.94-16-52.78,15.48-6.5,19.72-38.67S923,789.1,917.19,756.64s-20.9-34.43-26.9-47.24,61.29-47.21,54.19-75,9.95-17.41-9.59-39.6-23.35-37.39-45.48-33.26S846.78,564,834.37,570.34Z" transform="translate(-163.19 -45.06)"/><path class="cls-11" d="M560.57,496.16c-14.14,1.7-30.14-1.77-43.43,4.55-11.6,5.52-19.67,17.2-20,30.14-.3,12.63,8.87,28.41,18.27,36.26,5,4.18,10.48,7.73,17.08,5.63,4.1-1.32,14.07-15.68,18.81-13.35,19.08,9.33,40.25-14.24,58.68-3.48,5.09,3,5.78,8.69,10.14,12.15,11.49,9.11,32.11,9.89,45.35,4.65,5.1-2,17.23-8.83,14.93-16.28-1.84-5.94-10.24-3.6-14.36-6-18.84-10.94-36.4-31.46-47.48-49.9-5.05-8.44-10-14.33-15.83-16.88-10-4.36-19,2.13-27.83,6.57C570.37,492.48,565.75,495.54,560.57,496.16Z" transform="translate(-163.19 -45.06)"/></g><path class="cls-12" d="M463.75,1150.62c-10.18-10.44-8.36-25-13.27-37.69-6.52-16.86-27.14-14-33-28.25-4.13-10,4-21.32-.67-31.69-3.27-7.21-12.23-10.21-16.81-11.93s-7.92-12.71-9.06-17.61,2.14-15.65-2.35-19.58,9.48-16.23,7.28-28.29c-3.23-17.71-22.15,1.32-29.08,6.17-20.8,14.61-27-12.11-33.58-26.37-6.87-14.89-14.25-25.52-30.58-30.93-9-3-8.91-19.08-11.66-26.34C287.1,888,277.15,881,277.06,869.36c-.09-13.77,12.91-58.09-13.73-56.89a20.93,20.93,0,0,1-5.48-.63C269.46,961.47,351.67,1094.33,474,1173,471.49,1163.8,467.63,1154.6,463.75,1150.62Z" transform="translate(-163.19 -45.06)"/><path class="cls-12" d="M272.32,653.09c4.32-4.54,8.6-10.1,13.74-9.46,9.71,1.2,9.77,9.15,11.84,17.25,4,15.48,11.55,32.27,26.26,40.85a18,18,0,0,0,2.4-1.1c6.69-3.91,8.18-11.82,8.55-19,.59-11.1-.31-22.12,1.52-33.18,2-12.3,5.46-24.19,8.21-36.33,4.89-21.54,4.18-44.67,11.64-65.61,6.52-18.3,21-27.76,37.45-36.95,20.17-11.29,38.57-20.77,51.21-40.86,10.79-17.14,20.7-29.48,40.83-35.15,25.48-7.19,44.65-22.52,67.62-34.79,9.39-5,19.35-9.75,30.07-10.76,11.11-1,22.46,5.94,31.76,11a2.3,2.3,0,0,1,1.26,2.89,92.32,92.32,0,0,1-7.48,18c6.16,1.28,12.66,3.46,16.16,9,.15.2.23.45.37.67,4.87-2.43,9-4.32,11-4,5.29.79,11.82-2,16.4-1.12s22,5.24,28.26-2.41,16.82-6.76,18.38-10.68,9.09-7.79-9.24-17.78-15.74.42-18.34-10,5.3-13.91,13.87-10.13,10.82,6.49,17.34,3.73,24.85-.13,31.44,5.85,21.3,13.35,30.55,9,14.47,2.47,18.5,6.12,16.39,13.57,22.28,12.25,14.84-4.56,17.73-9.95,7.33-15.41,2.11-22.16-17-11.44-14.71-22.07-10.22-23.31-21.21-33.3c-10.53-9.57-26.92-7.3-32.58-20.52C530.92,288.84,329.16,438.31,272.32,653.09Z" transform="translate(-163.19 -45.06)"/><path class="cls-12" d="M879.21,350.27c15.7,6.25,26.15,19.76,28.47,24.54s15,7,27.09,9.93,68.14,4.45,68.14,4.45.16-.18.42-.51a470.42,470.42,0,0,0-138.9-67.58C864.74,328.12,866.79,345.33,879.21,350.27Z" transform="translate(-163.19 -45.06)"/><path class="cls-12" d="M828.72,574.73c-12.59,6.46-13.21,17.82-23.54,14.42s-20.4-1.37-24.11,2.71-22.47,4.2-9.06,14.89,18.39,16.71,21.36,21.66,6.42,3.6,16.06,8.62,12.65,19.72,14,23.94-3.09.94-15.57,1.53-13.43-3.26-24.63,0-4.48-4.1-19.57,7.59S751.4,691,739,684.93s-16.32-14.06-19-20.18-21.88-32.58-15.79-44.21,7.8-25,4.39-31.09-2.57-21-12.64-18.94S681.54,579,680,587.3s-8.91,18-14.74,18.69-6.81-3.2-18.5,5.57-19.39,11.47-24,13.25-18.55,4.79-43.24,3.24-26.19-8.14-32.06,0-15.89,2.71-23.5-1.24-12.94-17-24-10.58-11.07-2.59-20.08,4.87l-7.85,7.79s-6.31,6.95-9.36,8.67-6.61,8.91-6.79,13.23-5,26.82-8.47,35.58S456,709,456,718.77s-1.25,14.52,11.85,10.76,16.53,2.36,23.69-3.07,23.52-7,29.17-3.35,15.19,39.92,28,47.13,16.24,12.52,17,19.13,10.4,21.4,17.93,23.78,18.43,1.06,20.88,3.29,8.06,5.1,11.62,14.31,9.18,36.68,11.83,42.83,3.89,24.44,16.24,37.14,1.7,19.47,24.88,30.09,17.51,22.62,30.61,18.87,51.17-8.7,61.41.58,32.23,28.57,42.64,33.54,33.58,7.38,40.93,14.08,16.79,16,24.66,17.19,27.31-1.3,34.06-7.1,29-16.22,38.67-17.08,31.31-15.57,43.87-31,22.69-16,23.29-28.09-5.13-9.13-16.22-4.3-12.94-.56-28.55,8.39-4.71,7.66-21.05,9.22-26.23-.71-37.64-10.32-19.6-17.83-27.29-23.33-16.94-27.34-16.24-53.57,15.71-6.62,20-39.26,36.42-31.83,30.54-64.78-21.22-34.94-27.31-48,62.22-47.91,55-76.1,10.09-17.68-9.75-40.2-23.7-38-46.17-33.76S841.32,568.27,828.72,574.73Z" transform="translate(-163.19 -45.06)"/><path class="cls-12" d="M547,498.33c-14.35,1.72-30.61-1.8-44.08,4.62-11.78,5.6-20,17.45-20.28,30.6-.32,12.81,9,28.83,18.54,36.8,5.08,4.25,10.64,7.84,17.32,5.7,4.17-1.33,14.3-15.89,19.1-13.54,19.38,9.47,40.86-14.44,59.59-3.54,5.15,3,5.84,8.83,10.26,12.34,11.66,9.25,32.62,10,46,4.71,5.18-2,17.49-9,15.16-16.51-1.87-6-10.4-3.67-14.57-6.09-19.14-11.12-36.95-31.95-48.19-50.67-5.13-8.55-10.16-14.54-16.07-17.12-10.15-4.43-19.33,2.15-28.27,6.65C556.9,494.61,552.21,497.7,547,498.33Z" transform="translate(-163.19 -45.06)"/><g class="cls-13"><path class="cls-12" d="M459.86,1146.14c-9.05-12.13-20.12-19.37-33.08-27-13.65-8-28.33-16.1-38.75-28.3-11.31-13.24-20.27-28.3-28.66-43.49-10.17-18.42-19.52-37.81-32.11-54.73-5.23-7-12.26-11.45-18.36-17.57a228.08,228.08,0,0,1-15.64-17.24A475.25,475.25,0,0,0,474,1173a95.16,95.16,0,0,0-3.89-11.39A138.33,138.33,0,0,0,459.86,1146.14Z" transform="translate(-163.19 -45.06)"/><path class="cls-12" d="M820.74,389.13c-3.7,7.32-12.09,9.62-19.79,8.12-9.86-1.94-16.9-5.88-22.53-14.27-9.06-13.5-27.17-4.65-40.88-8.19-17.29-4.49-30.58-20-49.73-17.29-16,2.28-29.77,11-44.6,16.9,7.6,11.39,15.88,22.2,27,30.39,1.25.92,1.27,3.28-.39,3.82-13,4.22-35.62,15.35-42.44-2.55-2.12-5.58-2.28-11.79-4.52-17.34-2.92-7.17-9.09-11-16.1-13.75-10.77-4.27-22-6.76-33.07-10.12-.37,11.51-2.25,15.76-13.51,22.91-15.29,9.71-34,13-50.46,20.14a142.63,142.63,0,0,1-27.82,8.74c-7.53,1.57-16.82,1.89-23.86,5.22-4.81,2.26-5.5,8.53-7.49,13a82.14,82.14,0,0,1-12.13,19.83c-6.45,7.6-13.58,14.48-20.62,21.53-6.55,6.57-12.49,13.74-20.06,19.18C382.44,506.43,359.5,513.94,349.9,531c-10.43,18.64-5.8,40.18-9.08,60.38-3.31,20.44-7.48,40.91-17.35,59.32a2.31,2.31,0,0,1-3.4,1c-8.16-4.53-25.62-23.07-35.23-14-4.43,4.21-7.37,9.58-11.91,13.25-.19.71-.42,1.42-.61,2.16,4.32-4.54,8.6-10.1,13.74-9.46,9.71,1.2,9.77,9.15,11.84,17.25,4,15.48,11.55,32.27,26.26,40.85a18,18,0,0,0,2.4-1.1c6.69-3.91,8.18-11.82,8.55-19,.59-11.1-.31-22.12,1.52-33.18,2-12.3,5.46-24.19,8.21-36.33,4.89-21.54,4.18-44.67,11.64-65.61,6.52-18.3,21-27.76,37.45-36.95,20.17-11.29,38.57-20.77,51.21-40.86,10.79-17.14,20.7-29.48,40.83-35.15,25.48-7.19,44.65-22.52,67.62-34.79,9.39-5,19.35-9.75,30.07-10.76,11.11-1,22.46,5.94,31.76,11a2.3,2.3,0,0,1,1.26,2.89,92.32,92.32,0,0,1-7.48,18c6.16,1.28,12.66,3.46,16.16,9,.15.2.23.45.37.67,4.87-2.43,9-4.32,11-4,5.29.79,11.82-2,16.4-1.12s22,5.24,28.26-2.41,16.82-6.76,18.38-10.68,9.09-7.79-9.24-17.78-15.74.42-18.34-10,5.3-13.91,13.87-10.13,10.82,6.49,17.34,3.73,24.85-.13,31.44,5.85,21.3,13.35,30.55,9,14.47,2.47,18.5,6.12,16.39,13.57,22.28,12.25,14.84-4.56,17.73-9.95,7.33-15.41,2.11-22.16a53.67,53.67,0,0,0-7.19-6.83C821.69,377.27,823.65,383.4,820.74,389.13Z" transform="translate(-163.19 -45.06)"/><path class="cls-12" d="M975.35,378.74c-14.88-5.73-33.58,8.72-46.37-4.66-5.13-5.39-7.87-11.88-10.9-18.59-4.77-10.63-10.36-15.48-20.36-21.13a73,73,0,0,1-6.84-4.46c-8.71-3.14-17.5-6.13-26.45-8.8.31,7,2.36,24.23,14.78,29.17,15.7,6.25,26.15,19.76,28.47,24.54s15,7,27.09,9.93c9.12,2.21,43.46,3.62,59.62,4.18C987.49,385.53,980.61,380.77,975.35,378.74Z" transform="translate(-163.19 -45.06)"/><path class="cls-12" d="M987.16,966.83c-6.94,6.19-18.8,17.67-29.22,16.6-3.76-.39-7.32-1.92-11-2.3-6.41-.66-12.15,4.32-17,7.82-6.89,5-13.95,9.15-21.16,13.71-11.62,7.32-22.9,11.23-36.47,6.72-15.74-5.25-26.68-17.53-40.82-25.52-15.21-8.61-34.31-7.77-48.43-18.11-12.48-9.17-20.86-27.31-35.72-32.7-16.56-6-30.8,4-47,5-22.48,1.42-38.73-12.83-46.34-32.87-2.91-7.68-5.71-15.29-10.66-21.95-3.11-4.21-6.75-8.42-9-13.23-5.43-11.83-5.77-26.47-7.07-39.28-1.07-10.63-2.28-20.23,1.15-30.52.69-2.07,4.94-11.12,1.17-12.31-6.14-1.94-13.47-.63-19.67.52-15.57,2.88-24.56,7.23-33.56-8.58-12.53-22-36.34-36.27-45.58-60.17-1.42-3.7-1.47-7.89-1.43-11.8,0-2.09.3-4.39-.25-6.42-1.62-6.35-13.1-3.95-15.71-1.8-3.68,3-12.56,11.42-17.95,6.58-5.18-4.65-8.82-13.77-17.47-7.21-3.72,2.82-7.17,6-11,8.69-3.33,2.41-9,4.27-12.24.52-4.88-5.61-3.24-14.82-2.13-21.5a65,65,0,0,0,.27-19.76,157.44,157.44,0,0,1-5.45,19.39c-3.5,8.77,8.51,22.66,8.58,32.43s-1.25,14.52,11.85,10.76,16.53,2.36,23.69-3.07,23.52-7,29.17-3.35,15.19,39.92,28,47.13,16.24,12.52,17,19.13,10.4,21.4,17.93,23.78,18.43,1.06,20.88,3.29,8.06,5.1,11.62,14.31,9.18,36.68,11.83,42.83,3.89,24.44,16.24,37.14,1.7,19.47,24.88,30.09,17.51,22.62,30.61,18.87,51.17-8.7,61.41.58,32.23,28.57,42.64,33.54,33.58,7.38,40.93,14.08,16.79,16,24.66,17.19,27.31-1.3,34.06-7.1,29-16.22,38.67-17.08,31.31-15.57,43.87-31c7.12-8.76,13.46-12.71,17.72-16.71C997.88,957,992.56,962,987.16,966.83Z" transform="translate(-163.19 -45.06)"/><path class="cls-12" d="M930.86,627.22c-1.58,12.84,6.33,24.24-3.93,35.44a107.1,107.1,0,0,1-36.14,25.48c-4.88,2.09-10.75,3.07-13.95,7.7a108.4,108.4,0,0,0-12.12,22.65c-8.36,22,10.68,23.28,24.15,33.45,8.24,6.23,15.9,16.54,13.71,27.41-1.38,6.87-3.6,13.52-4.63,20.43,9.16-9.32,18.2-17.12,14.85-35.95-5.88-32.93-21.22-34.94-27.31-48s62.22-47.91,55-76.1c-5.12-20,2-20.56-.41-27.22C935.85,616.49,931.69,620.41,930.86,627.22Z" transform="translate(-163.19 -45.06)"/><path class="cls-12" d="M659,564c-7.68,5.59-19.07,5.31-28.1,5.66-8.52.32-13.8-1.5-19.49-7.93C605,554.55,595.2,539,584,542.83c-12.86,4.4-24.84,5-38.33,4.74-9.3-.22-19.52-.66-27.93,4.08-3.19,1.8-6.77,5.76-10.33,6.92-6.51,2.14-13.52-.62-19.6-5.54a57.06,57.06,0,0,0,13.31,17.32c5.08,4.25,10.64,7.84,17.32,5.7,4.17-1.33,14.3-15.89,19.1-13.54,19.38,9.47,40.86-14.44,59.59-3.54,5.15,3,5.84,8.83,10.26,12.34,11.66,9.25,32.62,10,46,4.71,5.18-2,17.49-9,15.16-16.51a5.3,5.3,0,0,0-2.43-3.1A32.8,32.8,0,0,1,659,564Z" transform="translate(-163.19 -45.06)"/></g><path class="cls-14" d="M941.52,1160.56c-107.11,53.36-197.2,66.22-265.1,63.6l-.65,0a433.59,433.59,0,0,1-64.68-3.58c69.1,19.49,180.19,31.47,309.77-26.86,219-98.55,274.35-318.41,266.64-432.71C1187.5,761,1190.19,1036.67,941.52,1160.56Z" transform="translate(-163.19 -45.06)"/><path class="cls-15" d="M463.35,277.31A46.47,46.47,0,1,0,389.7,330.2h0l.19.17h0L463.27,396l3.8-98.62H467A46.23,46.23,0,0,0,463.35,277.31Z" transform="translate(-163.19 -45.06)"/><path class="cls-16" d="M463.48,396.46a.54.54,0,0,1-.56-.1l-73.37-65.59h0l-.19-.17,0,0a46.45,46.45,0,0,1-12-16.72,47,47,0,1,1,86.52-36.73,46.45,46.45,0,0,1,3.71,20.06.54.54,0,0,1,.05.21L463.8,396A.53.53,0,0,1,463.48,396.46ZM390.25,330l72.54,64.84,3.74-97.28a.38.38,0,0,1,0-.21,45.94,45.94,0,1,0-76.44,32.46l0,0,.15.13Z" transform="translate(-163.19 -45.06)"/><path class="cls-17" d="M460.27,279.4c-9.74-22.93-35.27-34-57-24.78s-31.52,35.31-21.79,58.23A47,47,0,0,0,392.8,329h0l.18.17h0l62,47.36,9-77.79H464A46.9,46.9,0,0,0,460.27,279.4Z" transform="translate(-163.19 -45.06)"/><path class="cls-18" d="M447.11,279.19a30.78,30.78,0,1,1-40.36-16.32A30.78,30.78,0,0,1,447.11,279.19Z" transform="translate(-163.19 -45.06)"/><path class="cls-15" d="M936.65,857.06A46.47,46.47,0,1,0,863,910h0l.19.17h0l73.37,65.59,3.8-98.62h-.06A46.08,46.08,0,0,0,936.65,857.06Z" transform="translate(-163.19 -45.06)"/><path class="cls-16" d="M936.78,976.21a.54.54,0,0,1-.56-.09l-73.37-65.6h0l-.19-.17,0,0a47,47,0,1,1,78.24-33.39.35.35,0,0,1,0,.2l-3.8,98.62A.53.53,0,0,1,936.78,976.21Zm-73.22-66.47,72.53,64.84,3.74-97.28a.46.46,0,0,1,0-.21,45.94,45.94,0,1,0-76.44,32.46l0,0,.15.13Z" transform="translate(-163.19 -45.06)"/><path class="cls-17" d="M933.57,859.15c-9.73-22.92-35.26-34-57-24.78S845,869.68,854.76,892.6a46.72,46.72,0,0,0,11.34,16.17h0l.19.17h0l62.05,47.37,9-77.8h-.06A46.9,46.9,0,0,0,933.57,859.15Z" transform="translate(-163.19 -45.06)"/><path class="cls-18" d="M920.41,858.94a30.78,30.78,0,1,1-40.36-16.32A30.78,30.78,0,0,1,920.41,858.94Z" transform="translate(-163.19 -45.06)"/><polygon class="cls-19" points="37.51 507.26 122.56 559.26 233.09 435.28 135.91 370.37 37.51 507.26"/><polygon class="cls-20" points="88.13 279.75 210.18 295.02 198.82 316.03 105.61 298.99 88.13 279.75"/><polygon class="cls-21" points="93.17 285.29 105.61 298.99 198.82 316.03 208.53 298.07 97.27 285.34 93.17 285.29"/><polygon class="cls-22" points="88.13 279.75 93.17 285.29 97.27 285.34 208.53 298.07 210.18 295.02 88.13 279.75"/><polygon class="cls-23" points="94.17 289.62 196.09 303.19 268.31 363.66 233.09 435.28 148.96 379.2 94.17 289.62"/><path class="cls-21" d="M238.33,390.42,202,574.86l9.19,5.64L328.64,441.89l-9.19-5.63S269,407.49,238.33,390.42Z" transform="translate(-163.19 -45.06)"/><path class="cls-22" d="M251.27,324.77l-12.94,65.65c30.69,17.07,81.12,45.84,81.12,45.84l9.19,5.63L260.45,330.4Z" transform="translate(-163.19 -45.06)"/><polygon class="cls-20" points="0 411.31 38.85 529.84 156.32 391.24 88.13 279.75 0 411.31"/><path class="cls-24" d="M231.42,382q14.39-21.28,28.9-42.48l-9-14.72L163.19,456.37l6.67,20.34C191.42,445.88,210.36,413.15,231.42,382Z" transform="translate(-163.19 -45.06)"/><path class="cls-24" d="M206.37,461.08c11-16.82,22.28-33.39,33.69-49.94s22.58-32.95,33.8-49.49L262,342.31q-15,21.9-29.84,43.89c-20.91,31-39.65,63.51-61.16,94.07l6.65,20.31C188.24,488.2,197.46,474.71,206.37,461.08Z" transform="translate(-163.19 -45.06)"/><path class="cls-24" d="M210,485.1c11.69-17,24.47-33.19,37-49.53,13.4-17.44,26.83-34.88,39.85-52.62l-11.37-18.6q-16.42,24.18-33,48.27c-12.88,18.68-25.35,37.6-38,56.45a345.34,345.34,0,0,1-25.84,34.66l5.77,17.6C193.71,509.82,201.6,497.28,210,485.1Z" transform="translate(-163.19 -45.06)"/><path class="cls-24" d="M203.4,539.4c7.23-9,14.46-18.06,21.79-27,14.13-17.23,28.68-34.12,43-51.16q19.27-22.86,38.6-45.67l-18.29-29.9c-13.89,18.84-28.22,37.38-42.47,56-12.46,16.25-25.11,32.42-36.53,49.44-7.67,11.43-15.23,23-24,33.58L194,550.37C197.16,546.72,200.42,543.14,203.4,539.4Z" transform="translate(-163.19 -45.06)"/><path class="cls-24" d="M270,463.11c-15,17.78-30.18,35.38-44.86,53.41-7.31,9-14.73,17.88-21.8,27.05-2.62,3.41-5.5,6.61-8.33,9.85l7,21.48L319.51,436.3l-11.28-18.44Q289.11,440.48,270,463.11Z" transform="translate(-163.19 -45.06)"/><polygon class="cls-25" points="177.2 333.35 146.54 309.81 145.1 312.71 173.81 334.75 167.21 350.51 169.36 352.06 177.2 333.35"/><polygon class="cls-26" points="145.1 312.71 137.11 328.84 167.21 350.51 173.81 334.75 145.1 312.71"/><polygon class="cls-27" points="145.1 312.71 137.11 328.84 167.21 350.51 173.81 334.75 145.1 312.71"/><path class="cls-28" d="M318.48,376.89c-4.8-3.56-9.59-7.13-14.34-10.76l-3.85,7.77,14.33,10.31Q316.6,380.56,318.48,376.89Z" transform="translate(-163.19 -45.06)"/><path class="cls-28" d="M315.88,385.11l14.52,10.46,3.12-7.47c-4.57-3.45-9.18-6.86-13.78-10.28C318.48,380.27,317.2,382.7,315.88,385.11Z" transform="translate(-163.19 -45.06)"/><path class="cls-28" d="M322.59,368.75l-14.31-11-3.43,6.93q7.13,5.44,14.36,10.77C320.34,373.24,321.47,371,322.59,368.75Z" transform="translate(-163.19 -45.06)"/><path class="cls-28" d="M320.46,376.41c4.57,3.39,9.15,6.77,13.69,10.19l2.84-6.79L323.84,369.7Q322.16,373.06,320.46,376.41Z" transform="translate(-163.19 -45.06)"/><polygon class="cls-29" points="88.94 281.06 88.13 279.75 0 411.31 38.85 529.84 39 529.67 6.77 410.87 88.94 281.06"/><polygon class="cls-30" points="260.54 379.06 238.88 421.94 169.97 370.36 192.64 326.06 260.54 379.06"/><polygon class="cls-31" points="259.16 381.79 240.12 419.48 173.82 369.47 193.69 329.58 259.16 381.79"/><polygon class="cls-31" points="259.16 381.79 193.69 329.58 192.64 331.69 258.09 383.89 240.11 419.48 240.12 419.48 259.16 381.79"/><polygon class="cls-32" points="192.64 331.69 173.82 369.47 240.11 419.48 258.09 383.89 192.64 331.69"/><path class="cls-25" d="M270.15,529.11l-27.86,33.13,35.65,20.61L307,549C294.63,542,282.6,535.8,270.15,529.11Z" transform="translate(-163.19 -45.06)"/><path class="cls-25" d="M334.31,517.52l32.26-37.39L329.66,457.7l-32.51,38.89C309.65,503.55,321.74,510.69,334.31,517.52Z" transform="translate(-163.19 -45.06)"/><path class="cls-27" d="M244.28,559.88l-2,2.36,35.65,20.61L307,549l-3.36-1.88-27,31.47Z" transform="translate(-163.19 -45.06)"/><path class="cls-33" d="M244.28,559.88l32.36,18.71,27-31.47c-11.16-6.24-22.14-11.93-33.45-18Z" transform="translate(-163.19 -45.06)"/><path class="cls-27" d="M333,513.26c-11.44-6.23-22.51-12.7-33.84-19.08l-2,2.41c12.5,7,24.59,14.1,37.16,20.93l32.26-37.39-3.26-2Z" transform="translate(-163.19 -45.06)"/><path class="cls-33" d="M363.31,478.14,329.66,457.7l-30.5,36.48c11.33,6.38,22.4,12.85,33.84,19.08Z" transform="translate(-163.19 -45.06)"/><polygon class="cls-34" points="150.14 389.39 38.85 529.84 156.32 391.24 88.13 279.75 150.14 389.39"/></g><path class="cls-35" d="M928.41,116.1c6.33,5.48,4.69,9.94,2,21.7s-3.14,25-5.59,30.8-3.36,10.91-9.7,12.11-19-4-26-11.87-7.8-60.68-6.18-64.26S908.94,97.29,928.41,116.1Z" transform="translate(-163.19 -45.06)"/><path class="cls-36" d="M915.59,153.14c3.34,3,11,3.47,12.62,1.67s-.26,11.81-3.67,15.35S914.5,167.47,915.59,153.14Z" transform="translate(-163.19 -45.06)"/><path class="cls-37" d="M945.82,94.63c3.87,6.08-6.39,28.28-19.89,22.14-10.19-5.77-15.54-8.25-16.3-8.75s-26.39-6.55-28.82-6.9-9.82.63-11-.12c-5.28-8.54-.92-25.94,2.86-28.94s41.71,9,50.54,11.47S944.42,89.35,945.82,94.63Z" transform="translate(-163.19 -45.06)"/><path class="cls-36" d="M906.18,107.32c2.68-5,3.9-9.28-.66-10.28s-11-2.36-12.69-1.69-3.39,9-3.39,9l2.32,1.07s1.81-7.61,2.6-7.77,9,1.75,9.74,3-1.05,7-1.05,7S906.12,107.3,906.18,107.32Z" transform="translate(-163.19 -45.06)"/><path class="cls-38" d="M833.24,308.8a13.6,13.6,0,0,1-.68,5.17s-1.55,2.27-6.43,3.77c-1.11.35-16,3-22.82-2,.24-1.68.56-1.64.56-1.64S824.92,319,833.24,308.8Z" transform="translate(-163.19 -45.06)"/><path class="cls-39" d="M833.81,297.25c.13,3.66-.24,11.84-1,13.13-4.05,5.52-19.4,7.71-29.27,4.48-1-2.75,1.65-5,5.49-5.18,3.6-.18,11.18-1.9,11.44-10.4C821.13,299.27,832.21,298.77,833.81,297.25Z" transform="translate(-163.19 -45.06)"/><path class="cls-38" d="M834.67,297.39a5.58,5.58,0,0,1,0,2.51c1,.92.19,2.24-.27,2.58-2.27,1.67-4.71,1.95-5.28,1.53,0-1.72.09-4.43.09-4.43S834.46,297.75,834.67,297.39Z" transform="translate(-163.19 -45.06)"/><path class="cls-38" d="M823.93,300.22c.08,0,.23.34.42,1a14.69,14.69,0,0,1,.53,2.94,7.49,7.49,0,0,1-.15,2.16,6.07,6.07,0,0,1-1.08,2.31,8.7,8.7,0,0,1-.9,1,5.68,5.68,0,0,1-.51.47l-.35.31c-.09.08-.21.06-.31.1l-.2,0-1.37.29-.65.14h0l.17.49a5.2,5.2,0,0,0,.43,1.06,1.13,1.13,0,0,0,.34.41c.06.07.24.08.49.11a9.66,9.66,0,0,0,1.52,0,26.58,26.58,0,0,0,3-.37,8.93,8.93,0,0,0,1.25-.33l1.17-.61c.76-.4,1.45-.8,2.07-1.18a20.1,20.1,0,0,0,2.77-2c.6-.54.89-.9,1-.85s-.07.51-.59,1.2a13.13,13.13,0,0,1-2.63,2.44c-.61.45-1.3.91-2,1.36-.38.23-.76.46-1.2.7a7.36,7.36,0,0,1-1.5.47,21.58,21.58,0,0,1-3.13.48,11,11,0,0,1-1.73,0,3.51,3.51,0,0,1-.5-.07,1.71,1.71,0,0,1-.6-.25,2.51,2.51,0,0,1-.76-.85,7.2,7.2,0,0,1-.53-1.31l-.23-.7c-.14-.39-.32-.8-.48-1.18l3.56-.69.14,0h0l.16-.13a3.83,3.83,0,0,0,.48-.41,9.36,9.36,0,0,0,.82-.86,6,6,0,0,0,1.28-3.77c0-1.19-.09-2.18-.13-2.87S823.85,300.24,823.93,300.22Z" transform="translate(-163.19 -45.06)"/><path class="cls-38" d="M816.44,307.43c-.1-.13.1-.52.72-.81a3,3,0,0,1,2.54.17,3.39,3.39,0,0,1,1.66,1.87c.2.63.08,1-.08,1.07-.36.06-.88-1.12-2.18-1.76a3.8,3.8,0,0,0-1.72-.44C816.9,307.52,816.54,307.59,816.44,307.43Z" transform="translate(-163.19 -45.06)"/><path class="cls-38" d="M818.81,306.28c-.11-.13.1-.52.68-.8a3.9,3.9,0,0,1,2.37-.23,3.14,3.14,0,0,1,2.08,1.31c.36.62.2,1.08,0,1.08s-.38-.24-.74-.47a4.61,4.61,0,0,0-1.64-.62,8.48,8.48,0,0,0-1.87-.17C819.25,306.38,818.92,306.43,818.81,306.28Z" transform="translate(-163.19 -45.06)"/><path class="cls-38" d="M820,303.64c-.12-.1-.06-.53.47-.95a2.41,2.41,0,0,1,1.08-.43,3.54,3.54,0,0,1,1.36.13,3.77,3.77,0,0,1,1.92,1.35c.35.5.39.9.24,1-.31.19-1.2-.67-2.54-1.08a3.32,3.32,0,0,0-1.64-.12C820.44,303.61,820.12,303.76,820,303.64Z" transform="translate(-163.19 -45.06)"/><path class="cls-38" d="M811.84,309.21s.11,0,.2,0a1,1,0,0,0,.35.1,2.53,2.53,0,0,0,1.29-.25,10.19,10.19,0,0,0,1.88-1.08c.34-.25.69-.51,1-.8l.45-.45.38-.54c2.31-3.2,3.07-6.35,3.45-6.28.17,0,.2.88-.12,2.21a14.32,14.32,0,0,1-2.24,4.81c-.15.21-.25.38-.49.67s-.4.39-.59.56a11.72,11.72,0,0,1-1.19.83,7.75,7.75,0,0,1-2.28,1,2.35,2.35,0,0,1-1.77-.17.72.72,0,0,1-.33-.39C811.8,309.29,811.8,309.23,811.84,309.21Z" transform="translate(-163.19 -45.06)"/><path class="cls-38" d="M850.57,322.63a13.78,13.78,0,0,1-2,4.8s-2.35,1.56-7.2,1.93c-1.15.09-14.3,1.82-20.46-4,.44-1.65.75-1.57.75-1.57S839.84,330.24,850.57,322.63Z" transform="translate(-163.19 -45.06)"/><path class="cls-39" d="M854.18,311.64c-.84,3.56-3.37,11.35-4.43,12.4-5.37,4.24-19.14,4.9-28.54.49-.68-2.86,2.33-4.95,5.93-5.1s11.14-1.24,13.66-9.37C841.42,310.23,852.24,312.68,854.18,311.64Z" transform="translate(-163.19 -45.06)"/><path class="cls-38" d="M855,312a5.7,5.7,0,0,1-.72,2.41c.73,1.16-.41,2.21-1,2.42-2.62,1-5,.63-5.49.07.44-1.67,1.27-4.25,1.27-4.25S854.68,312.29,855,312Z" transform="translate(-163.19 -45.06)"/><path class="cls-38" d="M843.87,311.89c.13,0,.29,1.33-.2,3.51A10.2,10.2,0,0,1,842,319a9,9,0,0,1-1.69,1.75,9.15,9.15,0,0,1-1.07.73,5.39,5.39,0,0,1-.58.32l-.16.08h0s0,0,0,0v.16l0,.62a6.29,6.29,0,0,0,.12,1.11,1.4,1.4,0,0,0,.18.49.42.42,0,0,0,.25.2,3.28,3.28,0,0,0,1.15.15,17.12,17.12,0,0,0,2.59-.31,29.39,29.39,0,0,0,8.23-2.66c.06.05-.16.42-.75.91a11.47,11.47,0,0,1-2.78,1.55,29.06,29.06,0,0,1-4.47,1.39,15.45,15.45,0,0,1-2.79.41,4.37,4.37,0,0,1-1.68-.23,1.69,1.69,0,0,1-.86-.7,3.13,3.13,0,0,1-.36-.9,7.46,7.46,0,0,1-.14-1.35l0-.6V322l0-.29-.07-.6,1-.46a5,5,0,0,0,.51-.27,9.23,9.23,0,0,0,1-.61,8.58,8.58,0,0,0,1.53-1.47,10.53,10.53,0,0,0,1.73-3.17C843.53,313.18,843.68,311.86,843.87,311.89Z" transform="translate(-163.19 -45.06)"/><path class="cls-38" d="M835.15,318.24c-.06-.16.24-.47.88-.61a3.18,3.18,0,0,1,2.43.59,3.09,3.09,0,0,1,1.31,2.15c.06.67-.17,1-.34,1-.36-.05-.55-1.29-1.74-2.1a4.61,4.61,0,0,0-1.64-.73C835.57,318.45,835.21,318.42,835.15,318.24Z" transform="translate(-163.19 -45.06)"/><path class="cls-38" d="M837.32,316.37c-.07-.16.24-.48.88-.59a3.79,3.79,0,0,1,2.34.41A3.11,3.11,0,0,1,842.2,318c.18.69-.09,1.09-.25,1.06s-.31-.35-.59-.66a4.73,4.73,0,0,0-1.42-1,9.25,9.25,0,0,0-1.75-.65C837.72,316.58,837.4,316.55,837.32,316.37Z" transform="translate(-163.19 -45.06)"/><path class="cls-38" d="M839.15,314.13c-.1-.13.08-.52.7-.79a2.35,2.35,0,0,1,1.15-.12,3.34,3.34,0,0,1,1.28.48,3.7,3.7,0,0,1,1.49,1.81c.21.57.14,1,0,1-.35.1-1-1-2.16-1.72a3.38,3.38,0,0,0-1.55-.55C839.61,314.22,839.26,314.29,839.15,314.13Z" transform="translate(-163.19 -45.06)"/><path class="cls-38" d="M830.06,319.16s.11,0,.19.06l.13.1.18.05a2.37,2.37,0,0,0,1.33-.26,18.16,18.16,0,0,0,4.31-2.7,19.89,19.89,0,0,0,3.33-3.91c.77-1.12,1.3-1.81,1.46-1.72s-.06.91-.65,2.18a13.24,13.24,0,0,1-3.27,4.44,12.83,12.83,0,0,1-2.56,1.71,9.83,9.83,0,0,1-2.36.9,2.34,2.34,0,0,1-1.83-.19,2.43,2.43,0,0,1-.23-.24.9.9,0,0,1-.07-.22C830,319.23,830,319.17,830.06,319.16Z" transform="translate(-163.19 -45.06)"/><path class="cls-40" d="M889.42,203.68c-2.69,13.38-16.26,40.2-21.37,60.36s-9.33,43.69-10.41,47.71c-6.22,3.83-17.54.05-19.28-1.75,1.36-8.4,8.08-39.57,8.14-47.57s9.09-39.86,11.54-51.23c-2.1-.9-3.65-1.76-3.65-1.76-4.93,7.29-20.12,33.22-20.12,33.22,1.09,7.57,2.22,44,2,57.27-6.44,4.07-16.51.48-16.51.48-1.65-11.58-4.61-54.55-5.25-59.92s11.07-29.12,15-35.63,19.31-28.43,19.31-28.43,37.57,12.93,38.1,12.62S889.42,203.68,889.42,203.68Z" transform="translate(-163.19 -45.06)"/><path class="cls-41" d="M850.65,183.49c.11-.16,1,.3,2.46,1.1s3.4,1.93,5.62,3a26.16,26.16,0,0,0,3.2,1.27l1.47.44,1.27.42a10.63,10.63,0,0,0,1.81.43c.42.05.66,0,.71.09s-.17.3-.68.42a5.49,5.49,0,0,1-2,0c-.42-.06-.87-.16-1.34-.27s-1-.17-1.52-.32a19.36,19.36,0,0,1-3.43-1.25,32.21,32.21,0,0,1-5.56-3.39C851.28,184.36,850.55,183.63,850.65,183.49Z" transform="translate(-163.19 -45.06)"/><path class="cls-42" d="M836.3,133.67c-2.25-8.25-4.83-17.18-4.82-19.71s2-4.82.77-6.18-11.69-7.66-12.31-7-2.3,2.5-1.35,4,4.63,6,4.7,9-.89,27.17-.77,29.2S834.85,150.44,836.3,133.67Z" transform="translate(-163.19 -45.06)"/><path class="cls-43" d="M832.2,108.51c2.07,2,4.15,1.71,4.41-2.6s1.16-17.07,1.23-20.69-3.4-5.29-6.8-7.32-6.13-2.9-6.64,1-1.24,14.6-1.33,14.94S822.87,105.34,832.2,108.51Z" transform="translate(-163.19 -45.06)"/><path class="cls-44" d="M857.38,103.75a8.21,8.21,0,0,0-4.46,2.81c-1.33,1.36-15,25.9-15.67,26.33s-1.77-2.56-1.77-2.56-5.08,11.49-13.69,9.26c-.5,11,3.26,18.32,6.57,20.1s15.5-6.84,24.21-20.25" transform="translate(-163.19 -45.06)"/><path class="cls-45" d="M951,347c5.31,3.88,2.9,11.74-3.8,9.72s-8.25-8-5.71-9.59A9.85,9.85,0,0,1,951,347Z" transform="translate(-163.19 -45.06)"/><path class="cls-46" d="M944.1,348.54c.18.1.09.59.17,1.38a11,11,0,0,0,.68,3,5.58,5.58,0,0,0,1.6,2.42c.56.45,1.09.52,1.11.73s-.58.46-1.55.09a4.69,4.69,0,0,1-2.39-2.77,6.6,6.6,0,0,1-.38-3.53C943.51,348.92,944,348.45,944.1,348.54Z" transform="translate(-163.19 -45.06)"/><path class="cls-47" d="M949.84,349.08c2.71,3.14-.36,6.73-3.12,4.31a4.68,4.68,0,0,1-1.25-5.48Z" transform="translate(-163.19 -45.06)"/><path class="cls-45" d="M925.08,334.8c4.11,3.2,2.07,9.95-3.17,8.36s-6.34-6.67-4.31-8.07A7.21,7.21,0,0,1,925.08,334.8Z" transform="translate(-163.19 -45.06)"/><path class="cls-46" d="M919.65,336.21c.17.09.14.51.21,1.15a11.09,11.09,0,0,0,.49,2.48,4.78,4.78,0,0,0,1.11,2.05c.4.38.83.47.85.67s-.49.47-1.33.12a3.84,3.84,0,0,1-1.89-2.44,5.68,5.68,0,0,1-.16-3C919.12,336.51,919.5,336.13,919.65,336.21Z" transform="translate(-163.19 -45.06)"/><path class="cls-47" d="M924.16,336.56c2.07,2.63-.42,5.74-2.54,3.73a4.17,4.17,0,0,1-.88-4.65Z" transform="translate(-163.19 -45.06)"/><path class="cls-48" d="M954.26,284.17c-1-7.53-4.89-11.67-12.35-15.45s-18.44-10.17-23.13-10.54S905,256.41,903.69,267s2.25,26.11,3.66,41.64,2.27,21.44,11.1,27.59,16.68,10.49,22.3,12.77,17.67.17,20.59-5.73S956.73,302,954.26,284.17Z" transform="translate(-163.19 -45.06)"/><path class="cls-49" d="M952.71,348.85c.17-4-2.79-23.7-4.15-35.65s-6.52-32.6-9.39-36-4.62-4.36-4.62-4.36l1.78-.41s5.37,1.55,8.51,14,9.58,55.26,9.2,62.51C952.93,349.68,952.71,348.85,952.71,348.85Z" transform="translate(-163.19 -45.06)"/><path class="cls-50" d="M939.17,272.18a33.51,33.51,0,0,0-5.48,1.32s-22.86-12.37-22.86-12.81,7.94-.1,8.33.11S939.29,271.32,939.17,272.18Z" transform="translate(-163.19 -45.06)"/><path class="cls-47" d="M933.09,242.89c0,.68,1.66,23.59,2,27.05.18,1.83-3.73,2.68-3.87.3s-.59-25.22-.59-25.22Z" transform="translate(-163.19 -45.06)"/><path class="cls-47" d="M916.49,233.76c0,.68,1.66,23.59,2,27.05.18,1.83-3.73,2.68-3.87.3s-.59-25.22-.59-25.22Z" transform="translate(-163.19 -45.06)"/><path class="cls-42" d="M922,181.81c3,7.26,1,32.44,2.31,35.57s7.75,9.31,7.59,11.16-.37,3.47-.83,3.12-12-4.77-13.33-6.8-.2-3.84-2.12-8.7-8.87-23.87-9-28.6S911.15,172.89,922,181.81Z" transform="translate(-163.19 -45.06)"/><path class="cls-48" d="M928.85,229.61c3.11,2.95,5.4,4.79,6,15.19-1.2,1.57-5.29,1-5.82-.33-.48-5.26-2.49-8.58-5.61-10.64s-6.48-4.52-6.52-1.86a48.52,48.52,0,0,0,.69,7c-.72,2.26-4.26.08-4.65-2.58-.66-9.2-1.32-14.62,5.77-11.16C925.07,229.16,928.85,229.61,928.85,229.61Z" transform="translate(-163.19 -45.06)"/><path class="cls-42" d="M893.38,90.11c.41,5.13.46,8.48,6.26,15.5-14.09,12.26-35.3,13.48-30.87,1.53,5.1-4.09,7-4.92,7.08-5.24s0-6.78.15-7.2S891.51,90.84,893.38,90.11Z" transform="translate(-163.19 -45.06)"/><path class="cls-51" d="M875.9,100.14c0-2,0-5.15.1-5.44s15.51-3.86,17.38-4.59a33.09,33.09,0,0,0,.78,5.9c-.11.12-.22.24-.34.35C885.64,99.72,879.9,100.62,875.9,100.14Z" transform="translate(-163.19 -45.06)"/><path class="cls-16" d="M885.85,112.38c-5.42,2.78-16.81,1.62-16.06-5.31-7.55,11.13-15.64,38.81-16.54,48.82s-3.31,22-3.31,22,17.53,16,28.07,10C879.6,167.74,879.77,123.45,885.85,112.38Z" transform="translate(-163.19 -45.06)"/><path class="cls-42" d="M872.41,50.45c-5.2,8.85-7.28,12.75-6.76,16.9s1.12,5.8.35,8.11,0,6.23,1,11.85,6.24,12.44,26.6,4.09c2.37-2.19,3.24-7.93,3.24-7.93,10.09,6.71,13.47-14.25,3-8.9C904.75,56.14,882.52,34.89,872.41,50.45Z" transform="translate(-163.19 -45.06)"/><path class="cls-52" d="M905.1,74.5c4.5-15.94,4-23.06-10.94-27.62S872.24,48,871.08,49.05s-1.89,3.28-1.55,3.71,1.17,1.43,1.17,1.43c5.94-1,14.82-1.27,21.1,5.65a20.3,20.3,0,0,0-1.09,10.73c3.59.74,4.23,5.82,3.65,8l3.12.39C898.55,75.79,902.16,72.16,905.1,74.5Z" transform="translate(-163.19 -45.06)"/><path class="cls-53" d="M876.37,83.77c0,.18-1,.24-2.45,0a9.94,9.94,0,0,1-1.22-.31,3.1,3.1,0,0,1-1.44-.87,3.62,3.62,0,0,1-.59-1.73,9.87,9.87,0,0,1-.09-1.72,26.23,26.23,0,0,1,.81-5.77c.37-1.43.73-2.29.91-2.25s.14,1,0,2.41-.37,3.46-.42,5.63a12.88,12.88,0,0,0,.06,1.55,2.91,2.91,0,0,0,.28,1.15,2.33,2.33,0,0,0,.87.58c.36.16.72.3,1.06.42C875.51,83.32,876.39,83.59,876.37,83.77Z" transform="translate(-163.19 -45.06)"/><path d="M878.83,72.32c1.69-1.72,4.08,3.31,2.33,4.59S877.29,73.89,878.83,72.32Z" transform="translate(-163.19 -45.06)"/><path d="M867.34,71.07c1.4-1.7,3,2.92,1.59,4.21S866.07,72.62,867.34,71.07Z" transform="translate(-163.19 -45.06)"/><path class="cls-52" d="M886.47,68.1c-1.53-3.86-5.22-6.3-6.13-6.21s-2.24,2.52-1.71,3.44S883,66.84,885,68.94" transform="translate(-163.19 -45.06)"/><path class="cls-52" d="M868.56,60.52c.66,1.29.48,4,0,4.67s-2.64,2-2.89,2.9C864.47,66.22,865.68,61.3,868.56,60.52Z" transform="translate(-163.19 -45.06)"/><path class="cls-53" d="M870.35,85.84c.18-.11.57.31,1.23.83A6,6,0,0,0,874.42,88a4.71,4.71,0,0,0,3-.55c.72-.39,1.14-.78,1.3-.66s0,.7-.74,1.41a4.17,4.17,0,0,1-1.53.91,4.8,4.8,0,0,1-2.19.19,5.07,5.07,0,0,1-3.32-1.93C870.33,86.52,870.21,85.92,870.35,85.84Z" transform="translate(-163.19 -45.06)"/><path class="cls-44" d="M883.13,114.22c-1.44,5-4.23,8.33-6.13,14.17s-3.58,22.1-4.87,39.8-7.17,28.82-7,32c5.62,5.19,27.47,8.48,31.15,3.45,2.1-17.82,4.24-37.85,4.86-42.25s8.41-43.87,6.93-45.82-8.5-9.85-8.5-9.85S884.12,111.36,883.13,114.22Z" transform="translate(-163.19 -45.06)"/><path class="cls-54" d="M898,103.82c-5.6,2.62-13.76,7.85-15,10.42,2.95.23,7.49,5.6,7.49,5.6,4.55-4.12,10.77-12.37,10.79-13.25s-1.91-4.53-5.12-5.83C896,101.07,898,103.82,898,103.82Z" transform="translate(-163.19 -45.06)"/><path class="cls-44" d="M872.7,101.47c-2.89,0-11,1.36-13.1,3.17s-7.8,9.13-8.9,28.21-2.14,33.22-3.57,36.62-7.58,14.68-9.13,17.16c2.88,7.83,12,6.87,12,6.87a101.08,101.08,0,0,1,4-21.2c.71-2.63,3.74-23.65,4.68-34.09s9.67-26.67,11.74-30.79A63.39,63.39,0,0,1,872.7,101.47Z" transform="translate(-163.19 -45.06)"/><path class="cls-54" d="M876,99.22c-3.39.2-9.46,6.77-14.49,14.33,6.43-3.77,6.52-3.16,5.19,1.39,1.92-2.46,3.23-8.66,9.13-13A13.26,13.26,0,0,1,876,99.22Z" transform="translate(-163.19 -45.06)"/><path class="cls-44" d="M910.53,120.89c2.46,5.78,4.07,23.48,7,33s5.48,20.29,4.91,22.81c-5.94,5.54-14.67,4.87-15.56,6.53-2.73-5.19-7.29-23.9-8.4-27.65S894,140.86,894,137.39,898.16,111.78,910.53,120.89Z" transform="translate(-163.19 -45.06)"/><path class="cls-36" d="M911.84,125c4.19-2.89.92-6.22.08-7.67s-7.1-9.25-9.95-9-17.24,10.3-16.61,25.84c2.19,12.62,10.31,12.23,9.33,6.74s1-20.55,15.93-19.13C911.1,122.93,911.84,125,911.84,125Z" transform="translate(-163.19 -45.06)"/><path class="cls-55" d="M898.48,154.64C895,152,889.91,143,892.09,132.77s10.81-19.16,19-16.62c.48-.54-3.06-3.94-3.84-4.37-5.19-.17-12,1.81-16.81,12.87s-1.69,28.73,9.74,36.81C900.44,159.4,898.48,154.64,898.48,154.64Z" transform="translate(-163.19 -45.06)"/><path class="cls-54" d="M923.25,186.9c5-2.21.13-5.87.22-8.3s1.51-3.12-.49-4.81c-5.52-4.63-18.75.14-19.35,4.58s.49,4.48.53,6.08c.1,3.53-.3,6.41,2.32,5.19,1.86-5.29,7.85-7.69,16.09-5.6C923,184.89,923.09,187.52,923.25,186.9Z" transform="translate(-163.19 -45.06)"/><path class="cls-42" d="M921.62,229.57c-2.25-2.83-5.63-3.51-5.49-1.14s5.59,6.18,7,4.9S922.18,230.39,921.62,229.57Z" transform="translate(-163.19 -45.06)"/><path class="cls-42" d="M928.48,228.51c-2.22,0-4.11.35-3.38,3.89s.12,6.6-2.9,1.67a19.9,19.9,0,0,1-2.61-10.62S926.12,224.43,928.48,228.51Z" transform="translate(-163.19 -45.06)"/><path class="cls-49" d="M931,281.94c-.15.13-1.37-1.09-3.35-3.05a88.7,88.7,0,0,0-8.07-7.19c-3.32-2.53-6.72-4.41-9.35-4.73a3.67,3.67,0,0,0-2.86.57c-.53.46-.6.93-.71.9s-.2-.52.33-1.25a3.94,3.94,0,0,1,3.31-1.15c3,.12,6.66,2,10.08,4.61a54.29,54.29,0,0,1,7.95,7.6C930.13,280.39,931.11,281.83,931,281.94Z" transform="translate(-163.19 -45.06)"/><path class="cls-49" d="M936.29,305.79c-.19,0-.45-1.13-1-3-.27-.92-.62-2-.93-3.27-.15-.62-.29-1.29-.4-2s-.14-1.46-.19-2.19a29.23,29.23,0,0,0-.4-4,29.82,29.82,0,0,0-.79-3.22c-.55-1.81-.94-2.95-.76-3s.84.92,1.64,2.71a19.6,19.6,0,0,1,1.1,3.28,23.06,23.06,0,0,1,.53,4.2,46.73,46.73,0,0,0,1.11,7.33C936.53,304.54,936.46,305.78,936.29,305.79Z" transform="translate(-163.19 -45.06)"/><path class="cls-49" d="M937.67,315.19c-.36,0-.84-1.24-1-2.9s.11-3,.47-3,.69,1.3.85,2.91S938,315.14,937.67,315.19Z" transform="translate(-163.19 -45.06)"/><path class="cls-49" d="M938.3,346.1c0-.1.39.09.87,0s.9-.67,1.14-1.68a17.81,17.81,0,0,0,.44-3.62c0-.7,0-1.44,0-2.19a10,10,0,0,0-.07-1.12c-.05-.39-.1-.79-.16-1.19-.45-3.23-1-6.16-1.26-8.32s-.28-3.5-.1-3.53.52,1.27,1,3.37,1.18,5,1.65,8.3l.15,1.22c0,.45,0,.85.06,1.25,0,.79,0,1.56-.1,2.28a14.75,14.75,0,0,1-.76,3.84,4,4,0,0,1-.81,1.39,1.47,1.47,0,0,1-1.22.51C938.44,346.51,938.27,346.14,938.3,346.1Z" transform="translate(-163.19 -45.06)"/><path class="cls-53" d="M919.75,232.67c-.14.1-.48-.08-.89-.51a4.32,4.32,0,0,1-1.08-2.13,3,3,0,0,1,.12-1.45,1.82,1.82,0,0,1,.84-1.06.84.84,0,0,1,1,.13c.15.16.15.29.1.36s-.52.06-.59.31a3.27,3.27,0,0,0-.14,1.5,13.68,13.68,0,0,0,.58,1.86C919.83,232.19,919.9,232.57,919.75,232.67Z" transform="translate(-163.19 -45.06)"/><path class="cls-53" d="M918.34,231.55c-.13.11-.45,0-.84-.34a3.66,3.66,0,0,1-1-1.77,2.68,2.68,0,0,1,.34-2.13c.33-.46.67-.59.81-.49s.1.44,0,.85a4.41,4.41,0,0,0,.08,1.46C918,230.27,918.65,231.31,918.34,231.55Z" transform="translate(-163.19 -45.06)"/><path class="cls-53" d="M923.34,235.34c-.11.12-.81-.27-1.66-1.23a12.22,12.22,0,0,1-2.38-4.33,10.67,10.67,0,0,1-.44-4.95c.23-1.28.68-2,.83-1.9s.07.81.1,2a15.84,15.84,0,0,0,.77,4.48C921.61,232.84,923.6,235.08,923.34,235.34Z" transform="translate(-163.19 -45.06)"/><path class="cls-44" d="M913,183.7c-.06-.34,2.62-1.15,6.09-1a10.67,10.67,0,0,1,2.44.37,8,8,0,0,1,1.91.73c1.06.6,1.4,1.33,1.26,1.43s-.67-.29-1.64-.58a14.19,14.19,0,0,0-1.79-.39A15.08,15.08,0,0,0,919,184C915.75,183.87,913,184.08,913,183.7Z" transform="translate(-163.19 -45.06)"/><path class="cls-54" d="M902.28,168.43c-.16.06-.81-1.23-1.6-3.42s-1.71-5.26-2.61-8.67-1.72-6.47-2.32-8.7-1-3.6-.8-3.67.85,1.21,1.69,3.38a86.86,86.86,0,0,1,2.7,8.65c.9,3.42,1.67,6.5,2.23,8.74S902.46,168.37,902.28,168.43Z" transform="translate(-163.19 -45.06)"/><path class="cls-55" d="M904.35,122.2c-.13-.3,1.6-1.41,4.15-1.53a5.92,5.92,0,0,1,3.16.72c.73.45,1,.92.91,1s-.58,0-1.27-.19a10.33,10.33,0,0,0-2.76-.26C906.34,122.08,904.48,122.57,904.35,122.2Z" transform="translate(-163.19 -45.06)"/><path class="cls-56" d="M870,115.22c.3-.26,1.89,1.91,4.83,1.88a11.5,11.5,0,0,0,2.06-.14,16.44,16.44,0,0,0,1.66-.37c1-.27,1.7-.29,1.73-.1s-.49.48-1.4,1a7.78,7.78,0,0,1-1.77.69,8.7,8.7,0,0,1-2.32.27,6.17,6.17,0,0,1-2.35-.51,5,5,0,0,1-1.62-1.12C870,116,869.85,115.31,870,115.22Z" transform="translate(-163.19 -45.06)"/><path class="cls-36" d="M868.8,101.91c.11-2.65-2.27-2.91-3.8-2.73s-7.71,3-11.87,9.08-4.61,21.63-.71,16.81,2.86-12.08,13-22.28A10.83,10.83,0,0,1,868.8,101.91Z" transform="translate(-163.19 -45.06)"/><path class="cls-55" d="M864,99.49c-4.49,4-13,18.35-12.5,36.39-.31,1.7-2.45-5.56-2-9s1.25-12.14,9.16-24.2C859.9,101.31,863.69,99.06,864,99.49Z" transform="translate(-163.19 -45.06)"/><path class="cls-55" d="M861,109c-.15-.1,0-.68.45-1.55a23.85,23.85,0,0,1,1.85-3.3,10.19,10.19,0,0,1,2.71-2.79c.85-.56,1.48-.69,1.56-.55s-.34.58-1,1.26a23.59,23.59,0,0,0-2.22,2.83c-.81,1.18-1.54,2.29-2.15,3S861.1,109.12,861,109Z" transform="translate(-163.19 -45.06)"/><path class="cls-54" d="M834.52,126.44c.88-1.62,2.66,5.32,2.32,6.86s-6,17.47-15.9,11.41c-1.43-3,.2-7.67.47-7.6s4.07,5.32,11.48-4.57C834.45,130.45,835.1,129.27,834.52,126.44Z" transform="translate(-163.19 -45.06)"/><path class="cls-54" d="M838.82,140.06c.18,0,.38,1.36.48,3.56a36.48,36.48,0,0,1,0,3.91,6.27,6.27,0,0,1-.19,1.23.91.91,0,0,1-.08.23.83.83,0,0,1-.38.39.68.68,0,0,1-.52,0,.59.59,0,0,1-.3-.17.64.64,0,0,1-.2-.27,2.48,2.48,0,0,1-.18-.43l-.07-.33a16.87,16.87,0,0,1-.23-2.53c-.12-3.38,0-6.4,0-8.58,0-1.08,0-2-.05-2.56s-.08-.92,0-1,.32.27.49.88a13.81,13.81,0,0,1,.47,2.6c.26,2.2.32,5.26.43,8.57a20.34,20.34,0,0,0,.19,2.34l0,.25c0,.06,0,.06,0,.1s0,0-.12.12l-.08.07.09-.07h-.05l-.1.08c-.06.05-.11.18-.12.16s0,.07,0,0a1.32,1.32,0,0,0-.42-.28s0,0,0,0a7,7,0,0,0,.17-1c.16-1.4.21-2.71.29-3.8C838.51,141.43,838.63,140.07,838.82,140.06Z" transform="translate(-163.19 -45.06)"/><path class="cls-42" d="M827,106a59.08,59.08,0,0,0,5-9.44,1.59,1.59,0,0,0-1.18-1.95c-.67,0-4,4.88-4.61,4.71s2.41-7.9,1.63-8.55-5-2.52-6.17-1.65-3.47,13.77-3.24,14.87S824.68,109.69,827,106Z" transform="translate(-163.19 -45.06)"/><path class="cls-57" d="M829.89,82.5c1.11.29.81,3-.24,2.53S828.71,82.18,829.89,82.5Z" transform="translate(-163.19 -45.06)"/><path class="cls-57" d="M834.52,107.87c-.09,0-.17-.39-.17-1.11s.13-1.75.2-2.94c.09-2.47.21-5.91.27-9.7,0-1,0-1.88,0-2.77a25,25,0,0,1,.12-2.63,28.33,28.33,0,0,0,.23-4.29,5.14,5.14,0,0,0-.66-2.63c-.37-.5-.74-.65-.7-.77s.12,0,.31,0a1.94,1.94,0,0,1,.78.42,4.91,4.91,0,0,1,1.2,2.88,23.36,23.36,0,0,1,.06,4.47,23.45,23.45,0,0,0-.05,2.54q0,1.35,0,2.79a88.2,88.2,0,0,1-.66,9.77c-.21,1.29-.48,2.23-.62,2.91S834.62,107.88,834.52,107.87Z" transform="translate(-163.19 -45.06)"/><path class="cls-53" d="M821.09,102.86c-.17-.08,0-.86.39-2.09l1.33-4.85a29.88,29.88,0,0,1,1.79-4.79,4.25,4.25,0,0,1,1-1.34c.33-.26.6-.27.63-.19s-.09.23-.23.53a7.6,7.6,0,0,0-.5,1.35c-.36,1.23-.85,2.93-1.39,4.81a30.09,30.09,0,0,1-1.73,4.81C821.77,102.29,821.24,102.94,821.09,102.86Z" transform="translate(-163.19 -45.06)"/><path class="cls-53" d="M820.78,98.18c-.36-.06-.26-2.33.5-5s1.63-4.64,2-4.55,0,2.31-.71,4.9S821.14,98.23,820.78,98.18Z" transform="translate(-163.19 -45.06)"/><path class="cls-53" d="M824,102.53c-.31-.19.38-1.86,1.68-3.64s2.72-2.93,3-2.69-.65,1.74-1.91,3.47S824.31,102.72,824,102.53Z" transform="translate(-163.19 -45.06)"/><path class="cls-41" d="M854,201.43c-.34-.06-.2-3,.77-6.41a18.23,18.23,0,0,1,1.76-4.24c.6-1,1.12-1.56,1.27-1.47.31.19-.85,2.74-1.76,6.08S854.41,201.5,854,201.43Z" transform="translate(-163.19 -45.06)"/><path class="cls-41" d="M858,198.71c-.36-.06-.29-2.21.37-4.74s1.5-4.45,1.84-4.36.08,2.2-.56,4.69S858.35,198.76,858,198.71Z" transform="translate(-163.19 -45.06)"/><path class="cls-41" d="M876.54,205.13c.17.09-.08.77-.2,1.85a6.61,6.61,0,0,0,.74,4,4.64,4.64,0,0,0,.66.85,1.82,1.82,0,0,0,.78.4,3,3,0,0,0,1.67-.14c1-.34,1.61-.78,1.74-.63s-.25.82-1.35,1.48a3.53,3.53,0,0,1-2.29.49,2.79,2.79,0,0,1-1.38-.62,4.74,4.74,0,0,1-1-1.15,6.11,6.11,0,0,1-.52-4.83C875.82,205.58,876.41,205,876.54,205.13Z" transform="translate(-163.19 -45.06)"/><path class="cls-41" d="M882.7,210.62c-.35-.09-.41-1-.13-2s.78-1.8,1.13-1.7.42,1,.14,2S883.05,210.71,882.7,210.62Z" transform="translate(-163.19 -45.06)"/><path class="cls-41" d="M880.64,217.48a.83.83,0,0,1-.4-1.06c.13-.49.52-.81.87-.71s.54.56.4,1S881,217.57,880.64,217.48Z" transform="translate(-163.19 -45.06)"/><path class="cls-41" d="M877.63,224.75c-.33-.15-.32-1,0-1.92s.92-1.58,1.27-1.47.34,1,0,1.92S878,224.89,877.63,224.75Z" transform="translate(-163.19 -45.06)"/><path class="cls-41" d="M873.91,233.05c-.32-.18,0-1.43.57-2.92s1.31-2.64,1.66-2.5.16,1.45-.43,3S874.23,233.23,873.91,233.05Z" transform="translate(-163.19 -45.06)"/><path class="cls-41" d="M869.78,245.53a.77.77,0,0,1-.41-1,.68.68,0,1,1,1.27.34C870.52,245.33,870.13,245.63,869.78,245.53Z" transform="translate(-163.19 -45.06)"/><path class="cls-41" d="M867.43,251.81a.77.77,0,0,1-.34-.9.73.73,0,0,1,.83-.53.71.71,0,0,1,.43.93C868.21,251.76,867.74,252,867.43,251.81Z" transform="translate(-163.19 -45.06)"/><path class="cls-41" d="M863.5,262.32c-.35-.1-.34-1.18,0-2.4s.93-2.14,1.28-2,.34,1.18,0,2.41S863.85,262.43,863.5,262.32Z" transform="translate(-163.19 -45.06)"/><path class="cls-41" d="M861.66,270.87c-.36-.07-.44-1.1-.18-2.31s.76-2.1,1.11-2,.43,1.13.18,2.31S862,270.94,861.66,270.87Z" transform="translate(-163.19 -45.06)"/><path class="cls-41" d="M859.55,281.22c-.36-.05-.53-.75-.37-1.57s.56-1.39.91-1.29.52.8.38,1.57S859.91,281.27,859.55,281.22Z" transform="translate(-163.19 -45.06)"/><path class="cls-41" d="M856.24,293.59c-.36,0-.66-1.2-.42-2.65s.86-2.47,1.21-2.38.32,1.26.09,2.6S856.6,293.58,856.24,293.59Z" transform="translate(-163.19 -45.06)"/><path class="cls-41" d="M854.69,303.09c-.36,0-.55-.71-.43-1.4s.43-1.17.79-1.18.65.66.51,1.41S855.05,303.13,854.69,303.09Z" transform="translate(-163.19 -45.06)"/><path class="cls-41" d="M853.66,308.6c-.36,0-.61-.57-.47-1.15s.55-.94.9-.85.51.62.39,1.14S854,308.63,853.66,308.6Z" transform="translate(-163.19 -45.06)"/><path class="cls-41" d="M829,240.07c-.1.18-.7-.1-1.55-.09l-.29,0-.08.05a.07.07,0,0,0,0,.11l.06,0,.27.13a6.27,6.27,0,0,0,.92.35c1.31.37,2.74.43,3.75.8a2.87,2.87,0,0,1,1.13.64c.22.23.27.42.21.48s-.61-.15-1.54-.21A21.34,21.34,0,0,1,828,242a6.39,6.39,0,0,1-1.14-.48l-.26-.15a3.89,3.89,0,0,1-.35-.28,1,1,0,0,1-.3-.32,1,1,0,0,1-.14-1.12,1.2,1.2,0,0,1,.56-.46,2,2,0,0,1,.72-.13,3.23,3.23,0,0,1,.49,0C828.72,239.34,829.12,240,829,240.07Z" transform="translate(-163.19 -45.06)"/><path class="cls-41" d="M846.8,212.42c-.35-.1-.24-1.42.54-2.76s1.76-2.12,2-1.9-.2,1.33-.9,2.56S847.15,212.52,846.8,212.42Z" transform="translate(-163.19 -45.06)"/><path class="cls-41" d="M844,217.8c-.32-.18-.25-.85.13-1.41s.89-.85,1.21-.68.28.84-.11,1.42S844.33,218,844,217.8Z" transform="translate(-163.19 -45.06)"/><path class="cls-41" d="M841.19,222.94c-.29-.22-.24-.79.09-1.38s1-.95,1.25-.71.22.79-.11,1.38S841.48,223.17,841.19,222.94Z" transform="translate(-163.19 -45.06)"/><path class="cls-41" d="M838.61,227.6a.57.57,0,0,1-.37-.82.61.61,0,0,1,.85-.16.6.6,0,0,1,.31.79C839.28,227.63,839,227.67,838.61,227.6Z" transform="translate(-163.19 -45.06)"/><path class="cls-41" d="M836.77,231.12a.54.54,0,0,1-.38-.78.57.57,0,0,1,.84-.1.62.62,0,0,1,.31.74C837.44,231.16,837.13,231.19,836.77,231.12Z" transform="translate(-163.19 -45.06)"/><path class="cls-41" d="M834.64,235.34a.58.58,0,0,1-.41-.77c.12-.27.44-.32.79-.25a.59.59,0,0,1,.42.77C835.32,235.36,835,235.41,834.64,235.34Z" transform="translate(-163.19 -45.06)"/><path class="cls-41" d="M831.76,240.25a.91.91,0,0,1,1-1.4.8.8,0,0,1,0,1.1A.79.79,0,0,1,831.76,240.25Z" transform="translate(-163.19 -45.06)"/><path class="cls-41" d="M831.94,250c-.36,0-.71-1-1-2.22s-.3-2.44.07-2.5.86.87,1.21,2.18S832.31,250,831.94,250Z" transform="translate(-163.19 -45.06)"/><path class="cls-41" d="M832.25,259.65c-.34.14-.89-.58-.8-1.54s.59-1.53.93-1.44.44.81.38,1.53S832.59,259.51,832.25,259.65Z" transform="translate(-163.19 -45.06)"/><path class="cls-41" d="M832,269.82c-.36,0-.68-.69-.7-1.51s.26-1.49.62-1.52.68.65.7,1.51S832.34,269.84,832,269.82Z" transform="translate(-163.19 -45.06)"/><path class="cls-41" d="M831.77,278.46c-.36,0-.65-.52-.65-1.07s.3-1,.66-1.05.66.45.66,1.07S832.14,278.5,831.77,278.46Z" transform="translate(-163.19 -45.06)"/><path class="cls-41" d="M832.05,287c-.36,0-.76-.58-.88-1.37s.07-1.48.43-1.54.75.56.88,1.37S832.41,287,832.05,287Z" transform="translate(-163.19 -45.06)"/><path class="cls-41" d="M832.28,293.19c-.36,0-.69-.65-.7-1.46s.24-1.42.6-1.47.72.63.72,1.45S832.64,293.16,832.28,293.19Z" transform="translate(-163.19 -45.06)"/><path class="cls-41" d="M832.31,297.65c-.34-.12-.6-.3-.6-.5a.65.65,0,0,1,.65-.49c.36,0,.67.17.67.51A.54.54,0,0,1,832.31,297.65Z" transform="translate(-163.19 -45.06)"/><path class="cls-41" d="M840.64,308.57c.08-.18,1,.12,2.51.46a29,29,0,0,0,5.9.76,20.39,20.39,0,0,0,5.86-.68c1.47-.41,2.35-.8,2.46-.63s-.66.84-2.14,1.51a14.85,14.85,0,0,1-6.2,1.12,18.21,18.21,0,0,1-6.16-1.19C841.37,309.33,840.56,308.72,840.64,308.57Z" transform="translate(-163.19 -45.06)"/><path class="cls-41" d="M821.9,299.09c.05-.18.83-.12,2.06,0a31.79,31.79,0,0,0,4.72.27,13.26,13.26,0,0,0,4.5-.95c1.1-.46,1.77-.86,1.9-.71s-.37.8-1.46,1.53a9.76,9.76,0,0,1-4.88,1.45,15.37,15.37,0,0,1-5-.68C822.56,299.64,821.86,299.26,821.9,299.09Z" transform="translate(-163.19 -45.06)"/><path class="cls-53" d="M899.34,80.35c.08-.17.63.11,1.22,0a.84.84,0,0,0,.6-.62.76.76,0,0,0,0-.49c0-.06,0-.09-.06-.09h0l-.11,0-.24,0-.54-.09c.13-.42.27-1,.42-1.39a2.88,2.88,0,0,1,1.86-1.82,1.52,1.52,0,0,1,1.36.3,1.45,1.45,0,0,1,.5,1,2.07,2.07,0,0,1-.31,1.3q-.25.38-.39.33c-.08,0-.11-.21-.1-.48a2.86,2.86,0,0,0-.11-1c-.14-.34-.32-.44-.64-.32a1.91,1.91,0,0,0-.94,1.12s0,0,0,0h0a.65.65,0,0,1,.14.13,1.47,1.47,0,0,1,.37.72,1.88,1.88,0,0,1-.17,1.22,1.7,1.7,0,0,1-1.63,1,1.67,1.67,0,0,1-1.07-.47C899.35,80.55,899.29,80.42,899.34,80.35Z" transform="translate(-163.19 -45.06)"/><path class="cls-54" d="M845.57,173.88c-.31-.18,1.15-3.47,2.5-7.72s2.5-7.72,2.88-7.62-.24,3.71-1.63,8S845.89,174.07,845.57,173.88Z" transform="translate(-163.19 -45.06)"/><path class="cls-54" d="M875.56,167.44c-.19,0,.13-2.86.55-7.44s1-10.9,1.06-17.89c0-1.74,0-3.48.1-5.16a26,26,0,0,1,.76-4.82,33,33,0,0,1,3.2-7.55c1.1-2,1.93-3.66,2.43-4.84s.72-1.85.82-1.82a4.76,4.76,0,0,1-.34,2,36.47,36.47,0,0,1-2.07,5.08,35.49,35.49,0,0,0-2.86,7.42,26.67,26.67,0,0,0-.65,4.61c-.1,1.62-.07,3.32-.08,5.09a131.6,131.6,0,0,1-1.44,18C876.38,164.68,875.72,167.46,875.56,167.44Z" transform="translate(-163.19 -45.06)"/><path class="cls-54" d="M868.83,196.71c-.18-.05.11-1.54.72-3.88s1.53-5.55,2.51-9.11,1.64-6.79,2-9.16.61-3.85.8-3.85.31,1.52.13,4a52.51,52.51,0,0,1-1.7,9.38c-1,3.6-2.05,6.77-2.89,9.05S869,196.76,868.83,196.71Z" transform="translate(-163.19 -45.06)"/><path class="cls-54" d="M853.17,165.78c-.18,0,.19-2.82.49-7.38.08-1.14.17-2.39.3-3.73s.32-2.78.48-4.27c.31-3,.66-6.31,1-9.77a72.7,72.7,0,0,1,1.52-9.78,46.77,46.77,0,0,1,2.64-7.66c1.9-4.21,3.45-6.59,3.59-6.52s-1.08,2.64-2.72,6.87a54.44,54.44,0,0,0-2.33,7.59,85.77,85.77,0,0,0-1.39,9.64c-.38,3.46-.73,6.77-1.13,9.78-.21,1.49-.41,2.91-.59,4.24s-.32,2.57-.47,3.7C854.05,163,853.35,165.82,853.17,165.78Z" transform="translate(-163.19 -45.06)"/><path class="cls-54" d="M851.94,172c-.35-.09-.42-1-.15-2s.77-1.74,1.12-1.64.42,1,.15,2S852.29,172.12,851.94,172Z" transform="translate(-163.19 -45.06)"/><path class="cls-54" d="M848.09,191.38c-.16,0-.51-.81-.61-2.23a18.26,18.26,0,0,1,.57-5.47,40.31,40.31,0,0,1,1.63-5.17c.51-1.29.88-2.06,1.06-2s.12.92-.16,2.28-.76,3.2-1.25,5.21a38.79,38.79,0,0,0-.92,5.18C848.27,190.49,848.28,191.34,848.09,191.38Z" transform="translate(-163.19 -45.06)"/><path class="cls-53" d="M874.54,106.4c-.18-.07-.12-.68,0-1.64s.24-2.27.37-3.75a35.16,35.16,0,0,1,.46-3.82c.19-1,.43-1.57.61-1.55s.27.64.32,1.62a30.92,30.92,0,0,1-.08,3.86,15.29,15.29,0,0,1-.78,3.86C875.08,105.93,874.7,106.46,874.54,106.4Z" transform="translate(-163.19 -45.06)"/><path class="cls-41" d="M847.38,204c.3-.23,2,1.45,4.28,3.16s4.4,2.79,4.28,3.14-2.61-.22-5.07-2.09S847.09,204.2,847.38,204Z" transform="translate(-163.19 -45.06)"/><path class="cls-44" d="M904.24,186.37c-.35-.07-.1-2.13,1.29-4.16s3-3.12,3.26-2.86-.92,1.73-2.17,3.59S904.6,186.47,904.24,186.37Z" transform="translate(-163.19 -45.06)"/><path class="cls-44" d="M926.58,84.42c-5.26,2.15-15.24,11.84-13.26,25.63a21.84,21.84,0,0,1-3.23-1.65c-2.67-9,6.46-24.66,10.81-25.5A22.8,22.8,0,0,1,926.58,84.42Z" transform="translate(-163.19 -45.06)"/><path class="cls-58" d="M939.17,100.49s.37.08.77.61a3.73,3.73,0,0,1,.71,2.73,4.51,4.51,0,0,1-.81,1.94,7.46,7.46,0,0,1-1.8,1.68,9.77,9.77,0,0,1-2.52,1.29,4.28,4.28,0,0,1-1.62.19,2.83,2.83,0,0,1-1.67-.69,4.09,4.09,0,0,1-1.14-3.47,8.28,8.28,0,0,1,1.24-3.63,10.85,10.85,0,0,1,2.73-3,7.11,7.11,0,0,1,4.12-1.61,4.39,4.39,0,0,1,2.35.65c.18.12.36.22.53.35l.44.46a4.37,4.37,0,0,1,.7,1,6.81,6.81,0,0,1,.31,4.84,12.45,12.45,0,0,1-2.21,4.37,19.52,19.52,0,0,1-3.47,3.57,14.24,14.24,0,0,1-4.41,2.4,8.06,8.06,0,0,1-5,.12,5.35,5.35,0,0,1-3.42-3.54,9,9,0,0,1,0-4.6,20.76,20.76,0,0,1,3.65-7.33,17.41,17.41,0,0,1,5.27-4.79,11.26,11.26,0,0,1,5.7-1.57A6.64,6.64,0,0,1,943.84,94c.12.1.25.19.35.29l.27.34a5.81,5.81,0,0,1,.46.62,6.29,6.29,0,0,1,.45,1.11c.12.64.16,1,.11,1a2.78,2.78,0,0,1-.36-.88,6.6,6.6,0,0,0-.53-1,5.43,5.43,0,0,0-.47-.53l-.26-.28a2.93,2.93,0,0,0-.34-.24,6.17,6.17,0,0,0-3.89-1.13,10.57,10.57,0,0,0-5.23,1.64,16.69,16.69,0,0,0-4.86,4.63,20,20,0,0,0-3.35,7,7.89,7.89,0,0,0,0,4,4,4,0,0,0,2.63,2.69A6.7,6.7,0,0,0,933,113a13.08,13.08,0,0,0,4-2.19,15.2,15.2,0,0,0,5.24-7.22,5.61,5.61,0,0,0-.19-4,3.21,3.21,0,0,0-2.89-1.85,6.07,6.07,0,0,0-3.42,1.33,9.84,9.84,0,0,0-2.5,2.66,7.43,7.43,0,0,0-1.16,3.15,3.19,3.19,0,0,0,.75,2.69,2.56,2.56,0,0,0,2.45.38,9.24,9.24,0,0,0,2.33-1.09,7.07,7.07,0,0,0,1.71-1.45,4.09,4.09,0,0,0,.8-1.64,3.66,3.66,0,0,0-.42-2.5C939.42,100.71,939.14,100.54,939.17,100.49Z" transform="translate(-163.19 -45.06)"/><path class="cls-36" d="M917.61,138.68c-.18,0-.06-2.25,1-5.61.5-1.68,1.16-3.65,1.7-5.86a30.3,30.3,0,0,0,.63-3.48,13.6,13.6,0,0,0,0-3.66c-.53-2.38-2.35-4.21-4.06-5.61a38.18,38.18,0,0,0-5-3.31c-3-1.67-5-2.69-4.87-2.88s2.11.57,5.3,2.06a31.47,31.47,0,0,1,5.37,3.17,16,16,0,0,1,2.73,2.58,9,9,0,0,1,1.87,3.72,14.26,14.26,0,0,1,0,4.08,30.6,30.6,0,0,1-.74,3.63c-.63,2.27-1.39,4.22-2,5.85C918.22,136.61,917.79,138.69,917.61,138.68Z" transform="translate(-163.19 -45.06)"/><path class="cls-36" d="M928.4,133.62c-.18,0-.18-1.09.08-2.75a35.08,35.08,0,0,0,.69-6.31,10.1,10.1,0,0,0-2-5.69c-1-1.33-1.58-2.18-1.43-2.31s1,.49,2.15,1.73a10.17,10.17,0,0,1,1.75,2.52,8.89,8.89,0,0,1,.9,3.7,21.16,21.16,0,0,1-1.1,6.57C928.9,132.67,928.58,133.65,928.4,133.62Z" transform="translate(-163.19 -45.06)"/><path class="cls-36" d="M926.46,133.92c-.18,0-.18-1.1.06-2.77a34,34,0,0,0,.6-6.37c-.06-2.4-1.43-4.29-2.17-5.82s-1-2.62-.82-2.67.65.84,1.62,2.19a25.41,25.41,0,0,1,1.63,2.52,9.55,9.55,0,0,1,.72,1.71,8.82,8.82,0,0,1,.34,2,20.69,20.69,0,0,1-1,6.64C927,133,926.64,133.94,926.46,133.92Z" transform="translate(-163.19 -45.06)"/><path class="cls-36" d="M918.67,134.43c.14-.14.74.23,1.79.62a23.34,23.34,0,0,0,4.24,1.12,19.48,19.48,0,0,0,4.35.33,7.78,7.78,0,0,0,1.25-.19c.26-.1.45-.17.52-.11s0,.25-.25.54a3.25,3.25,0,0,1-1.36.67,11.37,11.37,0,0,1-4.73.06,12.51,12.51,0,0,1-4.44-1.59C919,135.22,918.55,134.54,918.67,134.43Z" transform="translate(-163.19 -45.06)"/><path class="cls-36" d="M917.11,140.25c.09,0,.1.53,0,1.44a27.07,27.07,0,0,0-.14,3.78,5.82,5.82,0,0,0,.61,2.36,4.79,4.79,0,0,0,1.93,1.88,11.46,11.46,0,0,0,6.32,1.52,3.29,3.29,0,0,0,2.54-1.42,6.58,6.58,0,0,0,.29-.66c.08-.23.14-.52.21-.78.12-.53.22-1.06.31-1.59a53.53,53.53,0,0,0,.61-5.63c.25-3.3,1-5.26,1.15-5.21s-.21,2-.22,5.25a38.76,38.76,0,0,1-.34,5.78c-.08.54-.17,1.1-.28,1.67-.07.29-.12.57-.22.87a6.54,6.54,0,0,1-.39,1,3.77,3.77,0,0,1-.66.83l-.4.36a3.52,3.52,0,0,1-.46.28,5.48,5.48,0,0,1-2,.61,10.31,10.31,0,0,1-3.84-.39,12.89,12.89,0,0,1-3.26-1.4,5.87,5.87,0,0,1-2.28-2.44,6.42,6.42,0,0,1-.56-2.8,16,16,0,0,1,.57-3.9C916.86,140.72,917,140.24,917.11,140.25Z" transform="translate(-163.19 -45.06)"/><path class="cls-36" d="M920.44,149.16c0-.39,2.73-.23,5.51-1.56a7.37,7.37,0,0,0,2.91-2.44c.56-.82.78-1.46,1-1.42s.27.75-.15,1.85a5.56,5.56,0,0,1-1.13,1.73,7.6,7.6,0,0,1-2,1.46,8.94,8.94,0,0,1-4.32.88C921.08,149.6,920.42,149.33,920.44,149.16Z" transform="translate(-163.19 -45.06)"/><path class="cls-36" d="M918.29,146.13c0-.19.87-.07,2.14-.13a9,9,0,0,0,4.55-1.47,15.83,15.83,0,0,0,2.12-1.71,19.13,19.13,0,0,0,1.57-1.61c.82-1,1.07-1.71,1.26-1.68s.23,1-.5,2.21a10.67,10.67,0,0,1-1.47,1.94c-.32.33-.65.66-1,1a11.28,11.28,0,0,1-1.26,1,8,8,0,0,1-5.3,1.29C919,146.74,918.24,146.29,918.29,146.13Z" transform="translate(-163.19 -45.06)"/><path class="cls-36" d="M917.15,142.34c.08-.34,2.72,0,5.81-.85a14.07,14.07,0,0,0,2.06-.77,8.12,8.12,0,0,0,1.5-.93c.78-.63,1.15-1.2,1.34-1.12s.08.83-.68,1.77a5.82,5.82,0,0,1-1.58,1.35,9.93,9.93,0,0,1-2.29,1,10.91,10.91,0,0,1-4.43.28C917.74,142.86,917.1,142.5,917.15,142.34Z" transform="translate(-163.19 -45.06)"/><path class="cls-36" d="M929.48,145.64c-.36.05-1-1.66-2.32-3.46s-2.73-3-2.54-3.33,2.13.51,3.6,2.56a7.56,7.56,0,0,1,1.35,2.87C929.74,145.09,929.65,145.62,929.48,145.64Z" transform="translate(-163.19 -45.06)"/><path class="cls-36" d="M929,150.11c-.15.09-.7-.57-1.41-1.71s-1.56-2.78-2.56-4.51a24.16,24.16,0,0,0-2.92-4.1c-.86-.95-1.51-1.46-1.41-1.64s.93.1,2,.95a14.39,14.39,0,0,1,3.43,4.13,35.67,35.67,0,0,1,2.26,4.75C928.86,149.22,929.11,150,929,150.11Z" transform="translate(-163.19 -45.06)"/><path class="cls-36" d="M925.11,149.75c-.3.2-2.13-2.1-4.09-5.13-1-1.5-1.8-3-2.35-4s-1-1.49-.93-1.65.9.14,1.69,1.11a41.05,41.05,0,0,1,2.69,3.78C924.08,146.93,925.42,149.55,925.11,149.75Z" transform="translate(-163.19 -45.06)"/><path class="cls-59" d="M828.25,58.67c-1,3.56,2.33,12.35,3.51,12.66s8.42-5.65,9.38-9.21a6.67,6.67,0,1,0-12.89-3.45Z" transform="translate(-163.19 -45.06)"/><circle class="cls-16" cx="671.43" cy="15.64" r="3.12"/></g></g></svg>