<svg id="Layer_1" data-name="Layer 1" xmlns="http://www.w3.org/2000/svg" xmlns:xlink="http://www.w3.org/1999/xlink" viewBox="0 0 270 270"><defs><style>.cls-1{fill:url(#Degradado_sin_nombre_250);}.cls-2{fill:#fff;}</style><linearGradient id="Degradado_sin_nombre_250" x1="46.61" y1="46.61" x2="223.39" y2="223.39" gradientUnits="userSpaceOnUse"><stop offset="0" stop-color="#007cb9"/><stop offset="1" stop-color="#2453a1"/></linearGradient></defs><title>socialmediaicons</title><circle class="cls-1" cx="135" cy="135" r="125"/><path class="cls-2" d="M75.47,108.69h27.36v87.89H75.47ZM89.16,65A15.84,15.84,0,1,1,73.3,80.84,15.84,15.84,0,0,1,89.16,65"/><path class="cls-2" d="M120,108.69h26.2v12h.36c3.66-6.92,12.57-14.2,25.87-14.2,27.66,0,32.76,18.2,32.76,41.87v48.2h-27.3V153.85c0-10.2-.2-23.31-14.2-23.31-14.22,0-16.39,11.11-16.39,22.57v43.47H120Z"/></svg>