<svg id="Layer_1" data-name="Layer 1" xmlns="http://www.w3.org/2000/svg" xmlns:xlink="http://www.w3.org/1999/xlink" viewBox="0 0 270 270"><defs><style>.cls-1{fill:url(#Nueva_muestra_de_degradado_4);}.cls-2,.cls-3{fill:#fff;}.cls-3{fill-rule:evenodd;}</style><linearGradient id="Nueva_muestra_de_degradado_4" x1="46.61" y1="46.61" x2="223.39" y2="223.39" gradientTransform="translate(135 -55.92) rotate(45)" gradientUnits="userSpaceOnUse"><stop offset="0" stop-color="#4cc2f1"/><stop offset="1" stop-color="#2773b9"/></linearGradient></defs><title>socialmediaicons</title><circle class="cls-1" cx="135" cy="135" r="125" transform="translate(-55.92 135) rotate(-45)"/><path class="cls-2" d="M211,86.79a63,63,0,0,1-15.59,4.44c2.51-.42,6.19-5,7.67-6.79A28.5,28.5,0,0,0,208.23,75c.13-.27.23-.61,0-.81a.9.9,0,0,0-.82.07,79.27,79.27,0,0,1-18.48,7.07,1.24,1.24,0,0,1-1.27-.34A14.09,14.09,0,0,0,186,79.35a32.45,32.45,0,0,0-8.95-5.48,31,31,0,0,0-13.72-2.21,32.74,32.74,0,0,0-13,3.67,33.59,33.59,0,0,0-10.51,8.59,32.32,32.32,0,0,0-6.27,12.56,34.07,34.07,0,0,0-.33,13.27c.1.74,0,.84-.64.74-25.37-3.78-46.41-12.86-63.48-32.31-.74-.85-1.15-.85-1.75.06-7.47,11.2-3.85,29.19,5.48,38,1.25,1.18,2.53,2.36,3.91,3.44a32.31,32.31,0,0,1-12.25-3.44c-.74-.46-1.12-.19-1.18.65a18.85,18.85,0,0,0,.2,3.63c1.43,11.35,9.29,21.86,20.06,26a19.17,19.17,0,0,0,4.07,1.25c-2.45.53-5,.92-12,.37-.88-.17-1.21.27-.88,1.11C80,163.64,91.43,167.92,100,170.37c1.15.2,2.29.2,3.44.47-.07.1-.14.1-.2.2-2.84,4.32-12.67,7.54-17.24,9.14a62,62,0,0,1-26.18,3.35c-1.41-.21-1.71-.2-2.09,0s-.05.57.4.94c1.79,1.18,3.61,2.22,5.46,3.23a86.2,86.2,0,0,0,17.5,7c31.45,8.69,66.88,2.3,90.5-21.16,18.54-18.43,25-43.84,25-69.28,0-1,1.18-1.55,1.88-2.07a61.56,61.56,0,0,0,12.31-12.81,3.9,3.9,0,0,0,.82-2.45v-.14C211.61,86.39,211.6,86.51,211,86.79Z"/><path class="cls-3" d="M103.26,198.66Z"/><path class="cls-3" d="M108.44,198.79c0-.26,2.73,0,0,0C108.44,198.66,108.77,198.79,108.44,198.79Z"/></svg>