<svg id="Layer_1" data-name="Layer 1" xmlns="http://www.w3.org/2000/svg" xmlns:xlink="http://www.w3.org/1999/xlink" viewBox="0 0 270 270"><defs><style>.cls-1{fill:url(#Nueva_muestra_de_degradado_2);}.cls-2,.cls-3{fill:#fff;}.cls-2{fill-rule:evenodd;}</style><linearGradient id="Nueva_muestra_de_degradado_2" x1="46.61" y1="46.61" x2="223.39" y2="223.39" gradientTransform="translate(135 -55.92) rotate(45)" gradientUnits="userSpaceOnUse"><stop offset="0" stop-color="#84bf66"/><stop offset="1" stop-color="#00a35c"/></linearGradient></defs><title>socialmediaicons</title><circle class="cls-1" cx="135" cy="135" r="125" transform="translate(-55.92 135) rotate(-45)"/><path class="cls-2" d="M169.53,143.08c-3.34-2-7.69-4.23-11.62-2.62-3,1.23-4.95,6-6.9,8.37a2.9,2.9,0,0,1-3.75.81A52.63,52.63,0,0,1,121,127.14c-1-1.62-.87-2.89.41-4.4,1.89-2.22,4.26-4.74,4.77-7.74s-.89-6.5-2.13-9.17c-1.58-3.41-3.35-8.28-6.77-10.2-3.14-1.78-7.28-.79-10.07,1.49-4.83,3.94-7.16,10.1-7.09,16.2a23.25,23.25,0,0,0,.63,5.14,42.54,42.54,0,0,0,4.94,11.37,88,88,0,0,0,5.15,7.83,79.57,79.57,0,0,0,22.33,20.74A67.79,67.79,0,0,0,147.08,165c5.46,1.8,10.32,3.68,16.22,2.56,6.16-1.17,12.25-5,14.7-10.94a9.55,9.55,0,0,0,.68-5.57C177.84,147.22,172.64,144.94,169.53,143.08Z"/><path class="cls-3" d="M56.6,214.94,68.37,171a81.33,81.33,0,1,1,32.4,32.12ZM103,186.64l2.78,1.66a66.06,66.06,0,1,0-22.59-22.39l1.7,2.8-6.57,24.54Z"/></svg>