<svg id="_ÎÓÈ_1" data-name="—ÎÓÈ_1" xmlns="http://www.w3.org/2000/svg" viewBox="0 0 4605.09 4469.46"><defs><style>.cls-1,.cls-3{opacity:0.22;}.cls-2,.cls-3{fill:#fff;}.cls-4{fill:#575756;}.cls-5{fill:#9d9d9c;}.cls-6{fill:#d1761b;}</style></defs><title>404</title><g class="cls-1"><path class="cls-2" d="M4309.8,3061a117.63,117.63,0,1,1,40.87-22.92A117.1,117.1,0,0,1,4309.8,3061Zm-66-204.56a96.93,96.93,0,1,0,122,62.5A97,97,0,0,0,4243.83,2856.4Z" transform="translate(-264.46 -294.92)"/></g><g class="cls-1"><path class="cls-2" d="M1753.43,3489.69a117.64,117.64,0,1,1,40.87-22.93A117.3,117.3,0,0,1,1753.43,3489.69Zm-66-204.57a96.93,96.93,0,1,0,122,62.51A97,97,0,0,0,1687.45,3285.12Z" transform="translate(-264.46 -294.92)"/></g><g class="cls-1"><path class="cls-2" d="M3659,711.19a117.7,117.7,0,1,1,40.87-22.93A117.3,117.3,0,0,1,3659,711.19Zm-66-204.57a96.94,96.94,0,1,0,122,62.51A97.06,97.06,0,0,0,3593.05,506.62Z" transform="translate(-264.46 -294.92)"/></g><g class="cls-1"><path class="cls-2" d="M1367.19,2475.42a117.63,117.63,0,1,1,40.87-22.92A117.12,117.12,0,0,1,1367.19,2475.42Zm-66-204.56a96.93,96.93,0,1,0,122,62.5A97.05,97.05,0,0,0,1301.22,2270.86Z" transform="translate(-264.46 -294.92)"/></g><g class="cls-1"><path class="cls-2" d="M507.26,1476.78a117.65,117.65,0,1,1,40.88-22.93A117.23,117.23,0,0,1,507.26,1476.78Zm-66-204.56a96.93,96.93,0,1,0,122,62.5A97,97,0,0,0,441.29,1272.22Z" transform="translate(-264.46 -294.92)"/></g><g class="cls-1"><path class="cls-2" d="M3874.26,4654.6a117.7,117.7,0,1,1,40.87-22.93A117.28,117.28,0,0,1,3874.26,4654.6Zm-66-204.57a96.94,96.94,0,1,0,122,62.51A97,97,0,0,0,3808.29,4450Z" transform="translate(-264.46 -294.92)"/></g><g class="cls-1"><path class="cls-2" d="M510.63,721.57,409.57,518.68l202.9-101.07,101.06,202.9ZM437.82,528.14,520.1,693.32,685.27,611,603,445.87Z" transform="translate(-264.46 -294.92)"/></g><g class="cls-1"><path class="cls-2" d="M896.59,3208.39l-101.06-202.9,202.9-101.06,101.06,202.9ZM823.78,3015l82.28,165.17,165.17-82.27L989,2932.68Z" transform="translate(-264.46 -294.92)"/></g><g class="cls-1"><path class="cls-2" d="M1525.91,4488.13l219.5-56.59L1802,4651l-219.49,56.6Zm204.35-30.93-178.68,46.07L1597.65,4682l178.69-46.07Z" transform="translate(-264.46 -294.92)"/></g><g class="cls-1"><path class="cls-2" d="M1320,1679.91,1219,1477,1421.85,1376l101.06,202.9Zm-72.8-193.43,82.27,165.18,165.17-82.28-82.27-165.17Z" transform="translate(-264.46 -294.92)"/></g><g class="cls-1"><path class="cls-2" d="M4222.66,598.88,4121.6,396l202.9-101.06,101.06,202.9Zm-72.8-193.43,82.27,165.17,165.18-82.27L4315,323.18Z" transform="translate(-264.46 -294.92)"/></g><g class="cls-1"><path class="cls-2" d="M4434.51,2207.56l-216.17-68.2,68.2-216.17,216.17,68.19Zm-189.74-82,176,55.52,55.51-176-176-55.52Z" transform="translate(-264.46 -294.92)"/></g><g class="cls-1"><path class="cls-2" d="M1501.82,853,1370.93,590.18l293,18Zm-95.76-239.52,98.35,197.45L1626.24,627Z" transform="translate(-264.46 -294.92)"/></g><g class="cls-1"><path class="cls-2" d="M2722.42,4630l-261,134.35,14.17-293.24Zm-238.23,98.91L2680.33,4628l-185.5-119.39Z" transform="translate(-264.46 -294.92)"/></g><g class="cls-1"><path class="cls-2" d="M697.91,4701,567,4438.19l293,18Zm-95.76-239.52,98.35,197.45L822.32,4475Z" transform="translate(-264.46 -294.92)"/></g><g class="cls-1"><path class="cls-2" d="M554.68,2542.56l-290.22,44.35L371.17,2313.4Zm-257.32,18,218.06-33.32L377.53,2355.06Z" transform="translate(-264.46 -294.92)"/></g><g class="cls-1"><path class="cls-2" d="M4869.56,1109.39,4747.07,1376.2l-169.82-239.48Zm-126.41,224.85,92-200.48-219.63,20.54Z" transform="translate(-264.46 -294.92)"/></g><g class="cls-1"><path class="cls-2" d="M3950.26,2005.47l-122.49,266.81L3658,2032.8Zm-126.41,224.85,92-200.47-219.63,20.53Z" transform="translate(-264.46 -294.92)"/></g><path class="cls-3" d="M4752.85,2964.89a10.54,10.54,0,0,0-14.81-1.54l-57.27,46.46-46.46-57.26a10.54,10.54,0,1,0-16.36,13.28l46.46,57.26-57.26,46.46a10.54,10.54,0,0,0,13.27,16.37l57.27-46.47,46.46,57.27a10.54,10.54,0,1,0,16.36-13.28l-46.46-57.26,57.26-46.47A10.53,10.53,0,0,0,4752.85,2964.89Z" transform="translate(-264.46 -294.92)"/><path class="cls-3" d="M3953.71,1259a10.54,10.54,0,0,0-14.82-1.54L3881.62,1304l-46.46-57.26A10.54,10.54,0,1,0,3818.8,1260l46.46,57.26L3808,1363.69a10.54,10.54,0,1,0,13.28,16.36l57.26-46.46,46.46,57.26a10.53,10.53,0,1,0,16.36-13.27l-46.46-57.26,57.26-46.47A10.54,10.54,0,0,0,3953.71,1259Z" transform="translate(-264.46 -294.92)"/><path class="cls-3" d="M3475.66,3010.38a10.52,10.52,0,0,0-6.79,13.26l22.63,70.18-70.18,22.63a10.54,10.54,0,0,0,6.47,20.06l70.18-22.64,22.63,70.19a10.53,10.53,0,1,0,20.05-6.47L3518,3107.41l70.18-22.64a10.53,10.53,0,1,0-6.46-20.05l-70.19,22.63-22.63-70.18A10.52,10.52,0,0,0,3475.66,3010.38Z" transform="translate(-264.46 -294.92)"/><path class="cls-3" d="M4610.34,4503.85a10.52,10.52,0,0,0-14.89-.29l-53.14,51.12-51.13-53.14a10.53,10.53,0,0,0-15.18,14.61l51.12,53.14L4474,4620.42a10.53,10.53,0,1,0,14.61,15.18l53.14-51.12,51.13,53.14A10.53,10.53,0,1,0,4608,4623l-51.13-53.14,53.15-51.13A10.52,10.52,0,0,0,4610.34,4503.85Z" transform="translate(-264.46 -294.92)"/><path class="cls-3" d="M2793.91,381.17a10.53,10.53,0,0,0-14.9-.29L2725.87,432l-51.12-53.14a10.54,10.54,0,0,0-15.19,14.61l51.13,53.14-53.14,51.13a10.53,10.53,0,1,0,14.61,15.18l53.14-51.12,51.12,53.14a10.54,10.54,0,0,0,15.19-14.61l-51.13-53.14,53.14-51.13A10.52,10.52,0,0,0,2793.91,381.17Z" transform="translate(-264.46 -294.92)"/><path class="cls-3" d="M3243,3495.93a10.54,10.54,0,0,0-6.8,13.26l22.64,70.18L3188.67,3602a10.54,10.54,0,1,0,6.46,20.06l70.18-22.64,22.64,70.19a10.53,10.53,0,1,0,20.05-6.47L3285.37,3593l70.18-22.64a10.53,10.53,0,1,0-6.47-20.05l-70.18,22.63-22.63-70.18A10.53,10.53,0,0,0,3243,3495.93Z" transform="translate(-264.46 -294.92)"/><path class="cls-2" d="M3263.83,1253.6C3153,915.84,2893.23,678.78,2590.37,678.78c-369.39,0-674.75,352.67-723.77,810.57-22.11,144.27-35.09,320-35.09,509.69,0,490.52,86.82,888.17,193.91,888.17,62.47,0,118-135.3,153.5-345.39,35.24,166.32,84.56,269.69,139.16,269.69,12.36,0,24.45-5.31,36.17-15.44C2389.43,3021,2447,3167.6,2512,3167.6c80.52,0,149.58-224.79,178.89-544.82a45.15,45.15,0,0,0,15,2.63c23.66,0,46.34-19.43,67.31-55,34,134.23,78.21,215.4,126.6,215.4,43.94,0,84.47-67,117-179.82,35.38,173,85.72,281.2,141.57,281.2,107.09,0,193.91-397.65,193.91-888.17C3352.29,1686.64,3317.07,1411.93,3263.83,1253.6Z" transform="translate(-264.46 -294.92)"/><circle class="cls-4" cx="2256.21" cy="1484.3" r="186.09" transform="translate(-653.19 1735.2) rotate(-45)"/><circle class="cls-4" cx="2927.58" cy="1484.3" r="186.09" transform="translate(-456.55 2209.93) rotate(-45)"/><path class="cls-5" d="M2353.79,1345.87a168.85,168.85,0,0,0-51.59-20.47,214.92,214.92,0,0,0-46.37-5.09c-8.13,0-13.06.49-13.27.51l-14.25,1.45,1.46,14.25,1.46,15,14.24-1.45s3.94-.37,10.36-.37a185.32,185.32,0,0,1,40,4.38c24.77,5.57,58.56,19.35,78.81,53.31l7.33,12.3,25.21-15-7.33-12.29A135.63,135.63,0,0,0,2353.79,1345.87Z" transform="translate(-264.46 -294.92)"/><path class="cls-5" d="M3071.17,1392.33a135.63,135.63,0,0,0-46-46.46,168.75,168.75,0,0,0-51.59-20.47,214.92,214.92,0,0,0-46.37-5.09c-8.12,0-13.06.49-13.26.51l-14.26,1.45,1.46,14.25,1.47,15,14.24-1.45s3.94-.37,10.35-.37a185.26,185.26,0,0,1,40,4.38c24.78,5.57,58.56,19.35,78.81,53.31l7.33,12.3,25.21-15Z" transform="translate(-264.46 -294.92)"/><path class="cls-4" d="M2527.57,1812.21a135.66,135.66,0,0,0,60,26,169,169,0,0,0,55.5-.21,214.44,214.44,0,0,0,44.93-12.55c7.54-3,11.94-5.31,12.12-5.41l12.69-6.65-6.66-12.68-6.93-13.34-12.67,6.65s-3.52,1.81-9.48,4.2a185,185,0,0,1-38.7,10.81c-25.07,4-61.56,3.85-93-20.14L2534,1780.2l-17.8,23.33Z" transform="translate(-264.46 -294.92)"/><path class="cls-6" d="M2386.17,3815.09h-51v79.68h-99.86v-79.68H2087.13v-78.87l136.5-209.54h111.55v209.54h51Zm-150.85-78.87V3627.94l-68.64,108.28Z" transform="translate(-264.46 -294.92)"/><path class="cls-6" d="M2550.82,3900.34q-65.59,0-103.84-51.65t-38.24-135.85q0-86.31,39.17-136.24t104.77-49.92q68.79,0,105.44,53.24T2694.77,3716q0,84.45-39.44,134.38T2550.82,3900.34Zm1.07-77q22.83,0,30.54-29.09t7.7-79.54q0-69.32-10.23-90.56t-27.75-21.24q-21.24,0-29.34,28t-8.1,77.15q0,66.68,8.1,91T2551.89,3823.33Z" transform="translate(-264.46 -294.92)"/><path class="cls-6" d="M3024.08,3815.09h-51v79.68h-99.85v-79.68H2725v-78.87l136.51-209.54h111.54v209.54h51Zm-150.84-78.87V3627.94l-68.64,108.28Z" transform="translate(-264.46 -294.92)"/><path class="cls-2" d="M2173.58,3450.91q-35.4,0-57.72-23.48t-22.32-62.83q0-37.62,21.33-62.15t59.2-24.53q35.05,0,57.12,23.12t22.07,61.72q0,40-22.26,64.06T2173.58,3450.91Zm-.24-38.11q13,0,18.75-11.37t5.71-41.62q0-43.77-23.48-43.77Q2149,3316,2149,3366,2149,3412.81,2173.34,3412.8Z" transform="translate(-264.46 -294.92)"/><path class="cls-2" d="M2347.56,3450.91q-35.42,0-57.73-23.48t-22.31-62.83q0-37.62,21.33-62.15t59.2-24.53q35,0,57.11,23.12t22.07,61.72q0,40-22.25,64.06T2347.56,3450.91Zm-.25-38.11q13,0,18.75-11.37t5.72-41.62q0-43.77-23.48-43.77Q2323,3316,2323,3366,2323,3412.81,2347.31,3412.8Z" transform="translate(-264.46 -294.92)"/><path class="cls-2" d="M2521.54,3450.91q-35.41,0-57.73-23.48t-22.32-62.83q0-37.62,21.34-62.15t59.2-24.53q35,0,57.11,23.12t22.07,61.72q0,40-22.26,64.06T2521.54,3450.91Zm-.25-38.11q13,0,18.75-11.37t5.72-41.62q0-43.77-23.49-43.77Q2497,3316,2497,3366,2497,3412.81,2521.29,3412.8Z" transform="translate(-264.46 -294.92)"/><path class="cls-2" d="M2675.23,3387.35v61H2623V3280.5h71.68q26.8,0,40.76,6.15a49.56,49.56,0,0,1,22.13,18.81,51.27,51.27,0,0,1,8.18,28.4q0,24-16.72,38.73t-44.63,14.76Zm-.74-36h17.21q22.74,0,22.75-16.72,0-15.73-21-15.74h-18.93Z" transform="translate(-264.46 -294.92)"/><path class="cls-2" d="M2767.56,3399.77l47.83-8.61q6,20.3,31,20.29,19.44,0,19.43-10.33a9.59,9.59,0,0,0-4.49-8.42q-4.48-3-16-5.35-44.16-8.46-56.69-22.11a45.9,45.9,0,0,1-12.53-32.1q0-23.73,18-39.47t51.82-15.75q51.27,0,67.75,41.19L2871,3332q-6.63-16.84-26.92-16.84-16.85,0-16.85,10.45a8.25,8.25,0,0,0,3.82,7.25q3.81,2.58,14.75,4.91,30.13,6.38,42.8,11.27a46.15,46.15,0,0,1,21.14,16.78q8.48,11.86,8.48,28,0,25.47-20.66,41.28t-54.22,15.8Q2782,3450.91,2767.56,3399.77Z" transform="translate(-264.46 -294.92)"/><path class="cls-2" d="M2992.44,3280.5l-14,111.28h-31.1l-13.16-111.28Zm-5.78,123v44.87H2939.2v-44.87Z" transform="translate(-264.46 -294.92)"/><path class="cls-2" d="M1173.51,4092.53v53.1H1128V3999.51h62.41q23.33,0,35.48,5.35a43.17,43.17,0,0,1,19.27,16.38,44.57,44.57,0,0,1,7.12,24.73q0,20.87-14.56,33.72t-38.86,12.84Zm-.64-31.36h15q19.8,0,19.8-14.56,0-13.7-18.3-13.7h-16.49Z" transform="translate(-264.46 -294.92)"/><path class="cls-2" d="M1340.15,4145.63l-8.26-28.8h-39.14l-8.78,28.8h-36.41l45.11-146.12h47.42l45.83,146.12Zm-39.78-60.7H1324l-11.82-42.38Z" transform="translate(-264.46 -294.92)"/><path class="cls-2" d="M1521,4063.74v81.89h-22a86.9,86.9,0,0,0-5.88-15.31q-13.61,17.55-40.25,17.55-28.26,0-46.46-19.74t-18.2-53.47q0-32.76,17.61-55.08t52.4-22.32q26.12,0,42.07,13.28t20.66,37.68l-43.46,4.28q-3.21-22.8-20-22.8-22.05,0-22,42,0,25.37,7.07,33.45t17.12,8.08a20.58,20.58,0,0,0,13.87-4.92q5.71-4.92,5.83-13.49h-24.19v-31Z" transform="translate(-264.46 -294.92)"/><path class="cls-2" d="M1654.57,4110.73v34.9H1544.64V3999.51h109.93v33.72h-65.94v21.2h53.31v32.43h-53.31v23.87Z" transform="translate(-264.46 -294.92)"/><path class="cls-2" d="M1772,3999.51v146.12h-44.85V3999.51Z" transform="translate(-264.46 -294.92)"/><path class="cls-2" d="M1782.38,4103.34l41.64-7.49q5.25,17.67,27,17.66,16.9,0,16.91-9a8.33,8.33,0,0,0-3.91-7.33q-3.91-2.62-14-4.65-38.43-7.36-49.35-19.25a40,40,0,0,1-10.91-27.95q0-20.65,15.68-34.37t45.12-13.71q44.64,0,59,35.86l-37.15,11.24q-5.78-14.66-23.44-14.66-14.67,0-14.66,9.1a7.19,7.19,0,0,0,3.31,6.31q3.33,2.25,12.85,4.28,26.24,5.55,37.26,9.81a40.22,40.22,0,0,1,18.41,14.6q7.38,10.34,7.38,24.37,0,22.18-18,35.94t-47.21,13.76Q1794.91,4147.87,1782.38,4103.34Z" transform="translate(-264.46 -294.92)"/><path class="cls-2" d="M1970.35,4103.34l41.64-7.49q5.23,17.67,27,17.66,16.92,0,16.92-9a8.36,8.36,0,0,0-3.91-7.33q-3.91-2.62-14-4.65-38.43-7.36-49.35-19.25a40,40,0,0,1-10.92-27.95q0-20.65,15.69-34.37t45.12-13.71q44.63,0,59,35.86l-37.15,11.24q-5.77-14.66-23.44-14.66-14.67,0-14.66,9.1a7.19,7.19,0,0,0,3.31,6.31q3.32,2.25,12.85,4.28,26.23,5.55,37.26,9.81a40.22,40.22,0,0,1,18.41,14.6q7.38,10.34,7.38,24.37,0,22.18-18,35.94t-47.2,13.76Q1982.88,4147.87,1970.35,4103.34Z" transform="translate(-264.46 -294.92)"/><path class="cls-2" d="M2180.37,4034.52v111.11h-42.5V4034.52h-30.29v-35h103.08v35Z" transform="translate(-264.46 -294.92)"/><path class="cls-2" d="M2286.56,4147.87q-30.84,0-50.26-20.44t-19.43-54.7q0-32.76,18.57-54.11t51.54-21.36q30.51,0,49.73,20.13t19.21,53.73q0,34.8-19.37,55.77T2286.56,4147.87Zm-.22-33.18q11.35,0,16.33-9.9t5-36.23q0-38.11-20.44-38.11-22,0-22,43.46Q2265.15,4114.7,2286.34,4114.69Z" transform="translate(-264.46 -294.92)"/><path class="cls-2" d="M2477.31,4109.77v35.86H2374.87V3999.51h44.85v110.26Z" transform="translate(-264.46 -294.92)"/><path class="cls-2" d="M2602.87,4110.73v34.9H2492.94V3999.51h109.93v33.72h-65.94v21.2h53.31v32.43h-53.31v23.87Z" transform="translate(-264.46 -294.92)"/><path class="cls-2" d="M2745.56,4145.63h-36.5l-40-64.56a246.91,246.91,0,0,1-15.54-30.18q3.54,14.13,3.54,24v70.76h-36.4V3999.51H2663l34,53.52a206.06,206.06,0,0,1,15.41,28,212.93,212.93,0,0,1-3.42-38.32v-43.25h36.5Z" transform="translate(-264.46 -294.92)"/><path class="cls-2" d="M2825.84,4145.63V3999.51H2900q23.13,0,33.72,11.67t10.6,26.65a33.74,33.74,0,0,1-6.15,19.75q-6.17,8.84-18.36,12.15,28.36,6.86,28.36,34a45.93,45.93,0,0,1-10,29.07q-10,12.78-42.77,12.79Zm41.32-90.13h20.77q7.82,0,11-4a13.16,13.16,0,0,0,3.22-8.46q0-12.21-15-12.2h-20Zm0,57.59H2889q8.13,0,11.93-4a12.78,12.78,0,0,0,3.8-9,13.78,13.78,0,0,0-3.69-9.26q-3.69-4.23-13.54-4.23h-20.34Z" transform="translate(-264.46 -294.92)"/><path class="cls-2" d="M3084.27,3999.51l-45.73,84.25v61.87H2995v-61.87l-49.16-84.25h49.08l25.61,48.17,24.55-48.17Z" transform="translate(-264.46 -294.92)"/><path class="cls-2" d="M3273.61,4063.74v81.89h-22a86.9,86.9,0,0,0-5.88-15.31q-13.61,17.55-40.25,17.55-28.26,0-46.46-19.74t-18.2-53.47q0-32.76,17.61-55.08t52.4-22.32q26.11,0,42.07,13.28t20.66,37.68l-43.46,4.28q-3.21-22.8-20-22.8-22.05,0-22.05,42,0,25.37,7.06,33.45t17.13,8.08a20.54,20.54,0,0,0,13.86-4.92q5.73-4.92,5.84-13.49h-24.19v-31Z" transform="translate(-264.46 -294.92)"/><path class="cls-2" d="M3421.22,3999.51v146.12h-44.85v-56.84h-34.25v56.84h-44.86V3999.51h44.86v53.74h34.25v-53.74Z" transform="translate(-264.46 -294.92)"/><path class="cls-2" d="M3509.75,4147.87q-30.84,0-50.26-20.44t-19.43-54.7q0-32.76,18.57-54.11t51.54-21.36q30.51,0,49.73,20.13t19.21,53.73q0,34.8-19.37,55.77T3509.75,4147.87Zm-.22-33.18q11.35,0,16.33-9.9t5-36.23q0-38.11-20.44-38.11-22,0-22,43.46Q3488.34,4114.7,3509.53,4114.69Z" transform="translate(-264.46 -294.92)"/><path class="cls-2" d="M3583,4103.34l41.64-7.49q5.25,17.67,27,17.66,16.9,0,16.91-9a8.35,8.35,0,0,0-3.9-7.33q-3.91-2.62-14-4.65-38.43-7.36-49.34-19.25a40,40,0,0,1-10.92-27.95q0-20.65,15.68-34.37t45.12-13.71q44.64,0,59,35.86L3673,4044.36q-5.79-14.66-23.44-14.66-14.67,0-14.67,9.1a7.2,7.2,0,0,0,3.32,6.31q3.32,2.25,12.85,4.28,26.22,5.55,37.25,9.81a40.17,40.17,0,0,1,18.41,14.6q7.38,10.34,7.38,24.37,0,22.18-18,35.94t-47.21,13.76Q3595.48,4147.87,3583,4103.34Z" transform="translate(-264.46 -294.92)"/><path class="cls-2" d="M3793,4034.52v111.11h-42.49V4034.52h-30.3v-35h103.09v35Z" transform="translate(-264.46 -294.92)"/><path class="cls-2" d="M3824,4103.34l41.64-7.49q5.23,17.67,27,17.66,16.92,0,16.92-9a8.36,8.36,0,0,0-3.91-7.33q-3.92-2.62-14-4.65-38.44-7.36-49.35-19.25a40,40,0,0,1-10.92-27.95q0-20.65,15.69-34.37t45.11-13.71q44.64,0,59,35.86l-37.15,11.24q-5.78-14.66-23.44-14.66-14.67,0-14.67,9.1a7.2,7.2,0,0,0,3.32,6.31q3.31,2.25,12.85,4.28,26.23,5.55,37.26,9.81a40.2,40.2,0,0,1,18.4,14.6q7.39,10.34,7.39,24.37,0,22.18-18,35.94t-47.2,13.76Q3836.56,4147.87,3824,4103.34Z" transform="translate(-264.46 -294.92)"/><path class="cls-2" d="M4019.81,3999.51l-12.2,96.88h-27.08l-11.46-96.88Zm-5,107.05v39.07h-41.32v-39.07Z" transform="translate(-264.46 -294.92)"/></svg>