<svg id="Layer_1" data-name="Layer 1" xmlns="http://www.w3.org/2000/svg" viewBox="0 0 91.08 39.62"><title>AC</title><path d="M7.58,28.79c7.85-.53,73-.86,81.6-.43,4.51.23,5.16,2.37,5.16,5,0,4.62-.86,25.26-1.51,29.78-.26,1.81-1.72,4.08-5.37,4.41s-74.29.43-77.2,0S6,66.21,5.32,63.84s-1.83-28.38-2-30.53S4.36,29,7.58,28.79Z" transform="translate(-3.25 -28.16)" fill="#fff"/><path d="M7.69,58.28H9l1.29,0H88c.43,0,.86,0,1.29,0h1.3a.26.26,0,0,1,.26.25.26.26,0,0,1-.24.26l-1.3.05-1.3,0L85.4,59l-1.3,0-1.29,0-2.59,0L75,59.12l-5.18.05-5.19,0-5.18,0H44l-5.18,0c-3.46,0-6.91,0-10.37-.06l-5.18-.05L18,59.05l-2.59,0-2.59,0-2.59-.07-1.3,0-1.3-.05a.26.26,0,0,1-.24-.27.25.25,0,0,1,.26-.24Z" transform="translate(-3.25 -28.16)" fill="#ebedec"/><path d="M11.35,34.27c1-.1,10.07-.14,10.91-.1.56,0,.67.32.7.64a7.87,7.87,0,0,1,0,1.61c-.05.32-.11.65-.64.65H11.46c-.43,0-.65-.22-.65-.54V34.81A.53.53,0,0,1,11.35,34.27Z" transform="translate(-3.25 -28.16)" fill="#389bc8"/><path d="M77.66,34.22a1.47,1.47,0,0,1,1.67,1.54A1.45,1.45,0,0,1,77.64,37a1.31,1.31,0,0,1-1.31-1.4A1.41,1.41,0,0,1,77.66,34.22Z" transform="translate(-3.25 -28.16)" fill="#389bc8"/><path d="M83.55,35.46c0,1.35-.78,1.57-1.43,1.57a1.43,1.43,0,0,1-1.4-1.58,1.31,1.31,0,0,1,1.41-1.31A1.41,1.41,0,0,1,83.55,35.46Z" transform="translate(-3.25 -28.16)" fill="#389bc8"/><path d="M86.55,37C85.21,37,85,36.22,85,35.57a1.42,1.42,0,0,1,1.58-1.39,1.31,1.31,0,0,1,1.31,1.4A1.42,1.42,0,0,1,86.55,37Z" transform="translate(-3.25 -28.16)" fill="#f6a864"/><path d="M88.25,62.72a40.64,40.64,0,0,1-.79,4.78c-3.46.3-66.69.41-76.12.06a31.57,31.57,0,0,1-.58-4.4c0-.81.26-1.33,1.13-1.39,4.2-.27,25.45-.49,36.16-.49s38.47.08,39.32.26A1.12,1.12,0,0,1,88.25,62.72Z" transform="translate(-3.25 -28.16)" fill="#ebedec"/><path d="M85.71,64l-2.25,0H81.21l-4.5,0-9,0q-9,0-18,0h-9l-9,0-9-.05-4.5,0-2.25,0L13.7,64a.26.26,0,0,1,0-.51l2.25,0,2.25,0,4.5,0,9,0,9,0h9c6,0,12,0,18,0l9,0,4.5,0,2.25,0,2.25,0h0a.26.26,0,1,1,0,.51Z" transform="translate(-3.25 -28.16)" fill="#389bc8"/><path d="M85.33,66.1l-2.23,0H80.88l-4.46,0-8.9,0q-8.91,0-17.81,0H40.8l-8.9,0-8.91,0-4.45,0H16.31l-2.23,0a.22.22,0,0,1-.22-.22.23.23,0,0,1,.22-.23l2.23,0,2.23,0,4.45,0,8.9,0,8.91,0h8.9c5.94,0,11.88,0,17.82,0l8.9,0,4.45,0,2.23,0,2.23,0h0a.24.24,0,0,1,.22.23A.22.22,0,0,1,85.33,66.1Z" transform="translate(-3.25 -28.16)" fill="#389bc8"/><path d="M5.57,38.92q-.11-.62-.18-1.23l-.07-.61-.06-.62c0-.2,0-.41,0-.61l0-.62,0-.62,0-.61,0-.62v-.46c0-.06,0-.13,0-.19A2.14,2.14,0,0,1,5.3,32a2,2,0,0,1,.47-.61,2.47,2.47,0,0,1,1.32-.57c.22,0,.42-.06.63-.08l.62-.05c.83-.05,1.65-.09,2.47-.11s1.64-.05,2.46-.06c1.64,0,3.28,0,4.91,0h0a.21.21,0,0,1,.22.22.23.23,0,0,1-.2.23L17,31l-1.23.07-2.45.12-2.45.13c-.81,0-1.63.09-2.44.15l-.6.06-.58.07L7,31.67l-.24.08a1.6,1.6,0,0,0-.4.25,1.17,1.17,0,0,0-.4.8.45.45,0,0,0,0,.12V34c0,1.63,0,3.26.1,4.89H6a.22.22,0,0,1-.21.23A.21.21,0,0,1,5.57,38.92Z" transform="translate(-3.25 -28.16)" fill="#ebedec"/></svg>