<svg id="Layer_1" data-name="Layer 1" xmlns="http://www.w3.org/2000/svg" viewBox="0 0 93.27 48.66"><title>Airport</title><rect x="27.16" y="44.34" width="2.88" height="1.21" fill="#1e2d34"/><rect x="27.77" y="34.74" width="1.67" height="9.6" fill="#1e2d34"/><rect x="29.86" y="42.52" width="2.43" height="4.85" fill="#354044"/><rect x="24.92" y="42.52" width="2.43" height="4.85" fill="#354044"/><rect x="41.72" y="46.98" width="1.6" height="0.67" fill="#1e2d34"/><rect x="42.06" y="41.65" width="0.93" height="5.33" fill="#1e2d34"/><rect x="43.22" y="45.97" width="1.35" height="2.69" fill="#354044"/><rect x="40.48" y="45.97" width="1.35" height="2.69" fill="#354044"/><rect x="50.7" y="46.98" width="1.6" height="0.67" fill="#1e2d34"/><rect x="51.04" y="41.65" width="0.93" height="5.33" fill="#1e2d34"/><rect x="52.2" y="45.97" width="1.35" height="2.69" fill="#354044"/><rect x="49.45" y="45.97" width="1.35" height="2.69" fill="#354044"/><rect x="16" y="32.88" width="2.94" height="3.22" fill="#c5c5c4"/><path d="M26.48,56.22a5.09,5.09,0,1,1-5.09-5.08A5.09,5.09,0,0,1,26.48,56.22Z" transform="translate(-3.92 -16.38)" fill="#c5c5c4"/><path d="M25.13,56.22a3.74,3.74,0,1,1-3.74-3.74A3.74,3.74,0,0,1,25.13,56.22Z" transform="translate(-3.92 -16.38)" fill="#1e2d34"/><path d="M39.62,47.92s-16-.35-34.72-2.3a.89.89,0,0,0-1,.89.88.88,0,0,0,.73.87l36.73,6.54Z" transform="translate(-3.92 -16.38)" fill="#e52a16"/><path d="M41.82,38.37l-.44,2.15L28.57,37.84a.24.24,0,0,1-.19-.23.23.23,0,0,1,.25-.23Z" transform="translate(-3.92 -16.38)" fill="#e52a16"/><path d="M50.55,16.38V37.1l-3-1.36,2.2-18.61a.84.84,0,0,1,.84-.75Z" transform="translate(-3.92 -16.38)" fill="#e52a16"/><path d="M53.59,35.74l-3,1.36V16.38a.84.84,0,0,1,.84.75Z" transform="translate(-3.92 -16.38)" fill="#c41718"/><path d="M49.16,50.2a2.28,2.28,0,0,1-2.28,2.28H39.75a2.28,2.28,0,0,1-2.28-2.28h0a2.28,2.28,0,0,1,2.28-2.28h7.13a2.28,2.28,0,0,1,2.28,2.28Z" transform="translate(-3.92 -16.38)" fill="#c5c5c4"/><path d="M50.68,49.72h-6a4.81,4.81,0,1,0,0,9.62h6Z" transform="translate(-3.92 -16.38)" fill="#c5c5c4"/><rect x="63.22" y="44.34" width="2.88" height="1.21" fill="#1e2d34"/><rect x="63.83" y="34.74" width="1.67" height="9.6" fill="#1e2d34"/><rect x="60.97" y="42.52" width="2.43" height="4.85" fill="#354044"/><rect x="65.92" y="42.52" width="2.43" height="4.85" fill="#354044"/><rect x="74.32" y="32.88" width="2.94" height="3.22" fill="#c5c5c4"/><path d="M74.62,56.22a5.09,5.09,0,1,0,5.09-5.08A5.09,5.09,0,0,0,74.62,56.22Z" transform="translate(-3.92 -16.38)" fill="#c5c5c4"/><path d="M76,56.22a3.74,3.74,0,1,0,3.74-3.74A3.73,3.73,0,0,0,76,56.22Z" transform="translate(-3.92 -16.38)" fill="#1e2d34"/><path d="M61.48,47.92s16-.35,34.72-2.3a.89.89,0,0,1,1,.89.88.88,0,0,1-.73.87L59.72,53.92Z" transform="translate(-3.92 -16.38)" fill="#e52a16"/><path d="M59.28,38.37l.44,2.15,12.81-2.68a.23.23,0,0,0-.07-.46Z" transform="translate(-3.92 -16.38)" fill="#e52a16"/><path d="M51.94,50.2a2.28,2.28,0,0,0,2.28,2.28h7.13a2.28,2.28,0,0,0,2.28-2.28h0a2.28,2.28,0,0,0-2.28-2.28H54.22a2.28,2.28,0,0,0-2.28,2.28Z" transform="translate(-3.92 -16.38)" fill="#c5c5c4"/><path d="M50.42,49.72h6a4.81,4.81,0,0,1,0,9.62h-6Z" transform="translate(-3.92 -16.38)" fill="#c5c5c4"/><path d="M50.68,33.79V57c-6,0-10.83-5.78-10.83-12A11,11,0,0,1,50.68,33.79Z" transform="translate(-3.92 -16.38)" fill="#e8eae5"/><path d="M61.51,45c0,6.2-4.85,12-10.83,12V33.79A11,11,0,0,1,61.51,45Z" transform="translate(-3.92 -16.38)" fill="#c5c5c4"/><polygon points="40.85 26.53 46.19 26.53 46.19 24.71 41.41 24.71 40.85 26.53" fill="#1e2d34"/><path d="M44.49,40l-1.27,4.1h8V40Zm5.62,3H44.77l.56-1.82h4.78Z" transform="translate(-3.92 -16.38)" fill="#c5c5c4"/><polygon points="53.24 26.53 47.9 26.53 47.9 24.71 52.68 24.71 53.24 26.53" fill="#1e2d34"/><path d="M50.68,40v4.1h8L57.44,40Zm1.14,1.14H56.6l.56,1.82H51.82Z" transform="translate(-3.92 -16.38)" fill="#e8eae5"/><path d="M55.42,49.26a4.74,4.74,0,1,1-4.74-4.74A4.74,4.74,0,0,1,55.42,49.26Z" transform="translate(-3.92 -16.38)" fill="#fff"/></svg>