<svg xmlns="http://www.w3.org/2000/svg" viewBox="0 0 93.8 38.11"><title>Bed</title><g style="isolation:isolate"><g id="Layer_1" data-name="Layer 1"><path d="M83.22,55.49l2.56,3.34a4.09,4.09,0,0,0,2.65-.48v0a3.33,3.33,0,0,0,.41-2.78,7.85,7.85,0,0,1-.3-4.63c.38-1.71-.46-2.69-1.77-.74Z" transform="translate(-3.1 -41.45)" fill="#f5ba7d"/><path d="M85.25,56l2.33,3.53a4.1,4.1,0,0,0,2.67-.29v0a3.31,3.31,0,0,0,.61-2.74,7.84,7.84,0,0,1,0-4.64c.5-1.67-.27-2.72-1.71-.87Z" transform="translate(-3.1 -41.45)" fill="#fcce93"/><path d="M26.52,56.57a6.66,6.66,0,0,0-3.21-.79l-5.17,0-5.16,0a6.66,6.66,0,0,0-3.21.79l-2.08,1.1,2.08,1.1a6.78,6.78,0,0,0,3.21.79l5.16,0,5.17,0a6.78,6.78,0,0,0,3.21-.79l2.08-1.1Z" transform="translate(-3.1 -41.45)" fill="#dfc8c3"/><polygon points="23.22 10.58 27.08 10.21 29.25 10 29.25 14.48 25.04 14.07 23.22 13.9 23.22 10.58" fill="#fabf84"/><path d="M26.32,55.35l3.56.34c.4-.85.29-4,.3-4L26.32,52Z" transform="translate(-3.1 -41.45)" fill="#e8aa63"/><path d="M22.81,56.76c3.07.45,5.85-1.39,6.22-4.12s-1.87-4.92-4.91-5.55c-1.49-.3-3.3-.47-4.17-.68-2.13-.5-1.72,2.32-2,4.59C17.56,53.73,19.74,56.31,22.81,56.76Z" transform="translate(-3.1 -41.45)" fill="#fabf84"/><path d="M16.41,45.15s7.7-1.28,3.48,8.62c0,0,4.77,1.41,5.62,3.39,0,0-8.09,2.9-9-1.81,0,0-3.21-1.88-.85-5.63A5.06,5.06,0,0,0,16.41,45.15Z" transform="translate(-3.1 -41.45)" fill="#3d3d3d"/><path d="M32.35,58.28a5.74,5.74,0,0,1-2-2.49,4.64,4.64,0,0,0,.79-2.42,3.44,3.44,0,0,0-.52-1.91c.75-1.49,2.4-1.93,4.49-2.57.61-.18,10.41-.21,10.41-.21L45.2,59.3S33.77,59.33,32.35,58.28Z" transform="translate(-3.1 -41.45)" fill="#fcebcc"/><path d="M90.49,64.16H9.11a1.8,1.8,0,0,1-1.75-1.83v-.94a1.8,1.8,0,0,1,1.75-1.83H90.49a1.79,1.79,0,0,1,1.75,1.83v.94A1.79,1.79,0,0,1,90.49,64.16Z" transform="translate(-3.1 -41.45)" fill="#f0d8bf"/><rect x="3.19" y="22.71" width="85.95" height="5.69" fill="#ac5328"/><rect x="89.14" y="5.91" width="4.66" height="32.21" fill="#8d3a23"/><rect width="4.66" height="38.11" fill="#8d3a23"/><path d="M53,47c-3.39-.44-9.9-.89-14.07.57l-.1,0a7,7,0,0,0-4.37,7.49L37.33,78H89.52V59.56a7.28,7.28,0,0,0-2.21-5.26l-.06,0a6.84,6.84,0,0,0-3.59-1.81C73.8,50.81,69.78,49.58,53,47Z" transform="translate(-3.1 -41.45)" fill="#63c2ca"/><path d="M87.25,54.25c-.09-.09-.19-.16-.28-.24-14,11.25-36,7.64-52.48,1.2L37.33,78H89.52V59.56a7.28,7.28,0,0,0-2.21-5.26Z" transform="translate(-3.1 -41.45)" fill="#63c2ca" opacity="0.45" style="mix-blend-mode:multiply"/></g></g></svg>