<svg id="Layer_1" data-name="Layer 1" xmlns="http://www.w3.org/2000/svg" viewBox="0 0 95.14 88.66"><title>Bus</title><path d="M75.89,88.6H18.54c-.06,0-1.78.66-1.82.72l-.87,3.17c-.13.2,0,.55.15.55H82.65c.24,0,.3-.49.08-.62L76,88.62Z" transform="translate(-2.11 -4.38)" fill="#010101"/><rect x="72.61" y="69.93" width="11.19" height="18.73" rx="3.5" fill="#5c4434"/><rect x="59.71" y="65.98" width="10.05" height="18.73" rx="3.32" fill="#010101"/><rect x="11.34" y="69.93" width="11.19" height="18.73" rx="3.5" fill="#5c4434"/><path d="M80.57,4.38H18.79a5.34,5.34,0,0,0-5.34,5.34V82.57H85.91V9.72A5.34,5.34,0,0,0,80.57,4.38ZM75,56.19H24.51V32.6H75Z" transform="translate(-2.11 -4.38)" fill="#f7a52e"/><path d="M13.45,27V61.13H85.91V27ZM75,56.19H24.51V32.6H75Z" transform="translate(-2.11 -4.38)" fill="#010101"/><ellipse cx="63.56" cy="42.66" rx="4.24" ry="4.73" fill="#010101"/><rect x="53.37" y="46.06" width="21.25" height="7.51" rx="2.56" fill="#010101"/><rect x="17.81" y="46.06" width="21.25" height="7.51" rx="2.56" fill="#010101"/><rect x="39.46" y="29.73" width="15.9" height="3.99" rx="1.76" fill="#010101"/><rect x="11.34" y="22.62" width="72.46" height="34.13" fill="#2f2820" opacity="0.9"/><path d="M15.64,61.13v1a2.53,2.53,0,0,0,2.53,2.53h63a2.52,2.52,0,0,0,2.52-2.53v-1Z" transform="translate(-2.11 -4.38)" fill="#ffd241"/><rect x="10.3" y="71.16" width="74.55" height="11.1" rx="2.41" fill="#f7a52e"/><rect x="63.56" y="62.18" width="18.05" height="8.88" rx="2.48" fill="#d1641e"/><circle cx="76.94" cy="66.62" r="3.65" fill="#d8eada"/><path d="M79.05,75a4,4,0,1,1,4-4A4,4,0,0,1,79.05,75Zm0-7.3A3.29,3.29,0,1,0,82.33,71,3.28,3.28,0,0,0,79.05,67.71Z" transform="translate(-2.11 -4.38)" fill="#826646"/><path d="M77.07,71a2,2,0,1,0,2-2A2,2,0,0,0,77.07,71Z" transform="translate(-2.11 -4.38)" fill="#826646" opacity="0.9"/><circle cx="68.51" cy="66.62" r="3.65" fill="#d8eada"/><path d="M70.63,75a4,4,0,1,1,4-4A4,4,0,0,1,70.63,75Zm0-7.3A3.29,3.29,0,1,0,73.91,71,3.29,3.29,0,0,0,70.63,67.71Z" transform="translate(-2.11 -4.38)" fill="#826646"/><rect x="13.53" y="62.18" width="18.05" height="8.88" rx="2.48" fill="#d1641e"/><circle cx="26.91" cy="66.62" r="3.65" fill="#d8eada"/><path d="M29,75a4,4,0,1,1,4-4A4,4,0,0,1,29,75Zm0-7.3A3.29,3.29,0,1,0,32.31,71,3.28,3.28,0,0,0,29,67.71Z" transform="translate(-2.11 -4.38)" fill="#826646"/><circle cx="18.48" cy="66.62" r="3.65" fill="#d8eada"/><path d="M20.6,75a4,4,0,1,1,4-4A4,4,0,0,1,20.6,75Zm0-7.3A3.29,3.29,0,1,0,23.88,71,3.29,3.29,0,0,0,20.6,67.71Z" transform="translate(-2.11 -4.38)" fill="#826646"/><path d="M18.61,71a2,2,0,1,0,2-2A2,2,0,0,0,18.61,71Z" transform="translate(-2.11 -4.38)" fill="#826646" opacity="0.9"/><rect x="13.53" y="1.96" width="68.08" height="5.87" rx="2.59" fill="#f5eee0"/><path d="M80.9,12.46H18.46a3.08,3.08,0,0,1-3.07-3.07V9.16a3.08,3.08,0,0,1,3.07-3.07H80.9A3.08,3.08,0,0,1,84,9.16v.23A3.08,3.08,0,0,1,80.9,12.46ZM18.46,6.59a2.58,2.58,0,0,0-2.57,2.57v.23A2.58,2.58,0,0,0,18.46,12H80.9a2.58,2.58,0,0,0,2.57-2.57V9.16A2.58,2.58,0,0,0,80.9,6.59Z" transform="translate(-2.11 -4.38)" fill="#db7d28"/><path d="M79,9.2a1.87,1.87,0,1,0,1.86-1.87A1.87,1.87,0,0,0,79,9.2Z" transform="translate(-2.11 -4.38)" fill="#ea541b"/><path d="M80.87,11.21a2,2,0,1,1,2-2A2,2,0,0,1,80.87,11.21Zm0-3.73A1.72,1.72,0,1,0,82.6,9.2,1.72,1.72,0,0,0,80.87,7.48Z" transform="translate(-2.11 -4.38)" fill="#826646"/><path d="M16.9,9.2a1.87,1.87,0,1,0,1.87-1.87A1.87,1.87,0,0,0,16.9,9.2Z" transform="translate(-2.11 -4.38)" fill="#ea541b"/><path d="M18.77,11.21a2,2,0,1,1,2-2A2,2,0,0,1,18.77,11.21Zm0-3.73A1.72,1.72,0,1,0,20.49,9.2,1.72,1.72,0,0,0,18.77,7.48Z" transform="translate(-2.11 -4.38)" fill="#826646"/><rect x="13.53" y="9.66" width="68.08" height="8.85" rx="3.91" fill="#010101"/><rect x="33.57" y="62.18" width="27.73" height="8.98" rx="2.48" fill="#d1641e"/><rect y="26.35" width="8.03" height="19.71" rx="3.55" fill="#91989b"/><path d="M6.86,40.58H5.4V30.21A3.31,3.31,0,0,1,8.71,26.9h4.74v1.46H8.71a1.85,1.85,0,0,0-1.85,1.85Z" transform="translate(-2.11 -4.38)" fill="#525252"/><circle cx="4.01" cy="36.21" r="1.51" fill="#525252"/><rect x="89.22" y="30.73" width="8.03" height="19.71" rx="3.55" transform="translate(184.36 76.79) rotate(-180)" fill="#91989b"/><path d="M94,40.58H92.51V30.21a1.85,1.85,0,0,0-1.86-1.85H85.91V26.9h4.74A3.32,3.32,0,0,1,94,30.21Z" transform="translate(-2.11 -4.38)" fill="#525252"/><path d="M94.74,40.58a1.51,1.51,0,1,1-1.5-1.5A1.51,1.51,0,0,1,94.74,40.58Z" transform="translate(-2.11 -4.38)" fill="#525252"/><path d="M36.47,20.1V21l-.95.55H33.36l-1-.55V16.3l1-.55h2.16l.95.55v.93h-.82v-.74H33.23v4.35h2.42V20.1Z" transform="translate(-2.11 -4.38)" fill="#e0de22"/><path d="M37.86,15.8h.83v5.74h-.83Z" transform="translate(-2.11 -4.38)" fill="#e0de22"/><path d="M42.12,21.54H41.3v-5H39.67V15.8h4.09v.73H42.12Z" transform="translate(-2.11 -4.38)" fill="#e0de22"/><path d="M46.09,19l-1.92-3.2h.92l1.41,2.44h0l1.42-2.44h.92L46.91,19v2.53h-.82Z" transform="translate(-2.11 -4.38)" fill="#e0de22"/><path d="M55.07,18.56v0l.71.41v2l-1,.55H51.89V15.8h2.94l1,.54v1.81Zm-2.36-.36H55V16.53H52.71Zm0,2.6H55V18.94H52.71Z" transform="translate(-2.11 -4.38)" fill="#e0de22"/><path d="M61.57,15.8V21l-1,.55H58.21l-1-.55V15.8h.82v5h2.67v-5Z" transform="translate(-2.11 -4.38)" fill="#e0de22"/><path d="M63.05,16.3l1-.55h1.91l1,.55v.85H66v-.66H63.87v1.74h2l1,.55V21l-1,.55h-2L63,21v-.85h.82v.66H66V19.05H64l-1-.55Z" transform="translate(-2.11 -4.38)" fill="#e0de22"/><rect x="13.53" y="75.8" width="10.76" height="3.47" rx="1.53" fill="#ea541b"/><path d="M25.39,83.89H16.64a1.25,1.25,0,0,1-1.25-1.25V81.18a1.26,1.26,0,0,1,1.25-1.26h8.75a1.26,1.26,0,0,1,1.26,1.26v1.46A1.25,1.25,0,0,1,25.39,83.89Zm-8.75-3.46a.75.75,0,0,0-.75.75v1.46a.76.76,0,0,0,.75.75h8.75a.76.76,0,0,0,.76-.75V81.18a.75.75,0,0,0-.76-.75Z" transform="translate(-2.11 -4.38)" fill="#826646"/><rect x="70.86" y="75.8" width="10.76" height="3.47" rx="1.53" fill="#ea541b"/><path d="M82.72,83.89H74a1.25,1.25,0,0,1-1.25-1.25V81.18A1.26,1.26,0,0,1,74,79.92h8.75A1.27,1.27,0,0,1,84,81.18v1.46A1.26,1.26,0,0,1,82.72,83.89ZM74,80.43a.75.75,0,0,0-.75.75v1.46a.76.76,0,0,0,.75.75h8.75a.75.75,0,0,0,.75-.75V81.18a.74.74,0,0,0-.75-.75Z" transform="translate(-2.11 -4.38)" fill="#826646"/><rect x="26.27" y="75.8" width="42.33" height="3.47" rx="1.53" fill="#010101"/><rect x="34.55" y="63.16" width="25.73" height="1.09" fill="#4b220f"/><rect x="34.55" y="65.13" width="25.73" height="1.09" fill="#4b220f"/><rect x="34.55" y="67.11" width="25.73" height="1.09" fill="#4b220f"/><rect x="34.55" y="69.09" width="25.73" height="1.09" fill="#4b220f"/><polygon points="65.15 56.71 73.13 56.71 82.74 22.62 74.76 22.62 65.15 56.71" fill="#84cfec" opacity="0.3"/><polygon points="13.4 56.71 43.13 56.71 52.74 22.62 23 22.62 13.4 56.71" fill="#84cfec" opacity="0.3"/></svg>