<svg id="Layer_1" data-name="Layer 1" xmlns="http://www.w3.org/2000/svg" viewBox="0 0 64.4 92.01"><title>Cupboard</title><rect x="31.36" width="1.69" height="89.75" fill="#7e5737"/><rect width="31.36" height="89.75" fill="#bd8455"/><rect x="33.05" width="31.36" height="89.75" fill="#bd8455"/><rect y="89.75" width="64.4" height="2.27" fill="#7e5737"/><path d="M41.2,42.19a3,3,0,0,1,0,6,3,3,0,0,1,0-6Z" transform="translate(-14.91 -3.99)" fill="#5e2b0f" fill-rule="evenodd"/><path d="M42.32,43.22a2,2,0,0,1,2,2,2,2,0,1,1-4,0,2,2,0,0,1,2-2Z" transform="translate(-14.91 -3.99)" fill="#f9c807" fill-rule="evenodd"/><path d="M42.93,43.88a.59.59,0,0,1,.62.62.61.61,0,0,1-.62.62.63.63,0,0,1-.61-.62.6.6,0,0,1,.61-.62Z" transform="translate(-14.91 -3.99)" fill="#fefefe" fill-rule="evenodd"/><path d="M53,42.19a3,3,0,1,1-3,3,3,3,0,0,1,3-3Z" transform="translate(-14.91 -3.99)" fill="#5e2b0f" fill-rule="evenodd"/><path d="M54.1,43.22a2,2,0,0,1,2,2,2,2,0,1,1-4,0,2,2,0,0,1,2-2Z" transform="translate(-14.91 -3.99)" fill="#f9c807" fill-rule="evenodd"/><path d="M54.76,43.88a.61.61,0,0,1,.62.62.62.62,0,0,1-1.24,0,.61.61,0,0,1,.62-.62Z" transform="translate(-14.91 -3.99)" fill="#fefefe" fill-rule="evenodd"/></svg>