<svg id="Layer_1" data-name="Layer 1" xmlns="http://www.w3.org/2000/svg" viewBox="0 0 100 100"><title>Icons</title><rect x="32.51" y="29.06" width="41.08" height="51.99" fill="#e83b3a"/><rect x="32.51" y="28.14" width="41.08" height="3.22" fill="#63412c"/><rect x="32.51" y="78.76" width="41.08" height="3.22" fill="#63412c"/><path d="M61.79,16.23H44.31A11.79,11.79,0,0,0,32.51,28v.12H73.59V28A11.79,11.79,0,0,0,61.79,16.23Z" fill="#e83b3a"/><path d="M44.31,93.89H61.79a11.8,11.8,0,0,0,11.8-11.8V82H32.51v.12A11.8,11.8,0,0,0,44.31,93.89Z" fill="#e83b3a"/><path d="M53.84,16.23H44.31A11.79,11.79,0,0,0,32.51,28V82h0v.12a11.8,11.8,0,0,0,11.8,11.8h9.53Z" fill="#010101" opacity="0.2"/><path d="M49.21,9.35a3.52,3.52,0,0,0-3.77.53c-1,.82-4.08,4.28-1.6,14.29l.24,1,3.25-.81-.24-.95c-1.78-7.17-.26-10.3.47-10.9.1-.09.17-.11.22-.1.29.14,1.12,1.14,1.12,3.86h3.34C52.24,12.77,51.14,10.26,49.21,9.35Z" fill="#231f20"/><path d="M42.67,30.54l-1,.17a12.43,12.43,0,0,1-2.17.2,10,10,0,0,1-9.11-5.64c-.89-1.86-.74-3.14-.46-3.39a.65.65,0,0,1,.37-.08,7.24,7.24,0,0,1,3.21,1.39s.55-1.09.79-1.46,1-1.4,1-1.4c-3.23-2.09-6-2.41-7.61-1s-1.79,4.35-.34,7.35A13.32,13.32,0,0,0,39.5,34.26,15.75,15.75,0,0,0,42.29,34l1-.17Z" fill="#231f20"/><circle cx="47.26" cy="29.47" r="6.59" fill="#1b1b1b"/><circle cx="47.26" cy="29.47" r="5.23" fill="#7d7d7e"/><circle cx="47.26" cy="29.47" r="4.7" fill="#f2f2f2"/><path d="M51.74,29.47H47.26V25A4.49,4.49,0,0,1,51.74,29.47Z" fill="#ef7d29"/><rect x="69.98" y="32.25" width="2.84" height="45.24" fill="#fff" opacity="0.2"/><path d="M70.19,20.31c1,1,1.45,2,1.09,2.39s-1.42-.15-2.38-1.11-1.45-2-1.09-2.39S69.23,19.35,70.19,20.31Z" fill="#fff"/><path d="M70.76,23.61c.5.51.76,1.07.58,1.26s-.75-.08-1.26-.59-.77-1.07-.58-1.26S70.25,23.1,70.76,23.61Z" fill="#fff"/><rect x="50.22" y="12.42" width="7.25" height="3.8" fill="#828383"/><rect x="50.22" y="12.42" width="3.62" height="3.8" fill="#5d5d5d"/><rect x="53.37" y="7.86" width="0.95" height="4.56" fill="#5d5d5d"/><rect x="49.74" y="6.11" width="8.21" height="1.75" fill="#e83b3a"/></svg>