<svg xmlns="http://www.w3.org/2000/svg" viewBox="0 0 50.69 89.95"><title>Geyser</title><g style="isolation:isolate"><g id="Layer_1" data-name="Layer 1"><rect width="50.69" height="67.57" rx="5.72" fill="#fff"/><path d="M61.68,61.21a22.36,22.36,0,0,1,0-44.72h15v-5.7A5.72,5.72,0,0,0,71,5.07H31.69A5.72,5.72,0,0,0,26,10.79V66.92a5.72,5.72,0,0,0,5.72,5.72H71a5.72,5.72,0,0,0,5.72-5.72V61.21Z" transform="translate(-25.97 -5.07)" fill="#ededed"/><rect x="8.76" y="67.64" width="33.17" height="6.74" fill="#b7cedb"/><rect x="8.76" y="67.64" width="33.17" height="2.21" fill="#dadada" style="mix-blend-mode:multiply"/><path d="M39.39,65.89a5.72,5.72,0,0,1-5.72-5.72V17.54a5.73,5.73,0,0,1,5.72-5.73H76.67v-1A5.72,5.72,0,0,0,71,5.07H31.69A5.72,5.72,0,0,0,26,10.79V66.92a5.72,5.72,0,0,0,5.72,5.72H71a5.72,5.72,0,0,0,5.72-5.72v-1Z" transform="translate(-25.97 -5.07)" fill="#dadada" style="mix-blend-mode:multiply"/><path d="M57.64,21.25a6.32,6.32,0,1,1-6.32-6.33A6.32,6.32,0,0,1,57.64,21.25Z" transform="translate(-25.97 -5.07)" fill="#c6c6c6"/><path d="M56.73,21.25a5.42,5.42,0,1,1-5.41-5.42A5.41,5.41,0,0,1,56.73,21.25Z" transform="translate(-25.97 -5.07)" fill="#fff"/><path d="M51.32,16.52a4.73,4.73,0,1,0,4.73,4.73A4.73,4.73,0,0,0,51.32,16.52Zm0,8.22a3.49,3.49,0,1,1,3.49-3.49A3.49,3.49,0,0,1,51.32,24.74Z" transform="translate(-25.97 -5.07)" fill="#fff"/><path d="M51.32,16.52a4.73,4.73,0,1,0,4.73,4.73A4.73,4.73,0,0,0,51.32,16.52Zm0,8.22a3.49,3.49,0,1,1,3.49-3.49A3.49,3.49,0,0,1,51.32,24.74Z" transform="translate(-25.97 -5.07)" fill="#fff"/><path d="M51.32,16.52a4.73,4.73,0,1,0,4.73,4.73A4.73,4.73,0,0,0,51.32,16.52Zm0,8.22a3.49,3.49,0,1,1,3.49-3.49A3.49,3.49,0,0,1,51.32,24.74Z" transform="translate(-25.97 -5.07)" fill="#fff"/><path d="M47.82,21.22a3.49,3.49,0,0,1,7,0H56a4.73,4.73,0,0,0-9.46,0Z" transform="translate(-25.97 -5.07)" fill="#00b1c3"/><path d="M51.36,16.52v1.24a3.48,3.48,0,0,1,3.44,3.49H56A4.73,4.73,0,0,0,51.36,16.52Z" transform="translate(-25.97 -5.07)" fill="#92cfca"/><path d="M51.46,16.12l.31,5.29h-.9l.28-5.29a.16.16,0,0,1,.17-.16A.15.15,0,0,1,51.46,16.12Z" transform="translate(-25.97 -5.07)" fill="#d42a26"/><path d="M52.42,21.25a1.1,1.1,0,1,1-1.1-1.1A1.1,1.1,0,0,1,52.42,21.25Z" transform="translate(-25.97 -5.07)" fill="#d42a26"/><path d="M51.93,21.25a.61.61,0,0,1-.61.6.61.61,0,1,1,0-1.21A.61.61,0,0,1,51.93,21.25Z" transform="translate(-25.97 -5.07)" fill="#e94b49"/><path d="M54.81,21.24h0a3.49,3.49,0,0,1-7,0H46.59a4.73,4.73,0,0,0,9.46,0H54.81Z" transform="translate(-25.97 -5.07)" fill="#e73e11"/><path d="M56.05,21.24H54.81a3.5,3.5,0,0,1-3.49,3.49V26a4.72,4.72,0,0,0,4.73-4.72Z" transform="translate(-25.97 -5.07)" fill="#e30f15"/><rect x="16.23" y="41.29" width="18.23" height="12.12" rx="1.08" fill="#373c47"/><path d="M44.07,57.62a.93.93,0,0,1-.93-.93V48.13a.93.93,0,0,1,.93-.92H60.41a1.07,1.07,0,0,0-1-.86H43.28a1.09,1.09,0,0,0-1.08,1.08v10a1.08,1.08,0,0,0,1.08,1.08H59.36a1.07,1.07,0,0,0,1-.85Z" transform="translate(-25.97 -5.07)" fill="#373c47" style="mix-blend-mode:multiply"/><path d="M66.46,49.72a1.56,1.56,0,1,1-1.56-1.56A1.56,1.56,0,0,1,66.46,49.72Z" transform="translate(-25.97 -5.07)" fill="#dadada"/><path d="M66.05,49.72a1.15,1.15,0,1,1-2.3,0,1.15,1.15,0,1,1,2.3,0Z" transform="translate(-25.97 -5.07)" fill="#a9c811"/><path d="M65.79,49.52a.45.45,0,0,1-.89,0,.45.45,0,0,1,.89,0Z" transform="translate(-25.97 -5.07)" fill="#fff" opacity="0.5"/><path d="M65.14,50.64a.92.92,0,1,1,0-1.83.9.9,0,0,1,.89.73,1.14,1.14,0,0,0-1.13-1,1.15,1.15,0,0,0,0,2.3,1.14,1.14,0,0,0,1.13-1A.91.91,0,0,1,65.14,50.64Z" transform="translate(-25.97 -5.07)" fill="#dadada" style="mix-blend-mode:multiply"/><path d="M66.46,55.45A1.56,1.56,0,1,1,64.9,53.9,1.56,1.56,0,0,1,66.46,55.45Z" transform="translate(-25.97 -5.07)" fill="#dadada"/><path d="M66.05,55.45a1.15,1.15,0,1,1-2.3,0,1.15,1.15,0,0,1,2.3,0Z" transform="translate(-25.97 -5.07)" fill="#e30613"/><path d="M65.79,55.25a.45.45,0,1,1-.45-.44A.45.45,0,0,1,65.79,55.25Z" transform="translate(-25.97 -5.07)" fill="#fff" opacity="0.5"/><path d="M65.14,56.37a.92.92,0,1,1,0-1.83.9.9,0,0,1,.89.73,1.14,1.14,0,0,0-1.13-1,1.15,1.15,0,0,0,0,2.3,1.13,1.13,0,0,0,1.13-1A.9.9,0,0,1,65.14,56.37Z" transform="translate(-25.97 -5.07)" fill="#dadada" style="mix-blend-mode:multiply"/><rect x="27.13" y="74.38" width="5.88" height="15.57" fill="#00b1c3"/><rect x="27.13" y="74.38" width="1.86" height="15.57" fill="#dadada" style="mix-blend-mode:multiply"/><rect x="30.07" y="74.38" width="0.93" height="15.57" fill="#fff" style="mix-blend-mode:soft-light"/><rect x="31.67" y="74.38" width="0.47" height="15.57" fill="#fff" style="mix-blend-mode:soft-light"/><rect x="15.64" y="74.38" width="5.88" height="15.57" fill="#d42a26"/><rect x="15.64" y="74.38" width="1.87" height="15.57" fill="#dadada" style="mix-blend-mode:multiply"/><rect x="18.57" y="74.38" width="0.93" height="15.57" fill="#fff" style="mix-blend-mode:soft-light"/><rect x="20.17" y="74.38" width="0.47" height="15.57" fill="#fff" style="mix-blend-mode:soft-light"/></g></g></svg>