<svg id="Layer_1" data-name="Layer 1" xmlns="http://www.w3.org/2000/svg" viewBox="0 0 65.84 85.37"><title>Gym</title><ellipse cx="22.16" cy="24.19" rx="5.08" ry="7.63" transform="translate(-17.23 -7.18) rotate(-0.36)" fill="#4e4d4d"/><ellipse cx="23.29" cy="24.41" rx="5.08" ry="7.63" transform="translate(-17.23 -7.17) rotate(-0.36)" fill="#808181"/><path d="M64.1,31.89a3.15,3.15,0,0,0-1-2c-3.08-2.26-4-.14-4-.14h0c0,.29-.05.58-.07.84-.19-.48-.51-1-.92-.78s0,1.38,0,1.84c0,.87-.34,1.57.23,2.33a3.31,3.31,0,0,0,.45.47h0l0,0c.13.12.25.23.36.35h0a2.25,2.25,0,0,1,.7,1.71,2.53,2.53,0,0,1,0,.48,6.12,6.12,0,0,1-.12,1h0c-.11.68-.28,1.34-.37,1.82a17,17,0,0,1-1.61,4.32,6.5,6.5,0,0,0-.55,5.17c.3.92,1,2.49,2,2.84s1.61-.67,2.18-1.24a7.4,7.4,0,0,0,2.4-4.6,15.19,15.19,0,0,0-.06-5c-.35-1.66-1.12-3.54-.75-5.2C63.23,34.68,64.25,33.4,64.1,31.89Z" transform="translate(-17.08 -7.31)" fill="#db9b82"/><path d="M60.18,47.85l.29-1.92-.42,0c-.09-.55-.2-1.08-.32-1.58h0S58.07,36,54.68,35c-1.34-.45-2.58.79-3.19,1.88-1.79,3.17-.7,6.23,1.16,9a36.06,36.06,0,0,0,2.15,3.35h0a5.77,5.77,0,0,0,4.78,2.69l.35-2.39A5.82,5.82,0,0,0,60.18,47.85Z" transform="translate(-17.08 -7.31)" fill="#db9b82"/><path d="M32.94,26.91h-.13l-8.67-1.61a.71.71,0,0,1,.26-1.4l8.67,1.6a.72.72,0,0,1,.57.83A.71.71,0,0,1,32.94,26.91Z" transform="translate(-17.08 -7.31)" fill="#343434"/><path d="M32.93,28.59C30.11,32.15,36.18,35,37.59,38a8.5,8.5,0,0,1,.28,5.11c-.75,2.79-2.82,1.62-4.45.14-3.09-2.82-4-6.54-4.43-10.51-.23-2.28-2-8.27,1.77-8.39,4.27-.13,1.75,4.35,1.35,6.42Z" transform="translate(-17.08 -7.31)" fill="#db9b82"/><path d="M51.9,56.4c1.85,4.07.88,7.21.66,11.35s.85,8.11,1.3,12.14c2.43-2.46,6.49-2.6,8.9-2.42a9.51,9.51,0,0,0,2,.24h0c2.86,0,4.84-1.43,7.9-2.34,2-.58,3.4-.69,3.62,1.56.19,1.89-.17,3.72,0,5.59.2,2.08.16,3-1.81,4.15-1,.58-4.8,2.12-3.93-.32.29-.82,1.36-1.1,1.62-2.14a4.38,4.38,0,0,0-.2-2.51c-.91-1.35-3.65,0-5,.49-3.49,1.19-6.18,3.58-9.55,4.94-2.42,1-7.27,2.89-9.42.5-2.47-2.74-3.55-8.5-4.26-12a90.11,90.11,0,0,1-.86-9.16Z" transform="translate(-17.08 -7.31)" fill="#db9b82"/><path d="M39.89,65.74a15.79,15.79,0,0,1-6.38,1.65c-1.55.15-5.11-.13-6.12,1.1C30.49,69.88,30,75.83,30,78.57c0,1.71-.22,3.66.37,5.27s2.29,2.75,2.27,4.6c0,2.26-1.95,1.61-3.75,2s-3.39,1.4-5.14,1.94c-1.36.42-4.46.78-5.07-1.11s2.59-2.37,3.75-3c4.33-2.34,3.65-5.63,1.86-9.71-1.57-3.57-3.84-7-4.16-11-.15-1.82-.36-3.16,1-4.4a18.83,18.83,0,0,1,5-2.92A51.86,51.86,0,0,1,37.05,56.4c1.14-.24,1.67-.51,2.47.33s.81,2.46.86,3.41c.08,1.34.67,5.38-.82,5.93Z" transform="translate(-17.08 -7.31)" fill="#db9b82"/><path d="M43.09,23.78S41.7,28,45.67,28.68c0,0-6.93,4-7,4-5-.18.07,0,.07,0l-3.13-3.85s1.87.2,1.25-3Z" transform="translate(-17.08 -7.31)" fill="#db9b82"/><rect x="59.73" y="18.92" width="1.42" height="27.49" transform="translate(-1.26 77.6) rotate(-77.89)" fill="#343434"/><path d="M51.11,46.31a31.08,31.08,0,0,0,.6,9c-2.65,1.09-10.87,1.41-13.49,0a2.89,2.89,0,0,1-1-.92,37.11,37.11,0,0,1-1.21-7,13.14,13.14,0,0,0-.6-4.17c-1.29-3.15-3.55-8.7-1.88-12.35.46-1,1.09-2.11,2.42-2a6,6,0,0,0,1.21,1.67,3,3,0,0,0,1.31.71,2.82,2.82,0,0,0,1.26,0,4.92,4.92,0,0,0,4.09-3.26c1.84,1,3.56,1,5.31,1.75,5.66,1,8.47,8.38,8.47,8.38-4.53-.15-6,5.38-6.12,5.72s-.13.61-.17.91C51.22,45.26,51.15,45.79,51.11,46.31Z" transform="translate(-17.08 -7.31)" fill="#afdbdd"/><path d="M51.47,43.79c-.06.31-.13.61-.17.91-.08.56-.15,1.09-.19,1.61l-2.3-7.1Z" transform="translate(-17.08 -7.31)" fill="#73c4cc"/><path d="M32,12.49C34.14,7,41,9,41,9a10.41,10.41,0,0,1,5.56,4.78C50,20.83,40.7,28,34.59,28.67c-1.5.16-2-.23-2.32-1A15.41,15.41,0,0,1,31.13,24c-.82-5.05.85-11.49.85-11.49Z" transform="translate(-17.08 -7.31)" fill="#db9b82"/><path d="M52.58,70.47s-5.7,1.56-9.49,1.07l-.27-4.36a4.81,4.81,0,0,1-3.64-1.09,21.1,21.1,0,0,1-7.52,1.37s.4-6.55-3-8.39c0,0,6.58-2.52,8.36-2.67l.16-2.07s5.92,2.6,14.5.94A19.4,19.4,0,0,1,53,62.08Z" transform="translate(-17.08 -7.31)" fill="#1b1b1b"/><path d="M29.22,12.12a4.19,4.19,0,0,1,.59-1.31,8.49,8.49,0,0,1,5.87-3.39,12.4,12.4,0,0,1,5.94.7c1.08.39,1.31,1.24,2.21,1.83a6.63,6.63,0,0,0,1.17.56h0a6.87,6.87,0,0,1,2.64,3.14v0h0a7.17,7.17,0,0,1,.11,4.2h0s-.58,4.94-4.51,7.46c0,0,0-.3-.09-.77a7.76,7.76,0,0,1-4.7,4c-1.51.38-4,1.32-5.72,1.11a1.22,1.22,0,0,1-1-.87,6.91,6.91,0,0,1-.27-3.49,2.07,2.07,0,0,0,2.1,1.3,1.72,1.72,0,0,0,1.76-1.14,5.28,5.28,0,0,0,1.53-.22h0c2.86-.5,4.31-5.12,4.58-6.83a1.23,1.23,0,0,1-.37-.31,4.9,4.9,0,0,1-.87-1.38c-.31-.73-.47-1.84.31-2.27-1-.55-3.13.47-4.16.58-1.42.15-3.88.2-4.89-1.07a4.43,4.43,0,0,0,.65-.09c-.79-.36-1.77-.44-2.51-.87C29.09,12.72,29.07,12.79,29.22,12.12Z" transform="translate(-17.08 -7.31)" fill="#7d421e"/><path d="M32.43,23a2,2,0,0,1,2.16.59c.34.37.6.82.92,1.18s.9.64,1.24,1.05c-.77.88-2.62-.06-3.21-.71-.27-.3-.68-1.21-1.17-1.19s-.63.93-1,1.17A1.87,1.87,0,0,1,31,23c.3-.49,1.66-.61,1.59,0Z" transform="translate(-17.08 -7.31)" fill="#7d421e"/><path d="M59.82,33.09a.74.74,0,0,1-.59-.32,3,3,0,0,1-.33-2.94.72.72,0,0,1,1.3.6A1.52,1.52,0,0,0,60.42,32a.71.71,0,0,1-.2,1A.66.66,0,0,1,59.82,33.09Z" transform="translate(-17.08 -7.31)" fill="#db9b82"/><path d="M61.18,33.2a.71.71,0,0,1-.63-.37,2.94,2.94,0,0,1-.06-2.95.72.72,0,0,1,1-.27.73.73,0,0,1,.27,1,1.52,1.52,0,0,0,.07,1.56.7.7,0,0,1-.62,1.05Z" transform="translate(-17.08 -7.31)" fill="#db9b82"/><path d="M62.48,33.36a.71.71,0,0,1-.63-.37,2.94,2.94,0,0,1-.06-3,.71.71,0,1,1,1.23.71,1.54,1.54,0,0,0,.08,1.56.72.72,0,0,1-.28,1A.71.71,0,0,1,62.48,33.36Z" transform="translate(-17.08 -7.31)" fill="#db9b82"/><path d="M77.54,26.76l.23-.29L75,26.11c-3.23.22-5.79,4.22-5.75,9.12,0,3.91,1.69,7.23,4,8.5l2.07.56h0c3.35,0,6-4.11,6-9.14C81.36,31.34,79.77,28.09,77.54,26.76Z" transform="translate(-17.08 -7.31)" fill="#4e4d4d"/><ellipse cx="76.86" cy="35.46" rx="6.06" ry="9.1" transform="translate(-17.3 -6.84) rotate(-0.36)" fill="#808181"/><path d="M79.55,35.62c0,1.81-1.07,3.27-2.38,3.27s-2.38-1.46-2.38-3.27,1.07-3.27,2.38-3.27S79.55,33.81,79.55,35.62Z" transform="translate(-17.08 -7.31)" fill="#b4b4b4"/><path d="M80.62,36.91h-.11l-3.22-.47A.71.71,0,1,1,77.5,35l3.22.47a.71.71,0,0,1-.1,1.42Z" transform="translate(-17.08 -7.31)" fill="#343434"/></svg>