<svg xmlns="http://www.w3.org/2000/svg" viewBox="0 0 93.45 64.46"><title>Hospital</title><g style="isolation:isolate"><g id="Layer_1" data-name="Layer 1"><rect x="63.65" y="13.89" width="27.78" height="50.57" fill="#d8dbd5"/><rect x="29.8" y="15.78" width="33.86" height="48.68" fill="#d0d7d4"/><polygon points="59.59 2.35 58.76 2.35 34.69 2.35 33.87 2.35 29.8 2.35 29.8 64.46 34.69 64.46 34.69 15.78 58.76 15.78 58.76 64.46 63.65 64.46 63.65 2.35 59.59 2.35" fill="#ebe9e2"/><g opacity="0.2" style="mix-blend-mode:multiply"><path d="M49.53,19.17A4.44,4.44,0,1,0,54,23.61,4.44,4.44,0,0,0,49.53,19.17Zm0,8.11a3.67,3.67,0,1,1,3.67-3.67A3.68,3.68,0,0,1,49.53,27.28Z" transform="translate(-3.15 -14.49)" fill="#404042"/><polygon points="47.13 6.94 45.63 6.94 45.63 8.37 44.2 8.37 44.2 9.87 45.63 9.87 45.63 11.29 47.13 11.29 47.13 9.87 48.55 9.87 48.55 8.37 47.13 8.37 47.13 6.94" fill="#404042"/></g><rect x="32.77" y="43.53" width="27.91" height="5.08" fill="#fff"/><rect x="32.77" y="61.61" width="27.91" height="1.43" fill="#cab9bb"/><rect x="32.77" y="62.47" width="27.91" height="0.56" fill="#404042" opacity="0.2" style="mix-blend-mode:multiply"/><rect x="32.13" y="63.03" width="29.2" height="1.43" fill="#cab9bb"/><rect x="32.77" y="46.28" width="27.91" height="1.15" fill="#52c3ef"/><rect x="34.05" y="48.61" width="2.26" height="13" fill="#cab9bb"/><rect x="57.13" y="48.61" width="2.26" height="13" fill="#cab9bb"/><polygon points="40.17 49.3 40.17 61.61 41.22 61.61 41.22 50.32 46.3 50.32 46.3 61.61 47.15 61.61 47.15 50.32 52.24 50.32 52.24 61.61 53.28 61.61 53.28 49.3 40.17 49.3" fill="#ebe9e2"/><rect x="32.13" y="63.9" width="29.2" height="0.56" fill="#404042" opacity="0.2" style="mix-blend-mode:multiply"/><rect x="41.22" y="50.32" width="5.09" height="11.29" fill="#70abd8"/><polygon points="41.22 50.32 41.22 51.56 45.02 51.56 45.02 61.61 46.3 61.61 46.3 50.32 41.22 50.32" fill="#fff" opacity="0.3" style="mix-blend-mode:overlay"/><path d="M46.91,69.07c0,.17-.23.3-.52.3s-.53-.13-.53-.3.24-.3.53-.3S46.91,68.91,46.91,69.07Z" transform="translate(-3.15 -14.49)" fill="#fff" opacity="0.3" style="mix-blend-mode:overlay"/><path d="M45.71,73.88c0,.16-.24.3-.53.3s-.53-.14-.53-.3.24-.3.53-.3S45.71,73.71,45.71,73.88Z" transform="translate(-3.15 -14.49)" fill="#fff" opacity="0.3" style="mix-blend-mode:overlay"/><rect x="47.15" y="50.32" width="5.09" height="11.29" fill="#70abd8"/><polygon points="47.15 50.32 47.15 51.56 50.95 51.56 50.95 61.61 52.23 61.61 52.23 50.32 47.15 50.32" fill="#fff" opacity="0.3" style="mix-blend-mode:overlay"/><path d="M52.85,69.07c0,.17-.24.3-.53.3s-.53-.13-.53-.3.24-.3.53-.3S52.85,68.91,52.85,69.07Z" transform="translate(-3.15 -14.49)" fill="#fff" opacity="0.3" style="mix-blend-mode:overlay"/><path d="M51.64,73.88c0,.16-.24.3-.53.3s-.53-.14-.53-.3.24-.3.53-.3S51.64,73.71,51.64,73.88Z" transform="translate(-3.15 -14.49)" fill="#fff" opacity="0.3" style="mix-blend-mode:overlay"/><rect x="29.08" y="1.45" width="35.39" height="0.91" fill="#4a97bf"/><rect x="28.49" width="36.58" height="1.45" fill="#52c3ef"/><rect x="63.65" y="12.98" width="28.4" height="0.91" fill="#4a97bf"/><rect x="63.65" y="11.53" width="28.99" height="1.45" fill="#52c3ef"/><rect x="68.25" y="18.27" width="5.97" height="8.68" fill="#70abd8"/><polygon points="68.25 18.27 68.25 19.7 72.76 19.7 72.76 26.95 74.22 26.95 74.22 18.27 68.25 18.27" fill="#fff" opacity="0.3" style="mix-blend-mode:overlay"/><path d="M77.38,32.33H71v9.56h6.86V32.33Zm0,9.12h-6V32.77h6Z" transform="translate(-3.15 -14.49)" fill="#fff"/><rect x="68.11" y="25.75" width="6.24" height="0.44" fill="#fff"/><path d="M74.92,36c0,.16-.24.29-.53.29s-.53-.13-.53-.29.24-.3.53-.3S74.92,35.86,74.92,36Z" transform="translate(-3.15 -14.49)" fill="#fff" opacity="0.3" style="mix-blend-mode:overlay"/><path d="M73.31,39.17c0,.17-.24.3-.53.3s-.53-.13-.53-.3.24-.3.53-.3S73.31,39,73.31,39.17Z" transform="translate(-3.15 -14.49)" fill="#fff" opacity="0.3" style="mix-blend-mode:overlay"/><rect x="67.53" y="27.39" width="7.41" height="0.86" fill="#ebe9e2"/><rect x="80.28" y="18.27" width="5.97" height="8.68" fill="#70abd8"/><polygon points="80.28 18.27 80.28 19.7 84.78 19.7 84.78 26.95 86.25 26.95 86.25 18.27 80.28 18.27" fill="#fff" opacity="0.3" style="mix-blend-mode:overlay"/><path d="M89.41,32.33H83v9.56h6.85V32.33Zm0,9.12h-6V32.77h6Z" transform="translate(-3.15 -14.49)" fill="#fff"/><rect x="80.14" y="25.75" width="6.24" height="0.44" fill="#fff"/><path d="M86.94,36c0,.16-.23.29-.52.29s-.53-.13-.53-.29.24-.3.53-.3S86.94,35.86,86.94,36Z" transform="translate(-3.15 -14.49)" fill="#fff" opacity="0.3" style="mix-blend-mode:overlay"/><path d="M85.33,39.17c0,.17-.23.3-.52.3s-.53-.13-.53-.3.24-.3.53-.3S85.33,39,85.33,39.17Z" transform="translate(-3.15 -14.49)" fill="#fff" opacity="0.3" style="mix-blend-mode:overlay"/><rect x="79.56" y="27.39" width="7.41" height="0.86" fill="#ebe9e2"/><rect x="68.25" y="33.24" width="5.97" height="8.68" fill="#70abd8"/><polygon points="68.25 33.24 68.25 34.67 72.76 34.67 72.76 41.92 74.22 41.92 74.22 33.24 68.25 33.24" fill="#fff" opacity="0.3" style="mix-blend-mode:overlay"/><path d="M77.38,47.29H71v9.56h6.86V47.29Zm0,9.12h-6V47.73h6Z" transform="translate(-3.15 -14.49)" fill="#fff"/><rect x="68.11" y="40.71" width="6.24" height="0.44" fill="#fff"/><path d="M74.92,51c0,.17-.24.3-.53.3s-.53-.13-.53-.3.24-.3.53-.3S74.92,50.83,74.92,51Z" transform="translate(-3.15 -14.49)" fill="#fff" opacity="0.3" style="mix-blend-mode:overlay"/><path d="M73.31,54.14c0,.16-.24.3-.53.3s-.53-.14-.53-.3.24-.3.53-.3S73.31,54,73.31,54.14Z" transform="translate(-3.15 -14.49)" fill="#fff" opacity="0.3" style="mix-blend-mode:overlay"/><rect x="67.53" y="42.36" width="7.41" height="0.86" fill="#ebe9e2"/><rect x="80.28" y="33.24" width="5.97" height="8.68" fill="#70abd8"/><polygon points="80.28 33.24 80.28 34.67 84.78 34.67 84.78 41.92 86.25 41.92 86.25 33.24 80.28 33.24" fill="#fff" opacity="0.3" style="mix-blend-mode:overlay"/><path d="M89.41,47.29H83v9.56h6.85V47.29Zm0,9.12h-6V47.73h6Z" transform="translate(-3.15 -14.49)" fill="#fff"/><rect x="80.14" y="40.71" width="6.24" height="0.44" fill="#fff"/><path d="M86.94,51c0,.17-.23.3-.52.3s-.53-.13-.53-.3.24-.3.53-.3S86.94,50.83,86.94,51Z" transform="translate(-3.15 -14.49)" fill="#fff" opacity="0.3" style="mix-blend-mode:overlay"/><path d="M85.33,54.14c0,.16-.23.3-.52.3s-.53-.14-.53-.3.24-.3.53-.3S85.33,54,85.33,54.14Z" transform="translate(-3.15 -14.49)" fill="#fff" opacity="0.3" style="mix-blend-mode:overlay"/><rect x="79.56" y="42.36" width="7.41" height="0.86" fill="#ebe9e2"/><rect x="68.25" y="48.4" width="5.97" height="8.68" fill="#70abd8"/><polygon points="68.25 48.4 68.25 49.83 72.76 49.83 72.76 57.08 74.22 57.08 74.22 48.4 68.25 48.4" fill="#fff" opacity="0.3" style="mix-blend-mode:overlay"/><path d="M77.38,62.46H71V72h6.86V62.46Zm0,9.11h-6V62.89h6Z" transform="translate(-3.15 -14.49)" fill="#fff"/><rect x="68.11" y="55.87" width="6.24" height="0.44" fill="#fff"/><path d="M74.92,66.15c0,.17-.24.3-.53.3s-.53-.13-.53-.3.24-.3.53-.3S74.92,66,74.92,66.15Z" transform="translate(-3.15 -14.49)" fill="#fff" opacity="0.3" style="mix-blend-mode:overlay"/><path d="M73.31,69.3c0,.16-.24.3-.53.3s-.53-.14-.53-.3.24-.3.53-.3S73.31,69.13,73.31,69.3Z" transform="translate(-3.15 -14.49)" fill="#fff" opacity="0.3" style="mix-blend-mode:overlay"/><rect x="67.53" y="57.52" width="7.41" height="0.86" fill="#ebe9e2"/><rect x="80.28" y="48.4" width="5.97" height="8.68" fill="#70abd8"/><polygon points="80.28 48.4 80.28 49.83 84.78 49.83 84.78 57.08 86.25 57.08 86.25 48.4 80.28 48.4" fill="#fff" opacity="0.3" style="mix-blend-mode:overlay"/><path d="M89.41,62.46H83V72h6.85V62.46Zm0,9.11h-6V62.89h6Z" transform="translate(-3.15 -14.49)" fill="#fff"/><rect x="80.14" y="55.87" width="6.24" height="0.44" fill="#fff"/><path d="M86.94,66.15c0,.17-.23.3-.52.3s-.53-.13-.53-.3.24-.3.53-.3S86.94,66,86.94,66.15Z" transform="translate(-3.15 -14.49)" fill="#fff" opacity="0.3" style="mix-blend-mode:overlay"/><path d="M85.33,69.3c0,.16-.23.3-.52.3s-.53-.14-.53-.3.24-.3.53-.3S85.33,69.13,85.33,69.3Z" transform="translate(-3.15 -14.49)" fill="#fff" opacity="0.3" style="mix-blend-mode:overlay"/><rect x="79.56" y="57.52" width="7.41" height="0.86" fill="#ebe9e2"/><rect x="34.05" y="61.05" width="2.26" height="0.56" fill="#404042" opacity="0.2" style="mix-blend-mode:multiply"/><rect x="34.05" y="48.63" width="2.26" height="1.27" fill="#404042" opacity="0.2" style="mix-blend-mode:multiply"/><rect x="57.13" y="48.63" width="2.26" height="1.27" fill="#404042" opacity="0.2" style="mix-blend-mode:multiply"/><rect x="63.65" y="63.19" width="2.01" height="1.27" fill="#404042" opacity="0.2" style="mix-blend-mode:multiply"/><rect x="57.13" y="61.05" width="2.26" height="0.56" fill="#404042" opacity="0.2" style="mix-blend-mode:multiply"/><rect x="61.32" y="63.9" width="2.33" height="0.56" fill="#404042" opacity="0.2" style="mix-blend-mode:multiply"/><rect x="36.32" y="48.61" width="20.82" height="7.49" fill="#404042" opacity="0.2" style="mix-blend-mode:multiply"/><path d="M38.4,53.6h.93v4.11H38.4V56H36.85v1.74h-.92V53.6h.92v1.58H38.4Z" transform="translate(-3.15 -14.49)" fill="#be2127"/><path d="M44,55.66a2.57,2.57,0,0,1-.15.92,2,2,0,0,1-.43.67,1.76,1.76,0,0,1-.65.41,2.38,2.38,0,0,1-1.61,0,1.93,1.93,0,0,1-.65-.41,2,2,0,0,1-.44-.67,2.56,2.56,0,0,1-.16-.92,2.41,2.41,0,0,1,.17-.93,1.88,1.88,0,0,1,.45-.67,1.64,1.64,0,0,1,.65-.41,2.27,2.27,0,0,1,1.57,0,1.75,1.75,0,0,1,.66.41,1.84,1.84,0,0,1,.43.67A2.42,2.42,0,0,1,44,55.66Zm-3.13,0a1.81,1.81,0,0,0,.07.54,1.2,1.2,0,0,0,.22.42.82.82,0,0,0,.34.27,1.08,1.08,0,0,0,.46.09,1.14,1.14,0,0,0,.46-.09.89.89,0,0,0,.34-.27,1.2,1.2,0,0,0,.22-.42,1.81,1.81,0,0,0,.07-.54,1.84,1.84,0,0,0-.07-.55,1.05,1.05,0,0,0-.22-.42.89.89,0,0,0-.34-.27,1,1,0,0,0-.46-.1,1.08,1.08,0,0,0-.46.1,1,1,0,0,0-.34.27,1.2,1.2,0,0,0-.22.42A1.93,1.93,0,0,0,40.82,55.66Z" transform="translate(-3.15 -14.49)" fill="#be2127"/><path d="M45.73,57a1.39,1.39,0,0,0,.32,0l.21-.09a.28.28,0,0,0,.1-.14.47.47,0,0,0,0-.17.39.39,0,0,0-.19-.33,2.4,2.4,0,0,0-.65-.29l-.4-.16a1.57,1.57,0,0,1-.37-.24,1,1,0,0,1-.36-.82,1.19,1.19,0,0,1,.11-.51,1.14,1.14,0,0,1,.3-.39,1.35,1.35,0,0,1,.48-.24,2,2,0,0,1,.63-.09,2.5,2.5,0,0,1,.71.09,2.77,2.77,0,0,1,.5.19l-.27.73a1.88,1.88,0,0,0-.38-.15A1.53,1.53,0,0,0,46,54.3a.9.9,0,0,0-.47.09.31.31,0,0,0-.15.28.29.29,0,0,0,.06.19.41.41,0,0,0,.15.14l.22.11.28.11a5.34,5.34,0,0,1,.56.23,1.75,1.75,0,0,1,.4.27,1.05,1.05,0,0,1,.23.36,1.52,1.52,0,0,1,.08.51,1.07,1.07,0,0,1-.41.89,1.94,1.94,0,0,1-1.21.32,2.43,2.43,0,0,1-.49,0,1.91,1.91,0,0,1-.39-.08,1.39,1.39,0,0,1-.29-.1l-.21-.1.26-.73a2.21,2.21,0,0,0,.46.18A2.48,2.48,0,0,0,45.73,57Z" transform="translate(-3.15 -14.49)" fill="#be2127"/><path d="M49.17,53.56a2.58,2.58,0,0,1,1.41.32,1.18,1.18,0,0,1,.5,1.06,1.2,1.2,0,0,1-.5,1.07,2.59,2.59,0,0,1-1.43.33h-.29v1.37h-.92V53.66a5.88,5.88,0,0,1,.64-.08Zm.06.79h-.37v1.19h.29a1.53,1.53,0,0,0,.73-.13.51.51,0,0,0,.24-.49.58.58,0,0,0-.06-.28.39.39,0,0,0-.18-.18.77.77,0,0,0-.28-.1Z" transform="translate(-3.15 -14.49)" fill="#be2127"/><path d="M51.76,53.6h.92v4.11h-.92Z" transform="translate(-3.15 -14.49)" fill="#be2127"/><path d="M56.68,53.6v.79H55.44v3.32h-.92V54.39H53.28V53.6Z" transform="translate(-3.15 -14.49)" fill="#be2127"/><path d="M59.54,57.71c0-.14-.09-.29-.14-.44s-.11-.3-.16-.45H57.63l-.15.46-.15.43h-1c.16-.44.3-.85.44-1.22s.28-.73.41-1.06.26-.65.39-1,.26-.59.4-.88h.88c.13.29.27.58.4.88l.4,1c.13.33.26.68.4,1.06s.29.78.44,1.22Zm-1.11-3.17-.09.24c0,.1-.08.22-.13.36s-.11.28-.17.44-.13.33-.2.51H59l-.18-.51-.17-.45-.14-.35A1.58,1.58,0,0,0,58.43,54.54Z" transform="translate(-3.15 -14.49)" fill="#be2127"/><path d="M63.81,56.92v.79H61.06V53.6H62v3.32Z" transform="translate(-3.15 -14.49)" fill="#be2127"/><polygon points="47.13 6.79 45.63 6.79 45.63 8.22 44.2 8.22 44.2 9.72 45.63 9.72 45.63 11.14 47.13 11.14 47.13 9.72 48.55 9.72 48.55 8.22 47.13 8.22 47.13 6.79" fill="#be2127"/><rect x="65.67" y="59.92" width="27.78" height="4.54" fill="#ebe9e2"/><path d="M96,74.42a1.85,1.85,0,0,0-1.6-1.37.88.88,0,0,0-.74-.64.62.62,0,0,0-.34.11,1.73,1.73,0,0,0-1.49-.89,1.82,1.82,0,0,0-1.71,1.42,1.69,1.69,0,0,0-.9-.27,1.67,1.67,0,0,0-1.05.38.69.69,0,0,0-.55-.31.63.63,0,0,0-.37.12,1.74,1.74,0,0,0-1.46-.85,1.65,1.65,0,0,0-1,.36.76.76,0,0,0-.63-.43.66.66,0,0,0-.49.24,1.7,1.7,0,0,0-1.33-.66,1.84,1.84,0,0,0-1.72,1.42,1.64,1.64,0,0,0-.9-.27,1.62,1.62,0,0,0-1,.38.71.71,0,0,0-.56-.31.6.6,0,0,0-.36.12,1.75,1.75,0,0,0-1.47-.85,1.63,1.63,0,0,0-1,.36.77.77,0,0,0-.64-.43.72.72,0,0,0-.59.37,1.66,1.66,0,0,0-1.8.54.66.66,0,0,0-.35-.11.86.86,0,0,0-.74.64,1.8,1.8,0,0,0-1.21.93Z" transform="translate(-3.15 -14.49)" fill="#76ac59"/><path d="M69.87,74.42H96a2.07,2.07,0,0,0-.24-.52H70.28A1.93,1.93,0,0,0,69.87,74.42Z" transform="translate(-3.15 -14.49)" fill="#404042" opacity="0.2" style="mix-blend-mode:multiply"/><rect x="29.8" y="2.35" width="33.86" height="0.91" fill="#404042" opacity="0.1" style="mix-blend-mode:multiply"/><rect x="63.65" y="13.89" width="27.78" height="0.91" fill="#404042" opacity="0.1" style="mix-blend-mode:multiply"/><rect x="65.67" y="63.9" width="27.78" height="0.56" fill="#404042" opacity="0.2" style="mix-blend-mode:multiply"/><rect x="2.01" y="13.89" width="27.78" height="50.57" fill="#d8dbd5"/><rect x="1.4" y="12.98" width="28.4" height="0.91" fill="#4a97bf"/><rect x="0.8" y="11.53" width="28.99" height="1.45" fill="#52c3ef"/><rect x="19.23" y="18.27" width="5.97" height="8.68" fill="#70abd8"/><polygon points="19.23 18.27 19.23 19.7 23.74 19.7 23.74 26.95 25.2 26.95 25.2 18.27 19.23 18.27" fill="#fff" opacity="0.3" style="mix-blend-mode:overlay"/><path d="M28.36,32.33H21.94v9.56H28.8V32.33Zm0,9.12h-6V32.77h6Z" transform="translate(-3.15 -14.49)" fill="#fff"/><rect x="19.09" y="25.75" width="6.24" height="0.44" fill="#fff"/><path d="M25.9,36c0,.16-.24.29-.53.29s-.53-.13-.53-.29.24-.3.53-.3S25.9,35.86,25.9,36Z" transform="translate(-3.15 -14.49)" fill="#fff" opacity="0.3" style="mix-blend-mode:overlay"/><path d="M24.29,39.17c0,.17-.24.3-.53.3s-.53-.13-.53-.3.24-.3.53-.3S24.29,39,24.29,39.17Z" transform="translate(-3.15 -14.49)" fill="#fff" opacity="0.3" style="mix-blend-mode:overlay"/><rect x="18.51" y="27.39" width="7.41" height="0.86" fill="#ebe9e2"/><rect x="37.15" y="29.08" width="4.86" height="6.99" fill="#70abd8"/><polygon points="37.15 29.08 37.15 30.51 40.55 30.51 40.55 36.08 42.01 36.08 42.01 29.08 37.15 29.08" fill="#fff" opacity="0.3" style="mix-blend-mode:overlay"/><path d="M45.17,43.14H39.86V51h5.75V43.14Zm0,7.43H40.3v-7h4.87Z" transform="translate(-3.15 -14.49)" fill="#fff"/><rect x="44.29" y="29.08" width="4.86" height="6.99" fill="#70abd8"/><polygon points="44.29 29.08 44.29 30.51 47.69 30.51 47.69 36.08 49.16 36.08 49.16 29.08 44.29 29.08" fill="#fff" opacity="0.3" style="mix-blend-mode:overlay"/><path d="M52.31,43.14H47V51h5.74V43.14Zm0,7.43H47.45v-7h4.86Z" transform="translate(-3.15 -14.49)" fill="#fff"/><rect x="51.44" y="29.08" width="4.86" height="6.99" fill="#70abd8"/><polygon points="51.44 29.08 51.44 30.51 54.84 30.51 54.84 36.08 56.3 36.08 56.3 29.08 51.44 29.08" fill="#fff" opacity="0.3" style="mix-blend-mode:overlay"/><path d="M59.46,43.14h-5.3V51H59.9V43.14Zm0,7.43H54.59v-7h4.87Z" transform="translate(-3.15 -14.49)" fill="#fff"/><rect x="19.23" y="33.24" width="5.97" height="8.68" fill="#70abd8"/><polygon points="19.23 33.24 19.23 34.67 23.74 34.67 23.74 41.92 25.2 41.92 25.2 33.24 19.23 33.24" fill="#fff" opacity="0.3" style="mix-blend-mode:overlay"/><path d="M28.36,47.29H21.94v9.56H28.8V47.29Zm0,9.12h-6V47.73h6Z" transform="translate(-3.15 -14.49)" fill="#fff"/><rect x="19.09" y="40.71" width="6.24" height="0.44" fill="#fff"/><path d="M25.9,51c0,.17-.24.3-.53.3s-.53-.13-.53-.3.24-.3.53-.3S25.9,50.83,25.9,51Z" transform="translate(-3.15 -14.49)" fill="#fff" opacity="0.3" style="mix-blend-mode:overlay"/><path d="M24.29,54.14c0,.16-.24.3-.53.3s-.53-.14-.53-.3.24-.3.53-.3S24.29,54,24.29,54.14Z" transform="translate(-3.15 -14.49)" fill="#fff" opacity="0.3" style="mix-blend-mode:overlay"/><rect x="18.51" y="42.36" width="7.41" height="0.86" fill="#ebe9e2"/><rect x="19.23" y="48.4" width="5.97" height="8.68" fill="#70abd8"/><polygon points="19.23 48.4 19.23 49.83 23.74 49.83 23.74 57.08 25.2 57.08 25.2 48.4 19.23 48.4" fill="#fff" opacity="0.3" style="mix-blend-mode:overlay"/><path d="M28.36,62.46H21.94V72H28.8V62.46Zm0,9.11h-6V62.89h6Z" transform="translate(-3.15 -14.49)" fill="#fff"/><rect x="19.09" y="55.87" width="6.24" height="0.44" fill="#fff"/><path d="M25.9,66.15c0,.17-.24.3-.53.3s-.53-.13-.53-.3.24-.3.53-.3S25.9,66,25.9,66.15Z" transform="translate(-3.15 -14.49)" fill="#fff" opacity="0.3" style="mix-blend-mode:overlay"/><path d="M24.29,69.3c0,.16-.24.3-.53.3s-.53-.14-.53-.3.24-.3.53-.3S24.29,69.13,24.29,69.3Z" transform="translate(-3.15 -14.49)" fill="#fff" opacity="0.3" style="mix-blend-mode:overlay"/><rect x="18.51" y="57.52" width="7.41" height="0.86" fill="#ebe9e2"/><rect x="7.2" y="18.27" width="5.97" height="8.68" fill="#70abd8"/><polygon points="7.2 18.27 7.2 19.7 11.71 19.7 11.71 26.95 13.18 26.95 13.18 18.27 7.2 18.27" fill="#fff" opacity="0.3" style="mix-blend-mode:overlay"/><path d="M16.33,32.33H9.92v9.56h6.85V32.33Zm0,9.12h-6V32.77h6Z" transform="translate(-3.15 -14.49)" fill="#fff"/><rect x="7.07" y="25.75" width="6.24" height="0.44" fill="#fff"/><path d="M13.87,36c0,.16-.24.29-.53.29s-.52-.13-.52-.29.23-.3.52-.3S13.87,35.86,13.87,36Z" transform="translate(-3.15 -14.49)" fill="#fff" opacity="0.3" style="mix-blend-mode:overlay"/><path d="M12.26,39.17c0,.17-.24.3-.53.3s-.52-.13-.52-.3.23-.3.52-.3S12.26,39,12.26,39.17Z" transform="translate(-3.15 -14.49)" fill="#fff" opacity="0.3" style="mix-blend-mode:overlay"/><rect x="6.48" y="27.39" width="7.41" height="0.86" fill="#ebe9e2"/><rect x="7.2" y="33.24" width="5.97" height="8.68" fill="#70abd8"/><polygon points="7.2 33.24 7.2 34.67 11.71 34.67 11.71 41.92 13.18 41.92 13.18 33.24 7.2 33.24" fill="#fff" opacity="0.3" style="mix-blend-mode:overlay"/><path d="M16.33,47.29H9.92v9.56h6.85V47.29Zm0,9.12h-6V47.73h6Z" transform="translate(-3.15 -14.49)" fill="#fff"/><rect x="7.07" y="40.71" width="6.24" height="0.44" fill="#fff"/><path d="M13.87,51c0,.17-.24.3-.53.3s-.52-.13-.52-.3.23-.3.52-.3S13.87,50.83,13.87,51Z" transform="translate(-3.15 -14.49)" fill="#fff" opacity="0.3" style="mix-blend-mode:overlay"/><path d="M12.26,54.14c0,.16-.24.3-.53.3s-.52-.14-.52-.3.23-.3.52-.3S12.26,54,12.26,54.14Z" transform="translate(-3.15 -14.49)" fill="#fff" opacity="0.3" style="mix-blend-mode:overlay"/><rect x="6.48" y="42.36" width="7.41" height="0.86" fill="#ebe9e2"/><rect x="7.2" y="48.4" width="5.97" height="8.68" fill="#70abd8"/><polygon points="7.2 48.4 7.2 49.83 11.71 49.83 11.71 57.08 13.18 57.08 13.18 48.4 7.2 48.4" fill="#fff" opacity="0.3" style="mix-blend-mode:overlay"/><path d="M16.33,62.46H9.92V72h6.85V62.46Zm0,9.11h-6V62.89h6Z" transform="translate(-3.15 -14.49)" fill="#fff"/><rect x="7.07" y="55.87" width="6.24" height="0.44" fill="#fff"/><path d="M13.87,66.15c0,.17-.24.3-.53.3s-.52-.13-.52-.3.23-.3.52-.3S13.87,66,13.87,66.15Z" transform="translate(-3.15 -14.49)" fill="#fff" opacity="0.3" style="mix-blend-mode:overlay"/><path d="M12.26,69.3c0,.16-.24.3-.53.3s-.52-.14-.52-.3.23-.3.52-.3S12.26,69.13,12.26,69.3Z" transform="translate(-3.15 -14.49)" fill="#fff" opacity="0.3" style="mix-blend-mode:overlay"/><rect x="6.48" y="57.52" width="7.41" height="0.86" fill="#ebe9e2"/><rect x="27.78" y="63.19" width="2.01" height="1.27" fill="#404042" opacity="0.2" style="mix-blend-mode:multiply"/><rect y="59.92" width="27.78" height="4.54" fill="#ebe9e2"/><path d="M3.81,74.42A1.83,1.83,0,0,1,5.4,73.05a.89.89,0,0,1,.74-.64.62.62,0,0,1,.34.11A1.74,1.74,0,0,1,8,71.63a1.82,1.82,0,0,1,1.71,1.42,1.7,1.7,0,0,1,.91-.27,1.66,1.66,0,0,1,1,.38.69.69,0,0,1,.55-.31.63.63,0,0,1,.37.12A1.74,1.74,0,0,1,14,72.12a1.65,1.65,0,0,1,1,.36.76.76,0,0,1,.63-.43.66.66,0,0,1,.49.24,1.7,1.7,0,0,1,1.33-.66,1.84,1.84,0,0,1,1.72,1.42,1.64,1.64,0,0,1,.9-.27,1.62,1.62,0,0,1,1,.38.71.71,0,0,1,.56-.31.6.6,0,0,1,.36.12,1.75,1.75,0,0,1,1.47-.85,1.63,1.63,0,0,1,1,.36.77.77,0,0,1,.64-.43.72.72,0,0,1,.59.37,1.66,1.66,0,0,1,1.8.54.66.66,0,0,1,.35-.11.86.86,0,0,1,.74.64,1.8,1.8,0,0,1,1.21.93Z" transform="translate(-3.15 -14.49)" fill="#76ac59"/><path d="M29.89,74.42H3.81A1.75,1.75,0,0,1,4,73.9H29.48A1.93,1.93,0,0,1,29.89,74.42Z" transform="translate(-3.15 -14.49)" fill="#404042" opacity="0.2" style="mix-blend-mode:multiply"/><rect x="2.01" y="13.89" width="27.78" height="0.91" fill="#404042" opacity="0.1" style="mix-blend-mode:multiply"/><rect y="63.9" width="27.78" height="0.56" fill="#404042" opacity="0.2" style="mix-blend-mode:multiply"/><rect x="34.69" y="15.78" width="24.06" height="1.28" fill="#404042" opacity="0.1" style="mix-blend-mode:multiply"/></g></g></svg>