<svg xmlns="http://www.w3.org/2000/svg" viewBox="0 0 100 100"><title>Icons</title><g style="isolation:isolate"><g id="Layer_1" data-name="Layer 1"><rect x="74.79" y="10.73" width="7.75" height="86.28" fill="#d7e4e6"/><polygon points="76.81 97.02 79.86 10.73 82.54 10.73 82.54 97.02 76.81 97.02" fill="#d7e4e6" opacity="0.8" style="mix-blend-mode:multiply"/><polygon points="79.24 97.02 81.23 10.73 82.54 10.73 82.54 97.02 79.24 97.02" fill="#d7e4e6" opacity="0.8" style="mix-blend-mode:multiply"/><polygon points="74.79 97.02 75.69 10.73 74.79 10.73 74.79 97.02" fill="#f1f9fc" opacity="0.5"/><polygon points="76.36 10.73 76.36 71.49 78.66 10.73 76.36 10.73" fill="#f1f9fc" opacity="0.2"/><rect x="34.4" y="10.73" width="19.44" height="86.28" fill="#c3ced0"/><rect x="53.84" y="10.73" width="0.76" height="86.28" fill="#7f8687"/><path d="M36.38,97c.09,0,17.46-76.2,17.46-76.2V97Z" fill="#c3ced0" opacity="0.5" style="mix-blend-mode:multiply"/><polygon points="40.55 97.02 53.84 57.08 53.84 97.02 40.55 97.02" fill="#c3ced0" opacity="0.5" style="mix-blend-mode:multiply"/><polygon points="37.77 12.28 36.38 86.39 50.48 25.99 51.77 12.28 37.77 12.28" fill="#e5eaeb" opacity="0.2"/><g opacity="0.5" style="mix-blend-mode:multiply"><rect x="53.84" y="10.73" width="0.38" height="86.28" fill="#7f8687"/></g><polygon points="35.78 10.73 37.17 97.02 34.4 97.02 34.4 10.73 35.78 10.73" fill="#c3ced0" opacity="0.8" style="mix-blend-mode:multiply"/><polygon points="34.4 10.73 34.4 97.02 35.95 97.02 35.08 10.73 34.4 10.73" fill="#c3ced0" opacity="0.8" style="mix-blend-mode:multiply"/><rect x="55.35" y="10.73" width="19.44" height="86.28" fill="#c3ced0"/><rect x="54.59" y="10.73" width="0.76" height="86.28" fill="#7f8687"/><path d="M57.32,97c.1,0,17.47-76.2,17.47-76.2V97Z" fill="#c3ced0" opacity="0.5" style="mix-blend-mode:multiply"/><polygon points="61.5 97.02 74.79 57.08 74.79 97.02 61.5 97.02" fill="#c3ced0" opacity="0.5" style="mix-blend-mode:multiply"/><polygon points="58.72 12.28 57.32 86.39 71.43 25.99 72.72 12.28 58.72 12.28" fill="#e5eaeb" opacity="0.2"/><g opacity="0.5" style="mix-blend-mode:multiply"><rect x="54.59" y="10.73" width="0.38" height="86.28" fill="#7f8687"/></g><polygon points="73.41 10.73 72.02 97.02 74.79 97.02 74.79 10.73 73.41 10.73" fill="#c3ced0" opacity="0.8" style="mix-blend-mode:multiply"/><polygon points="74.79 10.73 74.79 97.02 73.24 97.02 74.11 10.73 74.79 10.73" fill="#c3ced0" opacity="0.8" style="mix-blend-mode:multiply"/><rect x="26.65" y="2.98" width="55.88" height="7.75" fill="#d7e4e6"/><polygon points="26.65 8.4 82.54 5.62 82.54 10.73 26.65 10.73 26.65 8.4" fill="#d7e4e6" opacity="0.8" style="mix-blend-mode:multiply"/><polygon points="26.65 9.67 82.54 7.61 82.54 10.73 26.65 10.73 26.65 9.67" fill="#d7e4e6" opacity="0.8" style="mix-blend-mode:multiply"/><polygon points="26.65 10.73 27.41 3.68 82.54 2.98 26.65 2.98 26.65 10.73" fill="#f1f9fc" opacity="0.5"/><polygon points="28.08 4.28 27.56 7.61 78.66 3.98 28.08 4.28" fill="#f1f9fc" opacity="0.2"/><rect x="26.65" y="10.73" width="7.75" height="86.28" fill="#d7e4e6"/><polygon points="28.68 97.02 31.73 10.73 34.4 10.73 34.4 97.02 28.68 97.02" fill="#d7e4e6" opacity="0.8" style="mix-blend-mode:multiply"/><polygon points="31.11 97.02 33.1 10.73 34.4 10.73 34.4 97.02 31.11 97.02" fill="#d7e4e6" opacity="0.8" style="mix-blend-mode:multiply"/><polygon points="26.65 97.02 27.56 10.73 26.65 10.73 26.65 97.02" fill="#f1f9fc" opacity="0.5"/><polygon points="28.23 10.73 28.23 71.49 30.53 10.73 28.23 10.73" fill="#f1f9fc" opacity="0.2"/><rect x="17.75" y="48.72" width="6.46" height="10.88" rx="0.64" fill="#c3ced0" opacity="0.8" style="mix-blend-mode:multiply"/><rect x="17.59" y="48.56" width="6.46" height="10.88" rx="0.64" fill="#c3ced0" opacity="0.8" style="mix-blend-mode:multiply"/><rect x="17.46" y="48.44" width="6.46" height="10.88" rx="0.64" fill="#d7e4e6"/><path d="M18.56,59.31h4.27a1.09,1.09,0,0,0,1.09-1.09V49.53A1.1,1.1,0,0,0,23,48.45L18.3,59.28A1.09,1.09,0,0,0,18.56,59.31Z" fill="#d7e4e6" opacity="0.5" style="mix-blend-mode:multiply"/><path d="M19.44,59.31h3.39a1.09,1.09,0,0,0,1.09-1.09V53.45C22.6,55.2,20.27,58.27,19.44,59.31Z" fill="#d7e4e6" opacity="0.5" style="mix-blend-mode:multiply"/><path d="M17.61,58.41v-8.7a1.09,1.09,0,0,1,1.1-1.09H23a1.08,1.08,0,0,1,.77.32,1.11,1.11,0,0,0-.92-.5H18.56a1.09,1.09,0,0,0-1.1,1.09v8.69a1.11,1.11,0,0,0,.33.78A1.11,1.11,0,0,1,17.61,58.41Z" fill="#edf2f2" opacity="0.5"/><path d="M20.69,55.45a1.58,1.58,0,1,1,1.58-1.58A1.58,1.58,0,0,1,20.69,55.45Z" fill="#d7e4e6" style="mix-blend-mode:multiply"/><path d="M20.69,55.34a1.47,1.47,0,1,1,1.47-1.47A1.46,1.46,0,0,1,20.69,55.34Z" fill="#d7e4e6" style="mix-blend-mode:multiply"/><path d="M22.06,53.87a1.37,1.37,0,1,1-1.37-1.36A1.37,1.37,0,0,1,22.06,53.87Z" fill="#c3ced0"/><path d="M21.6,52.86s0,.08,0,.13a1.37,1.37,0,0,1-1.36,1.37,1.39,1.39,0,0,1-.91-.35,1.36,1.36,0,1,0,2.26-1.15Z" fill="#c3ced0" opacity="0.5" style="mix-blend-mode:multiply"/><path d="M21.79,53.07a1.32,1.32,0,0,1,.08.44,1.36,1.36,0,0,1-1.36,1.37,1.34,1.34,0,0,1-1.1-.56,1.36,1.36,0,0,0,2.65-.45A1.33,1.33,0,0,0,21.79,53.07Z" fill="#c3ced0" opacity="0.5" style="mix-blend-mode:multiply"/><path d="M19.37,53.94a1.37,1.37,0,0,1,2.49-.77,1.36,1.36,0,0,0-2.53.7,1.26,1.26,0,0,0,.24.77A1.27,1.27,0,0,1,19.37,53.94Z" fill="#e5eaeb" opacity="0.5"/><path d="M20.53,52.73a1.83,1.83,0,0,1,.47,0,.63.63,0,0,1,.27.06.23.23,0,0,1,.13.21l-.35.05a2,2,0,0,0-.35.06,1.76,1.76,0,0,0-.93.54.38.38,0,0,1-.16.12c-.2,0-.11-.17-.07-.25a1.48,1.48,0,0,1,.25-.35A1.37,1.37,0,0,1,20.53,52.73Z" fill="#e5eaeb" opacity="0.2"/><polygon points="26.65 11.18 34.4 11.95 34.4 10.73 26.65 10.73 26.65 11.18" fill="#d7e4e6" opacity="0.9" style="mix-blend-mode:multiply"/><polygon points="26.65 10.98 34.4 11.34 34.4 10.73 26.65 10.73 26.65 10.98" fill="#d7e4e6" opacity="0.9" style="mix-blend-mode:multiply"/><polygon points="82.54 11.18 74.79 11.95 74.79 10.73 82.54 10.73 82.54 11.18" fill="#d7e4e6" opacity="0.9" style="mix-blend-mode:multiply"/><polygon points="82.54 10.98 74.79 11.34 74.79 10.73 82.54 10.73 82.54 10.98" fill="#d7e4e6" opacity="0.9" style="mix-blend-mode:multiply"/><polygon points="34.4 13.15 74.79 16.95 74.79 10.73 34.4 10.73 34.4 13.15" fill="#c3ced0" opacity="0.8" style="mix-blend-mode:multiply"/><polygon points="34.4 11.95 74.79 14.26 74.79 10.73 34.4 10.73 34.4 11.95" fill="#c3ced0" opacity="0.8" style="mix-blend-mode:multiply"/></g></g></svg>