<svg xmlns="http://www.w3.org/2000/svg" viewBox="0 0 94.46 45.09"><title>Mall</title><g style="isolation:isolate"><g id="Layer_1" data-name="Layer 1"><polygon points="86.07 0.12 13.27 0.12 13.27 3.07 85.73 7.04 86.07 0.12" fill="#f9e0bb"/><polygon points="90.04 24.31 85.82 23.4 85.82 33.05 91.44 33.05 90.04 24.31" fill="#b8dfe1"/><rect x="91.4" y="48.39" width="0.25" height="8.2" transform="translate(-8.82 -10.69) rotate(-7.64)" fill="#9dc9c9"/><polygon points="90.12 25.67 87.05 27.53 87.01 25.67 90.12 25.67" fill="#9dc9c9"/><polygon points="91.27 37.5 84.67 36.73 84.91 44.41 90.53 44.41 91.27 37.5" fill="#c6e5e7"/><polygon points="89.78 37.49 89.54 37.44 88.62 42.86 88.86 42.91 89.78 37.49" fill="#9dc9c9"/><polygon points="8.61 23.4 1.68 24.65 2.99 33.05 8.61 33.05 8.61 23.4" fill="#c6e5e7"/><rect x="6.78" y="49.19" width="0.25" height="8.2" transform="translate(-9.67 -21.93) rotate(-7.64)" fill="#9dc9c9"/><polygon points="4.97 27.37 1.57 24.69 5.05 24.65 4.97 27.37" fill="#9dc9c9"/><polygon points="8.15 35.1 3.27 37.14 2.53 44.75 8.15 44.75 8.15 35.1" fill="#c6e5e7"/><polygon points="5.78 37.49 5.54 37.44 4.62 42.86 4.86 42.91 5.78 37.49" fill="#9dc9c9"/><polygon points="6.17 38.45 3.04 37.1 6.52 36.89 6.17 38.45" fill="#9dc9c9"/><polygon points="87.18 23.47 4.29 23.51 6.26 44.81 89.01 44.81 87.18 23.47" fill="#9dc9c9"/><rect x="38.73" y="37.18" width="12.7" height="6.74" fill="#689999"/><rect x="69.21" y="37.05" width="0.58" height="6.62" fill="#689999"/><rect x="59.07" y="37.05" width="0.58" height="6.62" fill="#689999"/><rect x="49.91" y="37.05" width="0.58" height="6.62" fill="#689999"/><rect x="40.06" y="37.05" width="0.58" height="6.62" fill="#689999"/><rect x="30.07" y="37.05" width="0.58" height="6.62" fill="#689999"/><rect x="19.92" y="37.05" width="0.58" height="6.62" fill="#689999"/><rect x="10.61" y="37.05" width="0.58" height="6.62" fill="#689999"/><rect x="79.38" y="37.05" width="0.58" height="6.62" fill="#689999"/><rect x="69.21" y="25.23" width="0.58" height="8.2" fill="#689999"/><rect x="59.07" y="25.23" width="0.58" height="8.2" fill="#689999"/><rect x="49.91" y="25.23" width="0.58" height="8.2" fill="#689999"/><rect x="40.06" y="25.23" width="0.58" height="8.2" fill="#689999"/><rect x="30.07" y="25.23" width="0.58" height="8.2" fill="#689999"/><rect x="19.92" y="25.23" width="0.58" height="8.2" fill="#689999"/><rect x="10.61" y="25.23" width="0.58" height="8.2" fill="#689999"/><rect x="79.38" y="25.23" width="0.58" height="8.2" fill="#689999"/><polygon points="87.18 21.64 4.18 21.64 4.63 26.92 87.54 27.64 87.18 21.64" fill="#a08157" opacity="0.6" style="mix-blend-mode:multiply"/><polygon points="88.07 33.23 5.09 33.47 5.77 39.33 88.6 39.33 88.07 33.23" fill="#a08157" opacity="0.6" style="mix-blend-mode:multiply"/><polygon points="91.41 36.69 18.6 36.23 2.99 37.2 6.22 37.71 91.22 37.73 91.41 36.69" fill="#ad804e"/><polygon points="90.42 24.65 16.13 22.41 1.64 24.61 4.56 25.59 90.42 25.67 90.42 24.65" fill="#b63c55"/><polygon points="5.88 32.03 15.67 24.85 24.55 24.85 18.63 32.03 5.88 32.03" fill="#bad8d6" opacity="0.6" style="mix-blend-mode:overlay"/><polygon points="49.91 32.31 59.7 25.14 68.58 25.14 62.66 32.31 49.91 32.31" fill="#bad8d6" opacity="0.6" style="mix-blend-mode:overlay"/><polygon points="60.53 42.88 69.41 37.23 78.29 37.23 73.28 42.88 60.53 42.88" fill="#bad8d6" opacity="0.6" style="mix-blend-mode:overlay"/><polygon points="19.25 42.88 28.13 37.23 37 37.23 31.99 42.88 19.25 42.88" fill="#bad8d6" opacity="0.6" style="mix-blend-mode:overlay"/><rect x="80.89" y="24.01" width="0.28" height="8.78" fill="#f9e0bb"/><rect x="70.55" y="24.01" width="0.28" height="8.78" fill="#f9e0bb"/><rect x="58.02" y="24.01" width="4.65" height="8.78" fill="#f9e0bb"/><rect x="49.86" y="24.01" width="0.28" height="8.78" fill="#f9e0bb"/><rect x="29.48" y="24.01" width="33.07" height="8.78" fill="#ffec77"/><rect x="29.17" y="24.01" width="0.28" height="8.78" fill="#f9e0bb"/><rect x="18.83" y="24.01" width="0.28" height="8.78" fill="#f9e0bb"/><rect x="8.49" y="24.01" width="0.28" height="8.78" fill="#f9e0bb"/><rect x="80.89" y="36.06" width="0.28" height="7.09" fill="#b63c55"/><rect x="70.55" y="36.06" width="0.28" height="7.09" fill="#b63c55"/><rect x="60.2" y="36.06" width="0.28" height="7.09" fill="#b63c55"/><rect x="49.86" y="36.06" width="0.28" height="7.09" fill="#f9e0bb"/><rect x="39.52" y="36.06" width="0.28" height="7.09" fill="#f9e0bb"/><rect x="29.17" y="36.06" width="0.28" height="7.09" fill="#b63c55"/><rect x="18.83" y="36.06" width="0.28" height="7.09" fill="#b63c55"/><rect x="8.49" y="36.06" width="0.28" height="7.09" fill="#b63c55"/><polygon points="90.68 42.93 2.71 42.93 2.36 44.3 90.68 44.3 90.68 42.93" fill="#b63c55"/><rect x="39.46" y="37.18" width="11.22" height="7.12" fill="#fecd53"/><rect x="40.16" y="37.74" width="9.82" height="6.54" fill="#689999"/><rect x="40.56" y="38.85" width="8.88" height="5.31" fill="#9dc9c9"/><rect x="44.78" y="38.62" width="0.68" height="5.74" fill="#689999"/><rect x="45.07" y="37.44" width="0.17" height="6.92" fill="#fecd53"/><rect y="44.16" width="93.71" height="0.93" fill="#ffe9b4"/><polygon points="93.75 4.57 1.57 0 1.57 24.69 90.61 25.3 93.75 4.57" fill="#ee748c"/><polygon points="93.18 19.73 3.35 19.73 3.37 19.95 93.14 19.95 93.18 19.73" fill="#e25677"/><polygon points="93.13 8.6 1.23 8.6 1.25 8.82 93.09 8.82 93.13 8.6" fill="#e25677"/><polygon points="28.6 3.98 1.57 3.98 1.57 22.49 26.21 22.49 28.6 3.98" fill="#b63c55"/><rect x="0.2" y="18.59" width="27.37" height="2.13" fill="#ee748c"/><rect x="0.2" y="14.61" width="27.37" height="2.13" fill="#ee748c"/><rect x="0.2" y="10.41" width="30.1" height="2.13" fill="#ee748c"/><rect x="0.2" y="5.87" width="30.1" height="2.13" fill="#ee748c"/><polygon points="81.88 6.14 93.47 6.14 90.75 23.4 80.17 23.4 81.88 6.14" fill="#b63c55"/><polygon points="79.19 19.76 92.36 19.76 92.01 21.75 78.84 21.75 79.19 19.76" fill="#ee748c"/><polygon points="79.84 16.05 93.02 16.05 92.66 18.04 79.49 18.04 79.84 16.05" fill="#ee748c"/><polygon points="79.23 12.13 93.71 12.13 93.36 14.12 78.88 14.12 79.23 12.13" fill="#ee748c"/><polygon points="79.98 7.9 94.46 7.9 94.11 9.88 79.63 9.88 79.98 7.9" fill="#ee748c"/><path d="M35.13,35.92V34.39h4.58v.76l-.33.77h-1v4.55h-2V35.92Z" transform="translate(-2.65 -23.32)" fill="#fff2e1"/><path d="M43,36.6V34.39h2v6.08H43V38.12h-.82v2.35h-2V34.39h2V36.6Z" transform="translate(-2.65 -23.32)" fill="#fff2e1"/><path d="M45.82,40.47V34.39h4.37v.76l-.32.77h-2v.68h2v1.52h-2V39h2.33v1.52Z" transform="translate(-2.65 -23.32)" fill="#fff2e1"/><path d="M57.3,37.56h-.15v2.91h-2v-.75l.67-5.33H58.1l.49,2.4h.14l.5-2.4h2.29l.66,5.33v.75h-2V37.56H60l-.5,2.91H57.81Z" transform="translate(-2.65 -23.32)" fill="#fff2e1"/><path d="M66.87,34.39l.92,5.33v.75H65.74l-.12-1.22h-.9l-.13,1.22h-2v-.75l.91-5.33Zm-1.4,3.34-.19-1.81h-.22l-.19,1.81Z" transform="translate(-2.65 -23.32)" fill="#fff2e1"/><path d="M68.35,34.39h2V39h2v1.52H68.35Z" transform="translate(-2.65 -23.32)" fill="#fff2e1"/><path d="M72.91,34.39h2V39h2v1.52H72.91Z" transform="translate(-2.65 -23.32)" fill="#fff2e1"/><polygon points="91.62 32.62 2.87 32.01 2.87 37.19 91.41 37.25 91.62 32.62" fill="#fecd53"/><polygon points="91.62 32.17 2.87 32.01 2.87 33.38 91.41 33.39 91.62 32.17" fill="#ffec77"/><rect x="40.18" y="36.29" width="4.83" height="1.14" fill="#4d7876"/><rect x="45.32" y="36.29" width="4.46" height="1.14" fill="#4d7876"/><rect x="40.18" y="36.76" width="4.83" height="0.66" fill="#689999"/><rect x="45.32" y="36.76" width="4.46" height="0.66" fill="#689999"/><rect x="41.43" y="41.23" width="2.16" height="0.62" fill="#cee8e7"/><rect x="46.37" y="41.23" width="2.04" height="0.62" fill="#cee8e7"/></g></g></svg>