<svg id="Layer_1" data-name="Layer 1" xmlns="http://www.w3.org/2000/svg" viewBox="0 0 57.01 92.25"><title>Park</title><path d="M71.45,33.19c0,16.24-21.1,29.4-21.1,29.4s-21.1-13.16-21.1-29.4S50.35,3.8,50.35,3.8,71.45,17,71.45,33.19Z" transform="translate(-21.5 -3.8)" fill="#64b448"/><path d="M50.35,3.8V62.59s21.1-13.16,21.1-29.4S50.35,3.8,50.35,3.8Z" transform="translate(-21.5 -3.8)" fill="#3fab35"/><path d="M73.69,61.67C66.07,69.3,50,65.58,50,65.58s-3.72-16.09,3.9-23.72S77.59,38,77.59,38,81.32,54.05,73.69,61.67Z" transform="translate(-21.5 -3.8)" fill="#3fab35"/><path d="M26.31,61.67C33.94,69.3,50,65.58,50,65.58s3.73-16.09-3.9-23.72S22.41,38,22.41,38,18.68,54.05,26.31,61.67Z" transform="translate(-21.5 -3.8)" fill="#64b448"/><path d="M50.35,93a2,2,0,0,1-2-2V35.85a2,2,0,0,1,4.07,0V91A2,2,0,0,1,50.35,93Z" transform="translate(-21.5 -3.8)" fill="#8c5f3d"/><path d="M37.69,96.05H63a14.57,14.57,0,0,0-25.32,0Z" transform="translate(-21.5 -3.8)" fill="#8fc045"/><path d="M50.35,62.57A2,2,0,0,1,49,62L39.12,53a2,2,0,1,1,2.75-3l9.86,9a2,2,0,0,1-1.38,3.53Z" transform="translate(-21.5 -3.8)" fill="#8c5f3d"/><path d="M50.35,54.08A2,2,0,0,1,49,50.55l9.86-9.06a2,2,0,0,1,2.75,3l-9.86,9A2,2,0,0,1,50.35,54.08Z" transform="translate(-21.5 -3.8)" fill="#8c5f3d"/></svg>