<svg xmlns="http://www.w3.org/2000/svg" viewBox="0 0 100 100"><title>Icons</title><g style="isolation:isolate"><g id="Layer_1" data-name="Layer 1"><path d="M67.36,58.47h2.58a1.75,1.75,0,0,1,1.75,1.75v10.9a1.75,1.75,0,0,1-1.75,1.75H67.36a1.75,1.75,0,0,1-1.75-1.75V60.22A1.75,1.75,0,0,1,67.36,58.47Z" fill="#4b484b"/><path d="M30,58.47h2.58a1.75,1.75,0,0,1,1.75,1.75v10.9a1.75,1.75,0,0,1-1.75,1.75H30a1.75,1.75,0,0,1-1.75-1.75V60.22A1.75,1.75,0,0,1,30,58.47Z" fill="#4b484b"/><path d="M69.91,46.23c-2.12-.53-1.8,1.59-1.8,1.59l-.52,0-3.34-6.26a3.12,3.12,0,0,0-1.68-1.26C61.78,39.58,56.77,39,50,39c-6,0-10.44.44-12.09,1a3.35,3.35,0,0,0-2.13,1.52l-3.36,6.26-.53,0s.32-2.12-1.8-1.59S27,48,27.34,49c.26.77,3.11.64,4.17.56l0,.06a6.68,6.68,0,0,0-3.41,6.18v9.35H71.94V55.78a6.82,6.82,0,0,0-3.41-6.18l0-.06c1.07.08,3.9.21,4.16-.56C73,48,72,46.76,69.91,46.23Z" fill="#bdbbb8"/><path d="M32.77,48.68,36,42.07a3.89,3.89,0,0,1,3-1.72H61a3.91,3.91,0,0,1,3,1.72l3.21,6.61c.25.51,0,.92-.62.92H33.39C32.79,49.6,32.52,49.19,32.77,48.68Z" fill="#313131"/><path d="M33.39,49.09a.28.28,0,0,1-.18,0,.48.48,0,0,1,0-.16l3.22-6.61A3.4,3.4,0,0,1,39,40.86H61a3.42,3.42,0,0,1,2.54,1.45l3.2,6.58c0,.1,0,.16,0,.17a.36.36,0,0,1-.17,0Z" fill="#010101"/><path d="M63.18,62.77l-1.36,1.09H38L36.6,62.77H28.07c0,.68,0,2.62,0,2.62,0,.84,1.63,1.53,3.64,1.53H68.29c2,0,3.65-.69,3.65-1.53s0-2,0-2.62Z" fill="#262529"/><path d="M59.59,64.23H40.42c-.91,0-1-.63-1.18-1.41s.33-1.42,1.24-1.42h19c.92,0,1.47.63,1.25,1.42S60.5,64.23,59.59,64.23Z" fill="#262529"/><path d="M66.13,59.05c-.43-.45-1.27-.54-2.59-.68l-1.33-.15a4.17,4.17,0,0,1-2.29-1.47c2.34-.57,8.64-2.11,10-2.3l.2,0c.19,0,.31,0,.36.14A3.9,3.9,0,0,1,70,57c-.43.91-2.93,2.08-3.86,2.08Z" fill="#fff"/><path d="M33.88,59.05c.43-.45,1.27-.54,2.59-.68l1.33-.15a4.17,4.17,0,0,0,2.29-1.47c-2.34-.57-8.64-2.11-10.06-2.3l-.19,0c-.19,0-.32,0-.36.14A3.82,3.82,0,0,0,30,57c.43.91,2.93,2.08,3.86,2.08Z" fill="#fff"/><g style="mix-blend-mode:multiply"><path d="M45.66,58.56a2.39,2.39,0,0,1-2.37-1.81,1.31,1.31,0,0,1,.31-1.08A1.86,1.86,0,0,1,45,55.09H55a1.86,1.86,0,0,1,1.42.58,1.31,1.31,0,0,1,.31,1.08,2.38,2.38,0,0,1-2.36,1.81Z" fill="#b1b0ad"/></g><path d="M71.94,61.36H70.8a.53.53,0,0,0,0,1.06h1.14Z" fill="#f07f1a"/><path d="M28.07,61.36h1.14a.53.53,0,0,1,0,1.06H28.07Z" fill="#f07f1a"/><rect x="18.12" y="78.9" width="65.53" height="5.03" fill="#f3931b"/><polygon points="82.02 39.81 50 21.84 17.98 39.81 15.51 35.42 50 16.07 84.49 35.42 82.02 39.81" fill="#f3931b"/></g></g></svg>