<svg id="Layer_1" data-name="Layer 1" xmlns="http://www.w3.org/2000/svg" viewBox="0 0 87.32 85.77"><title>PowerBackup</title><path d="M91.37,92.88a2.28,2.28,0,0,1-1.89-1l-14-20.67L64.93,91.65a2.3,2.3,0,0,1-2,1.23H50.35a2.28,2.28,0,0,1-2.28-2.29V71.17a2.29,2.29,0,1,1,4.57,0V88.31H61.5L73.18,65.68a2.3,2.3,0,0,1,1.9-1.23,2.24,2.24,0,0,1,2,1l12,17.69V11.69H10.92V88.31h15.4a2.29,2.29,0,1,1,0,4.57H8.63a2.28,2.28,0,0,1-2.29-2.29V9.41A2.28,2.28,0,0,1,8.63,7.12H91.37a2.28,2.28,0,0,1,2.29,2.29V90.59A2.29,2.29,0,0,1,92,92.78,2.18,2.18,0,0,1,91.37,92.88Z" transform="translate(-6.34 -7.12)" fill="#f49817"/><rect x="32.28" y="11.77" width="4.73" height="19.12" fill="#908f8b"/><rect x="51.02" y="11.77" width="4.73" height="19.12" fill="#908f8b"/><path d="M31.52,38V54.59c0,9.15,8.43,16.58,18.83,16.58V38Z" transform="translate(-6.34 -7.12)" fill="#9b7f56"/><path d="M50.35,38V71.17c10.41,0,18.84-7.43,18.84-16.58V38Z" transform="translate(-6.34 -7.12)" fill="#7b5227"/></svg>