<svg xmlns="http://www.w3.org/2000/svg" viewBox="0 0 91.77 84.07"><title>Railway Station</title><g style="isolation:isolate"><g id="Layer_1" data-name="Layer 1"><path d="M58,83.31H85.67v-.48L57.39,81.32A14.63,14.63,0,0,1,58,83.31Z" transform="translate(-3.73 -11.67)" fill="#828383"/><path d="M58,82.83H85.67a29.79,29.79,0,0,0-2.24-2h-26A14.86,14.86,0,0,1,58,82.83Z" transform="translate(-3.73 -11.67)" fill="#939393"/><path d="M58.47,86.65H88.68v-.47L58.15,84.29C58.27,85,58.38,85.76,58.47,86.65Z" transform="translate(-3.73 -11.67)" fill="#828383"/><path d="M58.47,86.18H88.68c-.68-.87-1.37-1.66-2-2.36H58.15C58.27,84.51,58.38,85.29,58.47,86.18Z" transform="translate(-3.73 -11.67)" fill="#939393"/><path d="M58.7,90.6H91.24v-.47L58.56,87.75C58.63,88.61,58.68,89.56,58.7,90.6Z" transform="translate(-3.73 -11.67)" fill="#828383"/><path d="M58.7,90.13H91.24a24.89,24.89,0,0,0-1.75-2.85H58.56C58.63,88.14,58.68,89.09,58.7,90.13Z" transform="translate(-3.73 -11.67)" fill="#939393"/><path d="M58.66,94.79H93A20.59,20.59,0,0,0,91.9,91.5H58.72C58.72,92.52,58.7,93.61,58.66,94.79Z" transform="translate(-3.73 -11.67)" fill="#939393"/><path d="M58.63,95.18H93l0-.39L58.69,91.88C58.69,92.9,58.67,94,58.63,95.18Z" transform="translate(-3.73 -11.67)" fill="#828383"/><path d="M58.63,94.79H93a19.65,19.65,0,0,0-1.14-3.29H58.69C58.69,92.52,58.67,93.61,58.63,94.79Z" transform="translate(-3.73 -11.67)" fill="#939393"/><path d="M58.85,80.22s2.09,5.09,1.8,15.52h1.56V93.15s-.92-12.39-3.58-13.37C56.94,79.44,58.85,80.22,58.85,80.22Z" transform="translate(-3.73 -11.67)" fill="#828383"/><path d="M59.1,80.88c0,.13.1.27.16.41s.09.29.14.45l.3,1c.12.35.19.75.29,1.15s.2.81.27,1.24.15.86.22,1.29.11.87.16,1.3.08.86.11,1.27.06.81.06,1.19,0,.73,0,1.06c0,.66,0,1.21,0,1.59,0,.13,0,.23,0,.32h1.4a2.26,2.26,0,0,0,0-.27c0-.4,0-1,0-1.65,0-.35,0-.72,0-1.11s-.06-.81-.09-1.23S62,88,61.94,87.57s-.12-.9-.19-1.35-.17-.9-.26-1.34-.19-.87-.3-1.29-.19-.82-.32-1.2-.24-.73-.35-1.06c-.06-.17-.11-.33-.16-.48s-.11-.27-.16-.4l-.27-.66c-.14-.36-.23-.57-.23-.57l-1.07.43.22.57C58.92,80.4,59,80.63,59.1,80.88Z" transform="translate(-3.73 -11.67)" fill="#aeadad"/><path d="M80.81,81.34s7,6.1,8.86,14.4h1.57V93.15s-6.87-11.24-9.53-12.21C80,80.59,80.81,81.34,80.81,81.34Z" transform="translate(-3.73 -11.67)" fill="#828383"/><path d="M82.59,82.11l.35.32.34.38.78.84c.28.29.53.65.81,1a13.81,13.81,0,0,1,.84,1.1c.27.38.55.77.82,1.17l.75,1.21c.25.4.46.81.68,1.21s.43.77.6,1.14l.48,1q.24.5.39.9c.11.27.2.51.28.7v0h1.52c0-.1-.12-.28-.24-.54s-.19-.44-.31-.72-.26-.59-.43-.92l-.54-1.08c-.19-.38-.43-.76-.66-1.17s-.46-.82-.74-1.23-.53-.82-.81-1.24l-.88-1.19c-.28-.4-.6-.76-.9-1.11s-.58-.71-.89-1L84,82.06c-.14-.13-.26-.26-.38-.38l-.35-.31-.58-.51-.5-.45-.65.71.49.46C82.19,81.72,82.38,81.9,82.59,82.11Z" transform="translate(-3.73 -11.67)" fill="#aeadad"/><path d="M3.73,57.16S44.89,67.56,46.9,85.55c2.8,5,39,3.17,38.77-.8s-2.81-4.16-9.15-8.08S6.26,57,5.77,57,3.73,57.16,3.73,57.16Z" transform="translate(-3.73 -11.67)" fill="#676767" opacity="0.8" style="mix-blend-mode:multiply"/><rect x="3.55" y="39.44" width="0.45" height="6.68" fill="#232323"/><polyline points="3.55 39.44 1.1 40.8 1.1 45.19 3.55 46.12" fill="#e2e1e1"/><polygon points="1.1 44.74 1.1 45.38 3.55 46.12 3.55 45.16 1.1 44.74" fill="#aeadad"/><polyline points="3.55 39.44 1.1 40.8 1.1 42.19 3.55 41.51" fill="#35786d"/><polygon points="1.44 40.88 1.16 41.01 1.16 41.98 1.44 41.89 1.44 40.88" fill="#232323"/><polygon points="1.58 40.82 1.58 41.83 1.9 41.72 1.9 40.67 1.58 40.82" fill="#232323"/><polygon points="2.08 40.59 2.08 41.66 2.43 41.54 2.43 40.42 2.08 40.59" fill="#232323"/><polygon points="2.6 40.34 2.6 41.48 2.95 41.36 2.95 40.18 2.6 40.34" fill="#232323"/><polygon points="3.1 40.11 3.1 41.31 3.45 41.19 3.45 39.95 3.1 40.11" fill="#232323"/><polygon points="3.55 44.96 1.1 44.74 1.1 44.96 3.55 45.49 3.55 44.96" fill="#525252"/><polygon points="3.55 44.8 1.1 44.58 1.1 44.9 3.55 45.38 3.55 44.8" fill="#35786d"/><rect x="7.22" y="37.42" width="0.65" height="9.79" fill="#232323"/><polyline points="7.22 37.42 3.63 39.41 3.63 45.85 7.22 47.21" fill="#e2e1e1"/><polygon points="3.63 45.19 3.63 46.13 7.22 47.21 7.22 45.8 3.63 45.19" fill="#aeadad"/><polyline points="7.22 37.42 3.63 39.41 3.63 41.46 7.22 40.45" fill="#35786d"/><polygon points="4.13 39.53 3.72 39.72 3.72 41.15 4.13 41.01 4.13 39.53" fill="#232323"/><polygon points="4.34 39.44 4.34 40.93 4.8 40.77 4.8 39.23 4.34 39.44" fill="#232323"/><polygon points="5.06 39.1 5.06 40.68 5.57 40.5 5.57 38.87 5.06 39.1" fill="#232323"/><polygon points="5.83 38.75 5.83 40.42 6.34 40.24 6.34 38.51 5.83 38.75" fill="#232323"/><polygon points="6.56 38.4 6.56 40.16 7.08 39.99 7.08 38.16 6.56 38.4" fill="#232323"/><polygon points="3.63 45.51 7.22 46.29 7.22 45.28 3.63 44.96 3.63 45.51" fill="#525252"/><polygon points="3.63 45.39 7.22 46.09 7.22 45.12 3.63 44.81 3.63 45.39" fill="#35786d"/><rect x="12.73" y="34.34" width="0.97" height="14.56" fill="#232323"/><polyline points="12.73 34.34 7.38 37.3 7.38 46.88 12.73 48.9" fill="#e2e1e1"/><polygon points="7.38 45.89 7.38 47.29 12.73 48.9 12.73 46.81 7.38 45.89" fill="#aeadad"/><polyline points="12.73 34.34 7.38 37.3 7.38 40.34 12.73 38.85" fill="#35786d"/><polygon points="8.13 37.48 7.52 37.76 7.52 39.88 8.13 39.68 8.13 37.48" fill="#232323"/><polygon points="8.44 37.35 8.44 39.55 9.13 39.32 9.13 37.02 8.44 37.35" fill="#232323"/><polygon points="9.52 36.84 9.52 39.18 10.28 38.92 10.28 36.49 9.52 36.84" fill="#232323"/><polygon points="10.66 36.31 10.66 38.8 11.42 38.53 11.42 35.96 10.66 36.31" fill="#232323"/><polygon points="11.76 35.8 11.76 38.42 12.52 38.16 12.52 35.45 11.76 35.8" fill="#232323"/><polygon points="7.38 46.32 12.73 47.48 12.73 45.78 7.38 45.3 7.38 46.32" fill="#525252"/><polygon points="7.38 46.13 12.73 47.17 12.73 45.6 7.38 45.13 7.38 46.13" fill="#35786d"/><rect x="20.85" y="29.78" width="1.44" height="21.55" fill="#232323"/><polyline points="20.85 29.78 12.95 34.16 12.95 48.34 20.85 51.33" fill="#e2e1e1"/><polygon points="12.95 46.88 12.95 48.95 20.85 51.33 20.85 48.24 12.95 46.88" fill="#aeadad"/><polyline points="20.85 29.78 12.95 34.16 12.95 38.67 20.85 36.46" fill="#35786d"/><polygon points="14.05 34.43 13.15 34.85 13.15 37.99 14.05 37.68 14.05 34.43" fill="#232323"/><polygon points="14.51 34.24 14.51 37.5 15.54 37.15 15.54 33.76 14.51 34.24" fill="#232323"/><polygon points="16.11 33.49 16.11 36.95 17.24 36.57 17.24 32.96 16.11 33.49" fill="#232323"/><polygon points="17.79 32.71 17.79 36.38 18.91 35.99 18.91 32.18 17.79 32.71" fill="#232323"/><polygon points="19.41 31.95 19.41 35.82 20.54 35.44 20.54 31.42 19.41 31.95" fill="#232323"/><polygon points="12.95 47.53 20.85 49.24 20.85 46.5 12.95 45.8 12.95 47.53" fill="#525252"/><polygon points="12.95 47.21 20.85 48.76 20.85 46.31 12.95 45.62 12.95 47.21" fill="#35786d"/><rect x="33.42" y="22.79" width="2.22" height="33.33" fill="#232323"/><polyline points="33.42 22.79 21.19 29.57 21.19 51.49 33.42 56.12" fill="#e2e1e1"/><polygon points="21.19 47.47 21.19 51.49 33.42 56.12 33.42 47.27 21.19 47.47" fill="#aeadad"/><polygon points="21.19 49.31 33.42 51.97 33.42 47.63 21.19 46.53 21.19 49.31" fill="#525252"/><polygon points="21.19 48.82 33.42 51.21 33.42 47.42 21.19 46.34 21.19 48.82" fill="#35786d"/><polyline points="33.42 22.79 21.19 29.57 21.19 36.54 33.42 33.12" fill="#35786d"/><polygon points="22.9 29.98 21.5 30.63 21.5 35.49 22.9 35.01 22.9 29.98" fill="#232323"/><polygon points="23.61 29.68 23.61 34.73 25.2 34.19 25.2 28.94 23.61 29.68" fill="#232323"/><polygon points="26.09 28.53 26.09 33.88 27.83 33.29 27.83 27.71 26.09 28.53" fill="#232323"/><polygon points="28.68 27.32 28.68 33 30.42 32.4 30.42 26.5 28.68 27.32" fill="#232323"/><polygon points="31.2 26.14 31.2 32.14 32.94 31.54 32.94 25.33 31.2 26.14" fill="#232323"/><path d="M50.19,24.89,44.68,26.1s-6,6.69-7.06,8.15V61.84L53.94,64C52.69,47.56,50.19,24.89,50.19,24.89Z" transform="translate(-3.73 -11.67)" fill="#e2e1e1"/><path d="M53.94,64,37.62,61.84V68s12.87,4.7,17,10.06C54.69,75.19,54.4,70,53.94,64Z" transform="translate(-3.73 -11.67)" fill="#aeadad"/><path d="M37.62,59.07v4.28s12.87,1.49,17,6.85c0-2.75-.2-7-.62-11.84Z" transform="translate(-3.73 -11.67)" fill="#35786d"/><path d="M54.63,70.43c-3.82-5.55-17-7.36-17-7.36v.76s14.64,3.3,17,8.29c0-.5,0-1.31,0-2Z" transform="translate(-3.73 -11.67)" fill="#525252"/><path d="M50.19,24.89l-1.71.37v-6S45.31,23,44.58,24a7.6,7.6,0,0,0-.42,2.69c-1.46,1.65-5.64,6.38-6.54,7.57V44.73L51.86,38C51,30.55,50.19,24.89,50.19,24.89Z" transform="translate(-3.73 -11.67)" fill="#35786d"/><polygon points="39.93 19.89 39.93 28.14 42.79 26.53 42.79 17.43 39.93 19.89" fill="#232323"/><polygon points="39.07 20.64 36.95 22.46 36.95 29.83 39.07 28.63 39.07 20.64" fill="#232323"/><polygon points="36.01 23.27 34.2 24.82 34.2 31.38 36.01 30.36 36.01 23.27" fill="#232323"/><path d="M47.49,23s1.35,41,1.35,43.23c4.23,7.38,5.64,12.38,7.24,14.47,1.36,2,5.39,1.62,5.39,1.62l23.6-.8s2,.41,3.12-2.83,4.91-12.21,5-13.08c-.11-6-3.54-42.15-3.76-44.14s-1.89-4.82-5.77-6.12-11.44-3.64-14.56-3.58S53,16.39,49.74,18.16C47.23,19.53,47.49,23,47.49,23Z" transform="translate(-3.73 -11.67)" fill="#47a093"/><path d="M90.26,29.66h0c-.41-4.44-.72-7.62-.78-8.17-.24-2-1.89-4.82-5.77-6.12s-11.44-3.64-14.56-3.58S53,16.39,49.74,18.16C47.23,19.53,47.49,23,47.49,23s.11,3.5.27,8.5C47.77,31.52,64.77,22.3,90.26,29.66Z" transform="translate(-3.73 -11.67)" fill="#888989"/><path d="M90.26,29.66h0c-.41-4.44-.72-7.62-.78-8.17-.24-2-1.89-4.82-5.77-6.12s-12.11-3.7-14.84-3.7c-3.12,0-15.89,4.72-19.13,6.49C47.23,19.53,47.49,23,47.49,23s.11,3.5.27,8.5C47.77,31.52,64.77,22.3,90.26,29.66Z" transform="translate(-3.73 -11.67)" fill="#47a093"/><path d="M90.26,29.66c-.41-4.44-.72-7.62-.78-8.17-.24-2-1.89-4.82-5.77-6.12s-12.11-3.7-14.84-3.7h0l.56,15.16A69.36,69.36,0,0,1,90.26,29.66Z" transform="translate(-3.73 -11.67)" fill="#5db7a8"/><path d="M52.18,34.17A2.72,2.72,0,0,1,49.7,31.3l-.23-6.88a2.79,2.79,0,0,1,2.29-3l12.93-3.16c1.36-.32,2.42,1.24,2.48,2.87L67.39,28a2.7,2.7,0,0,1-2.28,3Z" transform="translate(-3.73 -11.67)" fill="#232323"/><path d="M65.54,30.94,65.1,18.19a2,2,0,0,0-.41,0l-1.9.46.33,12.8,2-.49A2,2,0,0,0,65.54,30.94Z" transform="translate(-3.73 -11.67)" fill="#b8b7b7" opacity="0.5"/><polygon points="57.93 7.3 56.69 7.61 56.85 20.45 58.17 20.12 57.93 7.3" fill="#b8b7b7" opacity="0.5"/><path d="M50.42,31.77l-.23-6.88a2.79,2.79,0,0,1,2.29-3L65.41,18.7a1.4,1.4,0,0,1,.84.05,1.6,1.6,0,0,0-1.56-.52L51.76,21.39a2.79,2.79,0,0,0-2.29,3l.23,6.88A3,3,0,0,0,51.37,34,3.24,3.24,0,0,1,50.42,31.77Z" transform="translate(-3.73 -11.67)" fill="#3a7b70"/><path d="M86.58,32.94c1.28-.06,2.26-1.44,2.18-3.06L88.42,23A2.74,2.74,0,0,0,86,20.18L73.08,18.09c-1.35-.2-2.26,1.44-2.18,3.07L71.24,28c.07,1.63,1.18,2.9,2.47,2.83Z" transform="translate(-3.73 -11.67)" fill="#232323"/><polygon points="78.71 7.94 77.47 7.74 77.79 20.46 78.97 20.65 78.71 7.94" fill="#b8b7b7" opacity="0.5"/><path d="M86.63,32.94,86,20.2l-.08,0-2.33-.38.43,12.73,2.53.41Z" transform="translate(-3.73 -11.67)" fill="#b8b7b7" opacity="0.5"/><path d="M88.1,30.41l-.34-6.88a2.76,2.76,0,0,0-2.47-2.83L72.42,18.62a1.5,1.5,0,0,0-.82.12,1.59,1.59,0,0,1,1.48-.65L86,20.18A2.74,2.74,0,0,1,88.42,23l.34,6.88a3,3,0,0,1-1.4,2.84A3.31,3.31,0,0,0,88.1,30.41Z" transform="translate(-3.73 -11.67)" fill="#3a7b70"/><path d="M89.49,21.62c0-.05,0-.1,0-.13S89.49,21.57,89.49,21.62Z" transform="translate(-3.73 -11.67)" fill="#c2c1c1"/><path d="M89.49,21.64c.09.84.39,3.88.77,8-25.49-7.36-42.49,1.86-42.5,1.86s.49,14.64.86,26.77l44.12-.56C91.77,45.39,89.75,24.08,89.49,21.64Z" transform="translate(-3.73 -11.67)" fill="#eeeded"/><path d="M90.17,28.62v0Z" transform="translate(-3.73 -11.67)" fill="#eeeded"/><path d="M90.17,28.59c-.12-1.21-.22-2.31-.32-3.26C90,26.28,90.05,27.38,90.17,28.59Z" transform="translate(-3.73 -11.67)" fill="#eeeded"/><path d="M90.2,29l0-.37Z" transform="translate(-3.73 -11.67)" fill="#eeeded"/><path d="M89.85,25.33c0-.1,0-.2,0-.3C89.84,25.13,89.85,25.23,89.85,25.33Z" transform="translate(-3.73 -11.67)" fill="#eeeded"/><path d="M89.83,25a.37.37,0,0,1,0-.11A.37.37,0,0,0,89.83,25Z" transform="translate(-3.73 -11.67)" fill="#eeeded"/><path d="M89.77,24.41c-.14-1.38-.23-2.35-.28-2.77C89.54,22.06,89.63,23,89.77,24.41Z" transform="translate(-3.73 -11.67)" fill="#eeeded"/><path d="M89.82,24.92c0-.18,0-.35,0-.51C89.78,24.58,89.8,24.74,89.82,24.92Z" transform="translate(-3.73 -11.67)" fill="#eeeded"/><path d="M89.77,24.41Z" transform="translate(-3.73 -11.67)" fill="#eeeded"/><path d="M89.83,25a.37.37,0,0,1,0-.11A.37.37,0,0,0,89.83,25Z" transform="translate(-3.73 -11.67)" fill="#676767"/><path d="M89.82,24.92c0-.18,0-.35,0-.51C89.78,24.58,89.8,24.74,89.82,24.92Z" transform="translate(-3.73 -11.67)" fill="#676767"/><path d="M89.85,25.33c0-.1,0-.2,0-.3C89.84,25.13,89.85,25.23,89.85,25.33Z" transform="translate(-3.73 -11.67)" fill="#676767"/><path d="M90.2,29l0-.37Z" transform="translate(-3.73 -11.67)" fill="#676767"/><path d="M90.17,28.59c-.12-1.21-.22-2.31-.32-3.26C90,26.28,90.05,27.38,90.17,28.59Z" transform="translate(-3.73 -11.67)" fill="#676767"/><path d="M90.17,28.62v0Z" transform="translate(-3.73 -11.67)" fill="#676767"/><path d="M89.77,24.41Z" transform="translate(-3.73 -11.67)" fill="#676767"/><path d="M90.26,30.72l-.06-.67,0-.37v-.05c-25.43-7.3-42.39,1.89-42.4,1.89s0,.38,0,1.05C48.51,32.19,65.32,23.52,90.26,30.72Z" transform="translate(-3.73 -11.67)" fill="#676767"/><path d="M90.2,30.05c.72,7.61,1.79,19.37,2.45,27.68h.09C92.08,49.38,91,36.93,90.2,29l.06.67-.1,0v.05Z" transform="translate(-3.73 -11.67)" fill="#676767"/><path d="M89.77,24.41c-.14-1.38-.23-2.35-.28-2.77C89.54,22.06,89.63,23,89.77,24.41Z" transform="translate(-3.73 -11.67)" fill="#676767"/><path d="M75.35,34.25a5.58,5.58,0,1,1-5.58-5.57A5.57,5.57,0,0,1,75.35,34.25Z" transform="translate(-3.73 -11.67)" fill="#232323"/><path d="M70.11,28.51a5.57,5.57,0,1,0,5.57,5.57A5.57,5.57,0,0,0,70.11,28.51Zm0,9a3.46,3.46,0,1,1,3.46-3.45A3.44,3.44,0,0,1,70.11,37.53Z" transform="translate(-3.73 -11.67)" fill="#676767"/><path d="M48.84,66.25c4.23,7.38,5.64,12.38,7.24,14.47,1.36,2,5.39,1.62,5.39,1.62l23.6-.8s2,.41,3.12-2.83,4.91-12.21,5-13.08C64.37,70.27,48.84,66.25,48.84,66.25Z" transform="translate(-3.73 -11.67)" fill="#cfcece"/><path d="M48.84,66.25c4.23,7.38,12.63,16.09,12.63,16.09l22.82-.75s8.81-15.09,8.95-16C64.37,70.27,48.84,66.25,48.84,66.25Z" transform="translate(-3.73 -11.67)" fill="#efefef"/><path d="M92.84,67.3c.22-.86.37-1.48.4-1.67-28.87,4.64-44.4.62-44.4.62l1,1.85C53.8,68.88,68.56,71.16,92.84,67.3Z" transform="translate(-3.73 -11.67)" fill="#676767"/><path d="M78.58,57.91l14.16-.18c-.33-4.15-.54-6.65-1-11.78C86,46.62,79.91,47.72,78.58,57.91Z" transform="translate(-3.73 -11.67)" fill="#ffd257"/><path d="M91.85,47.08c0-.36-.07-.73-.11-1.13-6.19.68-12,1.61-13.44,12H79C80.65,48.78,86,47.74,91.85,47.08Z" transform="translate(-3.73 -11.67)" fill="#fff"/><path d="M64.76,58.09l-16.12.38-.37-12.19C51.6,46.39,63.51,46.15,64.76,58.09Z" transform="translate(-3.73 -11.67)" fill="#ffd257"/><path d="M64.12,58.1h.64C63.51,46.15,51.6,46.39,48.27,46.28l0,1C52.09,47.4,62.41,47.72,64.12,58.1Z" transform="translate(-3.73 -11.67)" fill="#fff"/><path d="M76.22,57.15a2.26,2.26,0,0,1-2.16,2.35l-5.27.21a2.26,2.26,0,0,1-2.35-2.17l-.5-12.91a2.26,2.26,0,0,1,2.16-2.34l5.27-.21a2.26,2.26,0,0,1,2.35,2.17Z" transform="translate(-3.73 -11.67)" fill="#232323"/><path d="M76.52,57.15a2.26,2.26,0,0,1-2.17,2.35l-5.27.21a2.27,2.27,0,0,1-2.34-2.17l-.51-12.91a2.24,2.24,0,0,1,2.17-2.34l5.26-.21A2.26,2.26,0,0,1,76,44.25Z" transform="translate(-3.73 -11.67)" fill="#676767"/><polygon points="71.17 31.72 63.68 31.99 63.72 33.05 71.21 32.78 71.17 31.72" fill="#232323"/><polygon points="71.25 33.66 63.76 33.93 63.8 34.99 71.29 34.72 71.25 33.66" fill="#232323"/><polygon points="71.33 35.6 63.83 35.88 63.87 36.93 71.37 36.66 71.33 35.6" fill="#232323"/><polygon points="71.41 37.54 63.91 37.82 63.95 38.88 71.45 38.6 71.41 37.54" fill="#232323"/><polygon points="71.49 39.49 63.98 39.76 64.03 40.82 71.53 40.54 71.49 39.49" fill="#232323"/><polygon points="71.56 41.43 64.06 41.7 64.1 42.76 71.61 42.48 71.56 41.43" fill="#232323"/><polygon points="71.64 43.37 64.13 43.64 64.18 44.7 71.69 44.42 71.64 43.37" fill="#232323"/><polygon points="71.72 45.31 64.21 45.58 64.25 46.64 71.76 46.37 71.72 45.31" fill="#232323"/><rect x="86.14" y="40.32" width="3.12" height="5.55" rx="0.72" transform="translate(37.26 117.26) rotate(-87.61)" fill="#fff"/><path d="M89.72,45.21h0L85.56,45a1.2,1.2,0,0,1-1.14-1.24l.07-1.68A1.19,1.19,0,0,1,85.68,41h0l4.11.18a1.12,1.12,0,0,1,.82.38,1.18,1.18,0,0,1,.32.85l-.07,1.68A1.19,1.19,0,0,1,89.72,45.21Zm-4-3.29a.26.26,0,0,0-.26.24l-.07,1.68a.26.26,0,0,0,.07.18.24.24,0,0,0,.17.07l4.11.18v0A.26.26,0,0,0,90,44L90,42.35a.22.22,0,0,0-.07-.17.23.23,0,0,0-.17-.08l-4.11-.18Z" transform="translate(-3.73 -11.67)" fill="#7a7b7b"/><rect x="49.5" y="41.83" width="5.55" height="3.12" rx="0.72" transform="translate(-8.43 -5.28) rotate(-6.69)" fill="#fff"/><path d="M50.33,45.65a1.18,1.18,0,0,1-1.18-1L49,42.93a1.22,1.22,0,0,1,.25-.88,1.24,1.24,0,0,1,.79-.44l4.09-.48a1.2,1.2,0,0,1,1.32,1l.19,1.66a1.18,1.18,0,0,1-1,1.32l-4.08.48Zm3.89-3.58-4.11.48a.22.22,0,0,0-.17.09.24.24,0,0,0,0,.18l.19,1.67a.26.26,0,0,0,.25.22h0l4.08-.48a.26.26,0,0,0,.22-.28l-.2-1.66A.24.24,0,0,0,54.22,42.07Z" transform="translate(-3.73 -11.67)" fill="#7a7b7b"/><rect x="38.95" y="11.28" width="4" height="5.23" rx="1.23" fill="#47a093"/><path d="M49.2,25.58a.52.52,0,0,1-.52.52h-3a.52.52,0,0,1-.52-.52h0a.52.52,0,0,1,.52-.52h3a.52.52,0,0,1,.52.52Z" transform="translate(-3.73 -11.67)" fill="#676767"/><rect x="91.45" y="22.11" width="4" height="5.23" rx="1.23" transform="translate(-4.65 -7.86) rotate(-2.32)" fill="#47a093"/><path d="M88.93,24.92a.53.53,0,0,0,.54.51l3-.12a.53.53,0,0,0,.5-.55h0a.53.53,0,0,0-.55-.5l-3,.12a.52.52,0,0,0-.5.54Z" transform="translate(-3.73 -11.67)" fill="#676767"/><path d="M66.84,76.14H77.73a.59.59,0,0,1,.59.59v2.75a.59.59,0,0,1-.59.59H66.84a.58.58,0,0,1-.58-.58V76.72A.58.58,0,0,1,66.84,76.14Z" transform="translate(-5.46 -10.02) rotate(-1.29)" fill="#232323"/><path d="M78.29,76.59a.59.59,0,0,0-.58-.57l.06,2.75a.57.57,0,0,1-.57.59l-10.89.25h0a.57.57,0,0,0,.59.57l10.9-.24a.59.59,0,0,0,.57-.6Z" transform="translate(-3.73 -11.67)" fill="#878787"/><path d="M90.29,60a.38.38,0,0,1-.37.4l-9.8.32a.37.37,0,0,1-.39-.37h0A.37.37,0,0,1,80.1,60l9.79-.33a.39.39,0,0,1,.4.37Z" transform="translate(-3.73 -11.67)" fill="#232323"/><path d="M90.33,61.34a.37.37,0,0,1-.37.39l-9.8.33a.39.39,0,0,1-.39-.37h0a.39.39,0,0,1,.37-.4l9.8-.32a.37.37,0,0,1,.39.37Z" transform="translate(-3.73 -11.67)" fill="#232323"/><path d="M90.38,62.63A.4.4,0,0,1,90,63l-9.8.32a.39.39,0,0,1-.4-.37h0a.37.37,0,0,1,.37-.39l9.8-.33a.39.39,0,0,1,.4.37Z" transform="translate(-3.73 -11.67)" fill="#232323"/><path d="M90.42,63.92a.4.4,0,0,1-.37.4l-9.8.32a.39.39,0,0,1-.4-.37h0a.39.39,0,0,1,.37-.39l9.8-.33a.4.4,0,0,1,.4.37Z" transform="translate(-3.73 -11.67)" fill="#232323"/><path d="M51.62,60.66a.38.38,0,0,0,.37.39l9.8.2a.39.39,0,0,0,.39-.38h0a.37.37,0,0,0-.37-.39l-9.8-.2a.38.38,0,0,0-.39.38Z" transform="translate(-3.73 -11.67)" fill="#232323"/><path d="M51.59,62a.38.38,0,0,0,.37.39l9.81.2a.39.39,0,0,0,.39-.38h0a.4.4,0,0,0-.38-.39l-9.8-.2a.39.39,0,0,0-.39.38Z" transform="translate(-3.73 -11.67)" fill="#232323"/><path d="M51.56,63.24a.39.39,0,0,0,.38.39l9.8.2a.37.37,0,0,0,.39-.37h0a.37.37,0,0,0-.37-.39L52,62.87a.38.38,0,0,0-.39.37Z" transform="translate(-3.73 -11.67)" fill="#232323"/><path d="M51.54,64.54a.38.38,0,0,0,.37.39l9.8.2a.38.38,0,0,0,.39-.38h0a.37.37,0,0,0-.37-.39l-9.8-.2a.38.38,0,0,0-.39.38Z" transform="translate(-3.73 -11.67)" fill="#232323"/><path d="M91.89,53.16a4,4,0,1,1-4-4A4,4,0,0,1,91.89,53.16Z" transform="translate(-3.73 -11.67)" fill="#232323"/><path d="M90.87,53a2.75,2.75,0,1,1-2.75-2.75A2.75,2.75,0,0,1,90.87,53Z" transform="translate(-3.73 -11.67)" fill="#fff"/><path d="M88.12,49a4,4,0,1,0,4,4A4,4,0,0,0,88.12,49Zm0,6.5A2.49,2.49,0,1,1,90.61,53,2.5,2.5,0,0,1,88.12,55.52Z" transform="translate(-3.73 -11.67)" fill="#676767"/><path d="M58.53,53.82a4,4,0,1,1-4-4A4,4,0,0,1,58.53,53.82Z" transform="translate(-3.73 -11.67)" fill="#232323"/><path d="M57.51,53.69a2.75,2.75,0,1,1-2.75-2.75A2.75,2.75,0,0,1,57.51,53.69Z" transform="translate(-3.73 -11.67)" fill="#fff"/><path d="M54.76,49.68a4,4,0,1,0,4,4A4,4,0,0,0,54.76,49.68Zm0,6.5a2.49,2.49,0,1,1,2.49-2.49A2.49,2.49,0,0,1,54.76,56.18Z" transform="translate(-3.73 -11.67)" fill="#676767"/></g></g></svg>