<svg id="Layer_1" data-name="Layer 1" xmlns="http://www.w3.org/2000/svg" viewBox="0 0 45.56 93.01"><title>Refrigerator</title><rect x="2.84" y="87.18" width="39.88" height="5.83" fill="#d7d8d8"/><path d="M27.22,88.65a2.53,2.53,0,0,0,2.53,2.53H36a2.53,2.53,0,0,1-2.53-2.53V37.75A2.53,2.53,0,0,1,36,35.22H27.22Z" transform="translate(-27.22 -3.5)" fill="#e3e3e2"/><path d="M64,35.22a2.53,2.53,0,0,1,2.53,2.53v50.9A2.53,2.53,0,0,1,64,91.18h6.22a2.53,2.53,0,0,0,2.53-2.53V35.22Z" transform="translate(-27.22 -3.5)" fill="#bdbdbc"/><rect x="6.22" y="31.73" width="33.13" height="55.96" rx="2.53" fill="#d7d8d8"/><rect x="6.16" y="88.63" width="12.21" height="2.92" fill="#bdbdbc"/><rect x="27.07" y="88.63" width="12.21" height="2.92" fill="#bdbdbc"/><rect y="27.48" width="45.56" height="2.93" fill="#bdbdbc"/><path d="M33.37,28.16V4.76A1.26,1.26,0,0,1,34.64,3.5H29.75A2.53,2.53,0,0,0,27.22,6v23.4h7.42A1.27,1.27,0,0,1,33.37,28.16Z" transform="translate(-27.22 -3.5)" fill="#e3e3e2"/><path d="M72.78,6A2.53,2.53,0,0,0,70.25,3.5H65.36a1.26,1.26,0,0,1,1.27,1.26v23.4a1.27,1.27,0,0,1-1.27,1.27h7.42Z" transform="translate(-27.22 -3.5)" fill="#bdbdbc"/><polygon points="7.42 25.93 38.15 25.93 38.15 25.93 7.42 25.93 7.42 25.93" fill="#dadada"/><rect x="6.15" width="33.26" height="25.93" rx="1.27" fill="#d7d8d8"/><path d="M47.47,24.87a1.24,1.24,0,0,1-1.24,1.23H36a1.23,1.23,0,0,1-1.23-1.23h0A1.24,1.24,0,0,1,36,23.63H46.23a1.25,1.25,0,0,1,1.24,1.24Z" transform="translate(-27.22 -3.5)" fill="#fff"/><path d="M47.39,41.92a1.23,1.23,0,0,1-1.24,1.23H35.9a1.24,1.24,0,0,1-1.24-1.23h0a1.24,1.24,0,0,1,1.24-1.24H46.15a1.23,1.23,0,0,1,1.24,1.24Z" transform="translate(-27.22 -3.5)" fill="#fff"/><circle cx="32.21" cy="18.21" r="2.28" fill="#f6c885"/><circle cx="32.21" cy="18.21" r="1.82" fill="#248544"/><polygon points="27.19 13.13 29.7 8.78 32.21 13.13 27.19 13.13" fill="#f6c885"/><polygon points="27.87 12.7 29.7 9.53 31.53 12.7 27.87 12.7" fill="#7bc7be"/><rect y="29.72" width="45.56" height="2.01" fill="#fff"/><rect y="25.93" width="45.56" height="2.01" fill="#fff"/><rect x="19.68" y="8.77" width="4.37" height="4.37" fill="#f6c885"/><rect x="20.07" y="9.17" width="3.58" height="3.58" fill="#e94557"/></svg>