<svg id="Layer_1" data-name="Layer 1" xmlns="http://www.w3.org/2000/svg" viewBox="0 0 92.73 61.98"><title>School</title><path d="M95.75,79.27c0,2.44-1.69,4.41-3.78,4.41H8c-2.08,0-3.77-2-3.77-4.41h0C4.27,76.83,6,74.85,8,74.85H92c2.09,0,3.78,2,3.78,4.42Z" transform="translate(-4.27 -21.71)" fill="#8eaf3a"/><path d="M7.13,75S36.82,87.35,92,74.85Z" transform="translate(-4.27 -21.71)" fill="#afcd55"/><rect x="7.65" y="14.11" width="23.82" height="39.02" fill="#db8738"/><rect x="58.92" y="14.13" width="23.82" height="39.02" fill="#db8738"/><rect x="30.21" y="13.64" width="29.72" height="39.51" fill="#e4934f"/><polygon points="7.81 14.3 33.75 7.69 56.62 7.69 83.09 14.3 7.81 14.3" fill="#738c85"/><rect x="30.4" y="30.74" width="28.52" height="0.94" fill="#b57641"/><rect x="7.48" y="14.13" width="75.61" height="1.25" fill="#c3d1a8"/><rect x="34.83" y="35.24" width="9.87" height="17.15" fill="#b57641"/><rect x="35.61" y="36.49" width="3.68" height="4.46" fill="#d6b4a2"/><rect x="40.31" y="36.49" width="3.68" height="4.46" fill="#d6b4a2"/><rect x="35.61" y="41.66" width="3.68" height="4.46" fill="#d6b4a2"/><rect x="40.31" y="41.66" width="3.68" height="4.46" fill="#d6b4a2"/><rect x="35.61" y="46.83" width="3.68" height="4.46" fill="#d6b4a2"/><rect x="40.31" y="46.83" width="3.68" height="4.46" fill="#d6b4a2"/><rect x="46.18" y="35.24" width="9.87" height="17.15" fill="#b57641"/><rect x="46.96" y="36.49" width="3.68" height="4.46" fill="#d6b4a2"/><rect x="51.66" y="36.49" width="3.68" height="4.46" fill="#d6b4a2"/><rect x="46.96" y="41.66" width="3.68" height="4.46" fill="#d6b4a2"/><rect x="51.66" y="41.66" width="3.68" height="4.46" fill="#d6b4a2"/><rect x="46.96" y="46.83" width="3.68" height="4.46" fill="#d6b4a2"/><rect x="51.66" y="46.83" width="3.68" height="4.46" fill="#d6b4a2"/><rect x="34.41" y="50.91" width="22.06" height="1.4" fill="#a5c2a5"/><rect x="31.41" y="52.12" width="27.51" height="1.03" fill="#bddcb9"/><rect x="7.48" y="14.13" width="75.61" height="0.63" fill="#647871"/><polygon points="60.72 15.38 30.21 15.38 45.34 0 60.72 15.38" fill="#647871"/><polygon points="31.84 15.38 45.12 2.12 58.92 15.38 31.84 15.38" fill="#e4934f"/><rect x="30.04" y="15.38" width="0.42" height="37.77" fill="#c87631"/><rect x="31.96" y="23.51" width="26.96" height="5.7" fill="#e5c8b3"/><path d="M43.13,46.94l-.23.26a1,1,0,0,0-.68-.27c-.29,0-.53.15-.53.45s.11.39.65.57.89.35.89.95a1,1,0,0,1-1.07.94,1.32,1.32,0,0,1-1-.41l.23-.27a1.09,1.09,0,0,0,.78.32.56.56,0,0,0,.64-.56c0-.31-.14-.45-.65-.61s-.88-.42-.88-.91a.85.85,0,0,1,.94-.83A1.21,1.21,0,0,1,43.13,46.94Z" transform="translate(-4.27 -21.71)" fill="#7c4e3a"/><path d="M42.16,49.9a1.4,1.4,0,0,1-1.06-.43l0,0,.3-.35,0,0a1.07,1.07,0,0,0,.75.3c.28,0,.58-.13.58-.5s-.09-.39-.61-.55-.92-.42-.92-1a.91.91,0,0,1,1-.89,1.26,1.26,0,0,1,1,.39l0,0-.3.36,0,0a1,1,0,0,0-.65-.26c-.11,0-.47,0-.47.39s.06.33.61.51.92.36.92,1A1,1,0,0,1,42.16,49.9Zm-.93-.47a1.29,1.29,0,0,0,.93.35c.62,0,1-.33,1-.88s-.4-.75-.85-.9-.69-.31-.69-.62.23-.51.59-.51a1.06,1.06,0,0,1,.68.25l.15-.18a1.17,1.17,0,0,0-.84-.31.8.8,0,0,0-.88.77c0,.42.22.65.84.85s.69.33.69.67a.62.62,0,0,1-.7.62,1.14,1.14,0,0,1-.78-.3Z" transform="translate(-4.27 -21.71)" fill="#7c4e3a"/><path d="M46,46.88l-.22.28a.86.86,0,0,0-.58-.23c-.45,0-.83.32-.83,1.27s.36,1.27.83,1.27a1,1,0,0,0,.63-.26l.21.28a1.13,1.13,0,0,1-.86.35c-.72,0-1.24-.57-1.24-1.64s.56-1.63,1.24-1.63A1.14,1.14,0,0,1,46,46.88Z" transform="translate(-4.27 -21.71)" fill="#7c4e3a"/><path d="M45.14,49.9c-.8,0-1.3-.65-1.3-1.7s.65-1.69,1.3-1.69a1.2,1.2,0,0,1,.86.33l0,0-.29.37,0,0a.8.8,0,0,0-.54-.22c-.5,0-.77.42-.77,1.21s.27,1.21.77,1.21a.88.88,0,0,0,.59-.25l0,0,.27.37,0,0A1.2,1.2,0,0,1,45.14,49.9Zm0-3.27c-.59,0-1.18.49-1.18,1.57s.45,1.58,1.18,1.58a1.08,1.08,0,0,0,.78-.3l-.14-.19a1,1,0,0,1-.62.24c-.33,0-.88-.17-.88-1.33s.55-1.33.88-1.33a.89.89,0,0,1,.57.21l.15-.19A1.09,1.09,0,0,0,45.14,46.63Z" transform="translate(-4.27 -21.71)" fill="#7c4e3a"/><path d="M48.44,48.3H47.19v1.48h-.41V46.63h.41V48h1.25V46.63h.42v3.15h-.42Z" transform="translate(-4.27 -21.71)" fill="#7c4e3a"/><path d="M48.92,49.84h-.53V48.36H47.25v1.48h-.53V46.57h.53v1.32h1.14V46.57h.53Zm-.42-.11h.3v-3h-.3V48H47.13V46.69h-.29v3h.29V48.25H48.5Z" transform="translate(-4.27 -21.71)" fill="#7c4e3a"/><path d="M52.31,48.21c0,1-.51,1.63-1.26,1.63s-1.26-.57-1.26-1.63.51-1.64,1.26-1.64S52.31,47.15,52.31,48.21Zm-2.08,0c0,.91.33,1.27.82,1.27s.82-.36.82-1.27-.31-1.28-.82-1.28S50.23,47.3,50.23,48.21Z" transform="translate(-4.27 -21.71)" fill="#7c4e3a"/><path d="M51.05,49.9c-.82,0-1.32-.65-1.32-1.69s.52-1.7,1.32-1.7,1.32.65,1.32,1.7S51.86,49.9,51.05,49.9Zm0-3.27c-.74,0-1.2.61-1.2,1.58s.45,1.57,1.2,1.57,1.2-.6,1.2-1.57S51.8,46.63,51.05,46.63Zm0,2.91c-.4,0-.88-.23-.88-1.33s.48-1.34.88-1.34c.58,0,.88.45.88,1.34S51.63,49.54,51.05,49.54Zm0-2.55c-.51,0-.77.41-.77,1.22s.26,1.21.77,1.21.76-.39.76-1.21S51.56,47,51.05,47Z" transform="translate(-4.27 -21.71)" fill="#7c4e3a"/><path d="M55.57,48.21c0,1-.51,1.63-1.26,1.63s-1.26-.57-1.26-1.63.51-1.64,1.26-1.64S55.57,47.15,55.57,48.21Zm-2.09,0c0,.91.34,1.27.83,1.27s.82-.36.82-1.27-.31-1.28-.82-1.28S53.48,47.3,53.48,48.21Z" transform="translate(-4.27 -21.71)" fill="#7c4e3a"/><path d="M54.31,49.9c-.82,0-1.32-.65-1.32-1.69s.51-1.7,1.32-1.7,1.31.65,1.31,1.7S55.12,49.9,54.31,49.9Zm0-3.27c-.75,0-1.21.61-1.21,1.58s.45,1.57,1.21,1.57,1.2-.6,1.2-1.57S55.06,46.63,54.31,46.63Zm0,2.91c-.41,0-.89-.23-.89-1.33s.48-1.34.89-1.34c.58,0,.88.45.88,1.34S54.89,49.54,54.31,49.54Zm0-2.55c-.51,0-.77.41-.77,1.22s.26,1.21.77,1.21.76-.39.76-1.21S54.82,47,54.31,47Z" transform="translate(-4.27 -21.71)" fill="#7c4e3a"/><path d="M56.91,49.4h1.22l0,.38H56.5V46.63h.41Z" transform="translate(-4.27 -21.71)" fill="#7c4e3a"/><path d="M58.14,49.84h-1.7V46.57H57v2.78H58.2Zm-1.58-.11H58l0-.27H56.85V46.69h-.29Z" transform="translate(-4.27 -21.71)" fill="#7c4e3a"/><rect x="31.96" y="23.51" width="26.96" height="0.47" fill="#ceb4a4"/><rect x="31.96" y="23.51" width="0.41" height="5.7" fill="#ceb4a4"/><rect x="31.96" y="28.63" width="26.96" height="0.58" fill="#ceb4a4"/><rect x="58.51" y="23.51" width="0.41" height="5.41" fill="#ceb4a4"/><rect x="54.97" y="57.56" width="4.77" height="0.68" fill="#47524c"/><polygon points="57.52 37.29 56.88 37.39 56.22 32.69 58.09 32.69 57.52 37.29" fill="#fde1c8"/><path d="M63.63,54.28a.13.13,0,0,1-.14.11H59.35c-.07,0-.14,0-.14-.11h0a.13.13,0,0,1,.14-.12h4.14a.13.13,0,0,1,.14.12Z" transform="translate(-4.27 -21.71)" fill="#47524c"/><path d="M61.42,52.71a1.59,1.59,0,0,0-1.69,1.45h3.38A1.58,1.58,0,0,0,61.42,52.71Z" transform="translate(-4.27 -21.71)" fill="#47524c"/><path d="M62.71,58.94c0,.07-.06.12-.15.12H60.32a.14.14,0,0,1-.15-.12h0a.14.14,0,0,1,.15-.12h2.24a.14.14,0,0,1,.15.12Z" transform="translate(-4.27 -21.71)" fill="#47524c"/><polygon points="55.47 32.69 56.36 37.11 56.81 37.11 55.94 32.69 55.47 32.69" fill="#47524c"/><polygon points="58.86 32.69 57.97 37.11 57.52 37.11 58.38 32.69 58.86 32.69" fill="#47524c"/><rect x="56.88" y="37.23" width="0.64" height="20.72" fill="#47524c"/><rect x="43.55" y="4.05" width="3.23" height="1.15" fill="#d28247"/><rect x="41.93" y="5.79" width="3.23" height="1.15" fill="#d28247"/><rect x="45.46" y="5.79" width="3.23" height="1.15" fill="#d28247"/><rect x="40.17" y="7.49" width="3.23" height="1.15" fill="#d28247"/><rect x="43.7" y="7.49" width="3.23" height="1.15" fill="#d28247"/><rect x="47.41" y="7.49" width="3.23" height="1.15" fill="#d28247"/><rect x="38.2" y="9.14" width="3.23" height="1.15" fill="#d28247"/><rect x="41.73" y="9.14" width="3.23" height="1.15" fill="#d28247"/><rect x="45.44" y="9.14" width="3.23" height="1.15" fill="#d28247"/><rect x="49.03" y="9.14" width="3.23" height="1.15" fill="#d28247"/><rect x="36.67" y="10.76" width="3.23" height="1.15" fill="#d28247"/><rect x="40.2" y="10.76" width="3.23" height="1.15" fill="#d28247"/><rect x="43.91" y="10.76" width="3.23" height="1.15" fill="#d28247"/><rect x="47.5" y="10.76" width="3.23" height="1.15" fill="#d28247"/><rect x="34.91" y="12.37" width="3.23" height="1.15" fill="#d28247"/><rect x="38.44" y="12.37" width="3.23" height="1.15" fill="#d28247"/><rect x="42.14" y="12.37" width="3.23" height="1.15" fill="#d28247"/><rect x="45.73" y="12.37" width="3.23" height="1.15" fill="#d28247"/><rect x="33.44" y="13.86" width="3.23" height="1.15" fill="#d28247"/><rect x="36.97" y="13.86" width="3.23" height="1.15" fill="#d28247"/><rect x="40.68" y="13.86" width="3.23" height="1.15" fill="#d28247"/><rect x="32.16" y="15.28" width="3.23" height="1.15" fill="#d28247"/><rect x="35.69" y="15.28" width="3.23" height="1.15" fill="#d28247"/><rect x="39.4" y="15.28" width="3.23" height="1.15" fill="#d28247"/><rect x="34.67" y="16.81" width="3.23" height="1.15" fill="#d28247"/><rect x="38.2" y="16.81" width="3.23" height="1.15" fill="#d28247"/><rect x="41.9" y="16.81" width="3.23" height="1.15" fill="#d28247"/><rect x="36.91" y="18.28" width="3.23" height="1.15" fill="#d28247"/><rect x="40.44" y="18.28" width="3.23" height="1.15" fill="#d28247"/><rect x="44.14" y="18.28" width="3.23" height="1.15" fill="#d28247"/><rect x="41.64" y="19.85" width="3.23" height="1.15" fill="#d28247"/><rect x="45.35" y="19.85" width="3.23" height="1.15" fill="#d28247"/><rect x="46.23" y="21.47" width="3.23" height="1.15" fill="#d28247"/><rect x="44.27" y="13.86" width="3.23" height="1.15" fill="#d28247"/><path d="M43.94,35.35a5.2,5.2,0,1,1,5.2,5.2,5.2,5.2,0,0,1-5.2-5.2Z" transform="translate(-4.27 -21.71)" fill="#e8e5e5"/><path d="M49.14,41.14a5.79,5.79,0,1,1,5.79-5.79,5.8,5.8,0,0,1-5.79,5.79Zm0-10.94a5.15,5.15,0,1,0,5.15,5.15,5.16,5.16,0,0,0-5.15-5.15Z" transform="translate(-4.27 -21.71)" fill="#5a2c1b"/><rect x="44.8" y="8.63" width="0.14" height="0.62" fill="#441f15"/><rect x="44.8" y="17.99" width="0.14" height="0.62" fill="#441f15"/><rect x="39.92" y="13.57" width="0.62" height="0.14" fill="#441f15"/><rect x="49.25" y="13.57" width="0.62" height="0.14" fill="#441f15"/><polygon points="44.87 13.21 44.62 14.32 44.82 17.69 45.12 14.37 44.87 13.21" fill="#441f15"/><circle cx="44.87" cy="13.21" r="0.25" fill="#441f15"/><polygon points="44.9 13.26 45.75 13.01 47.97 11.63 45.6 12.65 44.9 13.26" fill="#441f15"/><rect x="18.99" y="16.3" width="3.21" height="1.15" fill="#c17333"/><rect x="17.38" y="18.04" width="3.21" height="1.15" fill="#c17333"/><rect x="20.89" y="18.04" width="3.21" height="1.15" fill="#c17333"/><rect x="15.63" y="19.74" width="3.21" height="1.15" fill="#c17333"/><rect x="19.13" y="19.74" width="3.21" height="1.15" fill="#c17333"/><rect x="22.81" y="19.74" width="3.21" height="1.15" fill="#c17333"/><rect x="13.68" y="21.39" width="3.21" height="1.15" fill="#c17333"/><rect x="17.18" y="21.39" width="3.21" height="1.15" fill="#c17333"/><rect x="20.86" y="21.39" width="3.21" height="1.15" fill="#c17333"/><rect x="24.42" y="21.39" width="3.21" height="1.15" fill="#c17333"/><rect x="12.16" y="23.01" width="3.21" height="1.15" fill="#c17333"/><rect x="15.66" y="23.01" width="3.21" height="1.15" fill="#c17333"/><rect x="19.34" y="23.01" width="3.21" height="1.15" fill="#c17333"/><rect x="22.9" y="23.01" width="3.21" height="1.15" fill="#c17333"/><rect x="10.41" y="24.63" width="3.21" height="1.15" fill="#c17333"/><rect x="13.91" y="24.63" width="3.21" height="1.15" fill="#c17333"/><rect x="17.59" y="24.63" width="3.21" height="1.15" fill="#c17333"/><rect x="21.15" y="24.63" width="3.21" height="1.15" fill="#c17333"/><rect x="8.95" y="26.11" width="3.21" height="1.15" fill="#c17333"/><rect x="12.46" y="26.11" width="3.21" height="1.15" fill="#c17333"/><rect x="16.13" y="26.11" width="3.21" height="1.15" fill="#c17333"/><rect x="7.69" y="27.54" width="3.21" height="1.15" fill="#c17333"/><rect x="11.19" y="27.54" width="3.21" height="1.15" fill="#c17333"/><rect x="14.87" y="27.54" width="3.21" height="1.15" fill="#c17333"/><rect x="10.17" y="29.06" width="3.21" height="1.15" fill="#c17333"/><rect x="13.68" y="29.06" width="3.21" height="1.15" fill="#c17333"/><rect x="17.35" y="29.06" width="3.21" height="1.15" fill="#c17333"/><rect x="12.4" y="30.54" width="3.21" height="1.15" fill="#c17333"/><rect x="15.9" y="30.54" width="3.21" height="1.15" fill="#c17333"/><rect x="19.58" y="30.54" width="3.21" height="1.15" fill="#c17333"/><rect x="17.09" y="32.1" width="3.21" height="1.15" fill="#c17333"/><rect x="20.77" y="32.1" width="3.21" height="1.15" fill="#c17333"/><rect x="21.65" y="33.72" width="3.21" height="1.15" fill="#c17333"/><rect x="19.7" y="26.11" width="3.21" height="1.15" fill="#c17333"/><rect x="19" y="34.32" width="3.09" height="1.15" fill="#c17333"/><rect x="17.46" y="36.06" width="3.09" height="1.15" fill="#c17333"/><rect x="20.83" y="36.06" width="3.09" height="1.15" fill="#c17333"/><rect x="15.77" y="37.76" width="3.09" height="1.15" fill="#c17333"/><rect x="19.14" y="37.76" width="3.09" height="1.15" fill="#c17333"/><rect x="22.69" y="37.76" width="3.09" height="1.15" fill="#c17333"/><rect x="13.88" y="39.41" width="3.09" height="1.15" fill="#c17333"/><rect x="17.26" y="39.41" width="3.09" height="1.15" fill="#c17333"/><rect x="20.81" y="39.41" width="3.09" height="1.15" fill="#c17333"/><rect x="24.24" y="39.41" width="3.09" height="1.15" fill="#c17333"/><rect x="12.42" y="41.03" width="3.09" height="1.15" fill="#c17333"/><rect x="15.8" y="41.03" width="3.09" height="1.15" fill="#c17333"/><rect x="19.34" y="41.03" width="3.09" height="1.15" fill="#c17333"/><rect x="22.78" y="41.03" width="3.09" height="1.15" fill="#c17333"/><rect x="10.73" y="42.64" width="3.09" height="1.15" fill="#c17333"/><rect x="14.11" y="42.64" width="3.09" height="1.15" fill="#c17333"/><rect x="17.65" y="42.64" width="3.09" height="1.15" fill="#c17333"/><rect x="21.09" y="42.64" width="3.09" height="1.15" fill="#c17333"/><rect x="9.32" y="44.13" width="3.09" height="1.15" fill="#c17333"/><rect x="12.7" y="44.13" width="3.09" height="1.15" fill="#c17333"/><rect x="16.25" y="44.13" width="3.09" height="1.15" fill="#c17333"/><rect x="8.1" y="45.55" width="3.09" height="1.15" fill="#c17333"/><rect x="11.48" y="45.55" width="3.09" height="1.15" fill="#c17333"/><rect x="15.03" y="45.55" width="3.09" height="1.15" fill="#c17333"/><rect x="10.5" y="47.08" width="3.09" height="1.15" fill="#c17333"/><rect x="13.88" y="47.08" width="3.09" height="1.15" fill="#c17333"/><rect x="17.43" y="47.08" width="3.09" height="1.15" fill="#c17333"/><rect x="12.64" y="48.55" width="3.09" height="1.15" fill="#c17333"/><rect x="16.02" y="48.55" width="3.09" height="1.15" fill="#c17333"/><rect x="19.57" y="48.55" width="3.09" height="1.15" fill="#c17333"/><rect x="17.18" y="50.12" width="3.09" height="1.15" fill="#c17333"/><rect x="20.72" y="50.12" width="3.09" height="1.15" fill="#c17333"/><rect x="21.57" y="51.74" width="3.09" height="1.15" fill="#c17333"/><rect x="19.69" y="44.13" width="3.09" height="1.15" fill="#c17333"/><rect x="74.21" y="15.94" width="3.21" height="1.15" fill="#c17333"/><rect x="72.6" y="17.68" width="3.21" height="1.15" fill="#c17333"/><rect x="76.11" y="17.68" width="3.21" height="1.15" fill="#c17333"/><rect x="70.85" y="19.38" width="3.21" height="1.15" fill="#c17333"/><rect x="74.36" y="19.38" width="3.21" height="1.15" fill="#c17333"/><rect x="78.03" y="19.38" width="3.21" height="1.15" fill="#c17333"/><rect x="68.9" y="21.03" width="3.21" height="1.15" fill="#c17333"/><rect x="72.4" y="21.03" width="3.21" height="1.15" fill="#c17333"/><rect x="76.08" y="21.03" width="3.21" height="1.15" fill="#c17333"/><rect x="79.64" y="21.03" width="3.21" height="1.15" fill="#c17333"/><rect x="67.38" y="22.65" width="3.21" height="1.15" fill="#c17333"/><rect x="70.88" y="22.65" width="3.21" height="1.15" fill="#c17333"/><rect x="74.56" y="22.65" width="3.21" height="1.15" fill="#c17333"/><rect x="78.12" y="22.65" width="3.21" height="1.15" fill="#c17333"/><rect x="65.63" y="24.26" width="3.21" height="1.15" fill="#c17333"/><rect x="69.13" y="24.26" width="3.21" height="1.15" fill="#c17333"/><rect x="72.81" y="24.26" width="3.21" height="1.15" fill="#c17333"/><rect x="76.37" y="24.26" width="3.21" height="1.15" fill="#c17333"/><rect x="64.18" y="25.75" width="3.21" height="1.15" fill="#c17333"/><rect x="67.68" y="25.75" width="3.21" height="1.15" fill="#c17333"/><rect x="71.36" y="25.75" width="3.21" height="1.15" fill="#c17333"/><rect x="62.91" y="27.17" width="3.21" height="1.15" fill="#c17333"/><rect x="66.41" y="27.17" width="3.21" height="1.15" fill="#c17333"/><rect x="70.09" y="27.17" width="3.21" height="1.15" fill="#c17333"/><rect x="65.4" y="28.7" width="3.21" height="1.15" fill="#c17333"/><rect x="68.9" y="28.7" width="3.21" height="1.15" fill="#c17333"/><rect x="72.57" y="28.7" width="3.21" height="1.15" fill="#c17333"/><rect x="67.62" y="30.17" width="3.21" height="1.15" fill="#c17333"/><rect x="71.12" y="30.17" width="3.21" height="1.15" fill="#c17333"/><rect x="74.8" y="30.17" width="3.21" height="1.15" fill="#c17333"/><rect x="72.32" y="31.74" width="3.21" height="1.15" fill="#c17333"/><rect x="75.99" y="31.74" width="3.21" height="1.15" fill="#c17333"/><rect x="76.87" y="33.36" width="3.21" height="1.15" fill="#c17333"/><rect x="74.92" y="25.75" width="3.21" height="1.15" fill="#c17333"/><rect x="74.22" y="33.96" width="3.09" height="1.15" fill="#c17333"/><rect x="72.68" y="35.7" width="3.09" height="1.15" fill="#c17333"/><rect x="76.05" y="35.7" width="3.09" height="1.15" fill="#c17333"/><rect x="70.99" y="37.4" width="3.09" height="1.15" fill="#c17333"/><rect x="74.37" y="37.4" width="3.09" height="1.15" fill="#c17333"/><rect x="77.91" y="37.4" width="3.09" height="1.15" fill="#c17333"/><rect x="69.1" y="39.05" width="3.09" height="1.15" fill="#c17333"/><rect x="72.48" y="39.05" width="3.09" height="1.15" fill="#c17333"/><rect x="76.03" y="39.05" width="3.09" height="1.15" fill="#c17333"/><rect x="79.47" y="39.05" width="3.09" height="1.15" fill="#c17333"/><rect x="67.64" y="40.66" width="3.09" height="1.15" fill="#c17333"/><rect x="71.02" y="40.66" width="3.09" height="1.15" fill="#c17333"/><rect x="74.56" y="40.66" width="3.09" height="1.15" fill="#c17333"/><rect x="78" y="40.66" width="3.09" height="1.15" fill="#c17333"/><rect x="65.95" y="42.28" width="3.09" height="1.15" fill="#c17333"/><rect x="69.33" y="42.28" width="3.09" height="1.15" fill="#c17333"/><rect x="72.88" y="42.28" width="3.09" height="1.15" fill="#c17333"/><rect x="76.31" y="42.28" width="3.09" height="1.15" fill="#c17333"/><rect x="64.55" y="43.77" width="3.09" height="1.15" fill="#c17333"/><rect x="67.92" y="43.77" width="3.09" height="1.15" fill="#c17333"/><rect x="71.47" y="43.77" width="3.09" height="1.15" fill="#c17333"/><rect x="63.32" y="45.19" width="3.09" height="1.15" fill="#c17333"/><rect x="66.7" y="45.19" width="3.09" height="1.15" fill="#c17333"/><rect x="70.25" y="45.19" width="3.09" height="1.15" fill="#c17333"/><rect x="65.72" y="46.72" width="3.09" height="1.15" fill="#c17333"/><rect x="69.1" y="46.72" width="3.09" height="1.15" fill="#c17333"/><rect x="72.65" y="46.72" width="3.09" height="1.15" fill="#c17333"/><rect x="67.87" y="48.19" width="3.09" height="1.15" fill="#c17333"/><rect x="71.24" y="48.19" width="3.09" height="1.15" fill="#c17333"/><rect x="74.79" y="48.19" width="3.09" height="1.15" fill="#c17333"/><rect x="72.4" y="49.76" width="3.09" height="1.15" fill="#c17333"/><rect x="75.94" y="49.76" width="3.09" height="1.15" fill="#c17333"/><rect x="76.79" y="51.38" width="3.09" height="1.15" fill="#c17333"/><rect x="74.91" y="43.77" width="3.09" height="1.15" fill="#c17333"/><rect x="10.2" y="20.97" width="6.34" height="6.03" fill="#3a828f"/><polygon points="15.21 20.97 10.2 23.54 10.2 26.2 16.54 23.22 16.54 20.97 15.21 20.97 15.21 20.97" fill="#619ba5"/><polygon points="10.2 26.54 16.54 23.59 16.54 24.12 10.2 27 10.2 26.54" fill="#619ba5"/><rect x="13.07" y="20.97" width="0.52" height="6.03" fill="#dfc3c2"/><rect x="10.2" y="23.75" width="6.34" height="0.49" fill="#dfc3c2"/><rect x="10.2" y="20.43" width="6.34" height="0.54" fill="#fff"/><rect x="9.62" y="20.43" width="0.57" height="6.57" fill="#fff"/><rect x="16.54" y="20.43" width="0.61" height="6.57" fill="#fff"/><rect x="9.62" y="27" width="7.53" height="0.64" fill="#fff"/><rect x="19.39" y="20.97" width="6.34" height="6.03" fill="#3a828f"/><polygon points="24.4 20.97 19.39 23.54 19.39 26.2 25.73 23.22 25.73 20.97 24.4 20.97 24.4 20.97" fill="#619ba5"/><polygon points="19.39 26.54 25.73 23.59 25.73 24.12 19.39 27 19.39 26.54" fill="#619ba5"/><rect x="22.26" y="20.97" width="0.52" height="6.03" fill="#dfc3c2"/><rect x="19.39" y="23.75" width="6.34" height="0.49" fill="#dfc3c2"/><rect x="19.39" y="20.43" width="6.34" height="0.54" fill="#fff"/><rect x="18.82" y="20.43" width="0.57" height="6.57" fill="#fff"/><rect x="25.73" y="20.43" width="0.61" height="6.57" fill="#fff"/><rect x="18.82" y="27" width="7.53" height="0.64" fill="#fff"/><rect x="10.2" y="29.91" width="6.34" height="6.03" fill="#3a828f"/><polygon points="15.21 29.91 10.2 32.48 10.2 35.14 16.54 32.16 16.54 29.91 15.21 29.91 15.21 29.91" fill="#619ba5"/><polygon points="10.2 35.48 16.54 32.53 16.54 33.06 10.2 35.94 10.2 35.48" fill="#619ba5"/><rect x="13.07" y="29.91" width="0.52" height="6.03" fill="#dfc3c2"/><rect x="10.2" y="32.7" width="6.34" height="0.49" fill="#dfc3c2"/><rect x="10.2" y="29.37" width="6.34" height="0.54" fill="#fff"/><rect x="9.62" y="29.37" width="0.57" height="6.57" fill="#fff"/><rect x="16.54" y="29.37" width="0.61" height="6.57" fill="#fff"/><rect x="9.62" y="35.94" width="7.53" height="0.64" fill="#fff"/><rect x="19.39" y="29.91" width="6.34" height="6.03" fill="#3a828f"/><polygon points="24.4 29.91 19.39 32.48 19.39 35.14 25.73 32.16 25.73 29.91 24.4 29.91 24.4 29.91" fill="#619ba5"/><polygon points="19.39 35.48 25.73 32.53 25.73 33.06 19.39 35.94 19.39 35.48" fill="#619ba5"/><rect x="22.26" y="29.91" width="0.52" height="6.03" fill="#dfc3c2"/><rect x="19.39" y="32.7" width="6.34" height="0.49" fill="#dfc3c2"/><rect x="19.39" y="29.37" width="6.34" height="0.54" fill="#fff"/><rect x="18.82" y="29.37" width="0.57" height="6.57" fill="#fff"/><rect x="25.73" y="29.37" width="0.61" height="6.57" fill="#fff"/><rect x="18.82" y="35.94" width="7.53" height="0.64" fill="#fff"/><rect x="10.2" y="39.33" width="6.34" height="6.03" fill="#3a828f"/><polygon points="15.21 39.33 10.2 41.9 10.2 44.56 16.54 41.58 16.54 39.33 15.21 39.33 15.21 39.33" fill="#619ba5"/><polygon points="10.2 44.9 16.54 41.94 16.54 42.48 10.2 45.35 10.2 44.9" fill="#619ba5"/><rect x="13.07" y="39.33" width="0.52" height="6.03" fill="#dfc3c2"/><rect x="10.2" y="42.11" width="6.34" height="0.49" fill="#dfc3c2"/><rect x="10.2" y="38.79" width="6.34" height="0.54" fill="#fff"/><rect x="9.62" y="38.79" width="0.57" height="6.57" fill="#fff"/><rect x="16.54" y="38.79" width="0.61" height="6.57" fill="#fff"/><rect x="9.62" y="45.35" width="7.53" height="0.64" fill="#fff"/><rect x="19.39" y="39.33" width="6.34" height="6.03" fill="#3a828f"/><polygon points="24.4 39.33 19.39 41.9 19.39 44.56 25.73 41.58 25.73 39.33 24.4 39.33 24.4 39.33" fill="#619ba5"/><polygon points="19.39 44.9 25.73 41.94 25.73 42.48 19.39 45.35 19.39 44.9" fill="#619ba5"/><rect x="22.26" y="39.33" width="0.52" height="6.03" fill="#dfc3c2"/><rect x="19.39" y="42.11" width="6.34" height="0.49" fill="#dfc3c2"/><rect x="19.39" y="38.79" width="6.34" height="0.54" fill="#fff"/><rect x="18.82" y="38.79" width="0.57" height="6.57" fill="#fff"/><rect x="25.73" y="38.79" width="0.61" height="6.57" fill="#fff"/><rect x="18.82" y="45.35" width="7.53" height="0.64" fill="#fff"/><rect x="65.23" y="20.99" width="6.34" height="6.03" fill="#3a828f"/><polygon points="70.24 20.98 65.23 23.55 65.23 26.22 71.57 23.23 71.57 20.98 70.24 20.98 70.24 20.98" fill="#619ba5"/><polygon points="65.23 26.55 71.57 23.6 71.57 24.14 65.23 27.01 65.23 26.55" fill="#619ba5"/><rect x="68.1" y="20.99" width="0.52" height="6.03" fill="#dfc3c2"/><rect x="65.23" y="23.77" width="6.34" height="0.49" fill="#dfc3c2"/><rect x="65.23" y="20.44" width="6.34" height="0.54" fill="#fff"/><rect x="64.66" y="20.44" width="0.57" height="6.57" fill="#fff"/><rect x="71.57" y="20.44" width="0.61" height="6.57" fill="#fff"/><rect x="64.66" y="27.01" width="7.53" height="0.64" fill="#fff"/><rect x="74.43" y="20.99" width="6.34" height="6.03" fill="#3a828f"/><polygon points="79.43 20.98 74.42 23.55 74.42 26.22 80.76 23.23 80.76 20.98 79.43 20.98 79.43 20.98" fill="#619ba5"/><polygon points="74.42 26.55 80.76 23.6 80.76 24.14 74.42 27.01 74.42 26.55" fill="#619ba5"/><rect x="77.3" y="20.99" width="0.52" height="6.03" fill="#dfc3c2"/><rect x="74.43" y="23.77" width="6.34" height="0.49" fill="#dfc3c2"/><rect x="74.43" y="20.44" width="6.34" height="0.54" fill="#fff"/><rect x="73.85" y="20.44" width="0.57" height="6.57" fill="#fff"/><rect x="80.76" y="20.44" width="0.61" height="6.57" fill="#fff"/><rect x="73.85" y="27.01" width="7.53" height="0.64" fill="#fff"/><rect x="65.23" y="29.93" width="6.34" height="6.03" fill="#3a828f"/><polygon points="70.24 29.93 65.23 32.5 65.23 35.16 71.57 32.18 71.57 29.93 70.24 29.93 70.24 29.93" fill="#619ba5"/><polygon points="65.23 35.49 71.57 32.54 71.57 33.08 65.23 35.95 65.23 35.49" fill="#619ba5"/><rect x="68.1" y="29.93" width="0.52" height="6.03" fill="#dfc3c2"/><rect x="65.23" y="32.71" width="6.34" height="0.49" fill="#dfc3c2"/><rect x="65.23" y="29.39" width="6.34" height="0.54" fill="#fff"/><rect x="64.66" y="29.39" width="0.57" height="6.57" fill="#fff"/><rect x="71.57" y="29.39" width="0.61" height="6.57" fill="#fff"/><rect x="64.66" y="35.95" width="7.53" height="0.64" fill="#fff"/><rect x="74.43" y="29.93" width="6.34" height="6.03" fill="#3a828f"/><polygon points="79.43 29.93 74.42 32.5 74.42 35.16 80.76 32.18 80.76 29.93 79.43 29.93 79.43 29.93" fill="#619ba5"/><polygon points="74.42 35.49 80.76 32.54 80.76 33.08 74.42 35.95 74.42 35.49" fill="#619ba5"/><rect x="77.3" y="29.93" width="0.52" height="6.03" fill="#dfc3c2"/><rect x="74.43" y="32.71" width="6.34" height="0.49" fill="#dfc3c2"/><rect x="74.43" y="29.39" width="6.34" height="0.54" fill="#fff"/><rect x="73.85" y="29.39" width="0.57" height="6.57" fill="#fff"/><rect x="80.76" y="29.39" width="0.61" height="6.57" fill="#fff"/><rect x="73.85" y="35.95" width="7.53" height="0.64" fill="#fff"/><rect x="65.23" y="39.34" width="6.34" height="6.03" fill="#3a828f"/><polygon points="70.24 39.34 65.23 41.91 65.23 44.57 71.57 41.59 71.57 39.34 70.24 39.34 70.24 39.34" fill="#619ba5"/><polygon points="65.23 44.91 71.57 41.96 71.57 42.49 65.23 45.37 65.23 44.91" fill="#619ba5"/><rect x="68.1" y="39.34" width="0.52" height="6.03" fill="#dfc3c2"/><rect x="65.23" y="42.13" width="6.34" height="0.49" fill="#dfc3c2"/><rect x="65.23" y="38.8" width="6.34" height="0.54" fill="#fff"/><rect x="64.66" y="38.8" width="0.57" height="6.57" fill="#fff"/><rect x="71.57" y="38.8" width="0.61" height="6.57" fill="#fff"/><rect x="64.66" y="45.37" width="7.53" height="0.64" fill="#fff"/><rect x="74.43" y="39.34" width="6.34" height="6.03" fill="#3a828f"/><polygon points="79.43 39.34 74.42 41.91 74.42 44.57 80.76 41.59 80.76 39.34 79.43 39.34 79.43 39.34" fill="#619ba5"/><polygon points="74.42 44.91 80.76 41.96 80.76 42.49 74.42 45.37 74.42 44.91" fill="#619ba5"/><rect x="77.3" y="39.34" width="0.52" height="6.03" fill="#dfc3c2"/><rect x="74.43" y="42.13" width="6.34" height="0.49" fill="#dfc3c2"/><rect x="74.43" y="38.8" width="6.34" height="0.54" fill="#fff"/><rect x="73.85" y="38.8" width="0.57" height="6.57" fill="#fff"/><rect x="80.76" y="38.8" width="0.61" height="6.57" fill="#fff"/><rect x="73.85" y="45.37" width="7.53" height="0.64" fill="#fff"/><rect x="34.41" y="50.91" width="22.06" height="0.46" fill="#939f93"/><rect x="35.61" y="36.49" width="1.19" height="4.46" fill="#b7a398"/><rect x="35.61" y="41.66" width="1.19" height="4.46" fill="#b7a398"/><rect x="40.31" y="36.49" width="1.19" height="4.46" fill="#b7a398"/><rect x="40.31" y="41.66" width="1.19" height="4.46" fill="#b7a398"/><rect x="35.61" y="46.83" width="1.19" height="4.18" fill="#b7a398"/><rect x="40.31" y="46.83" width="1.19" height="4.18" fill="#b7a398"/><rect x="51.66" y="46.83" width="1.19" height="4.18" fill="#b7a398"/><rect x="46.96" y="46.83" width="1.19" height="4.18" fill="#b7a398"/><rect x="51.66" y="36.49" width="1.19" height="4.46" fill="#b7a398"/><rect x="51.66" y="41.66" width="1.19" height="4.46" fill="#b7a398"/><rect x="46.96" y="36.49" width="1.19" height="4.46" fill="#b7a398"/><rect x="46.96" y="41.66" width="1.19" height="4.46" fill="#b7a398"/><path d="M8,73.31s5.08,2.06,5.5,6.84h1A8,8,0,0,0,8,73.31Z" transform="translate(-4.27 -21.71)" fill="#7ea132"/><path d="M15.1,80.15a6.11,6.11,0,0,0-4.93-5.21s3.87,1.57,4.19,5.21Z" transform="translate(-4.27 -21.71)" fill="#6a852b"/><path d="M20.61,73.28s-5.08,2.06-5.5,6.84h-1A8,8,0,0,1,20.61,73.28Z" transform="translate(-4.27 -21.71)" fill="#7ea132"/><path d="M14.59,80.45a6.09,6.09,0,0,1,1.45-7s-2.47,3.37-.83,6.63Z" transform="translate(-4.27 -21.71)" fill="#6a852b"/><path d="M15.14,71.07s-2.7,4.77-.05,8.77l-.76.61A8,8,0,0,1,15.14,71.07Z" transform="translate(-4.27 -21.71)" fill="#a6c643"/><path d="M18.12,80.51c0,.77-1.61,1.39-3.6,1.39s-3.6-.62-3.6-1.39,1.61-1.39,3.6-1.39S18.12,79.74,18.12,80.51Z" transform="translate(-4.27 -21.71)" fill="#8eaf3a"/><path d="M84.34,72s5.09,2.06,5.51,6.84h1A8,8,0,0,0,84.34,72Z" transform="translate(-4.27 -21.71)" fill="#7ea132"/><path d="M91.48,78.79a6.09,6.09,0,0,0-4.92-5.21s3.87,1.57,4.19,5.21Z" transform="translate(-4.27 -21.71)" fill="#6a852b"/><path d="M97,71.92S91.92,74,91.5,78.76h-1A8,8,0,0,1,97,71.92Z" transform="translate(-4.27 -21.71)" fill="#7ea132"/><path d="M91,79.09a6.11,6.11,0,0,1,1.45-7S90,75.44,91.6,78.7Z" transform="translate(-4.27 -21.71)" fill="#6a852b"/><path d="M91.53,69.71s-2.7,4.77-.06,8.77l-.76.61A8,8,0,0,1,91.53,69.71Z" transform="translate(-4.27 -21.71)" fill="#a6c643"/><path d="M94.51,79.15c0,.77-1.61,1.39-3.6,1.39s-3.6-.62-3.6-1.39,1.61-1.39,3.6-1.39S94.51,78.38,94.51,79.15Z" transform="translate(-4.27 -21.71)" fill="#8eaf3a"/><rect x="26.7" y="15.38" width="4.71" height="0.96" fill="#fde1c8"/><rect x="27.7" y="16.34" width="2.7" height="36.8" fill="#fde1c8"/><rect x="29.05" y="16.34" width="1.47" height="36.8" fill="#e5c8b3"/><rect x="26.7" y="52.19" width="4.71" height="0.96" fill="#fde1c8"/><rect x="58.92" y="15.36" width="4.71" height="0.96" fill="#fde1c8"/><rect x="59.93" y="16.33" width="2.7" height="36.8" fill="#fde1c8"/><rect x="61.27" y="16.33" width="1.47" height="36.8" fill="#e5c8b3"/><rect x="58.92" y="52.17" width="4.71" height="0.96" fill="#fde1c8"/><path d="M65.17,73.34s5.08,2.06,5.51,6.84h1A8,8,0,0,0,65.17,73.34Z" transform="translate(-4.27 -21.71)" fill="#7ea132"/><path d="M72.31,80.18A6.1,6.1,0,0,0,67.39,75s3.86,1.57,4.19,5.21Z" transform="translate(-4.27 -21.71)" fill="#6a852b"/><path d="M77.83,73.31s-5.08,2.06-5.51,6.84h-1A8,8,0,0,1,77.83,73.31Z" transform="translate(-4.27 -21.71)" fill="#7ea132"/><path d="M71.8,80.48a6.09,6.09,0,0,1,1.45-7s-2.46,3.37-.82,6.63Z" transform="translate(-4.27 -21.71)" fill="#6a852b"/><path d="M72.35,71.1s-2.69,4.77,0,8.77l-.76.61A8,8,0,0,1,72.35,71.1Z" transform="translate(-4.27 -21.71)" fill="#a6c643"/><path d="M75.33,80.54c0,.77-1.61,1.39-3.59,1.39s-3.6-.62-3.6-1.39,1.61-1.39,3.6-1.39S75.33,79.77,75.33,80.54Z" transform="translate(-4.27 -21.71)" fill="#8eaf3a"/><polygon points="62.74 16.33 74.8 53.26 62.62 53.12 62.74 16.33" fill="#010101" opacity="0.14"/><polygon points="30.56 16.26 42.61 53.2 30.43 53.05 30.56 16.26" fill="#010101" opacity="0.14"/><rect x="31.44" y="57.56" width="4.77" height="0.68" fill="#47524c"/><polygon points="33.98 37.29 33.35 37.39 32.68 32.69 34.55 32.69 33.98 37.29" fill="#fde1c8"/><path d="M40.09,54.28a.13.13,0,0,1-.14.11H35.82a.13.13,0,0,1-.14-.11h0a.13.13,0,0,1,.14-.12H40a.13.13,0,0,1,.14.12Z" transform="translate(-4.27 -21.71)" fill="#47524c"/><path d="M37.89,52.71a1.59,1.59,0,0,0-1.7,1.45h3.39A1.59,1.59,0,0,0,37.89,52.71Z" transform="translate(-4.27 -21.71)" fill="#47524c"/><path d="M39.18,58.94c0,.07-.07.12-.16.12H36.79c-.09,0-.16-.05-.16-.12h0a.15.15,0,0,1,.16-.12H39a.15.15,0,0,1,.16.12Z" transform="translate(-4.27 -21.71)" fill="#47524c"/><polygon points="31.93 32.69 32.82 37.11 33.27 37.11 32.41 32.69 31.93 32.69" fill="#47524c"/><polygon points="35.33 32.69 34.43 37.11 33.98 37.11 34.85 32.69 35.33 32.69" fill="#47524c"/><rect x="33.35" y="37.23" width="0.64" height="20.72" fill="#47524c"/></svg>