<svg xmlns="http://www.w3.org/2000/svg" xmlns:xlink="http://www.w3.org/1999/xlink" viewBox="0 0 100 100"><defs><linearGradient id="linear-gradient" x1="56.42" y1="2301.72" x2="73.6" y2="2301.72" gradientTransform="matrix(1.41, 0, 0, 1.81, -32.93, -4115.87)" gradientUnits="userSpaceOnUse"><stop offset="0" stop-color="#010101"/><stop offset="0" stop-color="#050505"/><stop offset="0.04" stop-color="#393939"/><stop offset="0.08" stop-color="#686868"/><stop offset="0.12" stop-color="#919191"/><stop offset="0.17" stop-color="#b3b3b3"/><stop offset="0.21" stop-color="#cfcfcf"/><stop offset="0.26" stop-color="#e4e4e4"/><stop offset="0.32" stop-color="#f3f3f3"/><stop offset="0.38" stop-color="#fcfcfc"/><stop offset="0.48" stop-color="#fff"/><stop offset="0.55" stop-color="#fbfbfb"/><stop offset="0.62" stop-color="#f0f0f0"/><stop offset="0.68" stop-color="#dedede"/><stop offset="0.75" stop-color="#c4c4c4"/><stop offset="0.81" stop-color="#a3a3a3"/><stop offset="0.87" stop-color="#7a7a7a"/><stop offset="0.93" stop-color="#494949"/><stop offset="0.98" stop-color="#121212"/><stop offset="1" stop-color="#010101"/></linearGradient><linearGradient id="linear-gradient-2" x1="81.01" y1="51.19" x2="78.04" y2="62.82" gradientUnits="userSpaceOnUse"><stop offset="0" stop-color="#fdfdfd"/><stop offset="0.5" stop-color="#e7e7e7"/><stop offset="1" stop-color="#cdcccc"/></linearGradient><linearGradient id="linear-gradient-3" x1="78.99" y1="77.75" x2="79.25" y2="78.25" xlink:href="#linear-gradient-2"/><linearGradient id="linear-gradient-4" x1="82.96" y1="51" x2="83.37" y2="92.97" gradientUnits="userSpaceOnUse"><stop offset="0.02" stop-color="#eaeaea"/><stop offset="0.39" stop-color="#dbdbdb"/><stop offset="0.41" stop-color="#dadada"/><stop offset="0.73" stop-color="#cdcccc"/><stop offset="1" stop-color="#b8b7b7"/><stop offset="1" stop-color="#b8b7b7"/></linearGradient><linearGradient id="linear-gradient-5" x1="78.98" y1="53.65" x2="72.15" y2="85.83" gradientUnits="userSpaceOnUse"><stop offset="0" stop-color="#fdfdfd"/><stop offset="0.15" stop-color="#f1f1f1"/><stop offset="0.92" stop-color="#d1d0d0"/><stop offset="1" stop-color="#cdcccc"/></linearGradient><linearGradient id="linear-gradient-6" x1="72.02" y1="76.13" x2="74.62" y2="70.34" gradientUnits="userSpaceOnUse"><stop offset="0.02" stop-color="#fefefe"/><stop offset="0.99" stop-color="#fbfbfb"/></linearGradient><linearGradient id="linear-gradient-7" x1="72.15" y1="75.84" x2="74.65" y2="70.28" gradientUnits="userSpaceOnUse"><stop offset="0.02" stop-color="#fdfdfd"/><stop offset="0.99" stop-color="#f6f6f6"/></linearGradient><linearGradient id="linear-gradient-8" x1="72.28" y1="75.55" x2="74.67" y2="70.21" gradientUnits="userSpaceOnUse"><stop offset="0.02" stop-color="#fbfbfb"/><stop offset="0.99" stop-color="#f2f1f2"/></linearGradient><linearGradient id="linear-gradient-9" x1="72.4" y1="75.27" x2="74.7" y2="70.15" gradientUnits="userSpaceOnUse"><stop offset="0.02" stop-color="#fafafa"/><stop offset="0.99" stop-color="#edeced"/></linearGradient><linearGradient id="linear-gradient-10" x1="72.52" y1="75" x2="74.73" y2="70.08" gradientUnits="userSpaceOnUse"><stop offset="0.02" stop-color="#f9f9f9"/><stop offset="0.99" stop-color="#e8e8e8"/></linearGradient><linearGradient id="linear-gradient-11" x1="72.64" y1="74.75" x2="74.76" y2="70.02" gradientUnits="userSpaceOnUse"><stop offset="0.02" stop-color="#f8f7f8"/><stop offset="0.99" stop-color="#e4e3e3"/></linearGradient><linearGradient id="linear-gradient-12" x1="72.75" y1="74.5" x2="74.78" y2="69.97" gradientUnits="userSpaceOnUse"><stop offset="0.02" stop-color="#f6f6f6"/><stop offset="0.99" stop-color="#e0dedf"/></linearGradient><linearGradient id="linear-gradient-13" x1="72.85" y1="74.27" x2="74.81" y2="69.92" gradientUnits="userSpaceOnUse"><stop offset="0.02" stop-color="#f5f5f5"/><stop offset="0.99" stop-color="#dbdada"/></linearGradient><linearGradient id="linear-gradient-14" x1="72.95" y1="74.05" x2="74.83" y2="69.86" gradientUnits="userSpaceOnUse"><stop offset="0.02" stop-color="#f4f3f3"/><stop offset="0.99" stop-color="#d7d5d6"/></linearGradient><linearGradient id="linear-gradient-15" x1="73.05" y1="73.83" x2="74.85" y2="69.81" gradientUnits="userSpaceOnUse"><stop offset="0.02" stop-color="#f2f2f2"/><stop offset="0.99" stop-color="#d2d1d1"/></linearGradient><linearGradient id="linear-gradient-16" x1="73.14" y1="73.63" x2="74.87" y2="69.77" gradientUnits="userSpaceOnUse"><stop offset="0.02" stop-color="#f1f1f1"/><stop offset="0.99" stop-color="#cecccd"/></linearGradient><linearGradient id="linear-gradient-17" x1="73.23" y1="73.42" x2="74.9" y2="69.72" gradientUnits="userSpaceOnUse"><stop offset="0.02" stop-color="#f0efef"/><stop offset="0.99" stop-color="#cac8c8"/></linearGradient><linearGradient id="linear-gradient-18" x1="73.32" y1="73.22" x2="74.92" y2="69.67" gradientUnits="userSpaceOnUse"><stop offset="0.02" stop-color="#eee"/><stop offset="0.99" stop-color="#c5c4c4"/></linearGradient><linearGradient id="linear-gradient-19" x1="73.41" y1="73.03" x2="74.94" y2="69.63" gradientUnits="userSpaceOnUse"><stop offset="0.02" stop-color="#ededed"/><stop offset="0.99" stop-color="#c1c0c0"/></linearGradient><linearGradient id="linear-gradient-20" x1="73.5" y1="72.83" x2="74.96" y2="69.58" gradientUnits="userSpaceOnUse"><stop offset="0.02" stop-color="#ecebeb"/><stop offset="0.99" stop-color="#bcbbbb"/></linearGradient><linearGradient id="linear-gradient-21" x1="73.58" y1="72.64" x2="74.98" y2="69.54" gradientUnits="userSpaceOnUse"><stop offset="0.02" stop-color="#eaeaea"/><stop offset="0.99" stop-color="#b8b7b7"/></linearGradient><linearGradient id="linear-gradient-22" x1="77.87" y1="50.87" x2="75.6" y2="59.74" xlink:href="#linear-gradient-2"/><linearGradient id="linear-gradient-23" x1="70.07" y1="59.9" x2="50.51" y2="73.15" xlink:href="#linear-gradient-2"/><linearGradient id="linear-gradient-24" x1="55.14" y1="70.87" x2="45.11" y2="70.87" gradientUnits="userSpaceOnUse"><stop offset="0.03" stop-color="#cac9c9"/><stop offset="0.1" stop-color="#bfbfbf"/><stop offset="0.21" stop-color="#b7b6b6"/><stop offset="0.38" stop-color="#b4b4b4"/><stop offset="1" stop-color="#fff"/></linearGradient><linearGradient id="linear-gradient-25" x1="52.62" y1="68.72" x2="53.04" y2="63.69" gradientUnits="userSpaceOnUse"><stop offset="0.44" stop-color="#f3f3f3"/><stop offset="0.5" stop-color="#e1e1e1"/><stop offset="0.6" stop-color="#c7c6c6"/><stop offset="0.71" stop-color="#b4b3b3"/><stop offset="0.83" stop-color="#a9a8a8"/><stop offset="0.94" stop-color="#a5a4a4"/></linearGradient><linearGradient id="linear-gradient-26" x1="45.59" y1="66.91" x2="78.92" y2="66.91" gradientUnits="userSpaceOnUse"><stop offset="0.01" stop-color="#e1e1e1"/><stop offset="0.01" stop-color="#e7e7e7"/><stop offset="0.02" stop-color="#f5f5f5"/><stop offset="0.03" stop-color="#fdfdfd"/><stop offset="0.06" stop-color="#fff"/><stop offset="0.16" stop-color="#c7c6c6"/><stop offset="0.28" stop-color="#cac9c9"/><stop offset="0.29" stop-color="#cac9c9"/><stop offset="0.42" stop-color="#dadad9"/><stop offset="0.55" stop-color="#e5e5e4"/><stop offset="0.75" stop-color="#e2e2e1"/><stop offset="0.88" stop-color="#dad9d9"/><stop offset="1" stop-color="#cbcbca"/><stop offset="1" stop-color="#cbcaca"/></linearGradient><linearGradient id="linear-gradient-27" x1="51.04" y1="59.52" x2="49.24" y2="66.15" xlink:href="#linear-gradient-25"/><linearGradient id="linear-gradient-28" x1="52.12" y1="55.54" x2="55.38" y2="63.01" gradientUnits="userSpaceOnUse"><stop offset="0" stop-color="#b2b2b2"/><stop offset="0.13" stop-color="#bcbcbc"/><stop offset="0.64" stop-color="#dedede"/><stop offset="0.91" stop-color="#ebebeb"/></linearGradient><linearGradient id="linear-gradient-29" x1="-250.54" y1="49.44" x2="-254.69" y2="68.13" gradientTransform="matrix(1, 0, -0.08, 1, 311.6, 0)" gradientUnits="userSpaceOnUse"><stop offset="0" stop-color="#b2b2b2"/><stop offset="0.14" stop-color="silver"/><stop offset="0.42" stop-color="#d8d8d8"/><stop offset="0.69" stop-color="#e6e6e6"/><stop offset="0.91" stop-color="#ebebeb"/></linearGradient><linearGradient id="linear-gradient-30" x1="53.93" y1="60.05" x2="52.4" y2="63.31" gradientUnits="userSpaceOnUse"><stop offset="0.13" stop-color="#a3a3a2"/><stop offset="0.29" stop-color="#adadac"/><stop offset="0.72" stop-color="#c2c1c1"/><stop offset="1" stop-color="#cac9c9"/></linearGradient><linearGradient id="linear-gradient-31" x1="53.34" y1="52.55" x2="55.33" y2="56.61" gradientUnits="userSpaceOnUse"><stop offset="0" stop-color="#b2b2b2"/><stop offset="0.15" stop-color="silver"/><stop offset="0.46" stop-color="#d8d8d8"/><stop offset="0.75" stop-color="#e6e6e6"/><stop offset="1" stop-color="#ebebeb"/></linearGradient><linearGradient id="linear-gradient-32" x1="45.95" y1="54.57" x2="46.75" y2="58.55" xlink:href="#linear-gradient-28"/><linearGradient id="linear-gradient-33" x1="30.63" y1="32.55" x2="28.15" y2="46.39" gradientUnits="userSpaceOnUse"><stop offset="0.14" stop-color="#7a7b7b"/><stop offset="0.34" stop-color="#7d7e7e"/><stop offset="0.52" stop-color="#888989"/><stop offset="0.69" stop-color="#9a9b9b"/><stop offset="0.85" stop-color="#b3b4b4"/><stop offset="0.99" stop-color="#d1d1d1"/></linearGradient><linearGradient id="linear-gradient-34" x1="-3685.81" y1="47.79" x2="-3676.97" y2="24.18" gradientTransform="matrix(-1, 0, 0, 1, -3618.55, 0)" gradientUnits="userSpaceOnUse"><stop offset="0" stop-color="#b0b0b0"/><stop offset="0.07" stop-color="#8e8e8e"/><stop offset="0.15" stop-color="#6b6a6a"/><stop offset="0.21" stop-color="#555454"/><stop offset="0.26" stop-color="#4d4c4c"/><stop offset="0.3" stop-color="#403f3f"/><stop offset="0.39" stop-color="#2c2c2c"/><stop offset="0.45" stop-color="#252525"/><stop offset="0.56" stop-color="#303030"/><stop offset="0.68" stop-color="#363636"/><stop offset="0.78" stop-color="#393939"/><stop offset="0.84" stop-color="#414141"/><stop offset="0.89" stop-color="#505050"/><stop offset="0.93" stop-color="#666"/><stop offset="0.98" stop-color="#818181"/><stop offset="1" stop-color="#939393"/></linearGradient><linearGradient id="linear-gradient-35" x1="45.1" y1="29.01" x2="54.25" y2="52.47" gradientUnits="userSpaceOnUse"><stop offset="0" stop-color="#fdfdfd"/><stop offset="0.07" stop-color="#eaeaea"/><stop offset="0.17" stop-color="#d5d4d4"/><stop offset="0.23" stop-color="#cdcccc"/><stop offset="0.24" stop-color="#cdcccc"/><stop offset="0.36" stop-color="#b9b9b9"/><stop offset="0.45" stop-color="#b2b2b2"/><stop offset="0.75" stop-color="#c3c2c2"/><stop offset="0.83" stop-color="#c7c6c6"/><stop offset="0.91" stop-color="#d4d3d3"/><stop offset="0.99" stop-color="#e9e9e9"/><stop offset="1" stop-color="#ebebeb"/></linearGradient><mask id="mask" x="46.35" y="38.76" width="25.28" height="15.53" maskUnits="userSpaceOnUse"><rect x="46.57" y="43.41" width="24.83" height="6.23" transform="translate(-13.58 27.07) rotate(-23.25)" fill="url(#linear-gradient)"/></mask><linearGradient id="linear-gradient-36" x1="64.5" y1="2302.81" x2="64.5" y2="2299.96" gradientTransform="matrix(1.3, -0.56, 0.71, 1.66, -1668.7, -3741.49)" gradientUnits="userSpaceOnUse"><stop offset="0.28" stop-color="#fdfdfd"/><stop offset="0.52" stop-color="#f6f6f6"/><stop offset="0.86" stop-color="#e4e4e4"/><stop offset="0.97" stop-color="#dcdcdc"/></linearGradient><linearGradient id="linear-gradient-37" x1="62.06" y1="53.83" x2="58.88" y2="22.82" gradientUnits="userSpaceOnUse"><stop offset="0.1" stop-color="#c9c9c9"/><stop offset="0.13" stop-color="silver"/><stop offset="0.26" stop-color="#8f8e8e"/><stop offset="0.37" stop-color="#6b6a6a"/><stop offset="0.46" stop-color="#555454"/><stop offset="0.52" stop-color="#4d4c4c"/><stop offset="0.58" stop-color="#595858"/><stop offset="0.75" stop-color="#797878"/><stop offset="0.9" stop-color="#8c8c8c"/><stop offset="1" stop-color="#939393"/></linearGradient><linearGradient id="linear-gradient-38" x1="33.19" y1="27.78" x2="34.74" y2="64.52" xlink:href="#linear-gradient-31"/><linearGradient id="linear-gradient-39" x1="-3658.78" y1="56.89" x2="-3650.62" y2="35.12" xlink:href="#linear-gradient-34"/><linearGradient id="linear-gradient-40" x1="-3655.97" y1="57.94" x2="-3653.29" y2="50.8" gradientTransform="matrix(-1, 0, 0, 1, -3618.55, 0)" gradientUnits="userSpaceOnUse"><stop offset="0" stop-color="#fdfdfd"/><stop offset="0.07" stop-color="#eaeaea"/><stop offset="0.18" stop-color="#d5d4d4"/><stop offset="0.25" stop-color="#cdcccc"/><stop offset="0.26" stop-color="#cdcccc"/><stop offset="0.37" stop-color="#b9b9b9"/><stop offset="0.45" stop-color="#b2b2b2"/><stop offset="0.56" stop-color="#bdbcbc"/><stop offset="0.68" stop-color="#c3c2c2"/><stop offset="0.81" stop-color="#c6c5c5"/><stop offset="0.89" stop-color="#cecdcd"/><stop offset="0.95" stop-color="#dddcdc"/><stop offset="1" stop-color="#ebebeb"/></linearGradient><linearGradient id="linear-gradient-41" x1="33.62" y1="67.65" x2="28.34" y2="38.83" gradientTransform="translate(18.95 -7.49) rotate(20.56)" gradientUnits="userSpaceOnUse"><stop offset="0" stop-color="#b0b0b0"/><stop offset="0.05" stop-color="#999"/><stop offset="0.18" stop-color="#676767"/><stop offset="0.28" stop-color="#434343"/><stop offset="0.37" stop-color="#2d2d2d"/><stop offset="0.43" stop-color="#252525"/><stop offset="0.7" stop-color="#303030"/><stop offset="1" stop-color="#363636"/></linearGradient><linearGradient id="linear-gradient-42" x1="-4669.08" y1="910.86" x2="-4655.82" y2="894.1" gradientTransform="matrix(-1, 0, 0, 1, -4631.4, -854.17)" gradientUnits="userSpaceOnUse"><stop offset="0" stop-color="#7e7e80"/><stop offset="0.15" stop-color="#6d6d6f"/><stop offset="0.73" stop-color="#343435"/><stop offset="1" stop-color="#1d1d1e"/></linearGradient><linearGradient id="linear-gradient-43" x1="-4658.45" y1="893.85" x2="-4666.03" y2="910.65" gradientTransform="matrix(-1, 0, 0, 1, -4631.34, -854.21)" gradientUnits="userSpaceOnUse"><stop offset="0" stop-color="#4c4b4e"/><stop offset="0.34" stop-color="#403f42"/><stop offset="0.95" stop-color="#202021"/><stop offset="1" stop-color="#1d1d1e"/></linearGradient><linearGradient id="linear-gradient-44" x1="-4664.71" y1="906.58" x2="-4660.09" y2="898.6" gradientTransform="matrix(-1, 0, 0, 1, -4631.33, -854.21)" xlink:href="#linear-gradient-43"/><linearGradient id="linear-gradient-45" x1="-4665.04" y1="905.97" x2="-4659.36" y2="898.56" gradientTransform="matrix(-0.94, 0.35, 0.35, 0.94, -4651.3, 840.88)" gradientUnits="userSpaceOnUse"><stop offset="0" stop-color="#7e7e80"/><stop offset="0.15" stop-color="#6d6d6f"/><stop offset="0.73" stop-color="#343435"/><stop offset="1" stop-color="#1d1d1e"/></linearGradient><linearGradient id="linear-gradient-46" x1="-4663.74" y1="903.82" x2="-4659.56" y2="899.64" gradientTransform="matrix(-1, 0, 0, 1, -4631.33, -854.21)" gradientUnits="userSpaceOnUse"><stop offset="0" stop-color="#818283"/><stop offset="0.15" stop-color="#757677"/><stop offset="0.43" stop-color="#555556"/><stop offset="0.79" stop-color="#212122"/><stop offset="1" stop-color="#010101"/></linearGradient><linearGradient id="linear-gradient-47" x1="-4663.34" y1="904.01" x2="-4661.4" y2="901.03" gradientTransform="matrix(-1, 0, 0, 1, -4631.34, -854.19)" gradientUnits="userSpaceOnUse"><stop offset="0" stop-color="#5e5c5c"/><stop offset="0.73" stop-color="#44403e"/><stop offset="1" stop-color="#393431"/></linearGradient><radialGradient id="radial-gradient" cx="-5487.02" cy="902.29" r="1.66" gradientTransform="matrix(-0.79, 0, 0, 1, -4287.53, -854.16)" gradientUnits="userSpaceOnUse"><stop offset="0.08" stop-color="#7fcbd9"/><stop offset="0.17" stop-color="#77bfcd"/><stop offset="0.34" stop-color="#639eaf"/><stop offset="0.57" stop-color="#43697d"/><stop offset="0.83" stop-color="#18233c"/></radialGradient><radialGradient id="radial-gradient-2" cx="-5487.02" cy="902.29" r="0.91" gradientTransform="matrix(-0.74, 0.28, 0.35, 0.94, -4329.39, 720.15)" gradientUnits="userSpaceOnUse"><stop offset="0.14" stop-color="#cb7ead"/><stop offset="0.3" stop-color="#a3658b"/><stop offset="0.66" stop-color="#3d2634"/><stop offset="0.87" stop-color="#010101"/></radialGradient><radialGradient id="radial-gradient-3" cx="-5485.96" cy="899.3" r="3.82" gradientTransform="matrix(-0.79, 0, 0, 1, -4287.53, -854.18)" gradientUnits="userSpaceOnUse"><stop offset="0.09" stop-color="#fff"/><stop offset="0.16" stop-color="#f3f3f3"/><stop offset="0.28" stop-color="#d2d2d2"/><stop offset="0.45" stop-color="#9d9d9d"/><stop offset="0.66" stop-color="#535353"/><stop offset="0.87" stop-color="#010101"/></radialGradient><radialGradient id="radial-gradient-4" cx="-5485.98" cy="900.78" r="1.16" gradientTransform="matrix(-0.74, 0.28, 0.35, 0.94, -4329.39, 720.15)" gradientUnits="userSpaceOnUse"><stop offset="0" stop-color="#fff"/><stop offset="0.09" stop-color="#f0f0f0"/><stop offset="0.28" stop-color="#c9c9c9"/><stop offset="0.53" stop-color="#898989"/><stop offset="0.83" stop-color="#333"/><stop offset="1" stop-color="#010101"/></radialGradient><linearGradient id="linear-gradient-48" x1="-4665.8" y1="907.74" x2="-4658.83" y2="897.11" xlink:href="#linear-gradient-45"/><linearGradient id="linear-gradient-49" x1="-4662.54" y1="910.5" x2="-4662.04" y2="909.74" gradientTransform="matrix(-0.94, 0.35, 0.35, 0.94, -4651.3, 840.88)" gradientUnits="userSpaceOnUse"><stop offset="0" stop-color="#5e5c5c"/><stop offset="0.41" stop-color="#413e3d"/><stop offset="1" stop-color="#0f0b0a"/></linearGradient><linearGradient id="linear-gradient-50" x1="-4662.63" y1="910.08" x2="-4661.89" y2="910.08" gradientTransform="matrix(-0.94, 0.35, 0.35, 0.94, -4651.3, 840.88)" gradientUnits="userSpaceOnUse"><stop offset="0" stop-color="#c4c4c3"/><stop offset="0.19" stop-color="#a6a5a4"/><stop offset="0.61" stop-color="#5a5857"/><stop offset="1" stop-color="#0f0b0a"/></linearGradient><radialGradient id="radial-gradient-5" cx="-5486.69" cy="909.55" r="0.6" xlink:href="#radial-gradient-4"/><linearGradient id="linear-gradient-51" x1="-4662.53" y1="895.02" x2="-4662.04" y2="894.27" xlink:href="#linear-gradient-49"/><linearGradient id="linear-gradient-52" x1="-4662.63" y1="894.6" x2="-4661.89" y2="894.6" xlink:href="#linear-gradient-50"/><radialGradient id="radial-gradient-6" cx="-5486.69" cy="894.08" r="0.6" xlink:href="#radial-gradient-4"/><linearGradient id="linear-gradient-53" x1="-4719.49" y1="965.8" x2="-4718.99" y2="965.04" gradientTransform="matrix(-0.94, 0.35, 0.35, 0.94, -4732.46, 804)" xlink:href="#linear-gradient-49"/><linearGradient id="linear-gradient-54" x1="-4719.58" y1="965.37" x2="-4718.84" y2="965.37" gradientTransform="matrix(-0.94, 0.35, 0.35, 0.94, -4732.46, 804)" xlink:href="#linear-gradient-50"/><radialGradient id="radial-gradient-7" cx="-5541.99" cy="964.85" r="0.6" gradientTransform="matrix(-0.74, 0.28, 0.35, 0.94, -4397.98, 678.56)" xlink:href="#radial-gradient-4"/><linearGradient id="linear-gradient-55" x1="-4605.58" y1="839.73" x2="-4605.09" y2="838.97" gradientTransform="matrix(-0.94, 0.35, 0.35, 0.94, -4570.13, 877.76)" xlink:href="#linear-gradient-49"/><linearGradient id="linear-gradient-56" x1="-4605.68" y1="839.3" x2="-4604.94" y2="839.3" gradientTransform="matrix(-0.94, 0.35, 0.35, 0.94, -4570.13, 877.76)" xlink:href="#linear-gradient-50"/><radialGradient id="radial-gradient-8" cx="-5431.39" cy="838.78" r="0.6" gradientTransform="matrix(-0.74, 0.28, 0.35, 0.94, -4260.79, 761.74)" xlink:href="#radial-gradient-4"/><linearGradient id="linear-gradient-57" x1="-4675.9" y1="876.66" x2="-4675.41" y2="875.91" gradientTransform="matrix(-0.94, 0.34, 0.34, 0.94, -4667.92, 809.69)" xlink:href="#linear-gradient-49"/><linearGradient id="linear-gradient-58" x1="-4676" y1="876.24" x2="-4675.25" y2="876.24" gradientTransform="matrix(-0.94, 0.34, 0.34, 0.94, -4667.92, 809.69)" xlink:href="#linear-gradient-50"/><radialGradient id="radial-gradient-9" cx="-5499.83" cy="863.62" r="0.6" gradientTransform="matrix(-0.74, 0.26, 0.34, 0.94, -4346.11, 689.1)" xlink:href="#radial-gradient-4"/><linearGradient id="linear-gradient-59" x1="-4600.68" y1="837.38" x2="-4600.19" y2="836.62" gradientTransform="matrix(-0.94, 0.34, 0.34, 0.94, -4578, 817.32)" xlink:href="#linear-gradient-49"/><linearGradient id="linear-gradient-60" x1="-4600.78" y1="836.95" x2="-4600.03" y2="836.95" gradientTransform="matrix(-0.94, 0.34, 0.34, 0.94, -4578, 817.32)" xlink:href="#linear-gradient-50"/><radialGradient id="radial-gradient-10" cx="-5425.66" cy="826.11" r="0.6" gradientTransform="matrix(-0.74, 0.26, 0.34, 0.94, -4271.6, 702.4)" xlink:href="#radial-gradient-4"/><linearGradient id="linear-gradient-61" x1="-4754.54" y1="1116.47" x2="-4754.05" y2="1115.72" gradientTransform="matrix(-1, 0.03, 0.03, 1, -4762.44, -919.12)" xlink:href="#linear-gradient-49"/><linearGradient id="linear-gradient-62" x1="-4754.64" y1="1116.05" x2="-4753.89" y2="1116.05" gradientTransform="matrix(-0.92, 0.38, 0.38, 0.92, -4795.97, 823.74)" xlink:href="#linear-gradient-50"/><radialGradient id="radial-gradient-11" cx="-5577.52" cy="1141.93" r="0.6" gradientTransform="matrix(-0.73, 0.31, 0.37, 0.93, -4448.52, 693.11)" xlink:href="#radial-gradient-4"/><linearGradient id="linear-gradient-63" x1="-4593.78" y1="748.88" x2="-4593.29" y2="748.12" gradientTransform="matrix(-0.94, 0.34, 0.34, 0.94, -4540.11, 894.84)" xlink:href="#linear-gradient-49"/><linearGradient id="linear-gradient-64" x1="-4593.88" y1="748.46" x2="-4593.13" y2="748.46" gradientTransform="matrix(-0.94, 0.34, 0.34, 0.94, -4540.11, 894.84)" xlink:href="#linear-gradient-50"/><radialGradient id="radial-gradient-12" cx="-5419.78" cy="735.24" r="0.6" gradientTransform="matrix(-0.74, 0.26, 0.34, 0.94, -4236.04, 780.7)" xlink:href="#radial-gradient-4"/><linearGradient id="linear-gradient-65" x1="-4658.86" y1="982.16" x2="-4658.37" y2="981.41" gradientTransform="matrix(-0.94, 0.34, 0.34, 0.94, -4687.19, 708.13)" xlink:href="#linear-gradient-49"/><linearGradient id="linear-gradient-66" x1="-4658.96" y1="981.74" x2="-4658.21" y2="981.74" gradientTransform="matrix(-0.94, 0.34, 0.34, 0.94, -4687.19, 708.13)" xlink:href="#linear-gradient-50"/><radialGradient id="radial-gradient-13" cx="-5481.9" cy="972.14" r="0.6" gradientTransform="matrix(-0.74, 0.27, 0.34, 0.94, -4367.27, 588.36)" xlink:href="#radial-gradient-4"/><linearGradient id="linear-gradient-67" x1="-4672.87" y1="836.94" x2="-4672.38" y2="836.19" gradientTransform="matrix(-0.93, 0.36, 0.36, 0.93, -4620.43, 981.01)" xlink:href="#linear-gradient-49"/><linearGradient id="linear-gradient-68" x1="-4672.96" y1="836.52" x2="-4672.22" y2="836.52" gradientTransform="matrix(-1, 0.01, 0.01, 1, -4649.13, -713.2)" xlink:href="#linear-gradient-50"/><radialGradient id="radial-gradient-14" cx="-5497.33" cy="848.12" r="0.6" gradientTransform="matrix(-0.73, 0.29, 0.36, 0.93, -4294.82, 858.67)" xlink:href="#radial-gradient-4"/><linearGradient id="linear-gradient-69" x1="-4620.03" y1="1005.25" x2="-4619.54" y2="1004.5" gradientTransform="matrix(-0.93, 0.36, 0.36, 0.93, -4637.53, 760.04)" xlink:href="#linear-gradient-49"/><linearGradient id="linear-gradient-70" x1="-4620.13" y1="1004.83" x2="-4619.39" y2="1004.83" gradientTransform="matrix(-0.93, 0.36, 0.36, 0.93, -4637.53, 760.04)" xlink:href="#linear-gradient-50"/><radialGradient id="radial-gradient-15" cx="-5445.12" cy="1010.25" r="0.6" gradientTransform="matrix(-0.73, 0.28, 0.36, 0.93, -4323.35, 642.85)" xlink:href="#radial-gradient-4"/><linearGradient id="linear-gradient-71" x1="-4697.42" y1="786.33" x2="-4696.93" y2="785.58" gradientTransform="matrix(-0.94, 0.34, 0.34, 0.94, -4657.69, 915.21)" xlink:href="#linear-gradient-49"/><linearGradient id="linear-gradient-72" x1="-4697.52" y1="785.91" x2="-4696.77" y2="785.91" gradientTransform="matrix(-0.94, 0.34, 0.34, 0.94, -4657.69, 915.21)" xlink:href="#linear-gradient-50"/><radialGradient id="radial-gradient-16" cx="-5519.62" cy="776.22" r="0.6" gradientTransform="matrix(-0.74, 0.27, 0.34, 0.94, -4329.09, 792.19)" xlink:href="#radial-gradient-4"/><linearGradient id="linear-gradient-73" x1="-4713.91" y1="1060.99" x2="-4713.42" y2="1060.23" gradientTransform="matrix(-0.93, 0.36, 0.36, 0.93, -4750.68, 771.13)" xlink:href="#linear-gradient-49"/><linearGradient id="linear-gradient-74" x1="-4714.01" y1="1060.57" x2="-4713.27" y2="1060.57" gradientTransform="matrix(-0.93, 0.36, 0.36, 0.93, -4750.68, 771.13)" xlink:href="#linear-gradient-50"/><radialGradient id="radial-gradient-17" cx="-5536.62" cy="1071.44" r="0.6" gradientTransform="matrix(-0.73, 0.29, 0.36, 0.93, -4414.67, 645.01)" xlink:href="#radial-gradient-4"/><linearGradient id="linear-gradient-75" x1="-4683.01" y1="889" x2="-4682.52" y2="888.25" gradientTransform="matrix(-0.93, 0.38, 0.38, 0.93, -4635.63, 998.9)" xlink:href="#linear-gradient-49"/><linearGradient id="linear-gradient-76" x1="-4683.11" y1="888.58" x2="-4682.36" y2="888.58" gradientTransform="matrix(-0.93, 0.38, 0.38, 0.93, -4635.63, 998.9)" xlink:href="#linear-gradient-50"/><radialGradient id="radial-gradient-18" cx="-5507.07" cy="911.54" r="0.6" gradientTransform="matrix(-0.73, 0.3, 0.37, 0.93, -4305.39, 874.72)" xlink:href="#radial-gradient-4"/><linearGradient id="linear-gradient-77" x1="-4638.84" y1="1044.24" x2="-4638.35" y2="1043.49" gradientTransform="matrix(-0.93, 0.37, 0.37, 0.93, -4665.18, 764.59)" xlink:href="#linear-gradient-49"/><linearGradient id="linear-gradient-78" x1="-4638.94" y1="1043.82" x2="-4638.19" y2="1043.82" gradientTransform="matrix(-0.93, 0.37, 0.37, 0.93, -4665.18, 764.59)" xlink:href="#linear-gradient-50"/><radialGradient id="radial-gradient-19" cx="-5463.45" cy="1055.47" r="0.6" gradientTransform="matrix(-0.73, 0.29, 0.36, 0.93, -4345.34, 644.74)" xlink:href="#radial-gradient-4"/><linearGradient id="linear-gradient-79" x1="-4749.68" y1="889.27" x2="-4749.19" y2="888.51" gradientTransform="matrix(-0.93, 0.37, 0.37, 0.93, -4712.01, 994.57)" xlink:href="#linear-gradient-49"/><linearGradient id="linear-gradient-80" x1="-4749.77" y1="888.85" x2="-4749.03" y2="888.85" gradientTransform="matrix(-0.93, 0.37, 0.37, 0.93, -4712.01, 994.57)" xlink:href="#linear-gradient-50"/><radialGradient id="radial-gradient-20" cx="-5572.5" cy="906.2" r="0.6" gradientTransform="matrix(-0.73, 0.3, 0.37, 0.93, -4368.37, 865.78)" xlink:href="#radial-gradient-4"/><linearGradient id="linear-gradient-81" x1="-4645.6" y1="865.28" x2="-4645.1" y2="864.51" gradientTransform="matrix(-0.95, 0.32, 0.32, 0.95, -4655.7, 696.46)" xlink:href="#linear-gradient-49"/><linearGradient id="linear-gradient-82" x1="-4645.7" y1="864.85" x2="-4644.95" y2="864.85" gradientTransform="matrix(-0.95, 0.32, 0.32, 0.95, -4655.7, 696.46)" xlink:href="#linear-gradient-50"/><radialGradient id="radial-gradient-21" cx="-5467.83" cy="834.65" r="0.6" gradientTransform="matrix(-0.75, 0.24, 0.32, 0.95, -4343.12, 578.41)" xlink:href="#radial-gradient-4"/><linearGradient id="linear-gradient-83" x1="-348.64" y1="-1144.22" x2="-348.16" y2="-1144.95" gradientTransform="matrix(-0.58, -0.82, -0.82, 0.58, -1099.51, 423.51)" xlink:href="#linear-gradient-49"/><linearGradient id="linear-gradient-84" x1="-348.84" y1="-1144.63" x2="-347.91" y2="-1144.63" gradientTransform="matrix(-0.58, -0.82, -0.82, 0.58, -1099.51, 423.51)" xlink:href="#linear-gradient-50"/><radialGradient id="radial-gradient-22" cx="-555.57" cy="-1944.55" r="0.6" gradientTransform="matrix(-0.53, -0.84, -0.63, 0.5, -1469.77, 562.39)" xlink:href="#radial-gradient-4"/><linearGradient id="linear-gradient-85" x1="-4606.66" y1="959.33" x2="-4606.17" y2="958.57" gradientTransform="matrix(-0.94, 0.34, 0.34, 0.94, -4629.33, 686.57)" xlink:href="#linear-gradient-49"/><linearGradient id="linear-gradient-86" x1="-4606.76" y1="958.91" x2="-4606.01" y2="958.91" gradientTransform="matrix(-0.94, 0.34, 0.34, 0.94, -4629.33, 686.57)" xlink:href="#linear-gradient-50"/><radialGradient id="radial-gradient-23" cx="-5431.24" cy="945.19" r="0.6" gradientTransform="matrix(-0.74, 0.26, 0.34, 0.94, -4322, 571.32)" xlink:href="#radial-gradient-4"/><linearGradient id="linear-gradient-87" x1="-4685.46" y1="782.5" x2="-4684.97" y2="781.74" gradientTransform="matrix(-0.94, 0.35, 0.35, 0.94, -4633.26, 956.46)" xlink:href="#linear-gradient-49"/><linearGradient id="linear-gradient-88" x1="-4685.56" y1="782.08" x2="-4684.82" y2="782.08" gradientTransform="matrix(-0.94, 0.35, 0.35, 0.94, -4633.26, 956.46)" xlink:href="#linear-gradient-50"/><radialGradient id="radial-gradient-24" cx="-5508.03" cy="779.15" r="0.6" gradientTransform="matrix(-0.74, 0.27, 0.35, 0.94, -4305.98, 833.93)" xlink:href="#radial-gradient-4"/><linearGradient id="linear-gradient-89" x1="-4718.68" y1="981.69" x2="-4718.19" y2="980.94" gradientTransform="matrix(-0.94, 0.35, 0.35, 0.94, -4737.44, 789.95)" xlink:href="#linear-gradient-49"/><linearGradient id="linear-gradient-90" x1="-4718.78" y1="981.27" x2="-4718.03" y2="981.27" gradientTransform="matrix(-0.94, 0.35, 0.35, 0.94, -4737.44, 789.95)" xlink:href="#linear-gradient-50"/><radialGradient id="radial-gradient-25" cx="-5540.76" cy="981.59" r="0.6" gradientTransform="matrix(-0.74, 0.28, 0.35, 0.94, -4402.84, 664.16)" xlink:href="#radial-gradient-4"/><linearGradient id="linear-gradient-91" x1="-1359.91" y1="-1229.54" x2="-1359.41" y2="-1230.31" gradientTransform="matrix(-0.49, -0.87, -0.87, 0.49, -1704.34, -525.39)" xlink:href="#linear-gradient-49"/><linearGradient id="linear-gradient-92" x1="-1360.08" y1="-1229.97" x2="-1359.18" y2="-1229.97" gradientTransform="matrix(-0.77, -0.64, -0.64, 0.77, -1794.82, 122.8)" xlink:href="#linear-gradient-50"/><radialGradient id="radial-gradient-26" cx="-1767.9" cy="-1948.64" r="0.6" gradientTransform="matrix(-0.67, -0.68, -0.47, 0.7, -2056.5, 220.99)" xlink:href="#radial-gradient-4"/><linearGradient id="linear-gradient-93" x1="-4627.61" y1="979.56" x2="-4627.11" y2="978.8" gradientTransform="matrix(-0.94, 0.34, 0.34, 0.94, -4654.49, 694.34)" xlink:href="#linear-gradient-49"/><linearGradient id="linear-gradient-94" x1="-4627.7" y1="979.13" x2="-4626.96" y2="979.13" gradientTransform="matrix(-0.94, 0.34, 0.34, 0.94, -4654.49, 694.34)" xlink:href="#linear-gradient-50"/><radialGradient id="radial-gradient-27" cx="-5452" cy="968.19" r="0.6" gradientTransform="matrix(-0.74, 0.27, 0.34, 0.94, -4342.34, 577.79)" xlink:href="#radial-gradient-4"/><linearGradient id="linear-gradient-95" x1="-4646.54" y1="728.9" x2="-4646.05" y2="728.14" gradientTransform="matrix(-0.94, 0.34, 0.34, 0.94, -4589.27, 929.43)" xlink:href="#linear-gradient-49"/><linearGradient id="linear-gradient-96" x1="-4646.64" y1="728.47" x2="-4645.89" y2="728.47" gradientTransform="matrix(-0.94, 0.34, 0.34, 0.94, -4589.27, 929.43)" xlink:href="#linear-gradient-50"/><radialGradient id="radial-gradient-28" cx="-5469.72" cy="714.87" r="0.6" gradientTransform="matrix(-0.74, 0.26, 0.34, 0.94, -4272.49, 810.12)" xlink:href="#radial-gradient-4"/><radialGradient id="radial-gradient-29" cx="-4747.13" cy="-92.52" r="12.76" gradientTransform="matrix(-0.73, 0.3, 0.37, 0.93, -3399.14, 1556.28)" gradientUnits="userSpaceOnUse"><stop offset="0.18" stop-color="#fff"/><stop offset="0.24" stop-color="#f3f3f3"/><stop offset="0.35" stop-color="#d2d2d2"/><stop offset="0.5" stop-color="#9d9d9d"/><stop offset="0.68" stop-color="#535353"/><stop offset="0.87" stop-color="#010101"/></radialGradient><radialGradient id="radial-gradient-30" cx="-4747.13" cy="-92.52" r="12.76" xlink:href="#radial-gradient-29"/><clipPath id="clip-path"><path d="M35.14,50.84a9.26,9.26,0,0,0-.08-5.05,6.24,6.24,0,0,1,1.37,6c-.83,2.52-3.3,3-4.36,2.37C31.7,53.89,34.19,53.74,35.14,50.84Z" fill="none"/></clipPath><linearGradient id="linear-gradient-97" x1="-4657.27" y1="896.03" x2="-4662.17" y2="902.13" gradientTransform="matrix(-1, 0, 0, 1, -4631.39, -854.18)" gradientUnits="userSpaceOnUse"><stop offset="0" stop-color="#fff"/><stop offset="0.09" stop-color="#d7d7d7"/><stop offset="0.22" stop-color="#9f9f9f"/><stop offset="0.36" stop-color="#6f6f6f"/><stop offset="0.5" stop-color="#474747"/><stop offset="0.63" stop-color="#292929"/><stop offset="0.76" stop-color="#131313"/><stop offset="0.89" stop-color="#050505"/><stop offset="1" stop-color="#010101"/></linearGradient><linearGradient id="linear-gradient-98" x1="-4667.55" y1="910.2" x2="-4664.81" y2="906.08" xlink:href="#linear-gradient-97"/><linearGradient id="linear-gradient-99" x1="-3658.56" y1="69.1" x2="-3641.66" y2="33.92" gradientTransform="matrix(-1, 0, 0, 1, -3618.55, 0)" xlink:href="#linear-gradient-37"/><linearGradient id="linear-gradient-100" x1="42.36" y1="26.14" x2="50.49" y2="47.97" gradientUnits="userSpaceOnUse"><stop offset="0" stop-color="#fff"/><stop offset="0.03" stop-color="#f9f9f9"/><stop offset="0.15" stop-color="#e3e3e3"/><stop offset="0.23" stop-color="#dbdbdb"/><stop offset="0.24" stop-color="#dadada"/><stop offset="0.36" stop-color="#c7c7c6"/><stop offset="0.45" stop-color="#c0c0bf"/><stop offset="0.75" stop-color="#d1d1d1"/><stop offset="0.83" stop-color="#d5d5d5"/><stop offset="0.91" stop-color="#e2e2e2"/><stop offset="0.99" stop-color="#f8f8f8"/><stop offset="1" stop-color="#fbfbfb"/></linearGradient><linearGradient id="linear-gradient-101" x1="48.01" y1="24.31" x2="55.7" y2="44.98" gradientUnits="userSpaceOnUse"><stop offset="0" stop-color="#efefef"/><stop offset="0.07" stop-color="#dcdcdc"/><stop offset="0.17" stop-color="#c7c6c7"/><stop offset="0.23" stop-color="#bfbebf"/><stop offset="0.24" stop-color="#bfbebf"/><stop offset="0.36" stop-color="#acabab"/><stop offset="0.45" stop-color="#a5a4a4"/><stop offset="0.75" stop-color="#b6b6b5"/><stop offset="0.83" stop-color="#babab9"/><stop offset="0.91" stop-color="#c7c7c6"/><stop offset="0.99" stop-color="#dcdcdc"/><stop offset="1" stop-color="#dedede"/></linearGradient><linearGradient id="linear-gradient-102" x1="41.22" y1="28.03" x2="16.62" y2="65.25" gradientUnits="userSpaceOnUse"><stop offset="0" stop-color="#fff"/><stop offset="0.18" stop-color="#f2f2f2"/><stop offset="0.5" stop-color="#d0cfcf"/><stop offset="0.62" stop-color="#c3c2c2"/><stop offset="0.85" stop-color="#c1c0c0"/><stop offset="0.94" stop-color="#bab9b9"/><stop offset="1" stop-color="#afaeae"/><stop offset="1" stop-color="#aeadad"/></linearGradient><linearGradient id="linear-gradient-103" x1="53.47" y1="60.79" x2="53.33" y2="65.87" gradientUnits="userSpaceOnUse"><stop offset="0" stop-color="#efefef"/><stop offset="0.04" stop-color="#e6e6e6"/><stop offset="0.25" stop-color="#c3c2c2"/><stop offset="0.41" stop-color="#adacac"/><stop offset="0.51" stop-color="#a5a4a4"/><stop offset="1" stop-color="#dedede"/></linearGradient><linearGradient id="linear-gradient-104" x1="53.98" y1="61.76" x2="53.88" y2="64.57" gradientUnits="userSpaceOnUse"><stop offset="0.13" stop-color="#a3a3a2"/><stop offset="0.5" stop-color="#c4c4c4"/><stop offset="0.8" stop-color="#d9d9d9"/><stop offset="1" stop-color="#e1e1e1"/></linearGradient><linearGradient id="linear-gradient-105" x1="53.79" y1="62.05" x2="53.79" y2="64.63" gradientUnits="userSpaceOnUse"><stop offset="0" stop-color="#efefef"/><stop offset="0.07" stop-color="#dcdcdc"/><stop offset="0.17" stop-color="#c7c6c7"/><stop offset="0.23" stop-color="#bfbebf"/><stop offset="0.24" stop-color="#bfbebf"/><stop offset="0.36" stop-color="#acabab"/><stop offset="0.45" stop-color="#a5a4a4"/><stop offset="1" stop-color="#dedede"/></linearGradient><linearGradient id="linear-gradient-106" x1="53.95" y1="62.64" x2="53.95" y2="64" gradientUnits="userSpaceOnUse"><stop offset="0.26" stop-color="#979797"/><stop offset="0.29" stop-color="#9b9b9b"/><stop offset="0.59" stop-color="#bebebe"/><stop offset="0.84" stop-color="#d3d3d3"/><stop offset="1" stop-color="#dbdbdb"/></linearGradient><linearGradient id="linear-gradient-107" x1="53.64" y1="63.03" x2="53.64" y2="64.14" gradientUnits="userSpaceOnUse"><stop offset="0" stop-color="#efefef"/><stop offset="0.04" stop-color="#e6e6e6"/><stop offset="0.21" stop-color="#c3c2c2"/><stop offset="0.36" stop-color="#adacac"/><stop offset="0.45" stop-color="#a5a4a4"/><stop offset="1" stop-color="#dedede"/></linearGradient><linearGradient id="linear-gradient-108" x1="49.07" y1="53.94" x2="46.6" y2="62.68" gradientUnits="userSpaceOnUse"><stop offset="0" stop-color="#b2b2b2"/><stop offset="0.3" stop-color="#c5c5c5"/><stop offset="0.78" stop-color="#ebebeb"/></linearGradient><linearGradient id="linear-gradient-109" x1="46.23" y1="60.31" x2="45.12" y2="69.14" gradientUnits="userSpaceOnUse"><stop offset="0.13" stop-color="#919292"/><stop offset="0.2" stop-color="#9fa0a0"/><stop offset="0.4" stop-color="silver"/><stop offset="0.59" stop-color="#d8d8d8"/><stop offset="0.76" stop-color="#e6e6e6"/><stop offset="0.91" stop-color="#ebebeb"/></linearGradient><linearGradient id="linear-gradient-110" x1="48.29" y1="61.69" x2="47.98" y2="62.92" gradientUnits="userSpaceOnUse"><stop offset="0.07" stop-color="#efefef"/><stop offset="0.12" stop-color="#e6e6e6"/><stop offset="0.36" stop-color="#c3c2c2"/><stop offset="0.55" stop-color="#adacac"/><stop offset="0.68" stop-color="#a5a4a4"/></linearGradient><linearGradient id="linear-gradient-111" x1="23.67" y1="36.51" x2="31.18" y2="50.15" gradientTransform="matrix(1, 0, 0, 1, 0, 0)" xlink:href="#linear-gradient-97"/><linearGradient id="linear-gradient-112" x1="54.09" y1="58.21" x2="53.49" y2="55.65" xlink:href="#linear-gradient-31"/><linearGradient id="linear-gradient-113" x1="46.73" y1="57.57" x2="46.53" y2="58.6" xlink:href="#linear-gradient-31"/><linearGradient id="linear-gradient-114" x1="44.9" y1="67.9" x2="89.34" y2="67.9" gradientUnits="userSpaceOnUse"><stop offset="0" stop-color="#e1e1e1"/><stop offset="0.01" stop-color="#e7e7e7"/><stop offset="0.01" stop-color="#f5f5f5"/><stop offset="0.02" stop-color="#fdfdfd"/><stop offset="0.04" stop-color="#fff"/><stop offset="0.14" stop-color="#c7c6c6"/><stop offset="0.17" stop-color="#cac9c9"/><stop offset="0.2" stop-color="#d5d4d4"/><stop offset="0.22" stop-color="#e6e6e6"/><stop offset="0.24" stop-color="#fefefe"/><stop offset="0.24" stop-color="#fff"/><stop offset="0.4" stop-color="#f0f0ef"/><stop offset="0.55" stop-color="#e5e5e4"/><stop offset="0.75" stop-color="#e2e2e1"/><stop offset="0.88" stop-color="#dad9d9"/><stop offset="1" stop-color="#cbcbca"/><stop offset="1" stop-color="#cbcaca"/></linearGradient><linearGradient id="linear-gradient-115" x1="49.29" y1="68.79" x2="51.44" y2="63.34" gradientUnits="userSpaceOnUse"><stop offset="0" stop-color="#fdfdfd"/><stop offset="0.32" stop-color="#edecec"/><stop offset="1" stop-color="#cdcccc"/></linearGradient><linearGradient id="linear-gradient-116" x1="80.42" y1="57.28" x2="80.42" y2="55.84" gradientUnits="userSpaceOnUse"><stop offset="0.02" stop-color="#e0e0e0"/><stop offset="0.53" stop-color="#bebebd"/><stop offset="1" stop-color="#a2a2a1"/></linearGradient><linearGradient id="linear-gradient-117" x1="80.44" y1="56.45" x2="81.15" y2="56.45" xlink:href="#linear-gradient-4"/><linearGradient id="linear-gradient-118" x1="72.62" y1="55.26" x2="72.62" y2="53.83" xlink:href="#linear-gradient-116"/><linearGradient id="linear-gradient-119" x1="72.64" y1="54.44" x2="73.35" y2="54.44" xlink:href="#linear-gradient-4"/><linearGradient id="linear-gradient-120" x1="80.42" y1="76.08" x2="80.42" y2="74.65" xlink:href="#linear-gradient-116"/><linearGradient id="linear-gradient-121" x1="80.44" y1="75.26" x2="81.15" y2="75.26" xlink:href="#linear-gradient-4"/><linearGradient id="linear-gradient-122" x1="72.62" y1="74.07" x2="72.62" y2="72.63" xlink:href="#linear-gradient-116"/><linearGradient id="linear-gradient-123" x1="72.64" y1="73.24" x2="73.35" y2="73.24" xlink:href="#linear-gradient-4"/><linearGradient id="linear-gradient-124" x1="77.12" y1="58.1" x2="56.03" y2="70.37" gradientUnits="userSpaceOnUse"><stop offset="0" stop-color="#fff"/><stop offset="0.51" stop-color="#fdfdfd"/><stop offset="0.69" stop-color="#f7f6f6"/><stop offset="0.83" stop-color="#ebebeb"/><stop offset="0.93" stop-color="#dadada"/><stop offset="1" stop-color="#cbcaca"/></linearGradient></defs><title>Icons</title><g style="isolation:isolate"><g id="Layer_1" data-name="Layer 1"><path d="M82.24,53.58,74,51.44a1.31,1.31,0,0,0-.92.1l-1.54.74.82.21a1,1,0,0,0,0,.24v20A2.18,2.18,0,0,0,74,74.88L82.21,77a1.33,1.33,0,0,0,1.66-1.29v-20A2.16,2.16,0,0,0,82.24,53.58Z" fill="url(#linear-gradient-2)"/><polygon points="74.86 74.79 73.33 75.54 81.56 77.67 83.09 76.93 74.86 74.79" fill="url(#linear-gradient-3)"/><polygon points="82.34 76.47 83.87 75.72 83.87 55.68 82.34 56.43 82.34 76.47" fill="url(#linear-gradient-4)"/><path d="M70.81,53.47v20a2.17,2.17,0,0,0,1.63,2.11l8.23,2.13a1.33,1.33,0,0,0,1.67-1.28v-20a2.17,2.17,0,0,0-1.63-2.11l-8.24-2.13A1.32,1.32,0,0,0,70.81,53.47Z" fill="url(#linear-gradient-5)"/><g style="mix-blend-mode:multiply"><path d="M75.47,68.64H70.81v4.88a2.17,2.17,0,0,0,1.63,2.11l1.69.44,4.52-4.51Z" fill="#fff"/><path d="M75.47,68.64H70.81v4.7a2.05,2.05,0,0,0,1.65,2l1.69.41,4.5-4.17Z" fill="url(#linear-gradient-6)"/><path d="M75.47,68.64H70.81v4.51A1.94,1.94,0,0,0,72.48,75l1.69.38,4.48-3.83Z" fill="url(#linear-gradient-7)"/><path d="M75.47,68.64H70.81V73c0,1,.73,1.48,1.69,1.73l1.68.35,4.47-3.49Z" fill="url(#linear-gradient-8)"/><path d="M75.47,68.64H70.81v4.14c0,1,.75,1.36,1.71,1.6l1.68.33,4.45-3.15Z" fill="url(#linear-gradient-9)"/><path d="M75.47,68.64H70.81v4c0,1,.77,1.22,1.73,1.47l1.68.3,4.43-2.81Z" fill="url(#linear-gradient-10)"/><path d="M75.47,68.64H70.81V72.4c0,1,.79,1.1,1.75,1.35l1.67.27,4.42-2.47Z" fill="url(#linear-gradient-11)"/><path d="M75.47,68.64H70.81v3.59c0,1,.81,1,1.77,1.22l1.67.25,4.4-2.14Z" fill="url(#linear-gradient-12)"/><path d="M75.47,68.64H70.81V72c0,1,.83.85,1.79,1.1l1.66.22,4.39-1.8Z" fill="url(#linear-gradient-13)"/><path d="M75.47,68.64H70.81v3.22c0,1,.85.72,1.81,1l1.66.19,4.37-1.46Z" fill="url(#linear-gradient-14)"/><path d="M75.47,68.64H70.81v3c0,1,.87.59,1.83.84l1.66.17,4.35-1.12Z" fill="url(#linear-gradient-15)"/><path d="M75.47,68.64H70.81v2.85c0,1,.89.46,1.85.71l1.65.14,4.34-.78Z" fill="url(#linear-gradient-16)"/><path d="M75.47,68.64H70.81v2.66c0,1,.91.34,1.87.59l1.65.11,4.32-.44Z" fill="url(#linear-gradient-17)"/><path d="M75.47,68.64H70.81v2.48c0,1,.93.21,1.89.46l1.64.08,4.31-.1Z" fill="url(#linear-gradient-18)"/><path d="M75.47,68.64H70.81v2.29c0,1,1,.09,1.91.34l1.64,0,4.29.24Z" fill="url(#linear-gradient-19)"/><path d="M75.47,68.64H70.81v2.11c0,1,1,0,1.93.2l1.64,0,4.27.58Z" fill="url(#linear-gradient-20)"/><path d="M75.47,68.64H70.81v1.92c0,1,1-.17,2,.08h1.63l4.26.92Z" fill="url(#linear-gradient-21)"/></g><polygon points="74.01 51.44 72.47 52.19 80.71 54.32 82.24 53.58 74.01 51.44" fill="url(#linear-gradient-22)"/><polygon points="73.71 57.38 49.28 69.23 53.04 70.2 78.85 58.71 73.71 57.38" fill="url(#linear-gradient-23)"/><path d="M54.47,65.07H46.32l-.68,8.5.76,2c.37.66,2,1.15,4,1.15h.08c2,0,3.59-.49,4-1.15,0,0,.77-2,.77-2Z" fill="url(#linear-gradient-24)"/><path d="M53.4,66.55a2.35,2.35,0,0,0,1.73-.83V61.85h-4a3.69,3.69,0,0,0-.31,1.5C50.82,65.12,52,66.55,53.4,66.55Z" fill="url(#linear-gradient-25)"/><path d="M55.13,69.27V65.73a2.28,2.28,0,0,1-.93.65,2,2,0,0,1-.8.16c-1.42,0-2.57-1.42-2.57-3.19A3.77,3.77,0,0,1,51.06,62H45.59V73.42c0,.93,2.13,1.69,4.77,1.69A9.87,9.87,0,0,0,54,74.5a42.82,42.82,0,0,1,24.15-2.78.57.57,0,0,0,.68-.56V58.71Z" fill="url(#linear-gradient-26)"/><path d="M50.36,60.34c-2.64,0-4.77.75-4.77,1.69s2.13,1.69,4.77,1.69S55.13,63,55.13,62,53,60.34,50.36,60.34Z" fill="url(#linear-gradient-27)"/><path d="M57.9,54.57l-8.37,4c-1.34,2.31-.29,1.66-.46,4.14,0,0,1.71.7,1.71.71l0,0v-.1c0-1.76,1.16-3.19,2.58-3.19a2.37,2.37,0,0,1,1.82.93C55.12,58.58,56.7,55.13,57.9,54.57Z" fill="url(#linear-gradient-28)"/><path d="M53.4,60.16c-1.42,0-2.58,1.43-2.58,3.19v.1l4.41-2a.08.08,0,0,0,0,0,3,3,0,0,1,0-.31A2.37,2.37,0,0,0,53.4,60.16Z" fill="url(#linear-gradient-29)"/><path d="M53.4,60.16a3,3,0,0,0-2.58,3.19v.1l4.41-2A2.07,2.07,0,0,0,53.4,60.16Z" fill="url(#linear-gradient-30)"/><polygon points="48.68 54.7 49.53 58.62 49.67 58.56 57.9 54.57 58.03 54.5 58.78 49.81 48.68 54.7" fill="url(#linear-gradient-31)"/><polygon points="49.53 58.62 43.77 57.13 42.92 53.21 48.68 54.7 49.53 58.62" fill="url(#linear-gradient-32)"/><g style="isolation:isolate"><polygon points="48.68 54.7 42.92 53.21 53.01 48.31 58.78 49.81 48.68 54.7" fill="#9d9d9c"/></g><path d="M23.11,51.86c-4.1-3-11.34-13.79-2.48-17.73,7.67-3.41,17.23,4,20.64,8S25.64,53.42,25.64,53.42,26.35,54.25,23.11,51.86Z" fill="url(#linear-gradient-33)"/><path d="M68,33.29c-2.31-6.16-8.11-9.68-13-7.86l-1.46.51-.52.19c4.78-1.31,10.24,2.27,12.46,8.2,2,5.41.77,11.22-3,13.81h0v0l1.57-.75C68.4,45.28,70.16,39.15,68,33.29Z" fill="url(#linear-gradient-34)"/><path d="M65.48,34.33C63.26,28.4,57.8,24.82,53,26.13l-23.7,8.4,9.37,25,5.52-2.63,18.27-8.72h0C66.25,45.55,67.51,39.74,65.48,34.33Z" fill="url(#linear-gradient-35)"/><g mask="url(#mask)"><path d="M63.25,47.81c.53-.56,1.1-1.09,1.6-1.68a7.44,7.44,0,0,0,.71-1A10.09,10.09,0,0,0,66.11,44a26.48,26.48,0,0,0,1.48-4.17,3.47,3.47,0,0,0-1.6.27L46.35,48.56l2.46,5.73,14-6Z" fill="url(#linear-gradient-36)" style="mix-blend-mode:multiply"/></g><path d="M65.48,34.33c-2.24-6-7.74-9.55-12.54-8.18l.6-.21A6.14,6.14,0,0,1,57,25.73c3.68.84,7.15,4,8.83,8.48a13.44,13.44,0,0,1-.69,11.61,6.2,6.2,0,0,1-2.59,2.3l-.06,0h0C66.25,45.55,67.51,39.74,65.48,34.33Z" fill="url(#linear-gradient-37)"/><path d="M24.18,50.71c2.58,6.89,9.08,10.83,14.51,8.79s7.73-9.27,5.14-16.17-9.08-10.83-14.51-8.8S21.59,43.81,24.18,50.71Z" fill="url(#linear-gradient-38)"/><path d="M38.78,57.93l-1.15.54A7.56,7.56,0,0,0,38.78,57.93Z" fill="none"/><path d="M42.3,43.77c-2.27-6-7.84-9.58-12.66-8.17L25.79,37l8.64,23,3.19-1.52h0l1.15-.54C42.87,55.54,44.45,49.53,42.3,43.77Z" fill="url(#linear-gradient-39)"/><path d="M37.62,58.48h0Z" fill="url(#linear-gradient-40)"/><ellipse cx="30.11" cy="48.48" rx="9.68" ry="12.3" transform="translate(-15.11 13.66) rotate(-20.56)" fill="url(#linear-gradient-41)"/><ellipse cx="30.75" cy="48.2" rx="7.7" ry="9.78" transform="translate(-14.97 13.87) rotate(-20.56)" fill="url(#linear-gradient-42)"/><ellipse cx="30.88" cy="48.32" rx="6.85" ry="8.7" transform="translate(-15.01 13.93) rotate(-20.56)" fill="url(#linear-gradient-43)"/><ellipse cx="30.88" cy="48.35" rx="3.77" ry="4.79" transform="matrix(0.94, -0.35, 0.35, 0.94, -15.02, 13.93)" fill="url(#linear-gradient-44)"/><path d="M31.5,53.09a4.85,4.85,0,0,1-4.21-3.39,5.52,5.52,0,0,1-.15-3.6,3.44,3.44,0,0,1,2-2.29,3.47,3.47,0,0,1,3,.38A5.65,5.65,0,0,1,34.47,47c.94,2.5.09,5.14-1.89,5.89A3.07,3.07,0,0,1,31.5,53.09Zm-4.09-3.43c.91,2.44,3.22,3.84,5.13,3.12s2.73-3.29,1.81-5.73a5.37,5.37,0,0,0-2.19-2.75,3.17,3.17,0,0,0-4.91,1.84A5.42,5.42,0,0,0,27.41,49.66Z" fill="#111"/><path d="M27.16,49.75c-1-2.61-.11-5.36,1.95-6.13s4.52.73,5.49,3.34.11,5.35-1.94,6.12S28.14,52.36,27.16,49.75Zm.12,0c.94,2.53,3.33,4,5.32,3.23s2.83-3.4,1.88-5.93-3.33-4-5.32-3.23S26.33,47.18,27.28,49.7Z" fill="url(#linear-gradient-45)"/><ellipse cx="30.88" cy="48.35" rx="2.59" ry="3.28" transform="translate(-15.02 13.93) rotate(-20.56)" fill="url(#linear-gradient-46)"/><ellipse cx="30.88" cy="48.35" rx="1.85" ry="2.34" transform="translate(-15.02 13.93) rotate(-20.56)" fill="url(#linear-gradient-47)"/><ellipse cx="30.88" cy="48.35" rx="1.3" ry="1.66" transform="translate(-15.02 13.93) rotate(-20.56)" fill="url(#radial-gradient)"/><path d="M30.21,48.6a.73.73,0,1,0,.35-1.09A.82.82,0,0,0,30.21,48.6Z" fill="url(#radial-gradient-2)" style="mix-blend-mode:screen"/><ellipse cx="30.88" cy="48.35" rx="1.6" ry="2.03" transform="translate(-15.02 13.93) rotate(-20.56)" fill="url(#radial-gradient-3)" style="mix-blend-mode:screen"/><path d="M29.87,47.33a.42.42,0,1,1-.16.49A.37.37,0,0,1,29.87,47.33Z" fill="url(#radial-gradient-4)" style="mix-blend-mode:screen"/><path d="M26,50.17c-1.28-3.4-.14-7,2.54-8s5.89.94,7.16,4.34.14,7-2.54,8S27.3,53.57,26,50.17Zm-.13,0c1.31,3.49,4.61,5.49,7.35,4.46s3.92-4.71,2.61-8.19S31.25,41,28.51,42,24.59,46.73,25.9,50.22Z" fill="url(#linear-gradient-48)"/><path d="M31.72,54.81c-2.3,0-4.67-1.82-5.72-4.63-1.28-3.41-.14-7,2.56-8a4.7,4.7,0,0,1,4.14.53,7.46,7.46,0,0,1,3.06,3.83A7.57,7.57,0,0,1,36,51.43a4.71,4.71,0,0,1-2.78,3.11A4.21,4.21,0,0,1,31.72,54.81Zm-5.61-4.67c1.26,3.35,4.42,5.28,7,4.29a4.6,4.6,0,0,0,2.7-3,7.79,7.79,0,0,0-3.22-8.6,4.62,4.62,0,0,0-4-.52C26,43.26,24.85,46.79,26.11,50.14Z" fill="#030202"/><g opacity="0.61" style="mix-blend-mode:screen"><path d="M31.47,49.5c.13.08.41,0,.57-.45s0-.72-.1-.8-.21,0-.37.52S31.34,49.43,31.47,49.5Z" fill="#010101"/><path d="M31.49,49.47c.12.08.39,0,.54-.43s0-.68-.1-.75-.2,0-.34.49S31.37,49.4,31.49,49.47Z" fill="#0a0b0e"/><path d="M31.51,49.44c.12.07.37,0,.51-.4s0-.65-.09-.71-.19,0-.33.45S31.4,49.37,31.51,49.44Z" fill="#15161a"/><path d="M31.53,49.41c.11.06.35,0,.48-.38s0-.6-.09-.67-.17,0-.3.43S31.43,49.34,31.53,49.41Z" fill="#212126"/><path d="M31.56,49.38c.1.06.32,0,.44-.36s0-.56-.08-.62-.17,0-.29.4S31.46,49.31,31.56,49.38Z" fill="#2c2c31"/><path d="M31.58,49.34c.09.06.3,0,.41-.32s0-.53-.08-.59-.15,0-.26.38S31.48,49.29,31.58,49.34Z" fill="#39383d"/><path d="M31.6,49.31c.09,0,.28,0,.38-.3s0-.49-.07-.54-.14,0-.25.35S31.51,49.26,31.6,49.31Z" fill="#47454b"/><path d="M31.62,49.28c.08,0,.26,0,.35-.28s0-.45-.06-.5-.14,0-.23.32S31.54,49.23,31.62,49.28Z" fill="#555258"/><path d="M31.64,49.25c.07,0,.24,0,.32-.26s0-.41-.06-.45-.12,0-.21.29S31.57,49.2,31.64,49.25Z" fill="#646167"/><path d="M31.66,49.21c.07,0,.22,0,.3-.22s0-.38-.06-.42-.11,0-.19.27S31.6,49.18,31.66,49.21Z" fill="#747177"/><path d="M31.69,49.18s.19,0,.26-.2,0-.34-.06-.37-.1,0-.17.24S31.63,49.15,31.69,49.18Z" fill="#858287"/><path d="M31.71,49.15c.05,0,.17,0,.23-.18s0-.3-.05-.32-.09,0-.15.2S31.66,49.12,31.71,49.15Z" fill="#979499"/><path d="M31.73,49.12s.15,0,.2-.16,0-.26-.05-.28-.08,0-.13.18S31.69,49.09,31.73,49.12Z" fill="#aaa7ab"/><path d="M31.75,49.09s.13,0,.17-.13,0-.23,0-.24-.07,0-.11.15S31.71,49.06,31.75,49.09Z" fill="#bebbbf"/><path d="M31.77,49.05s.1,0,.14-.1a.17.17,0,0,0,0-.2s-.05,0-.09.13S31.74,49,31.77,49.05Z" fill="#d2d0d3"/><path d="M31.79,49s.08,0,.11-.08a.13.13,0,0,0,0-.15s-.05,0-.07.09S31.77,49,31.79,49Z" fill="#e8e7e9"/><path d="M31.81,49s.06,0,.08-.05a.13.13,0,0,0,0-.12s0,0-.06.07S31.8,49,31.81,49Z" fill="#fff"/></g><path d="M33.16,55.76a.54.54,0,0,0,.65.39A.61.61,0,0,0,33.39,55,.54.54,0,0,0,33.16,55.76Z" fill="url(#linear-gradient-49)"/><path d="M33.25,55.73a.39.39,0,1,0,.7-.27.45.45,0,0,0-.52-.31A.44.44,0,0,0,33.25,55.73Z" fill="url(#linear-gradient-50)"/><path d="M33.34,55.3c.08,0,.19,0,.23.14a.19.19,0,0,1-.08.25.19.19,0,0,1-.23-.14C33.22,55.44,33.25,55.33,33.34,55.3Z" fill="url(#radial-gradient-5)" style="mix-blend-mode:screen"/><path d="M27.72,41.27a.48.48,0,1,0,.23-.72A.55.55,0,0,0,27.72,41.27Z" fill="url(#linear-gradient-51)"/><path d="M27.81,41.24a.39.39,0,1,0,.7-.27.39.39,0,1,0-.7.27Z" fill="url(#linear-gradient-52)"/><path d="M27.9,40.81c.09,0,.19,0,.23.14s0,.22-.08.25-.19,0-.23-.14A.19.19,0,0,1,27.9,40.81Z" fill="url(#radial-gradient-6)" style="mix-blend-mode:screen"/><path d="M24.74,50.65a.54.54,0,0,0,.65.4.56.56,0,0,0,.23-.73.55.55,0,0,0-.65-.39A.54.54,0,0,0,24.74,50.65Z" fill="url(#linear-gradient-53)"/><path d="M24.83,50.62a.43.43,0,0,0,.51.31.43.43,0,0,0,.19-.57c-.1-.25-.33-.39-.52-.31A.43.43,0,0,0,24.83,50.62Z" fill="url(#linear-gradient-54)"/><path d="M24.92,50.19a.2.2,0,0,1,.23.14.21.21,0,0,1-.08.26.22.22,0,0,1-.15-.4Z" fill="url(#radial-gradient-7)" style="mix-blend-mode:screen"/><path d="M36.14,46.37a.48.48,0,1,0,.23-.72A.55.55,0,0,0,36.14,46.37Z" fill="url(#linear-gradient-55)"/><path d="M36.23,46.34a.43.43,0,0,0,.52.31.48.48,0,0,0-.33-.88A.43.43,0,0,0,36.23,46.34Z" fill="url(#linear-gradient-56)"/><path d="M36.32,45.91a.22.22,0,1,1-.08.26A.21.21,0,0,1,36.32,45.91Z" fill="url(#radial-gradient-8)" style="mix-blend-mode:screen"/><path d="M28.33,55.14a.54.54,0,0,0,.64.4.53.53,0,0,0,.24-.71.54.54,0,0,0-.64-.4A.53.53,0,0,0,28.33,55.14Z" fill="url(#linear-gradient-57)"/><path d="M28.42,55.11a.38.38,0,1,0,.7-.25.44.44,0,0,0-.51-.32A.42.42,0,0,0,28.42,55.11Z" fill="url(#linear-gradient-58)"/><path d="M28.51,54.68a.2.2,0,0,1,.23.15.19.19,0,0,1-.08.25.19.19,0,0,1-.23-.14A.2.2,0,0,1,28.51,54.68Z" fill="url(#radial-gradient-9)" style="mix-blend-mode:screen"/><path d="M32.55,41.87a.54.54,0,0,0,.64.4.53.53,0,0,0,.24-.71.54.54,0,0,0-.64-.4A.53.53,0,0,0,32.55,41.87Z" fill="url(#linear-gradient-59)"/><path d="M32.64,41.84a.43.43,0,0,0,.51.32.43.43,0,0,0,.19-.57.43.43,0,0,0-.51-.32A.42.42,0,0,0,32.64,41.84Z" fill="url(#linear-gradient-60)"/><path d="M32.73,41.41a.2.2,0,0,1,.23.15.19.19,0,0,1-.08.25.19.19,0,0,1-.23-.14A.2.2,0,0,1,32.73,41.41Z" fill="url(#radial-gradient-10)" style="mix-blend-mode:screen"/><ellipse cx="24.93" cy="44.74" rx="0.47" ry="0.59" transform="translate(-14.13 11.6) rotate(-20.56)" fill="url(#linear-gradient-61)"/><path d="M24.58,44.88a.42.42,0,0,0,.52.3.44.44,0,0,0,.17-.59.42.42,0,0,0-.52-.29A.44.44,0,0,0,24.58,44.88Z" fill="url(#linear-gradient-62)"/><path d="M24.66,44.45a.18.18,0,0,1,.23.13.19.19,0,0,1-.07.26.18.18,0,0,1-.23-.13A.19.19,0,0,1,24.66,44.45Z" fill="url(#radial-gradient-11)" style="mix-blend-mode:screen"/><path d="M36.39,52.12a.55.55,0,0,0,.65.4.54.54,0,0,0,.23-.72.48.48,0,1,0-.88.32Z" fill="url(#linear-gradient-63)"/><path d="M36.48,52.08a.45.45,0,0,0,.51.33.43.43,0,0,0,.19-.57.38.38,0,1,0-.7.24Z" fill="url(#linear-gradient-64)"/><path d="M36.58,51.66a.22.22,0,0,1,.14.4.2.2,0,0,1-.23-.15A.18.18,0,0,1,36.58,51.66Z" fill="url(#radial-gradient-12)" style="mix-blend-mode:screen"/><path d="M26.31,42.08a.55.55,0,0,0,.65.4.54.54,0,0,0,.24-.71.55.55,0,0,0-.65-.4A.53.53,0,0,0,26.31,42.08Z" fill="url(#linear-gradient-65)"/><path d="M26.4,42.05a.39.39,0,1,0,.19-.57A.44.44,0,0,0,26.4,42.05Z" fill="url(#linear-gradient-66)"/><path d="M26.5,41.62c.08,0,.19,0,.23.15a.18.18,0,0,1-.09.25.22.22,0,0,1-.14-.4Z" fill="url(#radial-gradient-13)" style="mix-blend-mode:screen"/><path d="M34.57,55a.48.48,0,1,0,.22-.73A.55.55,0,0,0,34.57,55Z" fill="url(#linear-gradient-67)"/><ellipse cx="35" cy="54.78" rx="0.37" ry="0.47" transform="translate(-17.01 15.78) rotate(-20.56)" fill="url(#linear-gradient-68)"/><path d="M34.74,54.48a.19.19,0,0,1,.23.14.17.17,0,1,1-.31.12A.21.21,0,0,1,34.74,54.48Z" fill="url(#radial-gradient-14)" style="mix-blend-mode:screen"/><path d="M35.23,44.55a.48.48,0,1,0,.87-.34.48.48,0,1,0-.87.34Z" fill="url(#linear-gradient-69)"/><path d="M35.32,44.51a.42.42,0,0,0,.51.31.44.44,0,0,0,.18-.58.38.38,0,1,0-.69.27Z" fill="url(#linear-gradient-70)"/><path d="M35.4,44.08a.19.19,0,0,1,.23.14.19.19,0,0,1-.08.26.2.2,0,0,1-.23-.14A.2.2,0,0,1,35.4,44.08Z" fill="url(#radial-gradient-15)" style="mix-blend-mode:screen"/><path d="M25.65,52.48a.49.49,0,1,0,.89-.32.57.57,0,0,0-.65-.4A.55.55,0,0,0,25.65,52.48Z" fill="url(#linear-gradient-71)"/><path d="M25.74,52.45a.39.39,0,1,0,.71-.25.44.44,0,0,0-.52-.32A.43.43,0,0,0,25.74,52.45Z" fill="url(#linear-gradient-72)"/><path d="M25.84,52a.22.22,0,1,1-.09.26A.2.2,0,0,1,25.84,52Z" fill="url(#radial-gradient-16)" style="mix-blend-mode:screen"/><path d="M25.22,43.35a.53.53,0,0,0,.65.38.54.54,0,0,0,.22-.72.53.53,0,0,0-.65-.38A.54.54,0,0,0,25.22,43.35Z" fill="url(#linear-gradient-73)"/><path d="M25.31,43.32a.42.42,0,0,0,.51.3A.44.44,0,0,0,26,43a.38.38,0,1,0-.69.28Z" fill="url(#linear-gradient-74)"/><path d="M25.39,42.89a.18.18,0,0,1,.23.13.19.19,0,0,1-.08.26.2.2,0,0,1-.23-.14A.18.18,0,0,1,25.39,42.89Z" fill="url(#radial-gradient-17)" style="mix-blend-mode:screen"/><path d="M35.68,53.7a.53.53,0,0,0,.65.37.55.55,0,0,0,.21-.73.53.53,0,0,0-.65-.37A.54.54,0,0,0,35.68,53.7Z" fill="url(#linear-gradient-75)"/><path d="M35.76,53.66a.43.43,0,0,0,.52.3.44.44,0,0,0,.17-.58.42.42,0,0,0-.52-.3A.44.44,0,0,0,35.76,53.66Z" fill="url(#linear-gradient-76)"/><path d="M35.84,53.23a.18.18,0,0,1,.23.13.19.19,0,0,1-.07.26.18.18,0,0,1-.23-.13A.19.19,0,0,1,35.84,53.23Z" fill="url(#radial-gradient-18)" style="mix-blend-mode:screen"/><path d="M34,43a.55.55,0,0,0,.65.39.55.55,0,0,0,.22-.73.53.53,0,0,0-.65-.38A.54.54,0,0,0,34,43Z" fill="url(#linear-gradient-77)"/><path d="M34.08,43a.38.38,0,1,0,.17-.58A.44.44,0,0,0,34.08,43Z" fill="url(#linear-gradient-78)"/><path d="M34.16,42.55a.18.18,0,0,1,.23.13.19.19,0,0,1-.07.26c-.09,0-.19,0-.24-.13A.2.2,0,0,1,34.16,42.55Z" fill="url(#radial-gradient-19)" style="mix-blend-mode:screen"/><path d="M26.9,54a.53.53,0,0,0,.65.38.55.55,0,0,0,.22-.73.48.48,0,1,0-.87.35Z" fill="url(#linear-gradient-79)"/><path d="M27,54a.43.43,0,0,0,.52.3.44.44,0,0,0,.17-.58.42.42,0,0,0-.52-.3A.44.44,0,0,0,27,54Z" fill="url(#linear-gradient-80)"/><path d="M27.07,53.57a.18.18,0,0,1,.23.13.2.2,0,0,1-.08.26.2.2,0,0,1-.23-.13A.19.19,0,0,1,27.07,53.57Z" fill="url(#radial-gradient-20)" style="mix-blend-mode:screen"/><path d="M24.13,46.76a.55.55,0,0,0,.64.41.53.53,0,0,0,.26-.7.56.56,0,0,0-.64-.42A.54.54,0,0,0,24.13,46.76Z" fill="url(#linear-gradient-81)"/><path d="M24.23,46.73a.44.44,0,0,0,.5.33.41.41,0,0,0,.2-.56.44.44,0,0,0-.5-.34A.43.43,0,0,0,24.23,46.73Z" fill="url(#linear-gradient-82)"/><path d="M24.33,46.3a.21.21,0,0,1,.23.15c0,.11,0,.23-.09.25a.19.19,0,0,1-.23-.14A.2.2,0,0,1,24.33,46.3Z" fill="url(#radial-gradient-21)" style="mix-blend-mode:screen"/><path d="M36.87,49.59a.61.61,0,0,0-.06.8.46.46,0,0,0,.68.19.61.61,0,0,0,.06-.79A.46.46,0,0,0,36.87,49.59Z" fill="url(#linear-gradient-83)"/><path d="M36.93,49.69a.52.52,0,0,0,0,.64.38.38,0,0,0,.55.15.49.49,0,0,0,0-.63A.37.37,0,0,0,36.93,49.69Z" fill="url(#linear-gradient-84)"/><path d="M37.32,49.75a.24.24,0,0,1,0,.29.18.18,0,0,1-.25-.07.24.24,0,0,1,0-.29A.18.18,0,0,1,37.32,49.75Z" fill="url(#radial-gradient-22)" style="mix-blend-mode:screen"/><path d="M30.91,41.15a.48.48,0,1,0,.88-.31.54.54,0,0,0-.64-.4A.53.53,0,0,0,30.91,41.15Z" fill="url(#linear-gradient-85)"/><path d="M31,41.12a.38.38,0,1,0,.7-.25.44.44,0,0,0-.51-.32A.43.43,0,0,0,31,41.12Z" fill="url(#linear-gradient-86)"/><path d="M31.09,40.7a.19.19,0,0,1,.23.14.19.19,0,0,1-.08.25A.19.19,0,0,1,31,41,.19.19,0,0,1,31.09,40.7Z" fill="url(#radial-gradient-23)" style="mix-blend-mode:screen"/><path d="M30,55.86a.55.55,0,0,0,.65.4.55.55,0,0,0,.23-.72.48.48,0,1,0-.88.32Z" fill="url(#linear-gradient-87)"/><path d="M30.06,55.83a.42.42,0,0,0,.52.31.43.43,0,0,0,.18-.57.44.44,0,0,0-.52-.31A.43.43,0,0,0,30.06,55.83Z" fill="url(#linear-gradient-88)"/><path d="M30.15,55.4a.19.19,0,0,1,.23.14.2.2,0,0,1-.08.26.22.22,0,0,1-.15-.4Z" fill="url(#radial-gradient-24)" style="mix-blend-mode:screen"/><path d="M24.24,48.75a.48.48,0,1,0,.23-.72A.53.53,0,0,0,24.24,48.75Z" fill="url(#linear-gradient-89)"/><path d="M24.33,48.72a.38.38,0,1,0,.18-.58A.43.43,0,0,0,24.33,48.72Z" fill="url(#linear-gradient-90)"/><path d="M24.42,48.29c.08,0,.18,0,.23.14a.18.18,0,0,1-.09.25c-.08,0-.18,0-.23-.14A.19.19,0,0,1,24.42,48.29Z" fill="url(#radial-gradient-25)" style="mix-blend-mode:screen"/><ellipse cx="37.08" cy="48.11" rx="0.47" ry="0.59" transform="translate(-14.54 16.09) rotate(-20.56)" fill="url(#linear-gradient-91)"/><path d="M36.77,47.79a.55.55,0,0,0,.09.66.34.34,0,0,0,.54,0,.54.54,0,0,0-.1-.65A.33.33,0,0,0,36.77,47.79Z" fill="url(#linear-gradient-92)"/><path d="M37.14,47.73a.24.24,0,0,1,0,.3.15.15,0,0,1-.24,0,.23.23,0,0,1,0-.29A.16.16,0,0,1,37.14,47.73Z" fill="url(#radial-gradient-26)" style="mix-blend-mode:screen"/><path d="M29.25,41a.54.54,0,0,0,.65.4.62.62,0,0,0-.41-1.12A.55.55,0,0,0,29.25,41Z" fill="url(#linear-gradient-93)"/><path d="M29.34,40.92a.43.43,0,0,0,.51.32.42.42,0,0,0,.19-.57.45.45,0,0,0-.51-.32A.43.43,0,0,0,29.34,40.92Z" fill="url(#linear-gradient-94)"/><path d="M29.44,40.5a.19.19,0,0,1,.22.14.2.2,0,0,1-.08.26.2.2,0,0,1-.23-.15A.18.18,0,0,1,29.44,40.5Z" fill="url(#radial-gradient-27)" style="mix-blend-mode:screen"/><path d="M31.62,56.06a.56.56,0,0,0,.65.4.55.55,0,0,0,.24-.72.56.56,0,0,0-.65-.4A.55.55,0,0,0,31.62,56.06Z" fill="url(#linear-gradient-95)"/><path d="M31.71,56a.45.45,0,0,0,.52.33.43.43,0,0,0,.19-.57.45.45,0,0,0-.51-.33A.44.44,0,0,0,31.71,56Z" fill="url(#linear-gradient-96)"/><path d="M31.81,55.6a.19.19,0,0,1,.23.14A.2.2,0,0,1,32,56c-.08,0-.19,0-.23-.15S31.72,55.63,31.81,55.6Z" fill="url(#radial-gradient-28)" style="mix-blend-mode:screen"/><g opacity="0.68"><path d="M26.81,47.79c-.79-.16-1.59-.34-2.38-.54-.07-2.5,1.05-4.72,3.06-5.55h0l.84,2.12A4.1,4.1,0,0,0,26.81,47.79Z" fill="url(#radial-gradient-29)" style="mix-blend-mode:screen"/><path d="M25,50.13a8.9,8.9,0,0,1-.57-2.3c.82.21,1.64.4,2.46.56a5.52,5.52,0,0,0,.26.85,5.4,5.4,0,0,0,1.9,2.45l-.7,2.39A7.75,7.75,0,0,1,25,50.13Z" fill="url(#radial-gradient-30)" style="mix-blend-mode:screen"/></g><g style="mix-blend-mode:screen"><g clip-path="url(#clip-path)"><rect x="31.7" y="45.59" width="5.57" height="9.2" fill="#010101"/><path d="M31.91,53.23a3.52,3.52,0,1,0,2.76-6.45,3.86,3.86,0,0,0-2.85-.1,5,5,0,0,0-.62.29h.41v5.9h-.37A3.57,3.57,0,0,0,31.91,53.23Z" fill="#010101"/><path d="M31.91,53.22a3.51,3.51,0,1,0,2.76-6.43,3.89,3.89,0,0,0-2.84-.1,3.23,3.23,0,0,0-.62.3h.4v5.87h-.36A3.48,3.48,0,0,0,31.91,53.22Z" fill="#010202"/><path d="M31.92,53.21a3.49,3.49,0,1,0,2.74-6.41,3.89,3.89,0,0,0-2.82-.1,3.64,3.64,0,0,0-.63.3h.4v5.85h-.36A4.75,4.75,0,0,0,31.92,53.21Z" fill="#020303"/><path d="M31.92,53.19a3.48,3.48,0,1,0,2.74-6.37,3.79,3.79,0,0,0-2.82-.1,3.16,3.16,0,0,0-.62.29h.39v5.82h-.35A4.22,4.22,0,0,0,31.92,53.19Z" fill="#040404"/><path d="M31.93,53.18a3.46,3.46,0,1,0,2.72-6.35,3.83,3.83,0,0,0-2.8-.1,3.5,3.5,0,0,0-.62.29h.38v5.8h-.34A3.48,3.48,0,0,0,31.93,53.18Z" fill="#050506"/><path d="M31.93,53.17a3.45,3.45,0,1,0,2.71-6.33,3.8,3.8,0,0,0-2.79-.1,4.27,4.27,0,0,0-.61.29h.37v5.78h-.33A3.72,3.72,0,0,0,31.93,53.17Z" fill="#050606"/><path d="M31.94,53.16a3.43,3.43,0,1,0,2.7-6.3,3.78,3.78,0,0,0-2.78-.1,2.63,2.63,0,0,0-.61.29h.36V52.8h-.32A3.72,3.72,0,0,0,31.94,53.16Z" fill="#070708"/><path d="M31.94,53.14a3.42,3.42,0,1,0,2.69-6.27,3.67,3.67,0,0,0-3.38.19h.36v5.73h-.32A5.07,5.07,0,0,0,31.94,53.14Z" fill="#080809"/><path d="M32,53.13a3.41,3.41,0,1,0,2.68-6.25,3.78,3.78,0,0,0-2.76-.1,3.41,3.41,0,0,0-.61.29h.35v5.71H31.3A4.48,4.48,0,0,0,32,53.13Z" fill="#0a0b0b"/><path d="M32,53.12a3.4,3.4,0,1,0,2.67-6.23,3.63,3.63,0,0,0-3.35.19h.34v5.69h-.3A4.36,4.36,0,0,0,32,53.12Z" fill="#0b0c0c"/><path d="M32,53.11a3.38,3.38,0,1,0,2.66-6.2,3.68,3.68,0,0,0-2.74-.1,3.28,3.28,0,0,0-.6.28h.33v5.67h-.29A4.36,4.36,0,0,0,32,53.11Z" fill="#0c0d0d"/><path d="M32,53.09a3.36,3.36,0,1,0,2.64-6.17,3.72,3.72,0,0,0-2.72-.1,4.11,4.11,0,0,0-.6.28h.32v5.64h-.28A3.28,3.28,0,0,0,32,53.09Z" fill="#0c0d0d"/><path d="M32,53.08a3.35,3.35,0,1,0,2.64-6.15,3.72,3.72,0,0,0-2.72-.1,2.94,2.94,0,0,0-.59.29h.31v5.61h-.28A3.59,3.59,0,0,0,32,53.08Z" fill="#0d0e0e"/><path d="M32,53.07a3.34,3.34,0,1,0,2.62-6.13,3.72,3.72,0,0,0-2.7-.09,3.28,3.28,0,0,0-.6.28h.31v5.59h-.27A4.36,4.36,0,0,0,32,53.07Z" fill="#101010"/><path d="M32,53.05A3.32,3.32,0,1,0,34.6,47a3.67,3.67,0,0,0-2.7-.1,3.52,3.52,0,0,0-.59.28h.3v5.57h-.26A3.83,3.83,0,0,0,32,53.05Z" fill="#111"/><path d="M32,53A3.31,3.31,0,1,0,34.59,47a3.67,3.67,0,0,0-2.68-.1,4,4,0,0,0-.59.28h.29V52.7h-.25A3.16,3.16,0,0,0,32,53Z" fill="#121212"/><path d="M32,53A3.3,3.3,0,1,0,34.59,47a3.64,3.64,0,0,0-2.67-.09,2.88,2.88,0,0,0-.59.27h.28v5.53h-.24A4.1,4.1,0,0,0,32,53Z" fill="#131313"/><path d="M32,53a3.29,3.29,0,1,0,2.58-6,3.61,3.61,0,0,0-2.66-.09,3.1,3.1,0,0,0-.58.28h.27v5.5h-.24A4.77,4.77,0,0,0,32,53Z" fill="#141414"/><path d="M32,53a3.27,3.27,0,1,0,2.57-6,3.61,3.61,0,0,0-2.64-.1,3.46,3.46,0,0,0-.58.28h.26v5.48h-.23A3.34,3.34,0,0,0,32,53Z" fill="#161617"/><path d="M32,53a3.26,3.26,0,1,0,2.56-6,3.56,3.56,0,0,0-2.64-.09,3.38,3.38,0,0,0-.58.27h.26v5.45h-.22A3.38,3.38,0,0,0,32,53Z" fill="#171717"/><path d="M32,53A3.24,3.24,0,1,0,34.56,47a3.61,3.61,0,0,0-2.62-.09,3.06,3.06,0,0,0-.58.27h.25v5.43H31.4A4,4,0,0,0,32,53Z" fill="#181819"/><path d="M32,53a3.23,3.23,0,1,0,2.54-5.92,3.56,3.56,0,0,0-2.62-.1,3,3,0,0,0-.57.27h.24v5.41h-.2A4,4,0,0,0,32,53Z" fill="#1a1a1a"/><path d="M32,53a3.21,3.21,0,1,0,2.52-5.89A3.56,3.56,0,0,0,32,47a3.77,3.77,0,0,0-.57.28h.23v5.38h-.2A3.34,3.34,0,0,0,32,53Z" fill="#1b1b1b"/><path d="M32,52.94a3.2,3.2,0,1,0,2.52-5.87A3.53,3.53,0,0,0,32,47a3,3,0,0,0-.57.27h.22v5.36h-.19A3.25,3.25,0,0,0,32,52.94Z" fill="#1c1c1c"/><path d="M32,52.93a3.19,3.19,0,1,0,2.5-5.85A3.5,3.5,0,0,0,32,47a3,3,0,0,0-.57.27h.22V52.6h-.18A4,4,0,0,0,32,52.93Z" fill="#1e1e1e"/><path d="M32,52.92a3.17,3.17,0,1,0,2.5-5.82A3.53,3.53,0,0,0,32,47a3,3,0,0,0-.57.27h.21v5.32h-.17A5.76,5.76,0,0,0,32,52.92Z" fill="#1f1f1f"/><path d="M32.05,52.9a3.16,3.16,0,1,0,2.48-5.79A3.45,3.45,0,0,0,32,47a4,4,0,0,0-.56.26h.2v5.3h-.16A3.41,3.41,0,0,0,32.05,52.9Z" fill="#202020"/><path d="M32.05,52.89a3.15,3.15,0,1,0,2.48-5.77A3.52,3.52,0,0,0,32,47a3.57,3.57,0,0,0-.56.26h.19v5.27h-.15A3.08,3.08,0,0,0,32.05,52.89Z" fill="#202020"/><path d="M32.06,52.88a3.13,3.13,0,1,0,2.46-5.75A3.5,3.5,0,0,0,32,47a2.81,2.81,0,0,0-.55.27h.18v5.24h-.15A3.51,3.51,0,0,0,32.06,52.88Z" fill="#202121"/><path d="M32.06,52.86a3.11,3.11,0,1,0,2.45-5.71A3.39,3.39,0,0,0,32,47.06a2.77,2.77,0,0,0-.55.26h.17v5.22h-.14A3,3,0,0,0,32.06,52.86Z" fill="#232323"/><path d="M32.07,52.85a3.1,3.1,0,1,0,2.44-5.69A3.42,3.42,0,0,0,32,47.07a3.57,3.57,0,0,0-.56.26h.17v5.2h-.13A3.7,3.7,0,0,0,32.07,52.85Z" fill="#242424"/><path d="M32.07,52.84a3.09,3.09,0,1,0,2.43-5.67,3.39,3.39,0,0,0-2.5-.09,3.94,3.94,0,0,0-.55.26h.16v5.18h-.12A3.6,3.6,0,0,0,32.07,52.84Z" fill="#252525"/><path d="M32.08,52.83a3.08,3.08,0,1,0,2.42-5.65,3.31,3.31,0,0,0-3,.17h.15V52.1H31A3.43,3.43,0,0,0,32.08,52.83Z" fill="#262626"/><path d="M32.09,52.81a3.06,3.06,0,1,0,2.4-5.61A3.34,3.34,0,0,0,32,47.11a2.69,2.69,0,0,0-.54.26h.14v4.72H31A3.25,3.25,0,0,0,32.09,52.81Z" fill="#272727"/><path d="M32.09,52.8a3,3,0,1,0,2.4-5.59A3.41,3.41,0,0,0,32,47.12a3.18,3.18,0,0,0-1,.61h.61v4.35H31A3.47,3.47,0,0,0,32.09,52.8Z" fill="#282929"/><path d="M32.1,52.79a3,3,0,1,0,2.38-5.57A3.36,3.36,0,0,0,32,47.13a3.18,3.18,0,0,0-1,.61h.6v4.33H31A3.36,3.36,0,0,0,32.1,52.79Z" fill="#2b2b2b"/><path d="M32.1,52.78a3,3,0,1,0,2.38-5.55A3.36,3.36,0,0,0,32,47.15a2.91,2.91,0,0,0-1,.61h.59v4.3H31A3.31,3.31,0,0,0,32.1,52.78Z" fill="#2b2c2c"/><path d="M32.11,52.76a3,3,0,1,0,2.36-5.51A3.31,3.31,0,0,0,32,47.16a3,3,0,0,0-1,.61h.58v4.28h-.56A3.14,3.14,0,0,0,32.11,52.76Z" fill="#2d2d2d"/><path d="M32.11,52.75a3,3,0,1,0,2.36-5.49A3.31,3.31,0,0,0,32,47.17a3,3,0,0,0-1,.61h.57V52h-.55A3.36,3.36,0,0,0,32.11,52.75Z" fill="#2e2e2e"/><path d="M32.12,52.74a3,3,0,1,0,2.34-5.47,3.3,3.3,0,0,0-2.41-.08,2.84,2.84,0,0,0-1,.6h.56V52h-.54A3.39,3.39,0,0,0,32.12,52.74Z" fill="#2e2f2f"/><path d="M32.12,52.73a3,3,0,1,0,2.34-5.44,3.26,3.26,0,0,0-2.41-.09,2.8,2.8,0,0,0-1,.6h.55V52h-.53A3.65,3.65,0,0,0,32.12,52.73Z" fill="#303030"/><path d="M32.13,52.71a3,3,0,1,0,2.32-5.41,3.25,3.25,0,0,0-2.39-.09,2.86,2.86,0,0,0-1,.6h.54V52h-.52A3.43,3.43,0,0,0,32.13,52.71Z" fill="#323232"/><path d="M32.13,52.7a2.94,2.94,0,1,0,2.31-5.39,3.2,3.2,0,0,0-2.37-.08,2.84,2.84,0,0,0-1,.59h.53V52H31.1A3.51,3.51,0,0,0,32.13,52.7Z" fill="#333"/><path d="M32.14,52.69a2.93,2.93,0,1,0,2.3-5.37,3.25,3.25,0,0,0-2.37-.08,2.89,2.89,0,0,0-1,.59h.52V52h-.5A3.38,3.38,0,0,0,32.14,52.69Z" fill="#343434"/><path d="M32.14,52.68a2.91,2.91,0,1,0,2.29-5.34,3.2,3.2,0,0,0-2.35-.09,2.79,2.79,0,0,0-1,.59h.51V52h-.49A3.46,3.46,0,0,0,32.14,52.68Z" fill="#343434"/><path d="M32.15,52.66a2.9,2.9,0,1,0,2.28-5.31,3.2,3.2,0,0,0-2.35-.09,2.84,2.84,0,0,0-1,.59h.5V52h-.48A3.31,3.31,0,0,0,32.15,52.66Z" fill="#353535"/><path d="M32.16,52.65a2.88,2.88,0,1,0,2.26-5.29,3.19,3.19,0,0,0-2.33-.08,2.82,2.82,0,0,0-1,.58h.49V52h-.47A3.2,3.2,0,0,0,32.16,52.65Z" fill="#363636"/><path d="M32.16,52.64a2.87,2.87,0,1,0,2.26-5.27,3.19,3.19,0,0,0-2.33-.08,2.87,2.87,0,0,0-1,.58h.48V52h-.46A3.26,3.26,0,0,0,32.16,52.64Z" fill="#383938"/><path d="M32.17,52.62a2.85,2.85,0,1,0,2.24-5.23,3.14,3.14,0,0,0-2.31-.09,2.94,2.94,0,0,0-1,.58h.47V52h-.45A3.07,3.07,0,0,0,32.17,52.62Z" fill="#393939"/><path d="M32.17,52.61a2.84,2.84,0,1,0,2.24-5.21,3.11,3.11,0,0,0-2.3-.08,2.75,2.75,0,0,0-1,.57h.46v4h-.44A3.14,3.14,0,0,0,32.17,52.61Z" fill="#3b3a3a"/><path d="M32.18,52.6a2.83,2.83,0,1,0,2.22-5.19,3.14,3.14,0,0,0-2.29-.08,3,3,0,0,0-.95.57h.45v4h-.43A3.19,3.19,0,0,0,32.18,52.6Z" fill="#3b3b3b"/><path d="M32.18,52.59a2.82,2.82,0,1,0,2.22-5.17,3.16,3.16,0,0,0-2.28-.08,3,3,0,0,0-.95.57h.44v4h-.42A3.46,3.46,0,0,0,32.18,52.59Z" fill="#3d3d3d"/><path d="M32.19,52.57a2.8,2.8,0,1,0,2.2-5.13,3,3,0,0,0-2.27-.08,2.64,2.64,0,0,0-.94.56h.43v4H31.2A3.24,3.24,0,0,0,32.19,52.57Z" fill="#3d3e3e"/><path d="M32.19,52.56a2.79,2.79,0,1,0,2.19-5.11,3.08,3.08,0,0,0-2.25-.08,2.64,2.64,0,0,0-.94.56h.42v4h-.4A3.31,3.31,0,0,0,32.19,52.56Z" fill="#3f3f3f"/><path d="M32.2,52.55a2.77,2.77,0,1,0,2.18-5.09,3.08,3.08,0,0,0-2.25-.08,2.85,2.85,0,0,0-.93.56h.41v4h-.39A3.19,3.19,0,0,0,32.2,52.55Z" fill="#404040"/><path d="M32.2,52.54a2.76,2.76,0,1,0,2.17-5.06,3,3,0,0,0-2.23-.08,2.83,2.83,0,0,0-.93.55h.4v3.93h-.38A3.14,3.14,0,0,0,32.2,52.54Z" fill="#414142"/><path d="M32.21,52.52a2.74,2.74,0,1,0,2.16-5,3,3,0,0,0-2.22-.08,2.73,2.73,0,0,0-.93.55h.39v3.92h-.36A3.1,3.1,0,0,0,32.21,52.52Z" fill="#434342"/><path d="M32.22,52.51a2.73,2.73,0,1,0,2.14-5,3,3,0,0,0-2.21-.08,2.64,2.64,0,0,0-.91.55h.37v3.9h-.35A3,3,0,0,0,32.22,52.51Z" fill="#444"/><path d="M32.22,52.5a2.72,2.72,0,1,0,2.14-5,3.05,3.05,0,0,0-2.2-.08,2.81,2.81,0,0,0-.91.55h.36v3.88h-.34A3.05,3.05,0,0,0,32.22,52.5Z" fill="#454545"/><path d="M32.23,52.49a2.7,2.7,0,1,0,2.12-5,2.92,2.92,0,0,0-2.19-.08,2.67,2.67,0,0,0-.9.54h.35v3.86h-.33A3.05,3.05,0,0,0,32.23,52.49Z" fill="#464545"/><path d="M32.23,52.47a2.69,2.69,0,1,0,2.12-4.93,3,3,0,0,0-2.18-.08,2.58,2.58,0,0,0-.9.54h.34v3.84h-.32A2.93,2.93,0,0,0,32.23,52.47Z" fill="#484848"/><path d="M32.24,52.46a2.68,2.68,0,1,0,2.1-4.91,3,3,0,0,0-2.17-.08,2.8,2.8,0,0,0-.89.54h.33v3.82H31.3A3,3,0,0,0,32.24,52.46Z" fill="#494949"/><path d="M32.24,52.45a2.67,2.67,0,1,0,2.1-4.89,2.94,2.94,0,0,0-2.16-.07,2.67,2.67,0,0,0-.89.53h.32v3.8h-.3A3.05,3.05,0,0,0,32.24,52.45Z" fill="#4a4a4a"/><path d="M32.25,52.43a2.65,2.65,0,1,0,2.08-4.85,2.89,2.89,0,0,0-2.14-.08,2.67,2.67,0,0,0-.89.53h.31v3.78h-.29A2.86,2.86,0,0,0,32.25,52.43Z" fill="#4b4a4b"/><path d="M32.25,52.42a2.63,2.63,0,1,0,2.07-4.83,2.92,2.92,0,0,0-2.13-.08,2.62,2.62,0,0,0-.88.53h.3V51.8h-.28A2.82,2.82,0,0,0,32.25,52.42Z" fill="#4d4c4c"/><path d="M32.26,52.41a2.62,2.62,0,1,0,2.06-4.81,2.89,2.89,0,0,0-2.12-.07,2.45,2.45,0,0,0-.88.52h.29v3.74h-.27A2.87,2.87,0,0,0,32.26,52.41Z" fill="#4d4d4d"/><path d="M32.26,52.4a2.61,2.61,0,1,0,2.05-4.79,2.86,2.86,0,0,0-2.11-.07,2.65,2.65,0,0,0-.87.52h.28v3.72h-.26A2.93,2.93,0,0,0,32.26,52.4Z" fill="#4e4d4d"/><path d="M32.27,52.38a2.59,2.59,0,1,0,2-4.75,2.89,2.89,0,0,0-2.1-.08,2.65,2.65,0,0,0-.87.52h.27v3.7h-.25A2.91,2.91,0,0,0,32.27,52.38Z" fill="#4f4f4f"/><path d="M32.27,52.37a2.58,2.58,0,1,0,2-4.73,2.86,2.86,0,0,0-2.09-.08,2.79,2.79,0,0,0-.86.52h.26v3.68h-.24A3,3,0,0,0,32.27,52.37Z" fill="#515151"/><path d="M32.28,52.36a2.57,2.57,0,1,0,2-4.71,2.83,2.83,0,0,0-2.08-.07,2.58,2.58,0,0,0-.86.51h.25v3.66h-.23A2.86,2.86,0,0,0,32.28,52.36Z" fill="#525252"/><path d="M32.29,52.35a2.55,2.55,0,1,0,2-4.68,2.72,2.72,0,0,0-2.92.43h.24v3.64h-.22A2.86,2.86,0,0,0,32.29,52.35Z" fill="#535353"/><path d="M32.29,52.33a2.54,2.54,0,1,0,2-4.65,2.69,2.69,0,0,0-2.91.43h.23v3.62H31.4A2.74,2.74,0,0,0,32.29,52.33Z" fill="#555454"/><path d="M32.3,52.32a2.52,2.52,0,1,0,2-4.63,2.78,2.78,0,0,0-2-.07,2.38,2.38,0,0,0-.85.51h.22v3.6h-.2A2.94,2.94,0,0,0,32.3,52.32Z" fill="#555454"/><path d="M32.3,52.31a2.51,2.51,0,1,0,2-4.61,2.78,2.78,0,0,0-2-.07,2.34,2.34,0,0,0-.84.51h.21v3.58h-.19A2.89,2.89,0,0,0,32.3,52.31Z" fill="#565656"/><path d="M32.31,52.3a2.5,2.5,0,1,0,2-4.58,2.78,2.78,0,0,0-2-.08,2.49,2.49,0,0,0-.84.51h.2v3.56h-.18A2.89,2.89,0,0,0,32.31,52.3Z" fill="#575757"/><path d="M32.31,52.28a2.48,2.48,0,1,0,2-4.55,2.73,2.73,0,0,0-2-.07,2.52,2.52,0,0,0-.83.5h.19V51.7h-.17A2.76,2.76,0,0,0,32.31,52.28Z" fill="#5a5959"/><path d="M32.32,52.27a2.47,2.47,0,1,0,1.94-4.53,2.72,2.72,0,0,0-2-.07,2.43,2.43,0,0,0-.83.5h.18v3.52h-.16A2.65,2.65,0,0,0,32.32,52.27Z" fill="#5b5a5a"/><path d="M32.32,52.26a2.46,2.46,0,1,0,1.93-4.51,2.72,2.72,0,0,0-2-.07,2.43,2.43,0,0,0-.83.5h.17v3.5h-.15A2.89,2.89,0,0,0,32.32,52.26Z" fill="#5b5b5b"/><path d="M32.33,52.24a2.44,2.44,0,1,0,1.92-4.47,2.67,2.67,0,0,0-2-.07,2.3,2.3,0,0,0-.82.49h.16v3.48h-.14A2.69,2.69,0,0,0,32.33,52.24Z" fill="#5c5c5c"/><path d="M32.33,52.23a2.43,2.43,0,1,0,1.91-4.45,2.67,2.67,0,0,0-2-.07,2.45,2.45,0,0,0-.82.49h.15v3.46h-.13A3,3,0,0,0,32.33,52.23Z" fill="#5d5d5d"/><path d="M32.34,52.22a2.42,2.42,0,1,0,1.9-4.43,2.67,2.67,0,0,0-2-.07,2.41,2.41,0,0,0-.81.49h.14v3.44h-.12A2.82,2.82,0,0,0,32.34,52.22Z" fill="#5e5e5e"/><path d="M32.35,52.21a2.4,2.4,0,1,0,1.88-4.41,2.72,2.72,0,0,0-1.94-.07,2.58,2.58,0,0,0-.81.49h.13v3.42H31.5A2.82,2.82,0,0,0,32.35,52.21Z" fill="#5f5f5f"/><path d="M32.35,52.19a2.38,2.38,0,1,0,1.88-4.37,2.59,2.59,0,0,0-1.93-.07,2.38,2.38,0,0,0-.81.48h.12v3.4h-.1A2.69,2.69,0,0,0,32.35,52.19Z" fill="#60605f"/><path d="M32.36,52.18a2.37,2.37,0,1,0,1.86-4.35,2.61,2.61,0,0,0-1.92-.07,2.36,2.36,0,0,0-.79.48h.1v3.38h-.09A2.63,2.63,0,0,0,32.36,52.18Z" fill="#626161"/><path d="M32.36,52.17a2.36,2.36,0,1,0,1.86-4.33,2.64,2.64,0,0,0-1.91-.07,2.27,2.27,0,0,0-.79.48h.09v2.58H31A2.62,2.62,0,0,0,32.36,52.17Z" fill="#636363"/><path d="M32.37,52.16a2.35,2.35,0,1,0,1.84-4.31,2.61,2.61,0,0,0-1.9-.06,2.15,2.15,0,0,0-.78.47h.08v2.57H31A2.6,2.6,0,0,0,32.37,52.16Z" fill="#646464"/><path d="M32.37,52.14A2.33,2.33,0,1,0,31,49h.61v1.8H31A2.56,2.56,0,0,0,32.37,52.14Z" fill="#656565"/><path d="M32.38,52.13A2.32,2.32,0,1,0,31,49h.6v1.79H31A2.53,2.53,0,0,0,32.38,52.13Z" fill="#666"/><path d="M32.38,52.12A2.31,2.31,0,1,0,31,49h.58v1.77h-.56A2.54,2.54,0,0,0,32.38,52.12Z" fill="#676767"/><path d="M32.39,52.11A2.29,2.29,0,1,0,31,49h.57v1.77h-.55A2.6,2.6,0,0,0,32.39,52.11Z" fill="#686868"/><path d="M32.39,52.09a2.27,2.27,0,1,0-1.34-3h.56V50.8h-.53A2.47,2.47,0,0,0,32.39,52.09Z" fill="#6a6a69"/><path d="M32.4,52.08a2.26,2.26,0,1,0-1.33-3h.54V50.8h-.52A2.49,2.49,0,0,0,32.4,52.08Z" fill="#6a6a6a"/><path d="M32.41,52.07a2.25,2.25,0,1,0-1.33-3h.53v1.73H31.1A2.49,2.49,0,0,0,32.41,52.07Z" fill="#6b6b6b"/><path d="M32.41,52.06a2.24,2.24,0,1,0-1.32-3h.52v1.73h-.49A2.43,2.43,0,0,0,32.41,52.06Z" fill="#6d6d6d"/><path d="M32.42,52a2.22,2.22,0,1,0-1.31-3h.5v1.71h-.48A2.45,2.45,0,0,0,32.42,52Z" fill="#6e6e6e"/><path d="M32.42,52a2.21,2.21,0,1,0-1.3-3h.49v1.7h-.47A2.48,2.48,0,0,0,32.42,52Z" fill="#6f6f6e"/><path d="M32.43,52a2.2,2.2,0,1,0-1.3-2.94h.48v1.7h-.45A2.41,2.41,0,0,0,32.43,52Z" fill="#707070"/><path d="M32.43,52a2.18,2.18,0,1,0-1.28-2.91h.46v1.68h-.44A2.37,2.37,0,0,0,32.43,52Z" fill="#717171"/><path d="M32.44,52a2.16,2.16,0,1,0-1.28-2.9h.45v1.68h-.43A2.39,2.39,0,0,0,32.44,52Z" fill="#727272"/><path d="M32.44,52a2.15,2.15,0,1,0-1.26-2.88h.43v1.66H31.2A2.38,2.38,0,0,0,32.44,52Z" fill="#737373"/><path d="M32.45,52a2.14,2.14,0,1,0-1.26-2.86h.42v1.65h-.4A2.4,2.4,0,0,0,32.45,52Z" fill="#747474"/><path d="M32.45,52a2.12,2.12,0,1,0-1.25-2.84h.41v1.64h-.39A2.33,2.33,0,0,0,32.45,52Z" fill="#757575"/><path d="M32.46,51.94a2.11,2.11,0,1,0-1.24-2.82h.39v1.63h-.37A2.29,2.29,0,0,0,32.46,51.94Z" fill="#767676"/><path d="M32.46,51.93a2.1,2.1,0,1,0-1.23-2.81h.38v1.62h-.36A2.34,2.34,0,0,0,32.46,51.93Z" fill="#767676"/><path d="M32.47,51.92a2.08,2.08,0,1,0-1.23-2.79h.37v1.61h-.35A2.4,2.4,0,0,0,32.47,51.92Z" fill="#797879"/><path d="M32.48,51.9a2.07,2.07,0,1,0-1.22-2.77h.35v1.6h-.33A2.25,2.25,0,0,0,32.48,51.9Z" fill="#79797a"/><path d="M32.48,51.89a2.06,2.06,0,1,0-1.21-2.75h.34v1.59h-.32A2.29,2.29,0,0,0,32.48,51.89Z" fill="#7a7b7b"/><path d="M32.49,51.88a2,2,0,1,0-1.21-2.73h.33v1.57H31.3A2.25,2.25,0,0,0,32.49,51.88Z" fill="#7c7c7c"/><path d="M32.49,51.87a2,2,0,1,0-1.19-2.72h.31v1.57h-.29A2.23,2.23,0,0,0,32.49,51.87Z" fill="#7c7c7d"/><path d="M32.5,51.85a2,2,0,1,0-1.19-2.69h.3v1.55h-.28A2.21,2.21,0,0,0,32.5,51.85Z" fill="#7d7d7e"/><path d="M32.5,51.84a2,2,0,1,0,1.58-3.67,2.09,2.09,0,0,0-2.76,1h.29v1.55h-.27A2.25,2.25,0,0,0,32.5,51.84Z" fill="#7e7f7f"/><path d="M32.51,51.83a2,2,0,1,0-1.17-2.66h.27V50.7h-.25A2.19,2.19,0,0,0,32.51,51.83Z" fill="#7f8080"/><path d="M32.51,51.81a2,2,0,1,0-1.16-2.63h.26V50.7h-.24A2.14,2.14,0,0,0,32.51,51.81Z" fill="#808181"/><path d="M32.52,51.8a2,2,0,1,0-1.15-2.62h.24v1.51h-.23A2.17,2.17,0,0,0,32.52,51.8Z" fill="#818282"/><path d="M32.52,51.79a1.95,1.95,0,1,0-1.14-2.6h.23v1.5H31.4A2.15,2.15,0,0,0,32.52,51.79Z" fill="#828383"/><path d="M32.53,51.78a1.94,1.94,0,1,0-1.14-2.59h.22v1.49h-.2A2.19,2.19,0,0,0,32.53,51.78Z" fill="#848484"/><path d="M32.54,51.76a1.91,1.91,0,1,0-1.13-2.56h.2v1.48h-.19A2.15,2.15,0,0,0,32.54,51.76Z" fill="#858585"/><ellipse cx="33.29" cy="50.01" rx="1.9" ry="2.03" transform="translate(-25.79 60.9) rotate(-66.8)" fill="#868686"/><ellipse cx="33.29" cy="50.01" rx="1.89" ry="2.02" transform="translate(-25.79 60.9) rotate(-66.8)" fill="#878787"/><ellipse cx="33.29" cy="50.01" rx="1.87" ry="2" transform="translate(-25.79 60.9) rotate(-66.8)" fill="#878889"/><ellipse cx="33.29" cy="50.01" rx="1.86" ry="1.99" transform="translate(-25.79 60.9) rotate(-66.8)" fill="#888989"/><ellipse cx="33.29" cy="50.01" rx="1.84" ry="1.98" transform="translate(-25.79 60.9) rotate(-66.8)" fill="#8a8a8a"/><ellipse cx="33.29" cy="50.01" rx="1.83" ry="1.96" transform="translate(-25.79 60.9) rotate(-66.8)" fill="#8b8b8b"/><ellipse cx="33.29" cy="50.01" rx="1.82" ry="1.95" transform="translate(-25.79 60.9) rotate(-66.8)" fill="#8c8c8c"/><ellipse cx="33.29" cy="50.01" rx="1.8" ry="1.93" transform="translate(-25.79 60.9) rotate(-66.8)" fill="#8c8c8d"/><ellipse cx="33.29" cy="50.01" rx="1.79" ry="1.92" transform="translate(-25.79 60.9) rotate(-66.8)" fill="#8e8e8e"/><ellipse cx="33.29" cy="50.01" rx="1.78" ry="1.9" transform="translate(-25.79 60.9) rotate(-66.8)" fill="#8f8f8f"/><ellipse cx="33.29" cy="50.01" rx="1.76" ry="1.89" transform="translate(-25.79 60.9) rotate(-66.8)" fill="#909090"/><ellipse cx="33.29" cy="50.01" rx="1.75" ry="1.87" transform="translate(-25.79 60.9) rotate(-66.8)" fill="#919191"/><ellipse cx="33.29" cy="50.01" rx="1.73" ry="1.86" transform="translate(-25.79 60.9) rotate(-66.8)" fill="#919292"/><ellipse cx="33.29" cy="50.01" rx="1.72" ry="1.84" transform="translate(-25.79 60.9) rotate(-66.8)" fill="#939393"/><path d="M32.62,51.57a1.71,1.71,0,1,0-1-2.28A1.77,1.77,0,0,0,32.62,51.57Z" fill="#949494"/><ellipse cx="33.29" cy="50.01" rx="1.69" ry="1.81" transform="translate(-25.79 60.9) rotate(-66.8)" fill="#969696"/><ellipse cx="33.29" cy="50.01" rx="1.68" ry="1.8" transform="translate(-25.79 60.9) rotate(-66.8)" fill="#979797"/><ellipse cx="33.29" cy="50.01" rx="1.67" ry="1.78" transform="translate(-25.79 60.9) rotate(-66.8)" fill="#989898"/><ellipse cx="33.29" cy="50.01" rx="1.65" ry="1.77" transform="translate(-25.79 60.9) rotate(-66.8)" fill="#989999"/><ellipse cx="33.29" cy="50.01" rx="1.64" ry="1.75" transform="translate(-25.79 60.9) rotate(-66.8)" fill="#9a9999"/><ellipse cx="33.29" cy="50.01" rx="1.62" ry="1.74" transform="translate(-25.79 60.9) rotate(-66.8)" fill="#9c9b9b"/><ellipse cx="33.29" cy="50.01" rx="1.61" ry="1.72" transform="translate(-25.79 60.9) rotate(-66.8)" fill="#9d9d9c"/><ellipse cx="33.29" cy="50.01" rx="1.6" ry="1.71" transform="translate(-25.79 60.9) rotate(-66.8)" fill="#9d9d9d"/><ellipse cx="33.29" cy="50.01" rx="1.58" ry="1.7" transform="translate(-25.79 60.9) rotate(-66.8)" fill="#9e9e9e"/><ellipse cx="33.29" cy="50.01" rx="1.57" ry="1.68" transform="translate(-25.79 60.9) rotate(-66.8)" fill="#9f9f9f"/><ellipse cx="33.29" cy="50.01" rx="1.56" ry="1.67" transform="translate(-25.79 60.9) rotate(-66.8)" fill="#a1a0a0"/><path d="M32.68,51.42a1.54,1.54,0,1,0-.91-2.06A1.6,1.6,0,0,0,32.68,51.42Z" fill="#a2a1a1"/><ellipse cx="33.29" cy="50.01" rx="1.53" ry="1.64" transform="translate(-25.79 60.9) rotate(-66.8)" fill="#a2a2a1"/><ellipse cx="33.29" cy="50.01" rx="1.51" ry="1.62" transform="translate(-25.79 60.9) rotate(-66.8)" fill="#a3a3a2"/><ellipse cx="33.29" cy="50.01" rx="1.5" ry="1.61" transform="translate(-25.79 60.9) rotate(-66.8)" fill="#a5a4a4"/><ellipse cx="33.29" cy="50.01" rx="1.49" ry="1.59" transform="matrix(0.39, -0.92, 0.92, 0.39, -25.79, 60.9)" fill="#a5a4a4"/><ellipse cx="33.29" cy="50.01" rx="1.47" ry="1.58" transform="translate(-25.79 60.9) rotate(-66.8)" fill="#a6a6a6"/><ellipse cx="33.29" cy="50.01" rx="1.46" ry="1.56" transform="translate(-25.79 60.9) rotate(-66.8)" fill="#a7a6a6"/><ellipse cx="33.29" cy="50.01" rx="1.45" ry="1.55" transform="translate(-25.79 60.9) rotate(-66.8)" fill="#a8a8a8"/><ellipse cx="33.29" cy="50.01" rx="1.43" ry="1.53" transform="translate(-25.79 60.9) rotate(-66.8)" fill="#a8a8a8"/><path d="M32.73,51.31a1.42,1.42,0,1,0,1.12-2.61,1.42,1.42,0,1,0-1.12,2.61Z" fill="#a9a9aa"/><ellipse cx="33.29" cy="50.01" rx="1.4" ry="1.5" transform="translate(-25.79 60.9) rotate(-66.8)" fill="#ababab"/><ellipse cx="33.29" cy="50.01" rx="1.39" ry="1.49" transform="translate(-25.79 60.9) rotate(-66.8)" fill="#acacac"/><ellipse cx="33.29" cy="50.01" rx="1.38" ry="1.47" transform="translate(-25.79 60.9) rotate(-66.8)" fill="#aeadad"/><ellipse cx="33.29" cy="50.01" rx="1.36" ry="1.46" transform="translate(-25.79 60.9) rotate(-66.8)" fill="#aeaeaf"/><ellipse cx="33.29" cy="50.01" rx="1.35" ry="1.44" transform="translate(-25.79 60.9) rotate(-66.8)" fill="#b0b0af"/><path d="M32.76,51.23a1.34,1.34,0,1,0,1.06-2.45,1.34,1.34,0,1,0-1.06,2.45Z" fill="#b0b0b0"/><ellipse cx="33.29" cy="50.01" rx="1.32" ry="1.42" transform="translate(-25.79 60.9) rotate(-66.8)" fill="#b2b2b2"/><ellipse cx="33.29" cy="50.01" rx="1.31" ry="1.4" transform="translate(-25.79 60.9) rotate(-66.8)" fill="#b3b2b2"/><path d="M32.78,51.19A1.29,1.29,0,1,0,32,49.46,1.33,1.33,0,0,0,32.78,51.19Z" fill="#b4b4b4"/><ellipse cx="33.29" cy="50.01" rx="1.28" ry="1.37" transform="translate(-25.79 60.9) rotate(-66.8)" fill="#b5b4b4"/><ellipse cx="33.29" cy="50.01" rx="1.27" ry="1.36" transform="translate(-25.79 60.9) rotate(-66.8)" fill="#b6b6b5"/><ellipse cx="33.29" cy="50.01" rx="1.25" ry="1.34" transform="translate(-25.79 60.9) rotate(-66.8)" fill="#b7b7b6"/><ellipse cx="33.29" cy="50.01" rx="1.24" ry="1.33" transform="translate(-25.79 60.9) rotate(-66.79)" fill="#b8b7b7"/><ellipse cx="33.29" cy="50.01" rx="1.23" ry="1.31" transform="translate(-25.79 60.9) rotate(-66.8)" fill="#b8b8b8"/><path d="M32.81,51.12a1.22,1.22,0,1,0-.71-1.63A1.26,1.26,0,0,0,32.81,51.12Z" fill="#b9b9b9"/><ellipse cx="33.29" cy="50.01" rx="1.2" ry="1.28" transform="translate(-25.79 60.9) rotate(-66.8)" fill="#bababa"/><path d="M32.82,51.09a1.19,1.19,0,1,0,.94-2.17,1.19,1.19,0,1,0-.94,2.17Z" fill="#bbb"/><ellipse cx="33.29" cy="50.01" rx="1.17" ry="1.25" transform="translate(-25.79 60.9) rotate(-66.8)" fill="#bcbcbb"/><path d="M32.83,51.07a1.16,1.16,0,1,0-.68-1.55A1.2,1.2,0,0,0,32.83,51.07Z" fill="#bcbcbb"/><ellipse cx="33.29" cy="50.01" rx="1.14" ry="1.22" transform="translate(-25.79 60.9) rotate(-66.8)" fill="#bdbdbc"/><ellipse cx="33.29" cy="50.01" rx="1.13" ry="1.21" transform="translate(-25.79 60.9) rotate(-66.8)" fill="#bebdbe"/><path d="M32.85,51a1.12,1.12,0,1,0-.66-1.49A1.15,1.15,0,0,0,32.85,51Z" fill="#bfbebf"/><ellipse cx="33.29" cy="50.01" rx="1.1" ry="1.18" transform="translate(-25.79 60.9) rotate(-66.8)" fill="#c0c0bf"/><ellipse cx="33.29" cy="50.01" rx="1.09" ry="1.16" transform="translate(-25.79 60.9) rotate(-66.8)" fill="#c2c1c1"/><path d="M32.87,51a1.07,1.07,0,1,0-.64-1.44A1.12,1.12,0,0,0,32.87,51Z" fill="#c3c2c2"/><path d="M32.87,51a1.06,1.06,0,1,0-.62-1.42A1.09,1.09,0,0,0,32.87,51Z" fill="#c4c4c3"/><ellipse cx="33.29" cy="50.01" rx="1.05" ry="1.12" transform="translate(-25.79 60.9) rotate(-66.8)" fill="#c5c5c4"/><path d="M32.88,51a1,1,0,1,0,.82-1.89A1,1,0,1,0,32.88,51Z" fill="#c6c6c6"/><path d="M32.89,50.94a1.05,1.05,0,0,0,1.4-.5,1.06,1.06,0,0,0-.6-1.37,1,1,0,1,0-.8,1.87Z" fill="#c7c6c6"/><ellipse cx="33.29" cy="50.01" rx="1" ry="1.08" transform="translate(-25.79 60.9) rotate(-66.8)" fill="#c8c7c7"/><ellipse cx="33.29" cy="50.01" rx="0.99" ry="1.06" transform="translate(-25.79 60.9) rotate(-66.79)" fill="#c9c9c9"/><ellipse cx="33.29" cy="50.01" rx="0.98" ry="1.05" transform="translate(-25.79 60.9) rotate(-66.8)" fill="#cac9c9"/><path d="M32.91,50.89a1,1,0,1,0-.57-1.29A1,1,0,0,0,32.91,50.89Z" fill="#cbcaca"/><path d="M32.91,50.88a1,1,0,1,0-.56-1.28A1,1,0,0,0,32.91,50.88Z" fill="#cccccb"/><path d="M32.92,50.87a.94.94,0,1,0-.55-1.26A1,1,0,0,0,32.92,50.87Z" fill="#cdcccc"/><path d="M32.93,50.85a.92.92,0,1,0-.55-1.23A1,1,0,0,0,32.93,50.85Z" fill="#cdcccc"/><path d="M32.93,50.84a.91.91,0,1,0,.72-1.67.91.91,0,1,0-.72,1.67Z" fill="#cecdcc"/><ellipse cx="33.29" cy="50.01" rx="0.89" ry="0.96" transform="translate(-25.79 60.9) rotate(-66.8)" fill="#cfcece"/><ellipse cx="33.29" cy="50.01" rx="0.88" ry="0.94" transform="translate(-25.79 60.9) rotate(-66.8)" fill="#cfcfcf"/><ellipse cx="33.29" cy="50.01" rx="0.87" ry="0.93" transform="translate(-25.79 60.9) rotate(-66.79)" fill="#d0d0d0"/><ellipse cx="33.29" cy="50.01" rx="0.85" ry="0.91" transform="translate(-25.79 60.9) rotate(-66.8)" fill="#d1d1d1"/><ellipse cx="33.29" cy="50.01" rx="0.84" ry="0.9" transform="matrix(0.39, -0.92, 0.92, 0.39, -25.79, 60.9)" fill="#d2d2d2"/><path d="M33,50.76a.82.82,0,1,0-.48-1.1A.84.84,0,0,0,33,50.76Z" fill="#d3d3d3"/><ellipse cx="33.29" cy="50.01" rx="0.81" ry="0.87" transform="translate(-25.79 60.9) rotate(-66.8)" fill="#d5d5d4"/><ellipse cx="33.29" cy="50.01" rx="0.8" ry="0.85" transform="translate(-25.79 60.9) rotate(-66.8)" fill="#d6d6d6"/><path d="M33,50.73a.82.82,0,0,0,1.08-.39.83.83,0,0,0-.46-1.06A.79.79,0,1,0,33,50.73Z" fill="#d6d7d7"/><path d="M33,50.71a.77.77,0,1,0-.46-1A.8.8,0,0,0,33,50.71Z" fill="#d6d7d7"/><ellipse cx="33.29" cy="50.01" rx="0.76" ry="0.81" transform="translate(-25.79 60.9) rotate(-66.8)" fill="#d7d8d8"/><path d="M33,50.69a.75.75,0,1,0-.44-1A.77.77,0,0,0,33,50.69Z" fill="#d8d8d8"/><path d="M33,50.68a.76.76,0,0,0,1-.37.75.75,0,0,0-.43-1A.73.73,0,1,0,33,50.68Z" fill="#d9d9d9"/><path d="M33,50.66a.71.71,0,1,0,.56-1.31A.71.71,0,1,0,33,50.66Z" fill="#dadada"/><path d="M33,50.65a.7.7,0,1,0-.41-.94A.73.73,0,0,0,33,50.65Z" fill="#dbdbdb"/><ellipse cx="33.29" cy="50.01" rx="0.69" ry="0.74" transform="translate(-25.79 60.9) rotate(-66.79)" fill="#dcdcdc"/><path d="M33,50.63a.71.71,0,0,0,.93-.34.72.72,0,0,0-1.32-.57A.71.71,0,0,0,33,50.63Z" fill="#ddd"/><path d="M33,50.61a.66.66,0,1,0-.39-.88A.67.67,0,0,0,33,50.61Z" fill="#ddd"/><ellipse cx="33.29" cy="50.01" rx="0.65" ry="0.69" transform="translate(-25.79 60.9) rotate(-66.79)" fill="#dedede"/><path d="M33,50.59a.64.64,0,1,0-.37-.85A.66.66,0,0,0,33,50.59Z" fill="#dfdfdf"/><ellipse cx="33.29" cy="50.01" rx="0.62" ry="0.66" transform="translate(-25.79 60.89) rotate(-66.79)" fill="#e0e0e0"/><path d="M33.05,50.56a.64.64,0,0,0,.84-.3.65.65,0,1,0-.84.3Z" fill="#e1e1e1"/><path d="M33.06,50.55a.61.61,0,0,0,.81-.29.62.62,0,0,0-.35-.8.59.59,0,1,0-.46,1.09Z" fill="#e2e1e1"/><path d="M33.06,50.54a.58.58,0,1,0-.34-.78A.6.6,0,0,0,33.06,50.54Z" fill="#e2e1e1"/><path d="M33.07,50.52a.56.56,0,1,0,.44-1,.56.56,0,1,0-.44,1Z" fill="#e3e3e2"/><path d="M33.07,50.51a.55.55,0,1,0-.32-.74A.57.57,0,0,0,33.07,50.51Z" fill="#e4e4e3"/><path d="M33.08,50.5a.54.54,0,1,0-.32-.72A.56.56,0,0,0,33.08,50.5Z" fill="#e5e5e4"/><path d="M33.08,50.49a.53.53,0,1,0,.42-1,.53.53,0,1,0-.42,1Z" fill="#e7e6e6"/><ellipse cx="33.29" cy="50.01" rx="0.51" ry="0.55" transform="translate(-25.79 60.9) rotate(-66.8)" fill="#e8e7e7"/><path d="M33.09,50.46a.51.51,0,0,0,.69-.25.52.52,0,0,0-.3-.66.5.5,0,1,0-.39.91Z" fill="#e8e7e7"/><path d="M33.1,50.45a.48.48,0,1,0,.38-.89.52.52,0,0,0-.67.24A.51.51,0,0,0,33.1,50.45Z" fill="#e9e8e8"/><ellipse cx="33.29" cy="50.01" rx="0.47" ry="0.5" transform="translate(-25.79 60.9) rotate(-66.8)" fill="#e9e9e9"/><path d="M33.11,50.42a.47.47,0,0,0,.63-.22.48.48,0,0,0-.27-.61.45.45,0,1,0-.36.83Z" fill="#eaeaea"/><path d="M33.12,50.41a.45.45,0,0,0,.6-.22.47.47,0,1,0-.6.22Z" fill="#ebebeb"/><path d="M33.12,50.4a.45.45,0,0,0,.59-.21.45.45,0,0,0-.25-.58.43.43,0,1,0-.34.79Z" fill="#ebebeb"/><path d="M33.13,50.39a.44.44,0,0,0,.57-.21.42.42,0,0,0-.25-.55.43.43,0,0,0-.57.2A.43.43,0,0,0,33.13,50.39Z" fill="#ececec"/><path d="M33.13,50.37a.4.4,0,0,0,.55-.2.42.42,0,0,0-.78-.33A.4.4,0,0,0,33.13,50.37Z" fill="#eeeded"/><path d="M33.14,50.36a.39.39,0,1,0-.23-.52A.4.4,0,0,0,33.14,50.36Z" fill="#efeeee"/><path d="M33.14,50.35a.39.39,0,0,0,.51-.19.38.38,0,0,0-.21-.5.4.4,0,0,0-.52.19A.39.39,0,0,0,33.14,50.35Z" fill="#efefef"/><path d="M33.15,50.33a.36.36,0,0,0,.49-.17.37.37,0,0,0-.21-.48.35.35,0,1,0-.28.65Z" fill="#efefef"/><path d="M33.15,50.32a.34.34,0,1,0-.2-.46A.36.36,0,0,0,33.15,50.32Z" fill="#f0f0f0"/><path d="M33.16,50.31a.33.33,0,1,0,.26-.61.33.33,0,1,0-.26.61Z" fill="#f1f1f1"/><path d="M33.16,50.3a.34.34,0,0,0,.44-.16.33.33,0,0,0-.19-.43.33.33,0,0,0-.43.16A.33.33,0,0,0,33.16,50.3Z" fill="#f2f2f2"/><path d="M33.17,50.28a.31.31,0,0,0,.42-.15.32.32,0,0,0-.18-.4.31.31,0,0,0-.42.15A.32.32,0,0,0,33.17,50.28Z" fill="#f2f2f2"/><path d="M33.18,50.27a.29.29,0,1,0,.22-.53.29.29,0,1,0-.22.53Z" fill="#f3f3f3"/><path d="M33.18,50.26a.29.29,0,0,0,.38-.14.29.29,0,0,0-.16-.37.29.29,0,0,0-.38.14A.29.29,0,0,0,33.18,50.26Z" fill="#f4f3f4"/><path d="M33.19,50.25a.26.26,0,1,0,.2-.48.26.26,0,0,0-.36.13A.27.27,0,0,0,33.19,50.25Z" fill="#f4f3f4"/><path d="M33.19,50.23a.25.25,0,0,0,.34-.12.25.25,0,0,0-.14-.33.25.25,0,0,0-.34.12A.25.25,0,0,0,33.19,50.23Z" fill="#f5f5f5"/><path d="M33.2,50.22a.24.24,0,0,0,.32-.12.25.25,0,0,0-.46-.19A.24.24,0,0,0,33.2,50.22Z" fill="#f6f6f6"/><path d="M33.2,50.21a.22.22,0,1,0-.13-.3A.23.23,0,0,0,33.2,50.21Z" fill="#f6f6f6"/><path d="M33.21,50.2a.21.21,0,0,0,.28-.11.22.22,0,0,0-.4-.17A.22.22,0,0,0,33.21,50.2Z" fill="#f8f7f7"/><path d="M33.21,50.18a.19.19,0,1,0-.11-.26A.2.2,0,0,0,33.21,50.18Z" fill="#f9f9f9"/><path d="M33.22,50.17a.18.18,0,1,0-.11-.24A.18.18,0,0,0,33.22,50.17Z" fill="#f9f9f9"/><path d="M33.22,50.16a.17.17,0,0,0,.23-.08.18.18,0,0,0-.1-.23.17.17,0,0,0-.13.31Z" fill="#fafafa"/><path d="M33.23,50.14a.15.15,0,0,0,.21-.07.16.16,0,0,0-.09-.2.15.15,0,0,0-.21.07A.16.16,0,0,0,33.23,50.14Z" fill="#fbfbfb"/><path d="M33.23,50.13a.14.14,0,0,0,.19-.07.13.13,0,0,0-.08-.18.15.15,0,0,0-.19.07A.14.14,0,0,0,33.23,50.13Z" fill="#fbfbfb"/><path d="M33.24,50.12a.13.13,0,0,0,.17-.06.13.13,0,1,0-.17.06Z" fill="#fcfcfc"/><path d="M33.25,50.11a.12.12,0,0,0,.15-.06.13.13,0,0,0-.07-.15.11.11,0,0,0-.15.06A.12.12,0,0,0,33.25,50.11Z" fill="#fdfdfd"/><path d="M33.25,50.09a.09.09,0,0,0,.13,0,.1.1,0,0,0-.05-.13.11.11,0,0,0-.14,0A.1.1,0,0,0,33.25,50.09Z" fill="#fdfdfd"/><path d="M33.26,50.08a.08.08,0,0,0,.11,0,.08.08,0,0,0,0-.11.08.08,0,0,0-.11,0A.08.08,0,0,0,33.26,50.08Z" fill="#fefefe"/><path d="M33.26,50.07a.08.08,0,0,0,.1,0,.09.09,0,0,0,0-.09.08.08,0,0,0-.1,0A.07.07,0,0,0,33.26,50.07Z" fill="#fefefe"/><path d="M33.27,50.06a.05.05,0,0,0,.07,0s0-.06,0-.08a.07.07,0,0,0-.08,0A.07.07,0,0,0,33.27,50.06Z" fill="#fff"/><path d="M33.27,50a0,0,0,0,0,.06,0,0,0,0,0,0,0-.05,0,0,0,0,0-.06,0A0,0,0,0,0,33.27,50Z" fill="#fff"/><path d="M33.28,50s0,0,0,0a.05.05,0,0,0,0,0s0,0,0,0S33.26,50,33.28,50Z" fill="#fff"/><path d="M33.28,50s0,0,0,0,0,0,0,0h0A0,0,0,0,0,33.28,50Z" fill="#fff"/></g></g><ellipse cx="30.75" cy="48.2" rx="6.79" ry="8.63" transform="translate(-14.97 13.87) rotate(-20.56)" opacity="0.69" fill="url(#linear-gradient-97)" style="mix-blend-mode:screen"/><ellipse cx="30.75" cy="48.2" rx="6.79" ry="8.63" transform="translate(-14.97 13.87) rotate(-20.56)" opacity="0.9" fill="url(#linear-gradient-98)" style="mix-blend-mode:screen"/><path d="M21,51.88c2.39,6.36,8.38,10,13.39,8.12s7.13-8.56,4.74-14.92-8.38-10-13.38-8.12S18.66,45.52,21,51.88ZM26.1,37.79c4.64-1.74,10.2,1.63,12.42,7.54s.24,12.09-4.4,13.84S23.91,57.54,21.7,51.64,21.45,39.54,26.1,37.79Z" fill="url(#linear-gradient-99)"/><path d="M68.81,31.94C66,24.75,59,20.64,53.1,22.76L20.93,33.87c6-2,18.17,1.44,25.17,14.7L70,38.33A16.29,16.29,0,0,0,68.81,31.94Z" fill="url(#linear-gradient-100)"/><g opacity="0.49"><path d="M63.94,25.13,34.41,36a31.39,31.39,0,0,1,9.38,8.89L69.62,34.67a17,17,0,0,0-5.68-9.54Z" fill="url(#linear-gradient-101)"/></g><path d="M46.28,48a30.72,30.72,0,0,0-9.61-10.92A23.19,23.19,0,0,0,26.07,33c-3.63-.35-6.67.52-8.13,2.32a8.66,8.66,0,0,0-1.74,6.64,16.09,16.09,0,0,0,4.25,8,13.46,13.46,0,0,1-.25-1.36,17.29,17.29,0,0,1-3.13-6.7,7.77,7.77,0,0,1,1.55-6c1.27-1.57,4-2.32,7.36-2,9,.88,16,8,19.53,14.54a.44.44,0,0,0,.59.18A.43.43,0,0,0,46.28,48Z" fill="url(#linear-gradient-102)"/><ellipse cx="53.4" cy="63.35" rx="2.33" ry="2.88" fill="url(#linear-gradient-103)"/><ellipse cx="53.92" cy="63.35" rx="1.33" ry="1.65" fill="url(#linear-gradient-104)"/><ellipse cx="53.79" cy="63.35" rx="1.14" ry="1.42" fill="url(#linear-gradient-105)"/><ellipse cx="53.95" cy="63.35" rx="0.6" ry="0.75" fill="url(#linear-gradient-106)"/><path d="M53.64,62.81a.65.65,0,0,0,0,1.09.66.66,0,0,0,0-1.09Z" fill="url(#linear-gradient-107)"/><path d="M50.81,62.07c-.07-1.56-.57-3-1.25-3.39-.05,0,0,0,0-.06l-5.76-1.49c.79.21,1.33,1.76,1.4,3.44,0,.3,0,1,0,1.3a.13.13,0,0,0,.1.13l.55.15v-.59a.17.17,0,0,1,.22-.17l3.91,1a.18.18,0,0,1,.14.18v.68l.7.19a2.83,2.83,0,0,0,0-.29C50.82,62.81,50.82,62.44,50.81,62.07Z" fill="url(#linear-gradient-108)"/><path d="M46.35,61.47l-.23-.06-.09,0a.17.17,0,0,0-.22.17v.59l.3-.15Z" fill="url(#linear-gradient-109)"/><path d="M49.94,62.42l-3.59-1a.19.19,0,0,0-.24.18v.58l4,1.05V62.6A.18.18,0,0,0,49.94,62.42Z" fill="url(#linear-gradient-110)"/><path d="M24,54.73,36.62,42.07C34,38.44,29.9,36.67,26.35,38c-4.48,1.68-6.38,7.65-4.24,13.34A13.32,13.32,0,0,0,24,54.73Z" opacity="0.9" fill="url(#linear-gradient-111)" style="mix-blend-mode:screen"/><path d="M49.53,58.62s0,.05,0,.06l8-3.87a1.26,1.26,0,0,1,.36-.24Z" fill="url(#linear-gradient-112)" style="mix-blend-mode:multiply"/><path d="M49.53,58.62l-5.76-1.49a1.58,1.58,0,0,1,.27.13l5.52,1.42S49.56,58.63,49.53,58.62Z" opacity="0.75" fill="url(#linear-gradient-113)" style="mix-blend-mode:multiply"/><path d="M55.09,66.08c-.29.83-2.3,1.48-4.73,1.48s-4.44-.65-4.74-1.48h-.7V67.8c0,1.07,2.44,1.93,5.44,1.93s5.45-.86,5.45-1.93V66.08Z" fill="url(#linear-gradient-114)"/><path d="M55.13,65.15v.72c0,.93-2.14,1.69-4.77,1.69s-4.77-.76-4.77-1.69v-.72a1.19,1.19,0,0,0-.67.93c0,1.06,2.43,1.92,5.44,1.92s5.44-.86,5.44-1.92A1.19,1.19,0,0,0,55.13,65.15Z" fill="url(#linear-gradient-115)"/><ellipse cx="80.42" cy="56.45" rx="0.73" ry="0.99" fill="url(#linear-gradient-116)"/><path d="M81.15,56.45a1.21,1.21,0,0,0-.22-.7.64.64,0,0,0-.49.7.65.65,0,0,0,.49.71A1.22,1.22,0,0,0,81.15,56.45Z" fill="url(#linear-gradient-117)"/><ellipse cx="72.62" cy="54.44" rx="0.73" ry="0.99" fill="url(#linear-gradient-118)"/><path d="M73.35,54.44a1.16,1.16,0,0,0-.22-.71.66.66,0,0,0-.49.71.65.65,0,0,0,.49.7A1.15,1.15,0,0,0,73.35,54.44Z" fill="url(#linear-gradient-119)"/><ellipse cx="80.42" cy="75.26" rx="0.73" ry="0.99" fill="url(#linear-gradient-120)"/><path d="M81.15,75.26a1.22,1.22,0,0,0-.22-.71.65.65,0,0,0-.49.71.64.64,0,0,0,.49.7A1.17,1.17,0,0,0,81.15,75.26Z" fill="url(#linear-gradient-121)"/><ellipse cx="72.62" cy="73.24" rx="0.73" ry="0.99" fill="url(#linear-gradient-122)"/><path d="M73.35,73.24a1.15,1.15,0,0,0-.22-.7.65.65,0,0,0-.49.7.66.66,0,0,0,.49.71A1.16,1.16,0,0,0,73.35,73.24Z" fill="url(#linear-gradient-123)"/><polygon points="78.85 58.71 72.11 61.52 61.73 66.15 55.13 69.27 61.87 66.46 72.25 61.84 78.85 58.71" fill="url(#linear-gradient-124)"/></g></g></svg>