<svg id="Layer_1" data-name="Layer 1" xmlns="http://www.w3.org/2000/svg" viewBox="0 0 81.97 92.78"><title>Utensils</title><path d="M75.33,30.44A29.49,29.49,0,0,0,70.8,19.29,30.09,30.09,0,0,0,60.58,9.76,30,30,0,0,0,44.19,6.28,31.06,31.06,0,0,0,20.73,20.22a26.65,26.65,0,0,0-4.54,13.36c-.3,6.71,2.24,11.72,4,15.1a37.94,37.94,0,0,0,3,5l1.75-1.5c-3-3.55-6.64-9.28-6.63-16.34S21.88,21.48,27.82,16,41.25,7.84,48.71,8.49C62.24,9.66,73.8,21.78,74,35c.09,7.77-4,13.87-6.43,16.81l1.24,1a25.41,25.41,0,0,0,6.11-10.6A26.27,26.27,0,0,0,75.33,30.44Z" transform="translate(-12.18 -3.82)" fill="#3d3f44"/><path d="M78.52,34.9A28.84,28.84,0,0,0,76.1,23.79,34,34,0,0,0,60.5,7.23a30.84,30.84,0,0,0-11.4-3.3A30.2,30.2,0,0,0,35.78,5.81a34.3,34.3,0,0,0-11,6.85,35.53,35.53,0,0,0-8,10.68,29,29,0,0,0-3,12.51c0,8.46,4.19,15.18,7.72,19.32l1.73-1.47a37.94,37.94,0,0,1-3-5c-1.72-3.38-4.26-8.39-4-15.1a26.65,26.65,0,0,1,4.54-13.36A31.06,31.06,0,0,1,44.19,6.28,30,30,0,0,1,60.58,9.76,30.09,30.09,0,0,1,70.8,19.29a29.49,29.49,0,0,1,4.53,11.15,26.27,26.27,0,0,1-.46,11.74,25.41,25.41,0,0,1-6.11,10.6l2.29,1.9a35.13,35.13,0,0,0,4.62-7.21A28.39,28.39,0,0,0,78.52,34.9Z" transform="translate(-12.18 -3.82)" fill="#50535a"/><path d="M80.21,75.29c.33-.15.66-.31,1-.49,6.11-3.29,7.77-9.87,8.06-11.11,0-.24.28-2.6.73-7.33.42-4.33.55-6.06,1.83-7.7a7,7,0,0,1,1.61-1.49c-.05-.17-.1-.35-.14-.54a5.37,5.37,0,0,1,.18-2.81,8.25,8.25,0,0,0-4,1c-1.91,1.1-2.84,2.79-4.27,5.49-2,3.76-1.43,4.25-2.87,5.87a11.17,11.17,0,0,1-5.56,3.23,11.37,11.37,0,0,1-2.16.35c1.06,2.31,2.09,4.81,3.07,7.49S79.51,72.74,80.21,75.29Z" transform="translate(-12.18 -3.82)" fill="#617186"/><path d="M77.65,67.29c-1-2.68-2-5.18-3.07-7.49A12,12,0,0,1,72,59.7q2.05,8.37,4.13,16.73a14.91,14.91,0,0,0,4-1.14C79.51,72.74,78.67,70.06,77.65,67.29Z" transform="translate(-12.18 -3.82)" fill="#506070"/><path d="M76.17,76.43c.37,1.51.75,3,1.12,4.52a21.73,21.73,0,0,0,4-1.49c-.32-1.35-.66-2.74-1.06-4.17A14.91,14.91,0,0,1,76.17,76.43Z" transform="translate(-12.18 -3.82)" fill="#506070"/><path d="M93.43,47.17a7,7,0,0,0-1.61,1.49C90.54,50.3,90.41,52,90,56.36c-.45,4.73-.68,7.09-.73,7.33-.29,1.24-2,7.82-8.06,11.11-.33.18-.66.34-1,.49.4,1.43.74,2.82,1.06,4.17a16.12,16.12,0,0,0,6.22-5.29,21.67,21.67,0,0,0,2.93-7.57,39.64,39.64,0,0,0,1-8.12c0-1.88.26-3.75.36-5.62a5.31,5.31,0,0,1,.8-2.81,4.86,4.86,0,0,1,1.58-1.47A5.52,5.52,0,0,1,93.43,47.17Z" transform="translate(-12.18 -3.82)" fill="#506070"/><path d="M86.8,51.23c-.28-.1-.25-2.39,1.14-4,1.51-1.76,4.06-2,4.18-1.76S90.64,46.2,89,48,87.05,51.31,86.8,51.23Z" transform="translate(-12.18 -3.82)" fill="#fff" opacity="0.25"/><path d="M20.1,84.28c4.78,11.54,37.27,9.08,60,5.88A66.78,66.78,0,0,0,74.9,63.92a66.59,66.59,0,0,0-11-17.69,2.36,2.36,0,0,0-1.79-.82l-13,0v0H43.2v0l-11.42,0a110.81,110.81,0,0,0-9.23,22.32C20,76.54,18.71,81,20.1,84.28Z" transform="translate(-12.18 -3.82)" fill="#617186"/><path d="M20.1,84.28C18.71,81,20,76.54,22.55,67.73a110.81,110.81,0,0,1,9.23-22.32H30.16a2.36,2.36,0,0,0-1.79.82A66.17,66.17,0,0,0,12.18,90.65,2.39,2.39,0,0,0,14,92.94,142.5,142.5,0,0,0,47.6,96.6a142.58,142.58,0,0,0,30.82-3.71,2.15,2.15,0,0,0,1.66-2v-.68C57.37,93.36,24.88,95.82,20.1,84.28Z" transform="translate(-12.18 -3.82)" fill="#506070"/><g opacity="0.23"><path d="M63.16,54.08c.52-.33,9.22,8.12,10.62,20.19.58,5-.2,10-.7,10s-.45-5.47-2.14-12.36C68.13,60.5,62.72,54.36,63.16,54.08Z" transform="translate(-12.18 -3.82)" fill="#fff"/><path d="M60.37,50c.17-.17,1.29.44,1.79,1.46.36.74.38,1.63.19,1.69S62,53,61.53,52C60.4,50.47,60.27,50.07,60.37,50Z" transform="translate(-12.18 -3.82)" fill="#fff"/></g><path d="M49.38,35.33c-.65-.14-1.26-.23-1.26-.23a10.16,10.16,0,0,0-2.41,0s-.61.09-1.26.23c-6.92,1.48-12,6.08-14.84,9.19l17.31-.11,17.3.11C61.38,41.41,56.3,36.81,49.38,35.33Z" transform="translate(-12.18 -3.82)" fill="#d8dbe6" opacity="0.81"/><g opacity="0.85"><path d="M53.58,38.54c-.71-.95-1.42-1.83-2.12-2.64a20.59,20.59,0,0,0-2.12-.56c-.65-.14-1.26-.23-1.26-.23l-.5,0c.69,1.26,1.39,2.64,2.06,4.16.78,1.75,1.45,3.51,2,5.23l5.76,0A53.63,53.63,0,0,0,53.58,38.54Z" transform="translate(-12.18 -3.82)" fill="#fff"/></g><path d="M63.4,46.09A143.68,143.68,0,0,1,46.56,47a145.07,145.07,0,0,1-17.73-1.19,1.07,1.07,0,0,1-.27-.44,1,1,0,0,1,0-.32v-.89a1.07,1.07,0,0,1,1.08-1.07,109,109,0,0,0,17,1.33A107.52,107.52,0,0,0,63.4,43.06a1.11,1.11,0,0,1,.76.32,1.07,1.07,0,0,1,.31.75V45Z" transform="translate(-12.18 -3.82)" fill="#50535a"/><path d="M45.37,34.41a10.59,10.59,0,0,1-.59-1.47,4.42,4.42,0,0,1-.39-1.51,1.64,1.64,0,0,1,.26-.76l-.4.09a.69.69,0,0,0-.45.85,16.06,16.06,0,0,0,.68,2.12c.17.44.35.84.53,1.21a.61.61,0,0,0,.55.36h1.86A.61.61,0,0,0,48,35C46.93,35.11,45.81,35.08,45.37,34.41Z" transform="translate(-12.18 -3.82)" fill="#3b3d43"/><path d="M44.78,32.94a10.59,10.59,0,0,0,.59,1.47c.44.67,1.56.7,2.6.54h0a12.5,12.5,0,0,0,.54-1.21,16.06,16.06,0,0,0,.68-2.12.7.7,0,0,0-.46-.85,11.71,11.71,0,0,0-2.14-.34H46.4a10.67,10.67,0,0,0-1.75.25,1.64,1.64,0,0,0-.26.76A4.42,4.42,0,0,0,44.78,32.94Z" transform="translate(-12.18 -3.82)" fill="#50535a"/></svg>