<svg id="Layer_1" data-name="Layer 1" xmlns="http://www.w3.org/2000/svg" viewBox="0 0 100 100"><title>Icons</title><path d="M83.48,13.16a2,2,0,0,0-2-2h-63a2,2,0,0,0-2,2V23.31h67Z" fill="#bfbebf"/><path d="M83.86,23.69H16.14V13.16a2.37,2.37,0,0,1,2.36-2.37h63a2.37,2.37,0,0,1,2.36,2.37Zm-67-.76H83.1V13.16a1.61,1.61,0,0,0-1.6-1.61h-63a1.61,1.61,0,0,0-1.6,1.61Z" fill="#c9c9c9"/><path d="M16.52,23.31V86.84a2,2,0,0,0,2,2h63a2,2,0,0,0,2-2V23.31Z" fill="#f0ecec"/><path d="M81.5,89.21h-63a2.37,2.37,0,0,1-2.36-2.37V22.93H83.86V86.84A2.37,2.37,0,0,1,81.5,89.21ZM16.9,23.69V86.84a1.61,1.61,0,0,0,1.6,1.61h63a1.61,1.61,0,0,0,1.6-1.61V23.69Z" fill="#c9c9c9"/><path d="M74.26,54.63a24,24,0,1,1-24-24A24,24,0,0,1,74.26,54.63Z" fill="#c9c9c9"/><path d="M73.32,54.76a23,23,0,1,1-23-23A23,23,0,0,1,73.32,54.76Z" fill="#d6d7d7"/><rect x="19.91" y="14.71" width="15.48" height="5.82" fill="#d6d7d7"/><path d="M47,17.62a1.79,1.79,0,1,1-1.78-1.78A1.78,1.78,0,0,1,47,17.62Z" fill="#68bfcd"/><path d="M56.15,17.62a1.79,1.79,0,1,1-1.79-1.78A1.79,1.79,0,0,1,56.15,17.62Z" fill="#58b252"/><path d="M65.34,17.62a1.79,1.79,0,1,1-1.78-1.78A1.79,1.79,0,0,1,65.34,17.62Z" fill="#d15061"/><path d="M74.53,17.62a1.79,1.79,0,1,1-1.78-1.78A1.79,1.79,0,0,1,74.53,17.62Z" fill="#495766"/><path d="M55.2,60.63c4.61,0,6,1.94,8.67,3.11a16.23,16.23,0,0,0,2.35-5.83c-4.66-.71-5.33-3.83-11.17-3.83-6.58,0-6.58,4-13.17,4-4.45,0-5.89-1.81-8.4-3a16.49,16.49,0,0,0,2,7.57,11.1,11.1,0,0,0,6.56,2C48.62,64.6,48.62,60.63,55.2,60.63Z" fill="#72c5c8"/><path d="M50,71.29a16.5,16.5,0,0,0,13.87-7.55c-2.67-1.17-4.06-3.11-8.67-3.11-6.58,0-6.58,4-13.17,4a11.1,11.1,0,0,1-6.56-2A16.52,16.52,0,0,0,50,71.29Z" fill="#68bfcd"/><path d="M50,38.23A16.53,16.53,0,0,0,33.47,54.76c0,.1,0,.2,0,.3,2.51,1.18,4,3,8.4,3,6.59,0,6.59-4,13.17-4,5.84,0,6.51,3.12,11.17,3.83a16.33,16.33,0,0,0,.31-3.15A16.53,16.53,0,0,0,50,38.23Z" fill="#495766"/></svg>