<svg id="Layer_1" data-name="Layer 1" xmlns="http://www.w3.org/2000/svg" xmlns:xlink="http://www.w3.org/1999/xlink" viewBox="0 0 100 100"><defs><linearGradient id="linear-gradient" x1="12.13" y1="-41.76" x2="87.87" y2="-41.76" gradientTransform="matrix(0.01, 1, -1.27, 0.01, -3.42, 20.72)" gradientUnits="userSpaceOnUse"><stop offset="0" stop-color="#cce9f6"/><stop offset="1" stop-color="#2fa8df"/></linearGradient><linearGradient id="linear-gradient-2" x1="50" y1="69.88" x2="50" y2="51.56" gradientUnits="userSpaceOnUse"><stop offset="0" stop-color="#0a72b9"/><stop offset="1" stop-color="#2fa8df"/></linearGradient><linearGradient id="linear-gradient-3" x1="52.63" y1="69.25" x2="52.63" y2="62.57" gradientUnits="userSpaceOnUse"><stop offset="0" stop-color="#0a72b9"/><stop offset="1" stop-color="#fff"/></linearGradient><linearGradient id="linear-gradient-4" x1="39.33" y1="46.81" x2="60.67" y2="46.81" gradientUnits="userSpaceOnUse"><stop offset="0" stop-color="#808181"/><stop offset="1" stop-color="#b0b0b0"/></linearGradient><linearGradient id="linear-gradient-5" x1="39.33" y1="44.96" x2="60.67" y2="44.96" xlink:href="#linear-gradient-4"/><linearGradient id="linear-gradient-6" x1="51.34" y1="46.79" x2="57.99" y2="46.79" gradientUnits="userSpaceOnUse"><stop offset="0" stop-color="#b0b0b0"/><stop offset="1" stop-color="#efefef"/></linearGradient><radialGradient id="radial-gradient" cx="61.33" cy="49.21" r="41.99" gradientTransform="translate(91.42 -8.54) rotate(89.7)" gradientUnits="userSpaceOnUse"><stop offset="0" stop-color="#979797"/><stop offset="1" stop-color="#fff"/></radialGradient><radialGradient id="radial-gradient-2" cx="61.33" cy="49.21" r="41.99" gradientTransform="matrix(1, 0, 0, 1, 0, 0)" xlink:href="#radial-gradient"/><linearGradient id="linear-gradient-7" x1="51.34" y1="40.46" x2="57.99" y2="40.46" gradientUnits="userSpaceOnUse"><stop offset="0" stop-color="#e3e3e2"/><stop offset="1" stop-color="#efefef"/></linearGradient></defs><title>Icons</title><ellipse cx="50" cy="70.41" rx="11.51" ry="37.87" transform="translate(-20.7 120.01) rotate(-89.67)" fill="url(#linear-gradient)"/><g opacity="0.3"><path d="M22.19,70.26v-.2a1,1,0,0,1,0-.16,3.07,3.07,0,0,1,.28-1,5.05,5.05,0,0,1,1-1.36,10.3,10.3,0,0,1,1.81-1.38,19.37,19.37,0,0,1,2.5-1.26c.47-.19,1-.39,1.48-.57s1.06-.36,1.62-.53a51.29,51.29,0,0,1,7.68-1.62,73.51,73.51,0,0,1,9.26-.69,78.74,78.74,0,0,1,10.33.6A71.62,71.62,0,0,1,69,64.18c.91.26,1.81.56,2.7.89a21.76,21.76,0,0,1,2.62,1.16,10.24,10.24,0,0,1,2.39,1.66,4.75,4.75,0,0,1,.94,1.18,3.18,3.18,0,0,1,.42,1.5,3.11,3.11,0,0,1-.1.79,3.31,3.31,0,0,1-.28.74,5.28,5.28,0,0,1-.92,1.22,10.59,10.59,0,0,1-2.39,1.74A26.26,26.26,0,0,1,69,77.18a52.08,52.08,0,0,1-5.49,1.23c-1.83.32-3.65.55-5.44.71a79.36,79.36,0,0,1-10.36.29c-1.65-.06-3.25-.16-4.8-.31s-3-.33-4.45-.55a52.79,52.79,0,0,1-7.66-1.75c-1.12-.35-2.15-.73-3.09-1.13a19.66,19.66,0,0,1-2.48-1.29A9.76,9.76,0,0,1,23.47,73a4.93,4.93,0,0,1-1-1.36,2.93,2.93,0,0,1-.28-1c0-.06,0-.11,0-.16v-.2h.11v.19a.77.77,0,0,0,0,.15,3,3,0,0,0,.33.93,4.91,4.91,0,0,0,1,1.22A9.45,9.45,0,0,0,25.49,74,18.68,18.68,0,0,0,28,75.1q.71.27,1.47.51c.51.16,1,.32,1.6.47a57.36,57.36,0,0,0,7.59,1.45,84.64,84.64,0,0,0,9.14.67A99.06,99.06,0,0,0,58,77.93c1.76-.14,3.56-.34,5.36-.62a53.89,53.89,0,0,0,5.4-1.11c.89-.24,1.78-.51,2.66-.82A22,22,0,0,0,74,74.3a10.08,10.08,0,0,0,2.27-1.51,4.43,4.43,0,0,0,.83-1,2.58,2.58,0,0,0,.26-.59,2.36,2.36,0,0,0,.1-.61,2.61,2.61,0,0,0-.3-1.24,4.54,4.54,0,0,0-.79-1.08,9.94,9.94,0,0,0-2.24-1.64,19.58,19.58,0,0,0-2.54-1.19c-.44-.17-.88-.33-1.33-.48s-.89-.29-1.34-.42a44.92,44.92,0,0,0-5.42-1.2c-1.81-.3-3.61-.49-5.38-.62a101.83,101.83,0,0,0-10.25-.2c-3.26.09-6.33.29-9.15.64a58.13,58.13,0,0,0-7.61,1.4c-.55.15-1.09.3-1.6.46s-1,.32-1.47.49a18.9,18.9,0,0,0-2.49,1.1,10,10,0,0,0-1.81,1.2,4.67,4.67,0,0,0-1,1.21,3.11,3.11,0,0,0-.35.92c0,.06,0,.1,0,.15v.19Z" fill="#fff"/></g><ellipse cx="50" cy="70.41" rx="2.14" ry="7.03" transform="translate(-20.7 120.01) rotate(-89.67)" fill="#2fa8df"/><g opacity="0.5"><path d="M29.7,70.3v-.25a1.56,1.56,0,0,1,.07-.32,1.79,1.79,0,0,1,.19-.4,3.53,3.53,0,0,1,.82-.91,8.93,8.93,0,0,1,1.38-.88A16.13,16.13,0,0,1,34,66.75q.52-.19,1.08-.36c.38-.12.77-.23,1.18-.34a45.06,45.06,0,0,1,5.53-1q1.55-.18,3.21-.3c1.1-.07,2.25-.11,3.43-.12a61.53,61.53,0,0,1,7.4.45,68.77,68.77,0,0,1,7.8,1.33c.66.15,1.31.33,2,.53a17.14,17.14,0,0,1,1.93.7,8.64,8.64,0,0,1,1.83,1,3.89,3.89,0,0,1,.79.78,2.09,2.09,0,0,1,.28.51c0,.1.06.19.08.29l0,.16v.11s0,0,0,.06v.13s0,.11,0,.16a2.17,2.17,0,0,1-.08.3,2.27,2.27,0,0,1-.27.54,3.51,3.51,0,0,1-.76.82A9.12,9.12,0,0,1,67.6,73.6a21.79,21.79,0,0,1-3.92,1.32c-1.32.32-2.65.56-4,.76s-2.62.34-3.91.45a64.6,64.6,0,0,1-7.43.17c-1.18,0-2.33-.11-3.43-.21s-2.18-.21-3.2-.36a44,44,0,0,1-5.52-1.11c-.81-.22-1.56-.47-2.25-.72a15.09,15.09,0,0,1-1.83-.82,8.12,8.12,0,0,1-1.37-.89,4.23,4.23,0,0,1-.48-.46,2.4,2.4,0,0,1-.33-.44,2.07,2.07,0,0,1-.19-.41,1.63,1.63,0,0,1-.07-.31v-.26h.12v.13l0,.1a2.9,2.9,0,0,0,.09.28,2.26,2.26,0,0,0,.21.34,5.43,5.43,0,0,0,2.2,1.51,16,16,0,0,0,1.83.65c.34.1.69.2,1.07.29s.75.19,1.16.28a50.34,50.34,0,0,0,5.46.83c2,.21,4.22.33,6.54.37s4.78,0,7.31-.16a53.49,53.49,0,0,0,7.73-1c.65-.14,1.29-.3,1.93-.48a18.69,18.69,0,0,0,1.87-.64A7.84,7.84,0,0,0,69,71.9a3,3,0,0,0,.66-.62,1.53,1.53,0,0,0,.21-.37.7.7,0,0,0,.06-.19s0,0,0-.09v-.12h0v-.08a.31.31,0,0,1,0-.1,1.46,1.46,0,0,0,0-.2,1.75,1.75,0,0,0-.19-.39,3.13,3.13,0,0,0-.63-.69,8.48,8.48,0,0,0-1.69-1,19.13,19.13,0,0,0-1.87-.74c-.63-.2-1.28-.38-1.93-.54A33.13,33.13,0,0,0,59.65,66c-1.3-.17-2.59-.28-3.86-.34-2.54-.13-5-.1-7.33,0-1.17,0-2.3.08-3.39.14s-2.15.14-3.16.24a51.38,51.38,0,0,0-5.47.8l-1.16.26c-.37.09-.73.19-1.07.29-.68.2-1.3.41-1.84.63a5.38,5.38,0,0,0-2.21,1.47,1.9,1.9,0,0,0-.21.35,1.3,1.3,0,0,0-.1.27l0,.1v.14Z" fill="#fff"/></g><g opacity="0.7"><path d="M39.28,70.35v-.13s0-.11,0-.18a.84.84,0,0,1,.09-.23,2.87,2.87,0,0,1,1.15-1,10,10,0,0,1,2.17-.86,20.89,20.89,0,0,1,2.94-.59c.54-.07,1.11-.13,1.69-.17s1.2-.06,1.83-.06l1,0,.48,0,.49,0c.65.06,1.32.14,2,.24s1.36.21,2,.33,1.38.27,2.08.43a14.5,14.5,0,0,1,2.07.64,4.36,4.36,0,0,1,1,.53c.09.06.16.13.24.19a1.14,1.14,0,0,0,.11.11.64.64,0,0,1,.1.13,1,1,0,0,1,.17.3l.06.17v.36a.79.79,0,0,1,0,.2l0,.09,0,.09a1.19,1.19,0,0,1-.09.15l0,.07a.18.18,0,0,0,0,.07l-.11.12a2.28,2.28,0,0,1-.22.22,5.31,5.31,0,0,1-1,.63c-.35.16-.69.3-1,.43s-.7.22-1.06.31a27.18,27.18,0,0,1-4.18.69,30.94,30.94,0,0,1-3.94.09c-.63,0-1.23-.07-1.82-.13s-1.15-.13-1.7-.21a23.58,23.58,0,0,1-2.92-.66,10.29,10.29,0,0,1-1.19-.42,8,8,0,0,1-1-.46,3,3,0,0,1-1.14-1,.93.93,0,0,1-.09-.22c0-.07,0-.13,0-.18v-.14h.11l0,.12,0,.13.05.08.06.09a2.77,2.77,0,0,0,1.17.72,9.93,9.93,0,0,0,1,.31l.56.14.3.06.31.06a28.55,28.55,0,0,0,2.87.37c1,.09,2.21.14,3.42.15s2.5,0,3.83-.08A28.18,28.18,0,0,0,57,72c.34-.07.68-.14,1-.23a10,10,0,0,0,1-.31,4.5,4.5,0,0,0,.88-.43l.18-.14.07-.07s0,0,0,0l0,0,.06-.08,0,0,0,0a0,0,0,0,1,0,0h0v0l0-.13c0,.06,0,0,0,0h0v-.06s0,0,0-.08a.71.71,0,0,0-.08-.18L60.2,70,60.13,70a1.33,1.33,0,0,0-.17-.16,3.88,3.88,0,0,0-.85-.55,9.89,9.89,0,0,0-2-.69,14.56,14.56,0,0,0-2.06-.36,19.94,19.94,0,0,0-2-.13c-.67,0-1.33,0-2,0h-.48l-.47,0-.93,0-1.77.07c-.58,0-1.13.07-1.66.12-1,.09-2,.22-2.86.37a12.66,12.66,0,0,0-2.14.55,2.84,2.84,0,0,0-1.17.7c-.05.06-.08.12-.12.16a1.12,1.12,0,0,0,0,.13l0,.13Z" fill="#fff"/></g><path d="M56.54,63.34a6.54,6.54,0,1,1-13.08,0c0-3.61,6.54-11.78,6.54-11.78S56.54,59.73,56.54,63.34Z" fill="url(#linear-gradient-2)"/><path d="M56,63.28a6,6,0,0,1-6,6C46.7,69.25,56,60,56,63.28Z" opacity="0.2" fill="url(#linear-gradient-3)"/><path d="M60.67,48.3c0,1.18-4.78,2.12-10.68,2.09s-10.66-1-10.66-2.19,4.78-5,10.68-5S60.67,47.12,60.67,48.3Z" fill="url(#linear-gradient-4)"/><rect x="39.33" y="41.73" width="21.34" height="6.47" fill="url(#linear-gradient-5)"/><ellipse cx="50" cy="41.68" rx="2.14" ry="10.67" transform="translate(8.07 91.46) rotate(-89.7)" fill="#e3e3e2"/><path d="M57.55,43.46A36.63,36.63,0,0,1,51.7,44a.38.38,0,0,0-.36.38v5.38a.38.38,0,0,0,.38.37,37.4,37.4,0,0,0,6-.58.36.36,0,0,0,.29-.36V43.82A.37.37,0,0,0,57.55,43.46Z" opacity="0.5" fill="url(#linear-gradient-6)"/><ellipse cx="50" cy="41.68" rx="1.84" ry="9.19" transform="translate(8.07 91.46) rotate(-89.7)" fill="url(#radial-gradient)"/><path d="M59.19,41.68H40.81V39.13a2.68,2.68,0,0,0-2.67-2.67H20.73V18.08H38.14a21,21,0,0,1,21,21.05Z" fill="url(#radial-gradient-2)"/><path d="M57.55,38.18a37.68,37.68,0,0,1-5.85.55.37.37,0,0,0-.36.37v3.28a.37.37,0,0,0,.38.37,37.54,37.54,0,0,0,6-.57.38.38,0,0,0,.29-.37V38.54A.37.37,0,0,0,57.55,38.18Z" opacity="0.5" fill="url(#linear-gradient-7)"/></svg>