<svg xmlns="http://www.w3.org/2000/svg" viewBox="0 0 37.83 92.13"><title>RO</title><g style="isolation:isolate"><g id="Layer_1" data-name="Layer 1"><path d="M68.92,42.21V38.57a2,2,0,0,0-1.2-1.84V33.8A2,2,0,0,0,68.91,32V28.31a2,2,0,0,0-1.2-1.84V23.54a2,2,0,0,0,1.2-1.84V18.05a2,2,0,0,0-1.2-1.84V13.29a2,2,0,0,0,1.2-1.85V7.8A2,2,0,0,0,67.68,6V5.78a1.85,1.85,0,0,0-1.85-1.85L34.13,4a1.85,1.85,0,0,0-1.85,1.85V6a2,2,0,0,0-1.2,1.84v3.65a2,2,0,0,0,1.2,1.84v2.93a2,2,0,0,0-1.2,1.84v3.65a2,2,0,0,0,1.2,1.84V26.5a2,2,0,0,0-1.2,1.85V32a2,2,0,0,0,1.2,1.84v2.93a2,2,0,0,0-1.2,1.84v3.65a2,2,0,0,0,1.2,1.84v1.67a10.54,10.54,0,0,0,7.07,9.94v1.81H60.62V55.69h0a10.53,10.53,0,0,0,7.07-10V44.06A2,2,0,0,0,68.92,42.21Z" transform="translate(-31.08 -3.93)" fill="#94d5f7" opacity="0.7" style="mix-blend-mode:multiply"/><path d="M67.42,37.38,67,37.19V33.34l.42-.19A1.31,1.31,0,0,0,68.19,32V28.31a1.31,1.31,0,0,0-.78-1.19L67,26.93V23.08l.42-.19a1.31,1.31,0,0,0,.77-1.19V19.49H31.81v2.25a1.3,1.3,0,0,0,.78,1.18l.42.19V27l-.42.19a1.3,1.3,0,0,0-.77,1.19V32a1.31,1.31,0,0,0,.78,1.19l.42.19v3.85l-.42.19a1.31,1.31,0,0,0-.77,1.19v3.65a1.31,1.31,0,0,0,.78,1.19l.42.19v2.13A9.86,9.86,0,0,0,39.62,55l.48.17v1.59H59.91v-1.1l0-.71h.6A9.86,9.86,0,0,0,67,45.73V43.59l.42-.19a1.3,1.3,0,0,0,.77-1.19V38.57A1.31,1.31,0,0,0,67.42,37.38Z" transform="translate(-31.08 -3.93)" fill="#42afe4" opacity="0.6"/><rect x="0.03" y="32.63" width="37.8" height="7.69" rx="2.02" fill="#1e1e1c" opacity="0.05" style="mix-blend-mode:multiply"/><rect x="0.02" y="22.37" width="37.8" height="7.69" rx="2.02" fill="#1e1e1c" opacity="0.05" style="mix-blend-mode:multiply"/><rect x="0.01" y="12.12" width="37.8" height="7.69" rx="2.02" fill="#1e1e1c" opacity="0.05" style="mix-blend-mode:multiply"/><rect y="1.86" width="37.8" height="7.69" rx="2.02" fill="#1e1e1c" opacity="0.05" style="mix-blend-mode:multiply"/><path d="M68.2,96.07H31.8V58.69a1.9,1.9,0,0,1,1.89-1.9H66.31a1.9,1.9,0,0,1,1.89,1.9Z" transform="translate(-31.08 -3.93)" fill="#eeeded"/><path d="M63.46,81.23H36.4V65.14a3.22,3.22,0,0,1,3.22-3.22H60.24a3.22,3.22,0,0,1,3.22,3.22Z" transform="translate(-31.08 -3.93)" fill="#c7c6c6"/><rect x="12.36" y="64.12" width="1.49" height="3.52" fill="#42afe4"/><polygon points="14.42 65.4 11.79 65.4 10.96 57.98 15.25 57.98 14.42 65.4" fill="#fff"/><rect x="23.85" y="64.12" width="1.49" height="3.52" fill="#e94f1d"/><polygon points="25.9 65.4 23.28 65.4 22.45 57.98 26.74 57.98 25.9 65.4" fill="#fff"/><rect x="8.12" y="65.34" width="6.29" height="0.81" fill="#9e9d9c"/><rect x="23.23" y="65.34" width="6.29" height="0.81" fill="#9e9d9c"/><rect x="5.32" y="76.1" width="27.06" height="1.19" fill="#9e9d9c"/><rect x="0.72" y="89.56" width="36.4" height="2.57" fill="#9e9d9c"/><g opacity="0.1"><path d="M38.21,92.2a44.73,44.73,0,0,1-6.48-.47v4.34h36.4V80.88A45.18,45.18,0,0,1,38.21,92.2Z" transform="translate(-31.08 -3.93)" fill="#1e1e1c"/></g><path d="M36.59,8.07C36.13,9.4,35,10.21,34,9.87s-1.4-1.69-.94-3S34.68,4.71,35.66,5,37.05,6.73,36.59,8.07Z" transform="translate(-31.08 -3.93)" fill="#fff"/></g></g></svg>