<svg id="Layer_1" data-name="Layer 1" xmlns="http://www.w3.org/2000/svg" xmlns:xlink="http://www.w3.org/1999/xlink" viewBox="0 0 94.44 67.16"><defs><linearGradient id="ÅÂÁ_Ï_ÌÌ_È_ËÂÌÚ_8" x1="49.36" y1="13.82" x2="49.36" y2="100.7" gradientUnits="userSpaceOnUse"><stop offset="0" stop-color="#40b8eb"/><stop offset="1" stop-color="#3b72b8"/></linearGradient><linearGradient id="ÅÂÁ_Ï_ÌÌ_È_ËÂÌÚ_8-2" x1="49.36" y1="13.82" x2="49.36" y2="100.7" xlink:href="#ÅÂÁ_Ï_ÌÌ_È_ËÂÌÚ_8"/><linearGradient id="ÅÂÁ_Ï_ÌÌ_È_ËÂÌÚ_8-3" x1="49.29" y1="13.82" x2="49.29" y2="100.7" xlink:href="#ÅÂÁ_Ï_ÌÌ_È_ËÂÌÚ_8"/><linearGradient id="ÅÂÁ_Ï_ÌÌ_È_ËÂÌÚ_8-4" x1="49.36" y1="13.82" x2="49.36" y2="100.7" xlink:href="#ÅÂÁ_Ï_ÌÌ_È_ËÂÌÚ_8"/></defs><title>WiFi</title><path d="M49.36,74a15.07,15.07,0,0,0-10.62,4.37h0L49.36,89.15,60,78.41h0A15.06,15.06,0,0,0,49.36,74Z" transform="translate(-2.14 -21.99)" fill="url(#ÅÂÁ_Ï_ÌÌ_È_ËÂÌÚ_8)"/><path d="M49.36,70.68a18.42,18.42,0,0,1,13,5.35h0l9.44-9.55a31.84,31.84,0,0,0-44.84,0L36.38,76h0A18.43,18.43,0,0,1,49.36,70.68Z" transform="translate(-2.14 -21.99)" fill="url(#ÅÂÁ_Ï_ÌÌ_È_ËÂÌÚ_8-2)"/><path d="M74.14,64.1l9.44-9.55a48.59,48.59,0,0,0-68.43,0L15,54.4l9.58,9.7a35.18,35.18,0,0,1,49.56,0Z" transform="translate(-2.14 -21.99)" fill="url(#ÅÂÁ_Ï_ÌÌ_È_ËÂÌÚ_8-3)"/><path d="M85.94,52.17,96.58,41.4a67.14,67.14,0,0,0-94.44,0L12.79,52.17a51.92,51.92,0,0,1,73.15,0Z" transform="translate(-2.14 -21.99)" fill="url(#ÅÂÁ_Ï_ÌÌ_È_ËÂÌÚ_8-4)"/></svg>